M48
; DRILL file {KiCad (5.1.6)-1} date 08/23/22 22:02:46
; FORMAT={-:-/ absolute / inch / decimal}
; #@! TF.CreationDate,2022-08-23T22:02:46+08:00
; #@! TF.GenerationSoftware,Kicad,Pcbnew,(5.1.6)-1
; #@! TF.FileFunction,Plated,1,2,PTH
FMAT,2
INCH
T1C0.0157
T2C0.0236
T3C0.0315
T4C0.0394
T5C0.0866
%
G90
G05
T1
X6.3033Y-6.5927
X6.3083Y-6.6683
X6.4696Y-6.2969
X6.4918Y-8.9223
X6.5871Y-6.6157
X6.6742Y-8.1219
X6.7568Y-7.4276
X6.777Y-8.8885
X6.8275Y-9.1
X6.9354Y-8.8904
X6.9629Y-7.524
X7.0926Y-6.3674
X7.0987Y-7.3205
X7.1908Y-8.2466
X7.2069Y-9.8373
X7.2077Y-9.2106
X7.2112Y-7.2278
X7.228Y-7.1365
X7.2574Y-9.776
X7.3383Y-8.1219
X7.3766Y-6.9984
X7.3892Y-8.2828
X7.4212Y-6.6825
X7.4783Y-6.8358
X7.4916Y-6.945
X7.4919Y-6.7358
X7.5458Y-7.5363
X7.5917Y-8.2944
X7.6142Y-8.1219
X7.6357Y-9.0704
X7.641Y-6.1995
X7.7316Y-6.8735
X7.7578Y-5.9081
X7.7933Y-9.0101
X7.812Y-9.8251
X7.8152Y-7.299
X7.8406Y-7.539
X7.8465Y-6.7126
X7.8514Y-7.4285
X7.859Y-9.8135
X7.8786Y-6.8333
X7.8856Y-8.5728
X7.8947Y-7.376
X7.9092Y-7.5126
X7.9136Y-7.4132
X7.9253Y-6.1995
X7.9396Y-8.6267
X7.9451Y-6.8467
X7.9473Y-9.9505
X7.9839Y-9.7897
X7.9942Y-9.002
X8.0724Y-6.5065
X8.1164Y-8.2747
X8.1238Y-6.4116
X8.1745Y-8.7809
X8.1961Y-6.1448
X8.24Y-6.1864
X8.2754Y-9.036
X8.4305Y-10.1418
X8.4317Y-6.3199
X8.4616Y-6.4687
X8.4781Y-10.1416
X8.4812Y-8.1527
X8.4903Y-10.058
X8.4913Y-6.1489
X8.4948Y-9.8477
X8.5056Y-9.0704
X8.51Y-7.1218
X8.5163Y-7.9355
X8.5973Y-7.8267
X8.6197Y-7.9369
X8.6251Y-6.1893
X8.6395Y-7.785
X8.647Y-9.9712
X8.6545Y-9.1433
X8.6797Y-9.059
X8.6936Y-9.7623
X8.7004Y-8.6762
X8.765Y-9.3284
X8.7706Y-9.2728
X8.7877Y-9.9808
X8.8391Y-8.7322
X8.854Y-9.0303
X8.8547Y-8.1527
X8.92Y-9.7897
X8.9301Y-9.5197
X8.9386Y-6.5359
X8.9429Y-6.0914
X8.9867Y-6.5518
X9.0795Y-10.2427
X9.0926Y-9.5197
X9.1041Y-6.7507
X9.1102Y-8.5072
X9.1171Y-9.562
X9.1328Y-8.092
X9.1535Y-6.6147
X9.1563Y-9.622
X9.1664Y-9.8756
X9.2557Y-10.2254
X9.2721Y-9.8334
X9.3095Y-10.2257
X9.3204Y-10.1858
X9.3452Y-10.437
X9.3696Y-9.7499
X9.4059Y-8.2825
X9.4773Y-9.9205
X9.4902Y-10.2652
X9.4938Y-6.6147
X9.5319Y-8.3684
X9.5446Y-10.3511
X9.5458Y-6.9021
X9.5528Y-8.427
X9.5586Y-8.092
X9.5601Y-9.8484
X9.5749Y-9.346
X9.5884Y-7.0034
X9.6004Y-10.1513
X9.6471Y-10.1245
X9.6498Y-8.3368
X9.7377Y-6.8384
X9.7504Y-9.0456
X9.7552Y-6.5638
X9.7653Y-6.4785
X9.8118Y-8.2825
X9.8305Y-6.8878
X9.8903Y-8.0768
X9.8957Y-7.0256
X9.9573Y-7.1136
X9.9645Y-6.8677
X10.1027Y-9.0909
X10.1278Y-10.4875
X10.2129Y-6.7966
X10.2341Y-10.2009
X10.25Y-6.986
X10.2502Y-8.0768
X10.2511Y-6.5983
X10.2538Y-6.8243
X10.3098Y-6.4785
X10.3187Y-9.9205
X10.3372Y-6.518
X10.3961Y-8.4367
X10.4507Y-8.4321
X10.5204Y-8.9752
X10.5302Y-6.8568
X10.5796Y-8.2828
X10.5871Y-8.5051
X10.6062Y-6.3282
X10.6064Y-6.8951
X10.7105Y-6.9439
X10.7125Y-8.1501
X10.7366Y-8.252
X10.8421Y-9.7916
X10.8457Y-8.8049
X10.8673Y-9.8484
X10.9986Y-7.662
X11.0116Y-6.5848
X11.0467Y-6.6679
X11.0797Y-8.7728
X11.0868Y-6.5044
X11.1132Y-8.1501
X11.3086Y-7.3589
X11.3319Y-6.3303
X11.3403Y-6.8221
X11.3642Y-8.1219
X11.401Y-6.171
X11.4593Y-7.2991
X11.5288Y-10.0584
X11.5584Y-8.9126
X11.5948Y-8.9752
X11.602Y-9.0641
X11.6837Y-9.9926
X11.6849Y-9.9532
X11.6874Y-6.8895
X11.6954Y-9.1051
X11.7251Y-10.0142
X11.7465Y-9.3035
X11.7466Y-8.0842
X11.7554Y-9.8112
X11.7743Y-9.9029
X11.7792Y-8.9787
X11.7813Y-10.0369
X11.8156Y-9.2735
X11.8338Y-10.1342
X11.8546Y-6.4719
X11.8829Y-10.2508
X11.9092Y-9.459
X11.9305Y-10.596
X11.9609Y-10.0607
X12.0369Y-6.9122
X12.0383Y-10.0085
X12.0789Y-6.3296
X12.0904Y-10.0607
X12.1Y-7.9709
X12.1065Y-6.8435
X12.1305Y-10.5014
X12.1461Y-10.3742
X12.2112Y-8.3065
X12.2185Y-7.0296
X12.2266Y-9.4313
X12.2665Y-9.0737
X12.2833Y-7.689
X12.3282Y-6.8475
X12.3597Y-10.4295
X12.3779Y-9.8464
X12.3957Y-6.8221
X12.4475Y-9.8391
X12.4558Y-9.7844
X12.5095Y-9.7626
X12.5628Y-6.5182
X12.5717Y-7.6247
X12.5928Y-8.1578
X12.6001Y-7.5979
X12.6031Y-9.8112
X12.615Y-7.9619
X12.6178Y-6.8137
X12.6792Y-8.2673
X12.6796Y-9.6592
X12.708Y-10.104
X12.7094Y-9.3066
X12.7518Y-7.4283
X12.7879Y-10.5937
X12.8178Y-10.1393
X12.8536Y-9.0826
X12.854Y-8.6041
X12.861Y-6.4549
X12.8924Y-8.0789
X12.9002Y-10.2508
X12.9061Y-9.0737
X12.9881Y-6.5638
X12.9995Y-9.6592
X13.0234Y-10.0772
X13.0259Y-8.2402
X13.0294Y-9.8891
X13.0405Y-7.7164
X13.0445Y-8.7645
X13.0445Y-8.9102
X13.0803Y-10.103
X13.1031Y-7.8586
X13.1034Y-6.8865
X13.122Y-6.6344
X13.124Y-7.4322
X13.1268Y-6.7393
X13.154Y-10.3742
X13.1641Y-6.6962
X13.1738Y-6.7352
X13.1744Y-7.9279
X13.177Y-9.8391
X13.1778Y-10.2871
X13.1815Y-6.8597
X13.2043Y-10.0111
X13.2436Y-10.2329
X13.2705Y-8.0356
X13.2971Y-9.8504
X13.3163Y-10.103
X13.3293Y-7.6418
X13.3603Y-10.5466
X13.37Y-6.8481
X13.4219Y-9.6602
X13.4637Y-9.7611
X13.4919Y-6.493
X13.4939Y-8.7645
X13.5036Y-7.7164
X13.5204Y-8.943
X13.5503Y-9.5369
X13.6007Y-6.7787
X13.607Y-9.2352
X13.6601Y-10.3851
X13.6909Y-6.9103
X13.7062Y-9.7909
X13.7347Y-8.1527
X13.7811Y-9.072
X13.8094Y-6.8024
X13.8159Y-10.5595
X13.8189Y-6.484
X13.8276Y-6.5509
X13.865Y-8.5712
X13.8654Y-8.8665
X13.8963Y-8.24
X13.9118Y-9.753
X13.9255Y-9.2308
X13.9375Y-9.9151
X13.9561Y-8.21
X13.9625Y-10.2088
X13.9662Y-7.2279
X13.9815Y-7.1431
X13.9924Y-9.8772
X14.0014Y-9.2308
X14.0088Y-8.7633
X14.0321Y-10.5234
X14.1147Y-8.1527
X14.1742Y-9.6235
X14.1967Y-8.3758
X14.2112Y-8.9853
X14.2171Y-7.5083
X14.2302Y-7.0064
X14.2556Y-8.9406
X14.2859Y-7.1431
X14.3146Y-6.8716
X14.3397Y-6.5784
X14.3419Y-7.0064
X14.366Y-8.0094
X14.3733Y-8.1335
X14.394Y-8.5718
X14.4685Y-7.4994
X14.4838Y-9.2169
X14.5067Y-7.1859
X14.507Y-8.1335
X14.5331Y-8.6611
X14.5342Y-8.8708
X14.5375Y-6.269
X14.5556Y-6.1509
X14.5639Y-7.6129
X14.5663Y-10.0946
X14.6157Y-6.4702
X14.6299Y-10.0946
X14.6432Y-9.1988
X14.645Y-8.0094
X14.688Y-8.6077
X14.7298Y-10.5547
X14.7606Y-9.8153
X14.7692Y-6.9735
X14.7846Y-8.4507
X14.7854Y-6.6342
X14.8485Y-6.8145
X14.8925Y-6.9606
X14.9058Y-8.9781
X14.9088Y-6.7878
X14.9108Y-9.7751
X14.9145Y-9.3751
X14.9192Y-7.0461
X14.9206Y-6.5988
X15.0017Y-7.4994
X15.0129Y-6.4702
X15.0161Y-8.4507
X15.0181Y-7.4571
X15.0194Y-10.3259
X15.0368Y-6.7259
X15.1074Y-8.3128
X15.1184Y-7.4857
X15.1206Y-8.2742
X15.1223Y-7.0044
X15.1234Y-6.9651
X15.153Y-10.4304
X15.1626Y-6.8558
X15.1689Y-8.3256
X15.2007Y-7.3066
X15.205Y-10.3152
X15.2071Y-6.8843
X15.2122Y-6.6251
X15.2298Y-10.4092
X15.2611Y-8.3111
X15.2724Y-8.7345
X15.3012Y-6.3312
X15.3657Y-7.3922
X15.3668Y-8.2474
X15.3697Y-7.6696
X15.3916Y-8.5937
X15.4199Y-7.4583
X15.4258Y-7.3066
X15.5002Y-7.0299
X15.527Y-7.1339
X15.5443Y-7.6428
X15.5554Y-10.4804
X15.5642Y-6.8558
X15.5733Y-8.8509
X15.5764Y-7.009
X15.6146Y-6.6712
X15.6479Y-9.8153
X15.6572Y-9.501
X15.6633Y-8.2687
X15.6696Y-6.5702
X15.6894Y-10.5436
X15.6921Y-6.372
X15.7203Y-6.6712
X15.7209Y-7.5444
X15.7242Y-8.6222
X15.7291Y-8.4572
X15.7308Y-9.0176
X15.732Y-10.1265
X15.7799Y-7.009
X15.7901Y-9.0024
X15.8016Y-8.8302
X15.8137Y-6.9164
X15.8227Y-9.3258
X15.8278Y-6.7411
X15.8642Y-8.1219
X15.8705Y-8.249
X15.9272Y-8.499
X15.9394Y-8.4422
X15.9533Y-8.9847
X15.954Y-7.1924
X15.9644Y-9.4033
X15.9752Y-7.5842
X15.9793Y-8.8984
X15.9814Y-10.4865
X16.0072Y-9.3559
X16.0146Y-8.8631
X16.0384Y-8.915
X16.044Y-10.5108
X16.0443Y-6.4551
X16.056Y-7.5855
X16.0684Y-6.9416
X16.101Y-7.5574
X16.1021Y-7.3896
X16.1065Y-7.8979
X16.1337Y-8.0531
X16.1723Y-7.7928
X16.1941Y-7.2019
X16.1961Y-6.9607
X16.2168Y-10.7526
X16.2247Y-7.0144
X16.2467Y-9.1868
X16.3046Y-7.8186
X16.3239Y-7.1328
X16.3535Y-9.3258
X16.3565Y-8.5967
X16.3675Y-6.7878
X16.3752Y-7.5883
X16.4215Y-10.4072
X16.469Y-9.1698
X16.4702Y-8.3524
X16.4993Y-7.5489
X16.4996Y-8.7668
X16.5256Y-9.0868
X16.531Y-8.1513
X16.5934Y-6.8286
X16.597Y-7.5323
X16.616Y-7.8578
X16.6365Y-7.8041
X16.666Y-8.8114
X16.6668Y-8.7668
X16.6865Y-8.6832
X16.7296Y-6.5578
X16.7382Y-9.0741
X16.7439Y-8.6849
X16.7535Y-7.6137
X16.7807Y-8.649
X16.7849Y-10.6924
X16.8183Y-9.2161
X16.8443Y-8.4518
X16.853Y-9.1008
X16.8792Y-8.9081
X16.8835Y-8.4122
X16.8943Y-7.66
X16.9022Y-6.9108
X16.9061Y-10.7145
X16.9189Y-6.774
X16.9279Y-8.6221
X16.9415Y-9.9885
X16.946Y-7.5877
X16.9727Y-8.5102
X16.9801Y-6.4559
X17.0853Y-7.0108
X17.0985Y-10.709
X17.105Y-10.7526
X17.1447Y-7.049
X17.1543Y-10.7646
X17.1553Y-8.7049
X17.1646Y-8.046
X17.1743Y-8.094
X17.1752Y-7.0234
X17.1774Y-8.772
X17.1843Y-8.9211
X17.2066Y-6.479
X17.2419Y-8.6527
X17.2491Y-8.092
X17.291Y-8.6781
X17.3003Y-7.1024
X17.3168Y-8.7712
X17.3446Y-10.2584
X17.3902Y-7.8772
X17.3959Y-7.8025
X17.411Y-6.6002
X17.4286Y-7.6468
X17.4712Y-7.765
X17.4789Y-6.47
X17.4795Y-6.6454
X17.4986Y-7.7989
X17.5393Y-9.0596
X17.5632Y-9.0018
X17.6107Y-8.092
X17.6728Y-8.046
X17.678Y-10.5919
X17.6783Y-7.5148
X17.6989Y-8.7419
X17.7033Y-8.5162
X17.7179Y-7.9859
X17.8308Y-8.046
X17.8895Y-10.7646
X17.9064Y-7.5148
X17.9332Y-7.85
X18.0548Y-9.9885
X18.1195Y-7.3925
X18.1874Y-8.3893
X18.1994Y-9.0018
T3
X10.0937Y-10.0218
X10.0937Y-10.2139
T4
X17.6575Y-6.2008
X17.6575Y-6.2992
X17.6575Y-6.3976
X18.2283Y-6.2008
X18.2283Y-6.3976
X16.9902Y-9.0596
X17.0902Y-9.0596
X17.1902Y-9.0596
X17.2902Y-9.0596
T5
X17.9528Y-6.0787
X17.9528Y-6.5197
T2
G00X8.2699Y-5.8961
M15
G01X8.2699Y-5.9276
M16
G05
G00X8.2699Y-6.0543
M15
G01X8.2699Y-6.0976
M16
G05
G00X8.6101Y-5.8961
M15
G01X8.6101Y-5.9276
M16
G05
G00X8.6101Y-6.0543
M15
G01X8.6101Y-6.0976
M16
G05
T0
M30
