%TF.GenerationSoftware,KiCad,Pcbnew,(5.1.6)-1*%
%TF.CreationDate,2022-07-30T00:49:16+08:00*%
%TF.ProjectId,feng,66656e67-2e6b-4696-9361-645f70636258,rev?*%
%TF.SameCoordinates,Original*%
%TF.FileFunction,Soldermask,Top*%
%TF.FilePolarity,Negative*%
%FSLAX46Y46*%
G04 Gerber Fmt 4.6, Leading zero omitted, Abs format (unit mm)*
G04 Created by KiCad (PCBNEW (5.1.6)-1) date 2022-07-30 00:49:16*
%MOMM*%
%LPD*%
G01*
G04 APERTURE LIST*
%ADD10C,2.082800*%
%ADD11O,1.700000X1.700000*%
%ADD12C,1.700000*%
%ADD13C,1.900000*%
%ADD14R,1.900000X1.900000*%
%ADD15R,1.700000X1.700000*%
%ADD16O,1.800000X1.800000*%
%ADD17R,1.800000X1.800000*%
G04 APERTURE END LIST*
D10*
%TO.C,J4*%
X97500000Y-39540000D03*
X97500000Y-37000000D03*
%TD*%
%TO.C,J3*%
X173580000Y-33000000D03*
X171040000Y-33000000D03*
X168500000Y-33000000D03*
%TD*%
D11*
%TO.C,R5*%
X122800000Y-33500000D03*
D12*
X135500000Y-33500000D03*
%TD*%
D10*
%TO.C,J2*%
X180000000Y-50000000D03*
%TD*%
D13*
%TO.C,D1*%
X139960000Y-33500000D03*
D14*
X142500000Y-33500000D03*
%TD*%
D11*
%TO.C,SW24*%
X105120000Y-79000000D03*
D15*
X97500000Y-79000000D03*
%TD*%
D11*
%TO.C,SW23*%
X116120000Y-79000000D03*
D15*
X108500000Y-79000000D03*
%TD*%
D11*
%TO.C,SW22*%
X127120000Y-79000000D03*
D15*
X119500000Y-79000000D03*
%TD*%
D11*
%TO.C,SW21*%
X138120000Y-79000000D03*
D15*
X130500000Y-79000000D03*
%TD*%
D11*
%TO.C,SW20*%
X149120000Y-79000000D03*
D15*
X141500000Y-79000000D03*
%TD*%
D11*
%TO.C,SW19*%
X160120000Y-79000000D03*
D15*
X152500000Y-79000000D03*
%TD*%
D11*
%TO.C,SW18*%
X171120000Y-79000000D03*
D15*
X163500000Y-79000000D03*
%TD*%
D11*
%TO.C,SW17*%
X182120000Y-79000000D03*
D15*
X174500000Y-79000000D03*
%TD*%
D11*
%TO.C,SW16*%
X105120000Y-71000000D03*
D15*
X97500000Y-71000000D03*
%TD*%
D11*
%TO.C,SW15*%
X116120000Y-71000000D03*
D15*
X108500000Y-71000000D03*
%TD*%
D11*
%TO.C,SW14*%
X127120000Y-71000000D03*
D15*
X119500000Y-71000000D03*
%TD*%
D11*
%TO.C,SW13*%
X138120000Y-71000000D03*
D15*
X130500000Y-71000000D03*
%TD*%
D11*
%TO.C,SW12*%
X149120000Y-71000000D03*
D15*
X141500000Y-71000000D03*
%TD*%
D11*
%TO.C,SW11*%
X160120000Y-71000000D03*
D15*
X152500000Y-71000000D03*
%TD*%
D11*
%TO.C,SW10*%
X171120000Y-71000000D03*
D15*
X163500000Y-71000000D03*
%TD*%
D11*
%TO.C,SW9*%
X182120000Y-71000000D03*
D15*
X174500000Y-71000000D03*
%TD*%
D11*
%TO.C,SW8*%
X105120000Y-63000000D03*
D15*
X97500000Y-63000000D03*
%TD*%
D11*
%TO.C,SW7*%
X116120000Y-63000000D03*
D15*
X108500000Y-63000000D03*
%TD*%
D11*
%TO.C,SW6*%
X127120000Y-63000000D03*
D15*
X119500000Y-63000000D03*
%TD*%
D11*
%TO.C,SW5*%
X138120000Y-63000000D03*
D15*
X130500000Y-63000000D03*
%TD*%
D11*
%TO.C,SW4*%
X149120000Y-63000000D03*
D15*
X141500000Y-63000000D03*
%TD*%
D11*
%TO.C,SW3*%
X160120000Y-63000000D03*
D15*
X152500000Y-63000000D03*
%TD*%
D11*
%TO.C,SW2*%
X171120000Y-63000000D03*
D15*
X163500000Y-63000000D03*
%TD*%
D11*
%TO.C,SW1*%
X182120000Y-63000000D03*
D15*
X174500000Y-63000000D03*
%TD*%
D16*
%TO.C,J1*%
X180000000Y-45580000D03*
X180000000Y-43040000D03*
D17*
X180000000Y-40500000D03*
%TD*%
M02*
