%TF.GenerationSoftware,KiCad,Pcbnew,(5.1.6)-1*%
%TF.CreationDate,2022-09-12T19:20:27+08:00*%
%TF.ProjectId,feng,66656e67-2e6b-4696-9361-645f70636258,rev?*%
%TF.SameCoordinates,Original*%
%TF.FileFunction,Soldermask,Bot*%
%TF.FilePolarity,Negative*%
%FSLAX46Y46*%
G04 Gerber Fmt 4.6, Leading zero omitted, Abs format (unit mm)*
G04 Created by KiCad (PCBNEW (5.1.6)-1) date 2022-09-12 19:20:27*
%MOMM*%
%LPD*%
G01*
G04 APERTURE LIST*
%ADD10R,0.730000X1.100000*%
%ADD11R,2.100000X1.600000*%
%ADD12R,2.100000X3.900000*%
%ADD13R,1.402080X1.000760*%
%ADD14C,1.850000*%
%ADD15C,4.100000*%
%ADD16C,3.150000*%
%ADD17C,3.300000*%
%ADD18C,5.400000*%
%ADD19C,1.600000*%
%ADD20C,6.100000*%
%ADD21R,2.100000X2.100000*%
%ADD22C,2.100000*%
%ADD23C,2.900000*%
%ADD24R,0.600000X0.900000*%
%ADD25R,0.500000X0.900000*%
%ADD26R,0.900000X0.600000*%
%ADD27R,0.900000X0.500000*%
%ADD28R,1.000760X1.402080*%
%ADD29R,0.700000X1.260000*%
%ADD30C,0.700000*%
%ADD31R,0.400000X1.260000*%
%ADD32O,1.000000X1.800000*%
%ADD33O,1.000000X2.100000*%
%ADD34O,1.800000X1.800000*%
%ADD35R,1.800000X1.800000*%
G04 APERTURE END LIST*
D10*
%TO.C,D82*%
X285841480Y-265506000D03*
X285841440Y-262306000D03*
X280070560Y-265506000D03*
X280070560Y-262306000D03*
%TD*%
%TO.C,D81*%
X419191480Y-227406000D03*
X419191440Y-224206000D03*
X413420560Y-227406000D03*
X413420560Y-224206000D03*
%TD*%
%TO.C,D80*%
X388203480Y-227406000D03*
X388203440Y-224206000D03*
X382432560Y-227406000D03*
X382432560Y-224206000D03*
%TD*%
%TO.C,D79*%
X368899480Y-227406000D03*
X368899440Y-224206000D03*
X363128560Y-227406000D03*
X363128560Y-224206000D03*
%TD*%
%TO.C,D78*%
X350103480Y-227406000D03*
X350103440Y-224206000D03*
X344332560Y-227406000D03*
X344332560Y-224206000D03*
%TD*%
%TO.C,D77*%
X331053480Y-227406000D03*
X331053440Y-224206000D03*
X325282560Y-227406000D03*
X325282560Y-224206000D03*
%TD*%
%TO.C,D76*%
X312003480Y-227406000D03*
X312003440Y-224206000D03*
X306232560Y-227406000D03*
X306232560Y-224206000D03*
%TD*%
%TO.C,D75*%
X292953480Y-227406000D03*
X292953440Y-224206000D03*
X287182560Y-227406000D03*
X287182560Y-224206000D03*
%TD*%
%TO.C,D74*%
X273903480Y-227406000D03*
X273903440Y-224206000D03*
X268132560Y-227406000D03*
X268132560Y-224206000D03*
%TD*%
%TO.C,D73*%
X254853480Y-227406000D03*
X254853440Y-224206000D03*
X249082560Y-227406000D03*
X249082560Y-224206000D03*
%TD*%
%TO.C,D72*%
X235803480Y-227406000D03*
X235803440Y-224206000D03*
X230032560Y-227406000D03*
X230032560Y-224206000D03*
%TD*%
%TO.C,D71*%
X216753480Y-227406000D03*
X216753440Y-224206000D03*
X210982560Y-227406000D03*
X210982560Y-224206000D03*
%TD*%
%TO.C,D70*%
X197703480Y-227406000D03*
X197703440Y-224206000D03*
X191932560Y-227406000D03*
X191932560Y-224206000D03*
%TD*%
%TO.C,D69*%
X214467480Y-265506000D03*
X214467440Y-262306000D03*
X208696560Y-265506000D03*
X208696560Y-262306000D03*
%TD*%
%TO.C,D68*%
X190591480Y-265506000D03*
X190591440Y-262306000D03*
X184820560Y-265506000D03*
X184820560Y-262306000D03*
%TD*%
%TO.C,D67*%
X166715480Y-265506000D03*
X166715440Y-262306000D03*
X160944560Y-265506000D03*
X160944560Y-262306000D03*
%TD*%
%TO.C,D66*%
X176367480Y-246456000D03*
X176367440Y-243256000D03*
X170596560Y-246456000D03*
X170596560Y-243256000D03*
%TD*%
%TO.C,D65*%
X171541480Y-227406000D03*
X171541440Y-224206000D03*
X165770560Y-227406000D03*
X165770560Y-224206000D03*
%TD*%
%TO.C,D64*%
X169255480Y-208356000D03*
X169255440Y-205156000D03*
X163484560Y-208356000D03*
X163484560Y-205156000D03*
%TD*%
%TO.C,D63*%
X193131480Y-208356000D03*
X193131440Y-205156000D03*
X187360560Y-208356000D03*
X187360560Y-205156000D03*
%TD*%
%TO.C,D62*%
X212181480Y-208356000D03*
X212181440Y-205156000D03*
X206410560Y-208356000D03*
X206410560Y-205156000D03*
%TD*%
%TO.C,D61*%
X230977480Y-208356000D03*
X230977440Y-205156000D03*
X225206560Y-208356000D03*
X225206560Y-205156000D03*
%TD*%
%TO.C,D60*%
X250281480Y-208356000D03*
X250281440Y-205156000D03*
X244510560Y-208356000D03*
X244510560Y-205156000D03*
%TD*%
%TO.C,D59*%
X269331480Y-208356000D03*
X269331440Y-205156000D03*
X263560560Y-208356000D03*
X263560560Y-205156000D03*
%TD*%
%TO.C,D58*%
X288381480Y-208356000D03*
X288381440Y-205156000D03*
X282610560Y-208356000D03*
X282610560Y-205156000D03*
%TD*%
%TO.C,D57*%
X307431480Y-208356000D03*
X307431440Y-205156000D03*
X301660560Y-208356000D03*
X301660560Y-205156000D03*
%TD*%
%TO.C,D56*%
X326481480Y-208356000D03*
X326481440Y-205156000D03*
X320710560Y-208356000D03*
X320710560Y-205156000D03*
%TD*%
%TO.C,D55*%
X345531480Y-208356000D03*
X345531440Y-205156000D03*
X339760560Y-208356000D03*
X339760560Y-205156000D03*
%TD*%
%TO.C,D54*%
X364581480Y-208356000D03*
X364581440Y-205156000D03*
X358810560Y-208356000D03*
X358810560Y-205156000D03*
%TD*%
%TO.C,D53*%
X383631480Y-208356000D03*
X383631440Y-205156000D03*
X377860560Y-208356000D03*
X377860560Y-205156000D03*
%TD*%
%TO.C,D52*%
X402681480Y-208356000D03*
X402681440Y-205156000D03*
X396910560Y-208356000D03*
X396910560Y-205156000D03*
%TD*%
%TO.C,D51*%
X426303480Y-208356000D03*
X426303440Y-205156000D03*
X420532560Y-208356000D03*
X420532560Y-205156000D03*
%TD*%
%TO.C,D50*%
X421731480Y-179654000D03*
X421731440Y-176454000D03*
X415960560Y-179654000D03*
X415960560Y-176454000D03*
%TD*%
%TO.C,D49*%
X393283480Y-179654000D03*
X393283440Y-176454000D03*
X387512560Y-179654000D03*
X387512560Y-176454000D03*
%TD*%
%TO.C,D48*%
X374233480Y-179654000D03*
X374233440Y-176454000D03*
X368462560Y-179654000D03*
X368462560Y-176454000D03*
%TD*%
%TO.C,D47*%
X354929480Y-179654000D03*
X354929440Y-176454000D03*
X349158560Y-179654000D03*
X349158560Y-176454000D03*
%TD*%
%TO.C,D46*%
X335975480Y-179610000D03*
X335975440Y-176410000D03*
X330204560Y-179610000D03*
X330204560Y-176410000D03*
%TD*%
%TO.C,D45*%
X316985480Y-179600000D03*
X316985440Y-176400000D03*
X311214560Y-179600000D03*
X311214560Y-176400000D03*
%TD*%
%TO.C,D44*%
X296775480Y-179510000D03*
X296775440Y-176310000D03*
X291004560Y-179510000D03*
X291004560Y-176310000D03*
%TD*%
%TO.C,D43*%
X278735480Y-179600000D03*
X278735440Y-176400000D03*
X272964560Y-179600000D03*
X272964560Y-176400000D03*
%TD*%
%TO.C,D42*%
X259805480Y-179560000D03*
X259805440Y-176360000D03*
X254034560Y-179560000D03*
X254034560Y-176360000D03*
%TD*%
%TO.C,D41*%
X240665480Y-179730000D03*
X240665440Y-176530000D03*
X234894560Y-179730000D03*
X234894560Y-176530000D03*
%TD*%
%TO.C,D40*%
X221579480Y-179400000D03*
X221579440Y-176200000D03*
X215808560Y-179400000D03*
X215808560Y-176200000D03*
%TD*%
%TO.C,D39*%
X202529480Y-179400000D03*
X202529440Y-176200000D03*
X196758560Y-179400000D03*
X196758560Y-176200000D03*
%TD*%
%TO.C,D38*%
X183479480Y-179400000D03*
X183479440Y-176200000D03*
X177708560Y-179400000D03*
X177708560Y-176200000D03*
%TD*%
%TO.C,D37*%
X164429480Y-189306000D03*
X164429440Y-186106000D03*
X158658560Y-189306000D03*
X158658560Y-186106000D03*
%TD*%
%TO.C,D36*%
X164429480Y-165430000D03*
X164429440Y-162230000D03*
X158658560Y-165430000D03*
X158658560Y-162230000D03*
%TD*%
%TO.C,D35*%
X188305480Y-165430000D03*
X188305440Y-162230000D03*
X182534560Y-165430000D03*
X182534560Y-162230000D03*
%TD*%
%TO.C,D34*%
X207265480Y-155750000D03*
X207265440Y-152550000D03*
X201494560Y-155750000D03*
X201494560Y-152550000D03*
%TD*%
%TO.C,D33*%
X226285480Y-155770000D03*
X226285440Y-152570000D03*
X220514560Y-155770000D03*
X220514560Y-152570000D03*
%TD*%
%TO.C,D32*%
X245335480Y-165520000D03*
X245335440Y-162320000D03*
X239564560Y-165520000D03*
X239564560Y-162320000D03*
%TD*%
%TO.C,D31*%
X269255480Y-165350000D03*
X269255440Y-162150000D03*
X263484560Y-165350000D03*
X263484560Y-162150000D03*
%TD*%
%TO.C,D30*%
X288275480Y-165490000D03*
X288275440Y-162290000D03*
X282504560Y-165490000D03*
X282504560Y-162290000D03*
%TD*%
%TO.C,D29*%
X307215480Y-165470000D03*
X307215440Y-162270000D03*
X301444560Y-165470000D03*
X301444560Y-162270000D03*
%TD*%
%TO.C,D28*%
X326395480Y-165450000D03*
X326395440Y-162250000D03*
X320624560Y-165450000D03*
X320624560Y-162250000D03*
%TD*%
%TO.C,D27*%
X350075480Y-165490000D03*
X350075440Y-162290000D03*
X344304560Y-165490000D03*
X344304560Y-162290000D03*
%TD*%
%TO.C,D26*%
X369195480Y-165500000D03*
X369195440Y-162300000D03*
X363424560Y-165500000D03*
X363424560Y-162300000D03*
%TD*%
%TO.C,D25*%
X388255480Y-165500000D03*
X388255440Y-162300000D03*
X382484560Y-165500000D03*
X382484560Y-162300000D03*
%TD*%
%TO.C,D24*%
X407245480Y-165430000D03*
X407245440Y-162230000D03*
X401474560Y-165430000D03*
X401474560Y-162230000D03*
%TD*%
%TO.C,D23*%
X431015480Y-165470000D03*
X431015440Y-162270000D03*
X425244560Y-165470000D03*
X425244560Y-162270000D03*
%TD*%
%TO.C,D22*%
X459831480Y-189306000D03*
X459831440Y-186106000D03*
X454060560Y-189306000D03*
X454060560Y-186106000D03*
%TD*%
%TO.C,D21*%
X459831480Y-208356000D03*
X459831440Y-205156000D03*
X454060560Y-208356000D03*
X454060560Y-205156000D03*
%TD*%
%TO.C,D20*%
X459831480Y-227406000D03*
X459831440Y-224206000D03*
X454060560Y-227406000D03*
X454060560Y-224206000D03*
%TD*%
%TO.C,D19*%
X459831480Y-246456000D03*
X459831440Y-243256000D03*
X454060560Y-246456000D03*
X454060560Y-243256000D03*
%TD*%
%TO.C,D18*%
X435955480Y-251282000D03*
X435955440Y-248082000D03*
X430184560Y-251282000D03*
X430184560Y-248082000D03*
%TD*%
%TO.C,D17*%
X455005480Y-270332000D03*
X455005440Y-267132000D03*
X449234560Y-270332000D03*
X449234560Y-267132000D03*
%TD*%
%TO.C,D16*%
X435955480Y-270332000D03*
X435955440Y-267132000D03*
X430184560Y-270332000D03*
X430184560Y-267132000D03*
%TD*%
%TO.C,D15*%
X416905480Y-270332000D03*
X416905440Y-267132000D03*
X411134560Y-270332000D03*
X411134560Y-267132000D03*
%TD*%
%TO.C,D14*%
X404967480Y-246456000D03*
X404967440Y-243256000D03*
X399196560Y-246456000D03*
X399196560Y-243256000D03*
%TD*%
%TO.C,D13*%
X378805480Y-246456000D03*
X378805440Y-243256000D03*
X373034560Y-246456000D03*
X373034560Y-243256000D03*
%TD*%
%TO.C,D12*%
X393029480Y-265506000D03*
X393029440Y-262306000D03*
X387258560Y-265506000D03*
X387258560Y-262306000D03*
%TD*%
%TO.C,D11*%
X373979480Y-265506000D03*
X373979440Y-262306000D03*
X368208560Y-265506000D03*
X368208560Y-262306000D03*
%TD*%
%TO.C,D10*%
X354929480Y-265506000D03*
X354929440Y-262306000D03*
X349158560Y-265506000D03*
X349158560Y-262306000D03*
%TD*%
%TO.C,D9*%
X359755480Y-246456000D03*
X359755440Y-243256000D03*
X353984560Y-246456000D03*
X353984560Y-243256000D03*
%TD*%
%TO.C,D8*%
X340705480Y-246456000D03*
X340705440Y-243256000D03*
X334934560Y-246456000D03*
X334934560Y-243256000D03*
%TD*%
%TO.C,D7*%
X321655480Y-246456000D03*
X321655440Y-243256000D03*
X315884560Y-246456000D03*
X315884560Y-243256000D03*
%TD*%
%TO.C,D6*%
X302605480Y-246456000D03*
X302605440Y-243256000D03*
X296834560Y-246456000D03*
X296834560Y-243256000D03*
%TD*%
%TO.C,D5*%
X283555480Y-246456000D03*
X283555440Y-243256000D03*
X277784560Y-246456000D03*
X277784560Y-243256000D03*
%TD*%
%TO.C,D4*%
X264505480Y-246456000D03*
X264505440Y-243256000D03*
X258734560Y-246456000D03*
X258734560Y-243256000D03*
%TD*%
%TO.C,D3*%
X245455480Y-246456000D03*
X245455440Y-243256000D03*
X239684560Y-246456000D03*
X239684560Y-243256000D03*
%TD*%
%TO.C,D2*%
X226405480Y-246456000D03*
X226405440Y-243256000D03*
X220634560Y-246456000D03*
X220634560Y-243256000D03*
%TD*%
%TO.C,D1*%
X207355480Y-246456000D03*
X207355440Y-243256000D03*
X201584560Y-246456000D03*
X201584560Y-243256000D03*
%TD*%
D11*
%TO.C,U13*%
X225570000Y-175130000D03*
X225570000Y-170530000D03*
X225570000Y-172830000D03*
D12*
X231870000Y-172830000D03*
%TD*%
D13*
%TO.C,C12*%
X240420000Y-171190840D03*
X240420000Y-172989160D03*
%TD*%
%TO.C,C11*%
X236420000Y-171190840D03*
X236420000Y-172989160D03*
%TD*%
%TO.C,C10*%
X221920000Y-170730840D03*
X221920000Y-172529160D03*
%TD*%
%TO.C,C9*%
X218620000Y-170730840D03*
X218620000Y-172529160D03*
%TD*%
D14*
%TO.C,SW82*%
X461880000Y-201890000D03*
X451720000Y-201890000D03*
D15*
X456800000Y-201890000D03*
G36*
G01*
X461317000Y-197850000D02*
X461317000Y-195770000D01*
G75*
G02*
X461577000Y-195510000I260000J0D01*
G01*
X463707000Y-195510000D01*
G75*
G02*
X463967000Y-195770000I0J-260000D01*
G01*
X463967000Y-197850000D01*
G75*
G02*
X463707000Y-198110000I-260000J0D01*
G01*
X461577000Y-198110000D01*
G75*
G02*
X461317000Y-197850000I0J260000D01*
G01*
G37*
G36*
G01*
X448390000Y-200390000D02*
X448390000Y-198310000D01*
G75*
G02*
X448650000Y-198050000I260000J0D01*
G01*
X450780000Y-198050000D01*
G75*
G02*
X451040000Y-198310000I0J-260000D01*
G01*
X451040000Y-200390000D01*
G75*
G02*
X450780000Y-200650000I-260000J0D01*
G01*
X448650000Y-200650000D01*
G75*
G02*
X448390000Y-200390000I0J260000D01*
G01*
G37*
D16*
X459340000Y-196810000D03*
X452990000Y-199350000D03*
%TD*%
D14*
%TO.C,SW81*%
X461880000Y-182840000D03*
X451720000Y-182840000D03*
D15*
X456800000Y-182840000D03*
G36*
G01*
X461317000Y-178800000D02*
X461317000Y-176720000D01*
G75*
G02*
X461577000Y-176460000I260000J0D01*
G01*
X463707000Y-176460000D01*
G75*
G02*
X463967000Y-176720000I0J-260000D01*
G01*
X463967000Y-178800000D01*
G75*
G02*
X463707000Y-179060000I-260000J0D01*
G01*
X461577000Y-179060000D01*
G75*
G02*
X461317000Y-178800000I0J260000D01*
G01*
G37*
G36*
G01*
X448390000Y-181340000D02*
X448390000Y-179260000D01*
G75*
G02*
X448650000Y-179000000I260000J0D01*
G01*
X450780000Y-179000000D01*
G75*
G02*
X451040000Y-179260000I0J-260000D01*
G01*
X451040000Y-181340000D01*
G75*
G02*
X450780000Y-181600000I-260000J0D01*
G01*
X448650000Y-181600000D01*
G75*
G02*
X448390000Y-181340000I0J260000D01*
G01*
G37*
D16*
X459340000Y-177760000D03*
X452990000Y-180300000D03*
%TD*%
D14*
%TO.C,SW80*%
X295193000Y-220939000D03*
X285033000Y-220939000D03*
D15*
X290113000Y-220939000D03*
G36*
G01*
X294630000Y-216899000D02*
X294630000Y-214819000D01*
G75*
G02*
X294890000Y-214559000I260000J0D01*
G01*
X297020000Y-214559000D01*
G75*
G02*
X297280000Y-214819000I0J-260000D01*
G01*
X297280000Y-216899000D01*
G75*
G02*
X297020000Y-217159000I-260000J0D01*
G01*
X294890000Y-217159000D01*
G75*
G02*
X294630000Y-216899000I0J260000D01*
G01*
G37*
G36*
G01*
X281703000Y-219439000D02*
X281703000Y-217359000D01*
G75*
G02*
X281963000Y-217099000I260000J0D01*
G01*
X284093000Y-217099000D01*
G75*
G02*
X284353000Y-217359000I0J-260000D01*
G01*
X284353000Y-219439000D01*
G75*
G02*
X284093000Y-219699000I-260000J0D01*
G01*
X281963000Y-219699000D01*
G75*
G02*
X281703000Y-219439000I0J260000D01*
G01*
G37*
D16*
X292653000Y-215859000D03*
X286303000Y-218399000D03*
%TD*%
D14*
%TO.C,SW79*%
X309524000Y-201892000D03*
X299364000Y-201892000D03*
D15*
X304444000Y-201892000D03*
G36*
G01*
X308961000Y-197852000D02*
X308961000Y-195772000D01*
G75*
G02*
X309221000Y-195512000I260000J0D01*
G01*
X311351000Y-195512000D01*
G75*
G02*
X311611000Y-195772000I0J-260000D01*
G01*
X311611000Y-197852000D01*
G75*
G02*
X311351000Y-198112000I-260000J0D01*
G01*
X309221000Y-198112000D01*
G75*
G02*
X308961000Y-197852000I0J260000D01*
G01*
G37*
G36*
G01*
X296034000Y-200392000D02*
X296034000Y-198312000D01*
G75*
G02*
X296294000Y-198052000I260000J0D01*
G01*
X298424000Y-198052000D01*
G75*
G02*
X298684000Y-198312000I0J-260000D01*
G01*
X298684000Y-200392000D01*
G75*
G02*
X298424000Y-200652000I-260000J0D01*
G01*
X296294000Y-200652000D01*
G75*
G02*
X296034000Y-200392000I0J260000D01*
G01*
G37*
D16*
X306984000Y-196812000D03*
X300634000Y-199352000D03*
%TD*%
D14*
%TO.C,SW78*%
X218993000Y-220939000D03*
X208833000Y-220939000D03*
D15*
X213913000Y-220939000D03*
G36*
G01*
X218430000Y-216899000D02*
X218430000Y-214819000D01*
G75*
G02*
X218690000Y-214559000I260000J0D01*
G01*
X220820000Y-214559000D01*
G75*
G02*
X221080000Y-214819000I0J-260000D01*
G01*
X221080000Y-216899000D01*
G75*
G02*
X220820000Y-217159000I-260000J0D01*
G01*
X218690000Y-217159000D01*
G75*
G02*
X218430000Y-216899000I0J260000D01*
G01*
G37*
G36*
G01*
X205503000Y-219439000D02*
X205503000Y-217359000D01*
G75*
G02*
X205763000Y-217099000I260000J0D01*
G01*
X207893000Y-217099000D01*
G75*
G02*
X208153000Y-217359000I0J-260000D01*
G01*
X208153000Y-219439000D01*
G75*
G02*
X207893000Y-219699000I-260000J0D01*
G01*
X205763000Y-219699000D01*
G75*
G02*
X205503000Y-219439000I0J260000D01*
G01*
G37*
D16*
X216453000Y-215859000D03*
X210103000Y-218399000D03*
%TD*%
D14*
%TO.C,SW77*%
X333192000Y-220939000D03*
X323032000Y-220939000D03*
D15*
X328112000Y-220939000D03*
G36*
G01*
X332629000Y-216899000D02*
X332629000Y-214819000D01*
G75*
G02*
X332889000Y-214559000I260000J0D01*
G01*
X335019000Y-214559000D01*
G75*
G02*
X335279000Y-214819000I0J-260000D01*
G01*
X335279000Y-216899000D01*
G75*
G02*
X335019000Y-217159000I-260000J0D01*
G01*
X332889000Y-217159000D01*
G75*
G02*
X332629000Y-216899000I0J260000D01*
G01*
G37*
G36*
G01*
X319702000Y-219439000D02*
X319702000Y-217359000D01*
G75*
G02*
X319962000Y-217099000I260000J0D01*
G01*
X322092000Y-217099000D01*
G75*
G02*
X322352000Y-217359000I0J-260000D01*
G01*
X322352000Y-219439000D01*
G75*
G02*
X322092000Y-219699000I-260000J0D01*
G01*
X319962000Y-219699000D01*
G75*
G02*
X319702000Y-219439000I0J260000D01*
G01*
G37*
D16*
X330652000Y-215859000D03*
X324302000Y-218399000D03*
%TD*%
D14*
%TO.C,SW76*%
X228562000Y-239992000D03*
X218402000Y-239992000D03*
D15*
X223482000Y-239992000D03*
G36*
G01*
X227999000Y-235952000D02*
X227999000Y-233872000D01*
G75*
G02*
X228259000Y-233612000I260000J0D01*
G01*
X230389000Y-233612000D01*
G75*
G02*
X230649000Y-233872000I0J-260000D01*
G01*
X230649000Y-235952000D01*
G75*
G02*
X230389000Y-236212000I-260000J0D01*
G01*
X228259000Y-236212000D01*
G75*
G02*
X227999000Y-235952000I0J260000D01*
G01*
G37*
G36*
G01*
X215072000Y-238492000D02*
X215072000Y-236412000D01*
G75*
G02*
X215332000Y-236152000I260000J0D01*
G01*
X217462000Y-236152000D01*
G75*
G02*
X217722000Y-236412000I0J-260000D01*
G01*
X217722000Y-238492000D01*
G75*
G02*
X217462000Y-238752000I-260000J0D01*
G01*
X215332000Y-238752000D01*
G75*
G02*
X215072000Y-238492000I0J260000D01*
G01*
G37*
D16*
X226022000Y-234912000D03*
X219672000Y-237452000D03*
%TD*%
D14*
%TO.C,SW75*%
X195182000Y-201892000D03*
X185022000Y-201892000D03*
D15*
X190102000Y-201892000D03*
G36*
G01*
X194619000Y-197852000D02*
X194619000Y-195772000D01*
G75*
G02*
X194879000Y-195512000I260000J0D01*
G01*
X197009000Y-195512000D01*
G75*
G02*
X197269000Y-195772000I0J-260000D01*
G01*
X197269000Y-197852000D01*
G75*
G02*
X197009000Y-198112000I-260000J0D01*
G01*
X194879000Y-198112000D01*
G75*
G02*
X194619000Y-197852000I0J260000D01*
G01*
G37*
G36*
G01*
X181692000Y-200392000D02*
X181692000Y-198312000D01*
G75*
G02*
X181952000Y-198052000I260000J0D01*
G01*
X184082000Y-198052000D01*
G75*
G02*
X184342000Y-198312000I0J-260000D01*
G01*
X184342000Y-200392000D01*
G75*
G02*
X184082000Y-200652000I-260000J0D01*
G01*
X181952000Y-200652000D01*
G75*
G02*
X181692000Y-200392000I0J260000D01*
G01*
G37*
D16*
X192642000Y-196812000D03*
X186292000Y-199352000D03*
%TD*%
D14*
%TO.C,SW74*%
X380962000Y-239992000D03*
X370802000Y-239992000D03*
D15*
X375882000Y-239992000D03*
G36*
G01*
X380399000Y-235952000D02*
X380399000Y-233872000D01*
G75*
G02*
X380659000Y-233612000I260000J0D01*
G01*
X382789000Y-233612000D01*
G75*
G02*
X383049000Y-233872000I0J-260000D01*
G01*
X383049000Y-235952000D01*
G75*
G02*
X382789000Y-236212000I-260000J0D01*
G01*
X380659000Y-236212000D01*
G75*
G02*
X380399000Y-235952000I0J260000D01*
G01*
G37*
G36*
G01*
X367472000Y-238492000D02*
X367472000Y-236412000D01*
G75*
G02*
X367732000Y-236152000I260000J0D01*
G01*
X369862000Y-236152000D01*
G75*
G02*
X370122000Y-236412000I0J-260000D01*
G01*
X370122000Y-238492000D01*
G75*
G02*
X369862000Y-238752000I-260000J0D01*
G01*
X367732000Y-238752000D01*
G75*
G02*
X367472000Y-238492000I0J260000D01*
G01*
G37*
D16*
X378422000Y-234912000D03*
X372072000Y-237452000D03*
%TD*%
D14*
%TO.C,SW73*%
X314193000Y-220939000D03*
X304033000Y-220939000D03*
D15*
X309113000Y-220939000D03*
G36*
G01*
X313630000Y-216899000D02*
X313630000Y-214819000D01*
G75*
G02*
X313890000Y-214559000I260000J0D01*
G01*
X316020000Y-214559000D01*
G75*
G02*
X316280000Y-214819000I0J-260000D01*
G01*
X316280000Y-216899000D01*
G75*
G02*
X316020000Y-217159000I-260000J0D01*
G01*
X313890000Y-217159000D01*
G75*
G02*
X313630000Y-216899000I0J260000D01*
G01*
G37*
G36*
G01*
X300703000Y-219439000D02*
X300703000Y-217359000D01*
G75*
G02*
X300963000Y-217099000I260000J0D01*
G01*
X303093000Y-217099000D01*
G75*
G02*
X303353000Y-217359000I0J-260000D01*
G01*
X303353000Y-219439000D01*
G75*
G02*
X303093000Y-219699000I-260000J0D01*
G01*
X300963000Y-219699000D01*
G75*
G02*
X300703000Y-219439000I0J260000D01*
G01*
G37*
D16*
X311653000Y-215859000D03*
X305303000Y-218399000D03*
%TD*%
D14*
%TO.C,SW72*%
X199943000Y-220939000D03*
X189783000Y-220939000D03*
D15*
X194863000Y-220939000D03*
G36*
G01*
X199380000Y-216899000D02*
X199380000Y-214819000D01*
G75*
G02*
X199640000Y-214559000I260000J0D01*
G01*
X201770000Y-214559000D01*
G75*
G02*
X202030000Y-214819000I0J-260000D01*
G01*
X202030000Y-216899000D01*
G75*
G02*
X201770000Y-217159000I-260000J0D01*
G01*
X199640000Y-217159000D01*
G75*
G02*
X199380000Y-216899000I0J260000D01*
G01*
G37*
G36*
G01*
X186453000Y-219439000D02*
X186453000Y-217359000D01*
G75*
G02*
X186713000Y-217099000I260000J0D01*
G01*
X188843000Y-217099000D01*
G75*
G02*
X189103000Y-217359000I0J-260000D01*
G01*
X189103000Y-219439000D01*
G75*
G02*
X188843000Y-219699000I-260000J0D01*
G01*
X186713000Y-219699000D01*
G75*
G02*
X186453000Y-219439000I0J260000D01*
G01*
G37*
D16*
X197403000Y-215859000D03*
X191053000Y-218399000D03*
%TD*%
D14*
%TO.C,SW71*%
X214236000Y-201892000D03*
X204076000Y-201892000D03*
D15*
X209156000Y-201892000D03*
G36*
G01*
X213673000Y-197852000D02*
X213673000Y-195772000D01*
G75*
G02*
X213933000Y-195512000I260000J0D01*
G01*
X216063000Y-195512000D01*
G75*
G02*
X216323000Y-195772000I0J-260000D01*
G01*
X216323000Y-197852000D01*
G75*
G02*
X216063000Y-198112000I-260000J0D01*
G01*
X213933000Y-198112000D01*
G75*
G02*
X213673000Y-197852000I0J260000D01*
G01*
G37*
G36*
G01*
X200746000Y-200392000D02*
X200746000Y-198312000D01*
G75*
G02*
X201006000Y-198052000I260000J0D01*
G01*
X203136000Y-198052000D01*
G75*
G02*
X203396000Y-198312000I0J-260000D01*
G01*
X203396000Y-200392000D01*
G75*
G02*
X203136000Y-200652000I-260000J0D01*
G01*
X201006000Y-200652000D01*
G75*
G02*
X200746000Y-200392000I0J260000D01*
G01*
G37*
D16*
X211696000Y-196812000D03*
X205346000Y-199352000D03*
%TD*%
D14*
%TO.C,SW70*%
X168984000Y-259037000D03*
X158824000Y-259037000D03*
D15*
X163904000Y-259037000D03*
G36*
G01*
X168421000Y-254997000D02*
X168421000Y-252917000D01*
G75*
G02*
X168681000Y-252657000I260000J0D01*
G01*
X170811000Y-252657000D01*
G75*
G02*
X171071000Y-252917000I0J-260000D01*
G01*
X171071000Y-254997000D01*
G75*
G02*
X170811000Y-255257000I-260000J0D01*
G01*
X168681000Y-255257000D01*
G75*
G02*
X168421000Y-254997000I0J260000D01*
G01*
G37*
G36*
G01*
X155494000Y-257537000D02*
X155494000Y-255457000D01*
G75*
G02*
X155754000Y-255197000I260000J0D01*
G01*
X157884000Y-255197000D01*
G75*
G02*
X158144000Y-255457000I0J-260000D01*
G01*
X158144000Y-257537000D01*
G75*
G02*
X157884000Y-257797000I-260000J0D01*
G01*
X155754000Y-257797000D01*
G75*
G02*
X155494000Y-257537000I0J260000D01*
G01*
G37*
D16*
X166444000Y-253957000D03*
X160094000Y-256497000D03*
%TD*%
D14*
%TO.C,SW69*%
X171364000Y-201887000D03*
X161204000Y-201887000D03*
D15*
X166284000Y-201887000D03*
G36*
G01*
X170801000Y-197847000D02*
X170801000Y-195767000D01*
G75*
G02*
X171061000Y-195507000I260000J0D01*
G01*
X173191000Y-195507000D01*
G75*
G02*
X173451000Y-195767000I0J-260000D01*
G01*
X173451000Y-197847000D01*
G75*
G02*
X173191000Y-198107000I-260000J0D01*
G01*
X171061000Y-198107000D01*
G75*
G02*
X170801000Y-197847000I0J260000D01*
G01*
G37*
G36*
G01*
X157874000Y-200387000D02*
X157874000Y-198307000D01*
G75*
G02*
X158134000Y-198047000I260000J0D01*
G01*
X160264000Y-198047000D01*
G75*
G02*
X160524000Y-198307000I0J-260000D01*
G01*
X160524000Y-200387000D01*
G75*
G02*
X160264000Y-200647000I-260000J0D01*
G01*
X158134000Y-200647000D01*
G75*
G02*
X157874000Y-200387000I0J260000D01*
G01*
G37*
D16*
X168824000Y-196807000D03*
X162474000Y-199347000D03*
%TD*%
D14*
%TO.C,SW68*%
X271412000Y-201892000D03*
X261252000Y-201892000D03*
D15*
X266332000Y-201892000D03*
G36*
G01*
X270849000Y-197852000D02*
X270849000Y-195772000D01*
G75*
G02*
X271109000Y-195512000I260000J0D01*
G01*
X273239000Y-195512000D01*
G75*
G02*
X273499000Y-195772000I0J-260000D01*
G01*
X273499000Y-197852000D01*
G75*
G02*
X273239000Y-198112000I-260000J0D01*
G01*
X271109000Y-198112000D01*
G75*
G02*
X270849000Y-197852000I0J260000D01*
G01*
G37*
G36*
G01*
X257922000Y-200392000D02*
X257922000Y-198312000D01*
G75*
G02*
X258182000Y-198052000I260000J0D01*
G01*
X260312000Y-198052000D01*
G75*
G02*
X260572000Y-198312000I0J-260000D01*
G01*
X260572000Y-200392000D01*
G75*
G02*
X260312000Y-200652000I-260000J0D01*
G01*
X258182000Y-200652000D01*
G75*
G02*
X257922000Y-200392000I0J260000D01*
G01*
G37*
D16*
X268872000Y-196812000D03*
X262522000Y-199352000D03*
%TD*%
D14*
%TO.C,SW67*%
X385775000Y-201892000D03*
X375615000Y-201892000D03*
D15*
X380695000Y-201892000D03*
G36*
G01*
X385212000Y-197852000D02*
X385212000Y-195772000D01*
G75*
G02*
X385472000Y-195512000I260000J0D01*
G01*
X387602000Y-195512000D01*
G75*
G02*
X387862000Y-195772000I0J-260000D01*
G01*
X387862000Y-197852000D01*
G75*
G02*
X387602000Y-198112000I-260000J0D01*
G01*
X385472000Y-198112000D01*
G75*
G02*
X385212000Y-197852000I0J260000D01*
G01*
G37*
G36*
G01*
X372285000Y-200392000D02*
X372285000Y-198312000D01*
G75*
G02*
X372545000Y-198052000I260000J0D01*
G01*
X374675000Y-198052000D01*
G75*
G02*
X374935000Y-198312000I0J-260000D01*
G01*
X374935000Y-200392000D01*
G75*
G02*
X374675000Y-200652000I-260000J0D01*
G01*
X372545000Y-200652000D01*
G75*
G02*
X372285000Y-200392000I0J260000D01*
G01*
G37*
D16*
X383235000Y-196812000D03*
X376885000Y-199352000D03*
%TD*%
D14*
%TO.C,SW66*%
X371256000Y-220939000D03*
X361096000Y-220939000D03*
D15*
X366176000Y-220939000D03*
G36*
G01*
X370693000Y-216899000D02*
X370693000Y-214819000D01*
G75*
G02*
X370953000Y-214559000I260000J0D01*
G01*
X373083000Y-214559000D01*
G75*
G02*
X373343000Y-214819000I0J-260000D01*
G01*
X373343000Y-216899000D01*
G75*
G02*
X373083000Y-217159000I-260000J0D01*
G01*
X370953000Y-217159000D01*
G75*
G02*
X370693000Y-216899000I0J260000D01*
G01*
G37*
G36*
G01*
X357766000Y-219439000D02*
X357766000Y-217359000D01*
G75*
G02*
X358026000Y-217099000I260000J0D01*
G01*
X360156000Y-217099000D01*
G75*
G02*
X360416000Y-217359000I0J-260000D01*
G01*
X360416000Y-219439000D01*
G75*
G02*
X360156000Y-219699000I-260000J0D01*
G01*
X358026000Y-219699000D01*
G75*
G02*
X357766000Y-219439000I0J260000D01*
G01*
G37*
D16*
X368716000Y-215859000D03*
X362366000Y-218399000D03*
%TD*%
D14*
%TO.C,SW65*%
X308940000Y-182829000D03*
X319100000Y-182829000D03*
D15*
X314020000Y-182829000D03*
G36*
G01*
X309503000Y-186869000D02*
X309503000Y-188949000D01*
G75*
G02*
X309243000Y-189209000I-260000J0D01*
G01*
X307113000Y-189209000D01*
G75*
G02*
X306853000Y-188949000I0J260000D01*
G01*
X306853000Y-186869000D01*
G75*
G02*
X307113000Y-186609000I260000J0D01*
G01*
X309243000Y-186609000D01*
G75*
G02*
X309503000Y-186869000I0J-260000D01*
G01*
G37*
G36*
G01*
X322430000Y-184329000D02*
X322430000Y-186409000D01*
G75*
G02*
X322170000Y-186669000I-260000J0D01*
G01*
X320040000Y-186669000D01*
G75*
G02*
X319780000Y-186409000I0J260000D01*
G01*
X319780000Y-184329000D01*
G75*
G02*
X320040000Y-184069000I260000J0D01*
G01*
X322170000Y-184069000D01*
G75*
G02*
X322430000Y-184329000I0J-260000D01*
G01*
G37*
D16*
X311480000Y-187909000D03*
X317830000Y-185369000D03*
%TD*%
D14*
%TO.C,SW64*%
X216611000Y-259037000D03*
X206451000Y-259037000D03*
D15*
X211531000Y-259037000D03*
G36*
G01*
X216048000Y-254997000D02*
X216048000Y-252917000D01*
G75*
G02*
X216308000Y-252657000I260000J0D01*
G01*
X218438000Y-252657000D01*
G75*
G02*
X218698000Y-252917000I0J-260000D01*
G01*
X218698000Y-254997000D01*
G75*
G02*
X218438000Y-255257000I-260000J0D01*
G01*
X216308000Y-255257000D01*
G75*
G02*
X216048000Y-254997000I0J260000D01*
G01*
G37*
G36*
G01*
X203121000Y-257537000D02*
X203121000Y-255457000D01*
G75*
G02*
X203381000Y-255197000I260000J0D01*
G01*
X205511000Y-255197000D01*
G75*
G02*
X205771000Y-255457000I0J-260000D01*
G01*
X205771000Y-257537000D01*
G75*
G02*
X205511000Y-257797000I-260000J0D01*
G01*
X203381000Y-257797000D01*
G75*
G02*
X203121000Y-257537000I0J260000D01*
G01*
G37*
D16*
X214071000Y-253957000D03*
X207721000Y-256497000D03*
%TD*%
D14*
%TO.C,SW63*%
X428541000Y-201887000D03*
X418381000Y-201887000D03*
D15*
X423461000Y-201887000D03*
G36*
G01*
X427978000Y-197847000D02*
X427978000Y-195767000D01*
G75*
G02*
X428238000Y-195507000I260000J0D01*
G01*
X430368000Y-195507000D01*
G75*
G02*
X430628000Y-195767000I0J-260000D01*
G01*
X430628000Y-197847000D01*
G75*
G02*
X430368000Y-198107000I-260000J0D01*
G01*
X428238000Y-198107000D01*
G75*
G02*
X427978000Y-197847000I0J260000D01*
G01*
G37*
G36*
G01*
X415051000Y-200387000D02*
X415051000Y-198307000D01*
G75*
G02*
X415311000Y-198047000I260000J0D01*
G01*
X417441000Y-198047000D01*
G75*
G02*
X417701000Y-198307000I0J-260000D01*
G01*
X417701000Y-200387000D01*
G75*
G02*
X417441000Y-200647000I-260000J0D01*
G01*
X415311000Y-200647000D01*
G75*
G02*
X415051000Y-200387000I0J260000D01*
G01*
G37*
D16*
X426001000Y-196807000D03*
X419651000Y-199347000D03*
%TD*%
D14*
%TO.C,SW62*%
X461880000Y-239990000D03*
X451720000Y-239990000D03*
D15*
X456800000Y-239990000D03*
G36*
G01*
X461317000Y-235950000D02*
X461317000Y-233870000D01*
G75*
G02*
X461577000Y-233610000I260000J0D01*
G01*
X463707000Y-233610000D01*
G75*
G02*
X463967000Y-233870000I0J-260000D01*
G01*
X463967000Y-235950000D01*
G75*
G02*
X463707000Y-236210000I-260000J0D01*
G01*
X461577000Y-236210000D01*
G75*
G02*
X461317000Y-235950000I0J260000D01*
G01*
G37*
G36*
G01*
X448390000Y-238490000D02*
X448390000Y-236410000D01*
G75*
G02*
X448650000Y-236150000I260000J0D01*
G01*
X450780000Y-236150000D01*
G75*
G02*
X451040000Y-236410000I0J-260000D01*
G01*
X451040000Y-238490000D01*
G75*
G02*
X450780000Y-238750000I-260000J0D01*
G01*
X448650000Y-238750000D01*
G75*
G02*
X448390000Y-238490000I0J260000D01*
G01*
G37*
D16*
X459340000Y-234910000D03*
X452990000Y-237450000D03*
%TD*%
D14*
%TO.C,SW61*%
X376170000Y-259040000D03*
X366010000Y-259040000D03*
D15*
X371090000Y-259040000D03*
G36*
G01*
X375607000Y-255000000D02*
X375607000Y-252920000D01*
G75*
G02*
X375867000Y-252660000I260000J0D01*
G01*
X377997000Y-252660000D01*
G75*
G02*
X378257000Y-252920000I0J-260000D01*
G01*
X378257000Y-255000000D01*
G75*
G02*
X377997000Y-255260000I-260000J0D01*
G01*
X375867000Y-255260000D01*
G75*
G02*
X375607000Y-255000000I0J260000D01*
G01*
G37*
G36*
G01*
X362680000Y-257540000D02*
X362680000Y-255460000D01*
G75*
G02*
X362940000Y-255200000I260000J0D01*
G01*
X365070000Y-255200000D01*
G75*
G02*
X365330000Y-255460000I0J-260000D01*
G01*
X365330000Y-257540000D01*
G75*
G02*
X365070000Y-257800000I-260000J0D01*
G01*
X362940000Y-257800000D01*
G75*
G02*
X362680000Y-257540000I0J260000D01*
G01*
G37*
D16*
X373630000Y-253960000D03*
X367280000Y-256500000D03*
%TD*%
D14*
%TO.C,SW60*%
X366154000Y-182829000D03*
X376314000Y-182829000D03*
D15*
X371234000Y-182829000D03*
G36*
G01*
X366717000Y-186869000D02*
X366717000Y-188949000D01*
G75*
G02*
X366457000Y-189209000I-260000J0D01*
G01*
X364327000Y-189209000D01*
G75*
G02*
X364067000Y-188949000I0J260000D01*
G01*
X364067000Y-186869000D01*
G75*
G02*
X364327000Y-186609000I260000J0D01*
G01*
X366457000Y-186609000D01*
G75*
G02*
X366717000Y-186869000I0J-260000D01*
G01*
G37*
G36*
G01*
X379644000Y-184329000D02*
X379644000Y-186409000D01*
G75*
G02*
X379384000Y-186669000I-260000J0D01*
G01*
X377254000Y-186669000D01*
G75*
G02*
X376994000Y-186409000I0J260000D01*
G01*
X376994000Y-184329000D01*
G75*
G02*
X377254000Y-184069000I260000J0D01*
G01*
X379384000Y-184069000D01*
G75*
G02*
X379644000Y-184329000I0J-260000D01*
G01*
G37*
D16*
X368694000Y-187909000D03*
X375044000Y-185369000D03*
%TD*%
D14*
%TO.C,SW59*%
X366738000Y-201892000D03*
X356578000Y-201892000D03*
D15*
X361658000Y-201892000D03*
G36*
G01*
X366175000Y-197852000D02*
X366175000Y-195772000D01*
G75*
G02*
X366435000Y-195512000I260000J0D01*
G01*
X368565000Y-195512000D01*
G75*
G02*
X368825000Y-195772000I0J-260000D01*
G01*
X368825000Y-197852000D01*
G75*
G02*
X368565000Y-198112000I-260000J0D01*
G01*
X366435000Y-198112000D01*
G75*
G02*
X366175000Y-197852000I0J260000D01*
G01*
G37*
G36*
G01*
X353248000Y-200392000D02*
X353248000Y-198312000D01*
G75*
G02*
X353508000Y-198052000I260000J0D01*
G01*
X355638000Y-198052000D01*
G75*
G02*
X355898000Y-198312000I0J-260000D01*
G01*
X355898000Y-200392000D01*
G75*
G02*
X355638000Y-200652000I-260000J0D01*
G01*
X353508000Y-200652000D01*
G75*
G02*
X353248000Y-200392000I0J260000D01*
G01*
G37*
D16*
X364198000Y-196812000D03*
X357848000Y-199352000D03*
%TD*%
D14*
%TO.C,SW58*%
X361912000Y-239992000D03*
X351752000Y-239992000D03*
D15*
X356832000Y-239992000D03*
G36*
G01*
X361349000Y-235952000D02*
X361349000Y-233872000D01*
G75*
G02*
X361609000Y-233612000I260000J0D01*
G01*
X363739000Y-233612000D01*
G75*
G02*
X363999000Y-233872000I0J-260000D01*
G01*
X363999000Y-235952000D01*
G75*
G02*
X363739000Y-236212000I-260000J0D01*
G01*
X361609000Y-236212000D01*
G75*
G02*
X361349000Y-235952000I0J260000D01*
G01*
G37*
G36*
G01*
X348422000Y-238492000D02*
X348422000Y-236412000D01*
G75*
G02*
X348682000Y-236152000I260000J0D01*
G01*
X350812000Y-236152000D01*
G75*
G02*
X351072000Y-236412000I0J-260000D01*
G01*
X351072000Y-238492000D01*
G75*
G02*
X350812000Y-238752000I-260000J0D01*
G01*
X348682000Y-238752000D01*
G75*
G02*
X348422000Y-238492000I0J260000D01*
G01*
G37*
D16*
X359372000Y-234912000D03*
X353022000Y-237452000D03*
%TD*%
D14*
%TO.C,SW57*%
X461880000Y-220940000D03*
X451720000Y-220940000D03*
D15*
X456800000Y-220940000D03*
G36*
G01*
X461317000Y-216900000D02*
X461317000Y-214820000D01*
G75*
G02*
X461577000Y-214560000I260000J0D01*
G01*
X463707000Y-214560000D01*
G75*
G02*
X463967000Y-214820000I0J-260000D01*
G01*
X463967000Y-216900000D01*
G75*
G02*
X463707000Y-217160000I-260000J0D01*
G01*
X461577000Y-217160000D01*
G75*
G02*
X461317000Y-216900000I0J260000D01*
G01*
G37*
G36*
G01*
X448390000Y-219440000D02*
X448390000Y-217360000D01*
G75*
G02*
X448650000Y-217100000I260000J0D01*
G01*
X450780000Y-217100000D01*
G75*
G02*
X451040000Y-217360000I0J-260000D01*
G01*
X451040000Y-219440000D01*
G75*
G02*
X450780000Y-219700000I-260000J0D01*
G01*
X448650000Y-219700000D01*
G75*
G02*
X448390000Y-219440000I0J260000D01*
G01*
G37*
D16*
X459340000Y-215860000D03*
X452990000Y-218400000D03*
%TD*%
D14*
%TO.C,SW56*%
X257093000Y-220939000D03*
X246933000Y-220939000D03*
D15*
X252013000Y-220939000D03*
G36*
G01*
X256530000Y-216899000D02*
X256530000Y-214819000D01*
G75*
G02*
X256790000Y-214559000I260000J0D01*
G01*
X258920000Y-214559000D01*
G75*
G02*
X259180000Y-214819000I0J-260000D01*
G01*
X259180000Y-216899000D01*
G75*
G02*
X258920000Y-217159000I-260000J0D01*
G01*
X256790000Y-217159000D01*
G75*
G02*
X256530000Y-216899000I0J260000D01*
G01*
G37*
G36*
G01*
X243603000Y-219439000D02*
X243603000Y-217359000D01*
G75*
G02*
X243863000Y-217099000I260000J0D01*
G01*
X245993000Y-217099000D01*
G75*
G02*
X246253000Y-217359000I0J-260000D01*
G01*
X246253000Y-219439000D01*
G75*
G02*
X245993000Y-219699000I-260000J0D01*
G01*
X243863000Y-219699000D01*
G75*
G02*
X243603000Y-219439000I0J260000D01*
G01*
G37*
D16*
X254553000Y-215859000D03*
X248203000Y-218399000D03*
%TD*%
D14*
%TO.C,SW55*%
X342862000Y-239992000D03*
X332702000Y-239992000D03*
D15*
X337782000Y-239992000D03*
G36*
G01*
X342299000Y-235952000D02*
X342299000Y-233872000D01*
G75*
G02*
X342559000Y-233612000I260000J0D01*
G01*
X344689000Y-233612000D01*
G75*
G02*
X344949000Y-233872000I0J-260000D01*
G01*
X344949000Y-235952000D01*
G75*
G02*
X344689000Y-236212000I-260000J0D01*
G01*
X342559000Y-236212000D01*
G75*
G02*
X342299000Y-235952000I0J260000D01*
G01*
G37*
G36*
G01*
X329372000Y-238492000D02*
X329372000Y-236412000D01*
G75*
G02*
X329632000Y-236152000I260000J0D01*
G01*
X331762000Y-236152000D01*
G75*
G02*
X332022000Y-236412000I0J-260000D01*
G01*
X332022000Y-238492000D01*
G75*
G02*
X331762000Y-238752000I-260000J0D01*
G01*
X329632000Y-238752000D01*
G75*
G02*
X329372000Y-238492000I0J260000D01*
G01*
G37*
D16*
X340322000Y-234912000D03*
X333972000Y-237452000D03*
%TD*%
D14*
%TO.C,SW54*%
X395270000Y-259040000D03*
X385110000Y-259040000D03*
D15*
X390190000Y-259040000D03*
G36*
G01*
X394707000Y-255000000D02*
X394707000Y-252920000D01*
G75*
G02*
X394967000Y-252660000I260000J0D01*
G01*
X397097000Y-252660000D01*
G75*
G02*
X397357000Y-252920000I0J-260000D01*
G01*
X397357000Y-255000000D01*
G75*
G02*
X397097000Y-255260000I-260000J0D01*
G01*
X394967000Y-255260000D01*
G75*
G02*
X394707000Y-255000000I0J260000D01*
G01*
G37*
G36*
G01*
X381780000Y-257540000D02*
X381780000Y-255460000D01*
G75*
G02*
X382040000Y-255200000I260000J0D01*
G01*
X384170000Y-255200000D01*
G75*
G02*
X384430000Y-255460000I0J-260000D01*
G01*
X384430000Y-257540000D01*
G75*
G02*
X384170000Y-257800000I-260000J0D01*
G01*
X382040000Y-257800000D01*
G75*
G02*
X381780000Y-257540000I0J260000D01*
G01*
G37*
D16*
X392730000Y-253960000D03*
X386380000Y-256500000D03*
%TD*%
D14*
%TO.C,SW53*%
X290462000Y-201892000D03*
X280302000Y-201892000D03*
D15*
X285382000Y-201892000D03*
G36*
G01*
X289899000Y-197852000D02*
X289899000Y-195772000D01*
G75*
G02*
X290159000Y-195512000I260000J0D01*
G01*
X292289000Y-195512000D01*
G75*
G02*
X292549000Y-195772000I0J-260000D01*
G01*
X292549000Y-197852000D01*
G75*
G02*
X292289000Y-198112000I-260000J0D01*
G01*
X290159000Y-198112000D01*
G75*
G02*
X289899000Y-197852000I0J260000D01*
G01*
G37*
G36*
G01*
X276972000Y-200392000D02*
X276972000Y-198312000D01*
G75*
G02*
X277232000Y-198052000I260000J0D01*
G01*
X279362000Y-198052000D01*
G75*
G02*
X279622000Y-198312000I0J-260000D01*
G01*
X279622000Y-200392000D01*
G75*
G02*
X279362000Y-200652000I-260000J0D01*
G01*
X277232000Y-200652000D01*
G75*
G02*
X276972000Y-200392000I0J260000D01*
G01*
G37*
D16*
X287922000Y-196812000D03*
X281572000Y-199352000D03*
%TD*%
D14*
%TO.C,SW52*%
X347078000Y-182829000D03*
X357238000Y-182829000D03*
D15*
X352158000Y-182829000D03*
G36*
G01*
X347641000Y-186869000D02*
X347641000Y-188949000D01*
G75*
G02*
X347381000Y-189209000I-260000J0D01*
G01*
X345251000Y-189209000D01*
G75*
G02*
X344991000Y-188949000I0J260000D01*
G01*
X344991000Y-186869000D01*
G75*
G02*
X345251000Y-186609000I260000J0D01*
G01*
X347381000Y-186609000D01*
G75*
G02*
X347641000Y-186869000I0J-260000D01*
G01*
G37*
G36*
G01*
X360568000Y-184329000D02*
X360568000Y-186409000D01*
G75*
G02*
X360308000Y-186669000I-260000J0D01*
G01*
X358178000Y-186669000D01*
G75*
G02*
X357918000Y-186409000I0J260000D01*
G01*
X357918000Y-184329000D01*
G75*
G02*
X358178000Y-184069000I260000J0D01*
G01*
X360308000Y-184069000D01*
G75*
G02*
X360568000Y-184329000I0J-260000D01*
G01*
G37*
D16*
X349618000Y-187909000D03*
X355968000Y-185369000D03*
%TD*%
D14*
%TO.C,SW51*%
X276118000Y-220939000D03*
X265958000Y-220939000D03*
D15*
X271038000Y-220939000D03*
G36*
G01*
X275555000Y-216899000D02*
X275555000Y-214819000D01*
G75*
G02*
X275815000Y-214559000I260000J0D01*
G01*
X277945000Y-214559000D01*
G75*
G02*
X278205000Y-214819000I0J-260000D01*
G01*
X278205000Y-216899000D01*
G75*
G02*
X277945000Y-217159000I-260000J0D01*
G01*
X275815000Y-217159000D01*
G75*
G02*
X275555000Y-216899000I0J260000D01*
G01*
G37*
G36*
G01*
X262628000Y-219439000D02*
X262628000Y-217359000D01*
G75*
G02*
X262888000Y-217099000I260000J0D01*
G01*
X265018000Y-217099000D01*
G75*
G02*
X265278000Y-217359000I0J-260000D01*
G01*
X265278000Y-219439000D01*
G75*
G02*
X265018000Y-219699000I-260000J0D01*
G01*
X262888000Y-219699000D01*
G75*
G02*
X262628000Y-219439000I0J260000D01*
G01*
G37*
D16*
X273578000Y-215859000D03*
X267228000Y-218399000D03*
%TD*%
D14*
%TO.C,SW50*%
X421399000Y-220937000D03*
X411239000Y-220937000D03*
D15*
X416319000Y-220937000D03*
G36*
G01*
X420836000Y-216897000D02*
X420836000Y-214817000D01*
G75*
G02*
X421096000Y-214557000I260000J0D01*
G01*
X423226000Y-214557000D01*
G75*
G02*
X423486000Y-214817000I0J-260000D01*
G01*
X423486000Y-216897000D01*
G75*
G02*
X423226000Y-217157000I-260000J0D01*
G01*
X421096000Y-217157000D01*
G75*
G02*
X420836000Y-216897000I0J260000D01*
G01*
G37*
G36*
G01*
X407909000Y-219437000D02*
X407909000Y-217357000D01*
G75*
G02*
X408169000Y-217097000I260000J0D01*
G01*
X410299000Y-217097000D01*
G75*
G02*
X410559000Y-217357000I0J-260000D01*
G01*
X410559000Y-219437000D01*
G75*
G02*
X410299000Y-219697000I-260000J0D01*
G01*
X408169000Y-219697000D01*
G75*
G02*
X407909000Y-219437000I0J260000D01*
G01*
G37*
D16*
X418859000Y-215857000D03*
X412509000Y-218397000D03*
%TD*%
D14*
%TO.C,SW49*%
X347675000Y-201892000D03*
X337515000Y-201892000D03*
D15*
X342595000Y-201892000D03*
G36*
G01*
X347112000Y-197852000D02*
X347112000Y-195772000D01*
G75*
G02*
X347372000Y-195512000I260000J0D01*
G01*
X349502000Y-195512000D01*
G75*
G02*
X349762000Y-195772000I0J-260000D01*
G01*
X349762000Y-197852000D01*
G75*
G02*
X349502000Y-198112000I-260000J0D01*
G01*
X347372000Y-198112000D01*
G75*
G02*
X347112000Y-197852000I0J260000D01*
G01*
G37*
G36*
G01*
X334185000Y-200392000D02*
X334185000Y-198312000D01*
G75*
G02*
X334445000Y-198052000I260000J0D01*
G01*
X336575000Y-198052000D01*
G75*
G02*
X336835000Y-198312000I0J-260000D01*
G01*
X336835000Y-200392000D01*
G75*
G02*
X336575000Y-200652000I-260000J0D01*
G01*
X334445000Y-200652000D01*
G75*
G02*
X334185000Y-200392000I0J260000D01*
G01*
G37*
D16*
X345135000Y-196812000D03*
X338785000Y-199352000D03*
%TD*%
D14*
%TO.C,SW48*%
X409491000Y-159024000D03*
X399331000Y-159024000D03*
D15*
X404411000Y-159024000D03*
G36*
G01*
X408928000Y-154984000D02*
X408928000Y-152904000D01*
G75*
G02*
X409188000Y-152644000I260000J0D01*
G01*
X411318000Y-152644000D01*
G75*
G02*
X411578000Y-152904000I0J-260000D01*
G01*
X411578000Y-154984000D01*
G75*
G02*
X411318000Y-155244000I-260000J0D01*
G01*
X409188000Y-155244000D01*
G75*
G02*
X408928000Y-154984000I0J260000D01*
G01*
G37*
G36*
G01*
X396001000Y-157524000D02*
X396001000Y-155444000D01*
G75*
G02*
X396261000Y-155184000I260000J0D01*
G01*
X398391000Y-155184000D01*
G75*
G02*
X398651000Y-155444000I0J-260000D01*
G01*
X398651000Y-157524000D01*
G75*
G02*
X398391000Y-157784000I-260000J0D01*
G01*
X396261000Y-157784000D01*
G75*
G02*
X396001000Y-157524000I0J260000D01*
G01*
G37*
D16*
X406951000Y-153944000D03*
X400601000Y-156484000D03*
%TD*%
D14*
%TO.C,SW47*%
X433310000Y-159030000D03*
X423150000Y-159030000D03*
D15*
X428230000Y-159030000D03*
G36*
G01*
X432747000Y-154990000D02*
X432747000Y-152910000D01*
G75*
G02*
X433007000Y-152650000I260000J0D01*
G01*
X435137000Y-152650000D01*
G75*
G02*
X435397000Y-152910000I0J-260000D01*
G01*
X435397000Y-154990000D01*
G75*
G02*
X435137000Y-155250000I-260000J0D01*
G01*
X433007000Y-155250000D01*
G75*
G02*
X432747000Y-154990000I0J260000D01*
G01*
G37*
G36*
G01*
X419820000Y-157530000D02*
X419820000Y-155450000D01*
G75*
G02*
X420080000Y-155190000I260000J0D01*
G01*
X422210000Y-155190000D01*
G75*
G02*
X422470000Y-155450000I0J-260000D01*
G01*
X422470000Y-157530000D01*
G75*
G02*
X422210000Y-157790000I-260000J0D01*
G01*
X420080000Y-157790000D01*
G75*
G02*
X419820000Y-157530000I0J260000D01*
G01*
G37*
D16*
X430770000Y-153950000D03*
X424420000Y-156490000D03*
%TD*%
D14*
%TO.C,SW46*%
X413619000Y-182837000D03*
X423779000Y-182837000D03*
D15*
X418699000Y-182837000D03*
G36*
G01*
X414182000Y-186877000D02*
X414182000Y-188957000D01*
G75*
G02*
X413922000Y-189217000I-260000J0D01*
G01*
X411792000Y-189217000D01*
G75*
G02*
X411532000Y-188957000I0J260000D01*
G01*
X411532000Y-186877000D01*
G75*
G02*
X411792000Y-186617000I260000J0D01*
G01*
X413922000Y-186617000D01*
G75*
G02*
X414182000Y-186877000I0J-260000D01*
G01*
G37*
G36*
G01*
X427109000Y-184337000D02*
X427109000Y-186417000D01*
G75*
G02*
X426849000Y-186677000I-260000J0D01*
G01*
X424719000Y-186677000D01*
G75*
G02*
X424459000Y-186417000I0J260000D01*
G01*
X424459000Y-184337000D01*
G75*
G02*
X424719000Y-184077000I260000J0D01*
G01*
X426849000Y-184077000D01*
G75*
G02*
X427109000Y-184337000I0J-260000D01*
G01*
G37*
D16*
X416159000Y-187917000D03*
X422509000Y-185377000D03*
%TD*%
D14*
%TO.C,SW45*%
X385204000Y-182829000D03*
X395364000Y-182829000D03*
D15*
X390284000Y-182829000D03*
G36*
G01*
X385767000Y-186869000D02*
X385767000Y-188949000D01*
G75*
G02*
X385507000Y-189209000I-260000J0D01*
G01*
X383377000Y-189209000D01*
G75*
G02*
X383117000Y-188949000I0J260000D01*
G01*
X383117000Y-186869000D01*
G75*
G02*
X383377000Y-186609000I260000J0D01*
G01*
X385507000Y-186609000D01*
G75*
G02*
X385767000Y-186869000I0J-260000D01*
G01*
G37*
G36*
G01*
X398694000Y-184329000D02*
X398694000Y-186409000D01*
G75*
G02*
X398434000Y-186669000I-260000J0D01*
G01*
X396304000Y-186669000D01*
G75*
G02*
X396044000Y-186409000I0J260000D01*
G01*
X396044000Y-184329000D01*
G75*
G02*
X396304000Y-184069000I260000J0D01*
G01*
X398434000Y-184069000D01*
G75*
G02*
X398694000Y-184329000I0J-260000D01*
G01*
G37*
D16*
X387744000Y-187909000D03*
X394094000Y-185369000D03*
%TD*%
D14*
%TO.C,SW44*%
X328531000Y-159025000D03*
X318371000Y-159025000D03*
D15*
X323451000Y-159025000D03*
G36*
G01*
X327968000Y-154985000D02*
X327968000Y-152905000D01*
G75*
G02*
X328228000Y-152645000I260000J0D01*
G01*
X330358000Y-152645000D01*
G75*
G02*
X330618000Y-152905000I0J-260000D01*
G01*
X330618000Y-154985000D01*
G75*
G02*
X330358000Y-155245000I-260000J0D01*
G01*
X328228000Y-155245000D01*
G75*
G02*
X327968000Y-154985000I0J260000D01*
G01*
G37*
G36*
G01*
X315041000Y-157525000D02*
X315041000Y-155445000D01*
G75*
G02*
X315301000Y-155185000I260000J0D01*
G01*
X317431000Y-155185000D01*
G75*
G02*
X317691000Y-155445000I0J-260000D01*
G01*
X317691000Y-157525000D01*
G75*
G02*
X317431000Y-157785000I-260000J0D01*
G01*
X315301000Y-157785000D01*
G75*
G02*
X315041000Y-157525000I0J260000D01*
G01*
G37*
D16*
X325991000Y-153945000D03*
X319641000Y-156485000D03*
%TD*%
D14*
%TO.C,SW43*%
X352341000Y-159024000D03*
X342181000Y-159024000D03*
D15*
X347261000Y-159024000D03*
G36*
G01*
X351778000Y-154984000D02*
X351778000Y-152904000D01*
G75*
G02*
X352038000Y-152644000I260000J0D01*
G01*
X354168000Y-152644000D01*
G75*
G02*
X354428000Y-152904000I0J-260000D01*
G01*
X354428000Y-154984000D01*
G75*
G02*
X354168000Y-155244000I-260000J0D01*
G01*
X352038000Y-155244000D01*
G75*
G02*
X351778000Y-154984000I0J260000D01*
G01*
G37*
G36*
G01*
X338851000Y-157524000D02*
X338851000Y-155444000D01*
G75*
G02*
X339111000Y-155184000I260000J0D01*
G01*
X341241000Y-155184000D01*
G75*
G02*
X341501000Y-155444000I0J-260000D01*
G01*
X341501000Y-157524000D01*
G75*
G02*
X341241000Y-157784000I-260000J0D01*
G01*
X339111000Y-157784000D01*
G75*
G02*
X338851000Y-157524000I0J260000D01*
G01*
G37*
D16*
X349801000Y-153944000D03*
X343451000Y-156484000D03*
%TD*%
D14*
%TO.C,SW42*%
X371391000Y-159024000D03*
X361231000Y-159024000D03*
D15*
X366311000Y-159024000D03*
G36*
G01*
X370828000Y-154984000D02*
X370828000Y-152904000D01*
G75*
G02*
X371088000Y-152644000I260000J0D01*
G01*
X373218000Y-152644000D01*
G75*
G02*
X373478000Y-152904000I0J-260000D01*
G01*
X373478000Y-154984000D01*
G75*
G02*
X373218000Y-155244000I-260000J0D01*
G01*
X371088000Y-155244000D01*
G75*
G02*
X370828000Y-154984000I0J260000D01*
G01*
G37*
G36*
G01*
X357901000Y-157524000D02*
X357901000Y-155444000D01*
G75*
G02*
X358161000Y-155184000I260000J0D01*
G01*
X360291000Y-155184000D01*
G75*
G02*
X360551000Y-155444000I0J-260000D01*
G01*
X360551000Y-157524000D01*
G75*
G02*
X360291000Y-157784000I-260000J0D01*
G01*
X358161000Y-157784000D01*
G75*
G02*
X357901000Y-157524000I0J260000D01*
G01*
G37*
D16*
X368851000Y-153944000D03*
X362501000Y-156484000D03*
%TD*%
D14*
%TO.C,SW41*%
X390441000Y-159024000D03*
X380281000Y-159024000D03*
D15*
X385361000Y-159024000D03*
G36*
G01*
X389878000Y-154984000D02*
X389878000Y-152904000D01*
G75*
G02*
X390138000Y-152644000I260000J0D01*
G01*
X392268000Y-152644000D01*
G75*
G02*
X392528000Y-152904000I0J-260000D01*
G01*
X392528000Y-154984000D01*
G75*
G02*
X392268000Y-155244000I-260000J0D01*
G01*
X390138000Y-155244000D01*
G75*
G02*
X389878000Y-154984000I0J260000D01*
G01*
G37*
G36*
G01*
X376951000Y-157524000D02*
X376951000Y-155444000D01*
G75*
G02*
X377211000Y-155184000I260000J0D01*
G01*
X379341000Y-155184000D01*
G75*
G02*
X379601000Y-155444000I0J-260000D01*
G01*
X379601000Y-157524000D01*
G75*
G02*
X379341000Y-157784000I-260000J0D01*
G01*
X377211000Y-157784000D01*
G75*
G02*
X376951000Y-157524000I0J260000D01*
G01*
G37*
D16*
X387901000Y-153944000D03*
X381551000Y-156484000D03*
%TD*%
D14*
%TO.C,SW40*%
X407109000Y-239987000D03*
X396949000Y-239987000D03*
D15*
X402029000Y-239987000D03*
G36*
G01*
X406546000Y-235947000D02*
X406546000Y-233867000D01*
G75*
G02*
X406806000Y-233607000I260000J0D01*
G01*
X408936000Y-233607000D01*
G75*
G02*
X409196000Y-233867000I0J-260000D01*
G01*
X409196000Y-235947000D01*
G75*
G02*
X408936000Y-236207000I-260000J0D01*
G01*
X406806000Y-236207000D01*
G75*
G02*
X406546000Y-235947000I0J260000D01*
G01*
G37*
G36*
G01*
X393619000Y-238487000D02*
X393619000Y-236407000D01*
G75*
G02*
X393879000Y-236147000I260000J0D01*
G01*
X396009000Y-236147000D01*
G75*
G02*
X396269000Y-236407000I0J-260000D01*
G01*
X396269000Y-238487000D01*
G75*
G02*
X396009000Y-238747000I-260000J0D01*
G01*
X393879000Y-238747000D01*
G75*
G02*
X393619000Y-238487000I0J260000D01*
G01*
G37*
D16*
X404569000Y-234907000D03*
X398219000Y-237447000D03*
%TD*%
D14*
%TO.C,SW39*%
X357101000Y-259040000D03*
X346941000Y-259040000D03*
D15*
X352021000Y-259040000D03*
G36*
G01*
X356538000Y-255000000D02*
X356538000Y-252920000D01*
G75*
G02*
X356798000Y-252660000I260000J0D01*
G01*
X358928000Y-252660000D01*
G75*
G02*
X359188000Y-252920000I0J-260000D01*
G01*
X359188000Y-255000000D01*
G75*
G02*
X358928000Y-255260000I-260000J0D01*
G01*
X356798000Y-255260000D01*
G75*
G02*
X356538000Y-255000000I0J260000D01*
G01*
G37*
G36*
G01*
X343611000Y-257540000D02*
X343611000Y-255460000D01*
G75*
G02*
X343871000Y-255200000I260000J0D01*
G01*
X346001000Y-255200000D01*
G75*
G02*
X346261000Y-255460000I0J-260000D01*
G01*
X346261000Y-257540000D01*
G75*
G02*
X346001000Y-257800000I-260000J0D01*
G01*
X343871000Y-257800000D01*
G75*
G02*
X343611000Y-257540000I0J260000D01*
G01*
G37*
D16*
X354561000Y-253960000D03*
X348211000Y-256500000D03*
%TD*%
D14*
%TO.C,SW38*%
X390380000Y-220939000D03*
X380220000Y-220939000D03*
D15*
X385300000Y-220939000D03*
G36*
G01*
X389817000Y-216899000D02*
X389817000Y-214819000D01*
G75*
G02*
X390077000Y-214559000I260000J0D01*
G01*
X392207000Y-214559000D01*
G75*
G02*
X392467000Y-214819000I0J-260000D01*
G01*
X392467000Y-216899000D01*
G75*
G02*
X392207000Y-217159000I-260000J0D01*
G01*
X390077000Y-217159000D01*
G75*
G02*
X389817000Y-216899000I0J260000D01*
G01*
G37*
G36*
G01*
X376890000Y-219439000D02*
X376890000Y-217359000D01*
G75*
G02*
X377150000Y-217099000I260000J0D01*
G01*
X379280000Y-217099000D01*
G75*
G02*
X379540000Y-217359000I0J-260000D01*
G01*
X379540000Y-219439000D01*
G75*
G02*
X379280000Y-219699000I-260000J0D01*
G01*
X377150000Y-219699000D01*
G75*
G02*
X376890000Y-219439000I0J260000D01*
G01*
G37*
D16*
X387840000Y-215859000D03*
X381490000Y-218399000D03*
%TD*%
D14*
%TO.C,SW37*%
X352216000Y-220939000D03*
X342056000Y-220939000D03*
D15*
X347136000Y-220939000D03*
G36*
G01*
X351653000Y-216899000D02*
X351653000Y-214819000D01*
G75*
G02*
X351913000Y-214559000I260000J0D01*
G01*
X354043000Y-214559000D01*
G75*
G02*
X354303000Y-214819000I0J-260000D01*
G01*
X354303000Y-216899000D01*
G75*
G02*
X354043000Y-217159000I-260000J0D01*
G01*
X351913000Y-217159000D01*
G75*
G02*
X351653000Y-216899000I0J260000D01*
G01*
G37*
G36*
G01*
X338726000Y-219439000D02*
X338726000Y-217359000D01*
G75*
G02*
X338986000Y-217099000I260000J0D01*
G01*
X341116000Y-217099000D01*
G75*
G02*
X341376000Y-217359000I0J-260000D01*
G01*
X341376000Y-219439000D01*
G75*
G02*
X341116000Y-219699000I-260000J0D01*
G01*
X338986000Y-219699000D01*
G75*
G02*
X338726000Y-219439000I0J260000D01*
G01*
G37*
D16*
X349676000Y-215859000D03*
X343326000Y-218399000D03*
%TD*%
D14*
%TO.C,SW36*%
X404800000Y-201892000D03*
X394640000Y-201892000D03*
D15*
X399720000Y-201892000D03*
G36*
G01*
X404237000Y-197852000D02*
X404237000Y-195772000D01*
G75*
G02*
X404497000Y-195512000I260000J0D01*
G01*
X406627000Y-195512000D01*
G75*
G02*
X406887000Y-195772000I0J-260000D01*
G01*
X406887000Y-197852000D01*
G75*
G02*
X406627000Y-198112000I-260000J0D01*
G01*
X404497000Y-198112000D01*
G75*
G02*
X404237000Y-197852000I0J260000D01*
G01*
G37*
G36*
G01*
X391310000Y-200392000D02*
X391310000Y-198312000D01*
G75*
G02*
X391570000Y-198052000I260000J0D01*
G01*
X393700000Y-198052000D01*
G75*
G02*
X393960000Y-198312000I0J-260000D01*
G01*
X393960000Y-200392000D01*
G75*
G02*
X393700000Y-200652000I-260000J0D01*
G01*
X391570000Y-200652000D01*
G75*
G02*
X391310000Y-200392000I0J260000D01*
G01*
G37*
D16*
X402260000Y-196812000D03*
X395910000Y-199352000D03*
%TD*%
D14*
%TO.C,SW35*%
X178511000Y-239987000D03*
X168351000Y-239987000D03*
D15*
X173431000Y-239987000D03*
G36*
G01*
X177948000Y-235947000D02*
X177948000Y-233867000D01*
G75*
G02*
X178208000Y-233607000I260000J0D01*
G01*
X180338000Y-233607000D01*
G75*
G02*
X180598000Y-233867000I0J-260000D01*
G01*
X180598000Y-235947000D01*
G75*
G02*
X180338000Y-236207000I-260000J0D01*
G01*
X178208000Y-236207000D01*
G75*
G02*
X177948000Y-235947000I0J260000D01*
G01*
G37*
G36*
G01*
X165021000Y-238487000D02*
X165021000Y-236407000D01*
G75*
G02*
X165281000Y-236147000I260000J0D01*
G01*
X167411000Y-236147000D01*
G75*
G02*
X167671000Y-236407000I0J-260000D01*
G01*
X167671000Y-238487000D01*
G75*
G02*
X167411000Y-238747000I-260000J0D01*
G01*
X165281000Y-238747000D01*
G75*
G02*
X165021000Y-238487000I0J260000D01*
G01*
G37*
D16*
X175971000Y-234907000D03*
X169621000Y-237447000D03*
%TD*%
D14*
%TO.C,SW34*%
X438061000Y-244749000D03*
X427901000Y-244749000D03*
D15*
X432981000Y-244749000D03*
G36*
G01*
X437498000Y-240709000D02*
X437498000Y-238629000D01*
G75*
G02*
X437758000Y-238369000I260000J0D01*
G01*
X439888000Y-238369000D01*
G75*
G02*
X440148000Y-238629000I0J-260000D01*
G01*
X440148000Y-240709000D01*
G75*
G02*
X439888000Y-240969000I-260000J0D01*
G01*
X437758000Y-240969000D01*
G75*
G02*
X437498000Y-240709000I0J260000D01*
G01*
G37*
G36*
G01*
X424571000Y-243249000D02*
X424571000Y-241169000D01*
G75*
G02*
X424831000Y-240909000I260000J0D01*
G01*
X426961000Y-240909000D01*
G75*
G02*
X427221000Y-241169000I0J-260000D01*
G01*
X427221000Y-243249000D01*
G75*
G02*
X426961000Y-243509000I-260000J0D01*
G01*
X424831000Y-243509000D01*
G75*
G02*
X424571000Y-243249000I0J260000D01*
G01*
G37*
D16*
X435521000Y-239669000D03*
X429171000Y-242209000D03*
%TD*%
D14*
%TO.C,SW33*%
X173749000Y-220937000D03*
X163589000Y-220937000D03*
D15*
X168669000Y-220937000D03*
G36*
G01*
X173186000Y-216897000D02*
X173186000Y-214817000D01*
G75*
G02*
X173446000Y-214557000I260000J0D01*
G01*
X175576000Y-214557000D01*
G75*
G02*
X175836000Y-214817000I0J-260000D01*
G01*
X175836000Y-216897000D01*
G75*
G02*
X175576000Y-217157000I-260000J0D01*
G01*
X173446000Y-217157000D01*
G75*
G02*
X173186000Y-216897000I0J260000D01*
G01*
G37*
G36*
G01*
X160259000Y-219437000D02*
X160259000Y-217357000D01*
G75*
G02*
X160519000Y-217097000I260000J0D01*
G01*
X162649000Y-217097000D01*
G75*
G02*
X162909000Y-217357000I0J-260000D01*
G01*
X162909000Y-219437000D01*
G75*
G02*
X162649000Y-219697000I-260000J0D01*
G01*
X160519000Y-219697000D01*
G75*
G02*
X160259000Y-219437000I0J260000D01*
G01*
G37*
D16*
X171209000Y-215857000D03*
X164859000Y-218397000D03*
%TD*%
D14*
%TO.C,SW32*%
X289890000Y-182829000D03*
X300050000Y-182829000D03*
D15*
X294970000Y-182829000D03*
G36*
G01*
X290453000Y-186869000D02*
X290453000Y-188949000D01*
G75*
G02*
X290193000Y-189209000I-260000J0D01*
G01*
X288063000Y-189209000D01*
G75*
G02*
X287803000Y-188949000I0J260000D01*
G01*
X287803000Y-186869000D01*
G75*
G02*
X288063000Y-186609000I260000J0D01*
G01*
X290193000Y-186609000D01*
G75*
G02*
X290453000Y-186869000I0J-260000D01*
G01*
G37*
G36*
G01*
X303380000Y-184329000D02*
X303380000Y-186409000D01*
G75*
G02*
X303120000Y-186669000I-260000J0D01*
G01*
X300990000Y-186669000D01*
G75*
G02*
X300730000Y-186409000I0J260000D01*
G01*
X300730000Y-184329000D01*
G75*
G02*
X300990000Y-184069000I260000J0D01*
G01*
X303120000Y-184069000D01*
G75*
G02*
X303380000Y-184329000I0J-260000D01*
G01*
G37*
D16*
X292430000Y-187909000D03*
X298780000Y-185369000D03*
%TD*%
D14*
%TO.C,SW31*%
X270840000Y-182829000D03*
X281000000Y-182829000D03*
D15*
X275920000Y-182829000D03*
G36*
G01*
X271403000Y-186869000D02*
X271403000Y-188949000D01*
G75*
G02*
X271143000Y-189209000I-260000J0D01*
G01*
X269013000Y-189209000D01*
G75*
G02*
X268753000Y-188949000I0J260000D01*
G01*
X268753000Y-186869000D01*
G75*
G02*
X269013000Y-186609000I260000J0D01*
G01*
X271143000Y-186609000D01*
G75*
G02*
X271403000Y-186869000I0J-260000D01*
G01*
G37*
G36*
G01*
X284330000Y-184329000D02*
X284330000Y-186409000D01*
G75*
G02*
X284070000Y-186669000I-260000J0D01*
G01*
X281940000Y-186669000D01*
G75*
G02*
X281680000Y-186409000I0J260000D01*
G01*
X281680000Y-184329000D01*
G75*
G02*
X281940000Y-184069000I260000J0D01*
G01*
X284070000Y-184069000D01*
G75*
G02*
X284330000Y-184329000I0J-260000D01*
G01*
G37*
D16*
X273380000Y-187909000D03*
X279730000Y-185369000D03*
%TD*%
D14*
%TO.C,SW30*%
X251765000Y-182829000D03*
X261925000Y-182829000D03*
D15*
X256845000Y-182829000D03*
G36*
G01*
X252328000Y-186869000D02*
X252328000Y-188949000D01*
G75*
G02*
X252068000Y-189209000I-260000J0D01*
G01*
X249938000Y-189209000D01*
G75*
G02*
X249678000Y-188949000I0J260000D01*
G01*
X249678000Y-186869000D01*
G75*
G02*
X249938000Y-186609000I260000J0D01*
G01*
X252068000Y-186609000D01*
G75*
G02*
X252328000Y-186869000I0J-260000D01*
G01*
G37*
G36*
G01*
X265255000Y-184329000D02*
X265255000Y-186409000D01*
G75*
G02*
X264995000Y-186669000I-260000J0D01*
G01*
X262865000Y-186669000D01*
G75*
G02*
X262605000Y-186409000I0J260000D01*
G01*
X262605000Y-184329000D01*
G75*
G02*
X262865000Y-184069000I260000J0D01*
G01*
X264995000Y-184069000D01*
G75*
G02*
X265255000Y-184329000I0J-260000D01*
G01*
G37*
D16*
X254305000Y-187909000D03*
X260655000Y-185369000D03*
%TD*%
D14*
%TO.C,SW29*%
X232664000Y-182829000D03*
X242824000Y-182829000D03*
D15*
X237744000Y-182829000D03*
G36*
G01*
X233227000Y-186869000D02*
X233227000Y-188949000D01*
G75*
G02*
X232967000Y-189209000I-260000J0D01*
G01*
X230837000Y-189209000D01*
G75*
G02*
X230577000Y-188949000I0J260000D01*
G01*
X230577000Y-186869000D01*
G75*
G02*
X230837000Y-186609000I260000J0D01*
G01*
X232967000Y-186609000D01*
G75*
G02*
X233227000Y-186869000I0J-260000D01*
G01*
G37*
G36*
G01*
X246154000Y-184329000D02*
X246154000Y-186409000D01*
G75*
G02*
X245894000Y-186669000I-260000J0D01*
G01*
X243764000Y-186669000D01*
G75*
G02*
X243504000Y-186409000I0J260000D01*
G01*
X243504000Y-184329000D01*
G75*
G02*
X243764000Y-184069000I260000J0D01*
G01*
X245894000Y-184069000D01*
G75*
G02*
X246154000Y-184329000I0J-260000D01*
G01*
G37*
D16*
X235204000Y-187909000D03*
X241554000Y-185369000D03*
%TD*%
D14*
%TO.C,SW28*%
X247564000Y-159024000D03*
X237404000Y-159024000D03*
D15*
X242484000Y-159024000D03*
G36*
G01*
X247001000Y-154984000D02*
X247001000Y-152904000D01*
G75*
G02*
X247261000Y-152644000I260000J0D01*
G01*
X249391000Y-152644000D01*
G75*
G02*
X249651000Y-152904000I0J-260000D01*
G01*
X249651000Y-154984000D01*
G75*
G02*
X249391000Y-155244000I-260000J0D01*
G01*
X247261000Y-155244000D01*
G75*
G02*
X247001000Y-154984000I0J260000D01*
G01*
G37*
G36*
G01*
X234074000Y-157524000D02*
X234074000Y-155444000D01*
G75*
G02*
X234334000Y-155184000I260000J0D01*
G01*
X236464000Y-155184000D01*
G75*
G02*
X236724000Y-155444000I0J-260000D01*
G01*
X236724000Y-157524000D01*
G75*
G02*
X236464000Y-157784000I-260000J0D01*
G01*
X234334000Y-157784000D01*
G75*
G02*
X234074000Y-157524000I0J260000D01*
G01*
G37*
D16*
X245024000Y-153944000D03*
X238674000Y-156484000D03*
%TD*%
D14*
%TO.C,SW27*%
X271394000Y-159025000D03*
X261234000Y-159025000D03*
D15*
X266314000Y-159025000D03*
G36*
G01*
X270831000Y-154985000D02*
X270831000Y-152905000D01*
G75*
G02*
X271091000Y-152645000I260000J0D01*
G01*
X273221000Y-152645000D01*
G75*
G02*
X273481000Y-152905000I0J-260000D01*
G01*
X273481000Y-154985000D01*
G75*
G02*
X273221000Y-155245000I-260000J0D01*
G01*
X271091000Y-155245000D01*
G75*
G02*
X270831000Y-154985000I0J260000D01*
G01*
G37*
G36*
G01*
X257904000Y-157525000D02*
X257904000Y-155445000D01*
G75*
G02*
X258164000Y-155185000I260000J0D01*
G01*
X260294000Y-155185000D01*
G75*
G02*
X260554000Y-155445000I0J-260000D01*
G01*
X260554000Y-157525000D01*
G75*
G02*
X260294000Y-157785000I-260000J0D01*
G01*
X258164000Y-157785000D01*
G75*
G02*
X257904000Y-157525000I0J260000D01*
G01*
G37*
D16*
X268854000Y-153945000D03*
X262504000Y-156485000D03*
%TD*%
D14*
%TO.C,SW26*%
X290441000Y-159025000D03*
X280281000Y-159025000D03*
D15*
X285361000Y-159025000D03*
G36*
G01*
X289878000Y-154985000D02*
X289878000Y-152905000D01*
G75*
G02*
X290138000Y-152645000I260000J0D01*
G01*
X292268000Y-152645000D01*
G75*
G02*
X292528000Y-152905000I0J-260000D01*
G01*
X292528000Y-154985000D01*
G75*
G02*
X292268000Y-155245000I-260000J0D01*
G01*
X290138000Y-155245000D01*
G75*
G02*
X289878000Y-154985000I0J260000D01*
G01*
G37*
G36*
G01*
X276951000Y-157525000D02*
X276951000Y-155445000D01*
G75*
G02*
X277211000Y-155185000I260000J0D01*
G01*
X279341000Y-155185000D01*
G75*
G02*
X279601000Y-155445000I0J-260000D01*
G01*
X279601000Y-157525000D01*
G75*
G02*
X279341000Y-157785000I-260000J0D01*
G01*
X277211000Y-157785000D01*
G75*
G02*
X276951000Y-157525000I0J260000D01*
G01*
G37*
D16*
X287901000Y-153945000D03*
X281551000Y-156485000D03*
%TD*%
D14*
%TO.C,SW25*%
X309484000Y-159025000D03*
X299324000Y-159025000D03*
D15*
X304404000Y-159025000D03*
G36*
G01*
X308921000Y-154985000D02*
X308921000Y-152905000D01*
G75*
G02*
X309181000Y-152645000I260000J0D01*
G01*
X311311000Y-152645000D01*
G75*
G02*
X311571000Y-152905000I0J-260000D01*
G01*
X311571000Y-154985000D01*
G75*
G02*
X311311000Y-155245000I-260000J0D01*
G01*
X309181000Y-155245000D01*
G75*
G02*
X308921000Y-154985000I0J260000D01*
G01*
G37*
G36*
G01*
X295994000Y-157525000D02*
X295994000Y-155445000D01*
G75*
G02*
X296254000Y-155185000I260000J0D01*
G01*
X298384000Y-155185000D01*
G75*
G02*
X298644000Y-155445000I0J-260000D01*
G01*
X298644000Y-157525000D01*
G75*
G02*
X298384000Y-157785000I-260000J0D01*
G01*
X296254000Y-157785000D01*
G75*
G02*
X295994000Y-157525000I0J260000D01*
G01*
G37*
D16*
X306944000Y-153945000D03*
X300594000Y-156485000D03*
%TD*%
D14*
%TO.C,SW24*%
X213563000Y-182829000D03*
X223723000Y-182829000D03*
D15*
X218643000Y-182829000D03*
G36*
G01*
X214126000Y-186869000D02*
X214126000Y-188949000D01*
G75*
G02*
X213866000Y-189209000I-260000J0D01*
G01*
X211736000Y-189209000D01*
G75*
G02*
X211476000Y-188949000I0J260000D01*
G01*
X211476000Y-186869000D01*
G75*
G02*
X211736000Y-186609000I260000J0D01*
G01*
X213866000Y-186609000D01*
G75*
G02*
X214126000Y-186869000I0J-260000D01*
G01*
G37*
G36*
G01*
X227053000Y-184329000D02*
X227053000Y-186409000D01*
G75*
G02*
X226793000Y-186669000I-260000J0D01*
G01*
X224663000Y-186669000D01*
G75*
G02*
X224403000Y-186409000I0J260000D01*
G01*
X224403000Y-184329000D01*
G75*
G02*
X224663000Y-184069000I260000J0D01*
G01*
X226793000Y-184069000D01*
G75*
G02*
X227053000Y-184329000I0J-260000D01*
G01*
G37*
D16*
X216103000Y-187909000D03*
X222453000Y-185369000D03*
%TD*%
D14*
%TO.C,SW23*%
X194577000Y-182829000D03*
X204737000Y-182829000D03*
D15*
X199657000Y-182829000D03*
G36*
G01*
X195140000Y-186869000D02*
X195140000Y-188949000D01*
G75*
G02*
X194880000Y-189209000I-260000J0D01*
G01*
X192750000Y-189209000D01*
G75*
G02*
X192490000Y-188949000I0J260000D01*
G01*
X192490000Y-186869000D01*
G75*
G02*
X192750000Y-186609000I260000J0D01*
G01*
X194880000Y-186609000D01*
G75*
G02*
X195140000Y-186869000I0J-260000D01*
G01*
G37*
G36*
G01*
X208067000Y-184329000D02*
X208067000Y-186409000D01*
G75*
G02*
X207807000Y-186669000I-260000J0D01*
G01*
X205677000Y-186669000D01*
G75*
G02*
X205417000Y-186409000I0J260000D01*
G01*
X205417000Y-184329000D01*
G75*
G02*
X205677000Y-184069000I260000J0D01*
G01*
X207807000Y-184069000D01*
G75*
G02*
X208067000Y-184329000I0J-260000D01*
G01*
G37*
D16*
X197117000Y-187909000D03*
X203467000Y-185369000D03*
%TD*%
D14*
%TO.C,SW22*%
X175497000Y-182829000D03*
X185657000Y-182829000D03*
D15*
X180577000Y-182829000D03*
G36*
G01*
X176060000Y-186869000D02*
X176060000Y-188949000D01*
G75*
G02*
X175800000Y-189209000I-260000J0D01*
G01*
X173670000Y-189209000D01*
G75*
G02*
X173410000Y-188949000I0J260000D01*
G01*
X173410000Y-186869000D01*
G75*
G02*
X173670000Y-186609000I260000J0D01*
G01*
X175800000Y-186609000D01*
G75*
G02*
X176060000Y-186869000I0J-260000D01*
G01*
G37*
G36*
G01*
X188987000Y-184329000D02*
X188987000Y-186409000D01*
G75*
G02*
X188727000Y-186669000I-260000J0D01*
G01*
X186597000Y-186669000D01*
G75*
G02*
X186337000Y-186409000I0J260000D01*
G01*
X186337000Y-184329000D01*
G75*
G02*
X186597000Y-184069000I260000J0D01*
G01*
X188727000Y-184069000D01*
G75*
G02*
X188987000Y-184329000I0J-260000D01*
G01*
G37*
D16*
X178037000Y-187909000D03*
X184387000Y-185369000D03*
%TD*%
D14*
%TO.C,SW21*%
X166606000Y-182837000D03*
X156446000Y-182837000D03*
D15*
X161526000Y-182837000D03*
G36*
G01*
X166043000Y-178797000D02*
X166043000Y-176717000D01*
G75*
G02*
X166303000Y-176457000I260000J0D01*
G01*
X168433000Y-176457000D01*
G75*
G02*
X168693000Y-176717000I0J-260000D01*
G01*
X168693000Y-178797000D01*
G75*
G02*
X168433000Y-179057000I-260000J0D01*
G01*
X166303000Y-179057000D01*
G75*
G02*
X166043000Y-178797000I0J260000D01*
G01*
G37*
G36*
G01*
X153116000Y-181337000D02*
X153116000Y-179257000D01*
G75*
G02*
X153376000Y-178997000I260000J0D01*
G01*
X155506000Y-178997000D01*
G75*
G02*
X155766000Y-179257000I0J-260000D01*
G01*
X155766000Y-181337000D01*
G75*
G02*
X155506000Y-181597000I-260000J0D01*
G01*
X153376000Y-181597000D01*
G75*
G02*
X153116000Y-181337000I0J260000D01*
G01*
G37*
D16*
X164066000Y-177757000D03*
X157716000Y-180297000D03*
%TD*%
D14*
%TO.C,SW20*%
X166604000Y-159024000D03*
X156444000Y-159024000D03*
D15*
X161524000Y-159024000D03*
G36*
G01*
X166041000Y-154984000D02*
X166041000Y-152904000D01*
G75*
G02*
X166301000Y-152644000I260000J0D01*
G01*
X168431000Y-152644000D01*
G75*
G02*
X168691000Y-152904000I0J-260000D01*
G01*
X168691000Y-154984000D01*
G75*
G02*
X168431000Y-155244000I-260000J0D01*
G01*
X166301000Y-155244000D01*
G75*
G02*
X166041000Y-154984000I0J260000D01*
G01*
G37*
G36*
G01*
X153114000Y-157524000D02*
X153114000Y-155444000D01*
G75*
G02*
X153374000Y-155184000I260000J0D01*
G01*
X155504000Y-155184000D01*
G75*
G02*
X155764000Y-155444000I0J-260000D01*
G01*
X155764000Y-157524000D01*
G75*
G02*
X155504000Y-157784000I-260000J0D01*
G01*
X153374000Y-157784000D01*
G75*
G02*
X153114000Y-157524000I0J260000D01*
G01*
G37*
D16*
X164064000Y-153944000D03*
X157714000Y-156484000D03*
%TD*%
D14*
%TO.C,SW19*%
X190417000Y-159024000D03*
X180257000Y-159024000D03*
D15*
X185337000Y-159024000D03*
G36*
G01*
X189854000Y-154984000D02*
X189854000Y-152904000D01*
G75*
G02*
X190114000Y-152644000I260000J0D01*
G01*
X192244000Y-152644000D01*
G75*
G02*
X192504000Y-152904000I0J-260000D01*
G01*
X192504000Y-154984000D01*
G75*
G02*
X192244000Y-155244000I-260000J0D01*
G01*
X190114000Y-155244000D01*
G75*
G02*
X189854000Y-154984000I0J260000D01*
G01*
G37*
G36*
G01*
X176927000Y-157524000D02*
X176927000Y-155444000D01*
G75*
G02*
X177187000Y-155184000I260000J0D01*
G01*
X179317000Y-155184000D01*
G75*
G02*
X179577000Y-155444000I0J-260000D01*
G01*
X179577000Y-157524000D01*
G75*
G02*
X179317000Y-157784000I-260000J0D01*
G01*
X177187000Y-157784000D01*
G75*
G02*
X176927000Y-157524000I0J260000D01*
G01*
G37*
D16*
X187877000Y-153944000D03*
X181527000Y-156484000D03*
%TD*%
D14*
%TO.C,SW18*%
X199293000Y-159024000D03*
X209453000Y-159024000D03*
D15*
X204373000Y-159024000D03*
G36*
G01*
X199856000Y-163064000D02*
X199856000Y-165144000D01*
G75*
G02*
X199596000Y-165404000I-260000J0D01*
G01*
X197466000Y-165404000D01*
G75*
G02*
X197206000Y-165144000I0J260000D01*
G01*
X197206000Y-163064000D01*
G75*
G02*
X197466000Y-162804000I260000J0D01*
G01*
X199596000Y-162804000D01*
G75*
G02*
X199856000Y-163064000I0J-260000D01*
G01*
G37*
G36*
G01*
X212783000Y-160524000D02*
X212783000Y-162604000D01*
G75*
G02*
X212523000Y-162864000I-260000J0D01*
G01*
X210393000Y-162864000D01*
G75*
G02*
X210133000Y-162604000I0J260000D01*
G01*
X210133000Y-160524000D01*
G75*
G02*
X210393000Y-160264000I260000J0D01*
G01*
X212523000Y-160264000D01*
G75*
G02*
X212783000Y-160524000I0J-260000D01*
G01*
G37*
D16*
X201833000Y-164104000D03*
X208183000Y-161564000D03*
%TD*%
D14*
%TO.C,SW17*%
X218349000Y-159024000D03*
X228509000Y-159024000D03*
D15*
X223429000Y-159024000D03*
G36*
G01*
X218912000Y-163064000D02*
X218912000Y-165144000D01*
G75*
G02*
X218652000Y-165404000I-260000J0D01*
G01*
X216522000Y-165404000D01*
G75*
G02*
X216262000Y-165144000I0J260000D01*
G01*
X216262000Y-163064000D01*
G75*
G02*
X216522000Y-162804000I260000J0D01*
G01*
X218652000Y-162804000D01*
G75*
G02*
X218912000Y-163064000I0J-260000D01*
G01*
G37*
G36*
G01*
X231839000Y-160524000D02*
X231839000Y-162604000D01*
G75*
G02*
X231579000Y-162864000I-260000J0D01*
G01*
X229449000Y-162864000D01*
G75*
G02*
X229189000Y-162604000I0J260000D01*
G01*
X229189000Y-160524000D01*
G75*
G02*
X229449000Y-160264000I260000J0D01*
G01*
X231579000Y-160264000D01*
G75*
G02*
X231839000Y-160524000I0J-260000D01*
G01*
G37*
D16*
X220889000Y-164104000D03*
X227239000Y-161564000D03*
%TD*%
D14*
%TO.C,SW16*%
X192799000Y-259037000D03*
X182639000Y-259037000D03*
D15*
X187719000Y-259037000D03*
G36*
G01*
X192236000Y-254997000D02*
X192236000Y-252917000D01*
G75*
G02*
X192496000Y-252657000I260000J0D01*
G01*
X194626000Y-252657000D01*
G75*
G02*
X194886000Y-252917000I0J-260000D01*
G01*
X194886000Y-254997000D01*
G75*
G02*
X194626000Y-255257000I-260000J0D01*
G01*
X192496000Y-255257000D01*
G75*
G02*
X192236000Y-254997000I0J260000D01*
G01*
G37*
G36*
G01*
X179309000Y-257537000D02*
X179309000Y-255457000D01*
G75*
G02*
X179569000Y-255197000I260000J0D01*
G01*
X181699000Y-255197000D01*
G75*
G02*
X181959000Y-255457000I0J-260000D01*
G01*
X181959000Y-257537000D01*
G75*
G02*
X181699000Y-257797000I-260000J0D01*
G01*
X179569000Y-257797000D01*
G75*
G02*
X179309000Y-257537000I0J260000D01*
G01*
G37*
D16*
X190259000Y-253957000D03*
X183909000Y-256497000D03*
%TD*%
D14*
%TO.C,SW15*%
X238043000Y-220939000D03*
X227883000Y-220939000D03*
D15*
X232963000Y-220939000D03*
G36*
G01*
X237480000Y-216899000D02*
X237480000Y-214819000D01*
G75*
G02*
X237740000Y-214559000I260000J0D01*
G01*
X239870000Y-214559000D01*
G75*
G02*
X240130000Y-214819000I0J-260000D01*
G01*
X240130000Y-216899000D01*
G75*
G02*
X239870000Y-217159000I-260000J0D01*
G01*
X237740000Y-217159000D01*
G75*
G02*
X237480000Y-216899000I0J260000D01*
G01*
G37*
G36*
G01*
X224553000Y-219439000D02*
X224553000Y-217359000D01*
G75*
G02*
X224813000Y-217099000I260000J0D01*
G01*
X226943000Y-217099000D01*
G75*
G02*
X227203000Y-217359000I0J-260000D01*
G01*
X227203000Y-219439000D01*
G75*
G02*
X226943000Y-219699000I-260000J0D01*
G01*
X224813000Y-219699000D01*
G75*
G02*
X224553000Y-219439000I0J260000D01*
G01*
G37*
D16*
X235503000Y-215859000D03*
X229153000Y-218399000D03*
%TD*%
D14*
%TO.C,SW14*%
X328003000Y-182829000D03*
X338163000Y-182829000D03*
D15*
X333083000Y-182829000D03*
G36*
G01*
X328566000Y-186869000D02*
X328566000Y-188949000D01*
G75*
G02*
X328306000Y-189209000I-260000J0D01*
G01*
X326176000Y-189209000D01*
G75*
G02*
X325916000Y-188949000I0J260000D01*
G01*
X325916000Y-186869000D01*
G75*
G02*
X326176000Y-186609000I260000J0D01*
G01*
X328306000Y-186609000D01*
G75*
G02*
X328566000Y-186869000I0J-260000D01*
G01*
G37*
G36*
G01*
X341493000Y-184329000D02*
X341493000Y-186409000D01*
G75*
G02*
X341233000Y-186669000I-260000J0D01*
G01*
X339103000Y-186669000D01*
G75*
G02*
X338843000Y-186409000I0J260000D01*
G01*
X338843000Y-184329000D01*
G75*
G02*
X339103000Y-184069000I260000J0D01*
G01*
X341233000Y-184069000D01*
G75*
G02*
X341493000Y-184329000I0J-260000D01*
G01*
G37*
D16*
X330543000Y-187909000D03*
X336893000Y-185369000D03*
%TD*%
D14*
%TO.C,SW13*%
X252400000Y-201892000D03*
X242240000Y-201892000D03*
D15*
X247320000Y-201892000D03*
G36*
G01*
X251837000Y-197852000D02*
X251837000Y-195772000D01*
G75*
G02*
X252097000Y-195512000I260000J0D01*
G01*
X254227000Y-195512000D01*
G75*
G02*
X254487000Y-195772000I0J-260000D01*
G01*
X254487000Y-197852000D01*
G75*
G02*
X254227000Y-198112000I-260000J0D01*
G01*
X252097000Y-198112000D01*
G75*
G02*
X251837000Y-197852000I0J260000D01*
G01*
G37*
G36*
G01*
X238910000Y-200392000D02*
X238910000Y-198312000D01*
G75*
G02*
X239170000Y-198052000I260000J0D01*
G01*
X241300000Y-198052000D01*
G75*
G02*
X241560000Y-198312000I0J-260000D01*
G01*
X241560000Y-200392000D01*
G75*
G02*
X241300000Y-200652000I-260000J0D01*
G01*
X239170000Y-200652000D01*
G75*
G02*
X238910000Y-200392000I0J260000D01*
G01*
G37*
D16*
X249860000Y-196812000D03*
X243510000Y-199352000D03*
%TD*%
D14*
%TO.C,SW12*%
X419016000Y-262100000D03*
X408856000Y-262100000D03*
D15*
X413936000Y-262100000D03*
G36*
G01*
X418453000Y-258060000D02*
X418453000Y-255980000D01*
G75*
G02*
X418713000Y-255720000I260000J0D01*
G01*
X420843000Y-255720000D01*
G75*
G02*
X421103000Y-255980000I0J-260000D01*
G01*
X421103000Y-258060000D01*
G75*
G02*
X420843000Y-258320000I-260000J0D01*
G01*
X418713000Y-258320000D01*
G75*
G02*
X418453000Y-258060000I0J260000D01*
G01*
G37*
G36*
G01*
X405526000Y-260600000D02*
X405526000Y-258520000D01*
G75*
G02*
X405786000Y-258260000I260000J0D01*
G01*
X407916000Y-258260000D01*
G75*
G02*
X408176000Y-258520000I0J-260000D01*
G01*
X408176000Y-260600000D01*
G75*
G02*
X407916000Y-260860000I-260000J0D01*
G01*
X405786000Y-260860000D01*
G75*
G02*
X405526000Y-260600000I0J260000D01*
G01*
G37*
D16*
X416476000Y-257020000D03*
X410126000Y-259560000D03*
%TD*%
D14*
%TO.C,SW11*%
X209467000Y-239992000D03*
X199307000Y-239992000D03*
D15*
X204387000Y-239992000D03*
G36*
G01*
X208904000Y-235952000D02*
X208904000Y-233872000D01*
G75*
G02*
X209164000Y-233612000I260000J0D01*
G01*
X211294000Y-233612000D01*
G75*
G02*
X211554000Y-233872000I0J-260000D01*
G01*
X211554000Y-235952000D01*
G75*
G02*
X211294000Y-236212000I-260000J0D01*
G01*
X209164000Y-236212000D01*
G75*
G02*
X208904000Y-235952000I0J260000D01*
G01*
G37*
G36*
G01*
X195977000Y-238492000D02*
X195977000Y-236412000D01*
G75*
G02*
X196237000Y-236152000I260000J0D01*
G01*
X198367000Y-236152000D01*
G75*
G02*
X198627000Y-236412000I0J-260000D01*
G01*
X198627000Y-238492000D01*
G75*
G02*
X198367000Y-238752000I-260000J0D01*
G01*
X196237000Y-238752000D01*
G75*
G02*
X195977000Y-238492000I0J260000D01*
G01*
G37*
D16*
X206927000Y-234912000D03*
X200577000Y-237452000D03*
%TD*%
D14*
%TO.C,SW10*%
X233299000Y-201892000D03*
X223139000Y-201892000D03*
D15*
X228219000Y-201892000D03*
G36*
G01*
X232736000Y-197852000D02*
X232736000Y-195772000D01*
G75*
G02*
X232996000Y-195512000I260000J0D01*
G01*
X235126000Y-195512000D01*
G75*
G02*
X235386000Y-195772000I0J-260000D01*
G01*
X235386000Y-197852000D01*
G75*
G02*
X235126000Y-198112000I-260000J0D01*
G01*
X232996000Y-198112000D01*
G75*
G02*
X232736000Y-197852000I0J260000D01*
G01*
G37*
G36*
G01*
X219809000Y-200392000D02*
X219809000Y-198312000D01*
G75*
G02*
X220069000Y-198052000I260000J0D01*
G01*
X222199000Y-198052000D01*
G75*
G02*
X222459000Y-198312000I0J-260000D01*
G01*
X222459000Y-200392000D01*
G75*
G02*
X222199000Y-200652000I-260000J0D01*
G01*
X220069000Y-200652000D01*
G75*
G02*
X219809000Y-200392000I0J260000D01*
G01*
G37*
D16*
X230759000Y-196812000D03*
X224409000Y-199352000D03*
%TD*%
D14*
%TO.C,SW9*%
X328587000Y-201892000D03*
X318427000Y-201892000D03*
D15*
X323507000Y-201892000D03*
G36*
G01*
X328024000Y-197852000D02*
X328024000Y-195772000D01*
G75*
G02*
X328284000Y-195512000I260000J0D01*
G01*
X330414000Y-195512000D01*
G75*
G02*
X330674000Y-195772000I0J-260000D01*
G01*
X330674000Y-197852000D01*
G75*
G02*
X330414000Y-198112000I-260000J0D01*
G01*
X328284000Y-198112000D01*
G75*
G02*
X328024000Y-197852000I0J260000D01*
G01*
G37*
G36*
G01*
X315097000Y-200392000D02*
X315097000Y-198312000D01*
G75*
G02*
X315357000Y-198052000I260000J0D01*
G01*
X317487000Y-198052000D01*
G75*
G02*
X317747000Y-198312000I0J-260000D01*
G01*
X317747000Y-200392000D01*
G75*
G02*
X317487000Y-200652000I-260000J0D01*
G01*
X315357000Y-200652000D01*
G75*
G02*
X315097000Y-200392000I0J260000D01*
G01*
G37*
D16*
X326047000Y-196812000D03*
X319697000Y-199352000D03*
%TD*%
D14*
%TO.C,SW8*%
X285712000Y-239992000D03*
X275552000Y-239992000D03*
D15*
X280632000Y-239992000D03*
G36*
G01*
X285149000Y-235952000D02*
X285149000Y-233872000D01*
G75*
G02*
X285409000Y-233612000I260000J0D01*
G01*
X287539000Y-233612000D01*
G75*
G02*
X287799000Y-233872000I0J-260000D01*
G01*
X287799000Y-235952000D01*
G75*
G02*
X287539000Y-236212000I-260000J0D01*
G01*
X285409000Y-236212000D01*
G75*
G02*
X285149000Y-235952000I0J260000D01*
G01*
G37*
G36*
G01*
X272222000Y-238492000D02*
X272222000Y-236412000D01*
G75*
G02*
X272482000Y-236152000I260000J0D01*
G01*
X274612000Y-236152000D01*
G75*
G02*
X274872000Y-236412000I0J-260000D01*
G01*
X274872000Y-238492000D01*
G75*
G02*
X274612000Y-238752000I-260000J0D01*
G01*
X272482000Y-238752000D01*
G75*
G02*
X272222000Y-238492000I0J260000D01*
G01*
G37*
D16*
X283172000Y-234912000D03*
X276822000Y-237452000D03*
%TD*%
D14*
%TO.C,SW7*%
X288046000Y-259037000D03*
X277886000Y-259037000D03*
D15*
X282966000Y-259037000D03*
G36*
G01*
X287483000Y-254997000D02*
X287483000Y-252917000D01*
G75*
G02*
X287743000Y-252657000I260000J0D01*
G01*
X289873000Y-252657000D01*
G75*
G02*
X290133000Y-252917000I0J-260000D01*
G01*
X290133000Y-254997000D01*
G75*
G02*
X289873000Y-255257000I-260000J0D01*
G01*
X287743000Y-255257000D01*
G75*
G02*
X287483000Y-254997000I0J260000D01*
G01*
G37*
G36*
G01*
X274556000Y-257537000D02*
X274556000Y-255457000D01*
G75*
G02*
X274816000Y-255197000I260000J0D01*
G01*
X276946000Y-255197000D01*
G75*
G02*
X277206000Y-255457000I0J-260000D01*
G01*
X277206000Y-257537000D01*
G75*
G02*
X276946000Y-257797000I-260000J0D01*
G01*
X274816000Y-257797000D01*
G75*
G02*
X274556000Y-257537000I0J260000D01*
G01*
G37*
D16*
X285506000Y-253957000D03*
X279156000Y-256497000D03*
%TD*%
D14*
%TO.C,SW6*%
X438061000Y-262097000D03*
X427901000Y-262097000D03*
D15*
X432981000Y-262097000D03*
G36*
G01*
X437498000Y-258057000D02*
X437498000Y-255977000D01*
G75*
G02*
X437758000Y-255717000I260000J0D01*
G01*
X439888000Y-255717000D01*
G75*
G02*
X440148000Y-255977000I0J-260000D01*
G01*
X440148000Y-258057000D01*
G75*
G02*
X439888000Y-258317000I-260000J0D01*
G01*
X437758000Y-258317000D01*
G75*
G02*
X437498000Y-258057000I0J260000D01*
G01*
G37*
G36*
G01*
X424571000Y-260597000D02*
X424571000Y-258517000D01*
G75*
G02*
X424831000Y-258257000I260000J0D01*
G01*
X426961000Y-258257000D01*
G75*
G02*
X427221000Y-258517000I0J-260000D01*
G01*
X427221000Y-260597000D01*
G75*
G02*
X426961000Y-260857000I-260000J0D01*
G01*
X424831000Y-260857000D01*
G75*
G02*
X424571000Y-260597000I0J260000D01*
G01*
G37*
D16*
X435521000Y-257017000D03*
X429171000Y-259557000D03*
%TD*%
D14*
%TO.C,SW5*%
X323812000Y-239992000D03*
X313652000Y-239992000D03*
D15*
X318732000Y-239992000D03*
G36*
G01*
X323249000Y-235952000D02*
X323249000Y-233872000D01*
G75*
G02*
X323509000Y-233612000I260000J0D01*
G01*
X325639000Y-233612000D01*
G75*
G02*
X325899000Y-233872000I0J-260000D01*
G01*
X325899000Y-235952000D01*
G75*
G02*
X325639000Y-236212000I-260000J0D01*
G01*
X323509000Y-236212000D01*
G75*
G02*
X323249000Y-235952000I0J260000D01*
G01*
G37*
G36*
G01*
X310322000Y-238492000D02*
X310322000Y-236412000D01*
G75*
G02*
X310582000Y-236152000I260000J0D01*
G01*
X312712000Y-236152000D01*
G75*
G02*
X312972000Y-236412000I0J-260000D01*
G01*
X312972000Y-238492000D01*
G75*
G02*
X312712000Y-238752000I-260000J0D01*
G01*
X310582000Y-238752000D01*
G75*
G02*
X310322000Y-238492000I0J260000D01*
G01*
G37*
D16*
X321272000Y-234912000D03*
X314922000Y-237452000D03*
%TD*%
D14*
%TO.C,SW4*%
X266662000Y-239992000D03*
X256502000Y-239992000D03*
D15*
X261582000Y-239992000D03*
G36*
G01*
X266099000Y-235952000D02*
X266099000Y-233872000D01*
G75*
G02*
X266359000Y-233612000I260000J0D01*
G01*
X268489000Y-233612000D01*
G75*
G02*
X268749000Y-233872000I0J-260000D01*
G01*
X268749000Y-235952000D01*
G75*
G02*
X268489000Y-236212000I-260000J0D01*
G01*
X266359000Y-236212000D01*
G75*
G02*
X266099000Y-235952000I0J260000D01*
G01*
G37*
G36*
G01*
X253172000Y-238492000D02*
X253172000Y-236412000D01*
G75*
G02*
X253432000Y-236152000I260000J0D01*
G01*
X255562000Y-236152000D01*
G75*
G02*
X255822000Y-236412000I0J-260000D01*
G01*
X255822000Y-238492000D01*
G75*
G02*
X255562000Y-238752000I-260000J0D01*
G01*
X253432000Y-238752000D01*
G75*
G02*
X253172000Y-238492000I0J260000D01*
G01*
G37*
D16*
X264122000Y-234912000D03*
X257772000Y-237452000D03*
%TD*%
D14*
%TO.C,SW3*%
X247612000Y-239992000D03*
X237452000Y-239992000D03*
D15*
X242532000Y-239992000D03*
G36*
G01*
X247049000Y-235952000D02*
X247049000Y-233872000D01*
G75*
G02*
X247309000Y-233612000I260000J0D01*
G01*
X249439000Y-233612000D01*
G75*
G02*
X249699000Y-233872000I0J-260000D01*
G01*
X249699000Y-235952000D01*
G75*
G02*
X249439000Y-236212000I-260000J0D01*
G01*
X247309000Y-236212000D01*
G75*
G02*
X247049000Y-235952000I0J260000D01*
G01*
G37*
G36*
G01*
X234122000Y-238492000D02*
X234122000Y-236412000D01*
G75*
G02*
X234382000Y-236152000I260000J0D01*
G01*
X236512000Y-236152000D01*
G75*
G02*
X236772000Y-236412000I0J-260000D01*
G01*
X236772000Y-238492000D01*
G75*
G02*
X236512000Y-238752000I-260000J0D01*
G01*
X234382000Y-238752000D01*
G75*
G02*
X234122000Y-238492000I0J260000D01*
G01*
G37*
D16*
X245072000Y-234912000D03*
X238722000Y-237452000D03*
%TD*%
D14*
%TO.C,SW2*%
X304762000Y-239992000D03*
X294602000Y-239992000D03*
D15*
X299682000Y-239992000D03*
G36*
G01*
X304199000Y-235952000D02*
X304199000Y-233872000D01*
G75*
G02*
X304459000Y-233612000I260000J0D01*
G01*
X306589000Y-233612000D01*
G75*
G02*
X306849000Y-233872000I0J-260000D01*
G01*
X306849000Y-235952000D01*
G75*
G02*
X306589000Y-236212000I-260000J0D01*
G01*
X304459000Y-236212000D01*
G75*
G02*
X304199000Y-235952000I0J260000D01*
G01*
G37*
G36*
G01*
X291272000Y-238492000D02*
X291272000Y-236412000D01*
G75*
G02*
X291532000Y-236152000I260000J0D01*
G01*
X293662000Y-236152000D01*
G75*
G02*
X293922000Y-236412000I0J-260000D01*
G01*
X293922000Y-238492000D01*
G75*
G02*
X293662000Y-238752000I-260000J0D01*
G01*
X291532000Y-238752000D01*
G75*
G02*
X291272000Y-238492000I0J260000D01*
G01*
G37*
D16*
X302222000Y-234912000D03*
X295872000Y-237452000D03*
%TD*%
D14*
%TO.C,SW1*%
X457120000Y-262100000D03*
X446960000Y-262100000D03*
D15*
X452040000Y-262100000D03*
G36*
G01*
X456557000Y-258060000D02*
X456557000Y-255980000D01*
G75*
G02*
X456817000Y-255720000I260000J0D01*
G01*
X458947000Y-255720000D01*
G75*
G02*
X459207000Y-255980000I0J-260000D01*
G01*
X459207000Y-258060000D01*
G75*
G02*
X458947000Y-258320000I-260000J0D01*
G01*
X456817000Y-258320000D01*
G75*
G02*
X456557000Y-258060000I0J260000D01*
G01*
G37*
G36*
G01*
X443630000Y-260600000D02*
X443630000Y-258520000D01*
G75*
G02*
X443890000Y-258260000I260000J0D01*
G01*
X446020000Y-258260000D01*
G75*
G02*
X446280000Y-258520000I0J-260000D01*
G01*
X446280000Y-260600000D01*
G75*
G02*
X446020000Y-260860000I-260000J0D01*
G01*
X443890000Y-260860000D01*
G75*
G02*
X443630000Y-260600000I0J260000D01*
G01*
G37*
D16*
X454580000Y-257020000D03*
X448230000Y-259560000D03*
%TD*%
D17*
%TO.C,REF6*%
X422200000Y-243400000D03*
%TD*%
%TO.C,REF5*%
X194400000Y-243400000D03*
%TD*%
%TO.C,REF4*%
X442200000Y-168600000D03*
%TD*%
%TO.C,REF *%
X176000000Y-171300000D03*
%TD*%
%TO.C,REF2*%
X309000000Y-251900000D03*
%TD*%
%TO.C,REF1*%
X309000000Y-171300000D03*
%TD*%
D18*
%TO.C,mh_5.3_3*%
X434200000Y-211600000D03*
%TD*%
%TO.C,mh_5.3_2*%
X314000000Y-211600000D03*
%TD*%
%TO.C,mh_5.3_1*%
X180000000Y-211600000D03*
%TD*%
D19*
%TO.C,Y1*%
X308080000Y-261953000D03*
X308080000Y-266833000D03*
%TD*%
%TO.C,U12*%
G36*
G01*
X330271000Y-261441000D02*
X328896000Y-261441000D01*
G75*
G02*
X328796000Y-261341000I0J100000D01*
G01*
X328796000Y-261141000D01*
G75*
G02*
X328896000Y-261041000I100000J0D01*
G01*
X330271000Y-261041000D01*
G75*
G02*
X330371000Y-261141000I0J-100000D01*
G01*
X330371000Y-261341000D01*
G75*
G02*
X330271000Y-261441000I-100000J0D01*
G01*
G37*
G36*
G01*
X330271000Y-260941000D02*
X328896000Y-260941000D01*
G75*
G02*
X328796000Y-260841000I0J100000D01*
G01*
X328796000Y-260641000D01*
G75*
G02*
X328896000Y-260541000I100000J0D01*
G01*
X330271000Y-260541000D01*
G75*
G02*
X330371000Y-260641000I0J-100000D01*
G01*
X330371000Y-260841000D01*
G75*
G02*
X330271000Y-260941000I-100000J0D01*
G01*
G37*
G36*
G01*
X330271000Y-260441000D02*
X328896000Y-260441000D01*
G75*
G02*
X328796000Y-260341000I0J100000D01*
G01*
X328796000Y-260141000D01*
G75*
G02*
X328896000Y-260041000I100000J0D01*
G01*
X330271000Y-260041000D01*
G75*
G02*
X330371000Y-260141000I0J-100000D01*
G01*
X330371000Y-260341000D01*
G75*
G02*
X330271000Y-260441000I-100000J0D01*
G01*
G37*
G36*
G01*
X330271000Y-259941000D02*
X328896000Y-259941000D01*
G75*
G02*
X328796000Y-259841000I0J100000D01*
G01*
X328796000Y-259641000D01*
G75*
G02*
X328896000Y-259541000I100000J0D01*
G01*
X330271000Y-259541000D01*
G75*
G02*
X330371000Y-259641000I0J-100000D01*
G01*
X330371000Y-259841000D01*
G75*
G02*
X330271000Y-259941000I-100000J0D01*
G01*
G37*
G36*
G01*
X330271000Y-259441000D02*
X328896000Y-259441000D01*
G75*
G02*
X328796000Y-259341000I0J100000D01*
G01*
X328796000Y-259141000D01*
G75*
G02*
X328896000Y-259041000I100000J0D01*
G01*
X330271000Y-259041000D01*
G75*
G02*
X330371000Y-259141000I0J-100000D01*
G01*
X330371000Y-259341000D01*
G75*
G02*
X330271000Y-259441000I-100000J0D01*
G01*
G37*
G36*
G01*
X330271000Y-258941000D02*
X328896000Y-258941000D01*
G75*
G02*
X328796000Y-258841000I0J100000D01*
G01*
X328796000Y-258641000D01*
G75*
G02*
X328896000Y-258541000I100000J0D01*
G01*
X330271000Y-258541000D01*
G75*
G02*
X330371000Y-258641000I0J-100000D01*
G01*
X330371000Y-258841000D01*
G75*
G02*
X330271000Y-258941000I-100000J0D01*
G01*
G37*
G36*
G01*
X330271000Y-258441000D02*
X328896000Y-258441000D01*
G75*
G02*
X328796000Y-258341000I0J100000D01*
G01*
X328796000Y-258141000D01*
G75*
G02*
X328896000Y-258041000I100000J0D01*
G01*
X330271000Y-258041000D01*
G75*
G02*
X330371000Y-258141000I0J-100000D01*
G01*
X330371000Y-258341000D01*
G75*
G02*
X330271000Y-258441000I-100000J0D01*
G01*
G37*
G36*
G01*
X330271000Y-257941000D02*
X328896000Y-257941000D01*
G75*
G02*
X328796000Y-257841000I0J100000D01*
G01*
X328796000Y-257641000D01*
G75*
G02*
X328896000Y-257541000I100000J0D01*
G01*
X330271000Y-257541000D01*
G75*
G02*
X330371000Y-257641000I0J-100000D01*
G01*
X330371000Y-257841000D01*
G75*
G02*
X330271000Y-257941000I-100000J0D01*
G01*
G37*
G36*
G01*
X330271000Y-257441000D02*
X328896000Y-257441000D01*
G75*
G02*
X328796000Y-257341000I0J100000D01*
G01*
X328796000Y-257141000D01*
G75*
G02*
X328896000Y-257041000I100000J0D01*
G01*
X330271000Y-257041000D01*
G75*
G02*
X330371000Y-257141000I0J-100000D01*
G01*
X330371000Y-257341000D01*
G75*
G02*
X330271000Y-257441000I-100000J0D01*
G01*
G37*
G36*
G01*
X330271000Y-256941000D02*
X328896000Y-256941000D01*
G75*
G02*
X328796000Y-256841000I0J100000D01*
G01*
X328796000Y-256641000D01*
G75*
G02*
X328896000Y-256541000I100000J0D01*
G01*
X330271000Y-256541000D01*
G75*
G02*
X330371000Y-256641000I0J-100000D01*
G01*
X330371000Y-256841000D01*
G75*
G02*
X330271000Y-256941000I-100000J0D01*
G01*
G37*
G36*
G01*
X330271000Y-256441000D02*
X328896000Y-256441000D01*
G75*
G02*
X328796000Y-256341000I0J100000D01*
G01*
X328796000Y-256141000D01*
G75*
G02*
X328896000Y-256041000I100000J0D01*
G01*
X330271000Y-256041000D01*
G75*
G02*
X330371000Y-256141000I0J-100000D01*
G01*
X330371000Y-256341000D01*
G75*
G02*
X330271000Y-256441000I-100000J0D01*
G01*
G37*
G36*
G01*
X330271000Y-255941000D02*
X328896000Y-255941000D01*
G75*
G02*
X328796000Y-255841000I0J100000D01*
G01*
X328796000Y-255641000D01*
G75*
G02*
X328896000Y-255541000I100000J0D01*
G01*
X330271000Y-255541000D01*
G75*
G02*
X330371000Y-255641000I0J-100000D01*
G01*
X330371000Y-255841000D01*
G75*
G02*
X330271000Y-255941000I-100000J0D01*
G01*
G37*
G36*
G01*
X328271000Y-255116000D02*
X328071000Y-255116000D01*
G75*
G02*
X327971000Y-255016000I0J100000D01*
G01*
X327971000Y-253641000D01*
G75*
G02*
X328071000Y-253541000I100000J0D01*
G01*
X328271000Y-253541000D01*
G75*
G02*
X328371000Y-253641000I0J-100000D01*
G01*
X328371000Y-255016000D01*
G75*
G02*
X328271000Y-255116000I-100000J0D01*
G01*
G37*
G36*
G01*
X327771000Y-255116000D02*
X327571000Y-255116000D01*
G75*
G02*
X327471000Y-255016000I0J100000D01*
G01*
X327471000Y-253641000D01*
G75*
G02*
X327571000Y-253541000I100000J0D01*
G01*
X327771000Y-253541000D01*
G75*
G02*
X327871000Y-253641000I0J-100000D01*
G01*
X327871000Y-255016000D01*
G75*
G02*
X327771000Y-255116000I-100000J0D01*
G01*
G37*
G36*
G01*
X327271000Y-255116000D02*
X327071000Y-255116000D01*
G75*
G02*
X326971000Y-255016000I0J100000D01*
G01*
X326971000Y-253641000D01*
G75*
G02*
X327071000Y-253541000I100000J0D01*
G01*
X327271000Y-253541000D01*
G75*
G02*
X327371000Y-253641000I0J-100000D01*
G01*
X327371000Y-255016000D01*
G75*
G02*
X327271000Y-255116000I-100000J0D01*
G01*
G37*
G36*
G01*
X326771000Y-255116000D02*
X326571000Y-255116000D01*
G75*
G02*
X326471000Y-255016000I0J100000D01*
G01*
X326471000Y-253641000D01*
G75*
G02*
X326571000Y-253541000I100000J0D01*
G01*
X326771000Y-253541000D01*
G75*
G02*
X326871000Y-253641000I0J-100000D01*
G01*
X326871000Y-255016000D01*
G75*
G02*
X326771000Y-255116000I-100000J0D01*
G01*
G37*
G36*
G01*
X326271000Y-255116000D02*
X326071000Y-255116000D01*
G75*
G02*
X325971000Y-255016000I0J100000D01*
G01*
X325971000Y-253641000D01*
G75*
G02*
X326071000Y-253541000I100000J0D01*
G01*
X326271000Y-253541000D01*
G75*
G02*
X326371000Y-253641000I0J-100000D01*
G01*
X326371000Y-255016000D01*
G75*
G02*
X326271000Y-255116000I-100000J0D01*
G01*
G37*
G36*
G01*
X325771000Y-255116000D02*
X325571000Y-255116000D01*
G75*
G02*
X325471000Y-255016000I0J100000D01*
G01*
X325471000Y-253641000D01*
G75*
G02*
X325571000Y-253541000I100000J0D01*
G01*
X325771000Y-253541000D01*
G75*
G02*
X325871000Y-253641000I0J-100000D01*
G01*
X325871000Y-255016000D01*
G75*
G02*
X325771000Y-255116000I-100000J0D01*
G01*
G37*
G36*
G01*
X325271000Y-255116000D02*
X325071000Y-255116000D01*
G75*
G02*
X324971000Y-255016000I0J100000D01*
G01*
X324971000Y-253641000D01*
G75*
G02*
X325071000Y-253541000I100000J0D01*
G01*
X325271000Y-253541000D01*
G75*
G02*
X325371000Y-253641000I0J-100000D01*
G01*
X325371000Y-255016000D01*
G75*
G02*
X325271000Y-255116000I-100000J0D01*
G01*
G37*
G36*
G01*
X324771000Y-255116000D02*
X324571000Y-255116000D01*
G75*
G02*
X324471000Y-255016000I0J100000D01*
G01*
X324471000Y-253641000D01*
G75*
G02*
X324571000Y-253541000I100000J0D01*
G01*
X324771000Y-253541000D01*
G75*
G02*
X324871000Y-253641000I0J-100000D01*
G01*
X324871000Y-255016000D01*
G75*
G02*
X324771000Y-255116000I-100000J0D01*
G01*
G37*
G36*
G01*
X324271000Y-255116000D02*
X324071000Y-255116000D01*
G75*
G02*
X323971000Y-255016000I0J100000D01*
G01*
X323971000Y-253641000D01*
G75*
G02*
X324071000Y-253541000I100000J0D01*
G01*
X324271000Y-253541000D01*
G75*
G02*
X324371000Y-253641000I0J-100000D01*
G01*
X324371000Y-255016000D01*
G75*
G02*
X324271000Y-255116000I-100000J0D01*
G01*
G37*
G36*
G01*
X323771000Y-255116000D02*
X323571000Y-255116000D01*
G75*
G02*
X323471000Y-255016000I0J100000D01*
G01*
X323471000Y-253641000D01*
G75*
G02*
X323571000Y-253541000I100000J0D01*
G01*
X323771000Y-253541000D01*
G75*
G02*
X323871000Y-253641000I0J-100000D01*
G01*
X323871000Y-255016000D01*
G75*
G02*
X323771000Y-255116000I-100000J0D01*
G01*
G37*
G36*
G01*
X323271000Y-255116000D02*
X323071000Y-255116000D01*
G75*
G02*
X322971000Y-255016000I0J100000D01*
G01*
X322971000Y-253641000D01*
G75*
G02*
X323071000Y-253541000I100000J0D01*
G01*
X323271000Y-253541000D01*
G75*
G02*
X323371000Y-253641000I0J-100000D01*
G01*
X323371000Y-255016000D01*
G75*
G02*
X323271000Y-255116000I-100000J0D01*
G01*
G37*
G36*
G01*
X322771000Y-255116000D02*
X322571000Y-255116000D01*
G75*
G02*
X322471000Y-255016000I0J100000D01*
G01*
X322471000Y-253641000D01*
G75*
G02*
X322571000Y-253541000I100000J0D01*
G01*
X322771000Y-253541000D01*
G75*
G02*
X322871000Y-253641000I0J-100000D01*
G01*
X322871000Y-255016000D01*
G75*
G02*
X322771000Y-255116000I-100000J0D01*
G01*
G37*
G36*
G01*
X321946000Y-255941000D02*
X320571000Y-255941000D01*
G75*
G02*
X320471000Y-255841000I0J100000D01*
G01*
X320471000Y-255641000D01*
G75*
G02*
X320571000Y-255541000I100000J0D01*
G01*
X321946000Y-255541000D01*
G75*
G02*
X322046000Y-255641000I0J-100000D01*
G01*
X322046000Y-255841000D01*
G75*
G02*
X321946000Y-255941000I-100000J0D01*
G01*
G37*
G36*
G01*
X321946000Y-256441000D02*
X320571000Y-256441000D01*
G75*
G02*
X320471000Y-256341000I0J100000D01*
G01*
X320471000Y-256141000D01*
G75*
G02*
X320571000Y-256041000I100000J0D01*
G01*
X321946000Y-256041000D01*
G75*
G02*
X322046000Y-256141000I0J-100000D01*
G01*
X322046000Y-256341000D01*
G75*
G02*
X321946000Y-256441000I-100000J0D01*
G01*
G37*
G36*
G01*
X321946000Y-256941000D02*
X320571000Y-256941000D01*
G75*
G02*
X320471000Y-256841000I0J100000D01*
G01*
X320471000Y-256641000D01*
G75*
G02*
X320571000Y-256541000I100000J0D01*
G01*
X321946000Y-256541000D01*
G75*
G02*
X322046000Y-256641000I0J-100000D01*
G01*
X322046000Y-256841000D01*
G75*
G02*
X321946000Y-256941000I-100000J0D01*
G01*
G37*
G36*
G01*
X321946000Y-257441000D02*
X320571000Y-257441000D01*
G75*
G02*
X320471000Y-257341000I0J100000D01*
G01*
X320471000Y-257141000D01*
G75*
G02*
X320571000Y-257041000I100000J0D01*
G01*
X321946000Y-257041000D01*
G75*
G02*
X322046000Y-257141000I0J-100000D01*
G01*
X322046000Y-257341000D01*
G75*
G02*
X321946000Y-257441000I-100000J0D01*
G01*
G37*
G36*
G01*
X321946000Y-257941000D02*
X320571000Y-257941000D01*
G75*
G02*
X320471000Y-257841000I0J100000D01*
G01*
X320471000Y-257641000D01*
G75*
G02*
X320571000Y-257541000I100000J0D01*
G01*
X321946000Y-257541000D01*
G75*
G02*
X322046000Y-257641000I0J-100000D01*
G01*
X322046000Y-257841000D01*
G75*
G02*
X321946000Y-257941000I-100000J0D01*
G01*
G37*
G36*
G01*
X321946000Y-258441000D02*
X320571000Y-258441000D01*
G75*
G02*
X320471000Y-258341000I0J100000D01*
G01*
X320471000Y-258141000D01*
G75*
G02*
X320571000Y-258041000I100000J0D01*
G01*
X321946000Y-258041000D01*
G75*
G02*
X322046000Y-258141000I0J-100000D01*
G01*
X322046000Y-258341000D01*
G75*
G02*
X321946000Y-258441000I-100000J0D01*
G01*
G37*
G36*
G01*
X321946000Y-258941000D02*
X320571000Y-258941000D01*
G75*
G02*
X320471000Y-258841000I0J100000D01*
G01*
X320471000Y-258641000D01*
G75*
G02*
X320571000Y-258541000I100000J0D01*
G01*
X321946000Y-258541000D01*
G75*
G02*
X322046000Y-258641000I0J-100000D01*
G01*
X322046000Y-258841000D01*
G75*
G02*
X321946000Y-258941000I-100000J0D01*
G01*
G37*
G36*
G01*
X321946000Y-259441000D02*
X320571000Y-259441000D01*
G75*
G02*
X320471000Y-259341000I0J100000D01*
G01*
X320471000Y-259141000D01*
G75*
G02*
X320571000Y-259041000I100000J0D01*
G01*
X321946000Y-259041000D01*
G75*
G02*
X322046000Y-259141000I0J-100000D01*
G01*
X322046000Y-259341000D01*
G75*
G02*
X321946000Y-259441000I-100000J0D01*
G01*
G37*
G36*
G01*
X321946000Y-259941000D02*
X320571000Y-259941000D01*
G75*
G02*
X320471000Y-259841000I0J100000D01*
G01*
X320471000Y-259641000D01*
G75*
G02*
X320571000Y-259541000I100000J0D01*
G01*
X321946000Y-259541000D01*
G75*
G02*
X322046000Y-259641000I0J-100000D01*
G01*
X322046000Y-259841000D01*
G75*
G02*
X321946000Y-259941000I-100000J0D01*
G01*
G37*
G36*
G01*
X321946000Y-260441000D02*
X320571000Y-260441000D01*
G75*
G02*
X320471000Y-260341000I0J100000D01*
G01*
X320471000Y-260141000D01*
G75*
G02*
X320571000Y-260041000I100000J0D01*
G01*
X321946000Y-260041000D01*
G75*
G02*
X322046000Y-260141000I0J-100000D01*
G01*
X322046000Y-260341000D01*
G75*
G02*
X321946000Y-260441000I-100000J0D01*
G01*
G37*
G36*
G01*
X321946000Y-260941000D02*
X320571000Y-260941000D01*
G75*
G02*
X320471000Y-260841000I0J100000D01*
G01*
X320471000Y-260641000D01*
G75*
G02*
X320571000Y-260541000I100000J0D01*
G01*
X321946000Y-260541000D01*
G75*
G02*
X322046000Y-260641000I0J-100000D01*
G01*
X322046000Y-260841000D01*
G75*
G02*
X321946000Y-260941000I-100000J0D01*
G01*
G37*
G36*
G01*
X321946000Y-261441000D02*
X320571000Y-261441000D01*
G75*
G02*
X320471000Y-261341000I0J100000D01*
G01*
X320471000Y-261141000D01*
G75*
G02*
X320571000Y-261041000I100000J0D01*
G01*
X321946000Y-261041000D01*
G75*
G02*
X322046000Y-261141000I0J-100000D01*
G01*
X322046000Y-261341000D01*
G75*
G02*
X321946000Y-261441000I-100000J0D01*
G01*
G37*
G36*
G01*
X322771000Y-263441000D02*
X322571000Y-263441000D01*
G75*
G02*
X322471000Y-263341000I0J100000D01*
G01*
X322471000Y-261966000D01*
G75*
G02*
X322571000Y-261866000I100000J0D01*
G01*
X322771000Y-261866000D01*
G75*
G02*
X322871000Y-261966000I0J-100000D01*
G01*
X322871000Y-263341000D01*
G75*
G02*
X322771000Y-263441000I-100000J0D01*
G01*
G37*
G36*
G01*
X323271000Y-263441000D02*
X323071000Y-263441000D01*
G75*
G02*
X322971000Y-263341000I0J100000D01*
G01*
X322971000Y-261966000D01*
G75*
G02*
X323071000Y-261866000I100000J0D01*
G01*
X323271000Y-261866000D01*
G75*
G02*
X323371000Y-261966000I0J-100000D01*
G01*
X323371000Y-263341000D01*
G75*
G02*
X323271000Y-263441000I-100000J0D01*
G01*
G37*
G36*
G01*
X323771000Y-263441000D02*
X323571000Y-263441000D01*
G75*
G02*
X323471000Y-263341000I0J100000D01*
G01*
X323471000Y-261966000D01*
G75*
G02*
X323571000Y-261866000I100000J0D01*
G01*
X323771000Y-261866000D01*
G75*
G02*
X323871000Y-261966000I0J-100000D01*
G01*
X323871000Y-263341000D01*
G75*
G02*
X323771000Y-263441000I-100000J0D01*
G01*
G37*
G36*
G01*
X324271000Y-263441000D02*
X324071000Y-263441000D01*
G75*
G02*
X323971000Y-263341000I0J100000D01*
G01*
X323971000Y-261966000D01*
G75*
G02*
X324071000Y-261866000I100000J0D01*
G01*
X324271000Y-261866000D01*
G75*
G02*
X324371000Y-261966000I0J-100000D01*
G01*
X324371000Y-263341000D01*
G75*
G02*
X324271000Y-263441000I-100000J0D01*
G01*
G37*
G36*
G01*
X324771000Y-263441000D02*
X324571000Y-263441000D01*
G75*
G02*
X324471000Y-263341000I0J100000D01*
G01*
X324471000Y-261966000D01*
G75*
G02*
X324571000Y-261866000I100000J0D01*
G01*
X324771000Y-261866000D01*
G75*
G02*
X324871000Y-261966000I0J-100000D01*
G01*
X324871000Y-263341000D01*
G75*
G02*
X324771000Y-263441000I-100000J0D01*
G01*
G37*
G36*
G01*
X325271000Y-263441000D02*
X325071000Y-263441000D01*
G75*
G02*
X324971000Y-263341000I0J100000D01*
G01*
X324971000Y-261966000D01*
G75*
G02*
X325071000Y-261866000I100000J0D01*
G01*
X325271000Y-261866000D01*
G75*
G02*
X325371000Y-261966000I0J-100000D01*
G01*
X325371000Y-263341000D01*
G75*
G02*
X325271000Y-263441000I-100000J0D01*
G01*
G37*
G36*
G01*
X325771000Y-263441000D02*
X325571000Y-263441000D01*
G75*
G02*
X325471000Y-263341000I0J100000D01*
G01*
X325471000Y-261966000D01*
G75*
G02*
X325571000Y-261866000I100000J0D01*
G01*
X325771000Y-261866000D01*
G75*
G02*
X325871000Y-261966000I0J-100000D01*
G01*
X325871000Y-263341000D01*
G75*
G02*
X325771000Y-263441000I-100000J0D01*
G01*
G37*
G36*
G01*
X326271000Y-263441000D02*
X326071000Y-263441000D01*
G75*
G02*
X325971000Y-263341000I0J100000D01*
G01*
X325971000Y-261966000D01*
G75*
G02*
X326071000Y-261866000I100000J0D01*
G01*
X326271000Y-261866000D01*
G75*
G02*
X326371000Y-261966000I0J-100000D01*
G01*
X326371000Y-263341000D01*
G75*
G02*
X326271000Y-263441000I-100000J0D01*
G01*
G37*
G36*
G01*
X326771000Y-263441000D02*
X326571000Y-263441000D01*
G75*
G02*
X326471000Y-263341000I0J100000D01*
G01*
X326471000Y-261966000D01*
G75*
G02*
X326571000Y-261866000I100000J0D01*
G01*
X326771000Y-261866000D01*
G75*
G02*
X326871000Y-261966000I0J-100000D01*
G01*
X326871000Y-263341000D01*
G75*
G02*
X326771000Y-263441000I-100000J0D01*
G01*
G37*
G36*
G01*
X327271000Y-263441000D02*
X327071000Y-263441000D01*
G75*
G02*
X326971000Y-263341000I0J100000D01*
G01*
X326971000Y-261966000D01*
G75*
G02*
X327071000Y-261866000I100000J0D01*
G01*
X327271000Y-261866000D01*
G75*
G02*
X327371000Y-261966000I0J-100000D01*
G01*
X327371000Y-263341000D01*
G75*
G02*
X327271000Y-263441000I-100000J0D01*
G01*
G37*
G36*
G01*
X327771000Y-263441000D02*
X327571000Y-263441000D01*
G75*
G02*
X327471000Y-263341000I0J100000D01*
G01*
X327471000Y-261966000D01*
G75*
G02*
X327571000Y-261866000I100000J0D01*
G01*
X327771000Y-261866000D01*
G75*
G02*
X327871000Y-261966000I0J-100000D01*
G01*
X327871000Y-263341000D01*
G75*
G02*
X327771000Y-263441000I-100000J0D01*
G01*
G37*
G36*
G01*
X328271000Y-263441000D02*
X328071000Y-263441000D01*
G75*
G02*
X327971000Y-263341000I0J100000D01*
G01*
X327971000Y-261966000D01*
G75*
G02*
X328071000Y-261866000I100000J0D01*
G01*
X328271000Y-261866000D01*
G75*
G02*
X328371000Y-261966000I0J-100000D01*
G01*
X328371000Y-263341000D01*
G75*
G02*
X328271000Y-263441000I-100000J0D01*
G01*
G37*
%TD*%
%TO.C,U11*%
G36*
G01*
X438380000Y-174890000D02*
X438030000Y-174890000D01*
G75*
G02*
X437855000Y-174715000I0J175000D01*
G01*
X437855000Y-173365000D01*
G75*
G02*
X438030000Y-173190000I175000J0D01*
G01*
X438380000Y-173190000D01*
G75*
G02*
X438555000Y-173365000I0J-175000D01*
G01*
X438555000Y-174715000D01*
G75*
G02*
X438380000Y-174890000I-175000J0D01*
G01*
G37*
G36*
G01*
X437110000Y-174890000D02*
X436760000Y-174890000D01*
G75*
G02*
X436585000Y-174715000I0J175000D01*
G01*
X436585000Y-173365000D01*
G75*
G02*
X436760000Y-173190000I175000J0D01*
G01*
X437110000Y-173190000D01*
G75*
G02*
X437285000Y-173365000I0J-175000D01*
G01*
X437285000Y-174715000D01*
G75*
G02*
X437110000Y-174890000I-175000J0D01*
G01*
G37*
G36*
G01*
X435840000Y-174890000D02*
X435490000Y-174890000D01*
G75*
G02*
X435315000Y-174715000I0J175000D01*
G01*
X435315000Y-173365000D01*
G75*
G02*
X435490000Y-173190000I175000J0D01*
G01*
X435840000Y-173190000D01*
G75*
G02*
X436015000Y-173365000I0J-175000D01*
G01*
X436015000Y-174715000D01*
G75*
G02*
X435840000Y-174890000I-175000J0D01*
G01*
G37*
G36*
G01*
X434570000Y-174890000D02*
X434220000Y-174890000D01*
G75*
G02*
X434045000Y-174715000I0J175000D01*
G01*
X434045000Y-173365000D01*
G75*
G02*
X434220000Y-173190000I175000J0D01*
G01*
X434570000Y-173190000D01*
G75*
G02*
X434745000Y-173365000I0J-175000D01*
G01*
X434745000Y-174715000D01*
G75*
G02*
X434570000Y-174890000I-175000J0D01*
G01*
G37*
G36*
G01*
X433300000Y-174890000D02*
X432950000Y-174890000D01*
G75*
G02*
X432775000Y-174715000I0J175000D01*
G01*
X432775000Y-173365000D01*
G75*
G02*
X432950000Y-173190000I175000J0D01*
G01*
X433300000Y-173190000D01*
G75*
G02*
X433475000Y-173365000I0J-175000D01*
G01*
X433475000Y-174715000D01*
G75*
G02*
X433300000Y-174890000I-175000J0D01*
G01*
G37*
G36*
G01*
X432030000Y-174890000D02*
X431680000Y-174890000D01*
G75*
G02*
X431505000Y-174715000I0J175000D01*
G01*
X431505000Y-173365000D01*
G75*
G02*
X431680000Y-173190000I175000J0D01*
G01*
X432030000Y-173190000D01*
G75*
G02*
X432205000Y-173365000I0J-175000D01*
G01*
X432205000Y-174715000D01*
G75*
G02*
X432030000Y-174890000I-175000J0D01*
G01*
G37*
G36*
G01*
X430760000Y-174890000D02*
X430410000Y-174890000D01*
G75*
G02*
X430235000Y-174715000I0J175000D01*
G01*
X430235000Y-173365000D01*
G75*
G02*
X430410000Y-173190000I175000J0D01*
G01*
X430760000Y-173190000D01*
G75*
G02*
X430935000Y-173365000I0J-175000D01*
G01*
X430935000Y-174715000D01*
G75*
G02*
X430760000Y-174890000I-175000J0D01*
G01*
G37*
G36*
G01*
X429490000Y-174890000D02*
X429140000Y-174890000D01*
G75*
G02*
X428965000Y-174715000I0J175000D01*
G01*
X428965000Y-173365000D01*
G75*
G02*
X429140000Y-173190000I175000J0D01*
G01*
X429490000Y-173190000D01*
G75*
G02*
X429665000Y-173365000I0J-175000D01*
G01*
X429665000Y-174715000D01*
G75*
G02*
X429490000Y-174890000I-175000J0D01*
G01*
G37*
G36*
G01*
X429490000Y-181390000D02*
X429140000Y-181390000D01*
G75*
G02*
X428965000Y-181215000I0J175000D01*
G01*
X428965000Y-179865000D01*
G75*
G02*
X429140000Y-179690000I175000J0D01*
G01*
X429490000Y-179690000D01*
G75*
G02*
X429665000Y-179865000I0J-175000D01*
G01*
X429665000Y-181215000D01*
G75*
G02*
X429490000Y-181390000I-175000J0D01*
G01*
G37*
G36*
G01*
X430760000Y-181390000D02*
X430410000Y-181390000D01*
G75*
G02*
X430235000Y-181215000I0J175000D01*
G01*
X430235000Y-179865000D01*
G75*
G02*
X430410000Y-179690000I175000J0D01*
G01*
X430760000Y-179690000D01*
G75*
G02*
X430935000Y-179865000I0J-175000D01*
G01*
X430935000Y-181215000D01*
G75*
G02*
X430760000Y-181390000I-175000J0D01*
G01*
G37*
G36*
G01*
X432030000Y-181390000D02*
X431680000Y-181390000D01*
G75*
G02*
X431505000Y-181215000I0J175000D01*
G01*
X431505000Y-179865000D01*
G75*
G02*
X431680000Y-179690000I175000J0D01*
G01*
X432030000Y-179690000D01*
G75*
G02*
X432205000Y-179865000I0J-175000D01*
G01*
X432205000Y-181215000D01*
G75*
G02*
X432030000Y-181390000I-175000J0D01*
G01*
G37*
G36*
G01*
X433300000Y-181390000D02*
X432950000Y-181390000D01*
G75*
G02*
X432775000Y-181215000I0J175000D01*
G01*
X432775000Y-179865000D01*
G75*
G02*
X432950000Y-179690000I175000J0D01*
G01*
X433300000Y-179690000D01*
G75*
G02*
X433475000Y-179865000I0J-175000D01*
G01*
X433475000Y-181215000D01*
G75*
G02*
X433300000Y-181390000I-175000J0D01*
G01*
G37*
G36*
G01*
X434570000Y-181390000D02*
X434220000Y-181390000D01*
G75*
G02*
X434045000Y-181215000I0J175000D01*
G01*
X434045000Y-179865000D01*
G75*
G02*
X434220000Y-179690000I175000J0D01*
G01*
X434570000Y-179690000D01*
G75*
G02*
X434745000Y-179865000I0J-175000D01*
G01*
X434745000Y-181215000D01*
G75*
G02*
X434570000Y-181390000I-175000J0D01*
G01*
G37*
G36*
G01*
X435840000Y-181390000D02*
X435490000Y-181390000D01*
G75*
G02*
X435315000Y-181215000I0J175000D01*
G01*
X435315000Y-179865000D01*
G75*
G02*
X435490000Y-179690000I175000J0D01*
G01*
X435840000Y-179690000D01*
G75*
G02*
X436015000Y-179865000I0J-175000D01*
G01*
X436015000Y-181215000D01*
G75*
G02*
X435840000Y-181390000I-175000J0D01*
G01*
G37*
G36*
G01*
X437110000Y-181390000D02*
X436760000Y-181390000D01*
G75*
G02*
X436585000Y-181215000I0J175000D01*
G01*
X436585000Y-179865000D01*
G75*
G02*
X436760000Y-179690000I175000J0D01*
G01*
X437110000Y-179690000D01*
G75*
G02*
X437285000Y-179865000I0J-175000D01*
G01*
X437285000Y-181215000D01*
G75*
G02*
X437110000Y-181390000I-175000J0D01*
G01*
G37*
G36*
G01*
X438380000Y-181390000D02*
X438030000Y-181390000D01*
G75*
G02*
X437855000Y-181215000I0J175000D01*
G01*
X437855000Y-179865000D01*
G75*
G02*
X438030000Y-179690000I175000J0D01*
G01*
X438380000Y-179690000D01*
G75*
G02*
X438555000Y-179865000I0J-175000D01*
G01*
X438555000Y-181215000D01*
G75*
G02*
X438380000Y-181390000I-175000J0D01*
G01*
G37*
%TD*%
%TO.C,U10*%
G36*
G01*
X433300000Y-223740000D02*
X433650000Y-223740000D01*
G75*
G02*
X433825000Y-223915000I0J-175000D01*
G01*
X433825000Y-225265000D01*
G75*
G02*
X433650000Y-225440000I-175000J0D01*
G01*
X433300000Y-225440000D01*
G75*
G02*
X433125000Y-225265000I0J175000D01*
G01*
X433125000Y-223915000D01*
G75*
G02*
X433300000Y-223740000I175000J0D01*
G01*
G37*
G36*
G01*
X434570000Y-223740000D02*
X434920000Y-223740000D01*
G75*
G02*
X435095000Y-223915000I0J-175000D01*
G01*
X435095000Y-225265000D01*
G75*
G02*
X434920000Y-225440000I-175000J0D01*
G01*
X434570000Y-225440000D01*
G75*
G02*
X434395000Y-225265000I0J175000D01*
G01*
X434395000Y-223915000D01*
G75*
G02*
X434570000Y-223740000I175000J0D01*
G01*
G37*
G36*
G01*
X435840000Y-223740000D02*
X436190000Y-223740000D01*
G75*
G02*
X436365000Y-223915000I0J-175000D01*
G01*
X436365000Y-225265000D01*
G75*
G02*
X436190000Y-225440000I-175000J0D01*
G01*
X435840000Y-225440000D01*
G75*
G02*
X435665000Y-225265000I0J175000D01*
G01*
X435665000Y-223915000D01*
G75*
G02*
X435840000Y-223740000I175000J0D01*
G01*
G37*
G36*
G01*
X437110000Y-223740000D02*
X437460000Y-223740000D01*
G75*
G02*
X437635000Y-223915000I0J-175000D01*
G01*
X437635000Y-225265000D01*
G75*
G02*
X437460000Y-225440000I-175000J0D01*
G01*
X437110000Y-225440000D01*
G75*
G02*
X436935000Y-225265000I0J175000D01*
G01*
X436935000Y-223915000D01*
G75*
G02*
X437110000Y-223740000I175000J0D01*
G01*
G37*
G36*
G01*
X438380000Y-223740000D02*
X438730000Y-223740000D01*
G75*
G02*
X438905000Y-223915000I0J-175000D01*
G01*
X438905000Y-225265000D01*
G75*
G02*
X438730000Y-225440000I-175000J0D01*
G01*
X438380000Y-225440000D01*
G75*
G02*
X438205000Y-225265000I0J175000D01*
G01*
X438205000Y-223915000D01*
G75*
G02*
X438380000Y-223740000I175000J0D01*
G01*
G37*
G36*
G01*
X439650000Y-223740000D02*
X440000000Y-223740000D01*
G75*
G02*
X440175000Y-223915000I0J-175000D01*
G01*
X440175000Y-225265000D01*
G75*
G02*
X440000000Y-225440000I-175000J0D01*
G01*
X439650000Y-225440000D01*
G75*
G02*
X439475000Y-225265000I0J175000D01*
G01*
X439475000Y-223915000D01*
G75*
G02*
X439650000Y-223740000I175000J0D01*
G01*
G37*
G36*
G01*
X440920000Y-223740000D02*
X441270000Y-223740000D01*
G75*
G02*
X441445000Y-223915000I0J-175000D01*
G01*
X441445000Y-225265000D01*
G75*
G02*
X441270000Y-225440000I-175000J0D01*
G01*
X440920000Y-225440000D01*
G75*
G02*
X440745000Y-225265000I0J175000D01*
G01*
X440745000Y-223915000D01*
G75*
G02*
X440920000Y-223740000I175000J0D01*
G01*
G37*
G36*
G01*
X442190000Y-223740000D02*
X442540000Y-223740000D01*
G75*
G02*
X442715000Y-223915000I0J-175000D01*
G01*
X442715000Y-225265000D01*
G75*
G02*
X442540000Y-225440000I-175000J0D01*
G01*
X442190000Y-225440000D01*
G75*
G02*
X442015000Y-225265000I0J175000D01*
G01*
X442015000Y-223915000D01*
G75*
G02*
X442190000Y-223740000I175000J0D01*
G01*
G37*
G36*
G01*
X442190000Y-217240000D02*
X442540000Y-217240000D01*
G75*
G02*
X442715000Y-217415000I0J-175000D01*
G01*
X442715000Y-218765000D01*
G75*
G02*
X442540000Y-218940000I-175000J0D01*
G01*
X442190000Y-218940000D01*
G75*
G02*
X442015000Y-218765000I0J175000D01*
G01*
X442015000Y-217415000D01*
G75*
G02*
X442190000Y-217240000I175000J0D01*
G01*
G37*
G36*
G01*
X440920000Y-217240000D02*
X441270000Y-217240000D01*
G75*
G02*
X441445000Y-217415000I0J-175000D01*
G01*
X441445000Y-218765000D01*
G75*
G02*
X441270000Y-218940000I-175000J0D01*
G01*
X440920000Y-218940000D01*
G75*
G02*
X440745000Y-218765000I0J175000D01*
G01*
X440745000Y-217415000D01*
G75*
G02*
X440920000Y-217240000I175000J0D01*
G01*
G37*
G36*
G01*
X439650000Y-217240000D02*
X440000000Y-217240000D01*
G75*
G02*
X440175000Y-217415000I0J-175000D01*
G01*
X440175000Y-218765000D01*
G75*
G02*
X440000000Y-218940000I-175000J0D01*
G01*
X439650000Y-218940000D01*
G75*
G02*
X439475000Y-218765000I0J175000D01*
G01*
X439475000Y-217415000D01*
G75*
G02*
X439650000Y-217240000I175000J0D01*
G01*
G37*
G36*
G01*
X438380000Y-217240000D02*
X438730000Y-217240000D01*
G75*
G02*
X438905000Y-217415000I0J-175000D01*
G01*
X438905000Y-218765000D01*
G75*
G02*
X438730000Y-218940000I-175000J0D01*
G01*
X438380000Y-218940000D01*
G75*
G02*
X438205000Y-218765000I0J175000D01*
G01*
X438205000Y-217415000D01*
G75*
G02*
X438380000Y-217240000I175000J0D01*
G01*
G37*
G36*
G01*
X437110000Y-217240000D02*
X437460000Y-217240000D01*
G75*
G02*
X437635000Y-217415000I0J-175000D01*
G01*
X437635000Y-218765000D01*
G75*
G02*
X437460000Y-218940000I-175000J0D01*
G01*
X437110000Y-218940000D01*
G75*
G02*
X436935000Y-218765000I0J175000D01*
G01*
X436935000Y-217415000D01*
G75*
G02*
X437110000Y-217240000I175000J0D01*
G01*
G37*
G36*
G01*
X435840000Y-217240000D02*
X436190000Y-217240000D01*
G75*
G02*
X436365000Y-217415000I0J-175000D01*
G01*
X436365000Y-218765000D01*
G75*
G02*
X436190000Y-218940000I-175000J0D01*
G01*
X435840000Y-218940000D01*
G75*
G02*
X435665000Y-218765000I0J175000D01*
G01*
X435665000Y-217415000D01*
G75*
G02*
X435840000Y-217240000I175000J0D01*
G01*
G37*
G36*
G01*
X434570000Y-217240000D02*
X434920000Y-217240000D01*
G75*
G02*
X435095000Y-217415000I0J-175000D01*
G01*
X435095000Y-218765000D01*
G75*
G02*
X434920000Y-218940000I-175000J0D01*
G01*
X434570000Y-218940000D01*
G75*
G02*
X434395000Y-218765000I0J175000D01*
G01*
X434395000Y-217415000D01*
G75*
G02*
X434570000Y-217240000I175000J0D01*
G01*
G37*
G36*
G01*
X433300000Y-217240000D02*
X433650000Y-217240000D01*
G75*
G02*
X433825000Y-217415000I0J-175000D01*
G01*
X433825000Y-218765000D01*
G75*
G02*
X433650000Y-218940000I-175000J0D01*
G01*
X433300000Y-218940000D01*
G75*
G02*
X433125000Y-218765000I0J175000D01*
G01*
X433125000Y-217415000D01*
G75*
G02*
X433300000Y-217240000I175000J0D01*
G01*
G37*
%TD*%
%TO.C,U9*%
G36*
G01*
X402790000Y-227260000D02*
X402790000Y-226910000D01*
G75*
G02*
X402965000Y-226735000I175000J0D01*
G01*
X404315000Y-226735000D01*
G75*
G02*
X404490000Y-226910000I0J-175000D01*
G01*
X404490000Y-227260000D01*
G75*
G02*
X404315000Y-227435000I-175000J0D01*
G01*
X402965000Y-227435000D01*
G75*
G02*
X402790000Y-227260000I0J175000D01*
G01*
G37*
G36*
G01*
X402790000Y-225990000D02*
X402790000Y-225640000D01*
G75*
G02*
X402965000Y-225465000I175000J0D01*
G01*
X404315000Y-225465000D01*
G75*
G02*
X404490000Y-225640000I0J-175000D01*
G01*
X404490000Y-225990000D01*
G75*
G02*
X404315000Y-226165000I-175000J0D01*
G01*
X402965000Y-226165000D01*
G75*
G02*
X402790000Y-225990000I0J175000D01*
G01*
G37*
G36*
G01*
X402790000Y-224720000D02*
X402790000Y-224370000D01*
G75*
G02*
X402965000Y-224195000I175000J0D01*
G01*
X404315000Y-224195000D01*
G75*
G02*
X404490000Y-224370000I0J-175000D01*
G01*
X404490000Y-224720000D01*
G75*
G02*
X404315000Y-224895000I-175000J0D01*
G01*
X402965000Y-224895000D01*
G75*
G02*
X402790000Y-224720000I0J175000D01*
G01*
G37*
G36*
G01*
X402790000Y-223450000D02*
X402790000Y-223100000D01*
G75*
G02*
X402965000Y-222925000I175000J0D01*
G01*
X404315000Y-222925000D01*
G75*
G02*
X404490000Y-223100000I0J-175000D01*
G01*
X404490000Y-223450000D01*
G75*
G02*
X404315000Y-223625000I-175000J0D01*
G01*
X402965000Y-223625000D01*
G75*
G02*
X402790000Y-223450000I0J175000D01*
G01*
G37*
G36*
G01*
X402790000Y-222180000D02*
X402790000Y-221830000D01*
G75*
G02*
X402965000Y-221655000I175000J0D01*
G01*
X404315000Y-221655000D01*
G75*
G02*
X404490000Y-221830000I0J-175000D01*
G01*
X404490000Y-222180000D01*
G75*
G02*
X404315000Y-222355000I-175000J0D01*
G01*
X402965000Y-222355000D01*
G75*
G02*
X402790000Y-222180000I0J175000D01*
G01*
G37*
G36*
G01*
X402790000Y-220910000D02*
X402790000Y-220560000D01*
G75*
G02*
X402965000Y-220385000I175000J0D01*
G01*
X404315000Y-220385000D01*
G75*
G02*
X404490000Y-220560000I0J-175000D01*
G01*
X404490000Y-220910000D01*
G75*
G02*
X404315000Y-221085000I-175000J0D01*
G01*
X402965000Y-221085000D01*
G75*
G02*
X402790000Y-220910000I0J175000D01*
G01*
G37*
G36*
G01*
X402790000Y-219640000D02*
X402790000Y-219290000D01*
G75*
G02*
X402965000Y-219115000I175000J0D01*
G01*
X404315000Y-219115000D01*
G75*
G02*
X404490000Y-219290000I0J-175000D01*
G01*
X404490000Y-219640000D01*
G75*
G02*
X404315000Y-219815000I-175000J0D01*
G01*
X402965000Y-219815000D01*
G75*
G02*
X402790000Y-219640000I0J175000D01*
G01*
G37*
G36*
G01*
X402790000Y-218370000D02*
X402790000Y-218020000D01*
G75*
G02*
X402965000Y-217845000I175000J0D01*
G01*
X404315000Y-217845000D01*
G75*
G02*
X404490000Y-218020000I0J-175000D01*
G01*
X404490000Y-218370000D01*
G75*
G02*
X404315000Y-218545000I-175000J0D01*
G01*
X402965000Y-218545000D01*
G75*
G02*
X402790000Y-218370000I0J175000D01*
G01*
G37*
G36*
G01*
X396290000Y-218370000D02*
X396290000Y-218020000D01*
G75*
G02*
X396465000Y-217845000I175000J0D01*
G01*
X397815000Y-217845000D01*
G75*
G02*
X397990000Y-218020000I0J-175000D01*
G01*
X397990000Y-218370000D01*
G75*
G02*
X397815000Y-218545000I-175000J0D01*
G01*
X396465000Y-218545000D01*
G75*
G02*
X396290000Y-218370000I0J175000D01*
G01*
G37*
G36*
G01*
X396290000Y-219640000D02*
X396290000Y-219290000D01*
G75*
G02*
X396465000Y-219115000I175000J0D01*
G01*
X397815000Y-219115000D01*
G75*
G02*
X397990000Y-219290000I0J-175000D01*
G01*
X397990000Y-219640000D01*
G75*
G02*
X397815000Y-219815000I-175000J0D01*
G01*
X396465000Y-219815000D01*
G75*
G02*
X396290000Y-219640000I0J175000D01*
G01*
G37*
G36*
G01*
X396290000Y-220910000D02*
X396290000Y-220560000D01*
G75*
G02*
X396465000Y-220385000I175000J0D01*
G01*
X397815000Y-220385000D01*
G75*
G02*
X397990000Y-220560000I0J-175000D01*
G01*
X397990000Y-220910000D01*
G75*
G02*
X397815000Y-221085000I-175000J0D01*
G01*
X396465000Y-221085000D01*
G75*
G02*
X396290000Y-220910000I0J175000D01*
G01*
G37*
G36*
G01*
X396290000Y-222180000D02*
X396290000Y-221830000D01*
G75*
G02*
X396465000Y-221655000I175000J0D01*
G01*
X397815000Y-221655000D01*
G75*
G02*
X397990000Y-221830000I0J-175000D01*
G01*
X397990000Y-222180000D01*
G75*
G02*
X397815000Y-222355000I-175000J0D01*
G01*
X396465000Y-222355000D01*
G75*
G02*
X396290000Y-222180000I0J175000D01*
G01*
G37*
G36*
G01*
X396290000Y-223450000D02*
X396290000Y-223100000D01*
G75*
G02*
X396465000Y-222925000I175000J0D01*
G01*
X397815000Y-222925000D01*
G75*
G02*
X397990000Y-223100000I0J-175000D01*
G01*
X397990000Y-223450000D01*
G75*
G02*
X397815000Y-223625000I-175000J0D01*
G01*
X396465000Y-223625000D01*
G75*
G02*
X396290000Y-223450000I0J175000D01*
G01*
G37*
G36*
G01*
X396290000Y-224720000D02*
X396290000Y-224370000D01*
G75*
G02*
X396465000Y-224195000I175000J0D01*
G01*
X397815000Y-224195000D01*
G75*
G02*
X397990000Y-224370000I0J-175000D01*
G01*
X397990000Y-224720000D01*
G75*
G02*
X397815000Y-224895000I-175000J0D01*
G01*
X396465000Y-224895000D01*
G75*
G02*
X396290000Y-224720000I0J175000D01*
G01*
G37*
G36*
G01*
X396290000Y-225990000D02*
X396290000Y-225640000D01*
G75*
G02*
X396465000Y-225465000I175000J0D01*
G01*
X397815000Y-225465000D01*
G75*
G02*
X397990000Y-225640000I0J-175000D01*
G01*
X397990000Y-225990000D01*
G75*
G02*
X397815000Y-226165000I-175000J0D01*
G01*
X396465000Y-226165000D01*
G75*
G02*
X396290000Y-225990000I0J175000D01*
G01*
G37*
G36*
G01*
X396290000Y-227260000D02*
X396290000Y-226910000D01*
G75*
G02*
X396465000Y-226735000I175000J0D01*
G01*
X397815000Y-226735000D01*
G75*
G02*
X397990000Y-226910000I0J-175000D01*
G01*
X397990000Y-227260000D01*
G75*
G02*
X397815000Y-227435000I-175000J0D01*
G01*
X396465000Y-227435000D01*
G75*
G02*
X396290000Y-227260000I0J175000D01*
G01*
G37*
%TD*%
%TO.C,U8*%
G36*
G01*
X434790000Y-201270000D02*
X435140000Y-201270000D01*
G75*
G02*
X435315000Y-201445000I0J-175000D01*
G01*
X435315000Y-202795000D01*
G75*
G02*
X435140000Y-202970000I-175000J0D01*
G01*
X434790000Y-202970000D01*
G75*
G02*
X434615000Y-202795000I0J175000D01*
G01*
X434615000Y-201445000D01*
G75*
G02*
X434790000Y-201270000I175000J0D01*
G01*
G37*
G36*
G01*
X436060000Y-201270000D02*
X436410000Y-201270000D01*
G75*
G02*
X436585000Y-201445000I0J-175000D01*
G01*
X436585000Y-202795000D01*
G75*
G02*
X436410000Y-202970000I-175000J0D01*
G01*
X436060000Y-202970000D01*
G75*
G02*
X435885000Y-202795000I0J175000D01*
G01*
X435885000Y-201445000D01*
G75*
G02*
X436060000Y-201270000I175000J0D01*
G01*
G37*
G36*
G01*
X437330000Y-201270000D02*
X437680000Y-201270000D01*
G75*
G02*
X437855000Y-201445000I0J-175000D01*
G01*
X437855000Y-202795000D01*
G75*
G02*
X437680000Y-202970000I-175000J0D01*
G01*
X437330000Y-202970000D01*
G75*
G02*
X437155000Y-202795000I0J175000D01*
G01*
X437155000Y-201445000D01*
G75*
G02*
X437330000Y-201270000I175000J0D01*
G01*
G37*
G36*
G01*
X438600000Y-201270000D02*
X438950000Y-201270000D01*
G75*
G02*
X439125000Y-201445000I0J-175000D01*
G01*
X439125000Y-202795000D01*
G75*
G02*
X438950000Y-202970000I-175000J0D01*
G01*
X438600000Y-202970000D01*
G75*
G02*
X438425000Y-202795000I0J175000D01*
G01*
X438425000Y-201445000D01*
G75*
G02*
X438600000Y-201270000I175000J0D01*
G01*
G37*
G36*
G01*
X439870000Y-201270000D02*
X440220000Y-201270000D01*
G75*
G02*
X440395000Y-201445000I0J-175000D01*
G01*
X440395000Y-202795000D01*
G75*
G02*
X440220000Y-202970000I-175000J0D01*
G01*
X439870000Y-202970000D01*
G75*
G02*
X439695000Y-202795000I0J175000D01*
G01*
X439695000Y-201445000D01*
G75*
G02*
X439870000Y-201270000I175000J0D01*
G01*
G37*
G36*
G01*
X441140000Y-201270000D02*
X441490000Y-201270000D01*
G75*
G02*
X441665000Y-201445000I0J-175000D01*
G01*
X441665000Y-202795000D01*
G75*
G02*
X441490000Y-202970000I-175000J0D01*
G01*
X441140000Y-202970000D01*
G75*
G02*
X440965000Y-202795000I0J175000D01*
G01*
X440965000Y-201445000D01*
G75*
G02*
X441140000Y-201270000I175000J0D01*
G01*
G37*
G36*
G01*
X442410000Y-201270000D02*
X442760000Y-201270000D01*
G75*
G02*
X442935000Y-201445000I0J-175000D01*
G01*
X442935000Y-202795000D01*
G75*
G02*
X442760000Y-202970000I-175000J0D01*
G01*
X442410000Y-202970000D01*
G75*
G02*
X442235000Y-202795000I0J175000D01*
G01*
X442235000Y-201445000D01*
G75*
G02*
X442410000Y-201270000I175000J0D01*
G01*
G37*
G36*
G01*
X443680000Y-201270000D02*
X444030000Y-201270000D01*
G75*
G02*
X444205000Y-201445000I0J-175000D01*
G01*
X444205000Y-202795000D01*
G75*
G02*
X444030000Y-202970000I-175000J0D01*
G01*
X443680000Y-202970000D01*
G75*
G02*
X443505000Y-202795000I0J175000D01*
G01*
X443505000Y-201445000D01*
G75*
G02*
X443680000Y-201270000I175000J0D01*
G01*
G37*
G36*
G01*
X443680000Y-194770000D02*
X444030000Y-194770000D01*
G75*
G02*
X444205000Y-194945000I0J-175000D01*
G01*
X444205000Y-196295000D01*
G75*
G02*
X444030000Y-196470000I-175000J0D01*
G01*
X443680000Y-196470000D01*
G75*
G02*
X443505000Y-196295000I0J175000D01*
G01*
X443505000Y-194945000D01*
G75*
G02*
X443680000Y-194770000I175000J0D01*
G01*
G37*
G36*
G01*
X442410000Y-194770000D02*
X442760000Y-194770000D01*
G75*
G02*
X442935000Y-194945000I0J-175000D01*
G01*
X442935000Y-196295000D01*
G75*
G02*
X442760000Y-196470000I-175000J0D01*
G01*
X442410000Y-196470000D01*
G75*
G02*
X442235000Y-196295000I0J175000D01*
G01*
X442235000Y-194945000D01*
G75*
G02*
X442410000Y-194770000I175000J0D01*
G01*
G37*
G36*
G01*
X441140000Y-194770000D02*
X441490000Y-194770000D01*
G75*
G02*
X441665000Y-194945000I0J-175000D01*
G01*
X441665000Y-196295000D01*
G75*
G02*
X441490000Y-196470000I-175000J0D01*
G01*
X441140000Y-196470000D01*
G75*
G02*
X440965000Y-196295000I0J175000D01*
G01*
X440965000Y-194945000D01*
G75*
G02*
X441140000Y-194770000I175000J0D01*
G01*
G37*
G36*
G01*
X439870000Y-194770000D02*
X440220000Y-194770000D01*
G75*
G02*
X440395000Y-194945000I0J-175000D01*
G01*
X440395000Y-196295000D01*
G75*
G02*
X440220000Y-196470000I-175000J0D01*
G01*
X439870000Y-196470000D01*
G75*
G02*
X439695000Y-196295000I0J175000D01*
G01*
X439695000Y-194945000D01*
G75*
G02*
X439870000Y-194770000I175000J0D01*
G01*
G37*
G36*
G01*
X438600000Y-194770000D02*
X438950000Y-194770000D01*
G75*
G02*
X439125000Y-194945000I0J-175000D01*
G01*
X439125000Y-196295000D01*
G75*
G02*
X438950000Y-196470000I-175000J0D01*
G01*
X438600000Y-196470000D01*
G75*
G02*
X438425000Y-196295000I0J175000D01*
G01*
X438425000Y-194945000D01*
G75*
G02*
X438600000Y-194770000I175000J0D01*
G01*
G37*
G36*
G01*
X437330000Y-194770000D02*
X437680000Y-194770000D01*
G75*
G02*
X437855000Y-194945000I0J-175000D01*
G01*
X437855000Y-196295000D01*
G75*
G02*
X437680000Y-196470000I-175000J0D01*
G01*
X437330000Y-196470000D01*
G75*
G02*
X437155000Y-196295000I0J175000D01*
G01*
X437155000Y-194945000D01*
G75*
G02*
X437330000Y-194770000I175000J0D01*
G01*
G37*
G36*
G01*
X436060000Y-194770000D02*
X436410000Y-194770000D01*
G75*
G02*
X436585000Y-194945000I0J-175000D01*
G01*
X436585000Y-196295000D01*
G75*
G02*
X436410000Y-196470000I-175000J0D01*
G01*
X436060000Y-196470000D01*
G75*
G02*
X435885000Y-196295000I0J175000D01*
G01*
X435885000Y-194945000D01*
G75*
G02*
X436060000Y-194770000I175000J0D01*
G01*
G37*
G36*
G01*
X434790000Y-194770000D02*
X435140000Y-194770000D01*
G75*
G02*
X435315000Y-194945000I0J-175000D01*
G01*
X435315000Y-196295000D01*
G75*
G02*
X435140000Y-196470000I-175000J0D01*
G01*
X434790000Y-196470000D01*
G75*
G02*
X434615000Y-196295000I0J175000D01*
G01*
X434615000Y-194945000D01*
G75*
G02*
X434790000Y-194770000I175000J0D01*
G01*
G37*
%TD*%
%TO.C,U7*%
G36*
G01*
X400930000Y-180050000D02*
X401280000Y-180050000D01*
G75*
G02*
X401455000Y-180225000I0J-175000D01*
G01*
X401455000Y-181575000D01*
G75*
G02*
X401280000Y-181750000I-175000J0D01*
G01*
X400930000Y-181750000D01*
G75*
G02*
X400755000Y-181575000I0J175000D01*
G01*
X400755000Y-180225000D01*
G75*
G02*
X400930000Y-180050000I175000J0D01*
G01*
G37*
G36*
G01*
X402200000Y-180050000D02*
X402550000Y-180050000D01*
G75*
G02*
X402725000Y-180225000I0J-175000D01*
G01*
X402725000Y-181575000D01*
G75*
G02*
X402550000Y-181750000I-175000J0D01*
G01*
X402200000Y-181750000D01*
G75*
G02*
X402025000Y-181575000I0J175000D01*
G01*
X402025000Y-180225000D01*
G75*
G02*
X402200000Y-180050000I175000J0D01*
G01*
G37*
G36*
G01*
X403470000Y-180050000D02*
X403820000Y-180050000D01*
G75*
G02*
X403995000Y-180225000I0J-175000D01*
G01*
X403995000Y-181575000D01*
G75*
G02*
X403820000Y-181750000I-175000J0D01*
G01*
X403470000Y-181750000D01*
G75*
G02*
X403295000Y-181575000I0J175000D01*
G01*
X403295000Y-180225000D01*
G75*
G02*
X403470000Y-180050000I175000J0D01*
G01*
G37*
G36*
G01*
X404740000Y-180050000D02*
X405090000Y-180050000D01*
G75*
G02*
X405265000Y-180225000I0J-175000D01*
G01*
X405265000Y-181575000D01*
G75*
G02*
X405090000Y-181750000I-175000J0D01*
G01*
X404740000Y-181750000D01*
G75*
G02*
X404565000Y-181575000I0J175000D01*
G01*
X404565000Y-180225000D01*
G75*
G02*
X404740000Y-180050000I175000J0D01*
G01*
G37*
G36*
G01*
X406010000Y-180050000D02*
X406360000Y-180050000D01*
G75*
G02*
X406535000Y-180225000I0J-175000D01*
G01*
X406535000Y-181575000D01*
G75*
G02*
X406360000Y-181750000I-175000J0D01*
G01*
X406010000Y-181750000D01*
G75*
G02*
X405835000Y-181575000I0J175000D01*
G01*
X405835000Y-180225000D01*
G75*
G02*
X406010000Y-180050000I175000J0D01*
G01*
G37*
G36*
G01*
X407280000Y-180050000D02*
X407630000Y-180050000D01*
G75*
G02*
X407805000Y-180225000I0J-175000D01*
G01*
X407805000Y-181575000D01*
G75*
G02*
X407630000Y-181750000I-175000J0D01*
G01*
X407280000Y-181750000D01*
G75*
G02*
X407105000Y-181575000I0J175000D01*
G01*
X407105000Y-180225000D01*
G75*
G02*
X407280000Y-180050000I175000J0D01*
G01*
G37*
G36*
G01*
X408550000Y-180050000D02*
X408900000Y-180050000D01*
G75*
G02*
X409075000Y-180225000I0J-175000D01*
G01*
X409075000Y-181575000D01*
G75*
G02*
X408900000Y-181750000I-175000J0D01*
G01*
X408550000Y-181750000D01*
G75*
G02*
X408375000Y-181575000I0J175000D01*
G01*
X408375000Y-180225000D01*
G75*
G02*
X408550000Y-180050000I175000J0D01*
G01*
G37*
G36*
G01*
X409820000Y-180050000D02*
X410170000Y-180050000D01*
G75*
G02*
X410345000Y-180225000I0J-175000D01*
G01*
X410345000Y-181575000D01*
G75*
G02*
X410170000Y-181750000I-175000J0D01*
G01*
X409820000Y-181750000D01*
G75*
G02*
X409645000Y-181575000I0J175000D01*
G01*
X409645000Y-180225000D01*
G75*
G02*
X409820000Y-180050000I175000J0D01*
G01*
G37*
G36*
G01*
X409820000Y-173550000D02*
X410170000Y-173550000D01*
G75*
G02*
X410345000Y-173725000I0J-175000D01*
G01*
X410345000Y-175075000D01*
G75*
G02*
X410170000Y-175250000I-175000J0D01*
G01*
X409820000Y-175250000D01*
G75*
G02*
X409645000Y-175075000I0J175000D01*
G01*
X409645000Y-173725000D01*
G75*
G02*
X409820000Y-173550000I175000J0D01*
G01*
G37*
G36*
G01*
X408550000Y-173550000D02*
X408900000Y-173550000D01*
G75*
G02*
X409075000Y-173725000I0J-175000D01*
G01*
X409075000Y-175075000D01*
G75*
G02*
X408900000Y-175250000I-175000J0D01*
G01*
X408550000Y-175250000D01*
G75*
G02*
X408375000Y-175075000I0J175000D01*
G01*
X408375000Y-173725000D01*
G75*
G02*
X408550000Y-173550000I175000J0D01*
G01*
G37*
G36*
G01*
X407280000Y-173550000D02*
X407630000Y-173550000D01*
G75*
G02*
X407805000Y-173725000I0J-175000D01*
G01*
X407805000Y-175075000D01*
G75*
G02*
X407630000Y-175250000I-175000J0D01*
G01*
X407280000Y-175250000D01*
G75*
G02*
X407105000Y-175075000I0J175000D01*
G01*
X407105000Y-173725000D01*
G75*
G02*
X407280000Y-173550000I175000J0D01*
G01*
G37*
G36*
G01*
X406010000Y-173550000D02*
X406360000Y-173550000D01*
G75*
G02*
X406535000Y-173725000I0J-175000D01*
G01*
X406535000Y-175075000D01*
G75*
G02*
X406360000Y-175250000I-175000J0D01*
G01*
X406010000Y-175250000D01*
G75*
G02*
X405835000Y-175075000I0J175000D01*
G01*
X405835000Y-173725000D01*
G75*
G02*
X406010000Y-173550000I175000J0D01*
G01*
G37*
G36*
G01*
X404740000Y-173550000D02*
X405090000Y-173550000D01*
G75*
G02*
X405265000Y-173725000I0J-175000D01*
G01*
X405265000Y-175075000D01*
G75*
G02*
X405090000Y-175250000I-175000J0D01*
G01*
X404740000Y-175250000D01*
G75*
G02*
X404565000Y-175075000I0J175000D01*
G01*
X404565000Y-173725000D01*
G75*
G02*
X404740000Y-173550000I175000J0D01*
G01*
G37*
G36*
G01*
X403470000Y-173550000D02*
X403820000Y-173550000D01*
G75*
G02*
X403995000Y-173725000I0J-175000D01*
G01*
X403995000Y-175075000D01*
G75*
G02*
X403820000Y-175250000I-175000J0D01*
G01*
X403470000Y-175250000D01*
G75*
G02*
X403295000Y-175075000I0J175000D01*
G01*
X403295000Y-173725000D01*
G75*
G02*
X403470000Y-173550000I175000J0D01*
G01*
G37*
G36*
G01*
X402200000Y-173550000D02*
X402550000Y-173550000D01*
G75*
G02*
X402725000Y-173725000I0J-175000D01*
G01*
X402725000Y-175075000D01*
G75*
G02*
X402550000Y-175250000I-175000J0D01*
G01*
X402200000Y-175250000D01*
G75*
G02*
X402025000Y-175075000I0J175000D01*
G01*
X402025000Y-173725000D01*
G75*
G02*
X402200000Y-173550000I175000J0D01*
G01*
G37*
G36*
G01*
X400930000Y-173550000D02*
X401280000Y-173550000D01*
G75*
G02*
X401455000Y-173725000I0J-175000D01*
G01*
X401455000Y-175075000D01*
G75*
G02*
X401280000Y-175250000I-175000J0D01*
G01*
X400930000Y-175250000D01*
G75*
G02*
X400755000Y-175075000I0J175000D01*
G01*
X400755000Y-173725000D01*
G75*
G02*
X400930000Y-173550000I175000J0D01*
G01*
G37*
%TD*%
%TO.C,U6*%
G36*
G01*
X376270000Y-174670000D02*
X376620000Y-174670000D01*
G75*
G02*
X376795000Y-174845000I0J-175000D01*
G01*
X376795000Y-176195000D01*
G75*
G02*
X376620000Y-176370000I-175000J0D01*
G01*
X376270000Y-176370000D01*
G75*
G02*
X376095000Y-176195000I0J175000D01*
G01*
X376095000Y-174845000D01*
G75*
G02*
X376270000Y-174670000I175000J0D01*
G01*
G37*
G36*
G01*
X377540000Y-174670000D02*
X377890000Y-174670000D01*
G75*
G02*
X378065000Y-174845000I0J-175000D01*
G01*
X378065000Y-176195000D01*
G75*
G02*
X377890000Y-176370000I-175000J0D01*
G01*
X377540000Y-176370000D01*
G75*
G02*
X377365000Y-176195000I0J175000D01*
G01*
X377365000Y-174845000D01*
G75*
G02*
X377540000Y-174670000I175000J0D01*
G01*
G37*
G36*
G01*
X378810000Y-174670000D02*
X379160000Y-174670000D01*
G75*
G02*
X379335000Y-174845000I0J-175000D01*
G01*
X379335000Y-176195000D01*
G75*
G02*
X379160000Y-176370000I-175000J0D01*
G01*
X378810000Y-176370000D01*
G75*
G02*
X378635000Y-176195000I0J175000D01*
G01*
X378635000Y-174845000D01*
G75*
G02*
X378810000Y-174670000I175000J0D01*
G01*
G37*
G36*
G01*
X380080000Y-174670000D02*
X380430000Y-174670000D01*
G75*
G02*
X380605000Y-174845000I0J-175000D01*
G01*
X380605000Y-176195000D01*
G75*
G02*
X380430000Y-176370000I-175000J0D01*
G01*
X380080000Y-176370000D01*
G75*
G02*
X379905000Y-176195000I0J175000D01*
G01*
X379905000Y-174845000D01*
G75*
G02*
X380080000Y-174670000I175000J0D01*
G01*
G37*
G36*
G01*
X381350000Y-174670000D02*
X381700000Y-174670000D01*
G75*
G02*
X381875000Y-174845000I0J-175000D01*
G01*
X381875000Y-176195000D01*
G75*
G02*
X381700000Y-176370000I-175000J0D01*
G01*
X381350000Y-176370000D01*
G75*
G02*
X381175000Y-176195000I0J175000D01*
G01*
X381175000Y-174845000D01*
G75*
G02*
X381350000Y-174670000I175000J0D01*
G01*
G37*
G36*
G01*
X382620000Y-174670000D02*
X382970000Y-174670000D01*
G75*
G02*
X383145000Y-174845000I0J-175000D01*
G01*
X383145000Y-176195000D01*
G75*
G02*
X382970000Y-176370000I-175000J0D01*
G01*
X382620000Y-176370000D01*
G75*
G02*
X382445000Y-176195000I0J175000D01*
G01*
X382445000Y-174845000D01*
G75*
G02*
X382620000Y-174670000I175000J0D01*
G01*
G37*
G36*
G01*
X383890000Y-174670000D02*
X384240000Y-174670000D01*
G75*
G02*
X384415000Y-174845000I0J-175000D01*
G01*
X384415000Y-176195000D01*
G75*
G02*
X384240000Y-176370000I-175000J0D01*
G01*
X383890000Y-176370000D01*
G75*
G02*
X383715000Y-176195000I0J175000D01*
G01*
X383715000Y-174845000D01*
G75*
G02*
X383890000Y-174670000I175000J0D01*
G01*
G37*
G36*
G01*
X385160000Y-174670000D02*
X385510000Y-174670000D01*
G75*
G02*
X385685000Y-174845000I0J-175000D01*
G01*
X385685000Y-176195000D01*
G75*
G02*
X385510000Y-176370000I-175000J0D01*
G01*
X385160000Y-176370000D01*
G75*
G02*
X384985000Y-176195000I0J175000D01*
G01*
X384985000Y-174845000D01*
G75*
G02*
X385160000Y-174670000I175000J0D01*
G01*
G37*
G36*
G01*
X385160000Y-168170000D02*
X385510000Y-168170000D01*
G75*
G02*
X385685000Y-168345000I0J-175000D01*
G01*
X385685000Y-169695000D01*
G75*
G02*
X385510000Y-169870000I-175000J0D01*
G01*
X385160000Y-169870000D01*
G75*
G02*
X384985000Y-169695000I0J175000D01*
G01*
X384985000Y-168345000D01*
G75*
G02*
X385160000Y-168170000I175000J0D01*
G01*
G37*
G36*
G01*
X383890000Y-168170000D02*
X384240000Y-168170000D01*
G75*
G02*
X384415000Y-168345000I0J-175000D01*
G01*
X384415000Y-169695000D01*
G75*
G02*
X384240000Y-169870000I-175000J0D01*
G01*
X383890000Y-169870000D01*
G75*
G02*
X383715000Y-169695000I0J175000D01*
G01*
X383715000Y-168345000D01*
G75*
G02*
X383890000Y-168170000I175000J0D01*
G01*
G37*
G36*
G01*
X382620000Y-168170000D02*
X382970000Y-168170000D01*
G75*
G02*
X383145000Y-168345000I0J-175000D01*
G01*
X383145000Y-169695000D01*
G75*
G02*
X382970000Y-169870000I-175000J0D01*
G01*
X382620000Y-169870000D01*
G75*
G02*
X382445000Y-169695000I0J175000D01*
G01*
X382445000Y-168345000D01*
G75*
G02*
X382620000Y-168170000I175000J0D01*
G01*
G37*
G36*
G01*
X381350000Y-168170000D02*
X381700000Y-168170000D01*
G75*
G02*
X381875000Y-168345000I0J-175000D01*
G01*
X381875000Y-169695000D01*
G75*
G02*
X381700000Y-169870000I-175000J0D01*
G01*
X381350000Y-169870000D01*
G75*
G02*
X381175000Y-169695000I0J175000D01*
G01*
X381175000Y-168345000D01*
G75*
G02*
X381350000Y-168170000I175000J0D01*
G01*
G37*
G36*
G01*
X380080000Y-168170000D02*
X380430000Y-168170000D01*
G75*
G02*
X380605000Y-168345000I0J-175000D01*
G01*
X380605000Y-169695000D01*
G75*
G02*
X380430000Y-169870000I-175000J0D01*
G01*
X380080000Y-169870000D01*
G75*
G02*
X379905000Y-169695000I0J175000D01*
G01*
X379905000Y-168345000D01*
G75*
G02*
X380080000Y-168170000I175000J0D01*
G01*
G37*
G36*
G01*
X378810000Y-168170000D02*
X379160000Y-168170000D01*
G75*
G02*
X379335000Y-168345000I0J-175000D01*
G01*
X379335000Y-169695000D01*
G75*
G02*
X379160000Y-169870000I-175000J0D01*
G01*
X378810000Y-169870000D01*
G75*
G02*
X378635000Y-169695000I0J175000D01*
G01*
X378635000Y-168345000D01*
G75*
G02*
X378810000Y-168170000I175000J0D01*
G01*
G37*
G36*
G01*
X377540000Y-168170000D02*
X377890000Y-168170000D01*
G75*
G02*
X378065000Y-168345000I0J-175000D01*
G01*
X378065000Y-169695000D01*
G75*
G02*
X377890000Y-169870000I-175000J0D01*
G01*
X377540000Y-169870000D01*
G75*
G02*
X377365000Y-169695000I0J175000D01*
G01*
X377365000Y-168345000D01*
G75*
G02*
X377540000Y-168170000I175000J0D01*
G01*
G37*
G36*
G01*
X376270000Y-168170000D02*
X376620000Y-168170000D01*
G75*
G02*
X376795000Y-168345000I0J-175000D01*
G01*
X376795000Y-169695000D01*
G75*
G02*
X376620000Y-169870000I-175000J0D01*
G01*
X376270000Y-169870000D01*
G75*
G02*
X376095000Y-169695000I0J175000D01*
G01*
X376095000Y-168345000D01*
G75*
G02*
X376270000Y-168170000I175000J0D01*
G01*
G37*
%TD*%
%TO.C,U5*%
G36*
G01*
X330610000Y-171710000D02*
X330960000Y-171710000D01*
G75*
G02*
X331135000Y-171885000I0J-175000D01*
G01*
X331135000Y-173235000D01*
G75*
G02*
X330960000Y-173410000I-175000J0D01*
G01*
X330610000Y-173410000D01*
G75*
G02*
X330435000Y-173235000I0J175000D01*
G01*
X330435000Y-171885000D01*
G75*
G02*
X330610000Y-171710000I175000J0D01*
G01*
G37*
G36*
G01*
X331880000Y-171710000D02*
X332230000Y-171710000D01*
G75*
G02*
X332405000Y-171885000I0J-175000D01*
G01*
X332405000Y-173235000D01*
G75*
G02*
X332230000Y-173410000I-175000J0D01*
G01*
X331880000Y-173410000D01*
G75*
G02*
X331705000Y-173235000I0J175000D01*
G01*
X331705000Y-171885000D01*
G75*
G02*
X331880000Y-171710000I175000J0D01*
G01*
G37*
G36*
G01*
X333150000Y-171710000D02*
X333500000Y-171710000D01*
G75*
G02*
X333675000Y-171885000I0J-175000D01*
G01*
X333675000Y-173235000D01*
G75*
G02*
X333500000Y-173410000I-175000J0D01*
G01*
X333150000Y-173410000D01*
G75*
G02*
X332975000Y-173235000I0J175000D01*
G01*
X332975000Y-171885000D01*
G75*
G02*
X333150000Y-171710000I175000J0D01*
G01*
G37*
G36*
G01*
X334420000Y-171710000D02*
X334770000Y-171710000D01*
G75*
G02*
X334945000Y-171885000I0J-175000D01*
G01*
X334945000Y-173235000D01*
G75*
G02*
X334770000Y-173410000I-175000J0D01*
G01*
X334420000Y-173410000D01*
G75*
G02*
X334245000Y-173235000I0J175000D01*
G01*
X334245000Y-171885000D01*
G75*
G02*
X334420000Y-171710000I175000J0D01*
G01*
G37*
G36*
G01*
X335690000Y-171710000D02*
X336040000Y-171710000D01*
G75*
G02*
X336215000Y-171885000I0J-175000D01*
G01*
X336215000Y-173235000D01*
G75*
G02*
X336040000Y-173410000I-175000J0D01*
G01*
X335690000Y-173410000D01*
G75*
G02*
X335515000Y-173235000I0J175000D01*
G01*
X335515000Y-171885000D01*
G75*
G02*
X335690000Y-171710000I175000J0D01*
G01*
G37*
G36*
G01*
X336960000Y-171710000D02*
X337310000Y-171710000D01*
G75*
G02*
X337485000Y-171885000I0J-175000D01*
G01*
X337485000Y-173235000D01*
G75*
G02*
X337310000Y-173410000I-175000J0D01*
G01*
X336960000Y-173410000D01*
G75*
G02*
X336785000Y-173235000I0J175000D01*
G01*
X336785000Y-171885000D01*
G75*
G02*
X336960000Y-171710000I175000J0D01*
G01*
G37*
G36*
G01*
X338230000Y-171710000D02*
X338580000Y-171710000D01*
G75*
G02*
X338755000Y-171885000I0J-175000D01*
G01*
X338755000Y-173235000D01*
G75*
G02*
X338580000Y-173410000I-175000J0D01*
G01*
X338230000Y-173410000D01*
G75*
G02*
X338055000Y-173235000I0J175000D01*
G01*
X338055000Y-171885000D01*
G75*
G02*
X338230000Y-171710000I175000J0D01*
G01*
G37*
G36*
G01*
X339500000Y-171710000D02*
X339850000Y-171710000D01*
G75*
G02*
X340025000Y-171885000I0J-175000D01*
G01*
X340025000Y-173235000D01*
G75*
G02*
X339850000Y-173410000I-175000J0D01*
G01*
X339500000Y-173410000D01*
G75*
G02*
X339325000Y-173235000I0J175000D01*
G01*
X339325000Y-171885000D01*
G75*
G02*
X339500000Y-171710000I175000J0D01*
G01*
G37*
G36*
G01*
X339500000Y-165210000D02*
X339850000Y-165210000D01*
G75*
G02*
X340025000Y-165385000I0J-175000D01*
G01*
X340025000Y-166735000D01*
G75*
G02*
X339850000Y-166910000I-175000J0D01*
G01*
X339500000Y-166910000D01*
G75*
G02*
X339325000Y-166735000I0J175000D01*
G01*
X339325000Y-165385000D01*
G75*
G02*
X339500000Y-165210000I175000J0D01*
G01*
G37*
G36*
G01*
X338230000Y-165210000D02*
X338580000Y-165210000D01*
G75*
G02*
X338755000Y-165385000I0J-175000D01*
G01*
X338755000Y-166735000D01*
G75*
G02*
X338580000Y-166910000I-175000J0D01*
G01*
X338230000Y-166910000D01*
G75*
G02*
X338055000Y-166735000I0J175000D01*
G01*
X338055000Y-165385000D01*
G75*
G02*
X338230000Y-165210000I175000J0D01*
G01*
G37*
G36*
G01*
X336960000Y-165210000D02*
X337310000Y-165210000D01*
G75*
G02*
X337485000Y-165385000I0J-175000D01*
G01*
X337485000Y-166735000D01*
G75*
G02*
X337310000Y-166910000I-175000J0D01*
G01*
X336960000Y-166910000D01*
G75*
G02*
X336785000Y-166735000I0J175000D01*
G01*
X336785000Y-165385000D01*
G75*
G02*
X336960000Y-165210000I175000J0D01*
G01*
G37*
G36*
G01*
X335690000Y-165210000D02*
X336040000Y-165210000D01*
G75*
G02*
X336215000Y-165385000I0J-175000D01*
G01*
X336215000Y-166735000D01*
G75*
G02*
X336040000Y-166910000I-175000J0D01*
G01*
X335690000Y-166910000D01*
G75*
G02*
X335515000Y-166735000I0J175000D01*
G01*
X335515000Y-165385000D01*
G75*
G02*
X335690000Y-165210000I175000J0D01*
G01*
G37*
G36*
G01*
X334420000Y-165210000D02*
X334770000Y-165210000D01*
G75*
G02*
X334945000Y-165385000I0J-175000D01*
G01*
X334945000Y-166735000D01*
G75*
G02*
X334770000Y-166910000I-175000J0D01*
G01*
X334420000Y-166910000D01*
G75*
G02*
X334245000Y-166735000I0J175000D01*
G01*
X334245000Y-165385000D01*
G75*
G02*
X334420000Y-165210000I175000J0D01*
G01*
G37*
G36*
G01*
X333150000Y-165210000D02*
X333500000Y-165210000D01*
G75*
G02*
X333675000Y-165385000I0J-175000D01*
G01*
X333675000Y-166735000D01*
G75*
G02*
X333500000Y-166910000I-175000J0D01*
G01*
X333150000Y-166910000D01*
G75*
G02*
X332975000Y-166735000I0J175000D01*
G01*
X332975000Y-165385000D01*
G75*
G02*
X333150000Y-165210000I175000J0D01*
G01*
G37*
G36*
G01*
X331880000Y-165210000D02*
X332230000Y-165210000D01*
G75*
G02*
X332405000Y-165385000I0J-175000D01*
G01*
X332405000Y-166735000D01*
G75*
G02*
X332230000Y-166910000I-175000J0D01*
G01*
X331880000Y-166910000D01*
G75*
G02*
X331705000Y-166735000I0J175000D01*
G01*
X331705000Y-165385000D01*
G75*
G02*
X331880000Y-165210000I175000J0D01*
G01*
G37*
G36*
G01*
X330610000Y-165210000D02*
X330960000Y-165210000D01*
G75*
G02*
X331135000Y-165385000I0J-175000D01*
G01*
X331135000Y-166735000D01*
G75*
G02*
X330960000Y-166910000I-175000J0D01*
G01*
X330610000Y-166910000D01*
G75*
G02*
X330435000Y-166735000I0J175000D01*
G01*
X330435000Y-165385000D01*
G75*
G02*
X330610000Y-165210000I175000J0D01*
G01*
G37*
%TD*%
%TO.C,U4*%
G36*
G01*
X249440000Y-172160000D02*
X249790000Y-172160000D01*
G75*
G02*
X249965000Y-172335000I0J-175000D01*
G01*
X249965000Y-173685000D01*
G75*
G02*
X249790000Y-173860000I-175000J0D01*
G01*
X249440000Y-173860000D01*
G75*
G02*
X249265000Y-173685000I0J175000D01*
G01*
X249265000Y-172335000D01*
G75*
G02*
X249440000Y-172160000I175000J0D01*
G01*
G37*
G36*
G01*
X250710000Y-172160000D02*
X251060000Y-172160000D01*
G75*
G02*
X251235000Y-172335000I0J-175000D01*
G01*
X251235000Y-173685000D01*
G75*
G02*
X251060000Y-173860000I-175000J0D01*
G01*
X250710000Y-173860000D01*
G75*
G02*
X250535000Y-173685000I0J175000D01*
G01*
X250535000Y-172335000D01*
G75*
G02*
X250710000Y-172160000I175000J0D01*
G01*
G37*
G36*
G01*
X251980000Y-172160000D02*
X252330000Y-172160000D01*
G75*
G02*
X252505000Y-172335000I0J-175000D01*
G01*
X252505000Y-173685000D01*
G75*
G02*
X252330000Y-173860000I-175000J0D01*
G01*
X251980000Y-173860000D01*
G75*
G02*
X251805000Y-173685000I0J175000D01*
G01*
X251805000Y-172335000D01*
G75*
G02*
X251980000Y-172160000I175000J0D01*
G01*
G37*
G36*
G01*
X253250000Y-172160000D02*
X253600000Y-172160000D01*
G75*
G02*
X253775000Y-172335000I0J-175000D01*
G01*
X253775000Y-173685000D01*
G75*
G02*
X253600000Y-173860000I-175000J0D01*
G01*
X253250000Y-173860000D01*
G75*
G02*
X253075000Y-173685000I0J175000D01*
G01*
X253075000Y-172335000D01*
G75*
G02*
X253250000Y-172160000I175000J0D01*
G01*
G37*
G36*
G01*
X254520000Y-172160000D02*
X254870000Y-172160000D01*
G75*
G02*
X255045000Y-172335000I0J-175000D01*
G01*
X255045000Y-173685000D01*
G75*
G02*
X254870000Y-173860000I-175000J0D01*
G01*
X254520000Y-173860000D01*
G75*
G02*
X254345000Y-173685000I0J175000D01*
G01*
X254345000Y-172335000D01*
G75*
G02*
X254520000Y-172160000I175000J0D01*
G01*
G37*
G36*
G01*
X255790000Y-172160000D02*
X256140000Y-172160000D01*
G75*
G02*
X256315000Y-172335000I0J-175000D01*
G01*
X256315000Y-173685000D01*
G75*
G02*
X256140000Y-173860000I-175000J0D01*
G01*
X255790000Y-173860000D01*
G75*
G02*
X255615000Y-173685000I0J175000D01*
G01*
X255615000Y-172335000D01*
G75*
G02*
X255790000Y-172160000I175000J0D01*
G01*
G37*
G36*
G01*
X257060000Y-172160000D02*
X257410000Y-172160000D01*
G75*
G02*
X257585000Y-172335000I0J-175000D01*
G01*
X257585000Y-173685000D01*
G75*
G02*
X257410000Y-173860000I-175000J0D01*
G01*
X257060000Y-173860000D01*
G75*
G02*
X256885000Y-173685000I0J175000D01*
G01*
X256885000Y-172335000D01*
G75*
G02*
X257060000Y-172160000I175000J0D01*
G01*
G37*
G36*
G01*
X258330000Y-172160000D02*
X258680000Y-172160000D01*
G75*
G02*
X258855000Y-172335000I0J-175000D01*
G01*
X258855000Y-173685000D01*
G75*
G02*
X258680000Y-173860000I-175000J0D01*
G01*
X258330000Y-173860000D01*
G75*
G02*
X258155000Y-173685000I0J175000D01*
G01*
X258155000Y-172335000D01*
G75*
G02*
X258330000Y-172160000I175000J0D01*
G01*
G37*
G36*
G01*
X258330000Y-165660000D02*
X258680000Y-165660000D01*
G75*
G02*
X258855000Y-165835000I0J-175000D01*
G01*
X258855000Y-167185000D01*
G75*
G02*
X258680000Y-167360000I-175000J0D01*
G01*
X258330000Y-167360000D01*
G75*
G02*
X258155000Y-167185000I0J175000D01*
G01*
X258155000Y-165835000D01*
G75*
G02*
X258330000Y-165660000I175000J0D01*
G01*
G37*
G36*
G01*
X257060000Y-165660000D02*
X257410000Y-165660000D01*
G75*
G02*
X257585000Y-165835000I0J-175000D01*
G01*
X257585000Y-167185000D01*
G75*
G02*
X257410000Y-167360000I-175000J0D01*
G01*
X257060000Y-167360000D01*
G75*
G02*
X256885000Y-167185000I0J175000D01*
G01*
X256885000Y-165835000D01*
G75*
G02*
X257060000Y-165660000I175000J0D01*
G01*
G37*
G36*
G01*
X255790000Y-165660000D02*
X256140000Y-165660000D01*
G75*
G02*
X256315000Y-165835000I0J-175000D01*
G01*
X256315000Y-167185000D01*
G75*
G02*
X256140000Y-167360000I-175000J0D01*
G01*
X255790000Y-167360000D01*
G75*
G02*
X255615000Y-167185000I0J175000D01*
G01*
X255615000Y-165835000D01*
G75*
G02*
X255790000Y-165660000I175000J0D01*
G01*
G37*
G36*
G01*
X254520000Y-165660000D02*
X254870000Y-165660000D01*
G75*
G02*
X255045000Y-165835000I0J-175000D01*
G01*
X255045000Y-167185000D01*
G75*
G02*
X254870000Y-167360000I-175000J0D01*
G01*
X254520000Y-167360000D01*
G75*
G02*
X254345000Y-167185000I0J175000D01*
G01*
X254345000Y-165835000D01*
G75*
G02*
X254520000Y-165660000I175000J0D01*
G01*
G37*
G36*
G01*
X253250000Y-165660000D02*
X253600000Y-165660000D01*
G75*
G02*
X253775000Y-165835000I0J-175000D01*
G01*
X253775000Y-167185000D01*
G75*
G02*
X253600000Y-167360000I-175000J0D01*
G01*
X253250000Y-167360000D01*
G75*
G02*
X253075000Y-167185000I0J175000D01*
G01*
X253075000Y-165835000D01*
G75*
G02*
X253250000Y-165660000I175000J0D01*
G01*
G37*
G36*
G01*
X251980000Y-165660000D02*
X252330000Y-165660000D01*
G75*
G02*
X252505000Y-165835000I0J-175000D01*
G01*
X252505000Y-167185000D01*
G75*
G02*
X252330000Y-167360000I-175000J0D01*
G01*
X251980000Y-167360000D01*
G75*
G02*
X251805000Y-167185000I0J175000D01*
G01*
X251805000Y-165835000D01*
G75*
G02*
X251980000Y-165660000I175000J0D01*
G01*
G37*
G36*
G01*
X250710000Y-165660000D02*
X251060000Y-165660000D01*
G75*
G02*
X251235000Y-165835000I0J-175000D01*
G01*
X251235000Y-167185000D01*
G75*
G02*
X251060000Y-167360000I-175000J0D01*
G01*
X250710000Y-167360000D01*
G75*
G02*
X250535000Y-167185000I0J175000D01*
G01*
X250535000Y-165835000D01*
G75*
G02*
X250710000Y-165660000I175000J0D01*
G01*
G37*
G36*
G01*
X249440000Y-165660000D02*
X249790000Y-165660000D01*
G75*
G02*
X249965000Y-165835000I0J-175000D01*
G01*
X249965000Y-167185000D01*
G75*
G02*
X249790000Y-167360000I-175000J0D01*
G01*
X249440000Y-167360000D01*
G75*
G02*
X249265000Y-167185000I0J175000D01*
G01*
X249265000Y-165835000D01*
G75*
G02*
X249440000Y-165660000I175000J0D01*
G01*
G37*
%TD*%
%TO.C,U3*%
G36*
G01*
X185150000Y-174170000D02*
X185500000Y-174170000D01*
G75*
G02*
X185675000Y-174345000I0J-175000D01*
G01*
X185675000Y-175695000D01*
G75*
G02*
X185500000Y-175870000I-175000J0D01*
G01*
X185150000Y-175870000D01*
G75*
G02*
X184975000Y-175695000I0J175000D01*
G01*
X184975000Y-174345000D01*
G75*
G02*
X185150000Y-174170000I175000J0D01*
G01*
G37*
G36*
G01*
X186420000Y-174170000D02*
X186770000Y-174170000D01*
G75*
G02*
X186945000Y-174345000I0J-175000D01*
G01*
X186945000Y-175695000D01*
G75*
G02*
X186770000Y-175870000I-175000J0D01*
G01*
X186420000Y-175870000D01*
G75*
G02*
X186245000Y-175695000I0J175000D01*
G01*
X186245000Y-174345000D01*
G75*
G02*
X186420000Y-174170000I175000J0D01*
G01*
G37*
G36*
G01*
X187690000Y-174170000D02*
X188040000Y-174170000D01*
G75*
G02*
X188215000Y-174345000I0J-175000D01*
G01*
X188215000Y-175695000D01*
G75*
G02*
X188040000Y-175870000I-175000J0D01*
G01*
X187690000Y-175870000D01*
G75*
G02*
X187515000Y-175695000I0J175000D01*
G01*
X187515000Y-174345000D01*
G75*
G02*
X187690000Y-174170000I175000J0D01*
G01*
G37*
G36*
G01*
X188960000Y-174170000D02*
X189310000Y-174170000D01*
G75*
G02*
X189485000Y-174345000I0J-175000D01*
G01*
X189485000Y-175695000D01*
G75*
G02*
X189310000Y-175870000I-175000J0D01*
G01*
X188960000Y-175870000D01*
G75*
G02*
X188785000Y-175695000I0J175000D01*
G01*
X188785000Y-174345000D01*
G75*
G02*
X188960000Y-174170000I175000J0D01*
G01*
G37*
G36*
G01*
X190230000Y-174170000D02*
X190580000Y-174170000D01*
G75*
G02*
X190755000Y-174345000I0J-175000D01*
G01*
X190755000Y-175695000D01*
G75*
G02*
X190580000Y-175870000I-175000J0D01*
G01*
X190230000Y-175870000D01*
G75*
G02*
X190055000Y-175695000I0J175000D01*
G01*
X190055000Y-174345000D01*
G75*
G02*
X190230000Y-174170000I175000J0D01*
G01*
G37*
G36*
G01*
X191500000Y-174170000D02*
X191850000Y-174170000D01*
G75*
G02*
X192025000Y-174345000I0J-175000D01*
G01*
X192025000Y-175695000D01*
G75*
G02*
X191850000Y-175870000I-175000J0D01*
G01*
X191500000Y-175870000D01*
G75*
G02*
X191325000Y-175695000I0J175000D01*
G01*
X191325000Y-174345000D01*
G75*
G02*
X191500000Y-174170000I175000J0D01*
G01*
G37*
G36*
G01*
X192770000Y-174170000D02*
X193120000Y-174170000D01*
G75*
G02*
X193295000Y-174345000I0J-175000D01*
G01*
X193295000Y-175695000D01*
G75*
G02*
X193120000Y-175870000I-175000J0D01*
G01*
X192770000Y-175870000D01*
G75*
G02*
X192595000Y-175695000I0J175000D01*
G01*
X192595000Y-174345000D01*
G75*
G02*
X192770000Y-174170000I175000J0D01*
G01*
G37*
G36*
G01*
X194040000Y-174170000D02*
X194390000Y-174170000D01*
G75*
G02*
X194565000Y-174345000I0J-175000D01*
G01*
X194565000Y-175695000D01*
G75*
G02*
X194390000Y-175870000I-175000J0D01*
G01*
X194040000Y-175870000D01*
G75*
G02*
X193865000Y-175695000I0J175000D01*
G01*
X193865000Y-174345000D01*
G75*
G02*
X194040000Y-174170000I175000J0D01*
G01*
G37*
G36*
G01*
X194040000Y-167670000D02*
X194390000Y-167670000D01*
G75*
G02*
X194565000Y-167845000I0J-175000D01*
G01*
X194565000Y-169195000D01*
G75*
G02*
X194390000Y-169370000I-175000J0D01*
G01*
X194040000Y-169370000D01*
G75*
G02*
X193865000Y-169195000I0J175000D01*
G01*
X193865000Y-167845000D01*
G75*
G02*
X194040000Y-167670000I175000J0D01*
G01*
G37*
G36*
G01*
X192770000Y-167670000D02*
X193120000Y-167670000D01*
G75*
G02*
X193295000Y-167845000I0J-175000D01*
G01*
X193295000Y-169195000D01*
G75*
G02*
X193120000Y-169370000I-175000J0D01*
G01*
X192770000Y-169370000D01*
G75*
G02*
X192595000Y-169195000I0J175000D01*
G01*
X192595000Y-167845000D01*
G75*
G02*
X192770000Y-167670000I175000J0D01*
G01*
G37*
G36*
G01*
X191500000Y-167670000D02*
X191850000Y-167670000D01*
G75*
G02*
X192025000Y-167845000I0J-175000D01*
G01*
X192025000Y-169195000D01*
G75*
G02*
X191850000Y-169370000I-175000J0D01*
G01*
X191500000Y-169370000D01*
G75*
G02*
X191325000Y-169195000I0J175000D01*
G01*
X191325000Y-167845000D01*
G75*
G02*
X191500000Y-167670000I175000J0D01*
G01*
G37*
G36*
G01*
X190230000Y-167670000D02*
X190580000Y-167670000D01*
G75*
G02*
X190755000Y-167845000I0J-175000D01*
G01*
X190755000Y-169195000D01*
G75*
G02*
X190580000Y-169370000I-175000J0D01*
G01*
X190230000Y-169370000D01*
G75*
G02*
X190055000Y-169195000I0J175000D01*
G01*
X190055000Y-167845000D01*
G75*
G02*
X190230000Y-167670000I175000J0D01*
G01*
G37*
G36*
G01*
X188960000Y-167670000D02*
X189310000Y-167670000D01*
G75*
G02*
X189485000Y-167845000I0J-175000D01*
G01*
X189485000Y-169195000D01*
G75*
G02*
X189310000Y-169370000I-175000J0D01*
G01*
X188960000Y-169370000D01*
G75*
G02*
X188785000Y-169195000I0J175000D01*
G01*
X188785000Y-167845000D01*
G75*
G02*
X188960000Y-167670000I175000J0D01*
G01*
G37*
G36*
G01*
X187690000Y-167670000D02*
X188040000Y-167670000D01*
G75*
G02*
X188215000Y-167845000I0J-175000D01*
G01*
X188215000Y-169195000D01*
G75*
G02*
X188040000Y-169370000I-175000J0D01*
G01*
X187690000Y-169370000D01*
G75*
G02*
X187515000Y-169195000I0J175000D01*
G01*
X187515000Y-167845000D01*
G75*
G02*
X187690000Y-167670000I175000J0D01*
G01*
G37*
G36*
G01*
X186420000Y-167670000D02*
X186770000Y-167670000D01*
G75*
G02*
X186945000Y-167845000I0J-175000D01*
G01*
X186945000Y-169195000D01*
G75*
G02*
X186770000Y-169370000I-175000J0D01*
G01*
X186420000Y-169370000D01*
G75*
G02*
X186245000Y-169195000I0J175000D01*
G01*
X186245000Y-167845000D01*
G75*
G02*
X186420000Y-167670000I175000J0D01*
G01*
G37*
G36*
G01*
X185150000Y-167670000D02*
X185500000Y-167670000D01*
G75*
G02*
X185675000Y-167845000I0J-175000D01*
G01*
X185675000Y-169195000D01*
G75*
G02*
X185500000Y-169370000I-175000J0D01*
G01*
X185150000Y-169370000D01*
G75*
G02*
X184975000Y-169195000I0J175000D01*
G01*
X184975000Y-167845000D01*
G75*
G02*
X185150000Y-167670000I175000J0D01*
G01*
G37*
%TD*%
%TO.C,U2*%
G36*
G01*
X230020000Y-265110000D02*
X230370000Y-265110000D01*
G75*
G02*
X230545000Y-265285000I0J-175000D01*
G01*
X230545000Y-266635000D01*
G75*
G02*
X230370000Y-266810000I-175000J0D01*
G01*
X230020000Y-266810000D01*
G75*
G02*
X229845000Y-266635000I0J175000D01*
G01*
X229845000Y-265285000D01*
G75*
G02*
X230020000Y-265110000I175000J0D01*
G01*
G37*
G36*
G01*
X231290000Y-265110000D02*
X231640000Y-265110000D01*
G75*
G02*
X231815000Y-265285000I0J-175000D01*
G01*
X231815000Y-266635000D01*
G75*
G02*
X231640000Y-266810000I-175000J0D01*
G01*
X231290000Y-266810000D01*
G75*
G02*
X231115000Y-266635000I0J175000D01*
G01*
X231115000Y-265285000D01*
G75*
G02*
X231290000Y-265110000I175000J0D01*
G01*
G37*
G36*
G01*
X232560000Y-265110000D02*
X232910000Y-265110000D01*
G75*
G02*
X233085000Y-265285000I0J-175000D01*
G01*
X233085000Y-266635000D01*
G75*
G02*
X232910000Y-266810000I-175000J0D01*
G01*
X232560000Y-266810000D01*
G75*
G02*
X232385000Y-266635000I0J175000D01*
G01*
X232385000Y-265285000D01*
G75*
G02*
X232560000Y-265110000I175000J0D01*
G01*
G37*
G36*
G01*
X233830000Y-265110000D02*
X234180000Y-265110000D01*
G75*
G02*
X234355000Y-265285000I0J-175000D01*
G01*
X234355000Y-266635000D01*
G75*
G02*
X234180000Y-266810000I-175000J0D01*
G01*
X233830000Y-266810000D01*
G75*
G02*
X233655000Y-266635000I0J175000D01*
G01*
X233655000Y-265285000D01*
G75*
G02*
X233830000Y-265110000I175000J0D01*
G01*
G37*
G36*
G01*
X235100000Y-265110000D02*
X235450000Y-265110000D01*
G75*
G02*
X235625000Y-265285000I0J-175000D01*
G01*
X235625000Y-266635000D01*
G75*
G02*
X235450000Y-266810000I-175000J0D01*
G01*
X235100000Y-266810000D01*
G75*
G02*
X234925000Y-266635000I0J175000D01*
G01*
X234925000Y-265285000D01*
G75*
G02*
X235100000Y-265110000I175000J0D01*
G01*
G37*
G36*
G01*
X236370000Y-265110000D02*
X236720000Y-265110000D01*
G75*
G02*
X236895000Y-265285000I0J-175000D01*
G01*
X236895000Y-266635000D01*
G75*
G02*
X236720000Y-266810000I-175000J0D01*
G01*
X236370000Y-266810000D01*
G75*
G02*
X236195000Y-266635000I0J175000D01*
G01*
X236195000Y-265285000D01*
G75*
G02*
X236370000Y-265110000I175000J0D01*
G01*
G37*
G36*
G01*
X237640000Y-265110000D02*
X237990000Y-265110000D01*
G75*
G02*
X238165000Y-265285000I0J-175000D01*
G01*
X238165000Y-266635000D01*
G75*
G02*
X237990000Y-266810000I-175000J0D01*
G01*
X237640000Y-266810000D01*
G75*
G02*
X237465000Y-266635000I0J175000D01*
G01*
X237465000Y-265285000D01*
G75*
G02*
X237640000Y-265110000I175000J0D01*
G01*
G37*
G36*
G01*
X238910000Y-265110000D02*
X239260000Y-265110000D01*
G75*
G02*
X239435000Y-265285000I0J-175000D01*
G01*
X239435000Y-266635000D01*
G75*
G02*
X239260000Y-266810000I-175000J0D01*
G01*
X238910000Y-266810000D01*
G75*
G02*
X238735000Y-266635000I0J175000D01*
G01*
X238735000Y-265285000D01*
G75*
G02*
X238910000Y-265110000I175000J0D01*
G01*
G37*
G36*
G01*
X238910000Y-258610000D02*
X239260000Y-258610000D01*
G75*
G02*
X239435000Y-258785000I0J-175000D01*
G01*
X239435000Y-260135000D01*
G75*
G02*
X239260000Y-260310000I-175000J0D01*
G01*
X238910000Y-260310000D01*
G75*
G02*
X238735000Y-260135000I0J175000D01*
G01*
X238735000Y-258785000D01*
G75*
G02*
X238910000Y-258610000I175000J0D01*
G01*
G37*
G36*
G01*
X237640000Y-258610000D02*
X237990000Y-258610000D01*
G75*
G02*
X238165000Y-258785000I0J-175000D01*
G01*
X238165000Y-260135000D01*
G75*
G02*
X237990000Y-260310000I-175000J0D01*
G01*
X237640000Y-260310000D01*
G75*
G02*
X237465000Y-260135000I0J175000D01*
G01*
X237465000Y-258785000D01*
G75*
G02*
X237640000Y-258610000I175000J0D01*
G01*
G37*
G36*
G01*
X236370000Y-258610000D02*
X236720000Y-258610000D01*
G75*
G02*
X236895000Y-258785000I0J-175000D01*
G01*
X236895000Y-260135000D01*
G75*
G02*
X236720000Y-260310000I-175000J0D01*
G01*
X236370000Y-260310000D01*
G75*
G02*
X236195000Y-260135000I0J175000D01*
G01*
X236195000Y-258785000D01*
G75*
G02*
X236370000Y-258610000I175000J0D01*
G01*
G37*
G36*
G01*
X235100000Y-258610000D02*
X235450000Y-258610000D01*
G75*
G02*
X235625000Y-258785000I0J-175000D01*
G01*
X235625000Y-260135000D01*
G75*
G02*
X235450000Y-260310000I-175000J0D01*
G01*
X235100000Y-260310000D01*
G75*
G02*
X234925000Y-260135000I0J175000D01*
G01*
X234925000Y-258785000D01*
G75*
G02*
X235100000Y-258610000I175000J0D01*
G01*
G37*
G36*
G01*
X233830000Y-258610000D02*
X234180000Y-258610000D01*
G75*
G02*
X234355000Y-258785000I0J-175000D01*
G01*
X234355000Y-260135000D01*
G75*
G02*
X234180000Y-260310000I-175000J0D01*
G01*
X233830000Y-260310000D01*
G75*
G02*
X233655000Y-260135000I0J175000D01*
G01*
X233655000Y-258785000D01*
G75*
G02*
X233830000Y-258610000I175000J0D01*
G01*
G37*
G36*
G01*
X232560000Y-258610000D02*
X232910000Y-258610000D01*
G75*
G02*
X233085000Y-258785000I0J-175000D01*
G01*
X233085000Y-260135000D01*
G75*
G02*
X232910000Y-260310000I-175000J0D01*
G01*
X232560000Y-260310000D01*
G75*
G02*
X232385000Y-260135000I0J175000D01*
G01*
X232385000Y-258785000D01*
G75*
G02*
X232560000Y-258610000I175000J0D01*
G01*
G37*
G36*
G01*
X231290000Y-258610000D02*
X231640000Y-258610000D01*
G75*
G02*
X231815000Y-258785000I0J-175000D01*
G01*
X231815000Y-260135000D01*
G75*
G02*
X231640000Y-260310000I-175000J0D01*
G01*
X231290000Y-260310000D01*
G75*
G02*
X231115000Y-260135000I0J175000D01*
G01*
X231115000Y-258785000D01*
G75*
G02*
X231290000Y-258610000I175000J0D01*
G01*
G37*
G36*
G01*
X230020000Y-258610000D02*
X230370000Y-258610000D01*
G75*
G02*
X230545000Y-258785000I0J-175000D01*
G01*
X230545000Y-260135000D01*
G75*
G02*
X230370000Y-260310000I-175000J0D01*
G01*
X230020000Y-260310000D01*
G75*
G02*
X229845000Y-260135000I0J175000D01*
G01*
X229845000Y-258785000D01*
G75*
G02*
X230020000Y-258610000I175000J0D01*
G01*
G37*
%TD*%
%TO.C,U1*%
G36*
G01*
X255650000Y-257840000D02*
X256000000Y-257840000D01*
G75*
G02*
X256175000Y-258015000I0J-175000D01*
G01*
X256175000Y-259365000D01*
G75*
G02*
X256000000Y-259540000I-175000J0D01*
G01*
X255650000Y-259540000D01*
G75*
G02*
X255475000Y-259365000I0J175000D01*
G01*
X255475000Y-258015000D01*
G75*
G02*
X255650000Y-257840000I175000J0D01*
G01*
G37*
G36*
G01*
X256920000Y-257840000D02*
X257270000Y-257840000D01*
G75*
G02*
X257445000Y-258015000I0J-175000D01*
G01*
X257445000Y-259365000D01*
G75*
G02*
X257270000Y-259540000I-175000J0D01*
G01*
X256920000Y-259540000D01*
G75*
G02*
X256745000Y-259365000I0J175000D01*
G01*
X256745000Y-258015000D01*
G75*
G02*
X256920000Y-257840000I175000J0D01*
G01*
G37*
G36*
G01*
X258190000Y-257840000D02*
X258540000Y-257840000D01*
G75*
G02*
X258715000Y-258015000I0J-175000D01*
G01*
X258715000Y-259365000D01*
G75*
G02*
X258540000Y-259540000I-175000J0D01*
G01*
X258190000Y-259540000D01*
G75*
G02*
X258015000Y-259365000I0J175000D01*
G01*
X258015000Y-258015000D01*
G75*
G02*
X258190000Y-257840000I175000J0D01*
G01*
G37*
G36*
G01*
X259460000Y-257840000D02*
X259810000Y-257840000D01*
G75*
G02*
X259985000Y-258015000I0J-175000D01*
G01*
X259985000Y-259365000D01*
G75*
G02*
X259810000Y-259540000I-175000J0D01*
G01*
X259460000Y-259540000D01*
G75*
G02*
X259285000Y-259365000I0J175000D01*
G01*
X259285000Y-258015000D01*
G75*
G02*
X259460000Y-257840000I175000J0D01*
G01*
G37*
G36*
G01*
X260730000Y-257840000D02*
X261080000Y-257840000D01*
G75*
G02*
X261255000Y-258015000I0J-175000D01*
G01*
X261255000Y-259365000D01*
G75*
G02*
X261080000Y-259540000I-175000J0D01*
G01*
X260730000Y-259540000D01*
G75*
G02*
X260555000Y-259365000I0J175000D01*
G01*
X260555000Y-258015000D01*
G75*
G02*
X260730000Y-257840000I175000J0D01*
G01*
G37*
G36*
G01*
X262000000Y-257840000D02*
X262350000Y-257840000D01*
G75*
G02*
X262525000Y-258015000I0J-175000D01*
G01*
X262525000Y-259365000D01*
G75*
G02*
X262350000Y-259540000I-175000J0D01*
G01*
X262000000Y-259540000D01*
G75*
G02*
X261825000Y-259365000I0J175000D01*
G01*
X261825000Y-258015000D01*
G75*
G02*
X262000000Y-257840000I175000J0D01*
G01*
G37*
G36*
G01*
X263270000Y-257840000D02*
X263620000Y-257840000D01*
G75*
G02*
X263795000Y-258015000I0J-175000D01*
G01*
X263795000Y-259365000D01*
G75*
G02*
X263620000Y-259540000I-175000J0D01*
G01*
X263270000Y-259540000D01*
G75*
G02*
X263095000Y-259365000I0J175000D01*
G01*
X263095000Y-258015000D01*
G75*
G02*
X263270000Y-257840000I175000J0D01*
G01*
G37*
G36*
G01*
X264540000Y-257840000D02*
X264890000Y-257840000D01*
G75*
G02*
X265065000Y-258015000I0J-175000D01*
G01*
X265065000Y-259365000D01*
G75*
G02*
X264890000Y-259540000I-175000J0D01*
G01*
X264540000Y-259540000D01*
G75*
G02*
X264365000Y-259365000I0J175000D01*
G01*
X264365000Y-258015000D01*
G75*
G02*
X264540000Y-257840000I175000J0D01*
G01*
G37*
G36*
G01*
X264540000Y-251340000D02*
X264890000Y-251340000D01*
G75*
G02*
X265065000Y-251515000I0J-175000D01*
G01*
X265065000Y-252865000D01*
G75*
G02*
X264890000Y-253040000I-175000J0D01*
G01*
X264540000Y-253040000D01*
G75*
G02*
X264365000Y-252865000I0J175000D01*
G01*
X264365000Y-251515000D01*
G75*
G02*
X264540000Y-251340000I175000J0D01*
G01*
G37*
G36*
G01*
X263270000Y-251340000D02*
X263620000Y-251340000D01*
G75*
G02*
X263795000Y-251515000I0J-175000D01*
G01*
X263795000Y-252865000D01*
G75*
G02*
X263620000Y-253040000I-175000J0D01*
G01*
X263270000Y-253040000D01*
G75*
G02*
X263095000Y-252865000I0J175000D01*
G01*
X263095000Y-251515000D01*
G75*
G02*
X263270000Y-251340000I175000J0D01*
G01*
G37*
G36*
G01*
X262000000Y-251340000D02*
X262350000Y-251340000D01*
G75*
G02*
X262525000Y-251515000I0J-175000D01*
G01*
X262525000Y-252865000D01*
G75*
G02*
X262350000Y-253040000I-175000J0D01*
G01*
X262000000Y-253040000D01*
G75*
G02*
X261825000Y-252865000I0J175000D01*
G01*
X261825000Y-251515000D01*
G75*
G02*
X262000000Y-251340000I175000J0D01*
G01*
G37*
G36*
G01*
X260730000Y-251340000D02*
X261080000Y-251340000D01*
G75*
G02*
X261255000Y-251515000I0J-175000D01*
G01*
X261255000Y-252865000D01*
G75*
G02*
X261080000Y-253040000I-175000J0D01*
G01*
X260730000Y-253040000D01*
G75*
G02*
X260555000Y-252865000I0J175000D01*
G01*
X260555000Y-251515000D01*
G75*
G02*
X260730000Y-251340000I175000J0D01*
G01*
G37*
G36*
G01*
X259460000Y-251340000D02*
X259810000Y-251340000D01*
G75*
G02*
X259985000Y-251515000I0J-175000D01*
G01*
X259985000Y-252865000D01*
G75*
G02*
X259810000Y-253040000I-175000J0D01*
G01*
X259460000Y-253040000D01*
G75*
G02*
X259285000Y-252865000I0J175000D01*
G01*
X259285000Y-251515000D01*
G75*
G02*
X259460000Y-251340000I175000J0D01*
G01*
G37*
G36*
G01*
X258190000Y-251340000D02*
X258540000Y-251340000D01*
G75*
G02*
X258715000Y-251515000I0J-175000D01*
G01*
X258715000Y-252865000D01*
G75*
G02*
X258540000Y-253040000I-175000J0D01*
G01*
X258190000Y-253040000D01*
G75*
G02*
X258015000Y-252865000I0J175000D01*
G01*
X258015000Y-251515000D01*
G75*
G02*
X258190000Y-251340000I175000J0D01*
G01*
G37*
G36*
G01*
X256920000Y-251340000D02*
X257270000Y-251340000D01*
G75*
G02*
X257445000Y-251515000I0J-175000D01*
G01*
X257445000Y-252865000D01*
G75*
G02*
X257270000Y-253040000I-175000J0D01*
G01*
X256920000Y-253040000D01*
G75*
G02*
X256745000Y-252865000I0J175000D01*
G01*
X256745000Y-251515000D01*
G75*
G02*
X256920000Y-251340000I175000J0D01*
G01*
G37*
G36*
G01*
X255650000Y-251340000D02*
X256000000Y-251340000D01*
G75*
G02*
X256175000Y-251515000I0J-175000D01*
G01*
X256175000Y-252865000D01*
G75*
G02*
X256000000Y-253040000I-175000J0D01*
G01*
X255650000Y-253040000D01*
G75*
G02*
X255475000Y-252865000I0J175000D01*
G01*
X255475000Y-251515000D01*
G75*
G02*
X255650000Y-251340000I175000J0D01*
G01*
G37*
%TD*%
D20*
%TO.C,SW83*%
X456820000Y-159030000D03*
D21*
X449320000Y-156530000D03*
D22*
X449320000Y-159030000D03*
X449320000Y-161530000D03*
D23*
X456820000Y-153430000D03*
X456820000Y-164630000D03*
D22*
X463820000Y-156530000D03*
X463820000Y-161530000D03*
%TD*%
D24*
%TO.C,RN22*%
X440160000Y-189070000D03*
D25*
X440960000Y-189070000D03*
D24*
X442560000Y-189070000D03*
D25*
X441760000Y-189070000D03*
D24*
X440160000Y-190870000D03*
D25*
X441760000Y-190870000D03*
X440960000Y-190870000D03*
D24*
X442560000Y-190870000D03*
%TD*%
%TO.C,RN21*%
X416980000Y-235720000D03*
D25*
X416180000Y-235720000D03*
D24*
X414580000Y-235720000D03*
D25*
X415380000Y-235720000D03*
D24*
X416980000Y-233920000D03*
D25*
X415380000Y-233920000D03*
X416180000Y-233920000D03*
D24*
X414580000Y-233920000D03*
%TD*%
D26*
%TO.C,RN20*%
X408690000Y-228420000D03*
D27*
X408690000Y-229220000D03*
D26*
X408690000Y-230820000D03*
D27*
X408690000Y-230020000D03*
D26*
X406890000Y-228420000D03*
D27*
X406890000Y-230020000D03*
X406890000Y-229220000D03*
D26*
X406890000Y-230820000D03*
%TD*%
D24*
%TO.C,RN19*%
X429560000Y-217960000D03*
D25*
X428760000Y-217960000D03*
D24*
X427160000Y-217960000D03*
D25*
X427960000Y-217960000D03*
D24*
X429560000Y-216160000D03*
D25*
X427960000Y-216160000D03*
X428760000Y-216160000D03*
D24*
X427160000Y-216160000D03*
%TD*%
%TO.C,RN18*%
X393990000Y-195160000D03*
D25*
X393190000Y-195160000D03*
D24*
X391590000Y-195160000D03*
D25*
X392390000Y-195160000D03*
D24*
X393990000Y-193360000D03*
D25*
X392390000Y-193360000D03*
X393190000Y-193360000D03*
D24*
X391590000Y-193360000D03*
%TD*%
D26*
%TO.C,RN17*%
X394350000Y-170650000D03*
D27*
X394350000Y-171450000D03*
D26*
X394350000Y-173050000D03*
D27*
X394350000Y-172250000D03*
D26*
X392550000Y-170650000D03*
D27*
X392550000Y-172250000D03*
X392550000Y-171450000D03*
D26*
X392550000Y-173050000D03*
%TD*%
%TO.C,RN16*%
X353100000Y-169350000D03*
D27*
X353100000Y-170150000D03*
D26*
X353100000Y-171750000D03*
D27*
X353100000Y-170950000D03*
D26*
X351300000Y-169350000D03*
D27*
X351300000Y-170950000D03*
X351300000Y-170150000D03*
D26*
X351300000Y-171750000D03*
%TD*%
%TO.C,RN15*%
X283610000Y-169570000D03*
D27*
X283610000Y-170370000D03*
D26*
X283610000Y-171970000D03*
D27*
X283610000Y-171170000D03*
D26*
X281810000Y-169570000D03*
D27*
X281810000Y-171170000D03*
X281810000Y-170370000D03*
D26*
X281810000Y-171970000D03*
%TD*%
%TO.C,RN14*%
X203170000Y-169700000D03*
D27*
X203170000Y-170500000D03*
D26*
X203170000Y-172100000D03*
D27*
X203170000Y-171300000D03*
D26*
X201370000Y-169700000D03*
D27*
X201370000Y-171300000D03*
X201370000Y-170500000D03*
D26*
X201370000Y-172100000D03*
%TD*%
%TO.C,RN13*%
X246320000Y-257430000D03*
D27*
X246320000Y-258230000D03*
D26*
X246320000Y-259830000D03*
D27*
X246320000Y-259030000D03*
D26*
X244520000Y-257430000D03*
D27*
X244520000Y-259030000D03*
X244520000Y-258230000D03*
D26*
X244520000Y-259830000D03*
%TD*%
%TO.C,RN12*%
X272220000Y-250830000D03*
D27*
X272220000Y-251630000D03*
D26*
X272220000Y-253230000D03*
D27*
X272220000Y-252430000D03*
D26*
X270420000Y-250830000D03*
D27*
X270420000Y-252430000D03*
X270420000Y-251630000D03*
D26*
X270420000Y-253230000D03*
%TD*%
D24*
%TO.C,RN11*%
X443220000Y-161230000D03*
D25*
X442420000Y-161230000D03*
D24*
X440820000Y-161230000D03*
D25*
X441620000Y-161230000D03*
D24*
X443220000Y-159430000D03*
D25*
X441620000Y-159430000D03*
X442420000Y-159430000D03*
D24*
X440820000Y-159430000D03*
%TD*%
%TO.C,RN10*%
X423950000Y-232480000D03*
D25*
X424750000Y-232480000D03*
D24*
X426350000Y-232480000D03*
D25*
X425550000Y-232480000D03*
D24*
X423950000Y-234280000D03*
D25*
X425550000Y-234280000D03*
X424750000Y-234280000D03*
D24*
X426350000Y-234280000D03*
%TD*%
%TO.C,RN9*%
X397920000Y-211750000D03*
D25*
X398720000Y-211750000D03*
D24*
X400320000Y-211750000D03*
D25*
X399520000Y-211750000D03*
D24*
X397920000Y-213550000D03*
D25*
X399520000Y-213550000D03*
X398720000Y-213550000D03*
D24*
X400320000Y-213550000D03*
%TD*%
%TO.C,RN8*%
X427280000Y-190180000D03*
D25*
X428080000Y-190180000D03*
D24*
X429680000Y-190180000D03*
D25*
X428880000Y-190180000D03*
D24*
X427280000Y-191980000D03*
D25*
X428880000Y-191980000D03*
X428080000Y-191980000D03*
D24*
X429680000Y-191980000D03*
%TD*%
%TO.C,RN7*%
X406840000Y-188680000D03*
D25*
X407640000Y-188680000D03*
D24*
X409240000Y-188680000D03*
D25*
X408440000Y-188680000D03*
D24*
X406840000Y-190480000D03*
D25*
X408440000Y-190480000D03*
X407640000Y-190480000D03*
D24*
X409240000Y-190480000D03*
%TD*%
D26*
%TO.C,RN6*%
X370370000Y-173090000D03*
D27*
X370370000Y-172290000D03*
D26*
X370370000Y-170690000D03*
D27*
X370370000Y-171490000D03*
D26*
X372170000Y-173090000D03*
D27*
X372170000Y-171490000D03*
X372170000Y-172290000D03*
D26*
X372170000Y-170690000D03*
%TD*%
%TO.C,RN5*%
X320630000Y-171750000D03*
D27*
X320630000Y-170950000D03*
D26*
X320630000Y-169350000D03*
D27*
X320630000Y-170150000D03*
D26*
X322430000Y-171750000D03*
D27*
X322430000Y-170150000D03*
X322430000Y-170950000D03*
D26*
X322430000Y-169350000D03*
%TD*%
D24*
%TO.C,RN4*%
X266580000Y-170620000D03*
D25*
X267380000Y-170620000D03*
D24*
X268980000Y-170620000D03*
D25*
X268180000Y-170620000D03*
D24*
X266580000Y-172420000D03*
D25*
X268180000Y-172420000D03*
X267380000Y-172420000D03*
D24*
X268980000Y-172420000D03*
%TD*%
D26*
%TO.C,RN3*%
X174590000Y-166770000D03*
D27*
X174590000Y-165970000D03*
D26*
X174590000Y-164370000D03*
D27*
X174590000Y-165170000D03*
D26*
X176390000Y-166770000D03*
D27*
X176390000Y-165170000D03*
X176390000Y-165970000D03*
D26*
X176390000Y-164370000D03*
%TD*%
%TO.C,RN2*%
X223190000Y-259820000D03*
D27*
X223190000Y-259020000D03*
D26*
X223190000Y-257420000D03*
D27*
X223190000Y-258220000D03*
D26*
X224990000Y-259820000D03*
D27*
X224990000Y-258220000D03*
X224990000Y-259020000D03*
D26*
X224990000Y-257420000D03*
%TD*%
%TO.C,RN1*%
X249040000Y-253710000D03*
D27*
X249040000Y-252910000D03*
D26*
X249040000Y-251310000D03*
D27*
X249040000Y-252110000D03*
D26*
X250840000Y-253710000D03*
D27*
X250840000Y-252110000D03*
X250840000Y-252910000D03*
D26*
X250840000Y-251310000D03*
%TD*%
D13*
%TO.C,R7*%
X210620000Y-172830840D03*
X210620000Y-174629160D03*
%TD*%
%TO.C,R6*%
X210620000Y-176330840D03*
X210620000Y-178129160D03*
%TD*%
%TO.C,R5*%
X207720000Y-174529160D03*
X207720000Y-172730840D03*
%TD*%
D28*
%TO.C,R4*%
X196069160Y-149880000D03*
X194270840Y-149880000D03*
%TD*%
%TO.C,R3*%
X196049160Y-152340000D03*
X194250840Y-152340000D03*
%TD*%
D13*
%TO.C,R2*%
X312525000Y-265174160D03*
X312525000Y-263375840D03*
%TD*%
%TO.C,R1*%
X332119000Y-266390160D03*
X332119000Y-264591840D03*
%TD*%
D29*
%TO.C,J2*%
X217576000Y-154910000D03*
X216776000Y-154910000D03*
X217576000Y-154910000D03*
X216776000Y-154910000D03*
X211176000Y-154910000D03*
X211176000Y-154910000D03*
X211976000Y-154910000D03*
X211976000Y-154910000D03*
D30*
X211486000Y-153850000D03*
X217266000Y-153850000D03*
D31*
X216126000Y-154910000D03*
X215126000Y-154910000D03*
X215626000Y-154910000D03*
X213126000Y-154910000D03*
X212626000Y-154910000D03*
X214626000Y-154910000D03*
X214126000Y-154910000D03*
X213626000Y-154910000D03*
D32*
X218696000Y-150160000D03*
X210056000Y-150160000D03*
D33*
X218696000Y-154330000D03*
X210056000Y-154330000D03*
%TD*%
D34*
%TO.C,J1*%
X439171000Y-230114000D03*
X436631000Y-230114000D03*
X434091000Y-230114000D03*
D35*
X431551000Y-230114000D03*
%TD*%
D13*
%TO.C,C8*%
X303493000Y-267549160D03*
X303493000Y-265750840D03*
%TD*%
%TO.C,C7*%
X332290000Y-262379160D03*
X332290000Y-260580840D03*
%TD*%
D28*
%TO.C,C6*%
X329729160Y-251700000D03*
X327930840Y-251700000D03*
%TD*%
D13*
%TO.C,C5*%
X318630000Y-254380840D03*
X318630000Y-256179160D03*
%TD*%
D28*
%TO.C,C4*%
X325624840Y-265512000D03*
X327423160Y-265512000D03*
%TD*%
%TO.C,C3*%
X321435840Y-265512000D03*
X323234160Y-265512000D03*
%TD*%
D13*
%TO.C,C2*%
X303493000Y-261044840D03*
X303493000Y-262843160D03*
%TD*%
%TO.C,C1*%
X329655000Y-266397160D03*
X329655000Y-264598840D03*
%TD*%
M02*
