%TF.GenerationSoftware,KiCad,Pcbnew,(5.1.6)-1*%
%TF.CreationDate,2022-08-21T13:28:18+08:00*%
%TF.ProjectId,feng,66656e67-2e6b-4696-9361-645f70636258,rev?*%
%TF.SameCoordinates,Original*%
%TF.FileFunction,Copper,L2,Bot*%
%TF.FilePolarity,Positive*%
%FSLAX46Y46*%
G04 Gerber Fmt 4.6, Leading zero omitted, Abs format (unit mm)*
G04 Created by KiCad (PCBNEW (5.1.6)-1) date 2022-08-21 13:28:18*
%MOMM*%
%LPD*%
G01*
G04 APERTURE LIST*
%TA.AperFunction,ComponentPad*%
%ADD10C,1.500000*%
%TD*%
%TA.AperFunction,ComponentPad*%
%ADD11R,2.000000X2.000000*%
%TD*%
%TA.AperFunction,ComponentPad*%
%ADD12C,2.000000*%
%TD*%
%TA.AperFunction,ComponentPad*%
%ADD13C,2.800000*%
%TD*%
%TA.AperFunction,ComponentPad*%
%ADD14O,0.900000X1.700000*%
%TD*%
%TA.AperFunction,ComponentPad*%
%ADD15O,0.900000X2.000000*%
%TD*%
%TA.AperFunction,ComponentPad*%
%ADD16O,1.700000X1.700000*%
%TD*%
%TA.AperFunction,ComponentPad*%
%ADD17R,1.700000X1.700000*%
%TD*%
%TA.AperFunction,SMDPad,CuDef*%
%ADD18R,1.500000X1.000000*%
%TD*%
G04 APERTURE END LIST*
D10*
%TO.P,Y1,2*%
%TO.N,Net-(C8-Pad1)*%
X104031000Y-89722040D03*
%TO.P,Y1,1*%
%TO.N,Net-(C2-Pad1)*%
X99151000Y-89722040D03*
%TD*%
D11*
%TO.P,SW83,A*%
%TO.N,Net-(RN22-Pad2)*%
X76901000Y-112072040D03*
D12*
%TO.P,SW83,C*%
%TO.N,GNDPWR*%
X76901000Y-114572040D03*
%TO.P,SW83,B*%
%TO.N,Net-(RN22-Pad1)*%
X76901000Y-117072040D03*
D13*
%TO.P,SW83,MP*%
%TO.N,N/C*%
X84401000Y-108972040D03*
X84401000Y-120172040D03*
D12*
%TO.P,SW83,S1*%
%TO.N,Net-(RN11-Pad4)*%
X91401000Y-112072040D03*
%TO.P,SW83,S2*%
%TO.N,GNDPWR*%
X91401000Y-117072040D03*
%TD*%
%TO.P,SW82,2*%
%TO.N,GNDPWR*%
%TA.AperFunction,SMDPad,CuDef*%
G36*
G01*
X-91832000Y-193142040D02*
X-91832000Y-191142040D01*
G75*
G02*
X-91582000Y-190892040I250000J0D01*
G01*
X-89532000Y-190892040D01*
G75*
G02*
X-89282000Y-191142040I0J-250000D01*
G01*
X-89282000Y-193142040D01*
G75*
G02*
X-89532000Y-193392040I-250000J0D01*
G01*
X-91582000Y-193392040D01*
G75*
G02*
X-91832000Y-193142040I0J250000D01*
G01*
G37*
%TD.AperFunction*%
%TO.P,SW82,1*%
%TO.N,Net-(RN22-Pad3)*%
%TA.AperFunction,SMDPad,CuDef*%
G36*
G01*
X-104759000Y-195682040D02*
X-104759000Y-193682040D01*
G75*
G02*
X-104509000Y-193432040I250000J0D01*
G01*
X-102459000Y-193432040D01*
G75*
G02*
X-102209000Y-193682040I0J-250000D01*
G01*
X-102209000Y-195682040D01*
G75*
G02*
X-102459000Y-195932040I-250000J0D01*
G01*
X-104509000Y-195932040D01*
G75*
G02*
X-104759000Y-195682040I0J250000D01*
G01*
G37*
%TD.AperFunction*%
%TD*%
%TO.P,SW81,2*%
%TO.N,GNDPWR*%
%TA.AperFunction,SMDPad,CuDef*%
G36*
G01*
X-71682000Y-172992040D02*
X-71682000Y-170992040D01*
G75*
G02*
X-71432000Y-170742040I250000J0D01*
G01*
X-69382000Y-170742040D01*
G75*
G02*
X-69132000Y-170992040I0J-250000D01*
G01*
X-69132000Y-172992040D01*
G75*
G02*
X-69382000Y-173242040I-250000J0D01*
G01*
X-71432000Y-173242040D01*
G75*
G02*
X-71682000Y-172992040I0J250000D01*
G01*
G37*
%TD.AperFunction*%
%TO.P,SW81,1*%
%TO.N,Net-(RN22-Pad4)*%
%TA.AperFunction,SMDPad,CuDef*%
G36*
G01*
X-84609000Y-175532040D02*
X-84609000Y-173532040D01*
G75*
G02*
X-84359000Y-173282040I250000J0D01*
G01*
X-82309000Y-173282040D01*
G75*
G02*
X-82059000Y-173532040I0J-250000D01*
G01*
X-82059000Y-175532040D01*
G75*
G02*
X-82309000Y-175782040I-250000J0D01*
G01*
X-84359000Y-175782040D01*
G75*
G02*
X-84609000Y-175532040I0J250000D01*
G01*
G37*
%TD.AperFunction*%
%TD*%
%TO.P,SW80,2*%
%TO.N,GNDPWR*%
%TA.AperFunction,SMDPad,CuDef*%
G36*
G01*
X-51532000Y-152842040D02*
X-51532000Y-150842040D01*
G75*
G02*
X-51282000Y-150592040I250000J0D01*
G01*
X-49232000Y-150592040D01*
G75*
G02*
X-48982000Y-150842040I0J-250000D01*
G01*
X-48982000Y-152842040D01*
G75*
G02*
X-49232000Y-153092040I-250000J0D01*
G01*
X-51282000Y-153092040D01*
G75*
G02*
X-51532000Y-152842040I0J250000D01*
G01*
G37*
%TD.AperFunction*%
%TO.P,SW80,1*%
%TO.N,Net-(RN10-Pad1)*%
%TA.AperFunction,SMDPad,CuDef*%
G36*
G01*
X-64459000Y-155382040D02*
X-64459000Y-153382040D01*
G75*
G02*
X-64209000Y-153132040I250000J0D01*
G01*
X-62159000Y-153132040D01*
G75*
G02*
X-61909000Y-153382040I0J-250000D01*
G01*
X-61909000Y-155382040D01*
G75*
G02*
X-62159000Y-155632040I-250000J0D01*
G01*
X-64209000Y-155632040D01*
G75*
G02*
X-64459000Y-155382040I0J250000D01*
G01*
G37*
%TD.AperFunction*%
%TD*%
%TO.P,SW79,2*%
%TO.N,GNDPWR*%
%TA.AperFunction,SMDPad,CuDef*%
G36*
G01*
X-31382000Y-132692040D02*
X-31382000Y-130692040D01*
G75*
G02*
X-31132000Y-130442040I250000J0D01*
G01*
X-29082000Y-130442040D01*
G75*
G02*
X-28832000Y-130692040I0J-250000D01*
G01*
X-28832000Y-132692040D01*
G75*
G02*
X-29082000Y-132942040I-250000J0D01*
G01*
X-31132000Y-132942040D01*
G75*
G02*
X-31382000Y-132692040I0J250000D01*
G01*
G37*
%TD.AperFunction*%
%TO.P,SW79,1*%
%TO.N,Net-(RN10-Pad2)*%
%TA.AperFunction,SMDPad,CuDef*%
G36*
G01*
X-44309000Y-135232040D02*
X-44309000Y-133232040D01*
G75*
G02*
X-44059000Y-132982040I250000J0D01*
G01*
X-42009000Y-132982040D01*
G75*
G02*
X-41759000Y-133232040I0J-250000D01*
G01*
X-41759000Y-135232040D01*
G75*
G02*
X-42009000Y-135482040I-250000J0D01*
G01*
X-44059000Y-135482040D01*
G75*
G02*
X-44309000Y-135232040I0J250000D01*
G01*
G37*
%TD.AperFunction*%
%TD*%
%TO.P,SW78,2*%
%TO.N,GNDPWR*%
%TA.AperFunction,SMDPad,CuDef*%
G36*
G01*
X-132132000Y-152842040D02*
X-132132000Y-150842040D01*
G75*
G02*
X-131882000Y-150592040I250000J0D01*
G01*
X-129832000Y-150592040D01*
G75*
G02*
X-129582000Y-150842040I0J-250000D01*
G01*
X-129582000Y-152842040D01*
G75*
G02*
X-129832000Y-153092040I-250000J0D01*
G01*
X-131882000Y-153092040D01*
G75*
G02*
X-132132000Y-152842040I0J250000D01*
G01*
G37*
%TD.AperFunction*%
%TO.P,SW78,1*%
%TO.N,Net-(RN10-Pad3)*%
%TA.AperFunction,SMDPad,CuDef*%
G36*
G01*
X-145059000Y-155382040D02*
X-145059000Y-153382040D01*
G75*
G02*
X-144809000Y-153132040I250000J0D01*
G01*
X-142759000Y-153132040D01*
G75*
G02*
X-142509000Y-153382040I0J-250000D01*
G01*
X-142509000Y-155382040D01*
G75*
G02*
X-142759000Y-155632040I-250000J0D01*
G01*
X-144809000Y-155632040D01*
G75*
G02*
X-145059000Y-155382040I0J250000D01*
G01*
G37*
%TD.AperFunction*%
%TD*%
%TO.P,SW77,2*%
%TO.N,GNDPWR*%
%TA.AperFunction,SMDPad,CuDef*%
G36*
G01*
X-152282000Y-112542040D02*
X-152282000Y-110542040D01*
G75*
G02*
X-152032000Y-110292040I250000J0D01*
G01*
X-149982000Y-110292040D01*
G75*
G02*
X-149732000Y-110542040I0J-250000D01*
G01*
X-149732000Y-112542040D01*
G75*
G02*
X-149982000Y-112792040I-250000J0D01*
G01*
X-152032000Y-112792040D01*
G75*
G02*
X-152282000Y-112542040I0J250000D01*
G01*
G37*
%TD.AperFunction*%
%TO.P,SW77,1*%
%TO.N,Net-(RN10-Pad4)*%
%TA.AperFunction,SMDPad,CuDef*%
G36*
G01*
X-165209000Y-115082040D02*
X-165209000Y-113082040D01*
G75*
G02*
X-164959000Y-112832040I250000J0D01*
G01*
X-162909000Y-112832040D01*
G75*
G02*
X-162659000Y-113082040I0J-250000D01*
G01*
X-162659000Y-115082040D01*
G75*
G02*
X-162909000Y-115332040I-250000J0D01*
G01*
X-164959000Y-115332040D01*
G75*
G02*
X-165209000Y-115082040I0J250000D01*
G01*
G37*
%TD.AperFunction*%
%TD*%
%TO.P,SW76,2*%
%TO.N,GNDPWR*%
%TA.AperFunction,SMDPad,CuDef*%
G36*
G01*
X-132132000Y-92392040D02*
X-132132000Y-90392040D01*
G75*
G02*
X-131882000Y-90142040I250000J0D01*
G01*
X-129832000Y-90142040D01*
G75*
G02*
X-129582000Y-90392040I0J-250000D01*
G01*
X-129582000Y-92392040D01*
G75*
G02*
X-129832000Y-92642040I-250000J0D01*
G01*
X-131882000Y-92642040D01*
G75*
G02*
X-132132000Y-92392040I0J250000D01*
G01*
G37*
%TD.AperFunction*%
%TO.P,SW76,1*%
%TO.N,Net-(RN21-Pad1)*%
%TA.AperFunction,SMDPad,CuDef*%
G36*
G01*
X-145059000Y-94932040D02*
X-145059000Y-92932040D01*
G75*
G02*
X-144809000Y-92682040I250000J0D01*
G01*
X-142759000Y-92682040D01*
G75*
G02*
X-142509000Y-92932040I0J-250000D01*
G01*
X-142509000Y-94932040D01*
G75*
G02*
X-142759000Y-95182040I-250000J0D01*
G01*
X-144809000Y-95182040D01*
G75*
G02*
X-145059000Y-94932040I0J250000D01*
G01*
G37*
%TD.AperFunction*%
%TD*%
%TO.P,SW75,2*%
%TO.N,GNDPWR*%
%TA.AperFunction,SMDPad,CuDef*%
G36*
G01*
X-152282000Y-132692040D02*
X-152282000Y-130692040D01*
G75*
G02*
X-152032000Y-130442040I250000J0D01*
G01*
X-149982000Y-130442040D01*
G75*
G02*
X-149732000Y-130692040I0J-250000D01*
G01*
X-149732000Y-132692040D01*
G75*
G02*
X-149982000Y-132942040I-250000J0D01*
G01*
X-152032000Y-132942040D01*
G75*
G02*
X-152282000Y-132692040I0J250000D01*
G01*
G37*
%TD.AperFunction*%
%TO.P,SW75,1*%
%TO.N,Net-(RN21-Pad2)*%
%TA.AperFunction,SMDPad,CuDef*%
G36*
G01*
X-165209000Y-135232040D02*
X-165209000Y-133232040D01*
G75*
G02*
X-164959000Y-132982040I250000J0D01*
G01*
X-162909000Y-132982040D01*
G75*
G02*
X-162659000Y-133232040I0J-250000D01*
G01*
X-162659000Y-135232040D01*
G75*
G02*
X-162909000Y-135482040I-250000J0D01*
G01*
X-164959000Y-135482040D01*
G75*
G02*
X-165209000Y-135232040I0J250000D01*
G01*
G37*
%TD.AperFunction*%
%TD*%
%TO.P,SW74,2*%
%TO.N,GNDPWR*%
%TA.AperFunction,SMDPad,CuDef*%
G36*
G01*
X-132132000Y-112542040D02*
X-132132000Y-110542040D01*
G75*
G02*
X-131882000Y-110292040I250000J0D01*
G01*
X-129832000Y-110292040D01*
G75*
G02*
X-129582000Y-110542040I0J-250000D01*
G01*
X-129582000Y-112542040D01*
G75*
G02*
X-129832000Y-112792040I-250000J0D01*
G01*
X-131882000Y-112792040D01*
G75*
G02*
X-132132000Y-112542040I0J250000D01*
G01*
G37*
%TD.AperFunction*%
%TO.P,SW74,1*%
%TO.N,Net-(RN21-Pad3)*%
%TA.AperFunction,SMDPad,CuDef*%
G36*
G01*
X-145059000Y-115082040D02*
X-145059000Y-113082040D01*
G75*
G02*
X-144809000Y-112832040I250000J0D01*
G01*
X-142759000Y-112832040D01*
G75*
G02*
X-142509000Y-113082040I0J-250000D01*
G01*
X-142509000Y-115082040D01*
G75*
G02*
X-142759000Y-115332040I-250000J0D01*
G01*
X-144809000Y-115332040D01*
G75*
G02*
X-145059000Y-115082040I0J250000D01*
G01*
G37*
%TD.AperFunction*%
%TD*%
%TO.P,SW73,2*%
%TO.N,GNDPWR*%
%TA.AperFunction,SMDPad,CuDef*%
G36*
G01*
X-111982000Y-92392040D02*
X-111982000Y-90392040D01*
G75*
G02*
X-111732000Y-90142040I250000J0D01*
G01*
X-109682000Y-90142040D01*
G75*
G02*
X-109432000Y-90392040I0J-250000D01*
G01*
X-109432000Y-92392040D01*
G75*
G02*
X-109682000Y-92642040I-250000J0D01*
G01*
X-111732000Y-92642040D01*
G75*
G02*
X-111982000Y-92392040I0J250000D01*
G01*
G37*
%TD.AperFunction*%
%TO.P,SW73,1*%
%TO.N,Net-(RN21-Pad4)*%
%TA.AperFunction,SMDPad,CuDef*%
G36*
G01*
X-124909000Y-94932040D02*
X-124909000Y-92932040D01*
G75*
G02*
X-124659000Y-92682040I250000J0D01*
G01*
X-122609000Y-92682040D01*
G75*
G02*
X-122359000Y-92932040I0J-250000D01*
G01*
X-122359000Y-94932040D01*
G75*
G02*
X-122609000Y-95182040I-250000J0D01*
G01*
X-124659000Y-95182040D01*
G75*
G02*
X-124909000Y-94932040I0J250000D01*
G01*
G37*
%TD.AperFunction*%
%TD*%
%TO.P,SW72,2*%
%TO.N,GNDPWR*%
%TA.AperFunction,SMDPad,CuDef*%
G36*
G01*
X-152282000Y-152842040D02*
X-152282000Y-150842040D01*
G75*
G02*
X-152032000Y-150592040I250000J0D01*
G01*
X-149982000Y-150592040D01*
G75*
G02*
X-149732000Y-150842040I0J-250000D01*
G01*
X-149732000Y-152842040D01*
G75*
G02*
X-149982000Y-153092040I-250000J0D01*
G01*
X-152032000Y-153092040D01*
G75*
G02*
X-152282000Y-152842040I0J250000D01*
G01*
G37*
%TD.AperFunction*%
%TO.P,SW72,1*%
%TO.N,Net-(RN9-Pad1)*%
%TA.AperFunction,SMDPad,CuDef*%
G36*
G01*
X-165209000Y-155382040D02*
X-165209000Y-153382040D01*
G75*
G02*
X-164959000Y-153132040I250000J0D01*
G01*
X-162909000Y-153132040D01*
G75*
G02*
X-162659000Y-153382040I0J-250000D01*
G01*
X-162659000Y-155382040D01*
G75*
G02*
X-162909000Y-155632040I-250000J0D01*
G01*
X-164959000Y-155632040D01*
G75*
G02*
X-165209000Y-155382040I0J250000D01*
G01*
G37*
%TD.AperFunction*%
%TD*%
%TO.P,SW71,2*%
%TO.N,GNDPWR*%
%TA.AperFunction,SMDPad,CuDef*%
G36*
G01*
X-132132000Y-132692040D02*
X-132132000Y-130692040D01*
G75*
G02*
X-131882000Y-130442040I250000J0D01*
G01*
X-129832000Y-130442040D01*
G75*
G02*
X-129582000Y-130692040I0J-250000D01*
G01*
X-129582000Y-132692040D01*
G75*
G02*
X-129832000Y-132942040I-250000J0D01*
G01*
X-131882000Y-132942040D01*
G75*
G02*
X-132132000Y-132692040I0J250000D01*
G01*
G37*
%TD.AperFunction*%
%TO.P,SW71,1*%
%TO.N,Net-(RN9-Pad2)*%
%TA.AperFunction,SMDPad,CuDef*%
G36*
G01*
X-145059000Y-135232040D02*
X-145059000Y-133232040D01*
G75*
G02*
X-144809000Y-132982040I250000J0D01*
G01*
X-142759000Y-132982040D01*
G75*
G02*
X-142509000Y-133232040I0J-250000D01*
G01*
X-142509000Y-135232040D01*
G75*
G02*
X-142759000Y-135482040I-250000J0D01*
G01*
X-144809000Y-135482040D01*
G75*
G02*
X-145059000Y-135232040I0J250000D01*
G01*
G37*
%TD.AperFunction*%
%TD*%
%TO.P,SW70,2*%
%TO.N,GNDPWR*%
%TA.AperFunction,SMDPad,CuDef*%
G36*
G01*
X-111982000Y-112542040D02*
X-111982000Y-110542040D01*
G75*
G02*
X-111732000Y-110292040I250000J0D01*
G01*
X-109682000Y-110292040D01*
G75*
G02*
X-109432000Y-110542040I0J-250000D01*
G01*
X-109432000Y-112542040D01*
G75*
G02*
X-109682000Y-112792040I-250000J0D01*
G01*
X-111732000Y-112792040D01*
G75*
G02*
X-111982000Y-112542040I0J250000D01*
G01*
G37*
%TD.AperFunction*%
%TO.P,SW70,1*%
%TO.N,Net-(RN9-Pad3)*%
%TA.AperFunction,SMDPad,CuDef*%
G36*
G01*
X-124909000Y-115082040D02*
X-124909000Y-113082040D01*
G75*
G02*
X-124659000Y-112832040I250000J0D01*
G01*
X-122609000Y-112832040D01*
G75*
G02*
X-122359000Y-113082040I0J-250000D01*
G01*
X-122359000Y-115082040D01*
G75*
G02*
X-122609000Y-115332040I-250000J0D01*
G01*
X-124659000Y-115332040D01*
G75*
G02*
X-124909000Y-115082040I0J250000D01*
G01*
G37*
%TD.AperFunction*%
%TD*%
%TO.P,SW69,2*%
%TO.N,GNDPWR*%
%TA.AperFunction,SMDPad,CuDef*%
G36*
G01*
X-111982000Y-213292040D02*
X-111982000Y-211292040D01*
G75*
G02*
X-111732000Y-211042040I250000J0D01*
G01*
X-109682000Y-211042040D01*
G75*
G02*
X-109432000Y-211292040I0J-250000D01*
G01*
X-109432000Y-213292040D01*
G75*
G02*
X-109682000Y-213542040I-250000J0D01*
G01*
X-111732000Y-213542040D01*
G75*
G02*
X-111982000Y-213292040I0J250000D01*
G01*
G37*
%TD.AperFunction*%
%TO.P,SW69,1*%
%TO.N,Net-(RN9-Pad4)*%
%TA.AperFunction,SMDPad,CuDef*%
G36*
G01*
X-124909000Y-215832040D02*
X-124909000Y-213832040D01*
G75*
G02*
X-124659000Y-213582040I250000J0D01*
G01*
X-122609000Y-213582040D01*
G75*
G02*
X-122359000Y-213832040I0J-250000D01*
G01*
X-122359000Y-215832040D01*
G75*
G02*
X-122609000Y-216082040I-250000J0D01*
G01*
X-124659000Y-216082040D01*
G75*
G02*
X-124909000Y-215832040I0J250000D01*
G01*
G37*
%TD.AperFunction*%
%TD*%
%TO.P,SW68,2*%
%TO.N,GNDPWR*%
%TA.AperFunction,SMDPad,CuDef*%
G36*
G01*
X69368000Y-112542040D02*
X69368000Y-110542040D01*
G75*
G02*
X69618000Y-110292040I250000J0D01*
G01*
X71668000Y-110292040D01*
G75*
G02*
X71918000Y-110542040I0J-250000D01*
G01*
X71918000Y-112542040D01*
G75*
G02*
X71668000Y-112792040I-250000J0D01*
G01*
X69618000Y-112792040D01*
G75*
G02*
X69368000Y-112542040I0J250000D01*
G01*
G37*
%TD.AperFunction*%
%TO.P,SW68,1*%
%TO.N,Net-(RN20-Pad1)*%
%TA.AperFunction,SMDPad,CuDef*%
G36*
G01*
X56441000Y-115082040D02*
X56441000Y-113082040D01*
G75*
G02*
X56691000Y-112832040I250000J0D01*
G01*
X58741000Y-112832040D01*
G75*
G02*
X58991000Y-113082040I0J-250000D01*
G01*
X58991000Y-115082040D01*
G75*
G02*
X58741000Y-115332040I-250000J0D01*
G01*
X56691000Y-115332040D01*
G75*
G02*
X56441000Y-115082040I0J250000D01*
G01*
G37*
%TD.AperFunction*%
%TD*%
%TO.P,SW67,2*%
%TO.N,GNDPWR*%
%TA.AperFunction,SMDPad,CuDef*%
G36*
G01*
X49218000Y-132692040D02*
X49218000Y-130692040D01*
G75*
G02*
X49468000Y-130442040I250000J0D01*
G01*
X51518000Y-130442040D01*
G75*
G02*
X51768000Y-130692040I0J-250000D01*
G01*
X51768000Y-132692040D01*
G75*
G02*
X51518000Y-132942040I-250000J0D01*
G01*
X49468000Y-132942040D01*
G75*
G02*
X49218000Y-132692040I0J250000D01*
G01*
G37*
%TD.AperFunction*%
%TO.P,SW67,1*%
%TO.N,Net-(RN20-Pad2)*%
%TA.AperFunction,SMDPad,CuDef*%
G36*
G01*
X36291000Y-135232040D02*
X36291000Y-133232040D01*
G75*
G02*
X36541000Y-132982040I250000J0D01*
G01*
X38591000Y-132982040D01*
G75*
G02*
X38841000Y-133232040I0J-250000D01*
G01*
X38841000Y-135232040D01*
G75*
G02*
X38591000Y-135482040I-250000J0D01*
G01*
X36541000Y-135482040D01*
G75*
G02*
X36291000Y-135232040I0J250000D01*
G01*
G37*
%TD.AperFunction*%
%TD*%
%TO.P,SW66,2*%
%TO.N,GNDPWR*%
%TA.AperFunction,SMDPad,CuDef*%
G36*
G01*
X29068000Y-152842040D02*
X29068000Y-150842040D01*
G75*
G02*
X29318000Y-150592040I250000J0D01*
G01*
X31368000Y-150592040D01*
G75*
G02*
X31618000Y-150842040I0J-250000D01*
G01*
X31618000Y-152842040D01*
G75*
G02*
X31368000Y-153092040I-250000J0D01*
G01*
X29318000Y-153092040D01*
G75*
G02*
X29068000Y-152842040I0J250000D01*
G01*
G37*
%TD.AperFunction*%
%TO.P,SW66,1*%
%TO.N,Net-(RN20-Pad3)*%
%TA.AperFunction,SMDPad,CuDef*%
G36*
G01*
X16141000Y-155382040D02*
X16141000Y-153382040D01*
G75*
G02*
X16391000Y-153132040I250000J0D01*
G01*
X18441000Y-153132040D01*
G75*
G02*
X18691000Y-153382040I0J-250000D01*
G01*
X18691000Y-155382040D01*
G75*
G02*
X18441000Y-155632040I-250000J0D01*
G01*
X16391000Y-155632040D01*
G75*
G02*
X16141000Y-155382040I0J250000D01*
G01*
G37*
%TD.AperFunction*%
%TD*%
%TO.P,SW65,2*%
%TO.N,GNDPWR*%
%TA.AperFunction,SMDPad,CuDef*%
G36*
G01*
X8918000Y-172992040D02*
X8918000Y-170992040D01*
G75*
G02*
X9168000Y-170742040I250000J0D01*
G01*
X11218000Y-170742040D01*
G75*
G02*
X11468000Y-170992040I0J-250000D01*
G01*
X11468000Y-172992040D01*
G75*
G02*
X11218000Y-173242040I-250000J0D01*
G01*
X9168000Y-173242040D01*
G75*
G02*
X8918000Y-172992040I0J250000D01*
G01*
G37*
%TD.AperFunction*%
%TO.P,SW65,1*%
%TO.N,Net-(RN20-Pad4)*%
%TA.AperFunction,SMDPad,CuDef*%
G36*
G01*
X-4009000Y-175532040D02*
X-4009000Y-173532040D01*
G75*
G02*
X-3759000Y-173282040I250000J0D01*
G01*
X-1709000Y-173282040D01*
G75*
G02*
X-1459000Y-173532040I0J-250000D01*
G01*
X-1459000Y-175532040D01*
G75*
G02*
X-1709000Y-175782040I-250000J0D01*
G01*
X-3759000Y-175782040D01*
G75*
G02*
X-4009000Y-175532040I0J250000D01*
G01*
G37*
%TD.AperFunction*%
%TD*%
%TO.P,SW64,2*%
%TO.N,GNDPWR*%
%TA.AperFunction,SMDPad,CuDef*%
G36*
G01*
X-11232000Y-193142040D02*
X-11232000Y-191142040D01*
G75*
G02*
X-10982000Y-190892040I250000J0D01*
G01*
X-8932000Y-190892040D01*
G75*
G02*
X-8682000Y-191142040I0J-250000D01*
G01*
X-8682000Y-193142040D01*
G75*
G02*
X-8932000Y-193392040I-250000J0D01*
G01*
X-10982000Y-193392040D01*
G75*
G02*
X-11232000Y-193142040I0J250000D01*
G01*
G37*
%TD.AperFunction*%
%TO.P,SW64,1*%
%TO.N,Net-(RN8-Pad1)*%
%TA.AperFunction,SMDPad,CuDef*%
G36*
G01*
X-24159000Y-195682040D02*
X-24159000Y-193682040D01*
G75*
G02*
X-23909000Y-193432040I250000J0D01*
G01*
X-21859000Y-193432040D01*
G75*
G02*
X-21609000Y-193682040I0J-250000D01*
G01*
X-21609000Y-195682040D01*
G75*
G02*
X-21859000Y-195932040I-250000J0D01*
G01*
X-23909000Y-195932040D01*
G75*
G02*
X-24159000Y-195682040I0J250000D01*
G01*
G37*
%TD.AperFunction*%
%TD*%
%TO.P,SW63,2*%
%TO.N,GNDPWR*%
%TA.AperFunction,SMDPad,CuDef*%
G36*
G01*
X-31382000Y-213292040D02*
X-31382000Y-211292040D01*
G75*
G02*
X-31132000Y-211042040I250000J0D01*
G01*
X-29082000Y-211042040D01*
G75*
G02*
X-28832000Y-211292040I0J-250000D01*
G01*
X-28832000Y-213292040D01*
G75*
G02*
X-29082000Y-213542040I-250000J0D01*
G01*
X-31132000Y-213542040D01*
G75*
G02*
X-31382000Y-213292040I0J250000D01*
G01*
G37*
%TD.AperFunction*%
%TO.P,SW63,1*%
%TO.N,Net-(RN8-Pad2)*%
%TA.AperFunction,SMDPad,CuDef*%
G36*
G01*
X-44309000Y-215832040D02*
X-44309000Y-213832040D01*
G75*
G02*
X-44059000Y-213582040I250000J0D01*
G01*
X-42009000Y-213582040D01*
G75*
G02*
X-41759000Y-213832040I0J-250000D01*
G01*
X-41759000Y-215832040D01*
G75*
G02*
X-42009000Y-216082040I-250000J0D01*
G01*
X-44059000Y-216082040D01*
G75*
G02*
X-44309000Y-215832040I0J250000D01*
G01*
G37*
%TD.AperFunction*%
%TD*%
%TO.P,SW62,2*%
%TO.N,GNDPWR*%
%TA.AperFunction,SMDPad,CuDef*%
G36*
G01*
X-51532000Y-233442040D02*
X-51532000Y-231442040D01*
G75*
G02*
X-51282000Y-231192040I250000J0D01*
G01*
X-49232000Y-231192040D01*
G75*
G02*
X-48982000Y-231442040I0J-250000D01*
G01*
X-48982000Y-233442040D01*
G75*
G02*
X-49232000Y-233692040I-250000J0D01*
G01*
X-51282000Y-233692040D01*
G75*
G02*
X-51532000Y-233442040I0J250000D01*
G01*
G37*
%TD.AperFunction*%
%TO.P,SW62,1*%
%TO.N,Net-(RN8-Pad3)*%
%TA.AperFunction,SMDPad,CuDef*%
G36*
G01*
X-64459000Y-235982040D02*
X-64459000Y-233982040D01*
G75*
G02*
X-64209000Y-233732040I250000J0D01*
G01*
X-62159000Y-233732040D01*
G75*
G02*
X-61909000Y-233982040I0J-250000D01*
G01*
X-61909000Y-235982040D01*
G75*
G02*
X-62159000Y-236232040I-250000J0D01*
G01*
X-64209000Y-236232040D01*
G75*
G02*
X-64459000Y-235982040I0J250000D01*
G01*
G37*
%TD.AperFunction*%
%TD*%
%TO.P,SW61,2*%
%TO.N,GNDPWR*%
%TA.AperFunction,SMDPad,CuDef*%
G36*
G01*
X69368000Y-92392040D02*
X69368000Y-90392040D01*
G75*
G02*
X69618000Y-90142040I250000J0D01*
G01*
X71668000Y-90142040D01*
G75*
G02*
X71918000Y-90392040I0J-250000D01*
G01*
X71918000Y-92392040D01*
G75*
G02*
X71668000Y-92642040I-250000J0D01*
G01*
X69618000Y-92642040D01*
G75*
G02*
X69368000Y-92392040I0J250000D01*
G01*
G37*
%TD.AperFunction*%
%TO.P,SW61,1*%
%TO.N,Net-(RN8-Pad4)*%
%TA.AperFunction,SMDPad,CuDef*%
G36*
G01*
X56441000Y-94932040D02*
X56441000Y-92932040D01*
G75*
G02*
X56691000Y-92682040I250000J0D01*
G01*
X58741000Y-92682040D01*
G75*
G02*
X58991000Y-92932040I0J-250000D01*
G01*
X58991000Y-94932040D01*
G75*
G02*
X58741000Y-95182040I-250000J0D01*
G01*
X56691000Y-95182040D01*
G75*
G02*
X56441000Y-94932040I0J250000D01*
G01*
G37*
%TD.AperFunction*%
%TD*%
%TO.P,SW60,2*%
%TO.N,GNDPWR*%
%TA.AperFunction,SMDPad,CuDef*%
G36*
G01*
X49218000Y-112542040D02*
X49218000Y-110542040D01*
G75*
G02*
X49468000Y-110292040I250000J0D01*
G01*
X51518000Y-110292040D01*
G75*
G02*
X51768000Y-110542040I0J-250000D01*
G01*
X51768000Y-112542040D01*
G75*
G02*
X51518000Y-112792040I-250000J0D01*
G01*
X49468000Y-112792040D01*
G75*
G02*
X49218000Y-112542040I0J250000D01*
G01*
G37*
%TD.AperFunction*%
%TO.P,SW60,1*%
%TO.N,Net-(RN19-Pad1)*%
%TA.AperFunction,SMDPad,CuDef*%
G36*
G01*
X36291000Y-115082040D02*
X36291000Y-113082040D01*
G75*
G02*
X36541000Y-112832040I250000J0D01*
G01*
X38591000Y-112832040D01*
G75*
G02*
X38841000Y-113082040I0J-250000D01*
G01*
X38841000Y-115082040D01*
G75*
G02*
X38591000Y-115332040I-250000J0D01*
G01*
X36541000Y-115332040D01*
G75*
G02*
X36291000Y-115082040I0J250000D01*
G01*
G37*
%TD.AperFunction*%
%TD*%
%TO.P,SW59,2*%
%TO.N,GNDPWR*%
%TA.AperFunction,SMDPad,CuDef*%
G36*
G01*
X29068000Y-132692040D02*
X29068000Y-130692040D01*
G75*
G02*
X29318000Y-130442040I250000J0D01*
G01*
X31368000Y-130442040D01*
G75*
G02*
X31618000Y-130692040I0J-250000D01*
G01*
X31618000Y-132692040D01*
G75*
G02*
X31368000Y-132942040I-250000J0D01*
G01*
X29318000Y-132942040D01*
G75*
G02*
X29068000Y-132692040I0J250000D01*
G01*
G37*
%TD.AperFunction*%
%TO.P,SW59,1*%
%TO.N,Net-(RN19-Pad2)*%
%TA.AperFunction,SMDPad,CuDef*%
G36*
G01*
X16141000Y-135232040D02*
X16141000Y-133232040D01*
G75*
G02*
X16391000Y-132982040I250000J0D01*
G01*
X18441000Y-132982040D01*
G75*
G02*
X18691000Y-133232040I0J-250000D01*
G01*
X18691000Y-135232040D01*
G75*
G02*
X18441000Y-135482040I-250000J0D01*
G01*
X16391000Y-135482040D01*
G75*
G02*
X16141000Y-135232040I0J250000D01*
G01*
G37*
%TD.AperFunction*%
%TD*%
%TO.P,SW58,2*%
%TO.N,GNDPWR*%
%TA.AperFunction,SMDPad,CuDef*%
G36*
G01*
X8918000Y-92392040D02*
X8918000Y-90392040D01*
G75*
G02*
X9168000Y-90142040I250000J0D01*
G01*
X11218000Y-90142040D01*
G75*
G02*
X11468000Y-90392040I0J-250000D01*
G01*
X11468000Y-92392040D01*
G75*
G02*
X11218000Y-92642040I-250000J0D01*
G01*
X9168000Y-92642040D01*
G75*
G02*
X8918000Y-92392040I0J250000D01*
G01*
G37*
%TD.AperFunction*%
%TO.P,SW58,1*%
%TO.N,Net-(RN19-Pad3)*%
%TA.AperFunction,SMDPad,CuDef*%
G36*
G01*
X-4009000Y-94932040D02*
X-4009000Y-92932040D01*
G75*
G02*
X-3759000Y-92682040I250000J0D01*
G01*
X-1709000Y-92682040D01*
G75*
G02*
X-1459000Y-92932040I0J-250000D01*
G01*
X-1459000Y-94932040D01*
G75*
G02*
X-1709000Y-95182040I-250000J0D01*
G01*
X-3759000Y-95182040D01*
G75*
G02*
X-4009000Y-94932040I0J250000D01*
G01*
G37*
%TD.AperFunction*%
%TD*%
%TO.P,SW57,2*%
%TO.N,GNDPWR*%
%TA.AperFunction,SMDPad,CuDef*%
G36*
G01*
X-132132000Y-233442040D02*
X-132132000Y-231442040D01*
G75*
G02*
X-131882000Y-231192040I250000J0D01*
G01*
X-129832000Y-231192040D01*
G75*
G02*
X-129582000Y-231442040I0J-250000D01*
G01*
X-129582000Y-233442040D01*
G75*
G02*
X-129832000Y-233692040I-250000J0D01*
G01*
X-131882000Y-233692040D01*
G75*
G02*
X-132132000Y-233442040I0J250000D01*
G01*
G37*
%TD.AperFunction*%
%TO.P,SW57,1*%
%TO.N,Net-(RN19-Pad4)*%
%TA.AperFunction,SMDPad,CuDef*%
G36*
G01*
X-145059000Y-235982040D02*
X-145059000Y-233982040D01*
G75*
G02*
X-144809000Y-233732040I250000J0D01*
G01*
X-142759000Y-233732040D01*
G75*
G02*
X-142509000Y-233982040I0J-250000D01*
G01*
X-142509000Y-235982040D01*
G75*
G02*
X-142759000Y-236232040I-250000J0D01*
G01*
X-144809000Y-236232040D01*
G75*
G02*
X-145059000Y-235982040I0J250000D01*
G01*
G37*
%TD.AperFunction*%
%TD*%
%TO.P,SW56,2*%
%TO.N,GNDPWR*%
%TA.AperFunction,SMDPad,CuDef*%
G36*
G01*
X-91832000Y-152842040D02*
X-91832000Y-150842040D01*
G75*
G02*
X-91582000Y-150592040I250000J0D01*
G01*
X-89532000Y-150592040D01*
G75*
G02*
X-89282000Y-150842040I0J-250000D01*
G01*
X-89282000Y-152842040D01*
G75*
G02*
X-89532000Y-153092040I-250000J0D01*
G01*
X-91582000Y-153092040D01*
G75*
G02*
X-91832000Y-152842040I0J250000D01*
G01*
G37*
%TD.AperFunction*%
%TO.P,SW56,1*%
%TO.N,Net-(RN7-Pad1)*%
%TA.AperFunction,SMDPad,CuDef*%
G36*
G01*
X-104759000Y-155382040D02*
X-104759000Y-153382040D01*
G75*
G02*
X-104509000Y-153132040I250000J0D01*
G01*
X-102459000Y-153132040D01*
G75*
G02*
X-102209000Y-153382040I0J-250000D01*
G01*
X-102209000Y-155382040D01*
G75*
G02*
X-102459000Y-155632040I-250000J0D01*
G01*
X-104509000Y-155632040D01*
G75*
G02*
X-104759000Y-155382040I0J250000D01*
G01*
G37*
%TD.AperFunction*%
%TD*%
%TO.P,SW55,2*%
%TO.N,GNDPWR*%
%TA.AperFunction,SMDPad,CuDef*%
G36*
G01*
X-11232000Y-92392040D02*
X-11232000Y-90392040D01*
G75*
G02*
X-10982000Y-90142040I250000J0D01*
G01*
X-8932000Y-90142040D01*
G75*
G02*
X-8682000Y-90392040I0J-250000D01*
G01*
X-8682000Y-92392040D01*
G75*
G02*
X-8932000Y-92642040I-250000J0D01*
G01*
X-10982000Y-92642040D01*
G75*
G02*
X-11232000Y-92392040I0J250000D01*
G01*
G37*
%TD.AperFunction*%
%TO.P,SW55,1*%
%TO.N,Net-(RN7-Pad2)*%
%TA.AperFunction,SMDPad,CuDef*%
G36*
G01*
X-24159000Y-94932040D02*
X-24159000Y-92932040D01*
G75*
G02*
X-23909000Y-92682040I250000J0D01*
G01*
X-21859000Y-92682040D01*
G75*
G02*
X-21609000Y-92932040I0J-250000D01*
G01*
X-21609000Y-94932040D01*
G75*
G02*
X-21859000Y-95182040I-250000J0D01*
G01*
X-23909000Y-95182040D01*
G75*
G02*
X-24159000Y-94932040I0J250000D01*
G01*
G37*
%TD.AperFunction*%
%TD*%
%TO.P,SW54,2*%
%TO.N,GNDPWR*%
%TA.AperFunction,SMDPad,CuDef*%
G36*
G01*
X-31382000Y-112542040D02*
X-31382000Y-110542040D01*
G75*
G02*
X-31132000Y-110292040I250000J0D01*
G01*
X-29082000Y-110292040D01*
G75*
G02*
X-28832000Y-110542040I0J-250000D01*
G01*
X-28832000Y-112542040D01*
G75*
G02*
X-29082000Y-112792040I-250000J0D01*
G01*
X-31132000Y-112792040D01*
G75*
G02*
X-31382000Y-112542040I0J250000D01*
G01*
G37*
%TD.AperFunction*%
%TO.P,SW54,1*%
%TO.N,Net-(RN7-Pad3)*%
%TA.AperFunction,SMDPad,CuDef*%
G36*
G01*
X-44309000Y-115082040D02*
X-44309000Y-113082040D01*
G75*
G02*
X-44059000Y-112832040I250000J0D01*
G01*
X-42009000Y-112832040D01*
G75*
G02*
X-41759000Y-113082040I0J-250000D01*
G01*
X-41759000Y-115082040D01*
G75*
G02*
X-42009000Y-115332040I-250000J0D01*
G01*
X-44059000Y-115332040D01*
G75*
G02*
X-44309000Y-115082040I0J250000D01*
G01*
G37*
%TD.AperFunction*%
%TD*%
%TO.P,SW53,2*%
%TO.N,GNDPWR*%
%TA.AperFunction,SMDPad,CuDef*%
G36*
G01*
X-51532000Y-132692040D02*
X-51532000Y-130692040D01*
G75*
G02*
X-51282000Y-130442040I250000J0D01*
G01*
X-49232000Y-130442040D01*
G75*
G02*
X-48982000Y-130692040I0J-250000D01*
G01*
X-48982000Y-132692040D01*
G75*
G02*
X-49232000Y-132942040I-250000J0D01*
G01*
X-51282000Y-132942040D01*
G75*
G02*
X-51532000Y-132692040I0J250000D01*
G01*
G37*
%TD.AperFunction*%
%TO.P,SW53,1*%
%TO.N,Net-(RN7-Pad4)*%
%TA.AperFunction,SMDPad,CuDef*%
G36*
G01*
X-64459000Y-135232040D02*
X-64459000Y-133232040D01*
G75*
G02*
X-64209000Y-132982040I250000J0D01*
G01*
X-62159000Y-132982040D01*
G75*
G02*
X-61909000Y-133232040I0J-250000D01*
G01*
X-61909000Y-135232040D01*
G75*
G02*
X-62159000Y-135482040I-250000J0D01*
G01*
X-64209000Y-135482040D01*
G75*
G02*
X-64459000Y-135232040I0J250000D01*
G01*
G37*
%TD.AperFunction*%
%TD*%
%TO.P,SW52,2*%
%TO.N,GNDPWR*%
%TA.AperFunction,SMDPad,CuDef*%
G36*
G01*
X-152282000Y-213292040D02*
X-152282000Y-211292040D01*
G75*
G02*
X-152032000Y-211042040I250000J0D01*
G01*
X-149982000Y-211042040D01*
G75*
G02*
X-149732000Y-211292040I0J-250000D01*
G01*
X-149732000Y-213292040D01*
G75*
G02*
X-149982000Y-213542040I-250000J0D01*
G01*
X-152032000Y-213542040D01*
G75*
G02*
X-152282000Y-213292040I0J250000D01*
G01*
G37*
%TD.AperFunction*%
%TO.P,SW52,1*%
%TO.N,Net-(RN18-Pad1)*%
%TA.AperFunction,SMDPad,CuDef*%
G36*
G01*
X-165209000Y-215832040D02*
X-165209000Y-213832040D01*
G75*
G02*
X-164959000Y-213582040I250000J0D01*
G01*
X-162909000Y-213582040D01*
G75*
G02*
X-162659000Y-213832040I0J-250000D01*
G01*
X-162659000Y-215832040D01*
G75*
G02*
X-162909000Y-216082040I-250000J0D01*
G01*
X-164959000Y-216082040D01*
G75*
G02*
X-165209000Y-215832040I0J250000D01*
G01*
G37*
%TD.AperFunction*%
%TD*%
%TO.P,SW51,2*%
%TO.N,GNDPWR*%
%TA.AperFunction,SMDPad,CuDef*%
G36*
G01*
X-91832000Y-172992040D02*
X-91832000Y-170992040D01*
G75*
G02*
X-91582000Y-170742040I250000J0D01*
G01*
X-89532000Y-170742040D01*
G75*
G02*
X-89282000Y-170992040I0J-250000D01*
G01*
X-89282000Y-172992040D01*
G75*
G02*
X-89532000Y-173242040I-250000J0D01*
G01*
X-91582000Y-173242040D01*
G75*
G02*
X-91832000Y-172992040I0J250000D01*
G01*
G37*
%TD.AperFunction*%
%TO.P,SW51,1*%
%TO.N,Net-(RN18-Pad2)*%
%TA.AperFunction,SMDPad,CuDef*%
G36*
G01*
X-104759000Y-175532040D02*
X-104759000Y-173532040D01*
G75*
G02*
X-104509000Y-173282040I250000J0D01*
G01*
X-102459000Y-173282040D01*
G75*
G02*
X-102209000Y-173532040I0J-250000D01*
G01*
X-102209000Y-175532040D01*
G75*
G02*
X-102459000Y-175782040I-250000J0D01*
G01*
X-104509000Y-175782040D01*
G75*
G02*
X-104759000Y-175532040I0J250000D01*
G01*
G37*
%TD.AperFunction*%
%TD*%
%TO.P,SW50,2*%
%TO.N,GNDPWR*%
%TA.AperFunction,SMDPad,CuDef*%
G36*
G01*
X-111982000Y-193142040D02*
X-111982000Y-191142040D01*
G75*
G02*
X-111732000Y-190892040I250000J0D01*
G01*
X-109682000Y-190892040D01*
G75*
G02*
X-109432000Y-191142040I0J-250000D01*
G01*
X-109432000Y-193142040D01*
G75*
G02*
X-109682000Y-193392040I-250000J0D01*
G01*
X-111732000Y-193392040D01*
G75*
G02*
X-111982000Y-193142040I0J250000D01*
G01*
G37*
%TD.AperFunction*%
%TO.P,SW50,1*%
%TO.N,Net-(RN18-Pad3)*%
%TA.AperFunction,SMDPad,CuDef*%
G36*
G01*
X-124909000Y-195682040D02*
X-124909000Y-193682040D01*
G75*
G02*
X-124659000Y-193432040I250000J0D01*
G01*
X-122609000Y-193432040D01*
G75*
G02*
X-122359000Y-193682040I0J-250000D01*
G01*
X-122359000Y-195682040D01*
G75*
G02*
X-122609000Y-195932040I-250000J0D01*
G01*
X-124659000Y-195932040D01*
G75*
G02*
X-124909000Y-195682040I0J250000D01*
G01*
G37*
%TD.AperFunction*%
%TD*%
%TO.P,SW49,2*%
%TO.N,GNDPWR*%
%TA.AperFunction,SMDPad,CuDef*%
G36*
G01*
X-132132000Y-213292040D02*
X-132132000Y-211292040D01*
G75*
G02*
X-131882000Y-211042040I250000J0D01*
G01*
X-129832000Y-211042040D01*
G75*
G02*
X-129582000Y-211292040I0J-250000D01*
G01*
X-129582000Y-213292040D01*
G75*
G02*
X-129832000Y-213542040I-250000J0D01*
G01*
X-131882000Y-213542040D01*
G75*
G02*
X-132132000Y-213292040I0J250000D01*
G01*
G37*
%TD.AperFunction*%
%TO.P,SW49,1*%
%TO.N,Net-(RN18-Pad4)*%
%TA.AperFunction,SMDPad,CuDef*%
G36*
G01*
X-145059000Y-215832040D02*
X-145059000Y-213832040D01*
G75*
G02*
X-144809000Y-213582040I250000J0D01*
G01*
X-142759000Y-213582040D01*
G75*
G02*
X-142509000Y-213832040I0J-250000D01*
G01*
X-142509000Y-215832040D01*
G75*
G02*
X-142759000Y-216082040I-250000J0D01*
G01*
X-144809000Y-216082040D01*
G75*
G02*
X-145059000Y-215832040I0J250000D01*
G01*
G37*
%TD.AperFunction*%
%TD*%
%TO.P,SW48,2*%
%TO.N,GNDPWR*%
%TA.AperFunction,SMDPad,CuDef*%
G36*
G01*
X-152282000Y-233442040D02*
X-152282000Y-231442040D01*
G75*
G02*
X-152032000Y-231192040I250000J0D01*
G01*
X-149982000Y-231192040D01*
G75*
G02*
X-149732000Y-231442040I0J-250000D01*
G01*
X-149732000Y-233442040D01*
G75*
G02*
X-149982000Y-233692040I-250000J0D01*
G01*
X-152032000Y-233692040D01*
G75*
G02*
X-152282000Y-233442040I0J250000D01*
G01*
G37*
%TD.AperFunction*%
%TO.P,SW48,1*%
%TO.N,Net-(RN6-Pad1)*%
%TA.AperFunction,SMDPad,CuDef*%
G36*
G01*
X-165209000Y-235982040D02*
X-165209000Y-233982040D01*
G75*
G02*
X-164959000Y-233732040I250000J0D01*
G01*
X-162909000Y-233732040D01*
G75*
G02*
X-162659000Y-233982040I0J-250000D01*
G01*
X-162659000Y-235982040D01*
G75*
G02*
X-162909000Y-236232040I-250000J0D01*
G01*
X-164959000Y-236232040D01*
G75*
G02*
X-165209000Y-235982040I0J250000D01*
G01*
G37*
%TD.AperFunction*%
%TD*%
%TO.P,SW47,2*%
%TO.N,GNDPWR*%
%TA.AperFunction,SMDPad,CuDef*%
G36*
G01*
X-31382000Y-92392040D02*
X-31382000Y-90392040D01*
G75*
G02*
X-31132000Y-90142040I250000J0D01*
G01*
X-29082000Y-90142040D01*
G75*
G02*
X-28832000Y-90392040I0J-250000D01*
G01*
X-28832000Y-92392040D01*
G75*
G02*
X-29082000Y-92642040I-250000J0D01*
G01*
X-31132000Y-92642040D01*
G75*
G02*
X-31382000Y-92392040I0J250000D01*
G01*
G37*
%TD.AperFunction*%
%TO.P,SW47,1*%
%TO.N,Net-(RN6-Pad2)*%
%TA.AperFunction,SMDPad,CuDef*%
G36*
G01*
X-44309000Y-94932040D02*
X-44309000Y-92932040D01*
G75*
G02*
X-44059000Y-92682040I250000J0D01*
G01*
X-42009000Y-92682040D01*
G75*
G02*
X-41759000Y-92932040I0J-250000D01*
G01*
X-41759000Y-94932040D01*
G75*
G02*
X-42009000Y-95182040I-250000J0D01*
G01*
X-44059000Y-95182040D01*
G75*
G02*
X-44309000Y-94932040I0J250000D01*
G01*
G37*
%TD.AperFunction*%
%TD*%
%TO.P,SW46,2*%
%TO.N,GNDPWR*%
%TA.AperFunction,SMDPad,CuDef*%
G36*
G01*
X-51532000Y-112542040D02*
X-51532000Y-110542040D01*
G75*
G02*
X-51282000Y-110292040I250000J0D01*
G01*
X-49232000Y-110292040D01*
G75*
G02*
X-48982000Y-110542040I0J-250000D01*
G01*
X-48982000Y-112542040D01*
G75*
G02*
X-49232000Y-112792040I-250000J0D01*
G01*
X-51282000Y-112792040D01*
G75*
G02*
X-51532000Y-112542040I0J250000D01*
G01*
G37*
%TD.AperFunction*%
%TO.P,SW46,1*%
%TO.N,Net-(RN6-Pad3)*%
%TA.AperFunction,SMDPad,CuDef*%
G36*
G01*
X-64459000Y-115082040D02*
X-64459000Y-113082040D01*
G75*
G02*
X-64209000Y-112832040I250000J0D01*
G01*
X-62159000Y-112832040D01*
G75*
G02*
X-61909000Y-113082040I0J-250000D01*
G01*
X-61909000Y-115082040D01*
G75*
G02*
X-62159000Y-115332040I-250000J0D01*
G01*
X-64209000Y-115332040D01*
G75*
G02*
X-64459000Y-115082040I0J250000D01*
G01*
G37*
%TD.AperFunction*%
%TD*%
%TO.P,SW45,2*%
%TO.N,GNDPWR*%
%TA.AperFunction,SMDPad,CuDef*%
G36*
G01*
X-71682000Y-132692040D02*
X-71682000Y-130692040D01*
G75*
G02*
X-71432000Y-130442040I250000J0D01*
G01*
X-69382000Y-130442040D01*
G75*
G02*
X-69132000Y-130692040I0J-250000D01*
G01*
X-69132000Y-132692040D01*
G75*
G02*
X-69382000Y-132942040I-250000J0D01*
G01*
X-71432000Y-132942040D01*
G75*
G02*
X-71682000Y-132692040I0J250000D01*
G01*
G37*
%TD.AperFunction*%
%TO.P,SW45,1*%
%TO.N,Net-(RN6-Pad4)*%
%TA.AperFunction,SMDPad,CuDef*%
G36*
G01*
X-84609000Y-135232040D02*
X-84609000Y-133232040D01*
G75*
G02*
X-84359000Y-132982040I250000J0D01*
G01*
X-82309000Y-132982040D01*
G75*
G02*
X-82059000Y-133232040I0J-250000D01*
G01*
X-82059000Y-135232040D01*
G75*
G02*
X-82309000Y-135482040I-250000J0D01*
G01*
X-84359000Y-135482040D01*
G75*
G02*
X-84609000Y-135232040I0J250000D01*
G01*
G37*
%TD.AperFunction*%
%TD*%
%TO.P,SW44,2*%
%TO.N,GNDPWR*%
%TA.AperFunction,SMDPad,CuDef*%
G36*
G01*
X-132132000Y-193142040D02*
X-132132000Y-191142040D01*
G75*
G02*
X-131882000Y-190892040I250000J0D01*
G01*
X-129832000Y-190892040D01*
G75*
G02*
X-129582000Y-191142040I0J-250000D01*
G01*
X-129582000Y-193142040D01*
G75*
G02*
X-129832000Y-193392040I-250000J0D01*
G01*
X-131882000Y-193392040D01*
G75*
G02*
X-132132000Y-193142040I0J250000D01*
G01*
G37*
%TD.AperFunction*%
%TO.P,SW44,1*%
%TO.N,Net-(RN17-Pad1)*%
%TA.AperFunction,SMDPad,CuDef*%
G36*
G01*
X-145059000Y-195682040D02*
X-145059000Y-193682040D01*
G75*
G02*
X-144809000Y-193432040I250000J0D01*
G01*
X-142759000Y-193432040D01*
G75*
G02*
X-142509000Y-193682040I0J-250000D01*
G01*
X-142509000Y-195682040D01*
G75*
G02*
X-142759000Y-195932040I-250000J0D01*
G01*
X-144809000Y-195932040D01*
G75*
G02*
X-145059000Y-195682040I0J250000D01*
G01*
G37*
%TD.AperFunction*%
%TD*%
%TO.P,SW43,2*%
%TO.N,GNDPWR*%
%TA.AperFunction,SMDPad,CuDef*%
G36*
G01*
X-111982000Y-172992040D02*
X-111982000Y-170992040D01*
G75*
G02*
X-111732000Y-170742040I250000J0D01*
G01*
X-109682000Y-170742040D01*
G75*
G02*
X-109432000Y-170992040I0J-250000D01*
G01*
X-109432000Y-172992040D01*
G75*
G02*
X-109682000Y-173242040I-250000J0D01*
G01*
X-111732000Y-173242040D01*
G75*
G02*
X-111982000Y-172992040I0J250000D01*
G01*
G37*
%TD.AperFunction*%
%TO.P,SW43,1*%
%TO.N,Net-(RN17-Pad2)*%
%TA.AperFunction,SMDPad,CuDef*%
G36*
G01*
X-124909000Y-175532040D02*
X-124909000Y-173532040D01*
G75*
G02*
X-124659000Y-173282040I250000J0D01*
G01*
X-122609000Y-173282040D01*
G75*
G02*
X-122359000Y-173532040I0J-250000D01*
G01*
X-122359000Y-175532040D01*
G75*
G02*
X-122609000Y-175782040I-250000J0D01*
G01*
X-124659000Y-175782040D01*
G75*
G02*
X-124909000Y-175532040I0J250000D01*
G01*
G37*
%TD.AperFunction*%
%TD*%
%TO.P,SW42,2*%
%TO.N,GNDPWR*%
%TA.AperFunction,SMDPad,CuDef*%
G36*
G01*
X-51532000Y-92392040D02*
X-51532000Y-90392040D01*
G75*
G02*
X-51282000Y-90142040I250000J0D01*
G01*
X-49232000Y-90142040D01*
G75*
G02*
X-48982000Y-90392040I0J-250000D01*
G01*
X-48982000Y-92392040D01*
G75*
G02*
X-49232000Y-92642040I-250000J0D01*
G01*
X-51282000Y-92642040D01*
G75*
G02*
X-51532000Y-92392040I0J250000D01*
G01*
G37*
%TD.AperFunction*%
%TO.P,SW42,1*%
%TO.N,Net-(RN17-Pad3)*%
%TA.AperFunction,SMDPad,CuDef*%
G36*
G01*
X-64459000Y-94932040D02*
X-64459000Y-92932040D01*
G75*
G02*
X-64209000Y-92682040I250000J0D01*
G01*
X-62159000Y-92682040D01*
G75*
G02*
X-61909000Y-92932040I0J-250000D01*
G01*
X-61909000Y-94932040D01*
G75*
G02*
X-62159000Y-95182040I-250000J0D01*
G01*
X-64209000Y-95182040D01*
G75*
G02*
X-64459000Y-94932040I0J250000D01*
G01*
G37*
%TD.AperFunction*%
%TD*%
%TO.P,SW41,2*%
%TO.N,GNDPWR*%
%TA.AperFunction,SMDPad,CuDef*%
G36*
G01*
X-11232000Y-213292040D02*
X-11232000Y-211292040D01*
G75*
G02*
X-10982000Y-211042040I250000J0D01*
G01*
X-8932000Y-211042040D01*
G75*
G02*
X-8682000Y-211292040I0J-250000D01*
G01*
X-8682000Y-213292040D01*
G75*
G02*
X-8932000Y-213542040I-250000J0D01*
G01*
X-10982000Y-213542040D01*
G75*
G02*
X-11232000Y-213292040I0J250000D01*
G01*
G37*
%TD.AperFunction*%
%TO.P,SW41,1*%
%TO.N,Net-(RN17-Pad4)*%
%TA.AperFunction,SMDPad,CuDef*%
G36*
G01*
X-24159000Y-215832040D02*
X-24159000Y-213832040D01*
G75*
G02*
X-23909000Y-213582040I250000J0D01*
G01*
X-21859000Y-213582040D01*
G75*
G02*
X-21609000Y-213832040I0J-250000D01*
G01*
X-21609000Y-215832040D01*
G75*
G02*
X-21859000Y-216082040I-250000J0D01*
G01*
X-23909000Y-216082040D01*
G75*
G02*
X-24159000Y-215832040I0J250000D01*
G01*
G37*
%TD.AperFunction*%
%TD*%
%TO.P,SW40,2*%
%TO.N,GNDPWR*%
%TA.AperFunction,SMDPad,CuDef*%
G36*
G01*
X8918000Y-193142040D02*
X8918000Y-191142040D01*
G75*
G02*
X9168000Y-190892040I250000J0D01*
G01*
X11218000Y-190892040D01*
G75*
G02*
X11468000Y-191142040I0J-250000D01*
G01*
X11468000Y-193142040D01*
G75*
G02*
X11218000Y-193392040I-250000J0D01*
G01*
X9168000Y-193392040D01*
G75*
G02*
X8918000Y-193142040I0J250000D01*
G01*
G37*
%TD.AperFunction*%
%TO.P,SW40,1*%
%TO.N,Net-(RN5-Pad1)*%
%TA.AperFunction,SMDPad,CuDef*%
G36*
G01*
X-4009000Y-195682040D02*
X-4009000Y-193682040D01*
G75*
G02*
X-3759000Y-193432040I250000J0D01*
G01*
X-1709000Y-193432040D01*
G75*
G02*
X-1459000Y-193682040I0J-250000D01*
G01*
X-1459000Y-195682040D01*
G75*
G02*
X-1709000Y-195932040I-250000J0D01*
G01*
X-3759000Y-195932040D01*
G75*
G02*
X-4009000Y-195682040I0J250000D01*
G01*
G37*
%TD.AperFunction*%
%TD*%
%TO.P,SW39,2*%
%TO.N,GNDPWR*%
%TA.AperFunction,SMDPad,CuDef*%
G36*
G01*
X29068000Y-172992040D02*
X29068000Y-170992040D01*
G75*
G02*
X29318000Y-170742040I250000J0D01*
G01*
X31368000Y-170742040D01*
G75*
G02*
X31618000Y-170992040I0J-250000D01*
G01*
X31618000Y-172992040D01*
G75*
G02*
X31368000Y-173242040I-250000J0D01*
G01*
X29318000Y-173242040D01*
G75*
G02*
X29068000Y-172992040I0J250000D01*
G01*
G37*
%TD.AperFunction*%
%TO.P,SW39,1*%
%TO.N,Net-(RN5-Pad2)*%
%TA.AperFunction,SMDPad,CuDef*%
G36*
G01*
X16141000Y-175532040D02*
X16141000Y-173532040D01*
G75*
G02*
X16391000Y-173282040I250000J0D01*
G01*
X18441000Y-173282040D01*
G75*
G02*
X18691000Y-173532040I0J-250000D01*
G01*
X18691000Y-175532040D01*
G75*
G02*
X18441000Y-175782040I-250000J0D01*
G01*
X16391000Y-175782040D01*
G75*
G02*
X16141000Y-175532040I0J250000D01*
G01*
G37*
%TD.AperFunction*%
%TD*%
%TO.P,SW38,2*%
%TO.N,GNDPWR*%
%TA.AperFunction,SMDPad,CuDef*%
G36*
G01*
X49218000Y-152842040D02*
X49218000Y-150842040D01*
G75*
G02*
X49468000Y-150592040I250000J0D01*
G01*
X51518000Y-150592040D01*
G75*
G02*
X51768000Y-150842040I0J-250000D01*
G01*
X51768000Y-152842040D01*
G75*
G02*
X51518000Y-153092040I-250000J0D01*
G01*
X49468000Y-153092040D01*
G75*
G02*
X49218000Y-152842040I0J250000D01*
G01*
G37*
%TD.AperFunction*%
%TO.P,SW38,1*%
%TO.N,Net-(RN5-Pad3)*%
%TA.AperFunction,SMDPad,CuDef*%
G36*
G01*
X36291000Y-155382040D02*
X36291000Y-153382040D01*
G75*
G02*
X36541000Y-153132040I250000J0D01*
G01*
X38591000Y-153132040D01*
G75*
G02*
X38841000Y-153382040I0J-250000D01*
G01*
X38841000Y-155382040D01*
G75*
G02*
X38591000Y-155632040I-250000J0D01*
G01*
X36541000Y-155632040D01*
G75*
G02*
X36291000Y-155382040I0J250000D01*
G01*
G37*
%TD.AperFunction*%
%TD*%
%TO.P,SW37,2*%
%TO.N,GNDPWR*%
%TA.AperFunction,SMDPad,CuDef*%
G36*
G01*
X8918000Y-152842040D02*
X8918000Y-150842040D01*
G75*
G02*
X9168000Y-150592040I250000J0D01*
G01*
X11218000Y-150592040D01*
G75*
G02*
X11468000Y-150842040I0J-250000D01*
G01*
X11468000Y-152842040D01*
G75*
G02*
X11218000Y-153092040I-250000J0D01*
G01*
X9168000Y-153092040D01*
G75*
G02*
X8918000Y-152842040I0J250000D01*
G01*
G37*
%TD.AperFunction*%
%TO.P,SW37,1*%
%TO.N,Net-(RN5-Pad4)*%
%TA.AperFunction,SMDPad,CuDef*%
G36*
G01*
X-4009000Y-155382040D02*
X-4009000Y-153382040D01*
G75*
G02*
X-3759000Y-153132040I250000J0D01*
G01*
X-1709000Y-153132040D01*
G75*
G02*
X-1459000Y-153382040I0J-250000D01*
G01*
X-1459000Y-155382040D01*
G75*
G02*
X-1709000Y-155632040I-250000J0D01*
G01*
X-3759000Y-155632040D01*
G75*
G02*
X-4009000Y-155382040I0J250000D01*
G01*
G37*
%TD.AperFunction*%
%TD*%
%TO.P,SW36,2*%
%TO.N,GNDPWR*%
%TA.AperFunction,SMDPad,CuDef*%
G36*
G01*
X69368000Y-132692040D02*
X69368000Y-130692040D01*
G75*
G02*
X69618000Y-130442040I250000J0D01*
G01*
X71668000Y-130442040D01*
G75*
G02*
X71918000Y-130692040I0J-250000D01*
G01*
X71918000Y-132692040D01*
G75*
G02*
X71668000Y-132942040I-250000J0D01*
G01*
X69618000Y-132942040D01*
G75*
G02*
X69368000Y-132692040I0J250000D01*
G01*
G37*
%TD.AperFunction*%
%TO.P,SW36,1*%
%TO.N,Net-(RN16-Pad1)*%
%TA.AperFunction,SMDPad,CuDef*%
G36*
G01*
X56441000Y-135232040D02*
X56441000Y-133232040D01*
G75*
G02*
X56691000Y-132982040I250000J0D01*
G01*
X58741000Y-132982040D01*
G75*
G02*
X58991000Y-133232040I0J-250000D01*
G01*
X58991000Y-135232040D01*
G75*
G02*
X58741000Y-135482040I-250000J0D01*
G01*
X56691000Y-135482040D01*
G75*
G02*
X56441000Y-135232040I0J250000D01*
G01*
G37*
%TD.AperFunction*%
%TD*%
%TO.P,SW35,2*%
%TO.N,GNDPWR*%
%TA.AperFunction,SMDPad,CuDef*%
G36*
G01*
X-71682000Y-213292040D02*
X-71682000Y-211292040D01*
G75*
G02*
X-71432000Y-211042040I250000J0D01*
G01*
X-69382000Y-211042040D01*
G75*
G02*
X-69132000Y-211292040I0J-250000D01*
G01*
X-69132000Y-213292040D01*
G75*
G02*
X-69382000Y-213542040I-250000J0D01*
G01*
X-71432000Y-213542040D01*
G75*
G02*
X-71682000Y-213292040I0J250000D01*
G01*
G37*
%TD.AperFunction*%
%TO.P,SW35,1*%
%TO.N,Net-(RN16-Pad2)*%
%TA.AperFunction,SMDPad,CuDef*%
G36*
G01*
X-84609000Y-215832040D02*
X-84609000Y-213832040D01*
G75*
G02*
X-84359000Y-213582040I250000J0D01*
G01*
X-82309000Y-213582040D01*
G75*
G02*
X-82059000Y-213832040I0J-250000D01*
G01*
X-82059000Y-215832040D01*
G75*
G02*
X-82309000Y-216082040I-250000J0D01*
G01*
X-84359000Y-216082040D01*
G75*
G02*
X-84609000Y-215832040I0J250000D01*
G01*
G37*
%TD.AperFunction*%
%TD*%
%TO.P,SW34,2*%
%TO.N,GNDPWR*%
%TA.AperFunction,SMDPad,CuDef*%
G36*
G01*
X-111982000Y-233442040D02*
X-111982000Y-231442040D01*
G75*
G02*
X-111732000Y-231192040I250000J0D01*
G01*
X-109682000Y-231192040D01*
G75*
G02*
X-109432000Y-231442040I0J-250000D01*
G01*
X-109432000Y-233442040D01*
G75*
G02*
X-109682000Y-233692040I-250000J0D01*
G01*
X-111732000Y-233692040D01*
G75*
G02*
X-111982000Y-233442040I0J250000D01*
G01*
G37*
%TD.AperFunction*%
%TO.P,SW34,1*%
%TO.N,Net-(RN16-Pad3)*%
%TA.AperFunction,SMDPad,CuDef*%
G36*
G01*
X-124909000Y-235982040D02*
X-124909000Y-233982040D01*
G75*
G02*
X-124659000Y-233732040I250000J0D01*
G01*
X-122609000Y-233732040D01*
G75*
G02*
X-122359000Y-233982040I0J-250000D01*
G01*
X-122359000Y-235982040D01*
G75*
G02*
X-122609000Y-236232040I-250000J0D01*
G01*
X-124659000Y-236232040D01*
G75*
G02*
X-124909000Y-235982040I0J250000D01*
G01*
G37*
%TD.AperFunction*%
%TD*%
%TO.P,SW33,2*%
%TO.N,GNDPWR*%
%TA.AperFunction,SMDPad,CuDef*%
G36*
G01*
X-91832000Y-213292040D02*
X-91832000Y-211292040D01*
G75*
G02*
X-91582000Y-211042040I250000J0D01*
G01*
X-89532000Y-211042040D01*
G75*
G02*
X-89282000Y-211292040I0J-250000D01*
G01*
X-89282000Y-213292040D01*
G75*
G02*
X-89532000Y-213542040I-250000J0D01*
G01*
X-91582000Y-213542040D01*
G75*
G02*
X-91832000Y-213292040I0J250000D01*
G01*
G37*
%TD.AperFunction*%
%TO.P,SW33,1*%
%TO.N,Net-(RN16-Pad4)*%
%TA.AperFunction,SMDPad,CuDef*%
G36*
G01*
X-104759000Y-215832040D02*
X-104759000Y-213832040D01*
G75*
G02*
X-104509000Y-213582040I250000J0D01*
G01*
X-102459000Y-213582040D01*
G75*
G02*
X-102209000Y-213832040I0J-250000D01*
G01*
X-102209000Y-215832040D01*
G75*
G02*
X-102459000Y-216082040I-250000J0D01*
G01*
X-104509000Y-216082040D01*
G75*
G02*
X-104759000Y-215832040I0J250000D01*
G01*
G37*
%TD.AperFunction*%
%TD*%
%TO.P,SW32,2*%
%TO.N,GNDPWR*%
%TA.AperFunction,SMDPad,CuDef*%
G36*
G01*
X-71682000Y-193142040D02*
X-71682000Y-191142040D01*
G75*
G02*
X-71432000Y-190892040I250000J0D01*
G01*
X-69382000Y-190892040D01*
G75*
G02*
X-69132000Y-191142040I0J-250000D01*
G01*
X-69132000Y-193142040D01*
G75*
G02*
X-69382000Y-193392040I-250000J0D01*
G01*
X-71432000Y-193392040D01*
G75*
G02*
X-71682000Y-193142040I0J250000D01*
G01*
G37*
%TD.AperFunction*%
%TO.P,SW32,1*%
%TO.N,Net-(RN4-Pad1)*%
%TA.AperFunction,SMDPad,CuDef*%
G36*
G01*
X-84609000Y-195682040D02*
X-84609000Y-193682040D01*
G75*
G02*
X-84359000Y-193432040I250000J0D01*
G01*
X-82309000Y-193432040D01*
G75*
G02*
X-82059000Y-193682040I0J-250000D01*
G01*
X-82059000Y-195682040D01*
G75*
G02*
X-82309000Y-195932040I-250000J0D01*
G01*
X-84359000Y-195932040D01*
G75*
G02*
X-84609000Y-195682040I0J250000D01*
G01*
G37*
%TD.AperFunction*%
%TD*%
%TO.P,SW31,2*%
%TO.N,GNDPWR*%
%TA.AperFunction,SMDPad,CuDef*%
G36*
G01*
X-51532000Y-172992040D02*
X-51532000Y-170992040D01*
G75*
G02*
X-51282000Y-170742040I250000J0D01*
G01*
X-49232000Y-170742040D01*
G75*
G02*
X-48982000Y-170992040I0J-250000D01*
G01*
X-48982000Y-172992040D01*
G75*
G02*
X-49232000Y-173242040I-250000J0D01*
G01*
X-51282000Y-173242040D01*
G75*
G02*
X-51532000Y-172992040I0J250000D01*
G01*
G37*
%TD.AperFunction*%
%TO.P,SW31,1*%
%TO.N,Net-(RN4-Pad2)*%
%TA.AperFunction,SMDPad,CuDef*%
G36*
G01*
X-64459000Y-175532040D02*
X-64459000Y-173532040D01*
G75*
G02*
X-64209000Y-173282040I250000J0D01*
G01*
X-62159000Y-173282040D01*
G75*
G02*
X-61909000Y-173532040I0J-250000D01*
G01*
X-61909000Y-175532040D01*
G75*
G02*
X-62159000Y-175782040I-250000J0D01*
G01*
X-64209000Y-175782040D01*
G75*
G02*
X-64459000Y-175532040I0J250000D01*
G01*
G37*
%TD.AperFunction*%
%TD*%
%TO.P,SW30,2*%
%TO.N,GNDPWR*%
%TA.AperFunction,SMDPad,CuDef*%
G36*
G01*
X-31382000Y-152842040D02*
X-31382000Y-150842040D01*
G75*
G02*
X-31132000Y-150592040I250000J0D01*
G01*
X-29082000Y-150592040D01*
G75*
G02*
X-28832000Y-150842040I0J-250000D01*
G01*
X-28832000Y-152842040D01*
G75*
G02*
X-29082000Y-153092040I-250000J0D01*
G01*
X-31132000Y-153092040D01*
G75*
G02*
X-31382000Y-152842040I0J250000D01*
G01*
G37*
%TD.AperFunction*%
%TO.P,SW30,1*%
%TO.N,Net-(RN4-Pad3)*%
%TA.AperFunction,SMDPad,CuDef*%
G36*
G01*
X-44309000Y-155382040D02*
X-44309000Y-153382040D01*
G75*
G02*
X-44059000Y-153132040I250000J0D01*
G01*
X-42009000Y-153132040D01*
G75*
G02*
X-41759000Y-153382040I0J-250000D01*
G01*
X-41759000Y-155382040D01*
G75*
G02*
X-42009000Y-155632040I-250000J0D01*
G01*
X-44059000Y-155632040D01*
G75*
G02*
X-44309000Y-155382040I0J250000D01*
G01*
G37*
%TD.AperFunction*%
%TD*%
%TO.P,SW29,2*%
%TO.N,GNDPWR*%
%TA.AperFunction,SMDPad,CuDef*%
G36*
G01*
X-11232000Y-132692040D02*
X-11232000Y-130692040D01*
G75*
G02*
X-10982000Y-130442040I250000J0D01*
G01*
X-8932000Y-130442040D01*
G75*
G02*
X-8682000Y-130692040I0J-250000D01*
G01*
X-8682000Y-132692040D01*
G75*
G02*
X-8932000Y-132942040I-250000J0D01*
G01*
X-10982000Y-132942040D01*
G75*
G02*
X-11232000Y-132692040I0J250000D01*
G01*
G37*
%TD.AperFunction*%
%TO.P,SW29,1*%
%TO.N,Net-(RN4-Pad4)*%
%TA.AperFunction,SMDPad,CuDef*%
G36*
G01*
X-24159000Y-135232040D02*
X-24159000Y-133232040D01*
G75*
G02*
X-23909000Y-132982040I250000J0D01*
G01*
X-21859000Y-132982040D01*
G75*
G02*
X-21609000Y-133232040I0J-250000D01*
G01*
X-21609000Y-135232040D01*
G75*
G02*
X-21859000Y-135482040I-250000J0D01*
G01*
X-23909000Y-135482040D01*
G75*
G02*
X-24159000Y-135232040I0J250000D01*
G01*
G37*
%TD.AperFunction*%
%TD*%
%TO.P,SW28,2*%
%TO.N,GNDPWR*%
%TA.AperFunction,SMDPad,CuDef*%
G36*
G01*
X89518000Y-92392040D02*
X89518000Y-90392040D01*
G75*
G02*
X89768000Y-90142040I250000J0D01*
G01*
X91818000Y-90142040D01*
G75*
G02*
X92068000Y-90392040I0J-250000D01*
G01*
X92068000Y-92392040D01*
G75*
G02*
X91818000Y-92642040I-250000J0D01*
G01*
X89768000Y-92642040D01*
G75*
G02*
X89518000Y-92392040I0J250000D01*
G01*
G37*
%TD.AperFunction*%
%TO.P,SW28,1*%
%TO.N,Net-(RN15-Pad1)*%
%TA.AperFunction,SMDPad,CuDef*%
G36*
G01*
X76591000Y-94932040D02*
X76591000Y-92932040D01*
G75*
G02*
X76841000Y-92682040I250000J0D01*
G01*
X78891000Y-92682040D01*
G75*
G02*
X79141000Y-92932040I0J-250000D01*
G01*
X79141000Y-94932040D01*
G75*
G02*
X78891000Y-95182040I-250000J0D01*
G01*
X76841000Y-95182040D01*
G75*
G02*
X76591000Y-94932040I0J250000D01*
G01*
G37*
%TD.AperFunction*%
%TD*%
%TO.P,SW27,2*%
%TO.N,GNDPWR*%
%TA.AperFunction,SMDPad,CuDef*%
G36*
G01*
X29068000Y-92392040D02*
X29068000Y-90392040D01*
G75*
G02*
X29318000Y-90142040I250000J0D01*
G01*
X31368000Y-90142040D01*
G75*
G02*
X31618000Y-90392040I0J-250000D01*
G01*
X31618000Y-92392040D01*
G75*
G02*
X31368000Y-92642040I-250000J0D01*
G01*
X29318000Y-92642040D01*
G75*
G02*
X29068000Y-92392040I0J250000D01*
G01*
G37*
%TD.AperFunction*%
%TO.P,SW27,1*%
%TO.N,Net-(RN15-Pad2)*%
%TA.AperFunction,SMDPad,CuDef*%
G36*
G01*
X16141000Y-94932040D02*
X16141000Y-92932040D01*
G75*
G02*
X16391000Y-92682040I250000J0D01*
G01*
X18441000Y-92682040D01*
G75*
G02*
X18691000Y-92932040I0J-250000D01*
G01*
X18691000Y-94932040D01*
G75*
G02*
X18441000Y-95182040I-250000J0D01*
G01*
X16391000Y-95182040D01*
G75*
G02*
X16141000Y-94932040I0J250000D01*
G01*
G37*
%TD.AperFunction*%
%TD*%
%TO.P,SW26,2*%
%TO.N,GNDPWR*%
%TA.AperFunction,SMDPad,CuDef*%
G36*
G01*
X-91832000Y-233442040D02*
X-91832000Y-231442040D01*
G75*
G02*
X-91582000Y-231192040I250000J0D01*
G01*
X-89532000Y-231192040D01*
G75*
G02*
X-89282000Y-231442040I0J-250000D01*
G01*
X-89282000Y-233442040D01*
G75*
G02*
X-89532000Y-233692040I-250000J0D01*
G01*
X-91582000Y-233692040D01*
G75*
G02*
X-91832000Y-233442040I0J250000D01*
G01*
G37*
%TD.AperFunction*%
%TO.P,SW26,1*%
%TO.N,Net-(RN15-Pad3)*%
%TA.AperFunction,SMDPad,CuDef*%
G36*
G01*
X-104759000Y-235982040D02*
X-104759000Y-233982040D01*
G75*
G02*
X-104509000Y-233732040I250000J0D01*
G01*
X-102459000Y-233732040D01*
G75*
G02*
X-102209000Y-233982040I0J-250000D01*
G01*
X-102209000Y-235982040D01*
G75*
G02*
X-102459000Y-236232040I-250000J0D01*
G01*
X-104509000Y-236232040D01*
G75*
G02*
X-104759000Y-235982040I0J250000D01*
G01*
G37*
%TD.AperFunction*%
%TD*%
%TO.P,SW25,2*%
%TO.N,GNDPWR*%
%TA.AperFunction,SMDPad,CuDef*%
G36*
G01*
X-11232000Y-112542040D02*
X-11232000Y-110542040D01*
G75*
G02*
X-10982000Y-110292040I250000J0D01*
G01*
X-8932000Y-110292040D01*
G75*
G02*
X-8682000Y-110542040I0J-250000D01*
G01*
X-8682000Y-112542040D01*
G75*
G02*
X-8932000Y-112792040I-250000J0D01*
G01*
X-10982000Y-112792040D01*
G75*
G02*
X-11232000Y-112542040I0J250000D01*
G01*
G37*
%TD.AperFunction*%
%TO.P,SW25,1*%
%TO.N,Net-(RN15-Pad4)*%
%TA.AperFunction,SMDPad,CuDef*%
G36*
G01*
X-24159000Y-115082040D02*
X-24159000Y-113082040D01*
G75*
G02*
X-23909000Y-112832040I250000J0D01*
G01*
X-21859000Y-112832040D01*
G75*
G02*
X-21609000Y-113082040I0J-250000D01*
G01*
X-21609000Y-115082040D01*
G75*
G02*
X-21859000Y-115332040I-250000J0D01*
G01*
X-23909000Y-115332040D01*
G75*
G02*
X-24159000Y-115082040I0J250000D01*
G01*
G37*
%TD.AperFunction*%
%TD*%
%TO.P,SW24,2*%
%TO.N,GNDPWR*%
%TA.AperFunction,SMDPad,CuDef*%
G36*
G01*
X-51532000Y-193142040D02*
X-51532000Y-191142040D01*
G75*
G02*
X-51282000Y-190892040I250000J0D01*
G01*
X-49232000Y-190892040D01*
G75*
G02*
X-48982000Y-191142040I0J-250000D01*
G01*
X-48982000Y-193142040D01*
G75*
G02*
X-49232000Y-193392040I-250000J0D01*
G01*
X-51282000Y-193392040D01*
G75*
G02*
X-51532000Y-193142040I0J250000D01*
G01*
G37*
%TD.AperFunction*%
%TO.P,SW24,1*%
%TO.N,Net-(RN3-Pad1)*%
%TA.AperFunction,SMDPad,CuDef*%
G36*
G01*
X-64459000Y-195682040D02*
X-64459000Y-193682040D01*
G75*
G02*
X-64209000Y-193432040I250000J0D01*
G01*
X-62159000Y-193432040D01*
G75*
G02*
X-61909000Y-193682040I0J-250000D01*
G01*
X-61909000Y-195682040D01*
G75*
G02*
X-62159000Y-195932040I-250000J0D01*
G01*
X-64209000Y-195932040D01*
G75*
G02*
X-64459000Y-195682040I0J250000D01*
G01*
G37*
%TD.AperFunction*%
%TD*%
%TO.P,SW23,2*%
%TO.N,GNDPWR*%
%TA.AperFunction,SMDPad,CuDef*%
G36*
G01*
X-31382000Y-172992040D02*
X-31382000Y-170992040D01*
G75*
G02*
X-31132000Y-170742040I250000J0D01*
G01*
X-29082000Y-170742040D01*
G75*
G02*
X-28832000Y-170992040I0J-250000D01*
G01*
X-28832000Y-172992040D01*
G75*
G02*
X-29082000Y-173242040I-250000J0D01*
G01*
X-31132000Y-173242040D01*
G75*
G02*
X-31382000Y-172992040I0J250000D01*
G01*
G37*
%TD.AperFunction*%
%TO.P,SW23,1*%
%TO.N,Net-(RN3-Pad2)*%
%TA.AperFunction,SMDPad,CuDef*%
G36*
G01*
X-44309000Y-175532040D02*
X-44309000Y-173532040D01*
G75*
G02*
X-44059000Y-173282040I250000J0D01*
G01*
X-42009000Y-173282040D01*
G75*
G02*
X-41759000Y-173532040I0J-250000D01*
G01*
X-41759000Y-175532040D01*
G75*
G02*
X-42009000Y-175782040I-250000J0D01*
G01*
X-44059000Y-175782040D01*
G75*
G02*
X-44309000Y-175532040I0J250000D01*
G01*
G37*
%TD.AperFunction*%
%TD*%
%TO.P,SW22,2*%
%TO.N,GNDPWR*%
%TA.AperFunction,SMDPad,CuDef*%
G36*
G01*
X-11232000Y-152842040D02*
X-11232000Y-150842040D01*
G75*
G02*
X-10982000Y-150592040I250000J0D01*
G01*
X-8932000Y-150592040D01*
G75*
G02*
X-8682000Y-150842040I0J-250000D01*
G01*
X-8682000Y-152842040D01*
G75*
G02*
X-8932000Y-153092040I-250000J0D01*
G01*
X-10982000Y-153092040D01*
G75*
G02*
X-11232000Y-152842040I0J250000D01*
G01*
G37*
%TD.AperFunction*%
%TO.P,SW22,1*%
%TO.N,Net-(RN3-Pad3)*%
%TA.AperFunction,SMDPad,CuDef*%
G36*
G01*
X-24159000Y-155382040D02*
X-24159000Y-153382040D01*
G75*
G02*
X-23909000Y-153132040I250000J0D01*
G01*
X-21859000Y-153132040D01*
G75*
G02*
X-21609000Y-153382040I0J-250000D01*
G01*
X-21609000Y-155382040D01*
G75*
G02*
X-21859000Y-155632040I-250000J0D01*
G01*
X-23909000Y-155632040D01*
G75*
G02*
X-24159000Y-155382040I0J250000D01*
G01*
G37*
%TD.AperFunction*%
%TD*%
%TO.P,SW21,2*%
%TO.N,GNDPWR*%
%TA.AperFunction,SMDPad,CuDef*%
G36*
G01*
X8918000Y-132692040D02*
X8918000Y-130692040D01*
G75*
G02*
X9168000Y-130442040I250000J0D01*
G01*
X11218000Y-130442040D01*
G75*
G02*
X11468000Y-130692040I0J-250000D01*
G01*
X11468000Y-132692040D01*
G75*
G02*
X11218000Y-132942040I-250000J0D01*
G01*
X9168000Y-132942040D01*
G75*
G02*
X8918000Y-132692040I0J250000D01*
G01*
G37*
%TD.AperFunction*%
%TO.P,SW21,1*%
%TO.N,Net-(RN3-Pad4)*%
%TA.AperFunction,SMDPad,CuDef*%
G36*
G01*
X-4009000Y-135232040D02*
X-4009000Y-133232040D01*
G75*
G02*
X-3759000Y-132982040I250000J0D01*
G01*
X-1709000Y-132982040D01*
G75*
G02*
X-1459000Y-133232040I0J-250000D01*
G01*
X-1459000Y-135232040D01*
G75*
G02*
X-1709000Y-135482040I-250000J0D01*
G01*
X-3759000Y-135482040D01*
G75*
G02*
X-4009000Y-135232040I0J250000D01*
G01*
G37*
%TD.AperFunction*%
%TD*%
%TO.P,SW20,2*%
%TO.N,GNDPWR*%
%TA.AperFunction,SMDPad,CuDef*%
G36*
G01*
X29068000Y-112542040D02*
X29068000Y-110542040D01*
G75*
G02*
X29318000Y-110292040I250000J0D01*
G01*
X31368000Y-110292040D01*
G75*
G02*
X31618000Y-110542040I0J-250000D01*
G01*
X31618000Y-112542040D01*
G75*
G02*
X31368000Y-112792040I-250000J0D01*
G01*
X29318000Y-112792040D01*
G75*
G02*
X29068000Y-112542040I0J250000D01*
G01*
G37*
%TD.AperFunction*%
%TO.P,SW20,1*%
%TO.N,Net-(RN14-Pad1)*%
%TA.AperFunction,SMDPad,CuDef*%
G36*
G01*
X16141000Y-115082040D02*
X16141000Y-113082040D01*
G75*
G02*
X16391000Y-112832040I250000J0D01*
G01*
X18441000Y-112832040D01*
G75*
G02*
X18691000Y-113082040I0J-250000D01*
G01*
X18691000Y-115082040D01*
G75*
G02*
X18441000Y-115332040I-250000J0D01*
G01*
X16391000Y-115332040D01*
G75*
G02*
X16141000Y-115082040I0J250000D01*
G01*
G37*
%TD.AperFunction*%
%TD*%
%TO.P,SW19,2*%
%TO.N,GNDPWR*%
%TA.AperFunction,SMDPad,CuDef*%
G36*
G01*
X49218000Y-92392040D02*
X49218000Y-90392040D01*
G75*
G02*
X49468000Y-90142040I250000J0D01*
G01*
X51518000Y-90142040D01*
G75*
G02*
X51768000Y-90392040I0J-250000D01*
G01*
X51768000Y-92392040D01*
G75*
G02*
X51518000Y-92642040I-250000J0D01*
G01*
X49468000Y-92642040D01*
G75*
G02*
X49218000Y-92392040I0J250000D01*
G01*
G37*
%TD.AperFunction*%
%TO.P,SW19,1*%
%TO.N,Net-(RN14-Pad2)*%
%TA.AperFunction,SMDPad,CuDef*%
G36*
G01*
X36291000Y-94932040D02*
X36291000Y-92932040D01*
G75*
G02*
X36541000Y-92682040I250000J0D01*
G01*
X38591000Y-92682040D01*
G75*
G02*
X38841000Y-92932040I0J-250000D01*
G01*
X38841000Y-94932040D01*
G75*
G02*
X38591000Y-95182040I-250000J0D01*
G01*
X36541000Y-95182040D01*
G75*
G02*
X36291000Y-94932040I0J250000D01*
G01*
G37*
%TD.AperFunction*%
%TD*%
%TO.P,SW18,2*%
%TO.N,GNDPWR*%
%TA.AperFunction,SMDPad,CuDef*%
G36*
G01*
X-71682000Y-233442040D02*
X-71682000Y-231442040D01*
G75*
G02*
X-71432000Y-231192040I250000J0D01*
G01*
X-69382000Y-231192040D01*
G75*
G02*
X-69132000Y-231442040I0J-250000D01*
G01*
X-69132000Y-233442040D01*
G75*
G02*
X-69382000Y-233692040I-250000J0D01*
G01*
X-71432000Y-233692040D01*
G75*
G02*
X-71682000Y-233442040I0J250000D01*
G01*
G37*
%TD.AperFunction*%
%TO.P,SW18,1*%
%TO.N,Net-(RN14-Pad3)*%
%TA.AperFunction,SMDPad,CuDef*%
G36*
G01*
X-84609000Y-235982040D02*
X-84609000Y-233982040D01*
G75*
G02*
X-84359000Y-233732040I250000J0D01*
G01*
X-82309000Y-233732040D01*
G75*
G02*
X-82059000Y-233982040I0J-250000D01*
G01*
X-82059000Y-235982040D01*
G75*
G02*
X-82309000Y-236232040I-250000J0D01*
G01*
X-84359000Y-236232040D01*
G75*
G02*
X-84609000Y-235982040I0J250000D01*
G01*
G37*
%TD.AperFunction*%
%TD*%
%TO.P,SW17,2*%
%TO.N,GNDPWR*%
%TA.AperFunction,SMDPad,CuDef*%
G36*
G01*
X-51532000Y-213292040D02*
X-51532000Y-211292040D01*
G75*
G02*
X-51282000Y-211042040I250000J0D01*
G01*
X-49232000Y-211042040D01*
G75*
G02*
X-48982000Y-211292040I0J-250000D01*
G01*
X-48982000Y-213292040D01*
G75*
G02*
X-49232000Y-213542040I-250000J0D01*
G01*
X-51282000Y-213542040D01*
G75*
G02*
X-51532000Y-213292040I0J250000D01*
G01*
G37*
%TD.AperFunction*%
%TO.P,SW17,1*%
%TO.N,Net-(RN14-Pad4)*%
%TA.AperFunction,SMDPad,CuDef*%
G36*
G01*
X-64459000Y-215832040D02*
X-64459000Y-213832040D01*
G75*
G02*
X-64209000Y-213582040I250000J0D01*
G01*
X-62159000Y-213582040D01*
G75*
G02*
X-61909000Y-213832040I0J-250000D01*
G01*
X-61909000Y-215832040D01*
G75*
G02*
X-62159000Y-216082040I-250000J0D01*
G01*
X-64209000Y-216082040D01*
G75*
G02*
X-64459000Y-215832040I0J250000D01*
G01*
G37*
%TD.AperFunction*%
%TD*%
%TO.P,SW16,2*%
%TO.N,GNDPWR*%
%TA.AperFunction,SMDPad,CuDef*%
G36*
G01*
X-31382000Y-193142040D02*
X-31382000Y-191142040D01*
G75*
G02*
X-31132000Y-190892040I250000J0D01*
G01*
X-29082000Y-190892040D01*
G75*
G02*
X-28832000Y-191142040I0J-250000D01*
G01*
X-28832000Y-193142040D01*
G75*
G02*
X-29082000Y-193392040I-250000J0D01*
G01*
X-31132000Y-193392040D01*
G75*
G02*
X-31382000Y-193142040I0J250000D01*
G01*
G37*
%TD.AperFunction*%
%TO.P,SW16,1*%
%TO.N,Net-(RN2-Pad1)*%
%TA.AperFunction,SMDPad,CuDef*%
G36*
G01*
X-44309000Y-195682040D02*
X-44309000Y-193682040D01*
G75*
G02*
X-44059000Y-193432040I250000J0D01*
G01*
X-42009000Y-193432040D01*
G75*
G02*
X-41759000Y-193682040I0J-250000D01*
G01*
X-41759000Y-195682040D01*
G75*
G02*
X-42009000Y-195932040I-250000J0D01*
G01*
X-44059000Y-195932040D01*
G75*
G02*
X-44309000Y-195682040I0J250000D01*
G01*
G37*
%TD.AperFunction*%
%TD*%
%TO.P,SW15,2*%
%TO.N,GNDPWR*%
%TA.AperFunction,SMDPad,CuDef*%
G36*
G01*
X-11232000Y-172992040D02*
X-11232000Y-170992040D01*
G75*
G02*
X-10982000Y-170742040I250000J0D01*
G01*
X-8932000Y-170742040D01*
G75*
G02*
X-8682000Y-170992040I0J-250000D01*
G01*
X-8682000Y-172992040D01*
G75*
G02*
X-8932000Y-173242040I-250000J0D01*
G01*
X-10982000Y-173242040D01*
G75*
G02*
X-11232000Y-172992040I0J250000D01*
G01*
G37*
%TD.AperFunction*%
%TO.P,SW15,1*%
%TO.N,Net-(RN2-Pad2)*%
%TA.AperFunction,SMDPad,CuDef*%
G36*
G01*
X-24159000Y-175532040D02*
X-24159000Y-173532040D01*
G75*
G02*
X-23909000Y-173282040I250000J0D01*
G01*
X-21859000Y-173282040D01*
G75*
G02*
X-21609000Y-173532040I0J-250000D01*
G01*
X-21609000Y-175532040D01*
G75*
G02*
X-21859000Y-175782040I-250000J0D01*
G01*
X-23909000Y-175782040D01*
G75*
G02*
X-24159000Y-175532040I0J250000D01*
G01*
G37*
%TD.AperFunction*%
%TD*%
%TO.P,SW14,2*%
%TO.N,GNDPWR*%
%TA.AperFunction,SMDPad,CuDef*%
G36*
G01*
X8918000Y-112542040D02*
X8918000Y-110542040D01*
G75*
G02*
X9168000Y-110292040I250000J0D01*
G01*
X11218000Y-110292040D01*
G75*
G02*
X11468000Y-110542040I0J-250000D01*
G01*
X11468000Y-112542040D01*
G75*
G02*
X11218000Y-112792040I-250000J0D01*
G01*
X9168000Y-112792040D01*
G75*
G02*
X8918000Y-112542040I0J250000D01*
G01*
G37*
%TD.AperFunction*%
%TO.P,SW14,1*%
%TO.N,Net-(RN2-Pad3)*%
%TA.AperFunction,SMDPad,CuDef*%
G36*
G01*
X-4009000Y-115082040D02*
X-4009000Y-113082040D01*
G75*
G02*
X-3759000Y-112832040I250000J0D01*
G01*
X-1709000Y-112832040D01*
G75*
G02*
X-1459000Y-113082040I0J-250000D01*
G01*
X-1459000Y-115082040D01*
G75*
G02*
X-1709000Y-115332040I-250000J0D01*
G01*
X-3759000Y-115332040D01*
G75*
G02*
X-4009000Y-115082040I0J250000D01*
G01*
G37*
%TD.AperFunction*%
%TD*%
%TO.P,SW13,2*%
%TO.N,GNDPWR*%
%TA.AperFunction,SMDPad,CuDef*%
G36*
G01*
X-91832000Y-92392040D02*
X-91832000Y-90392040D01*
G75*
G02*
X-91582000Y-90142040I250000J0D01*
G01*
X-89532000Y-90142040D01*
G75*
G02*
X-89282000Y-90392040I0J-250000D01*
G01*
X-89282000Y-92392040D01*
G75*
G02*
X-89532000Y-92642040I-250000J0D01*
G01*
X-91582000Y-92642040D01*
G75*
G02*
X-91832000Y-92392040I0J250000D01*
G01*
G37*
%TD.AperFunction*%
%TO.P,SW13,1*%
%TO.N,Net-(RN2-Pad4)*%
%TA.AperFunction,SMDPad,CuDef*%
G36*
G01*
X-104759000Y-94932040D02*
X-104759000Y-92932040D01*
G75*
G02*
X-104509000Y-92682040I250000J0D01*
G01*
X-102459000Y-92682040D01*
G75*
G02*
X-102209000Y-92932040I0J-250000D01*
G01*
X-102209000Y-94932040D01*
G75*
G02*
X-102459000Y-95182040I-250000J0D01*
G01*
X-104509000Y-95182040D01*
G75*
G02*
X-104759000Y-94932040I0J250000D01*
G01*
G37*
%TD.AperFunction*%
%TD*%
%TO.P,SW12,2*%
%TO.N,GNDPWR*%
%TA.AperFunction,SMDPad,CuDef*%
G36*
G01*
X-152282000Y-172992040D02*
X-152282000Y-170992040D01*
G75*
G02*
X-152032000Y-170742040I250000J0D01*
G01*
X-149982000Y-170742040D01*
G75*
G02*
X-149732000Y-170992040I0J-250000D01*
G01*
X-149732000Y-172992040D01*
G75*
G02*
X-149982000Y-173242040I-250000J0D01*
G01*
X-152032000Y-173242040D01*
G75*
G02*
X-152282000Y-172992040I0J250000D01*
G01*
G37*
%TD.AperFunction*%
%TO.P,SW12,1*%
%TO.N,Net-(RN13-Pad1)*%
%TA.AperFunction,SMDPad,CuDef*%
G36*
G01*
X-165209000Y-175532040D02*
X-165209000Y-173532040D01*
G75*
G02*
X-164959000Y-173282040I250000J0D01*
G01*
X-162909000Y-173282040D01*
G75*
G02*
X-162659000Y-173532040I0J-250000D01*
G01*
X-162659000Y-175532040D01*
G75*
G02*
X-162909000Y-175782040I-250000J0D01*
G01*
X-164959000Y-175782040D01*
G75*
G02*
X-165209000Y-175532040I0J250000D01*
G01*
G37*
%TD.AperFunction*%
%TD*%
%TO.P,SW11,2*%
%TO.N,GNDPWR*%
%TA.AperFunction,SMDPad,CuDef*%
G36*
G01*
X-152282000Y-92392040D02*
X-152282000Y-90392040D01*
G75*
G02*
X-152032000Y-90142040I250000J0D01*
G01*
X-149982000Y-90142040D01*
G75*
G02*
X-149732000Y-90392040I0J-250000D01*
G01*
X-149732000Y-92392040D01*
G75*
G02*
X-149982000Y-92642040I-250000J0D01*
G01*
X-152032000Y-92642040D01*
G75*
G02*
X-152282000Y-92392040I0J250000D01*
G01*
G37*
%TD.AperFunction*%
%TO.P,SW11,1*%
%TO.N,Net-(RN13-Pad2)*%
%TA.AperFunction,SMDPad,CuDef*%
G36*
G01*
X-165209000Y-94932040D02*
X-165209000Y-92932040D01*
G75*
G02*
X-164959000Y-92682040I250000J0D01*
G01*
X-162909000Y-92682040D01*
G75*
G02*
X-162659000Y-92932040I0J-250000D01*
G01*
X-162659000Y-94932040D01*
G75*
G02*
X-162909000Y-95182040I-250000J0D01*
G01*
X-164959000Y-95182040D01*
G75*
G02*
X-165209000Y-94932040I0J250000D01*
G01*
G37*
%TD.AperFunction*%
%TD*%
%TO.P,SW10,2*%
%TO.N,GNDPWR*%
%TA.AperFunction,SMDPad,CuDef*%
G36*
G01*
X-111982000Y-132692040D02*
X-111982000Y-130692040D01*
G75*
G02*
X-111732000Y-130442040I250000J0D01*
G01*
X-109682000Y-130442040D01*
G75*
G02*
X-109432000Y-130692040I0J-250000D01*
G01*
X-109432000Y-132692040D01*
G75*
G02*
X-109682000Y-132942040I-250000J0D01*
G01*
X-111732000Y-132942040D01*
G75*
G02*
X-111982000Y-132692040I0J250000D01*
G01*
G37*
%TD.AperFunction*%
%TO.P,SW10,1*%
%TO.N,Net-(RN13-Pad3)*%
%TA.AperFunction,SMDPad,CuDef*%
G36*
G01*
X-124909000Y-135232040D02*
X-124909000Y-133232040D01*
G75*
G02*
X-124659000Y-132982040I250000J0D01*
G01*
X-122609000Y-132982040D01*
G75*
G02*
X-122359000Y-133232040I0J-250000D01*
G01*
X-122359000Y-135232040D01*
G75*
G02*
X-122609000Y-135482040I-250000J0D01*
G01*
X-124659000Y-135482040D01*
G75*
G02*
X-124909000Y-135232040I0J250000D01*
G01*
G37*
%TD.AperFunction*%
%TD*%
%TO.P,SW9,2*%
%TO.N,GNDPWR*%
%TA.AperFunction,SMDPad,CuDef*%
G36*
G01*
X-91832000Y-112542040D02*
X-91832000Y-110542040D01*
G75*
G02*
X-91582000Y-110292040I250000J0D01*
G01*
X-89532000Y-110292040D01*
G75*
G02*
X-89282000Y-110542040I0J-250000D01*
G01*
X-89282000Y-112542040D01*
G75*
G02*
X-89532000Y-112792040I-250000J0D01*
G01*
X-91582000Y-112792040D01*
G75*
G02*
X-91832000Y-112542040I0J250000D01*
G01*
G37*
%TD.AperFunction*%
%TO.P,SW9,1*%
%TO.N,Net-(RN13-Pad4)*%
%TA.AperFunction,SMDPad,CuDef*%
G36*
G01*
X-104759000Y-115082040D02*
X-104759000Y-113082040D01*
G75*
G02*
X-104509000Y-112832040I250000J0D01*
G01*
X-102459000Y-112832040D01*
G75*
G02*
X-102209000Y-113082040I0J-250000D01*
G01*
X-102209000Y-115082040D01*
G75*
G02*
X-102459000Y-115332040I-250000J0D01*
G01*
X-104509000Y-115332040D01*
G75*
G02*
X-104759000Y-115082040I0J250000D01*
G01*
G37*
%TD.AperFunction*%
%TD*%
%TO.P,SW8,2*%
%TO.N,GNDPWR*%
%TA.AperFunction,SMDPad,CuDef*%
G36*
G01*
X-71682000Y-92392040D02*
X-71682000Y-90392040D01*
G75*
G02*
X-71432000Y-90142040I250000J0D01*
G01*
X-69382000Y-90142040D01*
G75*
G02*
X-69132000Y-90392040I0J-250000D01*
G01*
X-69132000Y-92392040D01*
G75*
G02*
X-69382000Y-92642040I-250000J0D01*
G01*
X-71432000Y-92642040D01*
G75*
G02*
X-71682000Y-92392040I0J250000D01*
G01*
G37*
%TD.AperFunction*%
%TO.P,SW8,1*%
%TO.N,Net-(RN1-Pad1)*%
%TA.AperFunction,SMDPad,CuDef*%
G36*
G01*
X-84609000Y-94932040D02*
X-84609000Y-92932040D01*
G75*
G02*
X-84359000Y-92682040I250000J0D01*
G01*
X-82309000Y-92682040D01*
G75*
G02*
X-82059000Y-92932040I0J-250000D01*
G01*
X-82059000Y-94932040D01*
G75*
G02*
X-82309000Y-95182040I-250000J0D01*
G01*
X-84359000Y-95182040D01*
G75*
G02*
X-84609000Y-94932040I0J250000D01*
G01*
G37*
%TD.AperFunction*%
%TD*%
%TO.P,SW7,2*%
%TO.N,GNDPWR*%
%TA.AperFunction,SMDPad,CuDef*%
G36*
G01*
X-152282000Y-193142040D02*
X-152282000Y-191142040D01*
G75*
G02*
X-152032000Y-190892040I250000J0D01*
G01*
X-149982000Y-190892040D01*
G75*
G02*
X-149732000Y-191142040I0J-250000D01*
G01*
X-149732000Y-193142040D01*
G75*
G02*
X-149982000Y-193392040I-250000J0D01*
G01*
X-152032000Y-193392040D01*
G75*
G02*
X-152282000Y-193142040I0J250000D01*
G01*
G37*
%TD.AperFunction*%
%TO.P,SW7,1*%
%TO.N,Net-(RN1-Pad2)*%
%TA.AperFunction,SMDPad,CuDef*%
G36*
G01*
X-165209000Y-195682040D02*
X-165209000Y-193682040D01*
G75*
G02*
X-164959000Y-193432040I250000J0D01*
G01*
X-162909000Y-193432040D01*
G75*
G02*
X-162659000Y-193682040I0J-250000D01*
G01*
X-162659000Y-195682040D01*
G75*
G02*
X-162909000Y-195932040I-250000J0D01*
G01*
X-164959000Y-195932040D01*
G75*
G02*
X-165209000Y-195682040I0J250000D01*
G01*
G37*
%TD.AperFunction*%
%TD*%
%TO.P,SW6,2*%
%TO.N,GNDPWR*%
%TA.AperFunction,SMDPad,CuDef*%
G36*
G01*
X-132132000Y-172992040D02*
X-132132000Y-170992040D01*
G75*
G02*
X-131882000Y-170742040I250000J0D01*
G01*
X-129832000Y-170742040D01*
G75*
G02*
X-129582000Y-170992040I0J-250000D01*
G01*
X-129582000Y-172992040D01*
G75*
G02*
X-129832000Y-173242040I-250000J0D01*
G01*
X-131882000Y-173242040D01*
G75*
G02*
X-132132000Y-172992040I0J250000D01*
G01*
G37*
%TD.AperFunction*%
%TO.P,SW6,1*%
%TO.N,Net-(RN1-Pad3)*%
%TA.AperFunction,SMDPad,CuDef*%
G36*
G01*
X-145059000Y-175532040D02*
X-145059000Y-173532040D01*
G75*
G02*
X-144809000Y-173282040I250000J0D01*
G01*
X-142759000Y-173282040D01*
G75*
G02*
X-142509000Y-173532040I0J-250000D01*
G01*
X-142509000Y-175532040D01*
G75*
G02*
X-142759000Y-175782040I-250000J0D01*
G01*
X-144809000Y-175782040D01*
G75*
G02*
X-145059000Y-175532040I0J250000D01*
G01*
G37*
%TD.AperFunction*%
%TD*%
%TO.P,SW5,2*%
%TO.N,GNDPWR*%
%TA.AperFunction,SMDPad,CuDef*%
G36*
G01*
X-111982000Y-152842040D02*
X-111982000Y-150842040D01*
G75*
G02*
X-111732000Y-150592040I250000J0D01*
G01*
X-109682000Y-150592040D01*
G75*
G02*
X-109432000Y-150842040I0J-250000D01*
G01*
X-109432000Y-152842040D01*
G75*
G02*
X-109682000Y-153092040I-250000J0D01*
G01*
X-111732000Y-153092040D01*
G75*
G02*
X-111982000Y-152842040I0J250000D01*
G01*
G37*
%TD.AperFunction*%
%TO.P,SW5,1*%
%TO.N,Net-(RN1-Pad4)*%
%TA.AperFunction,SMDPad,CuDef*%
G36*
G01*
X-124909000Y-155382040D02*
X-124909000Y-153382040D01*
G75*
G02*
X-124659000Y-153132040I250000J0D01*
G01*
X-122609000Y-153132040D01*
G75*
G02*
X-122359000Y-153382040I0J-250000D01*
G01*
X-122359000Y-155382040D01*
G75*
G02*
X-122609000Y-155632040I-250000J0D01*
G01*
X-124659000Y-155632040D01*
G75*
G02*
X-124909000Y-155382040I0J250000D01*
G01*
G37*
%TD.AperFunction*%
%TD*%
%TO.P,SW4,2*%
%TO.N,GNDPWR*%
%TA.AperFunction,SMDPad,CuDef*%
G36*
G01*
X-91832000Y-132692040D02*
X-91832000Y-130692040D01*
G75*
G02*
X-91582000Y-130442040I250000J0D01*
G01*
X-89532000Y-130442040D01*
G75*
G02*
X-89282000Y-130692040I0J-250000D01*
G01*
X-89282000Y-132692040D01*
G75*
G02*
X-89532000Y-132942040I-250000J0D01*
G01*
X-91582000Y-132942040D01*
G75*
G02*
X-91832000Y-132692040I0J250000D01*
G01*
G37*
%TD.AperFunction*%
%TO.P,SW4,1*%
%TO.N,Net-(RN12-Pad1)*%
%TA.AperFunction,SMDPad,CuDef*%
G36*
G01*
X-104759000Y-135232040D02*
X-104759000Y-133232040D01*
G75*
G02*
X-104509000Y-132982040I250000J0D01*
G01*
X-102459000Y-132982040D01*
G75*
G02*
X-102209000Y-133232040I0J-250000D01*
G01*
X-102209000Y-135232040D01*
G75*
G02*
X-102459000Y-135482040I-250000J0D01*
G01*
X-104509000Y-135482040D01*
G75*
G02*
X-104759000Y-135232040I0J250000D01*
G01*
G37*
%TD.AperFunction*%
%TD*%
%TO.P,SW3,2*%
%TO.N,GNDPWR*%
%TA.AperFunction,SMDPad,CuDef*%
G36*
G01*
X-71682000Y-112542040D02*
X-71682000Y-110542040D01*
G75*
G02*
X-71432000Y-110292040I250000J0D01*
G01*
X-69382000Y-110292040D01*
G75*
G02*
X-69132000Y-110542040I0J-250000D01*
G01*
X-69132000Y-112542040D01*
G75*
G02*
X-69382000Y-112792040I-250000J0D01*
G01*
X-71432000Y-112792040D01*
G75*
G02*
X-71682000Y-112542040I0J250000D01*
G01*
G37*
%TD.AperFunction*%
%TO.P,SW3,1*%
%TO.N,Net-(RN12-Pad2)*%
%TA.AperFunction,SMDPad,CuDef*%
G36*
G01*
X-84609000Y-115082040D02*
X-84609000Y-113082040D01*
G75*
G02*
X-84359000Y-112832040I250000J0D01*
G01*
X-82309000Y-112832040D01*
G75*
G02*
X-82059000Y-113082040I0J-250000D01*
G01*
X-82059000Y-115082040D01*
G75*
G02*
X-82309000Y-115332040I-250000J0D01*
G01*
X-84359000Y-115332040D01*
G75*
G02*
X-84609000Y-115082040I0J250000D01*
G01*
G37*
%TD.AperFunction*%
%TD*%
%TO.P,SW2,2*%
%TO.N,GNDPWR*%
%TA.AperFunction,SMDPad,CuDef*%
G36*
G01*
X-71682000Y-152842040D02*
X-71682000Y-150842040D01*
G75*
G02*
X-71432000Y-150592040I250000J0D01*
G01*
X-69382000Y-150592040D01*
G75*
G02*
X-69132000Y-150842040I0J-250000D01*
G01*
X-69132000Y-152842040D01*
G75*
G02*
X-69382000Y-153092040I-250000J0D01*
G01*
X-71432000Y-153092040D01*
G75*
G02*
X-71682000Y-152842040I0J250000D01*
G01*
G37*
%TD.AperFunction*%
%TO.P,SW2,1*%
%TO.N,Net-(RN12-Pad3)*%
%TA.AperFunction,SMDPad,CuDef*%
G36*
G01*
X-84609000Y-155382040D02*
X-84609000Y-153382040D01*
G75*
G02*
X-84359000Y-153132040I250000J0D01*
G01*
X-82309000Y-153132040D01*
G75*
G02*
X-82059000Y-153382040I0J-250000D01*
G01*
X-82059000Y-155382040D01*
G75*
G02*
X-82309000Y-155632040I-250000J0D01*
G01*
X-84359000Y-155632040D01*
G75*
G02*
X-84609000Y-155382040I0J250000D01*
G01*
G37*
%TD.AperFunction*%
%TD*%
%TO.P,SW1,2*%
%TO.N,GNDPWR*%
%TA.AperFunction,SMDPad,CuDef*%
G36*
G01*
X-31382000Y-233442040D02*
X-31382000Y-231442040D01*
G75*
G02*
X-31132000Y-231192040I250000J0D01*
G01*
X-29082000Y-231192040D01*
G75*
G02*
X-28832000Y-231442040I0J-250000D01*
G01*
X-28832000Y-233442040D01*
G75*
G02*
X-29082000Y-233692040I-250000J0D01*
G01*
X-31132000Y-233692040D01*
G75*
G02*
X-31382000Y-233442040I0J250000D01*
G01*
G37*
%TD.AperFunction*%
%TO.P,SW1,1*%
%TO.N,Net-(RN12-Pad4)*%
%TA.AperFunction,SMDPad,CuDef*%
G36*
G01*
X-44309000Y-235982040D02*
X-44309000Y-233982040D01*
G75*
G02*
X-44059000Y-233732040I250000J0D01*
G01*
X-42009000Y-233732040D01*
G75*
G02*
X-41759000Y-233982040I0J-250000D01*
G01*
X-41759000Y-235982040D01*
G75*
G02*
X-42009000Y-236232040I-250000J0D01*
G01*
X-44059000Y-236232040D01*
G75*
G02*
X-44309000Y-235982040I0J250000D01*
G01*
G37*
%TD.AperFunction*%
%TD*%
D14*
%TO.P,J2,S1*%
%TO.N,GNDPWR*%
X84991000Y-140802040D03*
X76351000Y-140802040D03*
D15*
X84991000Y-136632040D03*
X76351000Y-136632040D03*
%TD*%
D16*
%TO.P,J1,4*%
%TO.N,GNDPWR*%
X110501000Y-96342040D03*
%TO.P,J1,3*%
%TO.N,/SWCLK*%
X110501000Y-93802040D03*
%TO.P,J1,2*%
%TO.N,/SWDIO*%
X110501000Y-91262040D03*
D17*
%TO.P,J1,1*%
%TO.N,Net-(J1-Pad1)*%
X110501000Y-88722040D03*
%TD*%
D18*
%TO.P,D85,3*%
%TO.N,GNDPWR*%
X10586000Y-212207040D03*
%TO.P,D85,4*%
%TO.N,Net-(D84-Pad2)*%
X10586000Y-209007040D03*
%TO.P,D85,2*%
%TO.N,Net-(D85-Pad2)*%
X5686000Y-212207040D03*
%TO.P,D85,1*%
%TO.N,+3V3*%
X5686000Y-209007040D03*
%TD*%
%TO.P,D84,3*%
%TO.N,GNDPWR*%
X-9564000Y-232357040D03*
%TO.P,D84,4*%
%TO.N,Net-(D83-Pad2)*%
X-9564000Y-229157040D03*
%TO.P,D84,2*%
%TO.N,Net-(D84-Pad2)*%
X-14464000Y-232357040D03*
%TO.P,D84,1*%
%TO.N,+3V3*%
X-14464000Y-229157040D03*
%TD*%
%TO.P,D83,3*%
%TO.N,GNDPWR*%
X-19214000Y-244207040D03*
%TO.P,D83,4*%
%TO.N,Net-(D82-Pad2)*%
X-19214000Y-241007040D03*
%TO.P,D83,2*%
%TO.N,Net-(D83-Pad2)*%
X-24114000Y-244207040D03*
%TO.P,D83,1*%
%TO.N,+3V3*%
X-24114000Y-241007040D03*
%TD*%
%TO.P,D82,3*%
%TO.N,GNDPWR*%
X120986000Y-103157040D03*
%TO.P,D82,4*%
%TO.N,Net-(D81-Pad2)*%
X120986000Y-99957040D03*
%TO.P,D82,2*%
%TO.N,Net-(D82-Pad2)*%
X116086000Y-103157040D03*
%TO.P,D82,1*%
%TO.N,+3V3*%
X116086000Y-99957040D03*
%TD*%
%TO.P,D81,3*%
%TO.N,GNDPWR*%
X936000Y-224057040D03*
%TO.P,D81,4*%
%TO.N,Net-(D80-Pad2)*%
X936000Y-220857040D03*
%TO.P,D81,2*%
%TO.N,Net-(D81-Pad2)*%
X-3964000Y-224057040D03*
%TO.P,D81,1*%
%TO.N,+3V3*%
X-3964000Y-220857040D03*
%TD*%
%TO.P,D80,3*%
%TO.N,GNDPWR*%
X21086000Y-203907040D03*
%TO.P,D80,4*%
%TO.N,Net-(D79-Pad2)*%
X21086000Y-200707040D03*
%TO.P,D80,2*%
%TO.N,Net-(D80-Pad2)*%
X16186000Y-203907040D03*
%TO.P,D80,1*%
%TO.N,+3V3*%
X16186000Y-200707040D03*
%TD*%
%TO.P,D79,3*%
%TO.N,GNDPWR*%
X41236000Y-183757040D03*
%TO.P,D79,4*%
%TO.N,Net-(D78-Pad2)*%
X41236000Y-180557040D03*
%TO.P,D79,2*%
%TO.N,Net-(D79-Pad2)*%
X36336000Y-183757040D03*
%TO.P,D79,1*%
%TO.N,+3V3*%
X36336000Y-180557040D03*
%TD*%
%TO.P,D78,3*%
%TO.N,GNDPWR*%
X61386000Y-163607040D03*
%TO.P,D78,4*%
%TO.N,Net-(D77-Pad2)*%
X61386000Y-160407040D03*
%TO.P,D78,2*%
%TO.N,Net-(D78-Pad2)*%
X56486000Y-163607040D03*
%TO.P,D78,1*%
%TO.N,+3V3*%
X56486000Y-160407040D03*
%TD*%
%TO.P,D77,3*%
%TO.N,GNDPWR*%
X-9564000Y-238977040D03*
%TO.P,D77,4*%
%TO.N,Net-(D76-Pad2)*%
X-9564000Y-235777040D03*
%TO.P,D77,2*%
%TO.N,Net-(D77-Pad2)*%
X-14464000Y-238977040D03*
%TO.P,D77,1*%
%TO.N,+3V3*%
X-14464000Y-235777040D03*
%TD*%
%TO.P,D76,3*%
%TO.N,GNDPWR*%
X10586000Y-218827040D03*
%TO.P,D76,4*%
%TO.N,Net-(D75-Pad2)*%
X10586000Y-215627040D03*
%TO.P,D76,2*%
%TO.N,Net-(D76-Pad2)*%
X5686000Y-218827040D03*
%TO.P,D76,1*%
%TO.N,+3V3*%
X5686000Y-215627040D03*
%TD*%
%TO.P,D75,3*%
%TO.N,GNDPWR*%
X112186000Y-128647040D03*
%TO.P,D75,4*%
%TO.N,Net-(D74-Pad2)*%
X112186000Y-125447040D03*
%TO.P,D75,2*%
%TO.N,Net-(D75-Pad2)*%
X107286000Y-128647040D03*
%TO.P,D75,1*%
%TO.N,+3V3*%
X107286000Y-125447040D03*
%TD*%
%TO.P,D74,3*%
%TO.N,GNDPWR*%
X-1144000Y-237297040D03*
%TO.P,D74,4*%
%TO.N,Net-(D73-Pad2)*%
X-1144000Y-234097040D03*
%TO.P,D74,2*%
%TO.N,Net-(D74-Pad2)*%
X-6044000Y-237297040D03*
%TO.P,D74,1*%
%TO.N,+3V3*%
X-6044000Y-234097040D03*
%TD*%
%TO.P,D73,3*%
%TO.N,GNDPWR*%
X30736000Y-192057040D03*
%TO.P,D73,4*%
%TO.N,/rgb_continue_3*%
X30736000Y-188857040D03*
%TO.P,D73,2*%
%TO.N,Net-(D73-Pad2)*%
X25836000Y-192057040D03*
%TO.P,D73,1*%
%TO.N,+3V3*%
X25836000Y-188857040D03*
%TD*%
%TO.P,D72,3*%
%TO.N,GNDPWR*%
X112186000Y-122027040D03*
%TO.P,D72,4*%
%TO.N,Net-(D71-Pad2)*%
X112186000Y-118827040D03*
%TO.P,D72,2*%
%TO.N,/rgb_continue_3*%
X107286000Y-122027040D03*
%TO.P,D72,1*%
%TO.N,+3V3*%
X107286000Y-118827040D03*
%TD*%
%TO.P,D71,3*%
%TO.N,GNDPWR*%
X101546000Y-133007040D03*
%TO.P,D71,4*%
%TO.N,Net-(D70-Pad2)*%
X101546000Y-129807040D03*
%TO.P,D71,2*%
%TO.N,Net-(D71-Pad2)*%
X96646000Y-133007040D03*
%TO.P,D71,1*%
%TO.N,+3V3*%
X96646000Y-129807040D03*
%TD*%
%TO.P,D70,3*%
%TO.N,GNDPWR*%
X89956000Y-149337040D03*
%TO.P,D70,4*%
%TO.N,Net-(D69-Pad2)*%
X89956000Y-146137040D03*
%TO.P,D70,2*%
%TO.N,Net-(D70-Pad2)*%
X85056000Y-149337040D03*
%TO.P,D70,1*%
%TO.N,+3V3*%
X85056000Y-146137040D03*
%TD*%
%TO.P,D69,3*%
%TO.N,GNDPWR*%
X59306000Y-176847040D03*
%TO.P,D69,4*%
%TO.N,Net-(D68-Pad2)*%
X59306000Y-173647040D03*
%TO.P,D69,2*%
%TO.N,Net-(D69-Pad2)*%
X54406000Y-176847040D03*
%TO.P,D69,1*%
%TO.N,+3V3*%
X54406000Y-173647040D03*
%TD*%
%TO.P,D68,3*%
%TO.N,GNDPWR*%
X39156000Y-196997040D03*
%TO.P,D68,4*%
%TO.N,Net-(D67-Pad2)*%
X39156000Y-193797040D03*
%TO.P,D68,2*%
%TO.N,Net-(D68-Pad2)*%
X34256000Y-196997040D03*
%TO.P,D68,1*%
%TO.N,+3V3*%
X34256000Y-193797040D03*
%TD*%
%TO.P,D67,3*%
%TO.N,GNDPWR*%
X19006000Y-217147040D03*
%TO.P,D67,4*%
%TO.N,Net-(D66-Pad2)*%
X19006000Y-213947040D03*
%TO.P,D67,2*%
%TO.N,Net-(D67-Pad2)*%
X14106000Y-217147040D03*
%TO.P,D67,1*%
%TO.N,+3V3*%
X14106000Y-213947040D03*
%TD*%
%TO.P,D66,3*%
%TO.N,GNDPWR*%
X9356000Y-225447040D03*
%TO.P,D66,4*%
%TO.N,Net-(D65-Pad2)*%
X9356000Y-222247040D03*
%TO.P,D66,2*%
%TO.N,Net-(D66-Pad2)*%
X4456000Y-225447040D03*
%TO.P,D66,1*%
%TO.N,+3V3*%
X4456000Y-222247040D03*
%TD*%
%TO.P,D65,3*%
%TO.N,GNDPWR*%
X29506000Y-205297040D03*
%TO.P,D65,4*%
%TO.N,Net-(D64-Pad2)*%
X29506000Y-202097040D03*
%TO.P,D65,2*%
%TO.N,Net-(D65-Pad2)*%
X24606000Y-205297040D03*
%TO.P,D65,1*%
%TO.N,+3V3*%
X24606000Y-202097040D03*
%TD*%
%TO.P,D64,3*%
%TO.N,GNDPWR*%
X187450000Y-188100000D03*
%TO.P,D64,4*%
%TO.N,Net-(D63-Pad2)*%
X187450000Y-184900000D03*
%TO.P,D64,2*%
%TO.N,Net-(D64-Pad2)*%
X182550000Y-188100000D03*
%TO.P,D64,1*%
%TO.N,+3V3*%
X182550000Y-184900000D03*
%TD*%
%TO.P,D63,3*%
%TO.N,GNDPWR*%
X69806000Y-164997040D03*
%TO.P,D63,4*%
%TO.N,Net-(D62-Pad2)*%
X69806000Y-161797040D03*
%TO.P,D63,2*%
%TO.N,Net-(D63-Pad2)*%
X64906000Y-164997040D03*
%TO.P,D63,1*%
%TO.N,+3V3*%
X64906000Y-161797040D03*
%TD*%
%TO.P,D62,3*%
%TO.N,GNDPWR*%
X120606000Y-123017040D03*
%TO.P,D62,4*%
%TO.N,Net-(D61-Pad2)*%
X120606000Y-119817040D03*
%TO.P,D62,2*%
%TO.N,Net-(D62-Pad2)*%
X115706000Y-123017040D03*
%TO.P,D62,1*%
%TO.N,+3V3*%
X115706000Y-119817040D03*
%TD*%
%TO.P,D61,3*%
%TO.N,GNDPWR*%
X79456000Y-155957040D03*
%TO.P,D61,4*%
%TO.N,Net-(D60-Pad2)*%
X79456000Y-152757040D03*
%TO.P,D61,2*%
%TO.N,Net-(D61-Pad2)*%
X74556000Y-155957040D03*
%TO.P,D61,1*%
%TO.N,+3V3*%
X74556000Y-152757040D03*
%TD*%
%TO.P,D60,3*%
%TO.N,GNDPWR*%
X120606000Y-116397040D03*
%TO.P,D60,4*%
%TO.N,Net-(D59-Pad2)*%
X120606000Y-113197040D03*
%TO.P,D60,2*%
%TO.N,Net-(D60-Pad2)*%
X115706000Y-116397040D03*
%TO.P,D60,1*%
%TO.N,+3V3*%
X115706000Y-113197040D03*
%TD*%
%TO.P,D59,3*%
%TO.N,GNDPWR*%
X101546000Y-139627040D03*
%TO.P,D59,4*%
%TO.N,Net-(D58-Pad2)*%
X101546000Y-136427040D03*
%TO.P,D59,2*%
%TO.N,Net-(D59-Pad2)*%
X96646000Y-139627040D03*
%TO.P,D59,1*%
%TO.N,+3V3*%
X96646000Y-136427040D03*
%TD*%
%TO.P,D58,3*%
%TO.N,GNDPWR*%
X-2374000Y-245597040D03*
%TO.P,D58,4*%
%TO.N,Net-(D57-Pad2)*%
X-2374000Y-242397040D03*
%TO.P,D58,2*%
%TO.N,Net-(D58-Pad2)*%
X-7274000Y-245597040D03*
%TO.P,D58,1*%
%TO.N,+3V3*%
X-7274000Y-242397040D03*
%TD*%
%TO.P,D57,3*%
%TO.N,GNDPWR*%
X59306000Y-183467040D03*
%TO.P,D57,4*%
%TO.N,Net-(D56-Pad2)*%
X59306000Y-180267040D03*
%TO.P,D57,2*%
%TO.N,Net-(D57-Pad2)*%
X54406000Y-183467040D03*
%TO.P,D57,1*%
%TO.N,+3V3*%
X54406000Y-180267040D03*
%TD*%
%TO.P,D56,3*%
%TO.N,GNDPWR*%
X39156000Y-203617040D03*
%TO.P,D56,4*%
%TO.N,Net-(D55-Pad2)*%
X39156000Y-200417040D03*
%TO.P,D56,2*%
%TO.N,Net-(D56-Pad2)*%
X34256000Y-203617040D03*
%TO.P,D56,1*%
%TO.N,+3V3*%
X34256000Y-200417040D03*
%TD*%
%TO.P,D55,3*%
%TO.N,GNDPWR*%
X19006000Y-223767040D03*
%TO.P,D55,4*%
%TO.N,Net-(D54-Pad2)*%
X19006000Y-220567040D03*
%TO.P,D55,2*%
%TO.N,Net-(D55-Pad2)*%
X14106000Y-223767040D03*
%TO.P,D55,1*%
%TO.N,+3V3*%
X14106000Y-220567040D03*
%TD*%
%TO.P,D54,3*%
%TO.N,GNDPWR*%
X9356000Y-232067040D03*
%TO.P,D54,4*%
%TO.N,Net-(D53-Pad2)*%
X9356000Y-228867040D03*
%TO.P,D54,2*%
%TO.N,Net-(D54-Pad2)*%
X4456000Y-232067040D03*
%TO.P,D54,1*%
%TO.N,+3V3*%
X4456000Y-228867040D03*
%TD*%
%TO.P,D53,3*%
%TO.N,GNDPWR*%
X29506000Y-211917040D03*
%TO.P,D53,4*%
%TO.N,Net-(D52-Pad2)*%
X29506000Y-208717040D03*
%TO.P,D53,2*%
%TO.N,Net-(D53-Pad2)*%
X24606000Y-211917040D03*
%TO.P,D53,1*%
%TO.N,+3V3*%
X24606000Y-208717040D03*
%TD*%
%TO.P,D52,3*%
%TO.N,GNDPWR*%
X49656000Y-191767040D03*
%TO.P,D52,4*%
%TO.N,Net-(D51-Pad2)*%
X49656000Y-188567040D03*
%TO.P,D52,2*%
%TO.N,Net-(D52-Pad2)*%
X44756000Y-191767040D03*
%TO.P,D52,1*%
%TO.N,+3V3*%
X44756000Y-188567040D03*
%TD*%
%TO.P,D51,3*%
%TO.N,GNDPWR*%
X69806000Y-171617040D03*
%TO.P,D51,4*%
%TO.N,Net-(D50-Pad2)*%
X69806000Y-168417040D03*
%TO.P,D51,2*%
%TO.N,Net-(D51-Pad2)*%
X64906000Y-171617040D03*
%TO.P,D51,1*%
%TO.N,+3V3*%
X64906000Y-168417040D03*
%TD*%
%TO.P,D50,3*%
%TO.N,GNDPWR*%
X79456000Y-162577040D03*
%TO.P,D50,4*%
%TO.N,Net-(D49-Pad2)*%
X79456000Y-159377040D03*
%TO.P,D50,2*%
%TO.N,Net-(D50-Pad2)*%
X74556000Y-162577040D03*
%TO.P,D50,1*%
%TO.N,+3V3*%
X74556000Y-159377040D03*
%TD*%
%TO.P,D49,3*%
%TO.N,GNDPWR*%
X87876000Y-155957040D03*
%TO.P,D49,4*%
%TO.N,/rgb_continue_2*%
X87876000Y-152757040D03*
%TO.P,D49,2*%
%TO.N,Net-(D49-Pad2)*%
X82976000Y-155957040D03*
%TO.P,D49,1*%
%TO.N,+3V3*%
X82976000Y-152757040D03*
%TD*%
%TO.P,D48,3*%
%TO.N,GNDPWR*%
X-10794000Y-245597040D03*
%TO.P,D48,4*%
%TO.N,Net-(D47-Pad2)*%
X-10794000Y-242397040D03*
%TO.P,D48,2*%
%TO.N,/rgb_continue_2*%
X-15694000Y-245597040D03*
%TO.P,D48,1*%
%TO.N,+3V3*%
X-15694000Y-242397040D03*
%TD*%
%TO.P,D47,3*%
%TO.N,GNDPWR*%
X66496000Y-191477040D03*
%TO.P,D47,4*%
%TO.N,Net-(D46-Pad2)*%
X66496000Y-188277040D03*
%TO.P,D47,2*%
%TO.N,Net-(D47-Pad2)*%
X61596000Y-191477040D03*
%TO.P,D47,1*%
%TO.N,+3V3*%
X61596000Y-188277040D03*
%TD*%
%TO.P,D46,3*%
%TO.N,GNDPWR*%
X46346000Y-211627040D03*
%TO.P,D46,4*%
%TO.N,Net-(D45-Pad2)*%
X46346000Y-208427040D03*
%TO.P,D46,2*%
%TO.N,Net-(D46-Pad2)*%
X41446000Y-211627040D03*
%TO.P,D46,1*%
%TO.N,+3V3*%
X41446000Y-208427040D03*
%TD*%
%TO.P,D45,3*%
%TO.N,GNDPWR*%
X26196000Y-231777040D03*
%TO.P,D45,4*%
%TO.N,Net-(D44-Pad2)*%
X26196000Y-228577040D03*
%TO.P,D45,2*%
%TO.N,Net-(D45-Pad2)*%
X21296000Y-231777040D03*
%TO.P,D45,1*%
%TO.N,+3V3*%
X21296000Y-228577040D03*
%TD*%
%TO.P,D44,3*%
%TO.N,GNDPWR*%
X55996000Y-203327040D03*
%TO.P,D44,4*%
%TO.N,Net-(D43-Pad2)*%
X55996000Y-200127040D03*
%TO.P,D44,2*%
%TO.N,Net-(D44-Pad2)*%
X51096000Y-203327040D03*
%TO.P,D44,1*%
%TO.N,+3V3*%
X51096000Y-200127040D03*
%TD*%
%TO.P,D43,3*%
%TO.N,GNDPWR*%
X76146000Y-182437040D03*
%TO.P,D43,4*%
%TO.N,Net-(D42-Pad2)*%
X76146000Y-179237040D03*
%TO.P,D43,2*%
%TO.N,Net-(D43-Pad2)*%
X71246000Y-182437040D03*
%TO.P,D43,1*%
%TO.N,+3V3*%
X71246000Y-179237040D03*
%TD*%
%TO.P,D42,3*%
%TO.N,GNDPWR*%
X35846000Y-223477040D03*
%TO.P,D42,4*%
%TO.N,Net-(D41-Pad2)*%
X35846000Y-220277040D03*
%TO.P,D42,2*%
%TO.N,Net-(D42-Pad2)*%
X30946000Y-223477040D03*
%TO.P,D42,1*%
%TO.N,+3V3*%
X30946000Y-220277040D03*
%TD*%
%TO.P,D41,3*%
%TO.N,GNDPWR*%
X58076000Y-196707040D03*
%TO.P,D41,4*%
%TO.N,Net-(D40-Pad2)*%
X58076000Y-193507040D03*
%TO.P,D41,2*%
%TO.N,Net-(D41-Pad2)*%
X53176000Y-196707040D03*
%TO.P,D41,1*%
%TO.N,+3V3*%
X53176000Y-193507040D03*
%TD*%
%TO.P,D40,3*%
%TO.N,GNDPWR*%
X106796000Y-148507040D03*
%TO.P,D40,4*%
%TO.N,Net-(D39-Pad2)*%
X106796000Y-145307040D03*
%TO.P,D40,2*%
%TO.N,Net-(D40-Pad2)*%
X101896000Y-148507040D03*
%TO.P,D40,1*%
%TO.N,+3V3*%
X101896000Y-145307040D03*
%TD*%
%TO.P,D39,3*%
%TO.N,GNDPWR*%
X109966000Y-135267040D03*
%TO.P,D39,4*%
%TO.N,Net-(D38-Pad2)*%
X109966000Y-132067040D03*
%TO.P,D39,2*%
%TO.N,Net-(D39-Pad2)*%
X105066000Y-135267040D03*
%TO.P,D39,1*%
%TO.N,+3V3*%
X105066000Y-132067040D03*
%TD*%
%TO.P,D38,3*%
%TO.N,GNDPWR*%
X78226000Y-169197040D03*
%TO.P,D38,4*%
%TO.N,Net-(D37-Pad2)*%
X78226000Y-165997040D03*
%TO.P,D38,2*%
%TO.N,Net-(D38-Pad2)*%
X73326000Y-169197040D03*
%TO.P,D38,1*%
%TO.N,+3V3*%
X73326000Y-165997040D03*
%TD*%
%TO.P,D37,3*%
%TO.N,GNDPWR*%
X6046000Y-245307040D03*
%TO.P,D37,4*%
%TO.N,Net-(D36-Pad2)*%
X6046000Y-242107040D03*
%TO.P,D37,2*%
%TO.N,Net-(D37-Pad2)*%
X1146000Y-245307040D03*
%TO.P,D37,1*%
%TO.N,+3V3*%
X1146000Y-242107040D03*
%TD*%
%TO.P,D36,3*%
%TO.N,GNDPWR*%
X67726000Y-178237040D03*
%TO.P,D36,4*%
%TO.N,Net-(D35-Pad2)*%
X67726000Y-175037040D03*
%TO.P,D36,2*%
%TO.N,Net-(D36-Pad2)*%
X62826000Y-178237040D03*
%TO.P,D36,1*%
%TO.N,+3V3*%
X62826000Y-175037040D03*
%TD*%
%TO.P,D35,3*%
%TO.N,GNDPWR*%
X47576000Y-198387040D03*
%TO.P,D35,4*%
%TO.N,Net-(D34-Pad2)*%
X47576000Y-195187040D03*
%TO.P,D35,2*%
%TO.N,Net-(D35-Pad2)*%
X42676000Y-198387040D03*
%TO.P,D35,1*%
%TO.N,+3V3*%
X42676000Y-195187040D03*
%TD*%
%TO.P,D34,3*%
%TO.N,GNDPWR*%
X37926000Y-210237040D03*
%TO.P,D34,4*%
%TO.N,Net-(D33-Pad2)*%
X37926000Y-207037040D03*
%TO.P,D34,2*%
%TO.N,Net-(D34-Pad2)*%
X33026000Y-210237040D03*
%TO.P,D34,1*%
%TO.N,+3V3*%
X33026000Y-207037040D03*
%TD*%
%TO.P,D33,3*%
%TO.N,GNDPWR*%
X7276000Y-238687040D03*
%TO.P,D33,4*%
%TO.N,Net-(D32-Pad2)*%
X7276000Y-235487040D03*
%TO.P,D33,2*%
%TO.N,Net-(D33-Pad2)*%
X2376000Y-238687040D03*
%TO.P,D33,1*%
%TO.N,+3V3*%
X2376000Y-235487040D03*
%TD*%
%TO.P,D32,3*%
%TO.N,GNDPWR*%
X17776000Y-230387040D03*
%TO.P,D32,4*%
%TO.N,Net-(D31-Pad2)*%
X17776000Y-227187040D03*
%TO.P,D32,2*%
%TO.N,Net-(D32-Pad2)*%
X12876000Y-230387040D03*
%TO.P,D32,1*%
%TO.N,+3V3*%
X12876000Y-227187040D03*
%TD*%
%TO.P,D31,3*%
%TO.N,GNDPWR*%
X47576000Y-205007040D03*
%TO.P,D31,4*%
%TO.N,Net-(D30-Pad2)*%
X47576000Y-201807040D03*
%TO.P,D31,2*%
%TO.N,Net-(D31-Pad2)*%
X42676000Y-205007040D03*
%TO.P,D31,1*%
%TO.N,+3V3*%
X42676000Y-201807040D03*
%TD*%
%TO.P,D30,3*%
%TO.N,GNDPWR*%
X67726000Y-184857040D03*
%TO.P,D30,4*%
%TO.N,Net-(D29-Pad2)*%
X67726000Y-181657040D03*
%TO.P,D30,2*%
%TO.N,Net-(D30-Pad2)*%
X62826000Y-184857040D03*
%TO.P,D30,1*%
%TO.N,+3V3*%
X62826000Y-181657040D03*
%TD*%
%TO.P,D29,3*%
%TO.N,GNDPWR*%
X78226000Y-175817040D03*
%TO.P,D29,4*%
%TO.N,Net-(D28-Pad2)*%
X78226000Y-172617040D03*
%TO.P,D29,2*%
%TO.N,Net-(D29-Pad2)*%
X73326000Y-175817040D03*
%TO.P,D29,1*%
%TO.N,+3V3*%
X73326000Y-172617040D03*
%TD*%
%TO.P,D28,3*%
%TO.N,GNDPWR*%
X86646000Y-169197040D03*
%TO.P,D28,4*%
%TO.N,Net-(D27-Pad2)*%
X86646000Y-165997040D03*
%TO.P,D28,2*%
%TO.N,Net-(D28-Pad2)*%
X81746000Y-169197040D03*
%TO.P,D28,1*%
%TO.N,+3V3*%
X81746000Y-165997040D03*
%TD*%
%TO.P,D27,3*%
%TO.N,GNDPWR*%
X27426000Y-225157040D03*
%TO.P,D27,4*%
%TO.N,Net-(D26-Pad2)*%
X27426000Y-221957040D03*
%TO.P,D27,2*%
%TO.N,Net-(D27-Pad2)*%
X22526000Y-225157040D03*
%TO.P,D27,1*%
%TO.N,+3V3*%
X22526000Y-221957040D03*
%TD*%
%TO.P,D26,3*%
%TO.N,GNDPWR*%
X109966000Y-141887040D03*
%TO.P,D26,4*%
%TO.N,Net-(D25-Pad2)*%
X109966000Y-138687040D03*
%TO.P,D26,2*%
%TO.N,Net-(D26-Pad2)*%
X105066000Y-141887040D03*
%TO.P,D26,1*%
%TO.N,+3V3*%
X105066000Y-138687040D03*
%TD*%
%TO.P,D25,3*%
%TO.N,GNDPWR*%
X87876000Y-162577040D03*
%TO.P,D25,4*%
%TO.N,/rgb_continue_1*%
X87876000Y-159377040D03*
%TO.P,D25,2*%
%TO.N,Net-(D25-Pad2)*%
X82976000Y-162577040D03*
%TO.P,D25,1*%
%TO.N,+3V3*%
X82976000Y-159377040D03*
%TD*%
%TO.P,D24,3*%
%TO.N,GNDPWR*%
X120606000Y-129637040D03*
%TO.P,D24,4*%
%TO.N,Net-(D23-Pad2)*%
X120606000Y-126437040D03*
%TO.P,D24,2*%
%TO.N,/rgb_continue_1*%
X115706000Y-129637040D03*
%TO.P,D24,1*%
%TO.N,+3V3*%
X115706000Y-126437040D03*
%TD*%
%TO.P,D23,3*%
%TO.N,GNDPWR*%
X98376000Y-152867040D03*
%TO.P,D23,4*%
%TO.N,Net-(D22-Pad2)*%
X98376000Y-149667040D03*
%TO.P,D23,2*%
%TO.N,Net-(D23-Pad2)*%
X93476000Y-152867040D03*
%TO.P,D23,1*%
%TO.N,+3V3*%
X93476000Y-149667040D03*
%TD*%
%TO.P,D22,3*%
%TO.N,GNDPWR*%
X98376000Y-146247040D03*
%TO.P,D22,4*%
%TO.N,Net-(D21-Pad2)*%
X98376000Y-143047040D03*
%TO.P,D22,2*%
%TO.N,Net-(D22-Pad2)*%
X93476000Y-146247040D03*
%TO.P,D22,1*%
%TO.N,+3V3*%
X93476000Y-143047040D03*
%TD*%
%TO.P,D21,3*%
%TO.N,GNDPWR*%
X58076000Y-190087040D03*
%TO.P,D21,4*%
%TO.N,Net-(D20-Pad2)*%
X58076000Y-186887040D03*
%TO.P,D21,2*%
%TO.N,Net-(D21-Pad2)*%
X53176000Y-190087040D03*
%TO.P,D21,1*%
%TO.N,+3V3*%
X53176000Y-186887040D03*
%TD*%
%TO.P,D20,3*%
%TO.N,GNDPWR*%
X27426000Y-218537040D03*
%TO.P,D20,4*%
%TO.N,Net-(D19-Pad2)*%
X27426000Y-215337040D03*
%TO.P,D20,2*%
%TO.N,Net-(D20-Pad2)*%
X22526000Y-218537040D03*
%TO.P,D20,1*%
%TO.N,+3V3*%
X22526000Y-215337040D03*
%TD*%
%TO.P,D19,3*%
%TO.N,GNDPWR*%
X30736000Y-198677040D03*
%TO.P,D19,4*%
%TO.N,Net-(D18-Pad2)*%
X30736000Y-195477040D03*
%TO.P,D19,2*%
%TO.N,Net-(D19-Pad2)*%
X25836000Y-198677040D03*
%TO.P,D19,1*%
%TO.N,+3V3*%
X25836000Y-195477040D03*
%TD*%
%TO.P,D18,3*%
%TO.N,GNDPWR*%
X50886000Y-178527040D03*
%TO.P,D18,4*%
%TO.N,Net-(D17-Pad2)*%
X50886000Y-175327040D03*
%TO.P,D18,2*%
%TO.N,Net-(D18-Pad2)*%
X45986000Y-178527040D03*
%TO.P,D18,1*%
%TO.N,+3V3*%
X45986000Y-175327040D03*
%TD*%
%TO.P,D17,3*%
%TO.N,GNDPWR*%
X71036000Y-158377040D03*
%TO.P,D17,4*%
%TO.N,Net-(D16-Pad2)*%
X71036000Y-155177040D03*
%TO.P,D17,2*%
%TO.N,Net-(D17-Pad2)*%
X66136000Y-158377040D03*
%TO.P,D17,1*%
%TO.N,+3V3*%
X66136000Y-155177040D03*
%TD*%
%TO.P,D16,3*%
%TO.N,GNDPWR*%
X81536000Y-149337040D03*
%TO.P,D16,4*%
%TO.N,Net-(D15-Pad2)*%
X81536000Y-146137040D03*
%TO.P,D16,2*%
%TO.N,Net-(D16-Pad2)*%
X76636000Y-149337040D03*
%TO.P,D16,1*%
%TO.N,+3V3*%
X76636000Y-146137040D03*
%TD*%
%TO.P,D15,3*%
%TO.N,GNDPWR*%
X120986000Y-109777040D03*
%TO.P,D15,4*%
%TO.N,Net-(D14-Pad2)*%
X120986000Y-106577040D03*
%TO.P,D15,2*%
%TO.N,Net-(D15-Pad2)*%
X116086000Y-109777040D03*
%TO.P,D15,1*%
%TO.N,+3V3*%
X116086000Y-106577040D03*
%TD*%
%TO.P,D14,3*%
%TO.N,GNDPWR*%
X93126000Y-139357040D03*
%TO.P,D14,4*%
%TO.N,Net-(D13-Pad2)*%
X93126000Y-136157040D03*
%TO.P,D14,2*%
%TO.N,Net-(D14-Pad2)*%
X88226000Y-139357040D03*
%TO.P,D14,1*%
%TO.N,+3V3*%
X88226000Y-136157040D03*
%TD*%
%TO.P,D13,3*%
%TO.N,GNDPWR*%
X61386000Y-170227040D03*
%TO.P,D13,4*%
%TO.N,Net-(D12-Pad2)*%
X61386000Y-167027040D03*
%TO.P,D13,2*%
%TO.N,Net-(D13-Pad2)*%
X56486000Y-170227040D03*
%TO.P,D13,1*%
%TO.N,+3V3*%
X56486000Y-167027040D03*
%TD*%
%TO.P,D12,3*%
%TO.N,GNDPWR*%
X41236000Y-190377040D03*
%TO.P,D12,4*%
%TO.N,Net-(D11-Pad2)*%
X41236000Y-187177040D03*
%TO.P,D12,2*%
%TO.N,Net-(D12-Pad2)*%
X36336000Y-190377040D03*
%TO.P,D12,1*%
%TO.N,+3V3*%
X36336000Y-187177040D03*
%TD*%
%TO.P,D11,3*%
%TO.N,GNDPWR*%
X21086000Y-210527040D03*
%TO.P,D11,4*%
%TO.N,Net-(D10-Pad2)*%
X21086000Y-207327040D03*
%TO.P,D11,2*%
%TO.N,Net-(D11-Pad2)*%
X16186000Y-210527040D03*
%TO.P,D11,1*%
%TO.N,+3V3*%
X16186000Y-207327040D03*
%TD*%
%TO.P,D10,3*%
%TO.N,GNDPWR*%
X936000Y-230677040D03*
%TO.P,D10,4*%
%TO.N,Net-(D10-Pad4)*%
X936000Y-227477040D03*
%TO.P,D10,2*%
%TO.N,Net-(D10-Pad2)*%
X-3964000Y-230677040D03*
%TO.P,D10,1*%
%TO.N,+3V3*%
X-3964000Y-227477040D03*
%TD*%
%TO.P,D9,3*%
%TO.N,GNDPWR*%
X-19214000Y-250827040D03*
%TO.P,D9,4*%
%TO.N,Net-(D8-Pad2)*%
X-19214000Y-247627040D03*
%TO.P,D9,2*%
%TO.N,Net-(D10-Pad4)*%
X-24114000Y-250827040D03*
%TO.P,D9,1*%
%TO.N,+3V3*%
X-24114000Y-247627040D03*
%TD*%
%TO.P,D8,3*%
%TO.N,GNDPWR*%
X112186000Y-115407040D03*
%TO.P,D8,4*%
%TO.N,Net-(D7-Pad2)*%
X112186000Y-112207040D03*
%TO.P,D8,2*%
%TO.N,Net-(D8-Pad2)*%
X107286000Y-115407040D03*
%TO.P,D8,1*%
%TO.N,+3V3*%
X107286000Y-112207040D03*
%TD*%
%TO.P,D7,3*%
%TO.N,GNDPWR*%
X14466000Y-245307040D03*
%TO.P,D7,4*%
%TO.N,Net-(D6-Pad2)*%
X14466000Y-242107040D03*
%TO.P,D7,2*%
%TO.N,Net-(D7-Pad2)*%
X9566000Y-245307040D03*
%TO.P,D7,1*%
%TO.N,+3V3*%
X9566000Y-242107040D03*
%TD*%
%TO.P,D6,3*%
%TO.N,GNDPWR*%
X50886000Y-171907040D03*
%TO.P,D6,4*%
%TO.N,Net-(D5-Pad2)*%
X50886000Y-168707040D03*
%TO.P,D6,2*%
%TO.N,Net-(D6-Pad2)*%
X45986000Y-171907040D03*
%TO.P,D6,1*%
%TO.N,+3V3*%
X45986000Y-168707040D03*
%TD*%
%TO.P,D5,3*%
%TO.N,GNDPWR*%
X71036000Y-151757040D03*
%TO.P,D5,4*%
%TO.N,Net-(D4-Pad2)*%
X71036000Y-148557040D03*
%TO.P,D5,2*%
%TO.N,Net-(D5-Pad2)*%
X66136000Y-151757040D03*
%TO.P,D5,1*%
%TO.N,+3V3*%
X66136000Y-148557040D03*
%TD*%
%TO.P,D4,3*%
%TO.N,GNDPWR*%
X96296000Y-159487040D03*
%TO.P,D4,4*%
%TO.N,Net-(D3-Pad2)*%
X96296000Y-156287040D03*
%TO.P,D4,2*%
%TO.N,Net-(D4-Pad2)*%
X91396000Y-159487040D03*
%TO.P,D4,1*%
%TO.N,+3V3*%
X91396000Y-156287040D03*
%TD*%
%TO.P,D3,3*%
%TO.N,GNDPWR*%
X37926000Y-216857040D03*
%TO.P,D3,4*%
%TO.N,Net-(D2-Pad2)*%
X37926000Y-213657040D03*
%TO.P,D3,2*%
%TO.N,Net-(D3-Pad2)*%
X33026000Y-216857040D03*
%TO.P,D3,1*%
%TO.N,+3V3*%
X33026000Y-213657040D03*
%TD*%
%TO.P,D2,3*%
%TO.N,GNDPWR*%
X17776000Y-237007040D03*
%TO.P,D2,4*%
%TO.N,Net-(D1-Pad2)*%
X17776000Y-233807040D03*
%TO.P,D2,2*%
%TO.N,Net-(D2-Pad2)*%
X12876000Y-237007040D03*
%TO.P,D2,1*%
%TO.N,+3V3*%
X12876000Y-233807040D03*
%TD*%
%TO.P,D1,3*%
%TO.N,GNDPWR*%
X118386000Y-136257040D03*
%TO.P,D1,4*%
%TO.N,/SPI2_MOSI*%
X118386000Y-133057040D03*
%TO.P,D1,2*%
%TO.N,Net-(D1-Pad2)*%
X113486000Y-136257040D03*
%TO.P,D1,1*%
%TO.N,+3V3*%
X113486000Y-133057040D03*
%TD*%
M02*
