%TF.GenerationSoftware,KiCad,Pcbnew,(5.1.6)-1*%
%TF.CreationDate,2022-07-30T00:49:16+08:00*%
%TF.ProjectId,feng,66656e67-2e6b-4696-9361-645f70636258,rev?*%
%TF.SameCoordinates,Original*%
%TF.FileFunction,Legend,Top*%
%TF.FilePolarity,Positive*%
%FSLAX46Y46*%
G04 Gerber Fmt 4.6, Leading zero omitted, Abs format (unit mm)*
G04 Created by KiCad (PCBNEW (5.1.6)-1) date 2022-07-30 00:49:16*
%MOMM*%
%LPD*%
G01*
G04 APERTURE LIST*
%ADD10C,0.203200*%
%ADD11C,0.120000*%
%ADD12C,0.127000*%
%ADD13C,0.150000*%
G04 APERTURE END LIST*
D10*
%TO.C,J4*%
X98770000Y-36365000D02*
X98770000Y-37635000D01*
X98770000Y-37635000D02*
X98135000Y-38270000D01*
X96865000Y-38270000D02*
X96230000Y-37635000D01*
X98135000Y-38270000D02*
X98770000Y-38905000D01*
X98770000Y-38905000D02*
X98770000Y-40175000D01*
X98770000Y-40175000D02*
X98135000Y-40810000D01*
X96865000Y-40810000D02*
X96230000Y-40175000D01*
X96230000Y-40175000D02*
X96230000Y-38905000D01*
X96230000Y-38905000D02*
X96865000Y-38270000D01*
X98135000Y-35730000D02*
X96865000Y-35730000D01*
X98770000Y-36365000D02*
X98135000Y-35730000D01*
X96865000Y-35730000D02*
X96230000Y-36365000D01*
X96230000Y-37635000D02*
X96230000Y-36365000D01*
X98135000Y-40810000D02*
X96865000Y-40810000D01*
%TO.C,J3*%
X172310000Y-32365000D02*
X172945000Y-31730000D01*
X172945000Y-31730000D02*
X174215000Y-31730000D01*
X174215000Y-31730000D02*
X174850000Y-32365000D01*
X174850000Y-33635000D02*
X174215000Y-34270000D01*
X174215000Y-34270000D02*
X172945000Y-34270000D01*
X172945000Y-34270000D02*
X172310000Y-33635000D01*
X167865000Y-31730000D02*
X169135000Y-31730000D01*
X169135000Y-31730000D02*
X169770000Y-32365000D01*
X169770000Y-33635000D02*
X169135000Y-34270000D01*
X169770000Y-32365000D02*
X170405000Y-31730000D01*
X170405000Y-31730000D02*
X171675000Y-31730000D01*
X171675000Y-31730000D02*
X172310000Y-32365000D01*
X172310000Y-33635000D02*
X171675000Y-34270000D01*
X171675000Y-34270000D02*
X170405000Y-34270000D01*
X170405000Y-34270000D02*
X169770000Y-33635000D01*
X167230000Y-32365000D02*
X167230000Y-33635000D01*
X167865000Y-31730000D02*
X167230000Y-32365000D01*
X167230000Y-33635000D02*
X167865000Y-34270000D01*
X169135000Y-34270000D02*
X167865000Y-34270000D01*
X174850000Y-32365000D02*
X174850000Y-33635000D01*
D11*
%TO.C,R5*%
X133770000Y-35220000D02*
X133770000Y-31780000D01*
X133770000Y-31780000D02*
X124530000Y-31780000D01*
X124530000Y-31780000D02*
X124530000Y-35220000D01*
X124530000Y-35220000D02*
X133770000Y-35220000D01*
X134460000Y-33500000D02*
X133770000Y-33500000D01*
X123840000Y-33500000D02*
X124530000Y-33500000D01*
D10*
%TO.C,J2*%
X181270000Y-49365000D02*
X180635000Y-48730000D01*
X180635000Y-48730000D02*
X179365000Y-48730000D01*
X179365000Y-48730000D02*
X178730000Y-49365000D01*
X178730000Y-49365000D02*
X178730000Y-50635000D01*
X178730000Y-50635000D02*
X179365000Y-51270000D01*
X179365000Y-51270000D02*
X180635000Y-51270000D01*
X180635000Y-51270000D02*
X181270000Y-50635000D01*
X181270000Y-50635000D02*
X181270000Y-49365000D01*
D11*
%TO.C,D1*%
X140188870Y-32420163D02*
G75*
G02*
X142270961Y-32420000I1041130J-1079837D01*
G01*
X140188870Y-34579837D02*
G75*
G03*
X142270961Y-34580000I1041130J1079837D01*
G01*
X139557665Y-32421392D02*
G75*
G02*
X142790000Y-32264484I1672335J-1078608D01*
G01*
X139557665Y-34578608D02*
G75*
G03*
X142790000Y-34735516I1672335J1078608D01*
G01*
X142790000Y-34736000D02*
X142790000Y-34580000D01*
X142790000Y-32420000D02*
X142790000Y-32264000D01*
%TO.C,SW24*%
X97900000Y-76890000D02*
X104721000Y-76890000D01*
X97900000Y-81110000D02*
X104721000Y-81110000D01*
X97900000Y-76890000D02*
X97900000Y-77960000D01*
X97900000Y-80040000D02*
X97900000Y-81110000D01*
X104721000Y-76890000D02*
X104721000Y-78010000D01*
X104721000Y-79990000D02*
X104721000Y-81110000D01*
X97660000Y-76650000D02*
X99043000Y-76650000D01*
X97660000Y-76650000D02*
X97660000Y-77960000D01*
X99500000Y-78365000D02*
X99500000Y-79635000D01*
X99500000Y-79635000D02*
X103120000Y-79635000D01*
X103120000Y-79635000D02*
X103120000Y-78365000D01*
X103120000Y-78365000D02*
X99500000Y-78365000D01*
X99500000Y-78485000D02*
X100706667Y-78485000D01*
X99500000Y-78605000D02*
X100706667Y-78605000D01*
X99500000Y-78725000D02*
X100706667Y-78725000D01*
X99500000Y-78845000D02*
X100706667Y-78845000D01*
X99500000Y-78965000D02*
X100706667Y-78965000D01*
X99500000Y-79085000D02*
X100706667Y-79085000D01*
X99500000Y-79205000D02*
X100706667Y-79205000D01*
X99500000Y-79325000D02*
X100706667Y-79325000D01*
X99500000Y-79445000D02*
X100706667Y-79445000D01*
X99500000Y-79565000D02*
X100706667Y-79565000D01*
X100706667Y-78365000D02*
X100706667Y-79635000D01*
%TO.C,SW23*%
X108900000Y-76890000D02*
X115721000Y-76890000D01*
X108900000Y-81110000D02*
X115721000Y-81110000D01*
X108900000Y-76890000D02*
X108900000Y-77960000D01*
X108900000Y-80040000D02*
X108900000Y-81110000D01*
X115721000Y-76890000D02*
X115721000Y-78010000D01*
X115721000Y-79990000D02*
X115721000Y-81110000D01*
X108660000Y-76650000D02*
X110043000Y-76650000D01*
X108660000Y-76650000D02*
X108660000Y-77960000D01*
X110500000Y-78365000D02*
X110500000Y-79635000D01*
X110500000Y-79635000D02*
X114120000Y-79635000D01*
X114120000Y-79635000D02*
X114120000Y-78365000D01*
X114120000Y-78365000D02*
X110500000Y-78365000D01*
X110500000Y-78485000D02*
X111706667Y-78485000D01*
X110500000Y-78605000D02*
X111706667Y-78605000D01*
X110500000Y-78725000D02*
X111706667Y-78725000D01*
X110500000Y-78845000D02*
X111706667Y-78845000D01*
X110500000Y-78965000D02*
X111706667Y-78965000D01*
X110500000Y-79085000D02*
X111706667Y-79085000D01*
X110500000Y-79205000D02*
X111706667Y-79205000D01*
X110500000Y-79325000D02*
X111706667Y-79325000D01*
X110500000Y-79445000D02*
X111706667Y-79445000D01*
X110500000Y-79565000D02*
X111706667Y-79565000D01*
X111706667Y-78365000D02*
X111706667Y-79635000D01*
%TO.C,SW22*%
X119900000Y-76890000D02*
X126721000Y-76890000D01*
X119900000Y-81110000D02*
X126721000Y-81110000D01*
X119900000Y-76890000D02*
X119900000Y-77960000D01*
X119900000Y-80040000D02*
X119900000Y-81110000D01*
X126721000Y-76890000D02*
X126721000Y-78010000D01*
X126721000Y-79990000D02*
X126721000Y-81110000D01*
X119660000Y-76650000D02*
X121043000Y-76650000D01*
X119660000Y-76650000D02*
X119660000Y-77960000D01*
X121500000Y-78365000D02*
X121500000Y-79635000D01*
X121500000Y-79635000D02*
X125120000Y-79635000D01*
X125120000Y-79635000D02*
X125120000Y-78365000D01*
X125120000Y-78365000D02*
X121500000Y-78365000D01*
X121500000Y-78485000D02*
X122706667Y-78485000D01*
X121500000Y-78605000D02*
X122706667Y-78605000D01*
X121500000Y-78725000D02*
X122706667Y-78725000D01*
X121500000Y-78845000D02*
X122706667Y-78845000D01*
X121500000Y-78965000D02*
X122706667Y-78965000D01*
X121500000Y-79085000D02*
X122706667Y-79085000D01*
X121500000Y-79205000D02*
X122706667Y-79205000D01*
X121500000Y-79325000D02*
X122706667Y-79325000D01*
X121500000Y-79445000D02*
X122706667Y-79445000D01*
X121500000Y-79565000D02*
X122706667Y-79565000D01*
X122706667Y-78365000D02*
X122706667Y-79635000D01*
%TO.C,SW21*%
X130900000Y-76890000D02*
X137721000Y-76890000D01*
X130900000Y-81110000D02*
X137721000Y-81110000D01*
X130900000Y-76890000D02*
X130900000Y-77960000D01*
X130900000Y-80040000D02*
X130900000Y-81110000D01*
X137721000Y-76890000D02*
X137721000Y-78010000D01*
X137721000Y-79990000D02*
X137721000Y-81110000D01*
X130660000Y-76650000D02*
X132043000Y-76650000D01*
X130660000Y-76650000D02*
X130660000Y-77960000D01*
X132500000Y-78365000D02*
X132500000Y-79635000D01*
X132500000Y-79635000D02*
X136120000Y-79635000D01*
X136120000Y-79635000D02*
X136120000Y-78365000D01*
X136120000Y-78365000D02*
X132500000Y-78365000D01*
X132500000Y-78485000D02*
X133706667Y-78485000D01*
X132500000Y-78605000D02*
X133706667Y-78605000D01*
X132500000Y-78725000D02*
X133706667Y-78725000D01*
X132500000Y-78845000D02*
X133706667Y-78845000D01*
X132500000Y-78965000D02*
X133706667Y-78965000D01*
X132500000Y-79085000D02*
X133706667Y-79085000D01*
X132500000Y-79205000D02*
X133706667Y-79205000D01*
X132500000Y-79325000D02*
X133706667Y-79325000D01*
X132500000Y-79445000D02*
X133706667Y-79445000D01*
X132500000Y-79565000D02*
X133706667Y-79565000D01*
X133706667Y-78365000D02*
X133706667Y-79635000D01*
%TO.C,SW20*%
X141900000Y-76890000D02*
X148721000Y-76890000D01*
X141900000Y-81110000D02*
X148721000Y-81110000D01*
X141900000Y-76890000D02*
X141900000Y-77960000D01*
X141900000Y-80040000D02*
X141900000Y-81110000D01*
X148721000Y-76890000D02*
X148721000Y-78010000D01*
X148721000Y-79990000D02*
X148721000Y-81110000D01*
X141660000Y-76650000D02*
X143043000Y-76650000D01*
X141660000Y-76650000D02*
X141660000Y-77960000D01*
X143500000Y-78365000D02*
X143500000Y-79635000D01*
X143500000Y-79635000D02*
X147120000Y-79635000D01*
X147120000Y-79635000D02*
X147120000Y-78365000D01*
X147120000Y-78365000D02*
X143500000Y-78365000D01*
X143500000Y-78485000D02*
X144706667Y-78485000D01*
X143500000Y-78605000D02*
X144706667Y-78605000D01*
X143500000Y-78725000D02*
X144706667Y-78725000D01*
X143500000Y-78845000D02*
X144706667Y-78845000D01*
X143500000Y-78965000D02*
X144706667Y-78965000D01*
X143500000Y-79085000D02*
X144706667Y-79085000D01*
X143500000Y-79205000D02*
X144706667Y-79205000D01*
X143500000Y-79325000D02*
X144706667Y-79325000D01*
X143500000Y-79445000D02*
X144706667Y-79445000D01*
X143500000Y-79565000D02*
X144706667Y-79565000D01*
X144706667Y-78365000D02*
X144706667Y-79635000D01*
%TO.C,SW19*%
X152900000Y-76890000D02*
X159721000Y-76890000D01*
X152900000Y-81110000D02*
X159721000Y-81110000D01*
X152900000Y-76890000D02*
X152900000Y-77960000D01*
X152900000Y-80040000D02*
X152900000Y-81110000D01*
X159721000Y-76890000D02*
X159721000Y-78010000D01*
X159721000Y-79990000D02*
X159721000Y-81110000D01*
X152660000Y-76650000D02*
X154043000Y-76650000D01*
X152660000Y-76650000D02*
X152660000Y-77960000D01*
X154500000Y-78365000D02*
X154500000Y-79635000D01*
X154500000Y-79635000D02*
X158120000Y-79635000D01*
X158120000Y-79635000D02*
X158120000Y-78365000D01*
X158120000Y-78365000D02*
X154500000Y-78365000D01*
X154500000Y-78485000D02*
X155706667Y-78485000D01*
X154500000Y-78605000D02*
X155706667Y-78605000D01*
X154500000Y-78725000D02*
X155706667Y-78725000D01*
X154500000Y-78845000D02*
X155706667Y-78845000D01*
X154500000Y-78965000D02*
X155706667Y-78965000D01*
X154500000Y-79085000D02*
X155706667Y-79085000D01*
X154500000Y-79205000D02*
X155706667Y-79205000D01*
X154500000Y-79325000D02*
X155706667Y-79325000D01*
X154500000Y-79445000D02*
X155706667Y-79445000D01*
X154500000Y-79565000D02*
X155706667Y-79565000D01*
X155706667Y-78365000D02*
X155706667Y-79635000D01*
%TO.C,SW18*%
X163900000Y-76890000D02*
X170721000Y-76890000D01*
X163900000Y-81110000D02*
X170721000Y-81110000D01*
X163900000Y-76890000D02*
X163900000Y-77960000D01*
X163900000Y-80040000D02*
X163900000Y-81110000D01*
X170721000Y-76890000D02*
X170721000Y-78010000D01*
X170721000Y-79990000D02*
X170721000Y-81110000D01*
X163660000Y-76650000D02*
X165043000Y-76650000D01*
X163660000Y-76650000D02*
X163660000Y-77960000D01*
X165500000Y-78365000D02*
X165500000Y-79635000D01*
X165500000Y-79635000D02*
X169120000Y-79635000D01*
X169120000Y-79635000D02*
X169120000Y-78365000D01*
X169120000Y-78365000D02*
X165500000Y-78365000D01*
X165500000Y-78485000D02*
X166706667Y-78485000D01*
X165500000Y-78605000D02*
X166706667Y-78605000D01*
X165500000Y-78725000D02*
X166706667Y-78725000D01*
X165500000Y-78845000D02*
X166706667Y-78845000D01*
X165500000Y-78965000D02*
X166706667Y-78965000D01*
X165500000Y-79085000D02*
X166706667Y-79085000D01*
X165500000Y-79205000D02*
X166706667Y-79205000D01*
X165500000Y-79325000D02*
X166706667Y-79325000D01*
X165500000Y-79445000D02*
X166706667Y-79445000D01*
X165500000Y-79565000D02*
X166706667Y-79565000D01*
X166706667Y-78365000D02*
X166706667Y-79635000D01*
%TO.C,SW17*%
X174900000Y-76890000D02*
X181721000Y-76890000D01*
X174900000Y-81110000D02*
X181721000Y-81110000D01*
X174900000Y-76890000D02*
X174900000Y-77960000D01*
X174900000Y-80040000D02*
X174900000Y-81110000D01*
X181721000Y-76890000D02*
X181721000Y-78010000D01*
X181721000Y-79990000D02*
X181721000Y-81110000D01*
X174660000Y-76650000D02*
X176043000Y-76650000D01*
X174660000Y-76650000D02*
X174660000Y-77960000D01*
X176500000Y-78365000D02*
X176500000Y-79635000D01*
X176500000Y-79635000D02*
X180120000Y-79635000D01*
X180120000Y-79635000D02*
X180120000Y-78365000D01*
X180120000Y-78365000D02*
X176500000Y-78365000D01*
X176500000Y-78485000D02*
X177706667Y-78485000D01*
X176500000Y-78605000D02*
X177706667Y-78605000D01*
X176500000Y-78725000D02*
X177706667Y-78725000D01*
X176500000Y-78845000D02*
X177706667Y-78845000D01*
X176500000Y-78965000D02*
X177706667Y-78965000D01*
X176500000Y-79085000D02*
X177706667Y-79085000D01*
X176500000Y-79205000D02*
X177706667Y-79205000D01*
X176500000Y-79325000D02*
X177706667Y-79325000D01*
X176500000Y-79445000D02*
X177706667Y-79445000D01*
X176500000Y-79565000D02*
X177706667Y-79565000D01*
X177706667Y-78365000D02*
X177706667Y-79635000D01*
%TO.C,SW16*%
X97900000Y-68890000D02*
X104721000Y-68890000D01*
X97900000Y-73110000D02*
X104721000Y-73110000D01*
X97900000Y-68890000D02*
X97900000Y-69960000D01*
X97900000Y-72040000D02*
X97900000Y-73110000D01*
X104721000Y-68890000D02*
X104721000Y-70010000D01*
X104721000Y-71990000D02*
X104721000Y-73110000D01*
X97660000Y-68650000D02*
X99043000Y-68650000D01*
X97660000Y-68650000D02*
X97660000Y-69960000D01*
X99500000Y-70365000D02*
X99500000Y-71635000D01*
X99500000Y-71635000D02*
X103120000Y-71635000D01*
X103120000Y-71635000D02*
X103120000Y-70365000D01*
X103120000Y-70365000D02*
X99500000Y-70365000D01*
X99500000Y-70485000D02*
X100706667Y-70485000D01*
X99500000Y-70605000D02*
X100706667Y-70605000D01*
X99500000Y-70725000D02*
X100706667Y-70725000D01*
X99500000Y-70845000D02*
X100706667Y-70845000D01*
X99500000Y-70965000D02*
X100706667Y-70965000D01*
X99500000Y-71085000D02*
X100706667Y-71085000D01*
X99500000Y-71205000D02*
X100706667Y-71205000D01*
X99500000Y-71325000D02*
X100706667Y-71325000D01*
X99500000Y-71445000D02*
X100706667Y-71445000D01*
X99500000Y-71565000D02*
X100706667Y-71565000D01*
X100706667Y-70365000D02*
X100706667Y-71635000D01*
%TO.C,SW15*%
X108900000Y-68890000D02*
X115721000Y-68890000D01*
X108900000Y-73110000D02*
X115721000Y-73110000D01*
X108900000Y-68890000D02*
X108900000Y-69960000D01*
X108900000Y-72040000D02*
X108900000Y-73110000D01*
X115721000Y-68890000D02*
X115721000Y-70010000D01*
X115721000Y-71990000D02*
X115721000Y-73110000D01*
X108660000Y-68650000D02*
X110043000Y-68650000D01*
X108660000Y-68650000D02*
X108660000Y-69960000D01*
X110500000Y-70365000D02*
X110500000Y-71635000D01*
X110500000Y-71635000D02*
X114120000Y-71635000D01*
X114120000Y-71635000D02*
X114120000Y-70365000D01*
X114120000Y-70365000D02*
X110500000Y-70365000D01*
X110500000Y-70485000D02*
X111706667Y-70485000D01*
X110500000Y-70605000D02*
X111706667Y-70605000D01*
X110500000Y-70725000D02*
X111706667Y-70725000D01*
X110500000Y-70845000D02*
X111706667Y-70845000D01*
X110500000Y-70965000D02*
X111706667Y-70965000D01*
X110500000Y-71085000D02*
X111706667Y-71085000D01*
X110500000Y-71205000D02*
X111706667Y-71205000D01*
X110500000Y-71325000D02*
X111706667Y-71325000D01*
X110500000Y-71445000D02*
X111706667Y-71445000D01*
X110500000Y-71565000D02*
X111706667Y-71565000D01*
X111706667Y-70365000D02*
X111706667Y-71635000D01*
%TO.C,SW14*%
X119900000Y-68890000D02*
X126721000Y-68890000D01*
X119900000Y-73110000D02*
X126721000Y-73110000D01*
X119900000Y-68890000D02*
X119900000Y-69960000D01*
X119900000Y-72040000D02*
X119900000Y-73110000D01*
X126721000Y-68890000D02*
X126721000Y-70010000D01*
X126721000Y-71990000D02*
X126721000Y-73110000D01*
X119660000Y-68650000D02*
X121043000Y-68650000D01*
X119660000Y-68650000D02*
X119660000Y-69960000D01*
X121500000Y-70365000D02*
X121500000Y-71635000D01*
X121500000Y-71635000D02*
X125120000Y-71635000D01*
X125120000Y-71635000D02*
X125120000Y-70365000D01*
X125120000Y-70365000D02*
X121500000Y-70365000D01*
X121500000Y-70485000D02*
X122706667Y-70485000D01*
X121500000Y-70605000D02*
X122706667Y-70605000D01*
X121500000Y-70725000D02*
X122706667Y-70725000D01*
X121500000Y-70845000D02*
X122706667Y-70845000D01*
X121500000Y-70965000D02*
X122706667Y-70965000D01*
X121500000Y-71085000D02*
X122706667Y-71085000D01*
X121500000Y-71205000D02*
X122706667Y-71205000D01*
X121500000Y-71325000D02*
X122706667Y-71325000D01*
X121500000Y-71445000D02*
X122706667Y-71445000D01*
X121500000Y-71565000D02*
X122706667Y-71565000D01*
X122706667Y-70365000D02*
X122706667Y-71635000D01*
%TO.C,SW13*%
X130900000Y-68890000D02*
X137721000Y-68890000D01*
X130900000Y-73110000D02*
X137721000Y-73110000D01*
X130900000Y-68890000D02*
X130900000Y-69960000D01*
X130900000Y-72040000D02*
X130900000Y-73110000D01*
X137721000Y-68890000D02*
X137721000Y-70010000D01*
X137721000Y-71990000D02*
X137721000Y-73110000D01*
X130660000Y-68650000D02*
X132043000Y-68650000D01*
X130660000Y-68650000D02*
X130660000Y-69960000D01*
X132500000Y-70365000D02*
X132500000Y-71635000D01*
X132500000Y-71635000D02*
X136120000Y-71635000D01*
X136120000Y-71635000D02*
X136120000Y-70365000D01*
X136120000Y-70365000D02*
X132500000Y-70365000D01*
X132500000Y-70485000D02*
X133706667Y-70485000D01*
X132500000Y-70605000D02*
X133706667Y-70605000D01*
X132500000Y-70725000D02*
X133706667Y-70725000D01*
X132500000Y-70845000D02*
X133706667Y-70845000D01*
X132500000Y-70965000D02*
X133706667Y-70965000D01*
X132500000Y-71085000D02*
X133706667Y-71085000D01*
X132500000Y-71205000D02*
X133706667Y-71205000D01*
X132500000Y-71325000D02*
X133706667Y-71325000D01*
X132500000Y-71445000D02*
X133706667Y-71445000D01*
X132500000Y-71565000D02*
X133706667Y-71565000D01*
X133706667Y-70365000D02*
X133706667Y-71635000D01*
%TO.C,SW12*%
X141900000Y-68890000D02*
X148721000Y-68890000D01*
X141900000Y-73110000D02*
X148721000Y-73110000D01*
X141900000Y-68890000D02*
X141900000Y-69960000D01*
X141900000Y-72040000D02*
X141900000Y-73110000D01*
X148721000Y-68890000D02*
X148721000Y-70010000D01*
X148721000Y-71990000D02*
X148721000Y-73110000D01*
X141660000Y-68650000D02*
X143043000Y-68650000D01*
X141660000Y-68650000D02*
X141660000Y-69960000D01*
X143500000Y-70365000D02*
X143500000Y-71635000D01*
X143500000Y-71635000D02*
X147120000Y-71635000D01*
X147120000Y-71635000D02*
X147120000Y-70365000D01*
X147120000Y-70365000D02*
X143500000Y-70365000D01*
X143500000Y-70485000D02*
X144706667Y-70485000D01*
X143500000Y-70605000D02*
X144706667Y-70605000D01*
X143500000Y-70725000D02*
X144706667Y-70725000D01*
X143500000Y-70845000D02*
X144706667Y-70845000D01*
X143500000Y-70965000D02*
X144706667Y-70965000D01*
X143500000Y-71085000D02*
X144706667Y-71085000D01*
X143500000Y-71205000D02*
X144706667Y-71205000D01*
X143500000Y-71325000D02*
X144706667Y-71325000D01*
X143500000Y-71445000D02*
X144706667Y-71445000D01*
X143500000Y-71565000D02*
X144706667Y-71565000D01*
X144706667Y-70365000D02*
X144706667Y-71635000D01*
%TO.C,SW11*%
X152900000Y-68890000D02*
X159721000Y-68890000D01*
X152900000Y-73110000D02*
X159721000Y-73110000D01*
X152900000Y-68890000D02*
X152900000Y-69960000D01*
X152900000Y-72040000D02*
X152900000Y-73110000D01*
X159721000Y-68890000D02*
X159721000Y-70010000D01*
X159721000Y-71990000D02*
X159721000Y-73110000D01*
X152660000Y-68650000D02*
X154043000Y-68650000D01*
X152660000Y-68650000D02*
X152660000Y-69960000D01*
X154500000Y-70365000D02*
X154500000Y-71635000D01*
X154500000Y-71635000D02*
X158120000Y-71635000D01*
X158120000Y-71635000D02*
X158120000Y-70365000D01*
X158120000Y-70365000D02*
X154500000Y-70365000D01*
X154500000Y-70485000D02*
X155706667Y-70485000D01*
X154500000Y-70605000D02*
X155706667Y-70605000D01*
X154500000Y-70725000D02*
X155706667Y-70725000D01*
X154500000Y-70845000D02*
X155706667Y-70845000D01*
X154500000Y-70965000D02*
X155706667Y-70965000D01*
X154500000Y-71085000D02*
X155706667Y-71085000D01*
X154500000Y-71205000D02*
X155706667Y-71205000D01*
X154500000Y-71325000D02*
X155706667Y-71325000D01*
X154500000Y-71445000D02*
X155706667Y-71445000D01*
X154500000Y-71565000D02*
X155706667Y-71565000D01*
X155706667Y-70365000D02*
X155706667Y-71635000D01*
%TO.C,SW10*%
X163900000Y-68890000D02*
X170721000Y-68890000D01*
X163900000Y-73110000D02*
X170721000Y-73110000D01*
X163900000Y-68890000D02*
X163900000Y-69960000D01*
X163900000Y-72040000D02*
X163900000Y-73110000D01*
X170721000Y-68890000D02*
X170721000Y-70010000D01*
X170721000Y-71990000D02*
X170721000Y-73110000D01*
X163660000Y-68650000D02*
X165043000Y-68650000D01*
X163660000Y-68650000D02*
X163660000Y-69960000D01*
X165500000Y-70365000D02*
X165500000Y-71635000D01*
X165500000Y-71635000D02*
X169120000Y-71635000D01*
X169120000Y-71635000D02*
X169120000Y-70365000D01*
X169120000Y-70365000D02*
X165500000Y-70365000D01*
X165500000Y-70485000D02*
X166706667Y-70485000D01*
X165500000Y-70605000D02*
X166706667Y-70605000D01*
X165500000Y-70725000D02*
X166706667Y-70725000D01*
X165500000Y-70845000D02*
X166706667Y-70845000D01*
X165500000Y-70965000D02*
X166706667Y-70965000D01*
X165500000Y-71085000D02*
X166706667Y-71085000D01*
X165500000Y-71205000D02*
X166706667Y-71205000D01*
X165500000Y-71325000D02*
X166706667Y-71325000D01*
X165500000Y-71445000D02*
X166706667Y-71445000D01*
X165500000Y-71565000D02*
X166706667Y-71565000D01*
X166706667Y-70365000D02*
X166706667Y-71635000D01*
%TO.C,SW9*%
X174900000Y-68890000D02*
X181721000Y-68890000D01*
X174900000Y-73110000D02*
X181721000Y-73110000D01*
X174900000Y-68890000D02*
X174900000Y-69960000D01*
X174900000Y-72040000D02*
X174900000Y-73110000D01*
X181721000Y-68890000D02*
X181721000Y-70010000D01*
X181721000Y-71990000D02*
X181721000Y-73110000D01*
X174660000Y-68650000D02*
X176043000Y-68650000D01*
X174660000Y-68650000D02*
X174660000Y-69960000D01*
X176500000Y-70365000D02*
X176500000Y-71635000D01*
X176500000Y-71635000D02*
X180120000Y-71635000D01*
X180120000Y-71635000D02*
X180120000Y-70365000D01*
X180120000Y-70365000D02*
X176500000Y-70365000D01*
X176500000Y-70485000D02*
X177706667Y-70485000D01*
X176500000Y-70605000D02*
X177706667Y-70605000D01*
X176500000Y-70725000D02*
X177706667Y-70725000D01*
X176500000Y-70845000D02*
X177706667Y-70845000D01*
X176500000Y-70965000D02*
X177706667Y-70965000D01*
X176500000Y-71085000D02*
X177706667Y-71085000D01*
X176500000Y-71205000D02*
X177706667Y-71205000D01*
X176500000Y-71325000D02*
X177706667Y-71325000D01*
X176500000Y-71445000D02*
X177706667Y-71445000D01*
X176500000Y-71565000D02*
X177706667Y-71565000D01*
X177706667Y-70365000D02*
X177706667Y-71635000D01*
%TO.C,SW8*%
X97900000Y-60890000D02*
X104721000Y-60890000D01*
X97900000Y-65110000D02*
X104721000Y-65110000D01*
X97900000Y-60890000D02*
X97900000Y-61960000D01*
X97900000Y-64040000D02*
X97900000Y-65110000D01*
X104721000Y-60890000D02*
X104721000Y-62010000D01*
X104721000Y-63990000D02*
X104721000Y-65110000D01*
X97660000Y-60650000D02*
X99043000Y-60650000D01*
X97660000Y-60650000D02*
X97660000Y-61960000D01*
X99500000Y-62365000D02*
X99500000Y-63635000D01*
X99500000Y-63635000D02*
X103120000Y-63635000D01*
X103120000Y-63635000D02*
X103120000Y-62365000D01*
X103120000Y-62365000D02*
X99500000Y-62365000D01*
X99500000Y-62485000D02*
X100706667Y-62485000D01*
X99500000Y-62605000D02*
X100706667Y-62605000D01*
X99500000Y-62725000D02*
X100706667Y-62725000D01*
X99500000Y-62845000D02*
X100706667Y-62845000D01*
X99500000Y-62965000D02*
X100706667Y-62965000D01*
X99500000Y-63085000D02*
X100706667Y-63085000D01*
X99500000Y-63205000D02*
X100706667Y-63205000D01*
X99500000Y-63325000D02*
X100706667Y-63325000D01*
X99500000Y-63445000D02*
X100706667Y-63445000D01*
X99500000Y-63565000D02*
X100706667Y-63565000D01*
X100706667Y-62365000D02*
X100706667Y-63635000D01*
%TO.C,SW7*%
X108900000Y-60890000D02*
X115721000Y-60890000D01*
X108900000Y-65110000D02*
X115721000Y-65110000D01*
X108900000Y-60890000D02*
X108900000Y-61960000D01*
X108900000Y-64040000D02*
X108900000Y-65110000D01*
X115721000Y-60890000D02*
X115721000Y-62010000D01*
X115721000Y-63990000D02*
X115721000Y-65110000D01*
X108660000Y-60650000D02*
X110043000Y-60650000D01*
X108660000Y-60650000D02*
X108660000Y-61960000D01*
X110500000Y-62365000D02*
X110500000Y-63635000D01*
X110500000Y-63635000D02*
X114120000Y-63635000D01*
X114120000Y-63635000D02*
X114120000Y-62365000D01*
X114120000Y-62365000D02*
X110500000Y-62365000D01*
X110500000Y-62485000D02*
X111706667Y-62485000D01*
X110500000Y-62605000D02*
X111706667Y-62605000D01*
X110500000Y-62725000D02*
X111706667Y-62725000D01*
X110500000Y-62845000D02*
X111706667Y-62845000D01*
X110500000Y-62965000D02*
X111706667Y-62965000D01*
X110500000Y-63085000D02*
X111706667Y-63085000D01*
X110500000Y-63205000D02*
X111706667Y-63205000D01*
X110500000Y-63325000D02*
X111706667Y-63325000D01*
X110500000Y-63445000D02*
X111706667Y-63445000D01*
X110500000Y-63565000D02*
X111706667Y-63565000D01*
X111706667Y-62365000D02*
X111706667Y-63635000D01*
%TO.C,SW6*%
X119900000Y-60890000D02*
X126721000Y-60890000D01*
X119900000Y-65110000D02*
X126721000Y-65110000D01*
X119900000Y-60890000D02*
X119900000Y-61960000D01*
X119900000Y-64040000D02*
X119900000Y-65110000D01*
X126721000Y-60890000D02*
X126721000Y-62010000D01*
X126721000Y-63990000D02*
X126721000Y-65110000D01*
X119660000Y-60650000D02*
X121043000Y-60650000D01*
X119660000Y-60650000D02*
X119660000Y-61960000D01*
X121500000Y-62365000D02*
X121500000Y-63635000D01*
X121500000Y-63635000D02*
X125120000Y-63635000D01*
X125120000Y-63635000D02*
X125120000Y-62365000D01*
X125120000Y-62365000D02*
X121500000Y-62365000D01*
X121500000Y-62485000D02*
X122706667Y-62485000D01*
X121500000Y-62605000D02*
X122706667Y-62605000D01*
X121500000Y-62725000D02*
X122706667Y-62725000D01*
X121500000Y-62845000D02*
X122706667Y-62845000D01*
X121500000Y-62965000D02*
X122706667Y-62965000D01*
X121500000Y-63085000D02*
X122706667Y-63085000D01*
X121500000Y-63205000D02*
X122706667Y-63205000D01*
X121500000Y-63325000D02*
X122706667Y-63325000D01*
X121500000Y-63445000D02*
X122706667Y-63445000D01*
X121500000Y-63565000D02*
X122706667Y-63565000D01*
X122706667Y-62365000D02*
X122706667Y-63635000D01*
%TO.C,SW5*%
X130900000Y-60890000D02*
X137721000Y-60890000D01*
X130900000Y-65110000D02*
X137721000Y-65110000D01*
X130900000Y-60890000D02*
X130900000Y-61960000D01*
X130900000Y-64040000D02*
X130900000Y-65110000D01*
X137721000Y-60890000D02*
X137721000Y-62010000D01*
X137721000Y-63990000D02*
X137721000Y-65110000D01*
X130660000Y-60650000D02*
X132043000Y-60650000D01*
X130660000Y-60650000D02*
X130660000Y-61960000D01*
X132500000Y-62365000D02*
X132500000Y-63635000D01*
X132500000Y-63635000D02*
X136120000Y-63635000D01*
X136120000Y-63635000D02*
X136120000Y-62365000D01*
X136120000Y-62365000D02*
X132500000Y-62365000D01*
X132500000Y-62485000D02*
X133706667Y-62485000D01*
X132500000Y-62605000D02*
X133706667Y-62605000D01*
X132500000Y-62725000D02*
X133706667Y-62725000D01*
X132500000Y-62845000D02*
X133706667Y-62845000D01*
X132500000Y-62965000D02*
X133706667Y-62965000D01*
X132500000Y-63085000D02*
X133706667Y-63085000D01*
X132500000Y-63205000D02*
X133706667Y-63205000D01*
X132500000Y-63325000D02*
X133706667Y-63325000D01*
X132500000Y-63445000D02*
X133706667Y-63445000D01*
X132500000Y-63565000D02*
X133706667Y-63565000D01*
X133706667Y-62365000D02*
X133706667Y-63635000D01*
%TO.C,SW4*%
X141900000Y-60890000D02*
X148721000Y-60890000D01*
X141900000Y-65110000D02*
X148721000Y-65110000D01*
X141900000Y-60890000D02*
X141900000Y-61960000D01*
X141900000Y-64040000D02*
X141900000Y-65110000D01*
X148721000Y-60890000D02*
X148721000Y-62010000D01*
X148721000Y-63990000D02*
X148721000Y-65110000D01*
X141660000Y-60650000D02*
X143043000Y-60650000D01*
X141660000Y-60650000D02*
X141660000Y-61960000D01*
X143500000Y-62365000D02*
X143500000Y-63635000D01*
X143500000Y-63635000D02*
X147120000Y-63635000D01*
X147120000Y-63635000D02*
X147120000Y-62365000D01*
X147120000Y-62365000D02*
X143500000Y-62365000D01*
X143500000Y-62485000D02*
X144706667Y-62485000D01*
X143500000Y-62605000D02*
X144706667Y-62605000D01*
X143500000Y-62725000D02*
X144706667Y-62725000D01*
X143500000Y-62845000D02*
X144706667Y-62845000D01*
X143500000Y-62965000D02*
X144706667Y-62965000D01*
X143500000Y-63085000D02*
X144706667Y-63085000D01*
X143500000Y-63205000D02*
X144706667Y-63205000D01*
X143500000Y-63325000D02*
X144706667Y-63325000D01*
X143500000Y-63445000D02*
X144706667Y-63445000D01*
X143500000Y-63565000D02*
X144706667Y-63565000D01*
X144706667Y-62365000D02*
X144706667Y-63635000D01*
%TO.C,SW3*%
X152900000Y-60890000D02*
X159721000Y-60890000D01*
X152900000Y-65110000D02*
X159721000Y-65110000D01*
X152900000Y-60890000D02*
X152900000Y-61960000D01*
X152900000Y-64040000D02*
X152900000Y-65110000D01*
X159721000Y-60890000D02*
X159721000Y-62010000D01*
X159721000Y-63990000D02*
X159721000Y-65110000D01*
X152660000Y-60650000D02*
X154043000Y-60650000D01*
X152660000Y-60650000D02*
X152660000Y-61960000D01*
X154500000Y-62365000D02*
X154500000Y-63635000D01*
X154500000Y-63635000D02*
X158120000Y-63635000D01*
X158120000Y-63635000D02*
X158120000Y-62365000D01*
X158120000Y-62365000D02*
X154500000Y-62365000D01*
X154500000Y-62485000D02*
X155706667Y-62485000D01*
X154500000Y-62605000D02*
X155706667Y-62605000D01*
X154500000Y-62725000D02*
X155706667Y-62725000D01*
X154500000Y-62845000D02*
X155706667Y-62845000D01*
X154500000Y-62965000D02*
X155706667Y-62965000D01*
X154500000Y-63085000D02*
X155706667Y-63085000D01*
X154500000Y-63205000D02*
X155706667Y-63205000D01*
X154500000Y-63325000D02*
X155706667Y-63325000D01*
X154500000Y-63445000D02*
X155706667Y-63445000D01*
X154500000Y-63565000D02*
X155706667Y-63565000D01*
X155706667Y-62365000D02*
X155706667Y-63635000D01*
%TO.C,SW2*%
X163900000Y-60890000D02*
X170721000Y-60890000D01*
X163900000Y-65110000D02*
X170721000Y-65110000D01*
X163900000Y-60890000D02*
X163900000Y-61960000D01*
X163900000Y-64040000D02*
X163900000Y-65110000D01*
X170721000Y-60890000D02*
X170721000Y-62010000D01*
X170721000Y-63990000D02*
X170721000Y-65110000D01*
X163660000Y-60650000D02*
X165043000Y-60650000D01*
X163660000Y-60650000D02*
X163660000Y-61960000D01*
X165500000Y-62365000D02*
X165500000Y-63635000D01*
X165500000Y-63635000D02*
X169120000Y-63635000D01*
X169120000Y-63635000D02*
X169120000Y-62365000D01*
X169120000Y-62365000D02*
X165500000Y-62365000D01*
X165500000Y-62485000D02*
X166706667Y-62485000D01*
X165500000Y-62605000D02*
X166706667Y-62605000D01*
X165500000Y-62725000D02*
X166706667Y-62725000D01*
X165500000Y-62845000D02*
X166706667Y-62845000D01*
X165500000Y-62965000D02*
X166706667Y-62965000D01*
X165500000Y-63085000D02*
X166706667Y-63085000D01*
X165500000Y-63205000D02*
X166706667Y-63205000D01*
X165500000Y-63325000D02*
X166706667Y-63325000D01*
X165500000Y-63445000D02*
X166706667Y-63445000D01*
X165500000Y-63565000D02*
X166706667Y-63565000D01*
X166706667Y-62365000D02*
X166706667Y-63635000D01*
%TO.C,SW1*%
X174900000Y-60890000D02*
X181721000Y-60890000D01*
X174900000Y-65110000D02*
X181721000Y-65110000D01*
X174900000Y-60890000D02*
X174900000Y-61960000D01*
X174900000Y-64040000D02*
X174900000Y-65110000D01*
X181721000Y-60890000D02*
X181721000Y-62010000D01*
X181721000Y-63990000D02*
X181721000Y-65110000D01*
X174660000Y-60650000D02*
X176043000Y-60650000D01*
X174660000Y-60650000D02*
X174660000Y-61960000D01*
X176500000Y-62365000D02*
X176500000Y-63635000D01*
X176500000Y-63635000D02*
X180120000Y-63635000D01*
X180120000Y-63635000D02*
X180120000Y-62365000D01*
X180120000Y-62365000D02*
X176500000Y-62365000D01*
X176500000Y-62485000D02*
X177706667Y-62485000D01*
X176500000Y-62605000D02*
X177706667Y-62605000D01*
X176500000Y-62725000D02*
X177706667Y-62725000D01*
X176500000Y-62845000D02*
X177706667Y-62845000D01*
X176500000Y-62965000D02*
X177706667Y-62965000D01*
X176500000Y-63085000D02*
X177706667Y-63085000D01*
X176500000Y-63205000D02*
X177706667Y-63205000D01*
X176500000Y-63325000D02*
X177706667Y-63325000D01*
X176500000Y-63445000D02*
X177706667Y-63445000D01*
X176500000Y-63565000D02*
X177706667Y-63565000D01*
X177706667Y-62365000D02*
X177706667Y-63635000D01*
%TO.C,J1*%
X178670000Y-46910000D02*
X181330000Y-46910000D01*
X178670000Y-41770000D02*
X178670000Y-46910000D01*
X181330000Y-41770000D02*
X181330000Y-46910000D01*
X178670000Y-41770000D02*
X181330000Y-41770000D01*
X178670000Y-40500000D02*
X178670000Y-39170000D01*
X178670000Y-39170000D02*
X180000000Y-39170000D01*
%TO.C,J4*%
D12*
X99071171Y-37203200D02*
X99506600Y-37203200D01*
X99593685Y-37232228D01*
X99651742Y-37290285D01*
X99680771Y-37377371D01*
X99680771Y-37435428D01*
X99274371Y-36651657D02*
X99680771Y-36651657D01*
X99042142Y-36796800D02*
X99477571Y-36941942D01*
X99477571Y-36564571D01*
X95812714Y-38582057D02*
X95841742Y-38611085D01*
X95870771Y-38698171D01*
X95870771Y-38756228D01*
X95841742Y-38843314D01*
X95783685Y-38901371D01*
X95725628Y-38930400D01*
X95609514Y-38959428D01*
X95522428Y-38959428D01*
X95406314Y-38930400D01*
X95348257Y-38901371D01*
X95290200Y-38843314D01*
X95261171Y-38756228D01*
X95261171Y-38698171D01*
X95290200Y-38611085D01*
X95319228Y-38582057D01*
X95261171Y-38204685D02*
X95261171Y-38088571D01*
X95290200Y-38030514D01*
X95348257Y-37972457D01*
X95464371Y-37943428D01*
X95667571Y-37943428D01*
X95783685Y-37972457D01*
X95841742Y-38030514D01*
X95870771Y-38088571D01*
X95870771Y-38204685D01*
X95841742Y-38262742D01*
X95783685Y-38320800D01*
X95667571Y-38349828D01*
X95464371Y-38349828D01*
X95348257Y-38320800D01*
X95290200Y-38262742D01*
X95261171Y-38204685D01*
X95870771Y-37682171D02*
X95261171Y-37682171D01*
X95870771Y-37333828D01*
X95261171Y-37333828D01*
X95870771Y-37043542D02*
X95261171Y-37043542D01*
X95870771Y-36695200D01*
X95261171Y-36695200D01*
X95928828Y-36550057D02*
X95928828Y-36085600D01*
X95261171Y-35824342D02*
X95261171Y-35766285D01*
X95290200Y-35708228D01*
X95319228Y-35679200D01*
X95377285Y-35650171D01*
X95493400Y-35621142D01*
X95638542Y-35621142D01*
X95754657Y-35650171D01*
X95812714Y-35679200D01*
X95841742Y-35708228D01*
X95870771Y-35766285D01*
X95870771Y-35824342D01*
X95841742Y-35882400D01*
X95812714Y-35911428D01*
X95754657Y-35940457D01*
X95638542Y-35969485D01*
X95493400Y-35969485D01*
X95377285Y-35940457D01*
X95319228Y-35911428D01*
X95290200Y-35882400D01*
X95261171Y-35824342D01*
X95319228Y-35388914D02*
X95290200Y-35359885D01*
X95261171Y-35301828D01*
X95261171Y-35156685D01*
X95290200Y-35098628D01*
X95319228Y-35069600D01*
X95377285Y-35040571D01*
X95435342Y-35040571D01*
X95522428Y-35069600D01*
X95870771Y-35417942D01*
X95870771Y-35040571D01*
%TO.C,J3*%
X168296800Y-30761171D02*
X168296800Y-31196600D01*
X168267771Y-31283685D01*
X168209714Y-31341742D01*
X168122628Y-31370771D01*
X168064571Y-31370771D01*
X168529028Y-30761171D02*
X168906400Y-30761171D01*
X168703200Y-30993400D01*
X168790285Y-30993400D01*
X168848342Y-31022428D01*
X168877371Y-31051457D01*
X168906400Y-31109514D01*
X168906400Y-31254657D01*
X168877371Y-31312714D01*
X168848342Y-31341742D01*
X168790285Y-31370771D01*
X168616114Y-31370771D01*
X168558057Y-31341742D01*
X168529028Y-31312714D01*
X167542057Y-35180771D02*
X167542057Y-34571171D01*
X167542057Y-35151742D02*
X167484000Y-35180771D01*
X167367885Y-35180771D01*
X167309828Y-35151742D01*
X167280800Y-35122714D01*
X167251771Y-35064657D01*
X167251771Y-34890485D01*
X167280800Y-34832428D01*
X167309828Y-34803400D01*
X167367885Y-34774371D01*
X167484000Y-34774371D01*
X167542057Y-34803400D01*
X168064571Y-35151742D02*
X168006514Y-35180771D01*
X167890400Y-35180771D01*
X167832342Y-35151742D01*
X167803314Y-35093685D01*
X167803314Y-34861457D01*
X167832342Y-34803400D01*
X167890400Y-34774371D01*
X168006514Y-34774371D01*
X168064571Y-34803400D01*
X168093600Y-34861457D01*
X168093600Y-34919514D01*
X167803314Y-34977571D01*
X168354857Y-35180771D02*
X168354857Y-34571171D01*
X168354857Y-34803400D02*
X168412914Y-34774371D01*
X168529028Y-34774371D01*
X168587085Y-34803400D01*
X168616114Y-34832428D01*
X168645142Y-34890485D01*
X168645142Y-35064657D01*
X168616114Y-35122714D01*
X168587085Y-35151742D01*
X168529028Y-35180771D01*
X168412914Y-35180771D01*
X168354857Y-35151742D01*
X169167657Y-34774371D02*
X169167657Y-35180771D01*
X168906400Y-34774371D02*
X168906400Y-35093685D01*
X168935428Y-35151742D01*
X168993485Y-35180771D01*
X169080571Y-35180771D01*
X169138628Y-35151742D01*
X169167657Y-35122714D01*
X169719200Y-34774371D02*
X169719200Y-35267857D01*
X169690171Y-35325914D01*
X169661142Y-35354942D01*
X169603085Y-35383971D01*
X169516000Y-35383971D01*
X169457942Y-35354942D01*
X169719200Y-35151742D02*
X169661142Y-35180771D01*
X169545028Y-35180771D01*
X169486971Y-35151742D01*
X169457942Y-35122714D01*
X169428914Y-35064657D01*
X169428914Y-34890485D01*
X169457942Y-34832428D01*
X169486971Y-34803400D01*
X169545028Y-34774371D01*
X169661142Y-34774371D01*
X169719200Y-34803400D01*
%TO.C,R5*%
D13*
X128983333Y-36672380D02*
X128650000Y-36196190D01*
X128411904Y-36672380D02*
X128411904Y-35672380D01*
X128792857Y-35672380D01*
X128888095Y-35720000D01*
X128935714Y-35767619D01*
X128983333Y-35862857D01*
X128983333Y-36005714D01*
X128935714Y-36100952D01*
X128888095Y-36148571D01*
X128792857Y-36196190D01*
X128411904Y-36196190D01*
X129888095Y-35672380D02*
X129411904Y-35672380D01*
X129364285Y-36148571D01*
X129411904Y-36100952D01*
X129507142Y-36053333D01*
X129745238Y-36053333D01*
X129840476Y-36100952D01*
X129888095Y-36148571D01*
X129935714Y-36243809D01*
X129935714Y-36481904D01*
X129888095Y-36577142D01*
X129840476Y-36624761D01*
X129745238Y-36672380D01*
X129507142Y-36672380D01*
X129411904Y-36624761D01*
X129364285Y-36577142D01*
%TO.C,J2*%
D12*
X179796800Y-47888171D02*
X179796800Y-48323600D01*
X179767771Y-48410685D01*
X179709714Y-48468742D01*
X179622628Y-48497771D01*
X179564571Y-48497771D01*
X180058057Y-47946228D02*
X180087085Y-47917200D01*
X180145142Y-47888171D01*
X180290285Y-47888171D01*
X180348342Y-47917200D01*
X180377371Y-47946228D01*
X180406400Y-48004285D01*
X180406400Y-48062342D01*
X180377371Y-48149428D01*
X180029028Y-48497771D01*
X180406400Y-48497771D01*
X177126171Y-52180771D02*
X177126171Y-51571171D01*
X177271314Y-51571171D01*
X177358400Y-51600200D01*
X177416457Y-51658257D01*
X177445485Y-51716314D01*
X177474514Y-51832428D01*
X177474514Y-51919514D01*
X177445485Y-52035628D01*
X177416457Y-52093685D01*
X177358400Y-52151742D01*
X177271314Y-52180771D01*
X177126171Y-52180771D01*
X177706742Y-52006600D02*
X177997028Y-52006600D01*
X177648685Y-52180771D02*
X177851885Y-51571171D01*
X178055085Y-52180771D01*
X178171200Y-51571171D02*
X178519542Y-51571171D01*
X178345371Y-52180771D02*
X178345371Y-51571171D01*
X178693714Y-52006600D02*
X178984000Y-52006600D01*
X178635657Y-52180771D02*
X178838857Y-51571171D01*
X179042057Y-52180771D01*
X179100114Y-52238828D02*
X179564571Y-52238828D01*
X179825828Y-51571171D02*
X179941942Y-51571171D01*
X180000000Y-51600200D01*
X180058057Y-51658257D01*
X180087085Y-51774371D01*
X180087085Y-51977571D01*
X180058057Y-52093685D01*
X180000000Y-52151742D01*
X179941942Y-52180771D01*
X179825828Y-52180771D01*
X179767771Y-52151742D01*
X179709714Y-52093685D01*
X179680685Y-51977571D01*
X179680685Y-51774371D01*
X179709714Y-51658257D01*
X179767771Y-51600200D01*
X179825828Y-51571171D01*
X180348342Y-51571171D02*
X180348342Y-52064657D01*
X180377371Y-52122714D01*
X180406400Y-52151742D01*
X180464457Y-52180771D01*
X180580571Y-52180771D01*
X180638628Y-52151742D01*
X180667657Y-52122714D01*
X180696685Y-52064657D01*
X180696685Y-51571171D01*
X180899885Y-51571171D02*
X181248228Y-51571171D01*
X181074057Y-52180771D02*
X181074057Y-51571171D01*
X181451428Y-52180771D02*
X181451428Y-51571171D01*
X181683657Y-51571171D01*
X181741714Y-51600200D01*
X181770742Y-51629228D01*
X181799771Y-51687285D01*
X181799771Y-51774371D01*
X181770742Y-51832428D01*
X181741714Y-51861457D01*
X181683657Y-51890485D01*
X181451428Y-51890485D01*
X182061028Y-51571171D02*
X182061028Y-52064657D01*
X182090057Y-52122714D01*
X182119085Y-52151742D01*
X182177142Y-52180771D01*
X182293257Y-52180771D01*
X182351314Y-52151742D01*
X182380342Y-52122714D01*
X182409371Y-52064657D01*
X182409371Y-51571171D01*
X182612571Y-51571171D02*
X182960914Y-51571171D01*
X182786742Y-52180771D02*
X182786742Y-51571171D01*
%TO.C,D1*%
D13*
X140491904Y-36912380D02*
X140491904Y-35912380D01*
X140730000Y-35912380D01*
X140872857Y-35960000D01*
X140968095Y-36055238D01*
X141015714Y-36150476D01*
X141063333Y-36340952D01*
X141063333Y-36483809D01*
X141015714Y-36674285D01*
X140968095Y-36769523D01*
X140872857Y-36864761D01*
X140730000Y-36912380D01*
X140491904Y-36912380D01*
X142015714Y-36912380D02*
X141444285Y-36912380D01*
X141730000Y-36912380D02*
X141730000Y-35912380D01*
X141634761Y-36055238D01*
X141539523Y-36150476D01*
X141444285Y-36198095D01*
%TO.C,SW24*%
X99500476Y-76294761D02*
X99643333Y-76342380D01*
X99881428Y-76342380D01*
X99976666Y-76294761D01*
X100024285Y-76247142D01*
X100071904Y-76151904D01*
X100071904Y-76056666D01*
X100024285Y-75961428D01*
X99976666Y-75913809D01*
X99881428Y-75866190D01*
X99690952Y-75818571D01*
X99595714Y-75770952D01*
X99548095Y-75723333D01*
X99500476Y-75628095D01*
X99500476Y-75532857D01*
X99548095Y-75437619D01*
X99595714Y-75390000D01*
X99690952Y-75342380D01*
X99929047Y-75342380D01*
X100071904Y-75390000D01*
X100405238Y-75342380D02*
X100643333Y-76342380D01*
X100833809Y-75628095D01*
X101024285Y-76342380D01*
X101262380Y-75342380D01*
X101595714Y-75437619D02*
X101643333Y-75390000D01*
X101738571Y-75342380D01*
X101976666Y-75342380D01*
X102071904Y-75390000D01*
X102119523Y-75437619D01*
X102167142Y-75532857D01*
X102167142Y-75628095D01*
X102119523Y-75770952D01*
X101548095Y-76342380D01*
X102167142Y-76342380D01*
X103024285Y-75675714D02*
X103024285Y-76342380D01*
X102786190Y-75294761D02*
X102548095Y-76009047D01*
X103167142Y-76009047D01*
%TO.C,SW23*%
X110500476Y-76294761D02*
X110643333Y-76342380D01*
X110881428Y-76342380D01*
X110976666Y-76294761D01*
X111024285Y-76247142D01*
X111071904Y-76151904D01*
X111071904Y-76056666D01*
X111024285Y-75961428D01*
X110976666Y-75913809D01*
X110881428Y-75866190D01*
X110690952Y-75818571D01*
X110595714Y-75770952D01*
X110548095Y-75723333D01*
X110500476Y-75628095D01*
X110500476Y-75532857D01*
X110548095Y-75437619D01*
X110595714Y-75390000D01*
X110690952Y-75342380D01*
X110929047Y-75342380D01*
X111071904Y-75390000D01*
X111405238Y-75342380D02*
X111643333Y-76342380D01*
X111833809Y-75628095D01*
X112024285Y-76342380D01*
X112262380Y-75342380D01*
X112595714Y-75437619D02*
X112643333Y-75390000D01*
X112738571Y-75342380D01*
X112976666Y-75342380D01*
X113071904Y-75390000D01*
X113119523Y-75437619D01*
X113167142Y-75532857D01*
X113167142Y-75628095D01*
X113119523Y-75770952D01*
X112548095Y-76342380D01*
X113167142Y-76342380D01*
X113500476Y-75342380D02*
X114119523Y-75342380D01*
X113786190Y-75723333D01*
X113929047Y-75723333D01*
X114024285Y-75770952D01*
X114071904Y-75818571D01*
X114119523Y-75913809D01*
X114119523Y-76151904D01*
X114071904Y-76247142D01*
X114024285Y-76294761D01*
X113929047Y-76342380D01*
X113643333Y-76342380D01*
X113548095Y-76294761D01*
X113500476Y-76247142D01*
%TO.C,SW22*%
X121500476Y-76294761D02*
X121643333Y-76342380D01*
X121881428Y-76342380D01*
X121976666Y-76294761D01*
X122024285Y-76247142D01*
X122071904Y-76151904D01*
X122071904Y-76056666D01*
X122024285Y-75961428D01*
X121976666Y-75913809D01*
X121881428Y-75866190D01*
X121690952Y-75818571D01*
X121595714Y-75770952D01*
X121548095Y-75723333D01*
X121500476Y-75628095D01*
X121500476Y-75532857D01*
X121548095Y-75437619D01*
X121595714Y-75390000D01*
X121690952Y-75342380D01*
X121929047Y-75342380D01*
X122071904Y-75390000D01*
X122405238Y-75342380D02*
X122643333Y-76342380D01*
X122833809Y-75628095D01*
X123024285Y-76342380D01*
X123262380Y-75342380D01*
X123595714Y-75437619D02*
X123643333Y-75390000D01*
X123738571Y-75342380D01*
X123976666Y-75342380D01*
X124071904Y-75390000D01*
X124119523Y-75437619D01*
X124167142Y-75532857D01*
X124167142Y-75628095D01*
X124119523Y-75770952D01*
X123548095Y-76342380D01*
X124167142Y-76342380D01*
X124548095Y-75437619D02*
X124595714Y-75390000D01*
X124690952Y-75342380D01*
X124929047Y-75342380D01*
X125024285Y-75390000D01*
X125071904Y-75437619D01*
X125119523Y-75532857D01*
X125119523Y-75628095D01*
X125071904Y-75770952D01*
X124500476Y-76342380D01*
X125119523Y-76342380D01*
%TO.C,SW21*%
X132500476Y-76294761D02*
X132643333Y-76342380D01*
X132881428Y-76342380D01*
X132976666Y-76294761D01*
X133024285Y-76247142D01*
X133071904Y-76151904D01*
X133071904Y-76056666D01*
X133024285Y-75961428D01*
X132976666Y-75913809D01*
X132881428Y-75866190D01*
X132690952Y-75818571D01*
X132595714Y-75770952D01*
X132548095Y-75723333D01*
X132500476Y-75628095D01*
X132500476Y-75532857D01*
X132548095Y-75437619D01*
X132595714Y-75390000D01*
X132690952Y-75342380D01*
X132929047Y-75342380D01*
X133071904Y-75390000D01*
X133405238Y-75342380D02*
X133643333Y-76342380D01*
X133833809Y-75628095D01*
X134024285Y-76342380D01*
X134262380Y-75342380D01*
X134595714Y-75437619D02*
X134643333Y-75390000D01*
X134738571Y-75342380D01*
X134976666Y-75342380D01*
X135071904Y-75390000D01*
X135119523Y-75437619D01*
X135167142Y-75532857D01*
X135167142Y-75628095D01*
X135119523Y-75770952D01*
X134548095Y-76342380D01*
X135167142Y-76342380D01*
X136119523Y-76342380D02*
X135548095Y-76342380D01*
X135833809Y-76342380D02*
X135833809Y-75342380D01*
X135738571Y-75485238D01*
X135643333Y-75580476D01*
X135548095Y-75628095D01*
%TO.C,SW20*%
X143500476Y-76294761D02*
X143643333Y-76342380D01*
X143881428Y-76342380D01*
X143976666Y-76294761D01*
X144024285Y-76247142D01*
X144071904Y-76151904D01*
X144071904Y-76056666D01*
X144024285Y-75961428D01*
X143976666Y-75913809D01*
X143881428Y-75866190D01*
X143690952Y-75818571D01*
X143595714Y-75770952D01*
X143548095Y-75723333D01*
X143500476Y-75628095D01*
X143500476Y-75532857D01*
X143548095Y-75437619D01*
X143595714Y-75390000D01*
X143690952Y-75342380D01*
X143929047Y-75342380D01*
X144071904Y-75390000D01*
X144405238Y-75342380D02*
X144643333Y-76342380D01*
X144833809Y-75628095D01*
X145024285Y-76342380D01*
X145262380Y-75342380D01*
X145595714Y-75437619D02*
X145643333Y-75390000D01*
X145738571Y-75342380D01*
X145976666Y-75342380D01*
X146071904Y-75390000D01*
X146119523Y-75437619D01*
X146167142Y-75532857D01*
X146167142Y-75628095D01*
X146119523Y-75770952D01*
X145548095Y-76342380D01*
X146167142Y-76342380D01*
X146786190Y-75342380D02*
X146881428Y-75342380D01*
X146976666Y-75390000D01*
X147024285Y-75437619D01*
X147071904Y-75532857D01*
X147119523Y-75723333D01*
X147119523Y-75961428D01*
X147071904Y-76151904D01*
X147024285Y-76247142D01*
X146976666Y-76294761D01*
X146881428Y-76342380D01*
X146786190Y-76342380D01*
X146690952Y-76294761D01*
X146643333Y-76247142D01*
X146595714Y-76151904D01*
X146548095Y-75961428D01*
X146548095Y-75723333D01*
X146595714Y-75532857D01*
X146643333Y-75437619D01*
X146690952Y-75390000D01*
X146786190Y-75342380D01*
%TO.C,SW19*%
X154500476Y-76294761D02*
X154643333Y-76342380D01*
X154881428Y-76342380D01*
X154976666Y-76294761D01*
X155024285Y-76247142D01*
X155071904Y-76151904D01*
X155071904Y-76056666D01*
X155024285Y-75961428D01*
X154976666Y-75913809D01*
X154881428Y-75866190D01*
X154690952Y-75818571D01*
X154595714Y-75770952D01*
X154548095Y-75723333D01*
X154500476Y-75628095D01*
X154500476Y-75532857D01*
X154548095Y-75437619D01*
X154595714Y-75390000D01*
X154690952Y-75342380D01*
X154929047Y-75342380D01*
X155071904Y-75390000D01*
X155405238Y-75342380D02*
X155643333Y-76342380D01*
X155833809Y-75628095D01*
X156024285Y-76342380D01*
X156262380Y-75342380D01*
X157167142Y-76342380D02*
X156595714Y-76342380D01*
X156881428Y-76342380D02*
X156881428Y-75342380D01*
X156786190Y-75485238D01*
X156690952Y-75580476D01*
X156595714Y-75628095D01*
X157643333Y-76342380D02*
X157833809Y-76342380D01*
X157929047Y-76294761D01*
X157976666Y-76247142D01*
X158071904Y-76104285D01*
X158119523Y-75913809D01*
X158119523Y-75532857D01*
X158071904Y-75437619D01*
X158024285Y-75390000D01*
X157929047Y-75342380D01*
X157738571Y-75342380D01*
X157643333Y-75390000D01*
X157595714Y-75437619D01*
X157548095Y-75532857D01*
X157548095Y-75770952D01*
X157595714Y-75866190D01*
X157643333Y-75913809D01*
X157738571Y-75961428D01*
X157929047Y-75961428D01*
X158024285Y-75913809D01*
X158071904Y-75866190D01*
X158119523Y-75770952D01*
%TO.C,SW18*%
X165500476Y-76294761D02*
X165643333Y-76342380D01*
X165881428Y-76342380D01*
X165976666Y-76294761D01*
X166024285Y-76247142D01*
X166071904Y-76151904D01*
X166071904Y-76056666D01*
X166024285Y-75961428D01*
X165976666Y-75913809D01*
X165881428Y-75866190D01*
X165690952Y-75818571D01*
X165595714Y-75770952D01*
X165548095Y-75723333D01*
X165500476Y-75628095D01*
X165500476Y-75532857D01*
X165548095Y-75437619D01*
X165595714Y-75390000D01*
X165690952Y-75342380D01*
X165929047Y-75342380D01*
X166071904Y-75390000D01*
X166405238Y-75342380D02*
X166643333Y-76342380D01*
X166833809Y-75628095D01*
X167024285Y-76342380D01*
X167262380Y-75342380D01*
X168167142Y-76342380D02*
X167595714Y-76342380D01*
X167881428Y-76342380D02*
X167881428Y-75342380D01*
X167786190Y-75485238D01*
X167690952Y-75580476D01*
X167595714Y-75628095D01*
X168738571Y-75770952D02*
X168643333Y-75723333D01*
X168595714Y-75675714D01*
X168548095Y-75580476D01*
X168548095Y-75532857D01*
X168595714Y-75437619D01*
X168643333Y-75390000D01*
X168738571Y-75342380D01*
X168929047Y-75342380D01*
X169024285Y-75390000D01*
X169071904Y-75437619D01*
X169119523Y-75532857D01*
X169119523Y-75580476D01*
X169071904Y-75675714D01*
X169024285Y-75723333D01*
X168929047Y-75770952D01*
X168738571Y-75770952D01*
X168643333Y-75818571D01*
X168595714Y-75866190D01*
X168548095Y-75961428D01*
X168548095Y-76151904D01*
X168595714Y-76247142D01*
X168643333Y-76294761D01*
X168738571Y-76342380D01*
X168929047Y-76342380D01*
X169024285Y-76294761D01*
X169071904Y-76247142D01*
X169119523Y-76151904D01*
X169119523Y-75961428D01*
X169071904Y-75866190D01*
X169024285Y-75818571D01*
X168929047Y-75770952D01*
%TO.C,SW17*%
X176500476Y-76294761D02*
X176643333Y-76342380D01*
X176881428Y-76342380D01*
X176976666Y-76294761D01*
X177024285Y-76247142D01*
X177071904Y-76151904D01*
X177071904Y-76056666D01*
X177024285Y-75961428D01*
X176976666Y-75913809D01*
X176881428Y-75866190D01*
X176690952Y-75818571D01*
X176595714Y-75770952D01*
X176548095Y-75723333D01*
X176500476Y-75628095D01*
X176500476Y-75532857D01*
X176548095Y-75437619D01*
X176595714Y-75390000D01*
X176690952Y-75342380D01*
X176929047Y-75342380D01*
X177071904Y-75390000D01*
X177405238Y-75342380D02*
X177643333Y-76342380D01*
X177833809Y-75628095D01*
X178024285Y-76342380D01*
X178262380Y-75342380D01*
X179167142Y-76342380D02*
X178595714Y-76342380D01*
X178881428Y-76342380D02*
X178881428Y-75342380D01*
X178786190Y-75485238D01*
X178690952Y-75580476D01*
X178595714Y-75628095D01*
X179500476Y-75342380D02*
X180167142Y-75342380D01*
X179738571Y-76342380D01*
%TO.C,SW16*%
X99500476Y-68294761D02*
X99643333Y-68342380D01*
X99881428Y-68342380D01*
X99976666Y-68294761D01*
X100024285Y-68247142D01*
X100071904Y-68151904D01*
X100071904Y-68056666D01*
X100024285Y-67961428D01*
X99976666Y-67913809D01*
X99881428Y-67866190D01*
X99690952Y-67818571D01*
X99595714Y-67770952D01*
X99548095Y-67723333D01*
X99500476Y-67628095D01*
X99500476Y-67532857D01*
X99548095Y-67437619D01*
X99595714Y-67390000D01*
X99690952Y-67342380D01*
X99929047Y-67342380D01*
X100071904Y-67390000D01*
X100405238Y-67342380D02*
X100643333Y-68342380D01*
X100833809Y-67628095D01*
X101024285Y-68342380D01*
X101262380Y-67342380D01*
X102167142Y-68342380D02*
X101595714Y-68342380D01*
X101881428Y-68342380D02*
X101881428Y-67342380D01*
X101786190Y-67485238D01*
X101690952Y-67580476D01*
X101595714Y-67628095D01*
X103024285Y-67342380D02*
X102833809Y-67342380D01*
X102738571Y-67390000D01*
X102690952Y-67437619D01*
X102595714Y-67580476D01*
X102548095Y-67770952D01*
X102548095Y-68151904D01*
X102595714Y-68247142D01*
X102643333Y-68294761D01*
X102738571Y-68342380D01*
X102929047Y-68342380D01*
X103024285Y-68294761D01*
X103071904Y-68247142D01*
X103119523Y-68151904D01*
X103119523Y-67913809D01*
X103071904Y-67818571D01*
X103024285Y-67770952D01*
X102929047Y-67723333D01*
X102738571Y-67723333D01*
X102643333Y-67770952D01*
X102595714Y-67818571D01*
X102548095Y-67913809D01*
%TO.C,SW15*%
X110500476Y-68294761D02*
X110643333Y-68342380D01*
X110881428Y-68342380D01*
X110976666Y-68294761D01*
X111024285Y-68247142D01*
X111071904Y-68151904D01*
X111071904Y-68056666D01*
X111024285Y-67961428D01*
X110976666Y-67913809D01*
X110881428Y-67866190D01*
X110690952Y-67818571D01*
X110595714Y-67770952D01*
X110548095Y-67723333D01*
X110500476Y-67628095D01*
X110500476Y-67532857D01*
X110548095Y-67437619D01*
X110595714Y-67390000D01*
X110690952Y-67342380D01*
X110929047Y-67342380D01*
X111071904Y-67390000D01*
X111405238Y-67342380D02*
X111643333Y-68342380D01*
X111833809Y-67628095D01*
X112024285Y-68342380D01*
X112262380Y-67342380D01*
X113167142Y-68342380D02*
X112595714Y-68342380D01*
X112881428Y-68342380D02*
X112881428Y-67342380D01*
X112786190Y-67485238D01*
X112690952Y-67580476D01*
X112595714Y-67628095D01*
X114071904Y-67342380D02*
X113595714Y-67342380D01*
X113548095Y-67818571D01*
X113595714Y-67770952D01*
X113690952Y-67723333D01*
X113929047Y-67723333D01*
X114024285Y-67770952D01*
X114071904Y-67818571D01*
X114119523Y-67913809D01*
X114119523Y-68151904D01*
X114071904Y-68247142D01*
X114024285Y-68294761D01*
X113929047Y-68342380D01*
X113690952Y-68342380D01*
X113595714Y-68294761D01*
X113548095Y-68247142D01*
%TO.C,SW14*%
X121500476Y-68294761D02*
X121643333Y-68342380D01*
X121881428Y-68342380D01*
X121976666Y-68294761D01*
X122024285Y-68247142D01*
X122071904Y-68151904D01*
X122071904Y-68056666D01*
X122024285Y-67961428D01*
X121976666Y-67913809D01*
X121881428Y-67866190D01*
X121690952Y-67818571D01*
X121595714Y-67770952D01*
X121548095Y-67723333D01*
X121500476Y-67628095D01*
X121500476Y-67532857D01*
X121548095Y-67437619D01*
X121595714Y-67390000D01*
X121690952Y-67342380D01*
X121929047Y-67342380D01*
X122071904Y-67390000D01*
X122405238Y-67342380D02*
X122643333Y-68342380D01*
X122833809Y-67628095D01*
X123024285Y-68342380D01*
X123262380Y-67342380D01*
X124167142Y-68342380D02*
X123595714Y-68342380D01*
X123881428Y-68342380D02*
X123881428Y-67342380D01*
X123786190Y-67485238D01*
X123690952Y-67580476D01*
X123595714Y-67628095D01*
X125024285Y-67675714D02*
X125024285Y-68342380D01*
X124786190Y-67294761D02*
X124548095Y-68009047D01*
X125167142Y-68009047D01*
%TO.C,SW13*%
X132500476Y-68294761D02*
X132643333Y-68342380D01*
X132881428Y-68342380D01*
X132976666Y-68294761D01*
X133024285Y-68247142D01*
X133071904Y-68151904D01*
X133071904Y-68056666D01*
X133024285Y-67961428D01*
X132976666Y-67913809D01*
X132881428Y-67866190D01*
X132690952Y-67818571D01*
X132595714Y-67770952D01*
X132548095Y-67723333D01*
X132500476Y-67628095D01*
X132500476Y-67532857D01*
X132548095Y-67437619D01*
X132595714Y-67390000D01*
X132690952Y-67342380D01*
X132929047Y-67342380D01*
X133071904Y-67390000D01*
X133405238Y-67342380D02*
X133643333Y-68342380D01*
X133833809Y-67628095D01*
X134024285Y-68342380D01*
X134262380Y-67342380D01*
X135167142Y-68342380D02*
X134595714Y-68342380D01*
X134881428Y-68342380D02*
X134881428Y-67342380D01*
X134786190Y-67485238D01*
X134690952Y-67580476D01*
X134595714Y-67628095D01*
X135500476Y-67342380D02*
X136119523Y-67342380D01*
X135786190Y-67723333D01*
X135929047Y-67723333D01*
X136024285Y-67770952D01*
X136071904Y-67818571D01*
X136119523Y-67913809D01*
X136119523Y-68151904D01*
X136071904Y-68247142D01*
X136024285Y-68294761D01*
X135929047Y-68342380D01*
X135643333Y-68342380D01*
X135548095Y-68294761D01*
X135500476Y-68247142D01*
%TO.C,SW12*%
X143500476Y-68294761D02*
X143643333Y-68342380D01*
X143881428Y-68342380D01*
X143976666Y-68294761D01*
X144024285Y-68247142D01*
X144071904Y-68151904D01*
X144071904Y-68056666D01*
X144024285Y-67961428D01*
X143976666Y-67913809D01*
X143881428Y-67866190D01*
X143690952Y-67818571D01*
X143595714Y-67770952D01*
X143548095Y-67723333D01*
X143500476Y-67628095D01*
X143500476Y-67532857D01*
X143548095Y-67437619D01*
X143595714Y-67390000D01*
X143690952Y-67342380D01*
X143929047Y-67342380D01*
X144071904Y-67390000D01*
X144405238Y-67342380D02*
X144643333Y-68342380D01*
X144833809Y-67628095D01*
X145024285Y-68342380D01*
X145262380Y-67342380D01*
X146167142Y-68342380D02*
X145595714Y-68342380D01*
X145881428Y-68342380D02*
X145881428Y-67342380D01*
X145786190Y-67485238D01*
X145690952Y-67580476D01*
X145595714Y-67628095D01*
X146548095Y-67437619D02*
X146595714Y-67390000D01*
X146690952Y-67342380D01*
X146929047Y-67342380D01*
X147024285Y-67390000D01*
X147071904Y-67437619D01*
X147119523Y-67532857D01*
X147119523Y-67628095D01*
X147071904Y-67770952D01*
X146500476Y-68342380D01*
X147119523Y-68342380D01*
%TO.C,SW11*%
X154500476Y-68294761D02*
X154643333Y-68342380D01*
X154881428Y-68342380D01*
X154976666Y-68294761D01*
X155024285Y-68247142D01*
X155071904Y-68151904D01*
X155071904Y-68056666D01*
X155024285Y-67961428D01*
X154976666Y-67913809D01*
X154881428Y-67866190D01*
X154690952Y-67818571D01*
X154595714Y-67770952D01*
X154548095Y-67723333D01*
X154500476Y-67628095D01*
X154500476Y-67532857D01*
X154548095Y-67437619D01*
X154595714Y-67390000D01*
X154690952Y-67342380D01*
X154929047Y-67342380D01*
X155071904Y-67390000D01*
X155405238Y-67342380D02*
X155643333Y-68342380D01*
X155833809Y-67628095D01*
X156024285Y-68342380D01*
X156262380Y-67342380D01*
X157167142Y-68342380D02*
X156595714Y-68342380D01*
X156881428Y-68342380D02*
X156881428Y-67342380D01*
X156786190Y-67485238D01*
X156690952Y-67580476D01*
X156595714Y-67628095D01*
X158119523Y-68342380D02*
X157548095Y-68342380D01*
X157833809Y-68342380D02*
X157833809Y-67342380D01*
X157738571Y-67485238D01*
X157643333Y-67580476D01*
X157548095Y-67628095D01*
%TO.C,SW10*%
X165500476Y-68294761D02*
X165643333Y-68342380D01*
X165881428Y-68342380D01*
X165976666Y-68294761D01*
X166024285Y-68247142D01*
X166071904Y-68151904D01*
X166071904Y-68056666D01*
X166024285Y-67961428D01*
X165976666Y-67913809D01*
X165881428Y-67866190D01*
X165690952Y-67818571D01*
X165595714Y-67770952D01*
X165548095Y-67723333D01*
X165500476Y-67628095D01*
X165500476Y-67532857D01*
X165548095Y-67437619D01*
X165595714Y-67390000D01*
X165690952Y-67342380D01*
X165929047Y-67342380D01*
X166071904Y-67390000D01*
X166405238Y-67342380D02*
X166643333Y-68342380D01*
X166833809Y-67628095D01*
X167024285Y-68342380D01*
X167262380Y-67342380D01*
X168167142Y-68342380D02*
X167595714Y-68342380D01*
X167881428Y-68342380D02*
X167881428Y-67342380D01*
X167786190Y-67485238D01*
X167690952Y-67580476D01*
X167595714Y-67628095D01*
X168786190Y-67342380D02*
X168881428Y-67342380D01*
X168976666Y-67390000D01*
X169024285Y-67437619D01*
X169071904Y-67532857D01*
X169119523Y-67723333D01*
X169119523Y-67961428D01*
X169071904Y-68151904D01*
X169024285Y-68247142D01*
X168976666Y-68294761D01*
X168881428Y-68342380D01*
X168786190Y-68342380D01*
X168690952Y-68294761D01*
X168643333Y-68247142D01*
X168595714Y-68151904D01*
X168548095Y-67961428D01*
X168548095Y-67723333D01*
X168595714Y-67532857D01*
X168643333Y-67437619D01*
X168690952Y-67390000D01*
X168786190Y-67342380D01*
%TO.C,SW9*%
X176976666Y-68294761D02*
X177119523Y-68342380D01*
X177357619Y-68342380D01*
X177452857Y-68294761D01*
X177500476Y-68247142D01*
X177548095Y-68151904D01*
X177548095Y-68056666D01*
X177500476Y-67961428D01*
X177452857Y-67913809D01*
X177357619Y-67866190D01*
X177167142Y-67818571D01*
X177071904Y-67770952D01*
X177024285Y-67723333D01*
X176976666Y-67628095D01*
X176976666Y-67532857D01*
X177024285Y-67437619D01*
X177071904Y-67390000D01*
X177167142Y-67342380D01*
X177405238Y-67342380D01*
X177548095Y-67390000D01*
X177881428Y-67342380D02*
X178119523Y-68342380D01*
X178310000Y-67628095D01*
X178500476Y-68342380D01*
X178738571Y-67342380D01*
X179167142Y-68342380D02*
X179357619Y-68342380D01*
X179452857Y-68294761D01*
X179500476Y-68247142D01*
X179595714Y-68104285D01*
X179643333Y-67913809D01*
X179643333Y-67532857D01*
X179595714Y-67437619D01*
X179548095Y-67390000D01*
X179452857Y-67342380D01*
X179262380Y-67342380D01*
X179167142Y-67390000D01*
X179119523Y-67437619D01*
X179071904Y-67532857D01*
X179071904Y-67770952D01*
X179119523Y-67866190D01*
X179167142Y-67913809D01*
X179262380Y-67961428D01*
X179452857Y-67961428D01*
X179548095Y-67913809D01*
X179595714Y-67866190D01*
X179643333Y-67770952D01*
%TO.C,SW8*%
X99976666Y-60294761D02*
X100119523Y-60342380D01*
X100357619Y-60342380D01*
X100452857Y-60294761D01*
X100500476Y-60247142D01*
X100548095Y-60151904D01*
X100548095Y-60056666D01*
X100500476Y-59961428D01*
X100452857Y-59913809D01*
X100357619Y-59866190D01*
X100167142Y-59818571D01*
X100071904Y-59770952D01*
X100024285Y-59723333D01*
X99976666Y-59628095D01*
X99976666Y-59532857D01*
X100024285Y-59437619D01*
X100071904Y-59390000D01*
X100167142Y-59342380D01*
X100405238Y-59342380D01*
X100548095Y-59390000D01*
X100881428Y-59342380D02*
X101119523Y-60342380D01*
X101310000Y-59628095D01*
X101500476Y-60342380D01*
X101738571Y-59342380D01*
X102262380Y-59770952D02*
X102167142Y-59723333D01*
X102119523Y-59675714D01*
X102071904Y-59580476D01*
X102071904Y-59532857D01*
X102119523Y-59437619D01*
X102167142Y-59390000D01*
X102262380Y-59342380D01*
X102452857Y-59342380D01*
X102548095Y-59390000D01*
X102595714Y-59437619D01*
X102643333Y-59532857D01*
X102643333Y-59580476D01*
X102595714Y-59675714D01*
X102548095Y-59723333D01*
X102452857Y-59770952D01*
X102262380Y-59770952D01*
X102167142Y-59818571D01*
X102119523Y-59866190D01*
X102071904Y-59961428D01*
X102071904Y-60151904D01*
X102119523Y-60247142D01*
X102167142Y-60294761D01*
X102262380Y-60342380D01*
X102452857Y-60342380D01*
X102548095Y-60294761D01*
X102595714Y-60247142D01*
X102643333Y-60151904D01*
X102643333Y-59961428D01*
X102595714Y-59866190D01*
X102548095Y-59818571D01*
X102452857Y-59770952D01*
%TO.C,SW7*%
X110976666Y-60294761D02*
X111119523Y-60342380D01*
X111357619Y-60342380D01*
X111452857Y-60294761D01*
X111500476Y-60247142D01*
X111548095Y-60151904D01*
X111548095Y-60056666D01*
X111500476Y-59961428D01*
X111452857Y-59913809D01*
X111357619Y-59866190D01*
X111167142Y-59818571D01*
X111071904Y-59770952D01*
X111024285Y-59723333D01*
X110976666Y-59628095D01*
X110976666Y-59532857D01*
X111024285Y-59437619D01*
X111071904Y-59390000D01*
X111167142Y-59342380D01*
X111405238Y-59342380D01*
X111548095Y-59390000D01*
X111881428Y-59342380D02*
X112119523Y-60342380D01*
X112310000Y-59628095D01*
X112500476Y-60342380D01*
X112738571Y-59342380D01*
X113024285Y-59342380D02*
X113690952Y-59342380D01*
X113262380Y-60342380D01*
%TO.C,SW6*%
X121976666Y-60294761D02*
X122119523Y-60342380D01*
X122357619Y-60342380D01*
X122452857Y-60294761D01*
X122500476Y-60247142D01*
X122548095Y-60151904D01*
X122548095Y-60056666D01*
X122500476Y-59961428D01*
X122452857Y-59913809D01*
X122357619Y-59866190D01*
X122167142Y-59818571D01*
X122071904Y-59770952D01*
X122024285Y-59723333D01*
X121976666Y-59628095D01*
X121976666Y-59532857D01*
X122024285Y-59437619D01*
X122071904Y-59390000D01*
X122167142Y-59342380D01*
X122405238Y-59342380D01*
X122548095Y-59390000D01*
X122881428Y-59342380D02*
X123119523Y-60342380D01*
X123310000Y-59628095D01*
X123500476Y-60342380D01*
X123738571Y-59342380D01*
X124548095Y-59342380D02*
X124357619Y-59342380D01*
X124262380Y-59390000D01*
X124214761Y-59437619D01*
X124119523Y-59580476D01*
X124071904Y-59770952D01*
X124071904Y-60151904D01*
X124119523Y-60247142D01*
X124167142Y-60294761D01*
X124262380Y-60342380D01*
X124452857Y-60342380D01*
X124548095Y-60294761D01*
X124595714Y-60247142D01*
X124643333Y-60151904D01*
X124643333Y-59913809D01*
X124595714Y-59818571D01*
X124548095Y-59770952D01*
X124452857Y-59723333D01*
X124262380Y-59723333D01*
X124167142Y-59770952D01*
X124119523Y-59818571D01*
X124071904Y-59913809D01*
%TO.C,SW5*%
X132976666Y-60294761D02*
X133119523Y-60342380D01*
X133357619Y-60342380D01*
X133452857Y-60294761D01*
X133500476Y-60247142D01*
X133548095Y-60151904D01*
X133548095Y-60056666D01*
X133500476Y-59961428D01*
X133452857Y-59913809D01*
X133357619Y-59866190D01*
X133167142Y-59818571D01*
X133071904Y-59770952D01*
X133024285Y-59723333D01*
X132976666Y-59628095D01*
X132976666Y-59532857D01*
X133024285Y-59437619D01*
X133071904Y-59390000D01*
X133167142Y-59342380D01*
X133405238Y-59342380D01*
X133548095Y-59390000D01*
X133881428Y-59342380D02*
X134119523Y-60342380D01*
X134310000Y-59628095D01*
X134500476Y-60342380D01*
X134738571Y-59342380D01*
X135595714Y-59342380D02*
X135119523Y-59342380D01*
X135071904Y-59818571D01*
X135119523Y-59770952D01*
X135214761Y-59723333D01*
X135452857Y-59723333D01*
X135548095Y-59770952D01*
X135595714Y-59818571D01*
X135643333Y-59913809D01*
X135643333Y-60151904D01*
X135595714Y-60247142D01*
X135548095Y-60294761D01*
X135452857Y-60342380D01*
X135214761Y-60342380D01*
X135119523Y-60294761D01*
X135071904Y-60247142D01*
%TO.C,SW4*%
X143976666Y-60294761D02*
X144119523Y-60342380D01*
X144357619Y-60342380D01*
X144452857Y-60294761D01*
X144500476Y-60247142D01*
X144548095Y-60151904D01*
X144548095Y-60056666D01*
X144500476Y-59961428D01*
X144452857Y-59913809D01*
X144357619Y-59866190D01*
X144167142Y-59818571D01*
X144071904Y-59770952D01*
X144024285Y-59723333D01*
X143976666Y-59628095D01*
X143976666Y-59532857D01*
X144024285Y-59437619D01*
X144071904Y-59390000D01*
X144167142Y-59342380D01*
X144405238Y-59342380D01*
X144548095Y-59390000D01*
X144881428Y-59342380D02*
X145119523Y-60342380D01*
X145310000Y-59628095D01*
X145500476Y-60342380D01*
X145738571Y-59342380D01*
X146548095Y-59675714D02*
X146548095Y-60342380D01*
X146310000Y-59294761D02*
X146071904Y-60009047D01*
X146690952Y-60009047D01*
%TO.C,SW3*%
X154976666Y-60294761D02*
X155119523Y-60342380D01*
X155357619Y-60342380D01*
X155452857Y-60294761D01*
X155500476Y-60247142D01*
X155548095Y-60151904D01*
X155548095Y-60056666D01*
X155500476Y-59961428D01*
X155452857Y-59913809D01*
X155357619Y-59866190D01*
X155167142Y-59818571D01*
X155071904Y-59770952D01*
X155024285Y-59723333D01*
X154976666Y-59628095D01*
X154976666Y-59532857D01*
X155024285Y-59437619D01*
X155071904Y-59390000D01*
X155167142Y-59342380D01*
X155405238Y-59342380D01*
X155548095Y-59390000D01*
X155881428Y-59342380D02*
X156119523Y-60342380D01*
X156310000Y-59628095D01*
X156500476Y-60342380D01*
X156738571Y-59342380D01*
X157024285Y-59342380D02*
X157643333Y-59342380D01*
X157310000Y-59723333D01*
X157452857Y-59723333D01*
X157548095Y-59770952D01*
X157595714Y-59818571D01*
X157643333Y-59913809D01*
X157643333Y-60151904D01*
X157595714Y-60247142D01*
X157548095Y-60294761D01*
X157452857Y-60342380D01*
X157167142Y-60342380D01*
X157071904Y-60294761D01*
X157024285Y-60247142D01*
%TO.C,SW2*%
X165976666Y-60294761D02*
X166119523Y-60342380D01*
X166357619Y-60342380D01*
X166452857Y-60294761D01*
X166500476Y-60247142D01*
X166548095Y-60151904D01*
X166548095Y-60056666D01*
X166500476Y-59961428D01*
X166452857Y-59913809D01*
X166357619Y-59866190D01*
X166167142Y-59818571D01*
X166071904Y-59770952D01*
X166024285Y-59723333D01*
X165976666Y-59628095D01*
X165976666Y-59532857D01*
X166024285Y-59437619D01*
X166071904Y-59390000D01*
X166167142Y-59342380D01*
X166405238Y-59342380D01*
X166548095Y-59390000D01*
X166881428Y-59342380D02*
X167119523Y-60342380D01*
X167310000Y-59628095D01*
X167500476Y-60342380D01*
X167738571Y-59342380D01*
X168071904Y-59437619D02*
X168119523Y-59390000D01*
X168214761Y-59342380D01*
X168452857Y-59342380D01*
X168548095Y-59390000D01*
X168595714Y-59437619D01*
X168643333Y-59532857D01*
X168643333Y-59628095D01*
X168595714Y-59770952D01*
X168024285Y-60342380D01*
X168643333Y-60342380D01*
%TO.C,SW1*%
X176976666Y-60294761D02*
X177119523Y-60342380D01*
X177357619Y-60342380D01*
X177452857Y-60294761D01*
X177500476Y-60247142D01*
X177548095Y-60151904D01*
X177548095Y-60056666D01*
X177500476Y-59961428D01*
X177452857Y-59913809D01*
X177357619Y-59866190D01*
X177167142Y-59818571D01*
X177071904Y-59770952D01*
X177024285Y-59723333D01*
X176976666Y-59628095D01*
X176976666Y-59532857D01*
X177024285Y-59437619D01*
X177071904Y-59390000D01*
X177167142Y-59342380D01*
X177405238Y-59342380D01*
X177548095Y-59390000D01*
X177881428Y-59342380D02*
X178119523Y-60342380D01*
X178310000Y-59628095D01*
X178500476Y-60342380D01*
X178738571Y-59342380D01*
X179643333Y-60342380D02*
X179071904Y-60342380D01*
X179357619Y-60342380D02*
X179357619Y-59342380D01*
X179262380Y-59485238D01*
X179167142Y-59580476D01*
X179071904Y-59628095D01*
%TO.C,J1*%
X179666666Y-37622380D02*
X179666666Y-38336666D01*
X179619047Y-38479523D01*
X179523809Y-38574761D01*
X179380952Y-38622380D01*
X179285714Y-38622380D01*
X180666666Y-38622380D02*
X180095238Y-38622380D01*
X180380952Y-38622380D02*
X180380952Y-37622380D01*
X180285714Y-37765238D01*
X180190476Y-37860476D01*
X180095238Y-37908095D01*
%TD*%
M02*
