%TF.GenerationSoftware,KiCad,Pcbnew,(5.1.6)-1*%
%TF.CreationDate,2022-08-23T22:02:53+08:00*%
%TF.ProjectId,feng,66656e67-2e6b-4696-9361-645f70636258,rev?*%
%TF.SameCoordinates,Original*%
%TF.FileFunction,Legend,Bot*%
%TF.FilePolarity,Positive*%
%FSLAX46Y46*%
G04 Gerber Fmt 4.6, Leading zero omitted, Abs format (unit mm)*
G04 Created by KiCad (PCBNEW (5.1.6)-1) date 2022-08-23 22:02:53*
%MOMM*%
%LPD*%
G01*
G04 APERTURE LIST*
%ADD10C,0.120000*%
%ADD11C,0.150000*%
%ADD12C,0.127000*%
G04 APERTURE END LIST*
D10*
%TO.C,SW82*%
X454600000Y-201190000D02*
G75*
G02*
X456600000Y-199190000I2000000J0D01*
G01*
X450700000Y-196990000D02*
G75*
G02*
X452700000Y-194990000I2000000J0D01*
G01*
X452700000Y-194990000D02*
X457800000Y-194990000D01*
X456600000Y-199190000D02*
X461700000Y-199190000D01*
%TO.C,SW81*%
X454600000Y-182140000D02*
G75*
G02*
X456600000Y-180140000I2000000J0D01*
G01*
X450700000Y-177940000D02*
G75*
G02*
X452700000Y-175940000I2000000J0D01*
G01*
X452700000Y-175940000D02*
X457800000Y-175940000D01*
X456600000Y-180140000D02*
X461700000Y-180140000D01*
%TO.C,SW80*%
X287913000Y-220239000D02*
G75*
G02*
X289913000Y-218239000I2000000J0D01*
G01*
X284013000Y-216039000D02*
G75*
G02*
X286013000Y-214039000I2000000J0D01*
G01*
X286013000Y-214039000D02*
X291113000Y-214039000D01*
X289913000Y-218239000D02*
X295013000Y-218239000D01*
%TO.C,SW79*%
X302244000Y-201192000D02*
G75*
G02*
X304244000Y-199192000I2000000J0D01*
G01*
X298344000Y-196992000D02*
G75*
G02*
X300344000Y-194992000I2000000J0D01*
G01*
X300344000Y-194992000D02*
X305444000Y-194992000D01*
X304244000Y-199192000D02*
X309344000Y-199192000D01*
%TO.C,SW78*%
X211713000Y-220239000D02*
G75*
G02*
X213713000Y-218239000I2000000J0D01*
G01*
X207813000Y-216039000D02*
G75*
G02*
X209813000Y-214039000I2000000J0D01*
G01*
X209813000Y-214039000D02*
X214913000Y-214039000D01*
X213713000Y-218239000D02*
X218813000Y-218239000D01*
%TO.C,SW77*%
X325912000Y-220239000D02*
G75*
G02*
X327912000Y-218239000I2000000J0D01*
G01*
X322012000Y-216039000D02*
G75*
G02*
X324012000Y-214039000I2000000J0D01*
G01*
X324012000Y-214039000D02*
X329112000Y-214039000D01*
X327912000Y-218239000D02*
X333012000Y-218239000D01*
%TO.C,SW76*%
X221282000Y-239292000D02*
G75*
G02*
X223282000Y-237292000I2000000J0D01*
G01*
X217382000Y-235092000D02*
G75*
G02*
X219382000Y-233092000I2000000J0D01*
G01*
X219382000Y-233092000D02*
X224482000Y-233092000D01*
X223282000Y-237292000D02*
X228382000Y-237292000D01*
%TO.C,SW75*%
X187902000Y-201192000D02*
G75*
G02*
X189902000Y-199192000I2000000J0D01*
G01*
X184002000Y-196992000D02*
G75*
G02*
X186002000Y-194992000I2000000J0D01*
G01*
X186002000Y-194992000D02*
X191102000Y-194992000D01*
X189902000Y-199192000D02*
X195002000Y-199192000D01*
%TO.C,SW74*%
X373682000Y-239292000D02*
G75*
G02*
X375682000Y-237292000I2000000J0D01*
G01*
X369782000Y-235092000D02*
G75*
G02*
X371782000Y-233092000I2000000J0D01*
G01*
X371782000Y-233092000D02*
X376882000Y-233092000D01*
X375682000Y-237292000D02*
X380782000Y-237292000D01*
%TO.C,SW73*%
X306913000Y-220239000D02*
G75*
G02*
X308913000Y-218239000I2000000J0D01*
G01*
X303013000Y-216039000D02*
G75*
G02*
X305013000Y-214039000I2000000J0D01*
G01*
X305013000Y-214039000D02*
X310113000Y-214039000D01*
X308913000Y-218239000D02*
X314013000Y-218239000D01*
%TO.C,SW72*%
X192663000Y-220239000D02*
G75*
G02*
X194663000Y-218239000I2000000J0D01*
G01*
X188763000Y-216039000D02*
G75*
G02*
X190763000Y-214039000I2000000J0D01*
G01*
X190763000Y-214039000D02*
X195863000Y-214039000D01*
X194663000Y-218239000D02*
X199763000Y-218239000D01*
%TO.C,SW71*%
X206956000Y-201192000D02*
G75*
G02*
X208956000Y-199192000I2000000J0D01*
G01*
X203056000Y-196992000D02*
G75*
G02*
X205056000Y-194992000I2000000J0D01*
G01*
X205056000Y-194992000D02*
X210156000Y-194992000D01*
X208956000Y-199192000D02*
X214056000Y-199192000D01*
%TO.C,SW70*%
X161704000Y-258337000D02*
G75*
G02*
X163704000Y-256337000I2000000J0D01*
G01*
X157804000Y-254137000D02*
G75*
G02*
X159804000Y-252137000I2000000J0D01*
G01*
X159804000Y-252137000D02*
X164904000Y-252137000D01*
X163704000Y-256337000D02*
X168804000Y-256337000D01*
%TO.C,SW69*%
X164084000Y-201187000D02*
G75*
G02*
X166084000Y-199187000I2000000J0D01*
G01*
X160184000Y-196987000D02*
G75*
G02*
X162184000Y-194987000I2000000J0D01*
G01*
X162184000Y-194987000D02*
X167284000Y-194987000D01*
X166084000Y-199187000D02*
X171184000Y-199187000D01*
%TO.C,SW68*%
X264132000Y-201192000D02*
G75*
G02*
X266132000Y-199192000I2000000J0D01*
G01*
X260232000Y-196992000D02*
G75*
G02*
X262232000Y-194992000I2000000J0D01*
G01*
X262232000Y-194992000D02*
X267332000Y-194992000D01*
X266132000Y-199192000D02*
X271232000Y-199192000D01*
%TO.C,SW67*%
X378495000Y-201192000D02*
G75*
G02*
X380495000Y-199192000I2000000J0D01*
G01*
X374595000Y-196992000D02*
G75*
G02*
X376595000Y-194992000I2000000J0D01*
G01*
X376595000Y-194992000D02*
X381695000Y-194992000D01*
X380495000Y-199192000D02*
X385595000Y-199192000D01*
%TO.C,SW66*%
X363976000Y-220239000D02*
G75*
G02*
X365976000Y-218239000I2000000J0D01*
G01*
X360076000Y-216039000D02*
G75*
G02*
X362076000Y-214039000I2000000J0D01*
G01*
X362076000Y-214039000D02*
X367176000Y-214039000D01*
X365976000Y-218239000D02*
X371076000Y-218239000D01*
%TO.C,SW65*%
X316220000Y-183529000D02*
G75*
G02*
X314220000Y-185529000I-2000000J0D01*
G01*
X320120000Y-187729000D02*
G75*
G02*
X318120000Y-189729000I-2000000J0D01*
G01*
X318120000Y-189729000D02*
X313020000Y-189729000D01*
X314220000Y-185529000D02*
X309120000Y-185529000D01*
%TO.C,SW64*%
X209331000Y-258337000D02*
G75*
G02*
X211331000Y-256337000I2000000J0D01*
G01*
X205431000Y-254137000D02*
G75*
G02*
X207431000Y-252137000I2000000J0D01*
G01*
X207431000Y-252137000D02*
X212531000Y-252137000D01*
X211331000Y-256337000D02*
X216431000Y-256337000D01*
%TO.C,SW63*%
X421261000Y-201187000D02*
G75*
G02*
X423261000Y-199187000I2000000J0D01*
G01*
X417361000Y-196987000D02*
G75*
G02*
X419361000Y-194987000I2000000J0D01*
G01*
X419361000Y-194987000D02*
X424461000Y-194987000D01*
X423261000Y-199187000D02*
X428361000Y-199187000D01*
%TO.C,SW62*%
X454600000Y-239290000D02*
G75*
G02*
X456600000Y-237290000I2000000J0D01*
G01*
X450700000Y-235090000D02*
G75*
G02*
X452700000Y-233090000I2000000J0D01*
G01*
X452700000Y-233090000D02*
X457800000Y-233090000D01*
X456600000Y-237290000D02*
X461700000Y-237290000D01*
%TO.C,SW61*%
X368890000Y-258340000D02*
G75*
G02*
X370890000Y-256340000I2000000J0D01*
G01*
X364990000Y-254140000D02*
G75*
G02*
X366990000Y-252140000I2000000J0D01*
G01*
X366990000Y-252140000D02*
X372090000Y-252140000D01*
X370890000Y-256340000D02*
X375990000Y-256340000D01*
%TO.C,SW60*%
X373434000Y-183529000D02*
G75*
G02*
X371434000Y-185529000I-2000000J0D01*
G01*
X377334000Y-187729000D02*
G75*
G02*
X375334000Y-189729000I-2000000J0D01*
G01*
X375334000Y-189729000D02*
X370234000Y-189729000D01*
X371434000Y-185529000D02*
X366334000Y-185529000D01*
%TO.C,SW59*%
X359458000Y-201192000D02*
G75*
G02*
X361458000Y-199192000I2000000J0D01*
G01*
X355558000Y-196992000D02*
G75*
G02*
X357558000Y-194992000I2000000J0D01*
G01*
X357558000Y-194992000D02*
X362658000Y-194992000D01*
X361458000Y-199192000D02*
X366558000Y-199192000D01*
%TO.C,SW58*%
X354632000Y-239292000D02*
G75*
G02*
X356632000Y-237292000I2000000J0D01*
G01*
X350732000Y-235092000D02*
G75*
G02*
X352732000Y-233092000I2000000J0D01*
G01*
X352732000Y-233092000D02*
X357832000Y-233092000D01*
X356632000Y-237292000D02*
X361732000Y-237292000D01*
%TO.C,SW57*%
X454600000Y-220240000D02*
G75*
G02*
X456600000Y-218240000I2000000J0D01*
G01*
X450700000Y-216040000D02*
G75*
G02*
X452700000Y-214040000I2000000J0D01*
G01*
X452700000Y-214040000D02*
X457800000Y-214040000D01*
X456600000Y-218240000D02*
X461700000Y-218240000D01*
%TO.C,SW56*%
X249813000Y-220239000D02*
G75*
G02*
X251813000Y-218239000I2000000J0D01*
G01*
X245913000Y-216039000D02*
G75*
G02*
X247913000Y-214039000I2000000J0D01*
G01*
X247913000Y-214039000D02*
X253013000Y-214039000D01*
X251813000Y-218239000D02*
X256913000Y-218239000D01*
%TO.C,SW55*%
X335582000Y-239292000D02*
G75*
G02*
X337582000Y-237292000I2000000J0D01*
G01*
X331682000Y-235092000D02*
G75*
G02*
X333682000Y-233092000I2000000J0D01*
G01*
X333682000Y-233092000D02*
X338782000Y-233092000D01*
X337582000Y-237292000D02*
X342682000Y-237292000D01*
%TO.C,SW54*%
X387990000Y-258340000D02*
G75*
G02*
X389990000Y-256340000I2000000J0D01*
G01*
X384090000Y-254140000D02*
G75*
G02*
X386090000Y-252140000I2000000J0D01*
G01*
X386090000Y-252140000D02*
X391190000Y-252140000D01*
X389990000Y-256340000D02*
X395090000Y-256340000D01*
%TO.C,SW53*%
X283182000Y-201192000D02*
G75*
G02*
X285182000Y-199192000I2000000J0D01*
G01*
X279282000Y-196992000D02*
G75*
G02*
X281282000Y-194992000I2000000J0D01*
G01*
X281282000Y-194992000D02*
X286382000Y-194992000D01*
X285182000Y-199192000D02*
X290282000Y-199192000D01*
%TO.C,SW52*%
X354358000Y-183529000D02*
G75*
G02*
X352358000Y-185529000I-2000000J0D01*
G01*
X358258000Y-187729000D02*
G75*
G02*
X356258000Y-189729000I-2000000J0D01*
G01*
X356258000Y-189729000D02*
X351158000Y-189729000D01*
X352358000Y-185529000D02*
X347258000Y-185529000D01*
%TO.C,SW51*%
X268838000Y-220239000D02*
G75*
G02*
X270838000Y-218239000I2000000J0D01*
G01*
X264938000Y-216039000D02*
G75*
G02*
X266938000Y-214039000I2000000J0D01*
G01*
X266938000Y-214039000D02*
X272038000Y-214039000D01*
X270838000Y-218239000D02*
X275938000Y-218239000D01*
%TO.C,SW50*%
X414119000Y-220237000D02*
G75*
G02*
X416119000Y-218237000I2000000J0D01*
G01*
X410219000Y-216037000D02*
G75*
G02*
X412219000Y-214037000I2000000J0D01*
G01*
X412219000Y-214037000D02*
X417319000Y-214037000D01*
X416119000Y-218237000D02*
X421219000Y-218237000D01*
%TO.C,SW49*%
X340395000Y-201192000D02*
G75*
G02*
X342395000Y-199192000I2000000J0D01*
G01*
X336495000Y-196992000D02*
G75*
G02*
X338495000Y-194992000I2000000J0D01*
G01*
X338495000Y-194992000D02*
X343595000Y-194992000D01*
X342395000Y-199192000D02*
X347495000Y-199192000D01*
%TO.C,SW48*%
X402211000Y-158324000D02*
G75*
G02*
X404211000Y-156324000I2000000J0D01*
G01*
X398311000Y-154124000D02*
G75*
G02*
X400311000Y-152124000I2000000J0D01*
G01*
X400311000Y-152124000D02*
X405411000Y-152124000D01*
X404211000Y-156324000D02*
X409311000Y-156324000D01*
%TO.C,SW47*%
X426030000Y-158330000D02*
G75*
G02*
X428030000Y-156330000I2000000J0D01*
G01*
X422130000Y-154130000D02*
G75*
G02*
X424130000Y-152130000I2000000J0D01*
G01*
X424130000Y-152130000D02*
X429230000Y-152130000D01*
X428030000Y-156330000D02*
X433130000Y-156330000D01*
%TO.C,SW46*%
X420899000Y-183537000D02*
G75*
G02*
X418899000Y-185537000I-2000000J0D01*
G01*
X424799000Y-187737000D02*
G75*
G02*
X422799000Y-189737000I-2000000J0D01*
G01*
X422799000Y-189737000D02*
X417699000Y-189737000D01*
X418899000Y-185537000D02*
X413799000Y-185537000D01*
%TO.C,SW45*%
X392484000Y-183529000D02*
G75*
G02*
X390484000Y-185529000I-2000000J0D01*
G01*
X396384000Y-187729000D02*
G75*
G02*
X394384000Y-189729000I-2000000J0D01*
G01*
X394384000Y-189729000D02*
X389284000Y-189729000D01*
X390484000Y-185529000D02*
X385384000Y-185529000D01*
%TO.C,SW44*%
X321251000Y-158325000D02*
G75*
G02*
X323251000Y-156325000I2000000J0D01*
G01*
X317351000Y-154125000D02*
G75*
G02*
X319351000Y-152125000I2000000J0D01*
G01*
X319351000Y-152125000D02*
X324451000Y-152125000D01*
X323251000Y-156325000D02*
X328351000Y-156325000D01*
%TO.C,SW43*%
X345061000Y-158324000D02*
G75*
G02*
X347061000Y-156324000I2000000J0D01*
G01*
X341161000Y-154124000D02*
G75*
G02*
X343161000Y-152124000I2000000J0D01*
G01*
X343161000Y-152124000D02*
X348261000Y-152124000D01*
X347061000Y-156324000D02*
X352161000Y-156324000D01*
%TO.C,SW42*%
X364111000Y-158324000D02*
G75*
G02*
X366111000Y-156324000I2000000J0D01*
G01*
X360211000Y-154124000D02*
G75*
G02*
X362211000Y-152124000I2000000J0D01*
G01*
X362211000Y-152124000D02*
X367311000Y-152124000D01*
X366111000Y-156324000D02*
X371211000Y-156324000D01*
%TO.C,SW41*%
X383161000Y-158324000D02*
G75*
G02*
X385161000Y-156324000I2000000J0D01*
G01*
X379261000Y-154124000D02*
G75*
G02*
X381261000Y-152124000I2000000J0D01*
G01*
X381261000Y-152124000D02*
X386361000Y-152124000D01*
X385161000Y-156324000D02*
X390261000Y-156324000D01*
%TO.C,SW40*%
X399829000Y-239287000D02*
G75*
G02*
X401829000Y-237287000I2000000J0D01*
G01*
X395929000Y-235087000D02*
G75*
G02*
X397929000Y-233087000I2000000J0D01*
G01*
X397929000Y-233087000D02*
X403029000Y-233087000D01*
X401829000Y-237287000D02*
X406929000Y-237287000D01*
%TO.C,SW39*%
X349821000Y-258340000D02*
G75*
G02*
X351821000Y-256340000I2000000J0D01*
G01*
X345921000Y-254140000D02*
G75*
G02*
X347921000Y-252140000I2000000J0D01*
G01*
X347921000Y-252140000D02*
X353021000Y-252140000D01*
X351821000Y-256340000D02*
X356921000Y-256340000D01*
%TO.C,SW38*%
X383100000Y-220239000D02*
G75*
G02*
X385100000Y-218239000I2000000J0D01*
G01*
X379200000Y-216039000D02*
G75*
G02*
X381200000Y-214039000I2000000J0D01*
G01*
X381200000Y-214039000D02*
X386300000Y-214039000D01*
X385100000Y-218239000D02*
X390200000Y-218239000D01*
%TO.C,SW37*%
X344936000Y-220239000D02*
G75*
G02*
X346936000Y-218239000I2000000J0D01*
G01*
X341036000Y-216039000D02*
G75*
G02*
X343036000Y-214039000I2000000J0D01*
G01*
X343036000Y-214039000D02*
X348136000Y-214039000D01*
X346936000Y-218239000D02*
X352036000Y-218239000D01*
%TO.C,SW36*%
X397520000Y-201192000D02*
G75*
G02*
X399520000Y-199192000I2000000J0D01*
G01*
X393620000Y-196992000D02*
G75*
G02*
X395620000Y-194992000I2000000J0D01*
G01*
X395620000Y-194992000D02*
X400720000Y-194992000D01*
X399520000Y-199192000D02*
X404620000Y-199192000D01*
%TO.C,SW35*%
X171231000Y-239287000D02*
G75*
G02*
X173231000Y-237287000I2000000J0D01*
G01*
X167331000Y-235087000D02*
G75*
G02*
X169331000Y-233087000I2000000J0D01*
G01*
X169331000Y-233087000D02*
X174431000Y-233087000D01*
X173231000Y-237287000D02*
X178331000Y-237287000D01*
%TO.C,SW34*%
X430781000Y-244049000D02*
G75*
G02*
X432781000Y-242049000I2000000J0D01*
G01*
X426881000Y-239849000D02*
G75*
G02*
X428881000Y-237849000I2000000J0D01*
G01*
X428881000Y-237849000D02*
X433981000Y-237849000D01*
X432781000Y-242049000D02*
X437881000Y-242049000D01*
%TO.C,SW33*%
X166469000Y-220237000D02*
G75*
G02*
X168469000Y-218237000I2000000J0D01*
G01*
X162569000Y-216037000D02*
G75*
G02*
X164569000Y-214037000I2000000J0D01*
G01*
X164569000Y-214037000D02*
X169669000Y-214037000D01*
X168469000Y-218237000D02*
X173569000Y-218237000D01*
%TO.C,SW32*%
X297170000Y-183529000D02*
G75*
G02*
X295170000Y-185529000I-2000000J0D01*
G01*
X301070000Y-187729000D02*
G75*
G02*
X299070000Y-189729000I-2000000J0D01*
G01*
X299070000Y-189729000D02*
X293970000Y-189729000D01*
X295170000Y-185529000D02*
X290070000Y-185529000D01*
%TO.C,SW31*%
X278120000Y-183529000D02*
G75*
G02*
X276120000Y-185529000I-2000000J0D01*
G01*
X282020000Y-187729000D02*
G75*
G02*
X280020000Y-189729000I-2000000J0D01*
G01*
X280020000Y-189729000D02*
X274920000Y-189729000D01*
X276120000Y-185529000D02*
X271020000Y-185529000D01*
%TO.C,SW30*%
X259045000Y-183529000D02*
G75*
G02*
X257045000Y-185529000I-2000000J0D01*
G01*
X262945000Y-187729000D02*
G75*
G02*
X260945000Y-189729000I-2000000J0D01*
G01*
X260945000Y-189729000D02*
X255845000Y-189729000D01*
X257045000Y-185529000D02*
X251945000Y-185529000D01*
%TO.C,SW29*%
X239944000Y-183529000D02*
G75*
G02*
X237944000Y-185529000I-2000000J0D01*
G01*
X243844000Y-187729000D02*
G75*
G02*
X241844000Y-189729000I-2000000J0D01*
G01*
X241844000Y-189729000D02*
X236744000Y-189729000D01*
X237944000Y-185529000D02*
X232844000Y-185529000D01*
%TO.C,SW28*%
X240284000Y-158324000D02*
G75*
G02*
X242284000Y-156324000I2000000J0D01*
G01*
X236384000Y-154124000D02*
G75*
G02*
X238384000Y-152124000I2000000J0D01*
G01*
X238384000Y-152124000D02*
X243484000Y-152124000D01*
X242284000Y-156324000D02*
X247384000Y-156324000D01*
%TO.C,SW27*%
X264114000Y-158325000D02*
G75*
G02*
X266114000Y-156325000I2000000J0D01*
G01*
X260214000Y-154125000D02*
G75*
G02*
X262214000Y-152125000I2000000J0D01*
G01*
X262214000Y-152125000D02*
X267314000Y-152125000D01*
X266114000Y-156325000D02*
X271214000Y-156325000D01*
%TO.C,SW26*%
X283161000Y-158325000D02*
G75*
G02*
X285161000Y-156325000I2000000J0D01*
G01*
X279261000Y-154125000D02*
G75*
G02*
X281261000Y-152125000I2000000J0D01*
G01*
X281261000Y-152125000D02*
X286361000Y-152125000D01*
X285161000Y-156325000D02*
X290261000Y-156325000D01*
%TO.C,SW25*%
X302204000Y-158325000D02*
G75*
G02*
X304204000Y-156325000I2000000J0D01*
G01*
X298304000Y-154125000D02*
G75*
G02*
X300304000Y-152125000I2000000J0D01*
G01*
X300304000Y-152125000D02*
X305404000Y-152125000D01*
X304204000Y-156325000D02*
X309304000Y-156325000D01*
%TO.C,SW24*%
X220843000Y-183529000D02*
G75*
G02*
X218843000Y-185529000I-2000000J0D01*
G01*
X224743000Y-187729000D02*
G75*
G02*
X222743000Y-189729000I-2000000J0D01*
G01*
X222743000Y-189729000D02*
X217643000Y-189729000D01*
X218843000Y-185529000D02*
X213743000Y-185529000D01*
%TO.C,SW23*%
X201857000Y-183529000D02*
G75*
G02*
X199857000Y-185529000I-2000000J0D01*
G01*
X205757000Y-187729000D02*
G75*
G02*
X203757000Y-189729000I-2000000J0D01*
G01*
X203757000Y-189729000D02*
X198657000Y-189729000D01*
X199857000Y-185529000D02*
X194757000Y-185529000D01*
%TO.C,SW22*%
X182777000Y-183529000D02*
G75*
G02*
X180777000Y-185529000I-2000000J0D01*
G01*
X186677000Y-187729000D02*
G75*
G02*
X184677000Y-189729000I-2000000J0D01*
G01*
X184677000Y-189729000D02*
X179577000Y-189729000D01*
X180777000Y-185529000D02*
X175677000Y-185529000D01*
%TO.C,SW21*%
X159326000Y-182137000D02*
G75*
G02*
X161326000Y-180137000I2000000J0D01*
G01*
X155426000Y-177937000D02*
G75*
G02*
X157426000Y-175937000I2000000J0D01*
G01*
X157426000Y-175937000D02*
X162526000Y-175937000D01*
X161326000Y-180137000D02*
X166426000Y-180137000D01*
%TO.C,SW20*%
X159324000Y-158324000D02*
G75*
G02*
X161324000Y-156324000I2000000J0D01*
G01*
X155424000Y-154124000D02*
G75*
G02*
X157424000Y-152124000I2000000J0D01*
G01*
X157424000Y-152124000D02*
X162524000Y-152124000D01*
X161324000Y-156324000D02*
X166424000Y-156324000D01*
%TO.C,SW19*%
X183137000Y-158324000D02*
G75*
G02*
X185137000Y-156324000I2000000J0D01*
G01*
X179237000Y-154124000D02*
G75*
G02*
X181237000Y-152124000I2000000J0D01*
G01*
X181237000Y-152124000D02*
X186337000Y-152124000D01*
X185137000Y-156324000D02*
X190237000Y-156324000D01*
%TO.C,SW18*%
X206573000Y-159724000D02*
G75*
G02*
X204573000Y-161724000I-2000000J0D01*
G01*
X210473000Y-163924000D02*
G75*
G02*
X208473000Y-165924000I-2000000J0D01*
G01*
X208473000Y-165924000D02*
X203373000Y-165924000D01*
X204573000Y-161724000D02*
X199473000Y-161724000D01*
%TO.C,SW17*%
X225629000Y-159724000D02*
G75*
G02*
X223629000Y-161724000I-2000000J0D01*
G01*
X229529000Y-163924000D02*
G75*
G02*
X227529000Y-165924000I-2000000J0D01*
G01*
X227529000Y-165924000D02*
X222429000Y-165924000D01*
X223629000Y-161724000D02*
X218529000Y-161724000D01*
%TO.C,SW16*%
X185519000Y-258337000D02*
G75*
G02*
X187519000Y-256337000I2000000J0D01*
G01*
X181619000Y-254137000D02*
G75*
G02*
X183619000Y-252137000I2000000J0D01*
G01*
X183619000Y-252137000D02*
X188719000Y-252137000D01*
X187519000Y-256337000D02*
X192619000Y-256337000D01*
%TO.C,SW15*%
X230763000Y-220239000D02*
G75*
G02*
X232763000Y-218239000I2000000J0D01*
G01*
X226863000Y-216039000D02*
G75*
G02*
X228863000Y-214039000I2000000J0D01*
G01*
X228863000Y-214039000D02*
X233963000Y-214039000D01*
X232763000Y-218239000D02*
X237863000Y-218239000D01*
%TO.C,SW14*%
X335283000Y-183529000D02*
G75*
G02*
X333283000Y-185529000I-2000000J0D01*
G01*
X339183000Y-187729000D02*
G75*
G02*
X337183000Y-189729000I-2000000J0D01*
G01*
X337183000Y-189729000D02*
X332083000Y-189729000D01*
X333283000Y-185529000D02*
X328183000Y-185529000D01*
%TO.C,SW13*%
X245120000Y-201192000D02*
G75*
G02*
X247120000Y-199192000I2000000J0D01*
G01*
X241220000Y-196992000D02*
G75*
G02*
X243220000Y-194992000I2000000J0D01*
G01*
X243220000Y-194992000D02*
X248320000Y-194992000D01*
X247120000Y-199192000D02*
X252220000Y-199192000D01*
%TO.C,SW12*%
X411736000Y-263100000D02*
G75*
G02*
X413736000Y-261100000I2000000J0D01*
G01*
X407836000Y-258900000D02*
G75*
G02*
X409836000Y-256900000I2000000J0D01*
G01*
X409836000Y-256900000D02*
X414936000Y-256900000D01*
X413736000Y-261100000D02*
X418836000Y-261100000D01*
%TO.C,SW11*%
X202187000Y-239292000D02*
G75*
G02*
X204187000Y-237292000I2000000J0D01*
G01*
X198287000Y-235092000D02*
G75*
G02*
X200287000Y-233092000I2000000J0D01*
G01*
X200287000Y-233092000D02*
X205387000Y-233092000D01*
X204187000Y-237292000D02*
X209287000Y-237292000D01*
%TO.C,SW10*%
X226019000Y-201192000D02*
G75*
G02*
X228019000Y-199192000I2000000J0D01*
G01*
X222119000Y-196992000D02*
G75*
G02*
X224119000Y-194992000I2000000J0D01*
G01*
X224119000Y-194992000D02*
X229219000Y-194992000D01*
X228019000Y-199192000D02*
X233119000Y-199192000D01*
%TO.C,SW9*%
X321307000Y-201192000D02*
G75*
G02*
X323307000Y-199192000I2000000J0D01*
G01*
X317407000Y-196992000D02*
G75*
G02*
X319407000Y-194992000I2000000J0D01*
G01*
X319407000Y-194992000D02*
X324507000Y-194992000D01*
X323307000Y-199192000D02*
X328407000Y-199192000D01*
%TO.C,SW8*%
X278432000Y-239292000D02*
G75*
G02*
X280432000Y-237292000I2000000J0D01*
G01*
X274532000Y-235092000D02*
G75*
G02*
X276532000Y-233092000I2000000J0D01*
G01*
X276532000Y-233092000D02*
X281632000Y-233092000D01*
X280432000Y-237292000D02*
X285532000Y-237292000D01*
%TO.C,SW7*%
X280766000Y-258337000D02*
G75*
G02*
X282766000Y-256337000I2000000J0D01*
G01*
X276866000Y-254137000D02*
G75*
G02*
X278866000Y-252137000I2000000J0D01*
G01*
X278866000Y-252137000D02*
X283966000Y-252137000D01*
X282766000Y-256337000D02*
X287866000Y-256337000D01*
%TO.C,SW6*%
X430781000Y-263097000D02*
G75*
G02*
X432781000Y-261097000I2000000J0D01*
G01*
X426881000Y-258897000D02*
G75*
G02*
X428881000Y-256897000I2000000J0D01*
G01*
X428881000Y-256897000D02*
X433981000Y-256897000D01*
X432781000Y-261097000D02*
X437881000Y-261097000D01*
%TO.C,SW5*%
X316532000Y-239292000D02*
G75*
G02*
X318532000Y-237292000I2000000J0D01*
G01*
X312632000Y-235092000D02*
G75*
G02*
X314632000Y-233092000I2000000J0D01*
G01*
X314632000Y-233092000D02*
X319732000Y-233092000D01*
X318532000Y-237292000D02*
X323632000Y-237292000D01*
%TO.C,SW4*%
X259382000Y-239292000D02*
G75*
G02*
X261382000Y-237292000I2000000J0D01*
G01*
X255482000Y-235092000D02*
G75*
G02*
X257482000Y-233092000I2000000J0D01*
G01*
X257482000Y-233092000D02*
X262582000Y-233092000D01*
X261382000Y-237292000D02*
X266482000Y-237292000D01*
%TO.C,SW3*%
X240332000Y-239292000D02*
G75*
G02*
X242332000Y-237292000I2000000J0D01*
G01*
X236432000Y-235092000D02*
G75*
G02*
X238432000Y-233092000I2000000J0D01*
G01*
X238432000Y-233092000D02*
X243532000Y-233092000D01*
X242332000Y-237292000D02*
X247432000Y-237292000D01*
%TO.C,SW2*%
X297482000Y-239292000D02*
G75*
G02*
X299482000Y-237292000I2000000J0D01*
G01*
X293582000Y-235092000D02*
G75*
G02*
X295582000Y-233092000I2000000J0D01*
G01*
X295582000Y-233092000D02*
X300682000Y-233092000D01*
X299482000Y-237292000D02*
X304582000Y-237292000D01*
%TO.C,SW1*%
X449840000Y-263100000D02*
G75*
G02*
X451840000Y-261100000I2000000J0D01*
G01*
X445940000Y-258900000D02*
G75*
G02*
X447940000Y-256900000I2000000J0D01*
G01*
X447940000Y-256900000D02*
X453040000Y-256900000D01*
X451840000Y-261100000D02*
X456940000Y-261100000D01*
%TO.C,Y1*%
X258905000Y-260193000D02*
X258905000Y-253793000D01*
X253855000Y-260193000D02*
X253855000Y-253793000D01*
X253855000Y-253793000D02*
G75*
G02*
X258905000Y-253793000I2525000J0D01*
G01*
X253855000Y-260193000D02*
G75*
G03*
X258905000Y-260193000I2525000J0D01*
G01*
%TO.C,U12*%
X233311000Y-253731000D02*
X233311000Y-253281000D01*
X233311000Y-253281000D02*
X233761000Y-253281000D01*
X233311000Y-260051000D02*
X233311000Y-260501000D01*
X233311000Y-260501000D02*
X233761000Y-260501000D01*
X240531000Y-253731000D02*
X240531000Y-253281000D01*
X240531000Y-253281000D02*
X240081000Y-253281000D01*
X240531000Y-260051000D02*
X240531000Y-260501000D01*
X240531000Y-260501000D02*
X240081000Y-260501000D01*
X240081000Y-260501000D02*
X240081000Y-261791000D01*
%TO.C,U11*%
X428500000Y-177290000D02*
X428500000Y-174905000D01*
X428500000Y-174905000D02*
X428755000Y-174905000D01*
X428500000Y-177290000D02*
X428500000Y-179675000D01*
X428500000Y-179675000D02*
X428755000Y-179675000D01*
X439020000Y-177290000D02*
X439020000Y-174905000D01*
X439020000Y-174905000D02*
X438765000Y-174905000D01*
X439020000Y-177290000D02*
X439020000Y-179675000D01*
X439020000Y-179675000D02*
X438765000Y-179675000D01*
X438765000Y-179675000D02*
X438765000Y-181340000D01*
%TO.C,U10*%
X443180000Y-221340000D02*
X443180000Y-223725000D01*
X443180000Y-223725000D02*
X442925000Y-223725000D01*
X443180000Y-221340000D02*
X443180000Y-218955000D01*
X443180000Y-218955000D02*
X442925000Y-218955000D01*
X432660000Y-221340000D02*
X432660000Y-223725000D01*
X432660000Y-223725000D02*
X432915000Y-223725000D01*
X432660000Y-221340000D02*
X432660000Y-218955000D01*
X432660000Y-218955000D02*
X432915000Y-218955000D01*
X432915000Y-218955000D02*
X432915000Y-217290000D01*
%TO.C,U9*%
X400390000Y-217380000D02*
X402775000Y-217380000D01*
X402775000Y-217380000D02*
X402775000Y-217635000D01*
X400390000Y-217380000D02*
X398005000Y-217380000D01*
X398005000Y-217380000D02*
X398005000Y-217635000D01*
X400390000Y-227900000D02*
X402775000Y-227900000D01*
X402775000Y-227900000D02*
X402775000Y-227645000D01*
X400390000Y-227900000D02*
X398005000Y-227900000D01*
X398005000Y-227900000D02*
X398005000Y-227645000D01*
X398005000Y-227645000D02*
X396340000Y-227645000D01*
%TO.C,U8*%
X444670000Y-198870000D02*
X444670000Y-201255000D01*
X444670000Y-201255000D02*
X444415000Y-201255000D01*
X444670000Y-198870000D02*
X444670000Y-196485000D01*
X444670000Y-196485000D02*
X444415000Y-196485000D01*
X434150000Y-198870000D02*
X434150000Y-201255000D01*
X434150000Y-201255000D02*
X434405000Y-201255000D01*
X434150000Y-198870000D02*
X434150000Y-196485000D01*
X434150000Y-196485000D02*
X434405000Y-196485000D01*
X434405000Y-196485000D02*
X434405000Y-194820000D01*
%TO.C,U7*%
X410810000Y-177650000D02*
X410810000Y-180035000D01*
X410810000Y-180035000D02*
X410555000Y-180035000D01*
X410810000Y-177650000D02*
X410810000Y-175265000D01*
X410810000Y-175265000D02*
X410555000Y-175265000D01*
X400290000Y-177650000D02*
X400290000Y-180035000D01*
X400290000Y-180035000D02*
X400545000Y-180035000D01*
X400290000Y-177650000D02*
X400290000Y-175265000D01*
X400290000Y-175265000D02*
X400545000Y-175265000D01*
X400545000Y-175265000D02*
X400545000Y-173600000D01*
%TO.C,U6*%
X386150000Y-172270000D02*
X386150000Y-174655000D01*
X386150000Y-174655000D02*
X385895000Y-174655000D01*
X386150000Y-172270000D02*
X386150000Y-169885000D01*
X386150000Y-169885000D02*
X385895000Y-169885000D01*
X375630000Y-172270000D02*
X375630000Y-174655000D01*
X375630000Y-174655000D02*
X375885000Y-174655000D01*
X375630000Y-172270000D02*
X375630000Y-169885000D01*
X375630000Y-169885000D02*
X375885000Y-169885000D01*
X375885000Y-169885000D02*
X375885000Y-168220000D01*
%TO.C,U5*%
X340490000Y-169310000D02*
X340490000Y-171695000D01*
X340490000Y-171695000D02*
X340235000Y-171695000D01*
X340490000Y-169310000D02*
X340490000Y-166925000D01*
X340490000Y-166925000D02*
X340235000Y-166925000D01*
X329970000Y-169310000D02*
X329970000Y-171695000D01*
X329970000Y-171695000D02*
X330225000Y-171695000D01*
X329970000Y-169310000D02*
X329970000Y-166925000D01*
X329970000Y-166925000D02*
X330225000Y-166925000D01*
X330225000Y-166925000D02*
X330225000Y-165260000D01*
%TO.C,U4*%
X259320000Y-169760000D02*
X259320000Y-172145000D01*
X259320000Y-172145000D02*
X259065000Y-172145000D01*
X259320000Y-169760000D02*
X259320000Y-167375000D01*
X259320000Y-167375000D02*
X259065000Y-167375000D01*
X248800000Y-169760000D02*
X248800000Y-172145000D01*
X248800000Y-172145000D02*
X249055000Y-172145000D01*
X248800000Y-169760000D02*
X248800000Y-167375000D01*
X248800000Y-167375000D02*
X249055000Y-167375000D01*
X249055000Y-167375000D02*
X249055000Y-165710000D01*
%TO.C,U3*%
X195030000Y-171770000D02*
X195030000Y-174155000D01*
X195030000Y-174155000D02*
X194775000Y-174155000D01*
X195030000Y-171770000D02*
X195030000Y-169385000D01*
X195030000Y-169385000D02*
X194775000Y-169385000D01*
X184510000Y-171770000D02*
X184510000Y-174155000D01*
X184510000Y-174155000D02*
X184765000Y-174155000D01*
X184510000Y-171770000D02*
X184510000Y-169385000D01*
X184510000Y-169385000D02*
X184765000Y-169385000D01*
X184765000Y-169385000D02*
X184765000Y-167720000D01*
%TO.C,U2*%
X336200000Y-261710000D02*
X336200000Y-264095000D01*
X336200000Y-264095000D02*
X335945000Y-264095000D01*
X336200000Y-261710000D02*
X336200000Y-259325000D01*
X336200000Y-259325000D02*
X335945000Y-259325000D01*
X325680000Y-261710000D02*
X325680000Y-264095000D01*
X325680000Y-264095000D02*
X325935000Y-264095000D01*
X325680000Y-261710000D02*
X325680000Y-259325000D01*
X325680000Y-259325000D02*
X325935000Y-259325000D01*
X325935000Y-259325000D02*
X325935000Y-257660000D01*
%TO.C,U1*%
X310030000Y-262040000D02*
X310030000Y-264425000D01*
X310030000Y-264425000D02*
X309775000Y-264425000D01*
X310030000Y-262040000D02*
X310030000Y-259655000D01*
X310030000Y-259655000D02*
X309775000Y-259655000D01*
X299510000Y-262040000D02*
X299510000Y-264425000D01*
X299510000Y-264425000D02*
X299765000Y-264425000D01*
X299510000Y-262040000D02*
X299510000Y-259655000D01*
X299510000Y-259655000D02*
X299765000Y-259655000D01*
X299765000Y-259655000D02*
X299765000Y-257990000D01*
%TO.C,RN22*%
X439680000Y-189470000D02*
X439680000Y-190470000D01*
X443040000Y-189470000D02*
X443040000Y-190470000D01*
%TO.C,RN21*%
X417460000Y-235320000D02*
X417460000Y-234320000D01*
X414100000Y-235320000D02*
X414100000Y-234320000D01*
%TO.C,RN20*%
X408290000Y-227940000D02*
X407290000Y-227940000D01*
X408290000Y-231300000D02*
X407290000Y-231300000D01*
%TO.C,RN19*%
X430040000Y-217560000D02*
X430040000Y-216560000D01*
X426680000Y-217560000D02*
X426680000Y-216560000D01*
%TO.C,RN18*%
X394470000Y-194760000D02*
X394470000Y-193760000D01*
X391110000Y-194760000D02*
X391110000Y-193760000D01*
%TO.C,RN17*%
X393950000Y-170170000D02*
X392950000Y-170170000D01*
X393950000Y-173530000D02*
X392950000Y-173530000D01*
%TO.C,RN16*%
X352700000Y-168870000D02*
X351700000Y-168870000D01*
X352700000Y-172230000D02*
X351700000Y-172230000D01*
%TO.C,RN15*%
X283210000Y-169090000D02*
X282210000Y-169090000D01*
X283210000Y-172450000D02*
X282210000Y-172450000D01*
%TO.C,RN14*%
X202770000Y-169220000D02*
X201770000Y-169220000D01*
X202770000Y-172580000D02*
X201770000Y-172580000D01*
%TO.C,RN13*%
X341750000Y-265210000D02*
X340750000Y-265210000D01*
X341750000Y-268570000D02*
X340750000Y-268570000D01*
%TO.C,RN12*%
X315670000Y-265270000D02*
X314670000Y-265270000D01*
X315670000Y-268630000D02*
X314670000Y-268630000D01*
%TO.C,RN11*%
X443140000Y-165000000D02*
X443140000Y-164000000D01*
X439780000Y-165000000D02*
X439780000Y-164000000D01*
%TO.C,RN10*%
X423470000Y-232880000D02*
X423470000Y-233880000D01*
X426830000Y-232880000D02*
X426830000Y-233880000D01*
%TO.C,RN9*%
X397440000Y-212150000D02*
X397440000Y-213150000D01*
X400800000Y-212150000D02*
X400800000Y-213150000D01*
%TO.C,RN8*%
X426800000Y-190580000D02*
X426800000Y-191580000D01*
X430160000Y-190580000D02*
X430160000Y-191580000D01*
%TO.C,RN7*%
X406360000Y-189080000D02*
X406360000Y-190080000D01*
X409720000Y-189080000D02*
X409720000Y-190080000D01*
%TO.C,RN6*%
X370770000Y-173570000D02*
X371770000Y-173570000D01*
X370770000Y-170210000D02*
X371770000Y-170210000D01*
%TO.C,RN5*%
X321030000Y-172230000D02*
X322030000Y-172230000D01*
X321030000Y-168870000D02*
X322030000Y-168870000D01*
%TO.C,RN4*%
X266100000Y-171020000D02*
X266100000Y-172020000D01*
X269460000Y-171020000D02*
X269460000Y-172020000D01*
%TO.C,RN3*%
X174990000Y-167250000D02*
X175990000Y-167250000D01*
X174990000Y-163890000D02*
X175990000Y-163890000D01*
%TO.C,RN2*%
X319890000Y-259300000D02*
X320890000Y-259300000D01*
X319890000Y-255940000D02*
X320890000Y-255940000D01*
%TO.C,RN1*%
X293940000Y-260790000D02*
X294940000Y-260790000D01*
X293940000Y-257430000D02*
X294940000Y-257430000D01*
%TO.C,J2*%
X218846000Y-147560000D02*
X209906000Y-147560000D01*
X218846000Y-153070000D02*
X218846000Y-151270000D01*
X218846000Y-147560000D02*
X218846000Y-149020000D01*
X209906000Y-147560000D02*
X209906000Y-149020000D01*
X209906000Y-153070000D02*
X209906000Y-151270000D01*
%TO.C,J1*%
X440501000Y-228784000D02*
X440501000Y-231444000D01*
X432821000Y-228784000D02*
X440501000Y-228784000D01*
X432821000Y-231444000D02*
X440501000Y-231444000D01*
X432821000Y-228784000D02*
X432821000Y-231444000D01*
X431551000Y-228784000D02*
X430221000Y-228784000D01*
X430221000Y-228784000D02*
X430221000Y-230114000D01*
%TO.C,Y1*%
D11*
X259881190Y-256516809D02*
X260357380Y-256516809D01*
X259357380Y-256183476D02*
X259881190Y-256516809D01*
X259357380Y-256850142D01*
X260357380Y-257707285D02*
X260357380Y-257135857D01*
X260357380Y-257421571D02*
X259357380Y-257421571D01*
X259500238Y-257326333D01*
X259595476Y-257231095D01*
X259643095Y-257135857D01*
%TO.C,U12*%
X242223380Y-255652904D02*
X243032904Y-255652904D01*
X243128142Y-255700523D01*
X243175761Y-255748142D01*
X243223380Y-255843380D01*
X243223380Y-256033857D01*
X243175761Y-256129095D01*
X243128142Y-256176714D01*
X243032904Y-256224333D01*
X242223380Y-256224333D01*
X243223380Y-257224333D02*
X243223380Y-256652904D01*
X243223380Y-256938619D02*
X242223380Y-256938619D01*
X242366238Y-256843380D01*
X242461476Y-256748142D01*
X242509095Y-256652904D01*
X242318619Y-257605285D02*
X242271000Y-257652904D01*
X242223380Y-257748142D01*
X242223380Y-257986238D01*
X242271000Y-258081476D01*
X242318619Y-258129095D01*
X242413857Y-258176714D01*
X242509095Y-258176714D01*
X242651952Y-258129095D01*
X243223380Y-257557666D01*
X243223380Y-258176714D01*
%TO.C,U11*%
X439312380Y-176051904D02*
X440121904Y-176051904D01*
X440217142Y-176099523D01*
X440264761Y-176147142D01*
X440312380Y-176242380D01*
X440312380Y-176432857D01*
X440264761Y-176528095D01*
X440217142Y-176575714D01*
X440121904Y-176623333D01*
X439312380Y-176623333D01*
X440312380Y-177623333D02*
X440312380Y-177051904D01*
X440312380Y-177337619D02*
X439312380Y-177337619D01*
X439455238Y-177242380D01*
X439550476Y-177147142D01*
X439598095Y-177051904D01*
X440312380Y-178575714D02*
X440312380Y-178004285D01*
X440312380Y-178290000D02*
X439312380Y-178290000D01*
X439455238Y-178194761D01*
X439550476Y-178099523D01*
X439598095Y-178004285D01*
%TO.C,U10*%
X431272380Y-220101904D02*
X432081904Y-220101904D01*
X432177142Y-220149523D01*
X432224761Y-220197142D01*
X432272380Y-220292380D01*
X432272380Y-220482857D01*
X432224761Y-220578095D01*
X432177142Y-220625714D01*
X432081904Y-220673333D01*
X431272380Y-220673333D01*
X432272380Y-221673333D02*
X432272380Y-221101904D01*
X432272380Y-221387619D02*
X431272380Y-221387619D01*
X431415238Y-221292380D01*
X431510476Y-221197142D01*
X431558095Y-221101904D01*
X431272380Y-222292380D02*
X431272380Y-222387619D01*
X431320000Y-222482857D01*
X431367619Y-222530476D01*
X431462857Y-222578095D01*
X431653333Y-222625714D01*
X431891428Y-222625714D01*
X432081904Y-222578095D01*
X432177142Y-222530476D01*
X432224761Y-222482857D01*
X432272380Y-222387619D01*
X432272380Y-222292380D01*
X432224761Y-222197142D01*
X432177142Y-222149523D01*
X432081904Y-222101904D01*
X431891428Y-222054285D01*
X431653333Y-222054285D01*
X431462857Y-222101904D01*
X431367619Y-222149523D01*
X431320000Y-222197142D01*
X431272380Y-222292380D01*
%TO.C,U9*%
X401151904Y-228192380D02*
X401151904Y-229001904D01*
X401104285Y-229097142D01*
X401056666Y-229144761D01*
X400961428Y-229192380D01*
X400770952Y-229192380D01*
X400675714Y-229144761D01*
X400628095Y-229097142D01*
X400580476Y-229001904D01*
X400580476Y-228192380D01*
X400056666Y-229192380D02*
X399866190Y-229192380D01*
X399770952Y-229144761D01*
X399723333Y-229097142D01*
X399628095Y-228954285D01*
X399580476Y-228763809D01*
X399580476Y-228382857D01*
X399628095Y-228287619D01*
X399675714Y-228240000D01*
X399770952Y-228192380D01*
X399961428Y-228192380D01*
X400056666Y-228240000D01*
X400104285Y-228287619D01*
X400151904Y-228382857D01*
X400151904Y-228620952D01*
X400104285Y-228716190D01*
X400056666Y-228763809D01*
X399961428Y-228811428D01*
X399770952Y-228811428D01*
X399675714Y-228763809D01*
X399628095Y-228716190D01*
X399580476Y-228620952D01*
%TO.C,U8*%
X432762380Y-198108095D02*
X433571904Y-198108095D01*
X433667142Y-198155714D01*
X433714761Y-198203333D01*
X433762380Y-198298571D01*
X433762380Y-198489047D01*
X433714761Y-198584285D01*
X433667142Y-198631904D01*
X433571904Y-198679523D01*
X432762380Y-198679523D01*
X433190952Y-199298571D02*
X433143333Y-199203333D01*
X433095714Y-199155714D01*
X433000476Y-199108095D01*
X432952857Y-199108095D01*
X432857619Y-199155714D01*
X432810000Y-199203333D01*
X432762380Y-199298571D01*
X432762380Y-199489047D01*
X432810000Y-199584285D01*
X432857619Y-199631904D01*
X432952857Y-199679523D01*
X433000476Y-199679523D01*
X433095714Y-199631904D01*
X433143333Y-199584285D01*
X433190952Y-199489047D01*
X433190952Y-199298571D01*
X433238571Y-199203333D01*
X433286190Y-199155714D01*
X433381428Y-199108095D01*
X433571904Y-199108095D01*
X433667142Y-199155714D01*
X433714761Y-199203333D01*
X433762380Y-199298571D01*
X433762380Y-199489047D01*
X433714761Y-199584285D01*
X433667142Y-199631904D01*
X433571904Y-199679523D01*
X433381428Y-199679523D01*
X433286190Y-199631904D01*
X433238571Y-199584285D01*
X433190952Y-199489047D01*
%TO.C,U7*%
X398902380Y-176888095D02*
X399711904Y-176888095D01*
X399807142Y-176935714D01*
X399854761Y-176983333D01*
X399902380Y-177078571D01*
X399902380Y-177269047D01*
X399854761Y-177364285D01*
X399807142Y-177411904D01*
X399711904Y-177459523D01*
X398902380Y-177459523D01*
X398902380Y-177840476D02*
X398902380Y-178507142D01*
X399902380Y-178078571D01*
%TO.C,U6*%
X374242380Y-171508095D02*
X375051904Y-171508095D01*
X375147142Y-171555714D01*
X375194761Y-171603333D01*
X375242380Y-171698571D01*
X375242380Y-171889047D01*
X375194761Y-171984285D01*
X375147142Y-172031904D01*
X375051904Y-172079523D01*
X374242380Y-172079523D01*
X374242380Y-172984285D02*
X374242380Y-172793809D01*
X374290000Y-172698571D01*
X374337619Y-172650952D01*
X374480476Y-172555714D01*
X374670952Y-172508095D01*
X375051904Y-172508095D01*
X375147142Y-172555714D01*
X375194761Y-172603333D01*
X375242380Y-172698571D01*
X375242380Y-172889047D01*
X375194761Y-172984285D01*
X375147142Y-173031904D01*
X375051904Y-173079523D01*
X374813809Y-173079523D01*
X374718571Y-173031904D01*
X374670952Y-172984285D01*
X374623333Y-172889047D01*
X374623333Y-172698571D01*
X374670952Y-172603333D01*
X374718571Y-172555714D01*
X374813809Y-172508095D01*
%TO.C,U5*%
X328582380Y-168548095D02*
X329391904Y-168548095D01*
X329487142Y-168595714D01*
X329534761Y-168643333D01*
X329582380Y-168738571D01*
X329582380Y-168929047D01*
X329534761Y-169024285D01*
X329487142Y-169071904D01*
X329391904Y-169119523D01*
X328582380Y-169119523D01*
X328582380Y-170071904D02*
X328582380Y-169595714D01*
X329058571Y-169548095D01*
X329010952Y-169595714D01*
X328963333Y-169690952D01*
X328963333Y-169929047D01*
X329010952Y-170024285D01*
X329058571Y-170071904D01*
X329153809Y-170119523D01*
X329391904Y-170119523D01*
X329487142Y-170071904D01*
X329534761Y-170024285D01*
X329582380Y-169929047D01*
X329582380Y-169690952D01*
X329534761Y-169595714D01*
X329487142Y-169548095D01*
%TO.C,U4*%
X247412380Y-168998095D02*
X248221904Y-168998095D01*
X248317142Y-169045714D01*
X248364761Y-169093333D01*
X248412380Y-169188571D01*
X248412380Y-169379047D01*
X248364761Y-169474285D01*
X248317142Y-169521904D01*
X248221904Y-169569523D01*
X247412380Y-169569523D01*
X247745714Y-170474285D02*
X248412380Y-170474285D01*
X247364761Y-170236190D02*
X248079047Y-169998095D01*
X248079047Y-170617142D01*
%TO.C,U3*%
X183122380Y-171008095D02*
X183931904Y-171008095D01*
X184027142Y-171055714D01*
X184074761Y-171103333D01*
X184122380Y-171198571D01*
X184122380Y-171389047D01*
X184074761Y-171484285D01*
X184027142Y-171531904D01*
X183931904Y-171579523D01*
X183122380Y-171579523D01*
X183122380Y-171960476D02*
X183122380Y-172579523D01*
X183503333Y-172246190D01*
X183503333Y-172389047D01*
X183550952Y-172484285D01*
X183598571Y-172531904D01*
X183693809Y-172579523D01*
X183931904Y-172579523D01*
X184027142Y-172531904D01*
X184074761Y-172484285D01*
X184122380Y-172389047D01*
X184122380Y-172103333D01*
X184074761Y-172008095D01*
X184027142Y-171960476D01*
%TO.C,U2*%
X324292380Y-260948095D02*
X325101904Y-260948095D01*
X325197142Y-260995714D01*
X325244761Y-261043333D01*
X325292380Y-261138571D01*
X325292380Y-261329047D01*
X325244761Y-261424285D01*
X325197142Y-261471904D01*
X325101904Y-261519523D01*
X324292380Y-261519523D01*
X324387619Y-261948095D02*
X324340000Y-261995714D01*
X324292380Y-262090952D01*
X324292380Y-262329047D01*
X324340000Y-262424285D01*
X324387619Y-262471904D01*
X324482857Y-262519523D01*
X324578095Y-262519523D01*
X324720952Y-262471904D01*
X325292380Y-261900476D01*
X325292380Y-262519523D01*
%TO.C,U1*%
X298122380Y-261278095D02*
X298931904Y-261278095D01*
X299027142Y-261325714D01*
X299074761Y-261373333D01*
X299122380Y-261468571D01*
X299122380Y-261659047D01*
X299074761Y-261754285D01*
X299027142Y-261801904D01*
X298931904Y-261849523D01*
X298122380Y-261849523D01*
X299122380Y-262849523D02*
X299122380Y-262278095D01*
X299122380Y-262563809D02*
X298122380Y-262563809D01*
X298265238Y-262468571D01*
X298360476Y-262373333D01*
X298408095Y-262278095D01*
%TO.C,RN22*%
X444612380Y-188803333D02*
X444136190Y-188470000D01*
X444612380Y-188231904D02*
X443612380Y-188231904D01*
X443612380Y-188612857D01*
X443660000Y-188708095D01*
X443707619Y-188755714D01*
X443802857Y-188803333D01*
X443945714Y-188803333D01*
X444040952Y-188755714D01*
X444088571Y-188708095D01*
X444136190Y-188612857D01*
X444136190Y-188231904D01*
X444612380Y-189231904D02*
X443612380Y-189231904D01*
X444612380Y-189803333D01*
X443612380Y-189803333D01*
X443707619Y-190231904D02*
X443660000Y-190279523D01*
X443612380Y-190374761D01*
X443612380Y-190612857D01*
X443660000Y-190708095D01*
X443707619Y-190755714D01*
X443802857Y-190803333D01*
X443898095Y-190803333D01*
X444040952Y-190755714D01*
X444612380Y-190184285D01*
X444612380Y-190803333D01*
X443707619Y-191184285D02*
X443660000Y-191231904D01*
X443612380Y-191327142D01*
X443612380Y-191565238D01*
X443660000Y-191660476D01*
X443707619Y-191708095D01*
X443802857Y-191755714D01*
X443898095Y-191755714D01*
X444040952Y-191708095D01*
X444612380Y-191136666D01*
X444612380Y-191755714D01*
%TO.C,RN21*%
X413432380Y-233653333D02*
X412956190Y-233320000D01*
X413432380Y-233081904D02*
X412432380Y-233081904D01*
X412432380Y-233462857D01*
X412480000Y-233558095D01*
X412527619Y-233605714D01*
X412622857Y-233653333D01*
X412765714Y-233653333D01*
X412860952Y-233605714D01*
X412908571Y-233558095D01*
X412956190Y-233462857D01*
X412956190Y-233081904D01*
X413432380Y-234081904D02*
X412432380Y-234081904D01*
X413432380Y-234653333D01*
X412432380Y-234653333D01*
X412527619Y-235081904D02*
X412480000Y-235129523D01*
X412432380Y-235224761D01*
X412432380Y-235462857D01*
X412480000Y-235558095D01*
X412527619Y-235605714D01*
X412622857Y-235653333D01*
X412718095Y-235653333D01*
X412860952Y-235605714D01*
X413432380Y-235034285D01*
X413432380Y-235653333D01*
X413432380Y-236605714D02*
X413432380Y-236034285D01*
X413432380Y-236320000D02*
X412432380Y-236320000D01*
X412575238Y-236224761D01*
X412670476Y-236129523D01*
X412718095Y-236034285D01*
%TO.C,RN20*%
X408956666Y-232872380D02*
X409290000Y-232396190D01*
X409528095Y-232872380D02*
X409528095Y-231872380D01*
X409147142Y-231872380D01*
X409051904Y-231920000D01*
X409004285Y-231967619D01*
X408956666Y-232062857D01*
X408956666Y-232205714D01*
X409004285Y-232300952D01*
X409051904Y-232348571D01*
X409147142Y-232396190D01*
X409528095Y-232396190D01*
X408528095Y-232872380D02*
X408528095Y-231872380D01*
X407956666Y-232872380D01*
X407956666Y-231872380D01*
X407528095Y-231967619D02*
X407480476Y-231920000D01*
X407385238Y-231872380D01*
X407147142Y-231872380D01*
X407051904Y-231920000D01*
X407004285Y-231967619D01*
X406956666Y-232062857D01*
X406956666Y-232158095D01*
X407004285Y-232300952D01*
X407575714Y-232872380D01*
X406956666Y-232872380D01*
X406337619Y-231872380D02*
X406242380Y-231872380D01*
X406147142Y-231920000D01*
X406099523Y-231967619D01*
X406051904Y-232062857D01*
X406004285Y-232253333D01*
X406004285Y-232491428D01*
X406051904Y-232681904D01*
X406099523Y-232777142D01*
X406147142Y-232824761D01*
X406242380Y-232872380D01*
X406337619Y-232872380D01*
X406432857Y-232824761D01*
X406480476Y-232777142D01*
X406528095Y-232681904D01*
X406575714Y-232491428D01*
X406575714Y-232253333D01*
X406528095Y-232062857D01*
X406480476Y-231967619D01*
X406432857Y-231920000D01*
X406337619Y-231872380D01*
%TO.C,RN19*%
X426012380Y-215893333D02*
X425536190Y-215560000D01*
X426012380Y-215321904D02*
X425012380Y-215321904D01*
X425012380Y-215702857D01*
X425060000Y-215798095D01*
X425107619Y-215845714D01*
X425202857Y-215893333D01*
X425345714Y-215893333D01*
X425440952Y-215845714D01*
X425488571Y-215798095D01*
X425536190Y-215702857D01*
X425536190Y-215321904D01*
X426012380Y-216321904D02*
X425012380Y-216321904D01*
X426012380Y-216893333D01*
X425012380Y-216893333D01*
X426012380Y-217893333D02*
X426012380Y-217321904D01*
X426012380Y-217607619D02*
X425012380Y-217607619D01*
X425155238Y-217512380D01*
X425250476Y-217417142D01*
X425298095Y-217321904D01*
X426012380Y-218369523D02*
X426012380Y-218560000D01*
X425964761Y-218655238D01*
X425917142Y-218702857D01*
X425774285Y-218798095D01*
X425583809Y-218845714D01*
X425202857Y-218845714D01*
X425107619Y-218798095D01*
X425060000Y-218750476D01*
X425012380Y-218655238D01*
X425012380Y-218464761D01*
X425060000Y-218369523D01*
X425107619Y-218321904D01*
X425202857Y-218274285D01*
X425440952Y-218274285D01*
X425536190Y-218321904D01*
X425583809Y-218369523D01*
X425631428Y-218464761D01*
X425631428Y-218655238D01*
X425583809Y-218750476D01*
X425536190Y-218798095D01*
X425440952Y-218845714D01*
%TO.C,RN18*%
X390442380Y-193093333D02*
X389966190Y-192760000D01*
X390442380Y-192521904D02*
X389442380Y-192521904D01*
X389442380Y-192902857D01*
X389490000Y-192998095D01*
X389537619Y-193045714D01*
X389632857Y-193093333D01*
X389775714Y-193093333D01*
X389870952Y-193045714D01*
X389918571Y-192998095D01*
X389966190Y-192902857D01*
X389966190Y-192521904D01*
X390442380Y-193521904D02*
X389442380Y-193521904D01*
X390442380Y-194093333D01*
X389442380Y-194093333D01*
X390442380Y-195093333D02*
X390442380Y-194521904D01*
X390442380Y-194807619D02*
X389442380Y-194807619D01*
X389585238Y-194712380D01*
X389680476Y-194617142D01*
X389728095Y-194521904D01*
X389870952Y-195664761D02*
X389823333Y-195569523D01*
X389775714Y-195521904D01*
X389680476Y-195474285D01*
X389632857Y-195474285D01*
X389537619Y-195521904D01*
X389490000Y-195569523D01*
X389442380Y-195664761D01*
X389442380Y-195855238D01*
X389490000Y-195950476D01*
X389537619Y-195998095D01*
X389632857Y-196045714D01*
X389680476Y-196045714D01*
X389775714Y-195998095D01*
X389823333Y-195950476D01*
X389870952Y-195855238D01*
X389870952Y-195664761D01*
X389918571Y-195569523D01*
X389966190Y-195521904D01*
X390061428Y-195474285D01*
X390251904Y-195474285D01*
X390347142Y-195521904D01*
X390394761Y-195569523D01*
X390442380Y-195664761D01*
X390442380Y-195855238D01*
X390394761Y-195950476D01*
X390347142Y-195998095D01*
X390251904Y-196045714D01*
X390061428Y-196045714D01*
X389966190Y-195998095D01*
X389918571Y-195950476D01*
X389870952Y-195855238D01*
%TO.C,RN17*%
X394616666Y-175102380D02*
X394950000Y-174626190D01*
X395188095Y-175102380D02*
X395188095Y-174102380D01*
X394807142Y-174102380D01*
X394711904Y-174150000D01*
X394664285Y-174197619D01*
X394616666Y-174292857D01*
X394616666Y-174435714D01*
X394664285Y-174530952D01*
X394711904Y-174578571D01*
X394807142Y-174626190D01*
X395188095Y-174626190D01*
X394188095Y-175102380D02*
X394188095Y-174102380D01*
X393616666Y-175102380D01*
X393616666Y-174102380D01*
X392616666Y-175102380D02*
X393188095Y-175102380D01*
X392902380Y-175102380D02*
X392902380Y-174102380D01*
X392997619Y-174245238D01*
X393092857Y-174340476D01*
X393188095Y-174388095D01*
X392283333Y-174102380D02*
X391616666Y-174102380D01*
X392045238Y-175102380D01*
%TO.C,RN16*%
X353366666Y-173802380D02*
X353700000Y-173326190D01*
X353938095Y-173802380D02*
X353938095Y-172802380D01*
X353557142Y-172802380D01*
X353461904Y-172850000D01*
X353414285Y-172897619D01*
X353366666Y-172992857D01*
X353366666Y-173135714D01*
X353414285Y-173230952D01*
X353461904Y-173278571D01*
X353557142Y-173326190D01*
X353938095Y-173326190D01*
X352938095Y-173802380D02*
X352938095Y-172802380D01*
X352366666Y-173802380D01*
X352366666Y-172802380D01*
X351366666Y-173802380D02*
X351938095Y-173802380D01*
X351652380Y-173802380D02*
X351652380Y-172802380D01*
X351747619Y-172945238D01*
X351842857Y-173040476D01*
X351938095Y-173088095D01*
X350509523Y-172802380D02*
X350700000Y-172802380D01*
X350795238Y-172850000D01*
X350842857Y-172897619D01*
X350938095Y-173040476D01*
X350985714Y-173230952D01*
X350985714Y-173611904D01*
X350938095Y-173707142D01*
X350890476Y-173754761D01*
X350795238Y-173802380D01*
X350604761Y-173802380D01*
X350509523Y-173754761D01*
X350461904Y-173707142D01*
X350414285Y-173611904D01*
X350414285Y-173373809D01*
X350461904Y-173278571D01*
X350509523Y-173230952D01*
X350604761Y-173183333D01*
X350795238Y-173183333D01*
X350890476Y-173230952D01*
X350938095Y-173278571D01*
X350985714Y-173373809D01*
%TO.C,RN15*%
X283876666Y-174022380D02*
X284210000Y-173546190D01*
X284448095Y-174022380D02*
X284448095Y-173022380D01*
X284067142Y-173022380D01*
X283971904Y-173070000D01*
X283924285Y-173117619D01*
X283876666Y-173212857D01*
X283876666Y-173355714D01*
X283924285Y-173450952D01*
X283971904Y-173498571D01*
X284067142Y-173546190D01*
X284448095Y-173546190D01*
X283448095Y-174022380D02*
X283448095Y-173022380D01*
X282876666Y-174022380D01*
X282876666Y-173022380D01*
X281876666Y-174022380D02*
X282448095Y-174022380D01*
X282162380Y-174022380D02*
X282162380Y-173022380D01*
X282257619Y-173165238D01*
X282352857Y-173260476D01*
X282448095Y-173308095D01*
X280971904Y-173022380D02*
X281448095Y-173022380D01*
X281495714Y-173498571D01*
X281448095Y-173450952D01*
X281352857Y-173403333D01*
X281114761Y-173403333D01*
X281019523Y-173450952D01*
X280971904Y-173498571D01*
X280924285Y-173593809D01*
X280924285Y-173831904D01*
X280971904Y-173927142D01*
X281019523Y-173974761D01*
X281114761Y-174022380D01*
X281352857Y-174022380D01*
X281448095Y-173974761D01*
X281495714Y-173927142D01*
%TO.C,RN14*%
X203436666Y-174152380D02*
X203770000Y-173676190D01*
X204008095Y-174152380D02*
X204008095Y-173152380D01*
X203627142Y-173152380D01*
X203531904Y-173200000D01*
X203484285Y-173247619D01*
X203436666Y-173342857D01*
X203436666Y-173485714D01*
X203484285Y-173580952D01*
X203531904Y-173628571D01*
X203627142Y-173676190D01*
X204008095Y-173676190D01*
X203008095Y-174152380D02*
X203008095Y-173152380D01*
X202436666Y-174152380D01*
X202436666Y-173152380D01*
X201436666Y-174152380D02*
X202008095Y-174152380D01*
X201722380Y-174152380D02*
X201722380Y-173152380D01*
X201817619Y-173295238D01*
X201912857Y-173390476D01*
X202008095Y-173438095D01*
X200579523Y-173485714D02*
X200579523Y-174152380D01*
X200817619Y-173104761D02*
X201055714Y-173819047D01*
X200436666Y-173819047D01*
%TO.C,RN13*%
X342416666Y-270142380D02*
X342750000Y-269666190D01*
X342988095Y-270142380D02*
X342988095Y-269142380D01*
X342607142Y-269142380D01*
X342511904Y-269190000D01*
X342464285Y-269237619D01*
X342416666Y-269332857D01*
X342416666Y-269475714D01*
X342464285Y-269570952D01*
X342511904Y-269618571D01*
X342607142Y-269666190D01*
X342988095Y-269666190D01*
X341988095Y-270142380D02*
X341988095Y-269142380D01*
X341416666Y-270142380D01*
X341416666Y-269142380D01*
X340416666Y-270142380D02*
X340988095Y-270142380D01*
X340702380Y-270142380D02*
X340702380Y-269142380D01*
X340797619Y-269285238D01*
X340892857Y-269380476D01*
X340988095Y-269428095D01*
X340083333Y-269142380D02*
X339464285Y-269142380D01*
X339797619Y-269523333D01*
X339654761Y-269523333D01*
X339559523Y-269570952D01*
X339511904Y-269618571D01*
X339464285Y-269713809D01*
X339464285Y-269951904D01*
X339511904Y-270047142D01*
X339559523Y-270094761D01*
X339654761Y-270142380D01*
X339940476Y-270142380D01*
X340035714Y-270094761D01*
X340083333Y-270047142D01*
%TO.C,RN12*%
X316336666Y-270202380D02*
X316670000Y-269726190D01*
X316908095Y-270202380D02*
X316908095Y-269202380D01*
X316527142Y-269202380D01*
X316431904Y-269250000D01*
X316384285Y-269297619D01*
X316336666Y-269392857D01*
X316336666Y-269535714D01*
X316384285Y-269630952D01*
X316431904Y-269678571D01*
X316527142Y-269726190D01*
X316908095Y-269726190D01*
X315908095Y-270202380D02*
X315908095Y-269202380D01*
X315336666Y-270202380D01*
X315336666Y-269202380D01*
X314336666Y-270202380D02*
X314908095Y-270202380D01*
X314622380Y-270202380D02*
X314622380Y-269202380D01*
X314717619Y-269345238D01*
X314812857Y-269440476D01*
X314908095Y-269488095D01*
X313955714Y-269297619D02*
X313908095Y-269250000D01*
X313812857Y-269202380D01*
X313574761Y-269202380D01*
X313479523Y-269250000D01*
X313431904Y-269297619D01*
X313384285Y-269392857D01*
X313384285Y-269488095D01*
X313431904Y-269630952D01*
X314003333Y-270202380D01*
X313384285Y-270202380D01*
%TO.C,RN11*%
X439112380Y-163333333D02*
X438636190Y-163000000D01*
X439112380Y-162761904D02*
X438112380Y-162761904D01*
X438112380Y-163142857D01*
X438160000Y-163238095D01*
X438207619Y-163285714D01*
X438302857Y-163333333D01*
X438445714Y-163333333D01*
X438540952Y-163285714D01*
X438588571Y-163238095D01*
X438636190Y-163142857D01*
X438636190Y-162761904D01*
X439112380Y-163761904D02*
X438112380Y-163761904D01*
X439112380Y-164333333D01*
X438112380Y-164333333D01*
X439112380Y-165333333D02*
X439112380Y-164761904D01*
X439112380Y-165047619D02*
X438112380Y-165047619D01*
X438255238Y-164952380D01*
X438350476Y-164857142D01*
X438398095Y-164761904D01*
X439112380Y-166285714D02*
X439112380Y-165714285D01*
X439112380Y-166000000D02*
X438112380Y-166000000D01*
X438255238Y-165904761D01*
X438350476Y-165809523D01*
X438398095Y-165714285D01*
%TO.C,RN10*%
X428402380Y-232213333D02*
X427926190Y-231880000D01*
X428402380Y-231641904D02*
X427402380Y-231641904D01*
X427402380Y-232022857D01*
X427450000Y-232118095D01*
X427497619Y-232165714D01*
X427592857Y-232213333D01*
X427735714Y-232213333D01*
X427830952Y-232165714D01*
X427878571Y-232118095D01*
X427926190Y-232022857D01*
X427926190Y-231641904D01*
X428402380Y-232641904D02*
X427402380Y-232641904D01*
X428402380Y-233213333D01*
X427402380Y-233213333D01*
X428402380Y-234213333D02*
X428402380Y-233641904D01*
X428402380Y-233927619D02*
X427402380Y-233927619D01*
X427545238Y-233832380D01*
X427640476Y-233737142D01*
X427688095Y-233641904D01*
X427402380Y-234832380D02*
X427402380Y-234927619D01*
X427450000Y-235022857D01*
X427497619Y-235070476D01*
X427592857Y-235118095D01*
X427783333Y-235165714D01*
X428021428Y-235165714D01*
X428211904Y-235118095D01*
X428307142Y-235070476D01*
X428354761Y-235022857D01*
X428402380Y-234927619D01*
X428402380Y-234832380D01*
X428354761Y-234737142D01*
X428307142Y-234689523D01*
X428211904Y-234641904D01*
X428021428Y-234594285D01*
X427783333Y-234594285D01*
X427592857Y-234641904D01*
X427497619Y-234689523D01*
X427450000Y-234737142D01*
X427402380Y-234832380D01*
%TO.C,RN9*%
X402372380Y-211959523D02*
X401896190Y-211626190D01*
X402372380Y-211388095D02*
X401372380Y-211388095D01*
X401372380Y-211769047D01*
X401420000Y-211864285D01*
X401467619Y-211911904D01*
X401562857Y-211959523D01*
X401705714Y-211959523D01*
X401800952Y-211911904D01*
X401848571Y-211864285D01*
X401896190Y-211769047D01*
X401896190Y-211388095D01*
X402372380Y-212388095D02*
X401372380Y-212388095D01*
X402372380Y-212959523D01*
X401372380Y-212959523D01*
X402372380Y-213483333D02*
X402372380Y-213673809D01*
X402324761Y-213769047D01*
X402277142Y-213816666D01*
X402134285Y-213911904D01*
X401943809Y-213959523D01*
X401562857Y-213959523D01*
X401467619Y-213911904D01*
X401420000Y-213864285D01*
X401372380Y-213769047D01*
X401372380Y-213578571D01*
X401420000Y-213483333D01*
X401467619Y-213435714D01*
X401562857Y-213388095D01*
X401800952Y-213388095D01*
X401896190Y-213435714D01*
X401943809Y-213483333D01*
X401991428Y-213578571D01*
X401991428Y-213769047D01*
X401943809Y-213864285D01*
X401896190Y-213911904D01*
X401800952Y-213959523D01*
%TO.C,RN8*%
X431732380Y-190389523D02*
X431256190Y-190056190D01*
X431732380Y-189818095D02*
X430732380Y-189818095D01*
X430732380Y-190199047D01*
X430780000Y-190294285D01*
X430827619Y-190341904D01*
X430922857Y-190389523D01*
X431065714Y-190389523D01*
X431160952Y-190341904D01*
X431208571Y-190294285D01*
X431256190Y-190199047D01*
X431256190Y-189818095D01*
X431732380Y-190818095D02*
X430732380Y-190818095D01*
X431732380Y-191389523D01*
X430732380Y-191389523D01*
X431160952Y-192008571D02*
X431113333Y-191913333D01*
X431065714Y-191865714D01*
X430970476Y-191818095D01*
X430922857Y-191818095D01*
X430827619Y-191865714D01*
X430780000Y-191913333D01*
X430732380Y-192008571D01*
X430732380Y-192199047D01*
X430780000Y-192294285D01*
X430827619Y-192341904D01*
X430922857Y-192389523D01*
X430970476Y-192389523D01*
X431065714Y-192341904D01*
X431113333Y-192294285D01*
X431160952Y-192199047D01*
X431160952Y-192008571D01*
X431208571Y-191913333D01*
X431256190Y-191865714D01*
X431351428Y-191818095D01*
X431541904Y-191818095D01*
X431637142Y-191865714D01*
X431684761Y-191913333D01*
X431732380Y-192008571D01*
X431732380Y-192199047D01*
X431684761Y-192294285D01*
X431637142Y-192341904D01*
X431541904Y-192389523D01*
X431351428Y-192389523D01*
X431256190Y-192341904D01*
X431208571Y-192294285D01*
X431160952Y-192199047D01*
%TO.C,RN7*%
X411292380Y-188889523D02*
X410816190Y-188556190D01*
X411292380Y-188318095D02*
X410292380Y-188318095D01*
X410292380Y-188699047D01*
X410340000Y-188794285D01*
X410387619Y-188841904D01*
X410482857Y-188889523D01*
X410625714Y-188889523D01*
X410720952Y-188841904D01*
X410768571Y-188794285D01*
X410816190Y-188699047D01*
X410816190Y-188318095D01*
X411292380Y-189318095D02*
X410292380Y-189318095D01*
X411292380Y-189889523D01*
X410292380Y-189889523D01*
X410292380Y-190270476D02*
X410292380Y-190937142D01*
X411292380Y-190508571D01*
%TO.C,RN6*%
X371960476Y-169542380D02*
X372293809Y-169066190D01*
X372531904Y-169542380D02*
X372531904Y-168542380D01*
X372150952Y-168542380D01*
X372055714Y-168590000D01*
X372008095Y-168637619D01*
X371960476Y-168732857D01*
X371960476Y-168875714D01*
X372008095Y-168970952D01*
X372055714Y-169018571D01*
X372150952Y-169066190D01*
X372531904Y-169066190D01*
X371531904Y-169542380D02*
X371531904Y-168542380D01*
X370960476Y-169542380D01*
X370960476Y-168542380D01*
X370055714Y-168542380D02*
X370246190Y-168542380D01*
X370341428Y-168590000D01*
X370389047Y-168637619D01*
X370484285Y-168780476D01*
X370531904Y-168970952D01*
X370531904Y-169351904D01*
X370484285Y-169447142D01*
X370436666Y-169494761D01*
X370341428Y-169542380D01*
X370150952Y-169542380D01*
X370055714Y-169494761D01*
X370008095Y-169447142D01*
X369960476Y-169351904D01*
X369960476Y-169113809D01*
X370008095Y-169018571D01*
X370055714Y-168970952D01*
X370150952Y-168923333D01*
X370341428Y-168923333D01*
X370436666Y-168970952D01*
X370484285Y-169018571D01*
X370531904Y-169113809D01*
%TO.C,RN5*%
X322220476Y-168202380D02*
X322553809Y-167726190D01*
X322791904Y-168202380D02*
X322791904Y-167202380D01*
X322410952Y-167202380D01*
X322315714Y-167250000D01*
X322268095Y-167297619D01*
X322220476Y-167392857D01*
X322220476Y-167535714D01*
X322268095Y-167630952D01*
X322315714Y-167678571D01*
X322410952Y-167726190D01*
X322791904Y-167726190D01*
X321791904Y-168202380D02*
X321791904Y-167202380D01*
X321220476Y-168202380D01*
X321220476Y-167202380D01*
X320268095Y-167202380D02*
X320744285Y-167202380D01*
X320791904Y-167678571D01*
X320744285Y-167630952D01*
X320649047Y-167583333D01*
X320410952Y-167583333D01*
X320315714Y-167630952D01*
X320268095Y-167678571D01*
X320220476Y-167773809D01*
X320220476Y-168011904D01*
X320268095Y-168107142D01*
X320315714Y-168154761D01*
X320410952Y-168202380D01*
X320649047Y-168202380D01*
X320744285Y-168154761D01*
X320791904Y-168107142D01*
%TO.C,RN4*%
X271032380Y-170829523D02*
X270556190Y-170496190D01*
X271032380Y-170258095D02*
X270032380Y-170258095D01*
X270032380Y-170639047D01*
X270080000Y-170734285D01*
X270127619Y-170781904D01*
X270222857Y-170829523D01*
X270365714Y-170829523D01*
X270460952Y-170781904D01*
X270508571Y-170734285D01*
X270556190Y-170639047D01*
X270556190Y-170258095D01*
X271032380Y-171258095D02*
X270032380Y-171258095D01*
X271032380Y-171829523D01*
X270032380Y-171829523D01*
X270365714Y-172734285D02*
X271032380Y-172734285D01*
X269984761Y-172496190D02*
X270699047Y-172258095D01*
X270699047Y-172877142D01*
%TO.C,RN3*%
X176180476Y-163222380D02*
X176513809Y-162746190D01*
X176751904Y-163222380D02*
X176751904Y-162222380D01*
X176370952Y-162222380D01*
X176275714Y-162270000D01*
X176228095Y-162317619D01*
X176180476Y-162412857D01*
X176180476Y-162555714D01*
X176228095Y-162650952D01*
X176275714Y-162698571D01*
X176370952Y-162746190D01*
X176751904Y-162746190D01*
X175751904Y-163222380D02*
X175751904Y-162222380D01*
X175180476Y-163222380D01*
X175180476Y-162222380D01*
X174799523Y-162222380D02*
X174180476Y-162222380D01*
X174513809Y-162603333D01*
X174370952Y-162603333D01*
X174275714Y-162650952D01*
X174228095Y-162698571D01*
X174180476Y-162793809D01*
X174180476Y-163031904D01*
X174228095Y-163127142D01*
X174275714Y-163174761D01*
X174370952Y-163222380D01*
X174656666Y-163222380D01*
X174751904Y-163174761D01*
X174799523Y-163127142D01*
%TO.C,RN2*%
X321080476Y-255272380D02*
X321413809Y-254796190D01*
X321651904Y-255272380D02*
X321651904Y-254272380D01*
X321270952Y-254272380D01*
X321175714Y-254320000D01*
X321128095Y-254367619D01*
X321080476Y-254462857D01*
X321080476Y-254605714D01*
X321128095Y-254700952D01*
X321175714Y-254748571D01*
X321270952Y-254796190D01*
X321651904Y-254796190D01*
X320651904Y-255272380D02*
X320651904Y-254272380D01*
X320080476Y-255272380D01*
X320080476Y-254272380D01*
X319651904Y-254367619D02*
X319604285Y-254320000D01*
X319509047Y-254272380D01*
X319270952Y-254272380D01*
X319175714Y-254320000D01*
X319128095Y-254367619D01*
X319080476Y-254462857D01*
X319080476Y-254558095D01*
X319128095Y-254700952D01*
X319699523Y-255272380D01*
X319080476Y-255272380D01*
%TO.C,RN1*%
X295130476Y-256762380D02*
X295463809Y-256286190D01*
X295701904Y-256762380D02*
X295701904Y-255762380D01*
X295320952Y-255762380D01*
X295225714Y-255810000D01*
X295178095Y-255857619D01*
X295130476Y-255952857D01*
X295130476Y-256095714D01*
X295178095Y-256190952D01*
X295225714Y-256238571D01*
X295320952Y-256286190D01*
X295701904Y-256286190D01*
X294701904Y-256762380D02*
X294701904Y-255762380D01*
X294130476Y-256762380D01*
X294130476Y-255762380D01*
X293130476Y-256762380D02*
X293701904Y-256762380D01*
X293416190Y-256762380D02*
X293416190Y-255762380D01*
X293511428Y-255905238D01*
X293606666Y-256000476D01*
X293701904Y-256048095D01*
%TO.C,R7*%
D12*
X216937771Y-158394400D02*
X216647485Y-158191200D01*
X216937771Y-158046057D02*
X216328171Y-158046057D01*
X216328171Y-158278285D01*
X216357200Y-158336342D01*
X216386228Y-158365371D01*
X216444285Y-158394400D01*
X216531371Y-158394400D01*
X216589428Y-158365371D01*
X216618457Y-158336342D01*
X216647485Y-158278285D01*
X216647485Y-158046057D01*
X216328171Y-158597600D02*
X216328171Y-159004000D01*
X216937771Y-158742742D01*
X214397771Y-157988000D02*
X214397771Y-157639657D01*
X214397771Y-157813828D02*
X213788171Y-157813828D01*
X213875257Y-157755771D01*
X213933314Y-157697714D01*
X213962342Y-157639657D01*
X214339714Y-158249257D02*
X214368742Y-158278285D01*
X214397771Y-158249257D01*
X214368742Y-158220228D01*
X214339714Y-158249257D01*
X214397771Y-158249257D01*
X213788171Y-158829828D02*
X213788171Y-158539542D01*
X214078457Y-158510514D01*
X214049428Y-158539542D01*
X214020400Y-158597600D01*
X214020400Y-158742742D01*
X214049428Y-158800800D01*
X214078457Y-158829828D01*
X214136514Y-158858857D01*
X214281657Y-158858857D01*
X214339714Y-158829828D01*
X214368742Y-158800800D01*
X214397771Y-158742742D01*
X214397771Y-158597600D01*
X214368742Y-158539542D01*
X214339714Y-158510514D01*
X214397771Y-159120114D02*
X213788171Y-159120114D01*
X214165542Y-159178171D02*
X214397771Y-159352342D01*
X213991371Y-159352342D02*
X214223600Y-159120114D01*
%TO.C,R6*%
X216937771Y-161442400D02*
X216647485Y-161239200D01*
X216937771Y-161094057D02*
X216328171Y-161094057D01*
X216328171Y-161326285D01*
X216357200Y-161384342D01*
X216386228Y-161413371D01*
X216444285Y-161442400D01*
X216531371Y-161442400D01*
X216589428Y-161413371D01*
X216618457Y-161384342D01*
X216647485Y-161326285D01*
X216647485Y-161094057D01*
X216328171Y-161964914D02*
X216328171Y-161848800D01*
X216357200Y-161790742D01*
X216386228Y-161761714D01*
X216473314Y-161703657D01*
X216589428Y-161674628D01*
X216821657Y-161674628D01*
X216879714Y-161703657D01*
X216908742Y-161732685D01*
X216937771Y-161790742D01*
X216937771Y-161906857D01*
X216908742Y-161964914D01*
X216879714Y-161993942D01*
X216821657Y-162022971D01*
X216676514Y-162022971D01*
X216618457Y-161993942D01*
X216589428Y-161964914D01*
X216560400Y-161906857D01*
X216560400Y-161790742D01*
X216589428Y-161732685D01*
X216618457Y-161703657D01*
X216676514Y-161674628D01*
X213846228Y-161079542D02*
X213817200Y-161108571D01*
X213788171Y-161166628D01*
X213788171Y-161311771D01*
X213817200Y-161369828D01*
X213846228Y-161398857D01*
X213904285Y-161427885D01*
X213962342Y-161427885D01*
X214049428Y-161398857D01*
X214397771Y-161050514D01*
X214397771Y-161427885D01*
X213846228Y-161660114D02*
X213817200Y-161689142D01*
X213788171Y-161747200D01*
X213788171Y-161892342D01*
X213817200Y-161950400D01*
X213846228Y-161979428D01*
X213904285Y-162008457D01*
X213962342Y-162008457D01*
X214049428Y-161979428D01*
X214397771Y-161631085D01*
X214397771Y-162008457D01*
%TO.C,R5*%
X211349771Y-158394400D02*
X211059485Y-158191200D01*
X211349771Y-158046057D02*
X210740171Y-158046057D01*
X210740171Y-158278285D01*
X210769200Y-158336342D01*
X210798228Y-158365371D01*
X210856285Y-158394400D01*
X210943371Y-158394400D01*
X211001428Y-158365371D01*
X211030457Y-158336342D01*
X211059485Y-158278285D01*
X211059485Y-158046057D01*
X210740171Y-158945942D02*
X210740171Y-158655657D01*
X211030457Y-158626628D01*
X211001428Y-158655657D01*
X210972400Y-158713714D01*
X210972400Y-158858857D01*
X211001428Y-158916914D01*
X211030457Y-158945942D01*
X211088514Y-158974971D01*
X211233657Y-158974971D01*
X211291714Y-158945942D01*
X211320742Y-158916914D01*
X211349771Y-158858857D01*
X211349771Y-158713714D01*
X211320742Y-158655657D01*
X211291714Y-158626628D01*
X213338228Y-158031542D02*
X213309200Y-158060571D01*
X213280171Y-158118628D01*
X213280171Y-158263771D01*
X213309200Y-158321828D01*
X213338228Y-158350857D01*
X213396285Y-158379885D01*
X213454342Y-158379885D01*
X213541428Y-158350857D01*
X213889771Y-158002514D01*
X213889771Y-158379885D01*
X213338228Y-158612114D02*
X213309200Y-158641142D01*
X213280171Y-158699200D01*
X213280171Y-158844342D01*
X213309200Y-158902400D01*
X213338228Y-158931428D01*
X213396285Y-158960457D01*
X213454342Y-158960457D01*
X213541428Y-158931428D01*
X213889771Y-158583085D01*
X213889771Y-158960457D01*
%TO.C,R4*%
X195271600Y-151425771D02*
X195474800Y-151135485D01*
X195619942Y-151425771D02*
X195619942Y-150816171D01*
X195387714Y-150816171D01*
X195329657Y-150845200D01*
X195300628Y-150874228D01*
X195271600Y-150932285D01*
X195271600Y-151019371D01*
X195300628Y-151077428D01*
X195329657Y-151106457D01*
X195387714Y-151135485D01*
X195619942Y-151135485D01*
X194749085Y-151019371D02*
X194749085Y-151425771D01*
X194894228Y-150787142D02*
X195039371Y-151222571D01*
X194662000Y-151222571D01*
X195300628Y-148885771D02*
X195648971Y-148885771D01*
X195474800Y-148885771D02*
X195474800Y-148276171D01*
X195532857Y-148363257D01*
X195590914Y-148421314D01*
X195648971Y-148450342D01*
X195039371Y-148885771D02*
X195039371Y-148276171D01*
X194691028Y-148885771D02*
X194952285Y-148537428D01*
X194691028Y-148276171D02*
X195039371Y-148624514D01*
%TO.C,R3*%
X195251600Y-153885771D02*
X195454800Y-153595485D01*
X195599942Y-153885771D02*
X195599942Y-153276171D01*
X195367714Y-153276171D01*
X195309657Y-153305200D01*
X195280628Y-153334228D01*
X195251600Y-153392285D01*
X195251600Y-153479371D01*
X195280628Y-153537428D01*
X195309657Y-153566457D01*
X195367714Y-153595485D01*
X195599942Y-153595485D01*
X195048400Y-153276171D02*
X194671028Y-153276171D01*
X194874228Y-153508400D01*
X194787142Y-153508400D01*
X194729085Y-153537428D01*
X194700057Y-153566457D01*
X194671028Y-153624514D01*
X194671028Y-153769657D01*
X194700057Y-153827714D01*
X194729085Y-153856742D01*
X194787142Y-153885771D01*
X194961314Y-153885771D01*
X195019371Y-153856742D01*
X195048400Y-153827714D01*
X195745085Y-150736171D02*
X196035371Y-150736171D01*
X196064400Y-151026457D01*
X196035371Y-150997428D01*
X195977314Y-150968400D01*
X195832171Y-150968400D01*
X195774114Y-150997428D01*
X195745085Y-151026457D01*
X195716057Y-151084514D01*
X195716057Y-151229657D01*
X195745085Y-151287714D01*
X195774114Y-151316742D01*
X195832171Y-151345771D01*
X195977314Y-151345771D01*
X196035371Y-151316742D01*
X196064400Y-151287714D01*
X195454800Y-151287714D02*
X195425771Y-151316742D01*
X195454800Y-151345771D01*
X195483828Y-151316742D01*
X195454800Y-151287714D01*
X195454800Y-151345771D01*
X194845200Y-151345771D02*
X195193542Y-151345771D01*
X195019371Y-151345771D02*
X195019371Y-150736171D01*
X195077428Y-150823257D01*
X195135485Y-150881314D01*
X195193542Y-150910342D01*
X194583942Y-151345771D02*
X194583942Y-150736171D01*
X194235600Y-151345771D02*
X194496857Y-150997428D01*
X194235600Y-150736171D02*
X194583942Y-151084514D01*
%TO.C,R2*%
X259830771Y-256773400D02*
X259540485Y-256570200D01*
X259830771Y-256425057D02*
X259221171Y-256425057D01*
X259221171Y-256657285D01*
X259250200Y-256715342D01*
X259279228Y-256744371D01*
X259337285Y-256773400D01*
X259424371Y-256773400D01*
X259482428Y-256744371D01*
X259511457Y-256715342D01*
X259540485Y-256657285D01*
X259540485Y-256425057D01*
X259279228Y-257005628D02*
X259250200Y-257034657D01*
X259221171Y-257092714D01*
X259221171Y-257237857D01*
X259250200Y-257295914D01*
X259279228Y-257324942D01*
X259337285Y-257353971D01*
X259395342Y-257353971D01*
X259482428Y-257324942D01*
X259830771Y-256976600D01*
X259830771Y-257353971D01*
X262370771Y-256700828D02*
X262370771Y-256352485D01*
X262370771Y-256526657D02*
X261761171Y-256526657D01*
X261848257Y-256468600D01*
X261906314Y-256410542D01*
X261935342Y-256352485D01*
X262370771Y-256962085D02*
X261761171Y-256962085D01*
X262196600Y-257165285D01*
X261761171Y-257368485D01*
X262370771Y-257368485D01*
%TO.C,R1*%
X242624771Y-263789400D02*
X242334485Y-263586200D01*
X242624771Y-263441057D02*
X242015171Y-263441057D01*
X242015171Y-263673285D01*
X242044200Y-263731342D01*
X242073228Y-263760371D01*
X242131285Y-263789400D01*
X242218371Y-263789400D01*
X242276428Y-263760371D01*
X242305457Y-263731342D01*
X242334485Y-263673285D01*
X242334485Y-263441057D01*
X242624771Y-264369971D02*
X242624771Y-264021628D01*
X242624771Y-264195800D02*
X242015171Y-264195800D01*
X242102257Y-264137742D01*
X242160314Y-264079685D01*
X242189342Y-264021628D01*
X245164771Y-263470085D02*
X245164771Y-263121742D01*
X245164771Y-263295914D02*
X244555171Y-263295914D01*
X244642257Y-263237857D01*
X244700314Y-263179800D01*
X244729342Y-263121742D01*
X244555171Y-263847457D02*
X244555171Y-263905514D01*
X244584200Y-263963571D01*
X244613228Y-263992600D01*
X244671285Y-264021628D01*
X244787400Y-264050657D01*
X244932542Y-264050657D01*
X245048657Y-264021628D01*
X245106714Y-263992600D01*
X245135742Y-263963571D01*
X245164771Y-263905514D01*
X245164771Y-263847457D01*
X245135742Y-263789400D01*
X245106714Y-263760371D01*
X245048657Y-263731342D01*
X244932542Y-263702314D01*
X244787400Y-263702314D01*
X244671285Y-263731342D01*
X244613228Y-263760371D01*
X244584200Y-263789400D01*
X244555171Y-263847457D01*
X245164771Y-264311914D02*
X244555171Y-264311914D01*
X245164771Y-264660257D02*
X244816428Y-264399000D01*
X244555171Y-264660257D02*
X244903514Y-264311914D01*
%TO.C,J2*%
D11*
X214709333Y-156432380D02*
X214709333Y-157146666D01*
X214756952Y-157289523D01*
X214852190Y-157384761D01*
X214995047Y-157432380D01*
X215090285Y-157432380D01*
X214280761Y-156527619D02*
X214233142Y-156480000D01*
X214137904Y-156432380D01*
X213899809Y-156432380D01*
X213804571Y-156480000D01*
X213756952Y-156527619D01*
X213709333Y-156622857D01*
X213709333Y-156718095D01*
X213756952Y-156860952D01*
X214328380Y-157432380D01*
X213709333Y-157432380D01*
%TO.C,J1*%
X428673380Y-229780666D02*
X429387666Y-229780666D01*
X429530523Y-229733047D01*
X429625761Y-229637809D01*
X429673380Y-229494952D01*
X429673380Y-229399714D01*
X429673380Y-230780666D02*
X429673380Y-230209238D01*
X429673380Y-230494952D02*
X428673380Y-230494952D01*
X428816238Y-230399714D01*
X428911476Y-230304476D01*
X428959095Y-230209238D01*
%TO.C,C8*%
D12*
X250740714Y-259148400D02*
X250769742Y-259119371D01*
X250798771Y-259032285D01*
X250798771Y-258974228D01*
X250769742Y-258887142D01*
X250711685Y-258829085D01*
X250653628Y-258800057D01*
X250537514Y-258771028D01*
X250450428Y-258771028D01*
X250334314Y-258800057D01*
X250276257Y-258829085D01*
X250218200Y-258887142D01*
X250189171Y-258974228D01*
X250189171Y-259032285D01*
X250218200Y-259119371D01*
X250247228Y-259148400D01*
X250450428Y-259496742D02*
X250421400Y-259438685D01*
X250392371Y-259409657D01*
X250334314Y-259380628D01*
X250305285Y-259380628D01*
X250247228Y-259409657D01*
X250218200Y-259438685D01*
X250189171Y-259496742D01*
X250189171Y-259612857D01*
X250218200Y-259670914D01*
X250247228Y-259699942D01*
X250305285Y-259728971D01*
X250334314Y-259728971D01*
X250392371Y-259699942D01*
X250421400Y-259670914D01*
X250450428Y-259612857D01*
X250450428Y-259496742D01*
X250479457Y-259438685D01*
X250508485Y-259409657D01*
X250566542Y-259380628D01*
X250682657Y-259380628D01*
X250740714Y-259409657D01*
X250769742Y-259438685D01*
X250798771Y-259496742D01*
X250798771Y-259612857D01*
X250769742Y-259670914D01*
X250740714Y-259699942D01*
X250682657Y-259728971D01*
X250566542Y-259728971D01*
X250508485Y-259699942D01*
X250479457Y-259670914D01*
X250450428Y-259612857D01*
X252787228Y-258335600D02*
X252758200Y-258364628D01*
X252729171Y-258422685D01*
X252729171Y-258567828D01*
X252758200Y-258625885D01*
X252787228Y-258654914D01*
X252845285Y-258683942D01*
X252903342Y-258683942D01*
X252990428Y-258654914D01*
X253338771Y-258306571D01*
X253338771Y-258683942D01*
X252787228Y-258916171D02*
X252758200Y-258945200D01*
X252729171Y-259003257D01*
X252729171Y-259148400D01*
X252758200Y-259206457D01*
X252787228Y-259235485D01*
X252845285Y-259264514D01*
X252903342Y-259264514D01*
X252990428Y-259235485D01*
X253338771Y-258887142D01*
X253338771Y-259264514D01*
X252932371Y-259525771D02*
X253541971Y-259525771D01*
X252961400Y-259525771D02*
X252932371Y-259583828D01*
X252932371Y-259699942D01*
X252961400Y-259758000D01*
X252990428Y-259787028D01*
X253048485Y-259816057D01*
X253222657Y-259816057D01*
X253280714Y-259787028D01*
X253309742Y-259758000D01*
X253338771Y-259699942D01*
X253338771Y-259583828D01*
X253309742Y-259525771D01*
X252932371Y-259990228D02*
X252932371Y-260222457D01*
X253338771Y-260077314D02*
X252816257Y-260077314D01*
X252758200Y-260106342D01*
X252729171Y-260164400D01*
X252729171Y-260222457D01*
%TO.C,C7*%
X242737714Y-259778400D02*
X242766742Y-259749371D01*
X242795771Y-259662285D01*
X242795771Y-259604228D01*
X242766742Y-259517142D01*
X242708685Y-259459085D01*
X242650628Y-259430057D01*
X242534514Y-259401028D01*
X242447428Y-259401028D01*
X242331314Y-259430057D01*
X242273257Y-259459085D01*
X242215200Y-259517142D01*
X242186171Y-259604228D01*
X242186171Y-259662285D01*
X242215200Y-259749371D01*
X242244228Y-259778400D01*
X242186171Y-259981600D02*
X242186171Y-260388000D01*
X242795771Y-260126742D01*
X244726171Y-258965600D02*
X244726171Y-259023657D01*
X244755200Y-259081714D01*
X244784228Y-259110742D01*
X244842285Y-259139771D01*
X244958400Y-259168800D01*
X245103542Y-259168800D01*
X245219657Y-259139771D01*
X245277714Y-259110742D01*
X245306742Y-259081714D01*
X245335771Y-259023657D01*
X245335771Y-258965600D01*
X245306742Y-258907542D01*
X245277714Y-258878514D01*
X245219657Y-258849485D01*
X245103542Y-258820457D01*
X244958400Y-258820457D01*
X244842285Y-258849485D01*
X244784228Y-258878514D01*
X244755200Y-258907542D01*
X244726171Y-258965600D01*
X245277714Y-259430057D02*
X245306742Y-259459085D01*
X245335771Y-259430057D01*
X245306742Y-259401028D01*
X245277714Y-259430057D01*
X245335771Y-259430057D01*
X245335771Y-260039657D02*
X245335771Y-259691314D01*
X245335771Y-259865485D02*
X244726171Y-259865485D01*
X244813257Y-259807428D01*
X244871314Y-259749371D01*
X244900342Y-259691314D01*
X244929371Y-260562171D02*
X245335771Y-260562171D01*
X244929371Y-260300914D02*
X245248685Y-260300914D01*
X245306742Y-260329942D01*
X245335771Y-260388000D01*
X245335771Y-260475085D01*
X245306742Y-260533142D01*
X245277714Y-260562171D01*
X244929371Y-260765371D02*
X244929371Y-260997600D01*
X245335771Y-260852457D02*
X244813257Y-260852457D01*
X244755200Y-260881485D01*
X244726171Y-260939542D01*
X244726171Y-260997600D01*
%TO.C,C6*%
X240431600Y-251587714D02*
X240460628Y-251616742D01*
X240547714Y-251645771D01*
X240605771Y-251645771D01*
X240692857Y-251616742D01*
X240750914Y-251558685D01*
X240779942Y-251500628D01*
X240808971Y-251384514D01*
X240808971Y-251297428D01*
X240779942Y-251181314D01*
X240750914Y-251123257D01*
X240692857Y-251065200D01*
X240605771Y-251036171D01*
X240547714Y-251036171D01*
X240460628Y-251065200D01*
X240431600Y-251094228D01*
X239909085Y-251036171D02*
X240025200Y-251036171D01*
X240083257Y-251065200D01*
X240112285Y-251094228D01*
X240170342Y-251181314D01*
X240199371Y-251297428D01*
X240199371Y-251529657D01*
X240170342Y-251587714D01*
X240141314Y-251616742D01*
X240083257Y-251645771D01*
X239967142Y-251645771D01*
X239909085Y-251616742D01*
X239880057Y-251587714D01*
X239851028Y-251529657D01*
X239851028Y-251384514D01*
X239880057Y-251326457D01*
X239909085Y-251297428D01*
X239967142Y-251268400D01*
X240083257Y-251268400D01*
X240141314Y-251297428D01*
X240170342Y-251326457D01*
X240199371Y-251384514D01*
X241244400Y-248496171D02*
X241186342Y-248496171D01*
X241128285Y-248525200D01*
X241099257Y-248554228D01*
X241070228Y-248612285D01*
X241041200Y-248728400D01*
X241041200Y-248873542D01*
X241070228Y-248989657D01*
X241099257Y-249047714D01*
X241128285Y-249076742D01*
X241186342Y-249105771D01*
X241244400Y-249105771D01*
X241302457Y-249076742D01*
X241331485Y-249047714D01*
X241360514Y-248989657D01*
X241389542Y-248873542D01*
X241389542Y-248728400D01*
X241360514Y-248612285D01*
X241331485Y-248554228D01*
X241302457Y-248525200D01*
X241244400Y-248496171D01*
X240779942Y-249047714D02*
X240750914Y-249076742D01*
X240779942Y-249105771D01*
X240808971Y-249076742D01*
X240779942Y-249047714D01*
X240779942Y-249105771D01*
X240170342Y-249105771D02*
X240518685Y-249105771D01*
X240344514Y-249105771D02*
X240344514Y-248496171D01*
X240402571Y-248583257D01*
X240460628Y-248641314D01*
X240518685Y-248670342D01*
X239647828Y-248699371D02*
X239647828Y-249105771D01*
X239909085Y-248699371D02*
X239909085Y-249018685D01*
X239880057Y-249076742D01*
X239822000Y-249105771D01*
X239734914Y-249105771D01*
X239676857Y-249076742D01*
X239647828Y-249047714D01*
X239444628Y-248699371D02*
X239212400Y-248699371D01*
X239357542Y-249105771D02*
X239357542Y-248583257D01*
X239328514Y-248525200D01*
X239270457Y-248496171D01*
X239212400Y-248496171D01*
%TO.C,C5*%
X231617714Y-253578400D02*
X231646742Y-253549371D01*
X231675771Y-253462285D01*
X231675771Y-253404228D01*
X231646742Y-253317142D01*
X231588685Y-253259085D01*
X231530628Y-253230057D01*
X231414514Y-253201028D01*
X231327428Y-253201028D01*
X231211314Y-253230057D01*
X231153257Y-253259085D01*
X231095200Y-253317142D01*
X231066171Y-253404228D01*
X231066171Y-253462285D01*
X231095200Y-253549371D01*
X231124228Y-253578400D01*
X231066171Y-254129942D02*
X231066171Y-253839657D01*
X231356457Y-253810628D01*
X231327428Y-253839657D01*
X231298400Y-253897714D01*
X231298400Y-254042857D01*
X231327428Y-254100914D01*
X231356457Y-254129942D01*
X231414514Y-254158971D01*
X231559657Y-254158971D01*
X231617714Y-254129942D01*
X231646742Y-254100914D01*
X231675771Y-254042857D01*
X231675771Y-253897714D01*
X231646742Y-253839657D01*
X231617714Y-253810628D01*
X228526171Y-252765600D02*
X228526171Y-252823657D01*
X228555200Y-252881714D01*
X228584228Y-252910742D01*
X228642285Y-252939771D01*
X228758400Y-252968800D01*
X228903542Y-252968800D01*
X229019657Y-252939771D01*
X229077714Y-252910742D01*
X229106742Y-252881714D01*
X229135771Y-252823657D01*
X229135771Y-252765600D01*
X229106742Y-252707542D01*
X229077714Y-252678514D01*
X229019657Y-252649485D01*
X228903542Y-252620457D01*
X228758400Y-252620457D01*
X228642285Y-252649485D01*
X228584228Y-252678514D01*
X228555200Y-252707542D01*
X228526171Y-252765600D01*
X229077714Y-253230057D02*
X229106742Y-253259085D01*
X229135771Y-253230057D01*
X229106742Y-253201028D01*
X229077714Y-253230057D01*
X229135771Y-253230057D01*
X229135771Y-253839657D02*
X229135771Y-253491314D01*
X229135771Y-253665485D02*
X228526171Y-253665485D01*
X228613257Y-253607428D01*
X228671314Y-253549371D01*
X228700342Y-253491314D01*
X228729371Y-254362171D02*
X229135771Y-254362171D01*
X228729371Y-254100914D02*
X229048685Y-254100914D01*
X229106742Y-254129942D01*
X229135771Y-254188000D01*
X229135771Y-254275085D01*
X229106742Y-254333142D01*
X229077714Y-254362171D01*
X228729371Y-254565371D02*
X228729371Y-254797600D01*
X229135771Y-254652457D02*
X228613257Y-254652457D01*
X228555200Y-254681485D01*
X228526171Y-254739542D01*
X228526171Y-254797600D01*
%TO.C,C4*%
X238125600Y-262859714D02*
X238154628Y-262888742D01*
X238241714Y-262917771D01*
X238299771Y-262917771D01*
X238386857Y-262888742D01*
X238444914Y-262830685D01*
X238473942Y-262772628D01*
X238502971Y-262656514D01*
X238502971Y-262569428D01*
X238473942Y-262453314D01*
X238444914Y-262395257D01*
X238386857Y-262337200D01*
X238299771Y-262308171D01*
X238241714Y-262308171D01*
X238154628Y-262337200D01*
X238125600Y-262366228D01*
X237603085Y-262511371D02*
X237603085Y-262917771D01*
X237748228Y-262279142D02*
X237893371Y-262714571D01*
X237516000Y-262714571D01*
X238938400Y-264848171D02*
X238880342Y-264848171D01*
X238822285Y-264877200D01*
X238793257Y-264906228D01*
X238764228Y-264964285D01*
X238735200Y-265080400D01*
X238735200Y-265225542D01*
X238764228Y-265341657D01*
X238793257Y-265399714D01*
X238822285Y-265428742D01*
X238880342Y-265457771D01*
X238938400Y-265457771D01*
X238996457Y-265428742D01*
X239025485Y-265399714D01*
X239054514Y-265341657D01*
X239083542Y-265225542D01*
X239083542Y-265080400D01*
X239054514Y-264964285D01*
X239025485Y-264906228D01*
X238996457Y-264877200D01*
X238938400Y-264848171D01*
X238473942Y-265399714D02*
X238444914Y-265428742D01*
X238473942Y-265457771D01*
X238502971Y-265428742D01*
X238473942Y-265399714D01*
X238473942Y-265457771D01*
X237864342Y-265457771D02*
X238212685Y-265457771D01*
X238038514Y-265457771D02*
X238038514Y-264848171D01*
X238096571Y-264935257D01*
X238154628Y-264993314D01*
X238212685Y-265022342D01*
X237341828Y-265051371D02*
X237341828Y-265457771D01*
X237603085Y-265051371D02*
X237603085Y-265370685D01*
X237574057Y-265428742D01*
X237516000Y-265457771D01*
X237428914Y-265457771D01*
X237370857Y-265428742D01*
X237341828Y-265399714D01*
X237138628Y-265051371D02*
X236906400Y-265051371D01*
X237051542Y-265457771D02*
X237051542Y-264935257D01*
X237022514Y-264877200D01*
X236964457Y-264848171D01*
X236906400Y-264848171D01*
%TO.C,C3*%
X233936600Y-262859714D02*
X233965628Y-262888742D01*
X234052714Y-262917771D01*
X234110771Y-262917771D01*
X234197857Y-262888742D01*
X234255914Y-262830685D01*
X234284942Y-262772628D01*
X234313971Y-262656514D01*
X234313971Y-262569428D01*
X234284942Y-262453314D01*
X234255914Y-262395257D01*
X234197857Y-262337200D01*
X234110771Y-262308171D01*
X234052714Y-262308171D01*
X233965628Y-262337200D01*
X233936600Y-262366228D01*
X233733400Y-262308171D02*
X233356028Y-262308171D01*
X233559228Y-262540400D01*
X233472142Y-262540400D01*
X233414085Y-262569428D01*
X233385057Y-262598457D01*
X233356028Y-262656514D01*
X233356028Y-262801657D01*
X233385057Y-262859714D01*
X233414085Y-262888742D01*
X233472142Y-262917771D01*
X233646314Y-262917771D01*
X233704371Y-262888742D01*
X233733400Y-262859714D01*
X234401057Y-265457771D02*
X234749400Y-265457771D01*
X234575228Y-265457771D02*
X234575228Y-264848171D01*
X234633285Y-264935257D01*
X234691342Y-264993314D01*
X234749400Y-265022342D01*
X234023685Y-264848171D02*
X233965628Y-264848171D01*
X233907571Y-264877200D01*
X233878542Y-264906228D01*
X233849514Y-264964285D01*
X233820485Y-265080400D01*
X233820485Y-265225542D01*
X233849514Y-265341657D01*
X233878542Y-265399714D01*
X233907571Y-265428742D01*
X233965628Y-265457771D01*
X234023685Y-265457771D01*
X234081742Y-265428742D01*
X234110771Y-265399714D01*
X234139800Y-265341657D01*
X234168828Y-265225542D01*
X234168828Y-265080400D01*
X234139800Y-264964285D01*
X234110771Y-264906228D01*
X234081742Y-264877200D01*
X234023685Y-264848171D01*
X233297971Y-265051371D02*
X233297971Y-265457771D01*
X233559228Y-265051371D02*
X233559228Y-265370685D01*
X233530200Y-265428742D01*
X233472142Y-265457771D01*
X233385057Y-265457771D01*
X233327000Y-265428742D01*
X233297971Y-265399714D01*
X233094771Y-265051371D02*
X232862542Y-265051371D01*
X233007685Y-265457771D02*
X233007685Y-264935257D01*
X232978657Y-264877200D01*
X232920600Y-264848171D01*
X232862542Y-264848171D01*
%TO.C,C2*%
X253280714Y-254442400D02*
X253309742Y-254413371D01*
X253338771Y-254326285D01*
X253338771Y-254268228D01*
X253309742Y-254181142D01*
X253251685Y-254123085D01*
X253193628Y-254094057D01*
X253077514Y-254065028D01*
X252990428Y-254065028D01*
X252874314Y-254094057D01*
X252816257Y-254123085D01*
X252758200Y-254181142D01*
X252729171Y-254268228D01*
X252729171Y-254326285D01*
X252758200Y-254413371D01*
X252787228Y-254442400D01*
X252787228Y-254674628D02*
X252758200Y-254703657D01*
X252729171Y-254761714D01*
X252729171Y-254906857D01*
X252758200Y-254964914D01*
X252787228Y-254993942D01*
X252845285Y-255022971D01*
X252903342Y-255022971D01*
X252990428Y-254993942D01*
X253338771Y-254645600D01*
X253338771Y-255022971D01*
X250247228Y-253629600D02*
X250218200Y-253658628D01*
X250189171Y-253716685D01*
X250189171Y-253861828D01*
X250218200Y-253919885D01*
X250247228Y-253948914D01*
X250305285Y-253977942D01*
X250363342Y-253977942D01*
X250450428Y-253948914D01*
X250798771Y-253600571D01*
X250798771Y-253977942D01*
X250247228Y-254210171D02*
X250218200Y-254239200D01*
X250189171Y-254297257D01*
X250189171Y-254442400D01*
X250218200Y-254500457D01*
X250247228Y-254529485D01*
X250305285Y-254558514D01*
X250363342Y-254558514D01*
X250450428Y-254529485D01*
X250798771Y-254181142D01*
X250798771Y-254558514D01*
X250392371Y-254819771D02*
X251001971Y-254819771D01*
X250421400Y-254819771D02*
X250392371Y-254877828D01*
X250392371Y-254993942D01*
X250421400Y-255052000D01*
X250450428Y-255081028D01*
X250508485Y-255110057D01*
X250682657Y-255110057D01*
X250740714Y-255081028D01*
X250769742Y-255052000D01*
X250798771Y-254993942D01*
X250798771Y-254877828D01*
X250769742Y-254819771D01*
X250392371Y-255284228D02*
X250392371Y-255516457D01*
X250798771Y-255371314D02*
X250276257Y-255371314D01*
X250218200Y-255400342D01*
X250189171Y-255458400D01*
X250189171Y-255516457D01*
%TO.C,C1*%
X240102714Y-263796400D02*
X240131742Y-263767371D01*
X240160771Y-263680285D01*
X240160771Y-263622228D01*
X240131742Y-263535142D01*
X240073685Y-263477085D01*
X240015628Y-263448057D01*
X239899514Y-263419028D01*
X239812428Y-263419028D01*
X239696314Y-263448057D01*
X239638257Y-263477085D01*
X239580200Y-263535142D01*
X239551171Y-263622228D01*
X239551171Y-263680285D01*
X239580200Y-263767371D01*
X239609228Y-263796400D01*
X240160771Y-264376971D02*
X240160771Y-264028628D01*
X240160771Y-264202800D02*
X239551171Y-264202800D01*
X239638257Y-264144742D01*
X239696314Y-264086685D01*
X239725342Y-264028628D01*
X242091171Y-262983600D02*
X242091171Y-263041657D01*
X242120200Y-263099714D01*
X242149228Y-263128742D01*
X242207285Y-263157771D01*
X242323400Y-263186800D01*
X242468542Y-263186800D01*
X242584657Y-263157771D01*
X242642714Y-263128742D01*
X242671742Y-263099714D01*
X242700771Y-263041657D01*
X242700771Y-262983600D01*
X242671742Y-262925542D01*
X242642714Y-262896514D01*
X242584657Y-262867485D01*
X242468542Y-262838457D01*
X242323400Y-262838457D01*
X242207285Y-262867485D01*
X242149228Y-262896514D01*
X242120200Y-262925542D01*
X242091171Y-262983600D01*
X242642714Y-263448057D02*
X242671742Y-263477085D01*
X242700771Y-263448057D01*
X242671742Y-263419028D01*
X242642714Y-263448057D01*
X242700771Y-263448057D01*
X242700771Y-264057657D02*
X242700771Y-263709314D01*
X242700771Y-263883485D02*
X242091171Y-263883485D01*
X242178257Y-263825428D01*
X242236314Y-263767371D01*
X242265342Y-263709314D01*
X242294371Y-264580171D02*
X242700771Y-264580171D01*
X242294371Y-264318914D02*
X242613685Y-264318914D01*
X242671742Y-264347942D01*
X242700771Y-264406000D01*
X242700771Y-264493085D01*
X242671742Y-264551142D01*
X242642714Y-264580171D01*
X242294371Y-264783371D02*
X242294371Y-265015600D01*
X242700771Y-264870457D02*
X242178257Y-264870457D01*
X242120200Y-264899485D01*
X242091171Y-264957542D01*
X242091171Y-265015600D01*
%TD*%
M02*
