%TF.GenerationSoftware,KiCad,Pcbnew,(5.1.6)-1*%
%TF.CreationDate,2022-08-21T13:28:18+08:00*%
%TF.ProjectId,feng,66656e67-2e6b-4696-9361-645f70636258,rev?*%
%TF.SameCoordinates,Original*%
%TF.FileFunction,Profile,NP*%
%FSLAX46Y46*%
G04 Gerber Fmt 4.6, Leading zero omitted, Abs format (unit mm)*
G04 Created by KiCad (PCBNEW (5.1.6)-1) date 2022-08-21 13:28:18*
%MOMM*%
%LPD*%
G01*
G04 APERTURE LIST*
%TA.AperFunction,Profile*%
%ADD10C,0.050000*%
%TD*%
%TA.AperFunction,Profile*%
%ADD11C,0.100000*%
%TD*%
%TA.AperFunction,Profile*%
%ADD12C,0.120000*%
%TD*%
G04 APERTURE END LIST*
D10*
X200000000Y-185500000D02*
X196000000Y-185500000D01*
X200000000Y-188500000D02*
X200000000Y-185500000D01*
X196000000Y-188500000D02*
X200000000Y-188500000D01*
X196000000Y-185500000D02*
X196000000Y-188500000D01*
X187510000Y-183990000D02*
X182500000Y-184000000D01*
X187500000Y-184000000D02*
X187510000Y-183990000D01*
X187510000Y-189010000D02*
X187500000Y-184000000D01*
X182500000Y-189000000D02*
X187510000Y-189010000D01*
X182500000Y-184000000D02*
X182500000Y-189000000D01*
D11*
X150000000Y-153000000D02*
G75*
G02*
X155000000Y-148000000I5000000J0D01*
G01*
X155000000Y-275000000D02*
G75*
G02*
X150000000Y-270000000I0J5000000D01*
G01*
X468000000Y-270000000D02*
G75*
G02*
X463000000Y-275000000I-5000000J0D01*
G01*
X463000000Y-148000000D02*
G75*
G02*
X468000000Y-153000000I0J-5000000D01*
G01*
X468000000Y-153000000D02*
X468000000Y-270000000D01*
X150000000Y-153000000D02*
X150000000Y-270000000D01*
X155000000Y-275000000D02*
X463000000Y-275000000D01*
X155000000Y-148000000D02*
X463000000Y-148000000D01*
D12*
%TO.C,D85*%
X5626000Y-213117040D02*
X5626000Y-208097040D01*
X10646000Y-213117040D02*
X5626000Y-213117040D01*
X10646000Y-213107040D02*
X10646000Y-213117040D01*
X10646000Y-208097040D02*
X10646000Y-213107040D01*
X5626000Y-208097040D02*
X10646000Y-208097040D01*
%TO.C,D84*%
X-14524000Y-233267040D02*
X-14524000Y-228247040D01*
X-9504000Y-233267040D02*
X-14524000Y-233267040D01*
X-9504000Y-233257040D02*
X-9504000Y-233267040D01*
X-9504000Y-228247040D02*
X-9504000Y-233257040D01*
X-14524000Y-228247040D02*
X-9504000Y-228247040D01*
%TO.C,D83*%
X-24174000Y-245117040D02*
X-24174000Y-240097040D01*
X-19154000Y-245117040D02*
X-24174000Y-245117040D01*
X-19154000Y-245107040D02*
X-19154000Y-245117040D01*
X-19154000Y-240097040D02*
X-19154000Y-245107040D01*
X-24174000Y-240097040D02*
X-19154000Y-240097040D01*
%TO.C,D82*%
X116026000Y-104067040D02*
X116026000Y-99047040D01*
X121046000Y-104067040D02*
X116026000Y-104067040D01*
X121046000Y-104057040D02*
X121046000Y-104067040D01*
X121046000Y-99047040D02*
X121046000Y-104057040D01*
X116026000Y-99047040D02*
X121046000Y-99047040D01*
%TO.C,D81*%
X-4024000Y-224967040D02*
X-4024000Y-219947040D01*
X996000Y-224967040D02*
X-4024000Y-224967040D01*
X996000Y-224957040D02*
X996000Y-224967040D01*
X996000Y-219947040D02*
X996000Y-224957040D01*
X-4024000Y-219947040D02*
X996000Y-219947040D01*
%TO.C,D80*%
X16126000Y-204817040D02*
X16126000Y-199797040D01*
X21146000Y-204817040D02*
X16126000Y-204817040D01*
X21146000Y-204807040D02*
X21146000Y-204817040D01*
X21146000Y-199797040D02*
X21146000Y-204807040D01*
X16126000Y-199797040D02*
X21146000Y-199797040D01*
%TO.C,D79*%
X36276000Y-184667040D02*
X36276000Y-179647040D01*
X41296000Y-184667040D02*
X36276000Y-184667040D01*
X41296000Y-184657040D02*
X41296000Y-184667040D01*
X41296000Y-179647040D02*
X41296000Y-184657040D01*
X36276000Y-179647040D02*
X41296000Y-179647040D01*
%TO.C,D78*%
X56426000Y-164517040D02*
X56426000Y-159497040D01*
X61446000Y-164517040D02*
X56426000Y-164517040D01*
X61446000Y-164507040D02*
X61446000Y-164517040D01*
X61446000Y-159497040D02*
X61446000Y-164507040D01*
X56426000Y-159497040D02*
X61446000Y-159497040D01*
%TO.C,D77*%
X-14524000Y-239887040D02*
X-14524000Y-234867040D01*
X-9504000Y-239887040D02*
X-14524000Y-239887040D01*
X-9504000Y-239877040D02*
X-9504000Y-239887040D01*
X-9504000Y-234867040D02*
X-9504000Y-239877040D01*
X-14524000Y-234867040D02*
X-9504000Y-234867040D01*
%TO.C,D76*%
X5626000Y-219737040D02*
X5626000Y-214717040D01*
X10646000Y-219737040D02*
X5626000Y-219737040D01*
X10646000Y-219727040D02*
X10646000Y-219737040D01*
X10646000Y-214717040D02*
X10646000Y-219727040D01*
X5626000Y-214717040D02*
X10646000Y-214717040D01*
%TO.C,D75*%
X107226000Y-129557040D02*
X107226000Y-124537040D01*
X112246000Y-129557040D02*
X107226000Y-129557040D01*
X112246000Y-129547040D02*
X112246000Y-129557040D01*
X112246000Y-124537040D02*
X112246000Y-129547040D01*
X107226000Y-124537040D02*
X112246000Y-124537040D01*
%TO.C,D74*%
X-6104000Y-238207040D02*
X-6104000Y-233187040D01*
X-1084000Y-238207040D02*
X-6104000Y-238207040D01*
X-1084000Y-238197040D02*
X-1084000Y-238207040D01*
X-1084000Y-233187040D02*
X-1084000Y-238197040D01*
X-6104000Y-233187040D02*
X-1084000Y-233187040D01*
%TO.C,D73*%
X25776000Y-192967040D02*
X25776000Y-187947040D01*
X30796000Y-192967040D02*
X25776000Y-192967040D01*
X30796000Y-192957040D02*
X30796000Y-192967040D01*
X30796000Y-187947040D02*
X30796000Y-192957040D01*
X25776000Y-187947040D02*
X30796000Y-187947040D01*
%TO.C,D72*%
X107226000Y-122937040D02*
X107226000Y-117917040D01*
X112246000Y-122937040D02*
X107226000Y-122937040D01*
X112246000Y-122927040D02*
X112246000Y-122937040D01*
X112246000Y-117917040D02*
X112246000Y-122927040D01*
X107226000Y-117917040D02*
X112246000Y-117917040D01*
%TO.C,D71*%
X96586000Y-133917040D02*
X96586000Y-128897040D01*
X101606000Y-133917040D02*
X96586000Y-133917040D01*
X101606000Y-133907040D02*
X101606000Y-133917040D01*
X101606000Y-128897040D02*
X101606000Y-133907040D01*
X96586000Y-128897040D02*
X101606000Y-128897040D01*
%TO.C,D70*%
X84996000Y-150247040D02*
X84996000Y-145227040D01*
X90016000Y-150247040D02*
X84996000Y-150247040D01*
X90016000Y-150237040D02*
X90016000Y-150247040D01*
X90016000Y-145227040D02*
X90016000Y-150237040D01*
X84996000Y-145227040D02*
X90016000Y-145227040D01*
%TO.C,D69*%
X54346000Y-177757040D02*
X54346000Y-172737040D01*
X59366000Y-177757040D02*
X54346000Y-177757040D01*
X59366000Y-177747040D02*
X59366000Y-177757040D01*
X59366000Y-172737040D02*
X59366000Y-177747040D01*
X54346000Y-172737040D02*
X59366000Y-172737040D01*
%TO.C,D68*%
X34196000Y-197907040D02*
X34196000Y-192887040D01*
X39216000Y-197907040D02*
X34196000Y-197907040D01*
X39216000Y-197897040D02*
X39216000Y-197907040D01*
X39216000Y-192887040D02*
X39216000Y-197897040D01*
X34196000Y-192887040D02*
X39216000Y-192887040D01*
%TO.C,D67*%
X14046000Y-218057040D02*
X14046000Y-213037040D01*
X19066000Y-218057040D02*
X14046000Y-218057040D01*
X19066000Y-218047040D02*
X19066000Y-218057040D01*
X19066000Y-213037040D02*
X19066000Y-218047040D01*
X14046000Y-213037040D02*
X19066000Y-213037040D01*
%TO.C,D66*%
X4396000Y-226357040D02*
X4396000Y-221337040D01*
X9416000Y-226357040D02*
X4396000Y-226357040D01*
X9416000Y-226347040D02*
X9416000Y-226357040D01*
X9416000Y-221337040D02*
X9416000Y-226347040D01*
X4396000Y-221337040D02*
X9416000Y-221337040D01*
%TO.C,D65*%
X24546000Y-206207040D02*
X24546000Y-201187040D01*
X29566000Y-206207040D02*
X24546000Y-206207040D01*
X29566000Y-206197040D02*
X29566000Y-206207040D01*
X29566000Y-201187040D02*
X29566000Y-206197040D01*
X24546000Y-201187040D02*
X29566000Y-201187040D01*
%TO.C,D64*%
X182490000Y-189010000D02*
X182490000Y-183990000D01*
X187510000Y-189010000D02*
X182490000Y-189010000D01*
X187510000Y-189000000D02*
X187510000Y-189010000D01*
X187510000Y-183990000D02*
X187510000Y-189000000D01*
X182490000Y-183990000D02*
X187510000Y-183990000D01*
%TO.C,D63*%
X64846000Y-165907040D02*
X64846000Y-160887040D01*
X69866000Y-165907040D02*
X64846000Y-165907040D01*
X69866000Y-165897040D02*
X69866000Y-165907040D01*
X69866000Y-160887040D02*
X69866000Y-165897040D01*
X64846000Y-160887040D02*
X69866000Y-160887040D01*
%TO.C,D62*%
X115646000Y-123927040D02*
X115646000Y-118907040D01*
X120666000Y-123927040D02*
X115646000Y-123927040D01*
X120666000Y-123917040D02*
X120666000Y-123927040D01*
X120666000Y-118907040D02*
X120666000Y-123917040D01*
X115646000Y-118907040D02*
X120666000Y-118907040D01*
%TO.C,D61*%
X74496000Y-156867040D02*
X74496000Y-151847040D01*
X79516000Y-156867040D02*
X74496000Y-156867040D01*
X79516000Y-156857040D02*
X79516000Y-156867040D01*
X79516000Y-151847040D02*
X79516000Y-156857040D01*
X74496000Y-151847040D02*
X79516000Y-151847040D01*
%TO.C,D60*%
X115646000Y-117307040D02*
X115646000Y-112287040D01*
X120666000Y-117307040D02*
X115646000Y-117307040D01*
X120666000Y-117297040D02*
X120666000Y-117307040D01*
X120666000Y-112287040D02*
X120666000Y-117297040D01*
X115646000Y-112287040D02*
X120666000Y-112287040D01*
%TO.C,D59*%
X96586000Y-140537040D02*
X96586000Y-135517040D01*
X101606000Y-140537040D02*
X96586000Y-140537040D01*
X101606000Y-140527040D02*
X101606000Y-140537040D01*
X101606000Y-135517040D02*
X101606000Y-140527040D01*
X96586000Y-135517040D02*
X101606000Y-135517040D01*
%TO.C,D58*%
X-7334000Y-246507040D02*
X-7334000Y-241487040D01*
X-2314000Y-246507040D02*
X-7334000Y-246507040D01*
X-2314000Y-246497040D02*
X-2314000Y-246507040D01*
X-2314000Y-241487040D02*
X-2314000Y-246497040D01*
X-7334000Y-241487040D02*
X-2314000Y-241487040D01*
%TO.C,D57*%
X54346000Y-184377040D02*
X54346000Y-179357040D01*
X59366000Y-184377040D02*
X54346000Y-184377040D01*
X59366000Y-184367040D02*
X59366000Y-184377040D01*
X59366000Y-179357040D02*
X59366000Y-184367040D01*
X54346000Y-179357040D02*
X59366000Y-179357040D01*
%TO.C,D56*%
X34196000Y-204527040D02*
X34196000Y-199507040D01*
X39216000Y-204527040D02*
X34196000Y-204527040D01*
X39216000Y-204517040D02*
X39216000Y-204527040D01*
X39216000Y-199507040D02*
X39216000Y-204517040D01*
X34196000Y-199507040D02*
X39216000Y-199507040D01*
%TO.C,D55*%
X14046000Y-224677040D02*
X14046000Y-219657040D01*
X19066000Y-224677040D02*
X14046000Y-224677040D01*
X19066000Y-224667040D02*
X19066000Y-224677040D01*
X19066000Y-219657040D02*
X19066000Y-224667040D01*
X14046000Y-219657040D02*
X19066000Y-219657040D01*
%TO.C,D54*%
X4396000Y-232977040D02*
X4396000Y-227957040D01*
X9416000Y-232977040D02*
X4396000Y-232977040D01*
X9416000Y-232967040D02*
X9416000Y-232977040D01*
X9416000Y-227957040D02*
X9416000Y-232967040D01*
X4396000Y-227957040D02*
X9416000Y-227957040D01*
%TO.C,D53*%
X24546000Y-212827040D02*
X24546000Y-207807040D01*
X29566000Y-212827040D02*
X24546000Y-212827040D01*
X29566000Y-212817040D02*
X29566000Y-212827040D01*
X29566000Y-207807040D02*
X29566000Y-212817040D01*
X24546000Y-207807040D02*
X29566000Y-207807040D01*
%TO.C,D52*%
X44696000Y-192677040D02*
X44696000Y-187657040D01*
X49716000Y-192677040D02*
X44696000Y-192677040D01*
X49716000Y-192667040D02*
X49716000Y-192677040D01*
X49716000Y-187657040D02*
X49716000Y-192667040D01*
X44696000Y-187657040D02*
X49716000Y-187657040D01*
%TO.C,D51*%
X64846000Y-172527040D02*
X64846000Y-167507040D01*
X69866000Y-172527040D02*
X64846000Y-172527040D01*
X69866000Y-172517040D02*
X69866000Y-172527040D01*
X69866000Y-167507040D02*
X69866000Y-172517040D01*
X64846000Y-167507040D02*
X69866000Y-167507040D01*
%TO.C,D50*%
X74496000Y-163487040D02*
X74496000Y-158467040D01*
X79516000Y-163487040D02*
X74496000Y-163487040D01*
X79516000Y-163477040D02*
X79516000Y-163487040D01*
X79516000Y-158467040D02*
X79516000Y-163477040D01*
X74496000Y-158467040D02*
X79516000Y-158467040D01*
%TO.C,D49*%
X82916000Y-156867040D02*
X82916000Y-151847040D01*
X87936000Y-156867040D02*
X82916000Y-156867040D01*
X87936000Y-156857040D02*
X87936000Y-156867040D01*
X87936000Y-151847040D02*
X87936000Y-156857040D01*
X82916000Y-151847040D02*
X87936000Y-151847040D01*
%TO.C,D48*%
X-15754000Y-246507040D02*
X-15754000Y-241487040D01*
X-10734000Y-246507040D02*
X-15754000Y-246507040D01*
X-10734000Y-246497040D02*
X-10734000Y-246507040D01*
X-10734000Y-241487040D02*
X-10734000Y-246497040D01*
X-15754000Y-241487040D02*
X-10734000Y-241487040D01*
%TO.C,D47*%
X61536000Y-192387040D02*
X61536000Y-187367040D01*
X66556000Y-192387040D02*
X61536000Y-192387040D01*
X66556000Y-192377040D02*
X66556000Y-192387040D01*
X66556000Y-187367040D02*
X66556000Y-192377040D01*
X61536000Y-187367040D02*
X66556000Y-187367040D01*
%TO.C,D46*%
X41386000Y-212537040D02*
X41386000Y-207517040D01*
X46406000Y-212537040D02*
X41386000Y-212537040D01*
X46406000Y-212527040D02*
X46406000Y-212537040D01*
X46406000Y-207517040D02*
X46406000Y-212527040D01*
X41386000Y-207517040D02*
X46406000Y-207517040D01*
%TO.C,D45*%
X21236000Y-232687040D02*
X21236000Y-227667040D01*
X26256000Y-232687040D02*
X21236000Y-232687040D01*
X26256000Y-232677040D02*
X26256000Y-232687040D01*
X26256000Y-227667040D02*
X26256000Y-232677040D01*
X21236000Y-227667040D02*
X26256000Y-227667040D01*
%TO.C,D44*%
X51036000Y-204237040D02*
X51036000Y-199217040D01*
X56056000Y-204237040D02*
X51036000Y-204237040D01*
X56056000Y-204227040D02*
X56056000Y-204237040D01*
X56056000Y-199217040D02*
X56056000Y-204227040D01*
X51036000Y-199217040D02*
X56056000Y-199217040D01*
%TO.C,D43*%
X71186000Y-183347040D02*
X71186000Y-178327040D01*
X76206000Y-183347040D02*
X71186000Y-183347040D01*
X76206000Y-183337040D02*
X76206000Y-183347040D01*
X76206000Y-178327040D02*
X76206000Y-183337040D01*
X71186000Y-178327040D02*
X76206000Y-178327040D01*
%TO.C,D42*%
X30886000Y-224387040D02*
X30886000Y-219367040D01*
X35906000Y-224387040D02*
X30886000Y-224387040D01*
X35906000Y-224377040D02*
X35906000Y-224387040D01*
X35906000Y-219367040D02*
X35906000Y-224377040D01*
X30886000Y-219367040D02*
X35906000Y-219367040D01*
%TO.C,D41*%
X53116000Y-197617040D02*
X53116000Y-192597040D01*
X58136000Y-197617040D02*
X53116000Y-197617040D01*
X58136000Y-197607040D02*
X58136000Y-197617040D01*
X58136000Y-192597040D02*
X58136000Y-197607040D01*
X53116000Y-192597040D02*
X58136000Y-192597040D01*
%TO.C,D40*%
X101836000Y-149417040D02*
X101836000Y-144397040D01*
X106856000Y-149417040D02*
X101836000Y-149417040D01*
X106856000Y-149407040D02*
X106856000Y-149417040D01*
X106856000Y-144397040D02*
X106856000Y-149407040D01*
X101836000Y-144397040D02*
X106856000Y-144397040D01*
%TO.C,D39*%
X105006000Y-136177040D02*
X105006000Y-131157040D01*
X110026000Y-136177040D02*
X105006000Y-136177040D01*
X110026000Y-136167040D02*
X110026000Y-136177040D01*
X110026000Y-131157040D02*
X110026000Y-136167040D01*
X105006000Y-131157040D02*
X110026000Y-131157040D01*
%TO.C,D38*%
X73266000Y-170107040D02*
X73266000Y-165087040D01*
X78286000Y-170107040D02*
X73266000Y-170107040D01*
X78286000Y-170097040D02*
X78286000Y-170107040D01*
X78286000Y-165087040D02*
X78286000Y-170097040D01*
X73266000Y-165087040D02*
X78286000Y-165087040D01*
%TO.C,D37*%
X1086000Y-246217040D02*
X1086000Y-241197040D01*
X6106000Y-246217040D02*
X1086000Y-246217040D01*
X6106000Y-246207040D02*
X6106000Y-246217040D01*
X6106000Y-241197040D02*
X6106000Y-246207040D01*
X1086000Y-241197040D02*
X6106000Y-241197040D01*
%TO.C,D36*%
X62766000Y-179147040D02*
X62766000Y-174127040D01*
X67786000Y-179147040D02*
X62766000Y-179147040D01*
X67786000Y-179137040D02*
X67786000Y-179147040D01*
X67786000Y-174127040D02*
X67786000Y-179137040D01*
X62766000Y-174127040D02*
X67786000Y-174127040D01*
%TO.C,D35*%
X42616000Y-199297040D02*
X42616000Y-194277040D01*
X47636000Y-199297040D02*
X42616000Y-199297040D01*
X47636000Y-199287040D02*
X47636000Y-199297040D01*
X47636000Y-194277040D02*
X47636000Y-199287040D01*
X42616000Y-194277040D02*
X47636000Y-194277040D01*
%TO.C,D34*%
X32966000Y-211147040D02*
X32966000Y-206127040D01*
X37986000Y-211147040D02*
X32966000Y-211147040D01*
X37986000Y-211137040D02*
X37986000Y-211147040D01*
X37986000Y-206127040D02*
X37986000Y-211137040D01*
X32966000Y-206127040D02*
X37986000Y-206127040D01*
%TO.C,D33*%
X2316000Y-239597040D02*
X2316000Y-234577040D01*
X7336000Y-239597040D02*
X2316000Y-239597040D01*
X7336000Y-239587040D02*
X7336000Y-239597040D01*
X7336000Y-234577040D02*
X7336000Y-239587040D01*
X2316000Y-234577040D02*
X7336000Y-234577040D01*
%TO.C,D32*%
X12816000Y-231297040D02*
X12816000Y-226277040D01*
X17836000Y-231297040D02*
X12816000Y-231297040D01*
X17836000Y-231287040D02*
X17836000Y-231297040D01*
X17836000Y-226277040D02*
X17836000Y-231287040D01*
X12816000Y-226277040D02*
X17836000Y-226277040D01*
%TO.C,D31*%
X42616000Y-205917040D02*
X42616000Y-200897040D01*
X47636000Y-205917040D02*
X42616000Y-205917040D01*
X47636000Y-205907040D02*
X47636000Y-205917040D01*
X47636000Y-200897040D02*
X47636000Y-205907040D01*
X42616000Y-200897040D02*
X47636000Y-200897040D01*
%TO.C,D30*%
X62766000Y-185767040D02*
X62766000Y-180747040D01*
X67786000Y-185767040D02*
X62766000Y-185767040D01*
X67786000Y-185757040D02*
X67786000Y-185767040D01*
X67786000Y-180747040D02*
X67786000Y-185757040D01*
X62766000Y-180747040D02*
X67786000Y-180747040D01*
%TO.C,D29*%
X73266000Y-176727040D02*
X73266000Y-171707040D01*
X78286000Y-176727040D02*
X73266000Y-176727040D01*
X78286000Y-176717040D02*
X78286000Y-176727040D01*
X78286000Y-171707040D02*
X78286000Y-176717040D01*
X73266000Y-171707040D02*
X78286000Y-171707040D01*
%TO.C,D28*%
X81686000Y-170107040D02*
X81686000Y-165087040D01*
X86706000Y-170107040D02*
X81686000Y-170107040D01*
X86706000Y-170097040D02*
X86706000Y-170107040D01*
X86706000Y-165087040D02*
X86706000Y-170097040D01*
X81686000Y-165087040D02*
X86706000Y-165087040D01*
%TO.C,D27*%
X22466000Y-226067040D02*
X22466000Y-221047040D01*
X27486000Y-226067040D02*
X22466000Y-226067040D01*
X27486000Y-226057040D02*
X27486000Y-226067040D01*
X27486000Y-221047040D02*
X27486000Y-226057040D01*
X22466000Y-221047040D02*
X27486000Y-221047040D01*
%TO.C,D26*%
X105006000Y-142797040D02*
X105006000Y-137777040D01*
X110026000Y-142797040D02*
X105006000Y-142797040D01*
X110026000Y-142787040D02*
X110026000Y-142797040D01*
X110026000Y-137777040D02*
X110026000Y-142787040D01*
X105006000Y-137777040D02*
X110026000Y-137777040D01*
%TO.C,D25*%
X82916000Y-163487040D02*
X82916000Y-158467040D01*
X87936000Y-163487040D02*
X82916000Y-163487040D01*
X87936000Y-163477040D02*
X87936000Y-163487040D01*
X87936000Y-158467040D02*
X87936000Y-163477040D01*
X82916000Y-158467040D02*
X87936000Y-158467040D01*
%TO.C,D24*%
X115646000Y-130547040D02*
X115646000Y-125527040D01*
X120666000Y-130547040D02*
X115646000Y-130547040D01*
X120666000Y-130537040D02*
X120666000Y-130547040D01*
X120666000Y-125527040D02*
X120666000Y-130537040D01*
X115646000Y-125527040D02*
X120666000Y-125527040D01*
%TO.C,D23*%
X93416000Y-153777040D02*
X93416000Y-148757040D01*
X98436000Y-153777040D02*
X93416000Y-153777040D01*
X98436000Y-153767040D02*
X98436000Y-153777040D01*
X98436000Y-148757040D02*
X98436000Y-153767040D01*
X93416000Y-148757040D02*
X98436000Y-148757040D01*
%TO.C,D22*%
X93416000Y-147157040D02*
X93416000Y-142137040D01*
X98436000Y-147157040D02*
X93416000Y-147157040D01*
X98436000Y-147147040D02*
X98436000Y-147157040D01*
X98436000Y-142137040D02*
X98436000Y-147147040D01*
X93416000Y-142137040D02*
X98436000Y-142137040D01*
%TO.C,D21*%
X53116000Y-190997040D02*
X53116000Y-185977040D01*
X58136000Y-190997040D02*
X53116000Y-190997040D01*
X58136000Y-190987040D02*
X58136000Y-190997040D01*
X58136000Y-185977040D02*
X58136000Y-190987040D01*
X53116000Y-185977040D02*
X58136000Y-185977040D01*
%TO.C,D20*%
X22466000Y-219447040D02*
X22466000Y-214427040D01*
X27486000Y-219447040D02*
X22466000Y-219447040D01*
X27486000Y-219437040D02*
X27486000Y-219447040D01*
X27486000Y-214427040D02*
X27486000Y-219437040D01*
X22466000Y-214427040D02*
X27486000Y-214427040D01*
%TO.C,D19*%
X25776000Y-199587040D02*
X25776000Y-194567040D01*
X30796000Y-199587040D02*
X25776000Y-199587040D01*
X30796000Y-199577040D02*
X30796000Y-199587040D01*
X30796000Y-194567040D02*
X30796000Y-199577040D01*
X25776000Y-194567040D02*
X30796000Y-194567040D01*
%TO.C,D18*%
X45926000Y-179437040D02*
X45926000Y-174417040D01*
X50946000Y-179437040D02*
X45926000Y-179437040D01*
X50946000Y-179427040D02*
X50946000Y-179437040D01*
X50946000Y-174417040D02*
X50946000Y-179427040D01*
X45926000Y-174417040D02*
X50946000Y-174417040D01*
%TO.C,D17*%
X66076000Y-159287040D02*
X66076000Y-154267040D01*
X71096000Y-159287040D02*
X66076000Y-159287040D01*
X71096000Y-159277040D02*
X71096000Y-159287040D01*
X71096000Y-154267040D02*
X71096000Y-159277040D01*
X66076000Y-154267040D02*
X71096000Y-154267040D01*
%TO.C,D16*%
X76576000Y-150247040D02*
X76576000Y-145227040D01*
X81596000Y-150247040D02*
X76576000Y-150247040D01*
X81596000Y-150237040D02*
X81596000Y-150247040D01*
X81596000Y-145227040D02*
X81596000Y-150237040D01*
X76576000Y-145227040D02*
X81596000Y-145227040D01*
%TO.C,D15*%
X116026000Y-110687040D02*
X116026000Y-105667040D01*
X121046000Y-110687040D02*
X116026000Y-110687040D01*
X121046000Y-110677040D02*
X121046000Y-110687040D01*
X121046000Y-105667040D02*
X121046000Y-110677040D01*
X116026000Y-105667040D02*
X121046000Y-105667040D01*
%TO.C,D14*%
X88166000Y-140267040D02*
X88166000Y-135247040D01*
X93186000Y-140267040D02*
X88166000Y-140267040D01*
X93186000Y-140257040D02*
X93186000Y-140267040D01*
X93186000Y-135247040D02*
X93186000Y-140257040D01*
X88166000Y-135247040D02*
X93186000Y-135247040D01*
%TO.C,D13*%
X56426000Y-171137040D02*
X56426000Y-166117040D01*
X61446000Y-171137040D02*
X56426000Y-171137040D01*
X61446000Y-171127040D02*
X61446000Y-171137040D01*
X61446000Y-166117040D02*
X61446000Y-171127040D01*
X56426000Y-166117040D02*
X61446000Y-166117040D01*
%TO.C,D12*%
X36276000Y-191287040D02*
X36276000Y-186267040D01*
X41296000Y-191287040D02*
X36276000Y-191287040D01*
X41296000Y-191277040D02*
X41296000Y-191287040D01*
X41296000Y-186267040D02*
X41296000Y-191277040D01*
X36276000Y-186267040D02*
X41296000Y-186267040D01*
%TO.C,D11*%
X16126000Y-211437040D02*
X16126000Y-206417040D01*
X21146000Y-211437040D02*
X16126000Y-211437040D01*
X21146000Y-211427040D02*
X21146000Y-211437040D01*
X21146000Y-206417040D02*
X21146000Y-211427040D01*
X16126000Y-206417040D02*
X21146000Y-206417040D01*
%TO.C,D10*%
X-4024000Y-231587040D02*
X-4024000Y-226567040D01*
X996000Y-231587040D02*
X-4024000Y-231587040D01*
X996000Y-231577040D02*
X996000Y-231587040D01*
X996000Y-226567040D02*
X996000Y-231577040D01*
X-4024000Y-226567040D02*
X996000Y-226567040D01*
%TO.C,D9*%
X-24174000Y-251737040D02*
X-24174000Y-246717040D01*
X-19154000Y-251737040D02*
X-24174000Y-251737040D01*
X-19154000Y-251727040D02*
X-19154000Y-251737040D01*
X-19154000Y-246717040D02*
X-19154000Y-251727040D01*
X-24174000Y-246717040D02*
X-19154000Y-246717040D01*
%TO.C,D8*%
X107226000Y-116317040D02*
X107226000Y-111297040D01*
X112246000Y-116317040D02*
X107226000Y-116317040D01*
X112246000Y-116307040D02*
X112246000Y-116317040D01*
X112246000Y-111297040D02*
X112246000Y-116307040D01*
X107226000Y-111297040D02*
X112246000Y-111297040D01*
%TO.C,D7*%
X9506000Y-246217040D02*
X9506000Y-241197040D01*
X14526000Y-246217040D02*
X9506000Y-246217040D01*
X14526000Y-246207040D02*
X14526000Y-246217040D01*
X14526000Y-241197040D02*
X14526000Y-246207040D01*
X9506000Y-241197040D02*
X14526000Y-241197040D01*
%TO.C,D6*%
X45926000Y-172817040D02*
X45926000Y-167797040D01*
X50946000Y-172817040D02*
X45926000Y-172817040D01*
X50946000Y-172807040D02*
X50946000Y-172817040D01*
X50946000Y-167797040D02*
X50946000Y-172807040D01*
X45926000Y-167797040D02*
X50946000Y-167797040D01*
%TO.C,D5*%
X66076000Y-152667040D02*
X66076000Y-147647040D01*
X71096000Y-152667040D02*
X66076000Y-152667040D01*
X71096000Y-152657040D02*
X71096000Y-152667040D01*
X71096000Y-147647040D02*
X71096000Y-152657040D01*
X66076000Y-147647040D02*
X71096000Y-147647040D01*
%TO.C,D4*%
X91336000Y-160397040D02*
X91336000Y-155377040D01*
X96356000Y-160397040D02*
X91336000Y-160397040D01*
X96356000Y-160387040D02*
X96356000Y-160397040D01*
X96356000Y-155377040D02*
X96356000Y-160387040D01*
X91336000Y-155377040D02*
X96356000Y-155377040D01*
%TO.C,D3*%
X32966000Y-217767040D02*
X32966000Y-212747040D01*
X37986000Y-217767040D02*
X32966000Y-217767040D01*
X37986000Y-217757040D02*
X37986000Y-217767040D01*
X37986000Y-212747040D02*
X37986000Y-217757040D01*
X32966000Y-212747040D02*
X37986000Y-212747040D01*
%TO.C,D2*%
X12816000Y-237917040D02*
X12816000Y-232897040D01*
X17836000Y-237917040D02*
X12816000Y-237917040D01*
X17836000Y-237907040D02*
X17836000Y-237917040D01*
X17836000Y-232897040D02*
X17836000Y-237907040D01*
X12816000Y-232897040D02*
X17836000Y-232897040D01*
%TO.C,D1*%
X113426000Y-137167040D02*
X113426000Y-132147040D01*
X118446000Y-137167040D02*
X113426000Y-137167040D01*
X118446000Y-137157040D02*
X118446000Y-137167040D01*
X118446000Y-132147040D02*
X118446000Y-137157040D01*
X113426000Y-132147040D02*
X118446000Y-132147040D01*
%TD*%
M02*
