%TF.GenerationSoftware,KiCad,Pcbnew,(5.1.6)-1*%
%TF.CreationDate,2022-08-21T13:28:18+08:00*%
%TF.ProjectId,feng,66656e67-2e6b-4696-9361-645f70636258,rev?*%
%TF.SameCoordinates,Original*%
%TF.FileFunction,Soldermask,Top*%
%TF.FilePolarity,Negative*%
%FSLAX46Y46*%
G04 Gerber Fmt 4.6, Leading zero omitted, Abs format (unit mm)*
G04 Created by KiCad (PCBNEW (5.1.6)-1) date 2022-08-21 13:28:18*
%MOMM*%
%LPD*%
G01*
G04 APERTURE LIST*
%ADD10C,1.600000*%
%ADD11C,6.100000*%
%ADD12R,2.100000X2.100000*%
%ADD13C,2.100000*%
%ADD14C,2.900000*%
%ADD15C,1.850000*%
%ADD16C,4.100000*%
%ADD17C,3.150000*%
%ADD18R,0.900000X0.600000*%
%ADD19R,0.900000X0.500000*%
%ADD20R,1.000760X1.402080*%
%ADD21R,0.700000X1.260000*%
%ADD22C,0.700000*%
%ADD23R,0.400000X1.260000*%
%ADD24O,1.000000X1.800000*%
%ADD25O,1.000000X2.100000*%
%ADD26O,1.800000X1.800000*%
%ADD27R,1.800000X1.800000*%
G04 APERTURE END LIST*
D10*
%TO.C,Y1*%
X104031000Y-89722040D03*
X99151000Y-89722040D03*
%TD*%
%TO.C,U12*%
G36*
G01*
X96901000Y-118947040D02*
X96901000Y-117572040D01*
G75*
G02*
X97001000Y-117472040I100000J0D01*
G01*
X97201000Y-117472040D01*
G75*
G02*
X97301000Y-117572040I0J-100000D01*
G01*
X97301000Y-118947040D01*
G75*
G02*
X97201000Y-119047040I-100000J0D01*
G01*
X97001000Y-119047040D01*
G75*
G02*
X96901000Y-118947040I0J100000D01*
G01*
G37*
G36*
G01*
X97401000Y-118947040D02*
X97401000Y-117572040D01*
G75*
G02*
X97501000Y-117472040I100000J0D01*
G01*
X97701000Y-117472040D01*
G75*
G02*
X97801000Y-117572040I0J-100000D01*
G01*
X97801000Y-118947040D01*
G75*
G02*
X97701000Y-119047040I-100000J0D01*
G01*
X97501000Y-119047040D01*
G75*
G02*
X97401000Y-118947040I0J100000D01*
G01*
G37*
G36*
G01*
X97901000Y-118947040D02*
X97901000Y-117572040D01*
G75*
G02*
X98001000Y-117472040I100000J0D01*
G01*
X98201000Y-117472040D01*
G75*
G02*
X98301000Y-117572040I0J-100000D01*
G01*
X98301000Y-118947040D01*
G75*
G02*
X98201000Y-119047040I-100000J0D01*
G01*
X98001000Y-119047040D01*
G75*
G02*
X97901000Y-118947040I0J100000D01*
G01*
G37*
G36*
G01*
X98401000Y-118947040D02*
X98401000Y-117572040D01*
G75*
G02*
X98501000Y-117472040I100000J0D01*
G01*
X98701000Y-117472040D01*
G75*
G02*
X98801000Y-117572040I0J-100000D01*
G01*
X98801000Y-118947040D01*
G75*
G02*
X98701000Y-119047040I-100000J0D01*
G01*
X98501000Y-119047040D01*
G75*
G02*
X98401000Y-118947040I0J100000D01*
G01*
G37*
G36*
G01*
X98901000Y-118947040D02*
X98901000Y-117572040D01*
G75*
G02*
X99001000Y-117472040I100000J0D01*
G01*
X99201000Y-117472040D01*
G75*
G02*
X99301000Y-117572040I0J-100000D01*
G01*
X99301000Y-118947040D01*
G75*
G02*
X99201000Y-119047040I-100000J0D01*
G01*
X99001000Y-119047040D01*
G75*
G02*
X98901000Y-118947040I0J100000D01*
G01*
G37*
G36*
G01*
X99401000Y-118947040D02*
X99401000Y-117572040D01*
G75*
G02*
X99501000Y-117472040I100000J0D01*
G01*
X99701000Y-117472040D01*
G75*
G02*
X99801000Y-117572040I0J-100000D01*
G01*
X99801000Y-118947040D01*
G75*
G02*
X99701000Y-119047040I-100000J0D01*
G01*
X99501000Y-119047040D01*
G75*
G02*
X99401000Y-118947040I0J100000D01*
G01*
G37*
G36*
G01*
X99901000Y-118947040D02*
X99901000Y-117572040D01*
G75*
G02*
X100001000Y-117472040I100000J0D01*
G01*
X100201000Y-117472040D01*
G75*
G02*
X100301000Y-117572040I0J-100000D01*
G01*
X100301000Y-118947040D01*
G75*
G02*
X100201000Y-119047040I-100000J0D01*
G01*
X100001000Y-119047040D01*
G75*
G02*
X99901000Y-118947040I0J100000D01*
G01*
G37*
G36*
G01*
X100401000Y-118947040D02*
X100401000Y-117572040D01*
G75*
G02*
X100501000Y-117472040I100000J0D01*
G01*
X100701000Y-117472040D01*
G75*
G02*
X100801000Y-117572040I0J-100000D01*
G01*
X100801000Y-118947040D01*
G75*
G02*
X100701000Y-119047040I-100000J0D01*
G01*
X100501000Y-119047040D01*
G75*
G02*
X100401000Y-118947040I0J100000D01*
G01*
G37*
G36*
G01*
X100901000Y-118947040D02*
X100901000Y-117572040D01*
G75*
G02*
X101001000Y-117472040I100000J0D01*
G01*
X101201000Y-117472040D01*
G75*
G02*
X101301000Y-117572040I0J-100000D01*
G01*
X101301000Y-118947040D01*
G75*
G02*
X101201000Y-119047040I-100000J0D01*
G01*
X101001000Y-119047040D01*
G75*
G02*
X100901000Y-118947040I0J100000D01*
G01*
G37*
G36*
G01*
X101401000Y-118947040D02*
X101401000Y-117572040D01*
G75*
G02*
X101501000Y-117472040I100000J0D01*
G01*
X101701000Y-117472040D01*
G75*
G02*
X101801000Y-117572040I0J-100000D01*
G01*
X101801000Y-118947040D01*
G75*
G02*
X101701000Y-119047040I-100000J0D01*
G01*
X101501000Y-119047040D01*
G75*
G02*
X101401000Y-118947040I0J100000D01*
G01*
G37*
G36*
G01*
X101901000Y-118947040D02*
X101901000Y-117572040D01*
G75*
G02*
X102001000Y-117472040I100000J0D01*
G01*
X102201000Y-117472040D01*
G75*
G02*
X102301000Y-117572040I0J-100000D01*
G01*
X102301000Y-118947040D01*
G75*
G02*
X102201000Y-119047040I-100000J0D01*
G01*
X102001000Y-119047040D01*
G75*
G02*
X101901000Y-118947040I0J100000D01*
G01*
G37*
G36*
G01*
X102401000Y-118947040D02*
X102401000Y-117572040D01*
G75*
G02*
X102501000Y-117472040I100000J0D01*
G01*
X102701000Y-117472040D01*
G75*
G02*
X102801000Y-117572040I0J-100000D01*
G01*
X102801000Y-118947040D01*
G75*
G02*
X102701000Y-119047040I-100000J0D01*
G01*
X102501000Y-119047040D01*
G75*
G02*
X102401000Y-118947040I0J100000D01*
G01*
G37*
G36*
G01*
X103226000Y-119772040D02*
X103226000Y-119572040D01*
G75*
G02*
X103326000Y-119472040I100000J0D01*
G01*
X104701000Y-119472040D01*
G75*
G02*
X104801000Y-119572040I0J-100000D01*
G01*
X104801000Y-119772040D01*
G75*
G02*
X104701000Y-119872040I-100000J0D01*
G01*
X103326000Y-119872040D01*
G75*
G02*
X103226000Y-119772040I0J100000D01*
G01*
G37*
G36*
G01*
X103226000Y-120272040D02*
X103226000Y-120072040D01*
G75*
G02*
X103326000Y-119972040I100000J0D01*
G01*
X104701000Y-119972040D01*
G75*
G02*
X104801000Y-120072040I0J-100000D01*
G01*
X104801000Y-120272040D01*
G75*
G02*
X104701000Y-120372040I-100000J0D01*
G01*
X103326000Y-120372040D01*
G75*
G02*
X103226000Y-120272040I0J100000D01*
G01*
G37*
G36*
G01*
X103226000Y-120772040D02*
X103226000Y-120572040D01*
G75*
G02*
X103326000Y-120472040I100000J0D01*
G01*
X104701000Y-120472040D01*
G75*
G02*
X104801000Y-120572040I0J-100000D01*
G01*
X104801000Y-120772040D01*
G75*
G02*
X104701000Y-120872040I-100000J0D01*
G01*
X103326000Y-120872040D01*
G75*
G02*
X103226000Y-120772040I0J100000D01*
G01*
G37*
G36*
G01*
X103226000Y-121272040D02*
X103226000Y-121072040D01*
G75*
G02*
X103326000Y-120972040I100000J0D01*
G01*
X104701000Y-120972040D01*
G75*
G02*
X104801000Y-121072040I0J-100000D01*
G01*
X104801000Y-121272040D01*
G75*
G02*
X104701000Y-121372040I-100000J0D01*
G01*
X103326000Y-121372040D01*
G75*
G02*
X103226000Y-121272040I0J100000D01*
G01*
G37*
G36*
G01*
X103226000Y-121772040D02*
X103226000Y-121572040D01*
G75*
G02*
X103326000Y-121472040I100000J0D01*
G01*
X104701000Y-121472040D01*
G75*
G02*
X104801000Y-121572040I0J-100000D01*
G01*
X104801000Y-121772040D01*
G75*
G02*
X104701000Y-121872040I-100000J0D01*
G01*
X103326000Y-121872040D01*
G75*
G02*
X103226000Y-121772040I0J100000D01*
G01*
G37*
G36*
G01*
X103226000Y-122272040D02*
X103226000Y-122072040D01*
G75*
G02*
X103326000Y-121972040I100000J0D01*
G01*
X104701000Y-121972040D01*
G75*
G02*
X104801000Y-122072040I0J-100000D01*
G01*
X104801000Y-122272040D01*
G75*
G02*
X104701000Y-122372040I-100000J0D01*
G01*
X103326000Y-122372040D01*
G75*
G02*
X103226000Y-122272040I0J100000D01*
G01*
G37*
G36*
G01*
X103226000Y-122772040D02*
X103226000Y-122572040D01*
G75*
G02*
X103326000Y-122472040I100000J0D01*
G01*
X104701000Y-122472040D01*
G75*
G02*
X104801000Y-122572040I0J-100000D01*
G01*
X104801000Y-122772040D01*
G75*
G02*
X104701000Y-122872040I-100000J0D01*
G01*
X103326000Y-122872040D01*
G75*
G02*
X103226000Y-122772040I0J100000D01*
G01*
G37*
G36*
G01*
X103226000Y-123272040D02*
X103226000Y-123072040D01*
G75*
G02*
X103326000Y-122972040I100000J0D01*
G01*
X104701000Y-122972040D01*
G75*
G02*
X104801000Y-123072040I0J-100000D01*
G01*
X104801000Y-123272040D01*
G75*
G02*
X104701000Y-123372040I-100000J0D01*
G01*
X103326000Y-123372040D01*
G75*
G02*
X103226000Y-123272040I0J100000D01*
G01*
G37*
G36*
G01*
X103226000Y-123772040D02*
X103226000Y-123572040D01*
G75*
G02*
X103326000Y-123472040I100000J0D01*
G01*
X104701000Y-123472040D01*
G75*
G02*
X104801000Y-123572040I0J-100000D01*
G01*
X104801000Y-123772040D01*
G75*
G02*
X104701000Y-123872040I-100000J0D01*
G01*
X103326000Y-123872040D01*
G75*
G02*
X103226000Y-123772040I0J100000D01*
G01*
G37*
G36*
G01*
X103226000Y-124272040D02*
X103226000Y-124072040D01*
G75*
G02*
X103326000Y-123972040I100000J0D01*
G01*
X104701000Y-123972040D01*
G75*
G02*
X104801000Y-124072040I0J-100000D01*
G01*
X104801000Y-124272040D01*
G75*
G02*
X104701000Y-124372040I-100000J0D01*
G01*
X103326000Y-124372040D01*
G75*
G02*
X103226000Y-124272040I0J100000D01*
G01*
G37*
G36*
G01*
X103226000Y-124772040D02*
X103226000Y-124572040D01*
G75*
G02*
X103326000Y-124472040I100000J0D01*
G01*
X104701000Y-124472040D01*
G75*
G02*
X104801000Y-124572040I0J-100000D01*
G01*
X104801000Y-124772040D01*
G75*
G02*
X104701000Y-124872040I-100000J0D01*
G01*
X103326000Y-124872040D01*
G75*
G02*
X103226000Y-124772040I0J100000D01*
G01*
G37*
G36*
G01*
X103226000Y-125272040D02*
X103226000Y-125072040D01*
G75*
G02*
X103326000Y-124972040I100000J0D01*
G01*
X104701000Y-124972040D01*
G75*
G02*
X104801000Y-125072040I0J-100000D01*
G01*
X104801000Y-125272040D01*
G75*
G02*
X104701000Y-125372040I-100000J0D01*
G01*
X103326000Y-125372040D01*
G75*
G02*
X103226000Y-125272040I0J100000D01*
G01*
G37*
G36*
G01*
X102401000Y-127272040D02*
X102401000Y-125897040D01*
G75*
G02*
X102501000Y-125797040I100000J0D01*
G01*
X102701000Y-125797040D01*
G75*
G02*
X102801000Y-125897040I0J-100000D01*
G01*
X102801000Y-127272040D01*
G75*
G02*
X102701000Y-127372040I-100000J0D01*
G01*
X102501000Y-127372040D01*
G75*
G02*
X102401000Y-127272040I0J100000D01*
G01*
G37*
G36*
G01*
X101901000Y-127272040D02*
X101901000Y-125897040D01*
G75*
G02*
X102001000Y-125797040I100000J0D01*
G01*
X102201000Y-125797040D01*
G75*
G02*
X102301000Y-125897040I0J-100000D01*
G01*
X102301000Y-127272040D01*
G75*
G02*
X102201000Y-127372040I-100000J0D01*
G01*
X102001000Y-127372040D01*
G75*
G02*
X101901000Y-127272040I0J100000D01*
G01*
G37*
G36*
G01*
X101401000Y-127272040D02*
X101401000Y-125897040D01*
G75*
G02*
X101501000Y-125797040I100000J0D01*
G01*
X101701000Y-125797040D01*
G75*
G02*
X101801000Y-125897040I0J-100000D01*
G01*
X101801000Y-127272040D01*
G75*
G02*
X101701000Y-127372040I-100000J0D01*
G01*
X101501000Y-127372040D01*
G75*
G02*
X101401000Y-127272040I0J100000D01*
G01*
G37*
G36*
G01*
X100901000Y-127272040D02*
X100901000Y-125897040D01*
G75*
G02*
X101001000Y-125797040I100000J0D01*
G01*
X101201000Y-125797040D01*
G75*
G02*
X101301000Y-125897040I0J-100000D01*
G01*
X101301000Y-127272040D01*
G75*
G02*
X101201000Y-127372040I-100000J0D01*
G01*
X101001000Y-127372040D01*
G75*
G02*
X100901000Y-127272040I0J100000D01*
G01*
G37*
G36*
G01*
X100401000Y-127272040D02*
X100401000Y-125897040D01*
G75*
G02*
X100501000Y-125797040I100000J0D01*
G01*
X100701000Y-125797040D01*
G75*
G02*
X100801000Y-125897040I0J-100000D01*
G01*
X100801000Y-127272040D01*
G75*
G02*
X100701000Y-127372040I-100000J0D01*
G01*
X100501000Y-127372040D01*
G75*
G02*
X100401000Y-127272040I0J100000D01*
G01*
G37*
G36*
G01*
X99901000Y-127272040D02*
X99901000Y-125897040D01*
G75*
G02*
X100001000Y-125797040I100000J0D01*
G01*
X100201000Y-125797040D01*
G75*
G02*
X100301000Y-125897040I0J-100000D01*
G01*
X100301000Y-127272040D01*
G75*
G02*
X100201000Y-127372040I-100000J0D01*
G01*
X100001000Y-127372040D01*
G75*
G02*
X99901000Y-127272040I0J100000D01*
G01*
G37*
G36*
G01*
X99401000Y-127272040D02*
X99401000Y-125897040D01*
G75*
G02*
X99501000Y-125797040I100000J0D01*
G01*
X99701000Y-125797040D01*
G75*
G02*
X99801000Y-125897040I0J-100000D01*
G01*
X99801000Y-127272040D01*
G75*
G02*
X99701000Y-127372040I-100000J0D01*
G01*
X99501000Y-127372040D01*
G75*
G02*
X99401000Y-127272040I0J100000D01*
G01*
G37*
G36*
G01*
X98901000Y-127272040D02*
X98901000Y-125897040D01*
G75*
G02*
X99001000Y-125797040I100000J0D01*
G01*
X99201000Y-125797040D01*
G75*
G02*
X99301000Y-125897040I0J-100000D01*
G01*
X99301000Y-127272040D01*
G75*
G02*
X99201000Y-127372040I-100000J0D01*
G01*
X99001000Y-127372040D01*
G75*
G02*
X98901000Y-127272040I0J100000D01*
G01*
G37*
G36*
G01*
X98401000Y-127272040D02*
X98401000Y-125897040D01*
G75*
G02*
X98501000Y-125797040I100000J0D01*
G01*
X98701000Y-125797040D01*
G75*
G02*
X98801000Y-125897040I0J-100000D01*
G01*
X98801000Y-127272040D01*
G75*
G02*
X98701000Y-127372040I-100000J0D01*
G01*
X98501000Y-127372040D01*
G75*
G02*
X98401000Y-127272040I0J100000D01*
G01*
G37*
G36*
G01*
X97901000Y-127272040D02*
X97901000Y-125897040D01*
G75*
G02*
X98001000Y-125797040I100000J0D01*
G01*
X98201000Y-125797040D01*
G75*
G02*
X98301000Y-125897040I0J-100000D01*
G01*
X98301000Y-127272040D01*
G75*
G02*
X98201000Y-127372040I-100000J0D01*
G01*
X98001000Y-127372040D01*
G75*
G02*
X97901000Y-127272040I0J100000D01*
G01*
G37*
G36*
G01*
X97401000Y-127272040D02*
X97401000Y-125897040D01*
G75*
G02*
X97501000Y-125797040I100000J0D01*
G01*
X97701000Y-125797040D01*
G75*
G02*
X97801000Y-125897040I0J-100000D01*
G01*
X97801000Y-127272040D01*
G75*
G02*
X97701000Y-127372040I-100000J0D01*
G01*
X97501000Y-127372040D01*
G75*
G02*
X97401000Y-127272040I0J100000D01*
G01*
G37*
G36*
G01*
X96901000Y-127272040D02*
X96901000Y-125897040D01*
G75*
G02*
X97001000Y-125797040I100000J0D01*
G01*
X97201000Y-125797040D01*
G75*
G02*
X97301000Y-125897040I0J-100000D01*
G01*
X97301000Y-127272040D01*
G75*
G02*
X97201000Y-127372040I-100000J0D01*
G01*
X97001000Y-127372040D01*
G75*
G02*
X96901000Y-127272040I0J100000D01*
G01*
G37*
G36*
G01*
X94901000Y-125272040D02*
X94901000Y-125072040D01*
G75*
G02*
X95001000Y-124972040I100000J0D01*
G01*
X96376000Y-124972040D01*
G75*
G02*
X96476000Y-125072040I0J-100000D01*
G01*
X96476000Y-125272040D01*
G75*
G02*
X96376000Y-125372040I-100000J0D01*
G01*
X95001000Y-125372040D01*
G75*
G02*
X94901000Y-125272040I0J100000D01*
G01*
G37*
G36*
G01*
X94901000Y-124772040D02*
X94901000Y-124572040D01*
G75*
G02*
X95001000Y-124472040I100000J0D01*
G01*
X96376000Y-124472040D01*
G75*
G02*
X96476000Y-124572040I0J-100000D01*
G01*
X96476000Y-124772040D01*
G75*
G02*
X96376000Y-124872040I-100000J0D01*
G01*
X95001000Y-124872040D01*
G75*
G02*
X94901000Y-124772040I0J100000D01*
G01*
G37*
G36*
G01*
X94901000Y-124272040D02*
X94901000Y-124072040D01*
G75*
G02*
X95001000Y-123972040I100000J0D01*
G01*
X96376000Y-123972040D01*
G75*
G02*
X96476000Y-124072040I0J-100000D01*
G01*
X96476000Y-124272040D01*
G75*
G02*
X96376000Y-124372040I-100000J0D01*
G01*
X95001000Y-124372040D01*
G75*
G02*
X94901000Y-124272040I0J100000D01*
G01*
G37*
G36*
G01*
X94901000Y-123772040D02*
X94901000Y-123572040D01*
G75*
G02*
X95001000Y-123472040I100000J0D01*
G01*
X96376000Y-123472040D01*
G75*
G02*
X96476000Y-123572040I0J-100000D01*
G01*
X96476000Y-123772040D01*
G75*
G02*
X96376000Y-123872040I-100000J0D01*
G01*
X95001000Y-123872040D01*
G75*
G02*
X94901000Y-123772040I0J100000D01*
G01*
G37*
G36*
G01*
X94901000Y-123272040D02*
X94901000Y-123072040D01*
G75*
G02*
X95001000Y-122972040I100000J0D01*
G01*
X96376000Y-122972040D01*
G75*
G02*
X96476000Y-123072040I0J-100000D01*
G01*
X96476000Y-123272040D01*
G75*
G02*
X96376000Y-123372040I-100000J0D01*
G01*
X95001000Y-123372040D01*
G75*
G02*
X94901000Y-123272040I0J100000D01*
G01*
G37*
G36*
G01*
X94901000Y-122772040D02*
X94901000Y-122572040D01*
G75*
G02*
X95001000Y-122472040I100000J0D01*
G01*
X96376000Y-122472040D01*
G75*
G02*
X96476000Y-122572040I0J-100000D01*
G01*
X96476000Y-122772040D01*
G75*
G02*
X96376000Y-122872040I-100000J0D01*
G01*
X95001000Y-122872040D01*
G75*
G02*
X94901000Y-122772040I0J100000D01*
G01*
G37*
G36*
G01*
X94901000Y-122272040D02*
X94901000Y-122072040D01*
G75*
G02*
X95001000Y-121972040I100000J0D01*
G01*
X96376000Y-121972040D01*
G75*
G02*
X96476000Y-122072040I0J-100000D01*
G01*
X96476000Y-122272040D01*
G75*
G02*
X96376000Y-122372040I-100000J0D01*
G01*
X95001000Y-122372040D01*
G75*
G02*
X94901000Y-122272040I0J100000D01*
G01*
G37*
G36*
G01*
X94901000Y-121772040D02*
X94901000Y-121572040D01*
G75*
G02*
X95001000Y-121472040I100000J0D01*
G01*
X96376000Y-121472040D01*
G75*
G02*
X96476000Y-121572040I0J-100000D01*
G01*
X96476000Y-121772040D01*
G75*
G02*
X96376000Y-121872040I-100000J0D01*
G01*
X95001000Y-121872040D01*
G75*
G02*
X94901000Y-121772040I0J100000D01*
G01*
G37*
G36*
G01*
X94901000Y-121272040D02*
X94901000Y-121072040D01*
G75*
G02*
X95001000Y-120972040I100000J0D01*
G01*
X96376000Y-120972040D01*
G75*
G02*
X96476000Y-121072040I0J-100000D01*
G01*
X96476000Y-121272040D01*
G75*
G02*
X96376000Y-121372040I-100000J0D01*
G01*
X95001000Y-121372040D01*
G75*
G02*
X94901000Y-121272040I0J100000D01*
G01*
G37*
G36*
G01*
X94901000Y-120772040D02*
X94901000Y-120572040D01*
G75*
G02*
X95001000Y-120472040I100000J0D01*
G01*
X96376000Y-120472040D01*
G75*
G02*
X96476000Y-120572040I0J-100000D01*
G01*
X96476000Y-120772040D01*
G75*
G02*
X96376000Y-120872040I-100000J0D01*
G01*
X95001000Y-120872040D01*
G75*
G02*
X94901000Y-120772040I0J100000D01*
G01*
G37*
G36*
G01*
X94901000Y-120272040D02*
X94901000Y-120072040D01*
G75*
G02*
X95001000Y-119972040I100000J0D01*
G01*
X96376000Y-119972040D01*
G75*
G02*
X96476000Y-120072040I0J-100000D01*
G01*
X96476000Y-120272040D01*
G75*
G02*
X96376000Y-120372040I-100000J0D01*
G01*
X95001000Y-120372040D01*
G75*
G02*
X94901000Y-120272040I0J100000D01*
G01*
G37*
G36*
G01*
X94901000Y-119772040D02*
X94901000Y-119572040D01*
G75*
G02*
X95001000Y-119472040I100000J0D01*
G01*
X96376000Y-119472040D01*
G75*
G02*
X96476000Y-119572040I0J-100000D01*
G01*
X96476000Y-119772040D01*
G75*
G02*
X96376000Y-119872040I-100000J0D01*
G01*
X95001000Y-119872040D01*
G75*
G02*
X94901000Y-119772040I0J100000D01*
G01*
G37*
%TD*%
%TO.C,U11*%
G36*
G01*
X102251000Y-94702040D02*
X102251000Y-94352040D01*
G75*
G02*
X102426000Y-94177040I175000J0D01*
G01*
X103776000Y-94177040D01*
G75*
G02*
X103951000Y-94352040I0J-175000D01*
G01*
X103951000Y-94702040D01*
G75*
G02*
X103776000Y-94877040I-175000J0D01*
G01*
X102426000Y-94877040D01*
G75*
G02*
X102251000Y-94702040I0J175000D01*
G01*
G37*
G36*
G01*
X102251000Y-95972040D02*
X102251000Y-95622040D01*
G75*
G02*
X102426000Y-95447040I175000J0D01*
G01*
X103776000Y-95447040D01*
G75*
G02*
X103951000Y-95622040I0J-175000D01*
G01*
X103951000Y-95972040D01*
G75*
G02*
X103776000Y-96147040I-175000J0D01*
G01*
X102426000Y-96147040D01*
G75*
G02*
X102251000Y-95972040I0J175000D01*
G01*
G37*
G36*
G01*
X102251000Y-97242040D02*
X102251000Y-96892040D01*
G75*
G02*
X102426000Y-96717040I175000J0D01*
G01*
X103776000Y-96717040D01*
G75*
G02*
X103951000Y-96892040I0J-175000D01*
G01*
X103951000Y-97242040D01*
G75*
G02*
X103776000Y-97417040I-175000J0D01*
G01*
X102426000Y-97417040D01*
G75*
G02*
X102251000Y-97242040I0J175000D01*
G01*
G37*
G36*
G01*
X102251000Y-98512040D02*
X102251000Y-98162040D01*
G75*
G02*
X102426000Y-97987040I175000J0D01*
G01*
X103776000Y-97987040D01*
G75*
G02*
X103951000Y-98162040I0J-175000D01*
G01*
X103951000Y-98512040D01*
G75*
G02*
X103776000Y-98687040I-175000J0D01*
G01*
X102426000Y-98687040D01*
G75*
G02*
X102251000Y-98512040I0J175000D01*
G01*
G37*
G36*
G01*
X102251000Y-99782040D02*
X102251000Y-99432040D01*
G75*
G02*
X102426000Y-99257040I175000J0D01*
G01*
X103776000Y-99257040D01*
G75*
G02*
X103951000Y-99432040I0J-175000D01*
G01*
X103951000Y-99782040D01*
G75*
G02*
X103776000Y-99957040I-175000J0D01*
G01*
X102426000Y-99957040D01*
G75*
G02*
X102251000Y-99782040I0J175000D01*
G01*
G37*
G36*
G01*
X102251000Y-101052040D02*
X102251000Y-100702040D01*
G75*
G02*
X102426000Y-100527040I175000J0D01*
G01*
X103776000Y-100527040D01*
G75*
G02*
X103951000Y-100702040I0J-175000D01*
G01*
X103951000Y-101052040D01*
G75*
G02*
X103776000Y-101227040I-175000J0D01*
G01*
X102426000Y-101227040D01*
G75*
G02*
X102251000Y-101052040I0J175000D01*
G01*
G37*
G36*
G01*
X102251000Y-102322040D02*
X102251000Y-101972040D01*
G75*
G02*
X102426000Y-101797040I175000J0D01*
G01*
X103776000Y-101797040D01*
G75*
G02*
X103951000Y-101972040I0J-175000D01*
G01*
X103951000Y-102322040D01*
G75*
G02*
X103776000Y-102497040I-175000J0D01*
G01*
X102426000Y-102497040D01*
G75*
G02*
X102251000Y-102322040I0J175000D01*
G01*
G37*
G36*
G01*
X102251000Y-103592040D02*
X102251000Y-103242040D01*
G75*
G02*
X102426000Y-103067040I175000J0D01*
G01*
X103776000Y-103067040D01*
G75*
G02*
X103951000Y-103242040I0J-175000D01*
G01*
X103951000Y-103592040D01*
G75*
G02*
X103776000Y-103767040I-175000J0D01*
G01*
X102426000Y-103767040D01*
G75*
G02*
X102251000Y-103592040I0J175000D01*
G01*
G37*
G36*
G01*
X95751000Y-103592040D02*
X95751000Y-103242040D01*
G75*
G02*
X95926000Y-103067040I175000J0D01*
G01*
X97276000Y-103067040D01*
G75*
G02*
X97451000Y-103242040I0J-175000D01*
G01*
X97451000Y-103592040D01*
G75*
G02*
X97276000Y-103767040I-175000J0D01*
G01*
X95926000Y-103767040D01*
G75*
G02*
X95751000Y-103592040I0J175000D01*
G01*
G37*
G36*
G01*
X95751000Y-102322040D02*
X95751000Y-101972040D01*
G75*
G02*
X95926000Y-101797040I175000J0D01*
G01*
X97276000Y-101797040D01*
G75*
G02*
X97451000Y-101972040I0J-175000D01*
G01*
X97451000Y-102322040D01*
G75*
G02*
X97276000Y-102497040I-175000J0D01*
G01*
X95926000Y-102497040D01*
G75*
G02*
X95751000Y-102322040I0J175000D01*
G01*
G37*
G36*
G01*
X95751000Y-101052040D02*
X95751000Y-100702040D01*
G75*
G02*
X95926000Y-100527040I175000J0D01*
G01*
X97276000Y-100527040D01*
G75*
G02*
X97451000Y-100702040I0J-175000D01*
G01*
X97451000Y-101052040D01*
G75*
G02*
X97276000Y-101227040I-175000J0D01*
G01*
X95926000Y-101227040D01*
G75*
G02*
X95751000Y-101052040I0J175000D01*
G01*
G37*
G36*
G01*
X95751000Y-99782040D02*
X95751000Y-99432040D01*
G75*
G02*
X95926000Y-99257040I175000J0D01*
G01*
X97276000Y-99257040D01*
G75*
G02*
X97451000Y-99432040I0J-175000D01*
G01*
X97451000Y-99782040D01*
G75*
G02*
X97276000Y-99957040I-175000J0D01*
G01*
X95926000Y-99957040D01*
G75*
G02*
X95751000Y-99782040I0J175000D01*
G01*
G37*
G36*
G01*
X95751000Y-98512040D02*
X95751000Y-98162040D01*
G75*
G02*
X95926000Y-97987040I175000J0D01*
G01*
X97276000Y-97987040D01*
G75*
G02*
X97451000Y-98162040I0J-175000D01*
G01*
X97451000Y-98512040D01*
G75*
G02*
X97276000Y-98687040I-175000J0D01*
G01*
X95926000Y-98687040D01*
G75*
G02*
X95751000Y-98512040I0J175000D01*
G01*
G37*
G36*
G01*
X95751000Y-97242040D02*
X95751000Y-96892040D01*
G75*
G02*
X95926000Y-96717040I175000J0D01*
G01*
X97276000Y-96717040D01*
G75*
G02*
X97451000Y-96892040I0J-175000D01*
G01*
X97451000Y-97242040D01*
G75*
G02*
X97276000Y-97417040I-175000J0D01*
G01*
X95926000Y-97417040D01*
G75*
G02*
X95751000Y-97242040I0J175000D01*
G01*
G37*
G36*
G01*
X95751000Y-95972040D02*
X95751000Y-95622040D01*
G75*
G02*
X95926000Y-95447040I175000J0D01*
G01*
X97276000Y-95447040D01*
G75*
G02*
X97451000Y-95622040I0J-175000D01*
G01*
X97451000Y-95972040D01*
G75*
G02*
X97276000Y-96147040I-175000J0D01*
G01*
X95926000Y-96147040D01*
G75*
G02*
X95751000Y-95972040I0J175000D01*
G01*
G37*
G36*
G01*
X95751000Y-94702040D02*
X95751000Y-94352040D01*
G75*
G02*
X95926000Y-94177040I175000J0D01*
G01*
X97276000Y-94177040D01*
G75*
G02*
X97451000Y-94352040I0J-175000D01*
G01*
X97451000Y-94702040D01*
G75*
G02*
X97276000Y-94877040I-175000J0D01*
G01*
X95926000Y-94877040D01*
G75*
G02*
X95751000Y-94702040I0J175000D01*
G01*
G37*
%TD*%
%TO.C,U10*%
G36*
G01*
X102251000Y-106552040D02*
X102251000Y-106202040D01*
G75*
G02*
X102426000Y-106027040I175000J0D01*
G01*
X103776000Y-106027040D01*
G75*
G02*
X103951000Y-106202040I0J-175000D01*
G01*
X103951000Y-106552040D01*
G75*
G02*
X103776000Y-106727040I-175000J0D01*
G01*
X102426000Y-106727040D01*
G75*
G02*
X102251000Y-106552040I0J175000D01*
G01*
G37*
G36*
G01*
X102251000Y-107822040D02*
X102251000Y-107472040D01*
G75*
G02*
X102426000Y-107297040I175000J0D01*
G01*
X103776000Y-107297040D01*
G75*
G02*
X103951000Y-107472040I0J-175000D01*
G01*
X103951000Y-107822040D01*
G75*
G02*
X103776000Y-107997040I-175000J0D01*
G01*
X102426000Y-107997040D01*
G75*
G02*
X102251000Y-107822040I0J175000D01*
G01*
G37*
G36*
G01*
X102251000Y-109092040D02*
X102251000Y-108742040D01*
G75*
G02*
X102426000Y-108567040I175000J0D01*
G01*
X103776000Y-108567040D01*
G75*
G02*
X103951000Y-108742040I0J-175000D01*
G01*
X103951000Y-109092040D01*
G75*
G02*
X103776000Y-109267040I-175000J0D01*
G01*
X102426000Y-109267040D01*
G75*
G02*
X102251000Y-109092040I0J175000D01*
G01*
G37*
G36*
G01*
X102251000Y-110362040D02*
X102251000Y-110012040D01*
G75*
G02*
X102426000Y-109837040I175000J0D01*
G01*
X103776000Y-109837040D01*
G75*
G02*
X103951000Y-110012040I0J-175000D01*
G01*
X103951000Y-110362040D01*
G75*
G02*
X103776000Y-110537040I-175000J0D01*
G01*
X102426000Y-110537040D01*
G75*
G02*
X102251000Y-110362040I0J175000D01*
G01*
G37*
G36*
G01*
X102251000Y-111632040D02*
X102251000Y-111282040D01*
G75*
G02*
X102426000Y-111107040I175000J0D01*
G01*
X103776000Y-111107040D01*
G75*
G02*
X103951000Y-111282040I0J-175000D01*
G01*
X103951000Y-111632040D01*
G75*
G02*
X103776000Y-111807040I-175000J0D01*
G01*
X102426000Y-111807040D01*
G75*
G02*
X102251000Y-111632040I0J175000D01*
G01*
G37*
G36*
G01*
X102251000Y-112902040D02*
X102251000Y-112552040D01*
G75*
G02*
X102426000Y-112377040I175000J0D01*
G01*
X103776000Y-112377040D01*
G75*
G02*
X103951000Y-112552040I0J-175000D01*
G01*
X103951000Y-112902040D01*
G75*
G02*
X103776000Y-113077040I-175000J0D01*
G01*
X102426000Y-113077040D01*
G75*
G02*
X102251000Y-112902040I0J175000D01*
G01*
G37*
G36*
G01*
X102251000Y-114172040D02*
X102251000Y-113822040D01*
G75*
G02*
X102426000Y-113647040I175000J0D01*
G01*
X103776000Y-113647040D01*
G75*
G02*
X103951000Y-113822040I0J-175000D01*
G01*
X103951000Y-114172040D01*
G75*
G02*
X103776000Y-114347040I-175000J0D01*
G01*
X102426000Y-114347040D01*
G75*
G02*
X102251000Y-114172040I0J175000D01*
G01*
G37*
G36*
G01*
X102251000Y-115442040D02*
X102251000Y-115092040D01*
G75*
G02*
X102426000Y-114917040I175000J0D01*
G01*
X103776000Y-114917040D01*
G75*
G02*
X103951000Y-115092040I0J-175000D01*
G01*
X103951000Y-115442040D01*
G75*
G02*
X103776000Y-115617040I-175000J0D01*
G01*
X102426000Y-115617040D01*
G75*
G02*
X102251000Y-115442040I0J175000D01*
G01*
G37*
G36*
G01*
X95751000Y-115442040D02*
X95751000Y-115092040D01*
G75*
G02*
X95926000Y-114917040I175000J0D01*
G01*
X97276000Y-114917040D01*
G75*
G02*
X97451000Y-115092040I0J-175000D01*
G01*
X97451000Y-115442040D01*
G75*
G02*
X97276000Y-115617040I-175000J0D01*
G01*
X95926000Y-115617040D01*
G75*
G02*
X95751000Y-115442040I0J175000D01*
G01*
G37*
G36*
G01*
X95751000Y-114172040D02*
X95751000Y-113822040D01*
G75*
G02*
X95926000Y-113647040I175000J0D01*
G01*
X97276000Y-113647040D01*
G75*
G02*
X97451000Y-113822040I0J-175000D01*
G01*
X97451000Y-114172040D01*
G75*
G02*
X97276000Y-114347040I-175000J0D01*
G01*
X95926000Y-114347040D01*
G75*
G02*
X95751000Y-114172040I0J175000D01*
G01*
G37*
G36*
G01*
X95751000Y-112902040D02*
X95751000Y-112552040D01*
G75*
G02*
X95926000Y-112377040I175000J0D01*
G01*
X97276000Y-112377040D01*
G75*
G02*
X97451000Y-112552040I0J-175000D01*
G01*
X97451000Y-112902040D01*
G75*
G02*
X97276000Y-113077040I-175000J0D01*
G01*
X95926000Y-113077040D01*
G75*
G02*
X95751000Y-112902040I0J175000D01*
G01*
G37*
G36*
G01*
X95751000Y-111632040D02*
X95751000Y-111282040D01*
G75*
G02*
X95926000Y-111107040I175000J0D01*
G01*
X97276000Y-111107040D01*
G75*
G02*
X97451000Y-111282040I0J-175000D01*
G01*
X97451000Y-111632040D01*
G75*
G02*
X97276000Y-111807040I-175000J0D01*
G01*
X95926000Y-111807040D01*
G75*
G02*
X95751000Y-111632040I0J175000D01*
G01*
G37*
G36*
G01*
X95751000Y-110362040D02*
X95751000Y-110012040D01*
G75*
G02*
X95926000Y-109837040I175000J0D01*
G01*
X97276000Y-109837040D01*
G75*
G02*
X97451000Y-110012040I0J-175000D01*
G01*
X97451000Y-110362040D01*
G75*
G02*
X97276000Y-110537040I-175000J0D01*
G01*
X95926000Y-110537040D01*
G75*
G02*
X95751000Y-110362040I0J175000D01*
G01*
G37*
G36*
G01*
X95751000Y-109092040D02*
X95751000Y-108742040D01*
G75*
G02*
X95926000Y-108567040I175000J0D01*
G01*
X97276000Y-108567040D01*
G75*
G02*
X97451000Y-108742040I0J-175000D01*
G01*
X97451000Y-109092040D01*
G75*
G02*
X97276000Y-109267040I-175000J0D01*
G01*
X95926000Y-109267040D01*
G75*
G02*
X95751000Y-109092040I0J175000D01*
G01*
G37*
G36*
G01*
X95751000Y-107822040D02*
X95751000Y-107472040D01*
G75*
G02*
X95926000Y-107297040I175000J0D01*
G01*
X97276000Y-107297040D01*
G75*
G02*
X97451000Y-107472040I0J-175000D01*
G01*
X97451000Y-107822040D01*
G75*
G02*
X97276000Y-107997040I-175000J0D01*
G01*
X95926000Y-107997040D01*
G75*
G02*
X95751000Y-107822040I0J175000D01*
G01*
G37*
G36*
G01*
X95751000Y-106552040D02*
X95751000Y-106202040D01*
G75*
G02*
X95926000Y-106027040I175000J0D01*
G01*
X97276000Y-106027040D01*
G75*
G02*
X97451000Y-106202040I0J-175000D01*
G01*
X97451000Y-106552040D01*
G75*
G02*
X97276000Y-106727040I-175000J0D01*
G01*
X95926000Y-106727040D01*
G75*
G02*
X95751000Y-106552040I0J175000D01*
G01*
G37*
%TD*%
%TO.C,U9*%
G36*
G01*
X82101000Y-124252040D02*
X82101000Y-123902040D01*
G75*
G02*
X82276000Y-123727040I175000J0D01*
G01*
X83626000Y-123727040D01*
G75*
G02*
X83801000Y-123902040I0J-175000D01*
G01*
X83801000Y-124252040D01*
G75*
G02*
X83626000Y-124427040I-175000J0D01*
G01*
X82276000Y-124427040D01*
G75*
G02*
X82101000Y-124252040I0J175000D01*
G01*
G37*
G36*
G01*
X82101000Y-125522040D02*
X82101000Y-125172040D01*
G75*
G02*
X82276000Y-124997040I175000J0D01*
G01*
X83626000Y-124997040D01*
G75*
G02*
X83801000Y-125172040I0J-175000D01*
G01*
X83801000Y-125522040D01*
G75*
G02*
X83626000Y-125697040I-175000J0D01*
G01*
X82276000Y-125697040D01*
G75*
G02*
X82101000Y-125522040I0J175000D01*
G01*
G37*
G36*
G01*
X82101000Y-126792040D02*
X82101000Y-126442040D01*
G75*
G02*
X82276000Y-126267040I175000J0D01*
G01*
X83626000Y-126267040D01*
G75*
G02*
X83801000Y-126442040I0J-175000D01*
G01*
X83801000Y-126792040D01*
G75*
G02*
X83626000Y-126967040I-175000J0D01*
G01*
X82276000Y-126967040D01*
G75*
G02*
X82101000Y-126792040I0J175000D01*
G01*
G37*
G36*
G01*
X82101000Y-128062040D02*
X82101000Y-127712040D01*
G75*
G02*
X82276000Y-127537040I175000J0D01*
G01*
X83626000Y-127537040D01*
G75*
G02*
X83801000Y-127712040I0J-175000D01*
G01*
X83801000Y-128062040D01*
G75*
G02*
X83626000Y-128237040I-175000J0D01*
G01*
X82276000Y-128237040D01*
G75*
G02*
X82101000Y-128062040I0J175000D01*
G01*
G37*
G36*
G01*
X82101000Y-129332040D02*
X82101000Y-128982040D01*
G75*
G02*
X82276000Y-128807040I175000J0D01*
G01*
X83626000Y-128807040D01*
G75*
G02*
X83801000Y-128982040I0J-175000D01*
G01*
X83801000Y-129332040D01*
G75*
G02*
X83626000Y-129507040I-175000J0D01*
G01*
X82276000Y-129507040D01*
G75*
G02*
X82101000Y-129332040I0J175000D01*
G01*
G37*
G36*
G01*
X82101000Y-130602040D02*
X82101000Y-130252040D01*
G75*
G02*
X82276000Y-130077040I175000J0D01*
G01*
X83626000Y-130077040D01*
G75*
G02*
X83801000Y-130252040I0J-175000D01*
G01*
X83801000Y-130602040D01*
G75*
G02*
X83626000Y-130777040I-175000J0D01*
G01*
X82276000Y-130777040D01*
G75*
G02*
X82101000Y-130602040I0J175000D01*
G01*
G37*
G36*
G01*
X82101000Y-131872040D02*
X82101000Y-131522040D01*
G75*
G02*
X82276000Y-131347040I175000J0D01*
G01*
X83626000Y-131347040D01*
G75*
G02*
X83801000Y-131522040I0J-175000D01*
G01*
X83801000Y-131872040D01*
G75*
G02*
X83626000Y-132047040I-175000J0D01*
G01*
X82276000Y-132047040D01*
G75*
G02*
X82101000Y-131872040I0J175000D01*
G01*
G37*
G36*
G01*
X82101000Y-133142040D02*
X82101000Y-132792040D01*
G75*
G02*
X82276000Y-132617040I175000J0D01*
G01*
X83626000Y-132617040D01*
G75*
G02*
X83801000Y-132792040I0J-175000D01*
G01*
X83801000Y-133142040D01*
G75*
G02*
X83626000Y-133317040I-175000J0D01*
G01*
X82276000Y-133317040D01*
G75*
G02*
X82101000Y-133142040I0J175000D01*
G01*
G37*
G36*
G01*
X75601000Y-133142040D02*
X75601000Y-132792040D01*
G75*
G02*
X75776000Y-132617040I175000J0D01*
G01*
X77126000Y-132617040D01*
G75*
G02*
X77301000Y-132792040I0J-175000D01*
G01*
X77301000Y-133142040D01*
G75*
G02*
X77126000Y-133317040I-175000J0D01*
G01*
X75776000Y-133317040D01*
G75*
G02*
X75601000Y-133142040I0J175000D01*
G01*
G37*
G36*
G01*
X75601000Y-131872040D02*
X75601000Y-131522040D01*
G75*
G02*
X75776000Y-131347040I175000J0D01*
G01*
X77126000Y-131347040D01*
G75*
G02*
X77301000Y-131522040I0J-175000D01*
G01*
X77301000Y-131872040D01*
G75*
G02*
X77126000Y-132047040I-175000J0D01*
G01*
X75776000Y-132047040D01*
G75*
G02*
X75601000Y-131872040I0J175000D01*
G01*
G37*
G36*
G01*
X75601000Y-130602040D02*
X75601000Y-130252040D01*
G75*
G02*
X75776000Y-130077040I175000J0D01*
G01*
X77126000Y-130077040D01*
G75*
G02*
X77301000Y-130252040I0J-175000D01*
G01*
X77301000Y-130602040D01*
G75*
G02*
X77126000Y-130777040I-175000J0D01*
G01*
X75776000Y-130777040D01*
G75*
G02*
X75601000Y-130602040I0J175000D01*
G01*
G37*
G36*
G01*
X75601000Y-129332040D02*
X75601000Y-128982040D01*
G75*
G02*
X75776000Y-128807040I175000J0D01*
G01*
X77126000Y-128807040D01*
G75*
G02*
X77301000Y-128982040I0J-175000D01*
G01*
X77301000Y-129332040D01*
G75*
G02*
X77126000Y-129507040I-175000J0D01*
G01*
X75776000Y-129507040D01*
G75*
G02*
X75601000Y-129332040I0J175000D01*
G01*
G37*
G36*
G01*
X75601000Y-128062040D02*
X75601000Y-127712040D01*
G75*
G02*
X75776000Y-127537040I175000J0D01*
G01*
X77126000Y-127537040D01*
G75*
G02*
X77301000Y-127712040I0J-175000D01*
G01*
X77301000Y-128062040D01*
G75*
G02*
X77126000Y-128237040I-175000J0D01*
G01*
X75776000Y-128237040D01*
G75*
G02*
X75601000Y-128062040I0J175000D01*
G01*
G37*
G36*
G01*
X75601000Y-126792040D02*
X75601000Y-126442040D01*
G75*
G02*
X75776000Y-126267040I175000J0D01*
G01*
X77126000Y-126267040D01*
G75*
G02*
X77301000Y-126442040I0J-175000D01*
G01*
X77301000Y-126792040D01*
G75*
G02*
X77126000Y-126967040I-175000J0D01*
G01*
X75776000Y-126967040D01*
G75*
G02*
X75601000Y-126792040I0J175000D01*
G01*
G37*
G36*
G01*
X75601000Y-125522040D02*
X75601000Y-125172040D01*
G75*
G02*
X75776000Y-124997040I175000J0D01*
G01*
X77126000Y-124997040D01*
G75*
G02*
X77301000Y-125172040I0J-175000D01*
G01*
X77301000Y-125522040D01*
G75*
G02*
X77126000Y-125697040I-175000J0D01*
G01*
X75776000Y-125697040D01*
G75*
G02*
X75601000Y-125522040I0J175000D01*
G01*
G37*
G36*
G01*
X75601000Y-124252040D02*
X75601000Y-123902040D01*
G75*
G02*
X75776000Y-123727040I175000J0D01*
G01*
X77126000Y-123727040D01*
G75*
G02*
X77301000Y-123902040I0J-175000D01*
G01*
X77301000Y-124252040D01*
G75*
G02*
X77126000Y-124427040I-175000J0D01*
G01*
X75776000Y-124427040D01*
G75*
G02*
X75601000Y-124252040I0J175000D01*
G01*
G37*
%TD*%
%TO.C,U8*%
G36*
G01*
X-18649000Y-229102040D02*
X-18649000Y-228752040D01*
G75*
G02*
X-18474000Y-228577040I175000J0D01*
G01*
X-17124000Y-228577040D01*
G75*
G02*
X-16949000Y-228752040I0J-175000D01*
G01*
X-16949000Y-229102040D01*
G75*
G02*
X-17124000Y-229277040I-175000J0D01*
G01*
X-18474000Y-229277040D01*
G75*
G02*
X-18649000Y-229102040I0J175000D01*
G01*
G37*
G36*
G01*
X-18649000Y-230372040D02*
X-18649000Y-230022040D01*
G75*
G02*
X-18474000Y-229847040I175000J0D01*
G01*
X-17124000Y-229847040D01*
G75*
G02*
X-16949000Y-230022040I0J-175000D01*
G01*
X-16949000Y-230372040D01*
G75*
G02*
X-17124000Y-230547040I-175000J0D01*
G01*
X-18474000Y-230547040D01*
G75*
G02*
X-18649000Y-230372040I0J175000D01*
G01*
G37*
G36*
G01*
X-18649000Y-231642040D02*
X-18649000Y-231292040D01*
G75*
G02*
X-18474000Y-231117040I175000J0D01*
G01*
X-17124000Y-231117040D01*
G75*
G02*
X-16949000Y-231292040I0J-175000D01*
G01*
X-16949000Y-231642040D01*
G75*
G02*
X-17124000Y-231817040I-175000J0D01*
G01*
X-18474000Y-231817040D01*
G75*
G02*
X-18649000Y-231642040I0J175000D01*
G01*
G37*
G36*
G01*
X-18649000Y-232912040D02*
X-18649000Y-232562040D01*
G75*
G02*
X-18474000Y-232387040I175000J0D01*
G01*
X-17124000Y-232387040D01*
G75*
G02*
X-16949000Y-232562040I0J-175000D01*
G01*
X-16949000Y-232912040D01*
G75*
G02*
X-17124000Y-233087040I-175000J0D01*
G01*
X-18474000Y-233087040D01*
G75*
G02*
X-18649000Y-232912040I0J175000D01*
G01*
G37*
G36*
G01*
X-18649000Y-234182040D02*
X-18649000Y-233832040D01*
G75*
G02*
X-18474000Y-233657040I175000J0D01*
G01*
X-17124000Y-233657040D01*
G75*
G02*
X-16949000Y-233832040I0J-175000D01*
G01*
X-16949000Y-234182040D01*
G75*
G02*
X-17124000Y-234357040I-175000J0D01*
G01*
X-18474000Y-234357040D01*
G75*
G02*
X-18649000Y-234182040I0J175000D01*
G01*
G37*
G36*
G01*
X-18649000Y-235452040D02*
X-18649000Y-235102040D01*
G75*
G02*
X-18474000Y-234927040I175000J0D01*
G01*
X-17124000Y-234927040D01*
G75*
G02*
X-16949000Y-235102040I0J-175000D01*
G01*
X-16949000Y-235452040D01*
G75*
G02*
X-17124000Y-235627040I-175000J0D01*
G01*
X-18474000Y-235627040D01*
G75*
G02*
X-18649000Y-235452040I0J175000D01*
G01*
G37*
G36*
G01*
X-18649000Y-236722040D02*
X-18649000Y-236372040D01*
G75*
G02*
X-18474000Y-236197040I175000J0D01*
G01*
X-17124000Y-236197040D01*
G75*
G02*
X-16949000Y-236372040I0J-175000D01*
G01*
X-16949000Y-236722040D01*
G75*
G02*
X-17124000Y-236897040I-175000J0D01*
G01*
X-18474000Y-236897040D01*
G75*
G02*
X-18649000Y-236722040I0J175000D01*
G01*
G37*
G36*
G01*
X-18649000Y-237992040D02*
X-18649000Y-237642040D01*
G75*
G02*
X-18474000Y-237467040I175000J0D01*
G01*
X-17124000Y-237467040D01*
G75*
G02*
X-16949000Y-237642040I0J-175000D01*
G01*
X-16949000Y-237992040D01*
G75*
G02*
X-17124000Y-238167040I-175000J0D01*
G01*
X-18474000Y-238167040D01*
G75*
G02*
X-18649000Y-237992040I0J175000D01*
G01*
G37*
G36*
G01*
X-25149000Y-237992040D02*
X-25149000Y-237642040D01*
G75*
G02*
X-24974000Y-237467040I175000J0D01*
G01*
X-23624000Y-237467040D01*
G75*
G02*
X-23449000Y-237642040I0J-175000D01*
G01*
X-23449000Y-237992040D01*
G75*
G02*
X-23624000Y-238167040I-175000J0D01*
G01*
X-24974000Y-238167040D01*
G75*
G02*
X-25149000Y-237992040I0J175000D01*
G01*
G37*
G36*
G01*
X-25149000Y-236722040D02*
X-25149000Y-236372040D01*
G75*
G02*
X-24974000Y-236197040I175000J0D01*
G01*
X-23624000Y-236197040D01*
G75*
G02*
X-23449000Y-236372040I0J-175000D01*
G01*
X-23449000Y-236722040D01*
G75*
G02*
X-23624000Y-236897040I-175000J0D01*
G01*
X-24974000Y-236897040D01*
G75*
G02*
X-25149000Y-236722040I0J175000D01*
G01*
G37*
G36*
G01*
X-25149000Y-235452040D02*
X-25149000Y-235102040D01*
G75*
G02*
X-24974000Y-234927040I175000J0D01*
G01*
X-23624000Y-234927040D01*
G75*
G02*
X-23449000Y-235102040I0J-175000D01*
G01*
X-23449000Y-235452040D01*
G75*
G02*
X-23624000Y-235627040I-175000J0D01*
G01*
X-24974000Y-235627040D01*
G75*
G02*
X-25149000Y-235452040I0J175000D01*
G01*
G37*
G36*
G01*
X-25149000Y-234182040D02*
X-25149000Y-233832040D01*
G75*
G02*
X-24974000Y-233657040I175000J0D01*
G01*
X-23624000Y-233657040D01*
G75*
G02*
X-23449000Y-233832040I0J-175000D01*
G01*
X-23449000Y-234182040D01*
G75*
G02*
X-23624000Y-234357040I-175000J0D01*
G01*
X-24974000Y-234357040D01*
G75*
G02*
X-25149000Y-234182040I0J175000D01*
G01*
G37*
G36*
G01*
X-25149000Y-232912040D02*
X-25149000Y-232562040D01*
G75*
G02*
X-24974000Y-232387040I175000J0D01*
G01*
X-23624000Y-232387040D01*
G75*
G02*
X-23449000Y-232562040I0J-175000D01*
G01*
X-23449000Y-232912040D01*
G75*
G02*
X-23624000Y-233087040I-175000J0D01*
G01*
X-24974000Y-233087040D01*
G75*
G02*
X-25149000Y-232912040I0J175000D01*
G01*
G37*
G36*
G01*
X-25149000Y-231642040D02*
X-25149000Y-231292040D01*
G75*
G02*
X-24974000Y-231117040I175000J0D01*
G01*
X-23624000Y-231117040D01*
G75*
G02*
X-23449000Y-231292040I0J-175000D01*
G01*
X-23449000Y-231642040D01*
G75*
G02*
X-23624000Y-231817040I-175000J0D01*
G01*
X-24974000Y-231817040D01*
G75*
G02*
X-25149000Y-231642040I0J175000D01*
G01*
G37*
G36*
G01*
X-25149000Y-230372040D02*
X-25149000Y-230022040D01*
G75*
G02*
X-24974000Y-229847040I175000J0D01*
G01*
X-23624000Y-229847040D01*
G75*
G02*
X-23449000Y-230022040I0J-175000D01*
G01*
X-23449000Y-230372040D01*
G75*
G02*
X-23624000Y-230547040I-175000J0D01*
G01*
X-24974000Y-230547040D01*
G75*
G02*
X-25149000Y-230372040I0J175000D01*
G01*
G37*
G36*
G01*
X-25149000Y-229102040D02*
X-25149000Y-228752040D01*
G75*
G02*
X-24974000Y-228577040I175000J0D01*
G01*
X-23624000Y-228577040D01*
G75*
G02*
X-23449000Y-228752040I0J-175000D01*
G01*
X-23449000Y-229102040D01*
G75*
G02*
X-23624000Y-229277040I-175000J0D01*
G01*
X-24974000Y-229277040D01*
G75*
G02*
X-25149000Y-229102040I0J175000D01*
G01*
G37*
%TD*%
%TO.C,U7*%
G36*
G01*
X1501000Y-208952040D02*
X1501000Y-208602040D01*
G75*
G02*
X1676000Y-208427040I175000J0D01*
G01*
X3026000Y-208427040D01*
G75*
G02*
X3201000Y-208602040I0J-175000D01*
G01*
X3201000Y-208952040D01*
G75*
G02*
X3026000Y-209127040I-175000J0D01*
G01*
X1676000Y-209127040D01*
G75*
G02*
X1501000Y-208952040I0J175000D01*
G01*
G37*
G36*
G01*
X1501000Y-210222040D02*
X1501000Y-209872040D01*
G75*
G02*
X1676000Y-209697040I175000J0D01*
G01*
X3026000Y-209697040D01*
G75*
G02*
X3201000Y-209872040I0J-175000D01*
G01*
X3201000Y-210222040D01*
G75*
G02*
X3026000Y-210397040I-175000J0D01*
G01*
X1676000Y-210397040D01*
G75*
G02*
X1501000Y-210222040I0J175000D01*
G01*
G37*
G36*
G01*
X1501000Y-211492040D02*
X1501000Y-211142040D01*
G75*
G02*
X1676000Y-210967040I175000J0D01*
G01*
X3026000Y-210967040D01*
G75*
G02*
X3201000Y-211142040I0J-175000D01*
G01*
X3201000Y-211492040D01*
G75*
G02*
X3026000Y-211667040I-175000J0D01*
G01*
X1676000Y-211667040D01*
G75*
G02*
X1501000Y-211492040I0J175000D01*
G01*
G37*
G36*
G01*
X1501000Y-212762040D02*
X1501000Y-212412040D01*
G75*
G02*
X1676000Y-212237040I175000J0D01*
G01*
X3026000Y-212237040D01*
G75*
G02*
X3201000Y-212412040I0J-175000D01*
G01*
X3201000Y-212762040D01*
G75*
G02*
X3026000Y-212937040I-175000J0D01*
G01*
X1676000Y-212937040D01*
G75*
G02*
X1501000Y-212762040I0J175000D01*
G01*
G37*
G36*
G01*
X1501000Y-214032040D02*
X1501000Y-213682040D01*
G75*
G02*
X1676000Y-213507040I175000J0D01*
G01*
X3026000Y-213507040D01*
G75*
G02*
X3201000Y-213682040I0J-175000D01*
G01*
X3201000Y-214032040D01*
G75*
G02*
X3026000Y-214207040I-175000J0D01*
G01*
X1676000Y-214207040D01*
G75*
G02*
X1501000Y-214032040I0J175000D01*
G01*
G37*
G36*
G01*
X1501000Y-215302040D02*
X1501000Y-214952040D01*
G75*
G02*
X1676000Y-214777040I175000J0D01*
G01*
X3026000Y-214777040D01*
G75*
G02*
X3201000Y-214952040I0J-175000D01*
G01*
X3201000Y-215302040D01*
G75*
G02*
X3026000Y-215477040I-175000J0D01*
G01*
X1676000Y-215477040D01*
G75*
G02*
X1501000Y-215302040I0J175000D01*
G01*
G37*
G36*
G01*
X1501000Y-216572040D02*
X1501000Y-216222040D01*
G75*
G02*
X1676000Y-216047040I175000J0D01*
G01*
X3026000Y-216047040D01*
G75*
G02*
X3201000Y-216222040I0J-175000D01*
G01*
X3201000Y-216572040D01*
G75*
G02*
X3026000Y-216747040I-175000J0D01*
G01*
X1676000Y-216747040D01*
G75*
G02*
X1501000Y-216572040I0J175000D01*
G01*
G37*
G36*
G01*
X1501000Y-217842040D02*
X1501000Y-217492040D01*
G75*
G02*
X1676000Y-217317040I175000J0D01*
G01*
X3026000Y-217317040D01*
G75*
G02*
X3201000Y-217492040I0J-175000D01*
G01*
X3201000Y-217842040D01*
G75*
G02*
X3026000Y-218017040I-175000J0D01*
G01*
X1676000Y-218017040D01*
G75*
G02*
X1501000Y-217842040I0J175000D01*
G01*
G37*
G36*
G01*
X-4999000Y-217842040D02*
X-4999000Y-217492040D01*
G75*
G02*
X-4824000Y-217317040I175000J0D01*
G01*
X-3474000Y-217317040D01*
G75*
G02*
X-3299000Y-217492040I0J-175000D01*
G01*
X-3299000Y-217842040D01*
G75*
G02*
X-3474000Y-218017040I-175000J0D01*
G01*
X-4824000Y-218017040D01*
G75*
G02*
X-4999000Y-217842040I0J175000D01*
G01*
G37*
G36*
G01*
X-4999000Y-216572040D02*
X-4999000Y-216222040D01*
G75*
G02*
X-4824000Y-216047040I175000J0D01*
G01*
X-3474000Y-216047040D01*
G75*
G02*
X-3299000Y-216222040I0J-175000D01*
G01*
X-3299000Y-216572040D01*
G75*
G02*
X-3474000Y-216747040I-175000J0D01*
G01*
X-4824000Y-216747040D01*
G75*
G02*
X-4999000Y-216572040I0J175000D01*
G01*
G37*
G36*
G01*
X-4999000Y-215302040D02*
X-4999000Y-214952040D01*
G75*
G02*
X-4824000Y-214777040I175000J0D01*
G01*
X-3474000Y-214777040D01*
G75*
G02*
X-3299000Y-214952040I0J-175000D01*
G01*
X-3299000Y-215302040D01*
G75*
G02*
X-3474000Y-215477040I-175000J0D01*
G01*
X-4824000Y-215477040D01*
G75*
G02*
X-4999000Y-215302040I0J175000D01*
G01*
G37*
G36*
G01*
X-4999000Y-214032040D02*
X-4999000Y-213682040D01*
G75*
G02*
X-4824000Y-213507040I175000J0D01*
G01*
X-3474000Y-213507040D01*
G75*
G02*
X-3299000Y-213682040I0J-175000D01*
G01*
X-3299000Y-214032040D01*
G75*
G02*
X-3474000Y-214207040I-175000J0D01*
G01*
X-4824000Y-214207040D01*
G75*
G02*
X-4999000Y-214032040I0J175000D01*
G01*
G37*
G36*
G01*
X-4999000Y-212762040D02*
X-4999000Y-212412040D01*
G75*
G02*
X-4824000Y-212237040I175000J0D01*
G01*
X-3474000Y-212237040D01*
G75*
G02*
X-3299000Y-212412040I0J-175000D01*
G01*
X-3299000Y-212762040D01*
G75*
G02*
X-3474000Y-212937040I-175000J0D01*
G01*
X-4824000Y-212937040D01*
G75*
G02*
X-4999000Y-212762040I0J175000D01*
G01*
G37*
G36*
G01*
X-4999000Y-211492040D02*
X-4999000Y-211142040D01*
G75*
G02*
X-4824000Y-210967040I175000J0D01*
G01*
X-3474000Y-210967040D01*
G75*
G02*
X-3299000Y-211142040I0J-175000D01*
G01*
X-3299000Y-211492040D01*
G75*
G02*
X-3474000Y-211667040I-175000J0D01*
G01*
X-4824000Y-211667040D01*
G75*
G02*
X-4999000Y-211492040I0J175000D01*
G01*
G37*
G36*
G01*
X-4999000Y-210222040D02*
X-4999000Y-209872040D01*
G75*
G02*
X-4824000Y-209697040I175000J0D01*
G01*
X-3474000Y-209697040D01*
G75*
G02*
X-3299000Y-209872040I0J-175000D01*
G01*
X-3299000Y-210222040D01*
G75*
G02*
X-3474000Y-210397040I-175000J0D01*
G01*
X-4824000Y-210397040D01*
G75*
G02*
X-4999000Y-210222040I0J175000D01*
G01*
G37*
G36*
G01*
X-4999000Y-208952040D02*
X-4999000Y-208602040D01*
G75*
G02*
X-4824000Y-208427040I175000J0D01*
G01*
X-3474000Y-208427040D01*
G75*
G02*
X-3299000Y-208602040I0J-175000D01*
G01*
X-3299000Y-208952040D01*
G75*
G02*
X-3474000Y-209127040I-175000J0D01*
G01*
X-4824000Y-209127040D01*
G75*
G02*
X-4999000Y-208952040I0J175000D01*
G01*
G37*
%TD*%
%TO.C,U6*%
G36*
G01*
X120051000Y-88052040D02*
X120051000Y-87702040D01*
G75*
G02*
X120226000Y-87527040I175000J0D01*
G01*
X121576000Y-87527040D01*
G75*
G02*
X121751000Y-87702040I0J-175000D01*
G01*
X121751000Y-88052040D01*
G75*
G02*
X121576000Y-88227040I-175000J0D01*
G01*
X120226000Y-88227040D01*
G75*
G02*
X120051000Y-88052040I0J175000D01*
G01*
G37*
G36*
G01*
X120051000Y-89322040D02*
X120051000Y-88972040D01*
G75*
G02*
X120226000Y-88797040I175000J0D01*
G01*
X121576000Y-88797040D01*
G75*
G02*
X121751000Y-88972040I0J-175000D01*
G01*
X121751000Y-89322040D01*
G75*
G02*
X121576000Y-89497040I-175000J0D01*
G01*
X120226000Y-89497040D01*
G75*
G02*
X120051000Y-89322040I0J175000D01*
G01*
G37*
G36*
G01*
X120051000Y-90592040D02*
X120051000Y-90242040D01*
G75*
G02*
X120226000Y-90067040I175000J0D01*
G01*
X121576000Y-90067040D01*
G75*
G02*
X121751000Y-90242040I0J-175000D01*
G01*
X121751000Y-90592040D01*
G75*
G02*
X121576000Y-90767040I-175000J0D01*
G01*
X120226000Y-90767040D01*
G75*
G02*
X120051000Y-90592040I0J175000D01*
G01*
G37*
G36*
G01*
X120051000Y-91862040D02*
X120051000Y-91512040D01*
G75*
G02*
X120226000Y-91337040I175000J0D01*
G01*
X121576000Y-91337040D01*
G75*
G02*
X121751000Y-91512040I0J-175000D01*
G01*
X121751000Y-91862040D01*
G75*
G02*
X121576000Y-92037040I-175000J0D01*
G01*
X120226000Y-92037040D01*
G75*
G02*
X120051000Y-91862040I0J175000D01*
G01*
G37*
G36*
G01*
X120051000Y-93132040D02*
X120051000Y-92782040D01*
G75*
G02*
X120226000Y-92607040I175000J0D01*
G01*
X121576000Y-92607040D01*
G75*
G02*
X121751000Y-92782040I0J-175000D01*
G01*
X121751000Y-93132040D01*
G75*
G02*
X121576000Y-93307040I-175000J0D01*
G01*
X120226000Y-93307040D01*
G75*
G02*
X120051000Y-93132040I0J175000D01*
G01*
G37*
G36*
G01*
X120051000Y-94402040D02*
X120051000Y-94052040D01*
G75*
G02*
X120226000Y-93877040I175000J0D01*
G01*
X121576000Y-93877040D01*
G75*
G02*
X121751000Y-94052040I0J-175000D01*
G01*
X121751000Y-94402040D01*
G75*
G02*
X121576000Y-94577040I-175000J0D01*
G01*
X120226000Y-94577040D01*
G75*
G02*
X120051000Y-94402040I0J175000D01*
G01*
G37*
G36*
G01*
X120051000Y-95672040D02*
X120051000Y-95322040D01*
G75*
G02*
X120226000Y-95147040I175000J0D01*
G01*
X121576000Y-95147040D01*
G75*
G02*
X121751000Y-95322040I0J-175000D01*
G01*
X121751000Y-95672040D01*
G75*
G02*
X121576000Y-95847040I-175000J0D01*
G01*
X120226000Y-95847040D01*
G75*
G02*
X120051000Y-95672040I0J175000D01*
G01*
G37*
G36*
G01*
X120051000Y-96942040D02*
X120051000Y-96592040D01*
G75*
G02*
X120226000Y-96417040I175000J0D01*
G01*
X121576000Y-96417040D01*
G75*
G02*
X121751000Y-96592040I0J-175000D01*
G01*
X121751000Y-96942040D01*
G75*
G02*
X121576000Y-97117040I-175000J0D01*
G01*
X120226000Y-97117040D01*
G75*
G02*
X120051000Y-96942040I0J175000D01*
G01*
G37*
G36*
G01*
X113551000Y-96942040D02*
X113551000Y-96592040D01*
G75*
G02*
X113726000Y-96417040I175000J0D01*
G01*
X115076000Y-96417040D01*
G75*
G02*
X115251000Y-96592040I0J-175000D01*
G01*
X115251000Y-96942040D01*
G75*
G02*
X115076000Y-97117040I-175000J0D01*
G01*
X113726000Y-97117040D01*
G75*
G02*
X113551000Y-96942040I0J175000D01*
G01*
G37*
G36*
G01*
X113551000Y-95672040D02*
X113551000Y-95322040D01*
G75*
G02*
X113726000Y-95147040I175000J0D01*
G01*
X115076000Y-95147040D01*
G75*
G02*
X115251000Y-95322040I0J-175000D01*
G01*
X115251000Y-95672040D01*
G75*
G02*
X115076000Y-95847040I-175000J0D01*
G01*
X113726000Y-95847040D01*
G75*
G02*
X113551000Y-95672040I0J175000D01*
G01*
G37*
G36*
G01*
X113551000Y-94402040D02*
X113551000Y-94052040D01*
G75*
G02*
X113726000Y-93877040I175000J0D01*
G01*
X115076000Y-93877040D01*
G75*
G02*
X115251000Y-94052040I0J-175000D01*
G01*
X115251000Y-94402040D01*
G75*
G02*
X115076000Y-94577040I-175000J0D01*
G01*
X113726000Y-94577040D01*
G75*
G02*
X113551000Y-94402040I0J175000D01*
G01*
G37*
G36*
G01*
X113551000Y-93132040D02*
X113551000Y-92782040D01*
G75*
G02*
X113726000Y-92607040I175000J0D01*
G01*
X115076000Y-92607040D01*
G75*
G02*
X115251000Y-92782040I0J-175000D01*
G01*
X115251000Y-93132040D01*
G75*
G02*
X115076000Y-93307040I-175000J0D01*
G01*
X113726000Y-93307040D01*
G75*
G02*
X113551000Y-93132040I0J175000D01*
G01*
G37*
G36*
G01*
X113551000Y-91862040D02*
X113551000Y-91512040D01*
G75*
G02*
X113726000Y-91337040I175000J0D01*
G01*
X115076000Y-91337040D01*
G75*
G02*
X115251000Y-91512040I0J-175000D01*
G01*
X115251000Y-91862040D01*
G75*
G02*
X115076000Y-92037040I-175000J0D01*
G01*
X113726000Y-92037040D01*
G75*
G02*
X113551000Y-91862040I0J175000D01*
G01*
G37*
G36*
G01*
X113551000Y-90592040D02*
X113551000Y-90242040D01*
G75*
G02*
X113726000Y-90067040I175000J0D01*
G01*
X115076000Y-90067040D01*
G75*
G02*
X115251000Y-90242040I0J-175000D01*
G01*
X115251000Y-90592040D01*
G75*
G02*
X115076000Y-90767040I-175000J0D01*
G01*
X113726000Y-90767040D01*
G75*
G02*
X113551000Y-90592040I0J175000D01*
G01*
G37*
G36*
G01*
X113551000Y-89322040D02*
X113551000Y-88972040D01*
G75*
G02*
X113726000Y-88797040I175000J0D01*
G01*
X115076000Y-88797040D01*
G75*
G02*
X115251000Y-88972040I0J-175000D01*
G01*
X115251000Y-89322040D01*
G75*
G02*
X115076000Y-89497040I-175000J0D01*
G01*
X113726000Y-89497040D01*
G75*
G02*
X113551000Y-89322040I0J175000D01*
G01*
G37*
G36*
G01*
X113551000Y-88052040D02*
X113551000Y-87702040D01*
G75*
G02*
X113726000Y-87527040I175000J0D01*
G01*
X115076000Y-87527040D01*
G75*
G02*
X115251000Y-87702040I0J-175000D01*
G01*
X115251000Y-88052040D01*
G75*
G02*
X115076000Y-88227040I-175000J0D01*
G01*
X113726000Y-88227040D01*
G75*
G02*
X113551000Y-88052040I0J175000D01*
G01*
G37*
%TD*%
%TO.C,U5*%
G36*
G01*
X41801000Y-168652040D02*
X41801000Y-168302040D01*
G75*
G02*
X41976000Y-168127040I175000J0D01*
G01*
X43326000Y-168127040D01*
G75*
G02*
X43501000Y-168302040I0J-175000D01*
G01*
X43501000Y-168652040D01*
G75*
G02*
X43326000Y-168827040I-175000J0D01*
G01*
X41976000Y-168827040D01*
G75*
G02*
X41801000Y-168652040I0J175000D01*
G01*
G37*
G36*
G01*
X41801000Y-169922040D02*
X41801000Y-169572040D01*
G75*
G02*
X41976000Y-169397040I175000J0D01*
G01*
X43326000Y-169397040D01*
G75*
G02*
X43501000Y-169572040I0J-175000D01*
G01*
X43501000Y-169922040D01*
G75*
G02*
X43326000Y-170097040I-175000J0D01*
G01*
X41976000Y-170097040D01*
G75*
G02*
X41801000Y-169922040I0J175000D01*
G01*
G37*
G36*
G01*
X41801000Y-171192040D02*
X41801000Y-170842040D01*
G75*
G02*
X41976000Y-170667040I175000J0D01*
G01*
X43326000Y-170667040D01*
G75*
G02*
X43501000Y-170842040I0J-175000D01*
G01*
X43501000Y-171192040D01*
G75*
G02*
X43326000Y-171367040I-175000J0D01*
G01*
X41976000Y-171367040D01*
G75*
G02*
X41801000Y-171192040I0J175000D01*
G01*
G37*
G36*
G01*
X41801000Y-172462040D02*
X41801000Y-172112040D01*
G75*
G02*
X41976000Y-171937040I175000J0D01*
G01*
X43326000Y-171937040D01*
G75*
G02*
X43501000Y-172112040I0J-175000D01*
G01*
X43501000Y-172462040D01*
G75*
G02*
X43326000Y-172637040I-175000J0D01*
G01*
X41976000Y-172637040D01*
G75*
G02*
X41801000Y-172462040I0J175000D01*
G01*
G37*
G36*
G01*
X41801000Y-173732040D02*
X41801000Y-173382040D01*
G75*
G02*
X41976000Y-173207040I175000J0D01*
G01*
X43326000Y-173207040D01*
G75*
G02*
X43501000Y-173382040I0J-175000D01*
G01*
X43501000Y-173732040D01*
G75*
G02*
X43326000Y-173907040I-175000J0D01*
G01*
X41976000Y-173907040D01*
G75*
G02*
X41801000Y-173732040I0J175000D01*
G01*
G37*
G36*
G01*
X41801000Y-175002040D02*
X41801000Y-174652040D01*
G75*
G02*
X41976000Y-174477040I175000J0D01*
G01*
X43326000Y-174477040D01*
G75*
G02*
X43501000Y-174652040I0J-175000D01*
G01*
X43501000Y-175002040D01*
G75*
G02*
X43326000Y-175177040I-175000J0D01*
G01*
X41976000Y-175177040D01*
G75*
G02*
X41801000Y-175002040I0J175000D01*
G01*
G37*
G36*
G01*
X41801000Y-176272040D02*
X41801000Y-175922040D01*
G75*
G02*
X41976000Y-175747040I175000J0D01*
G01*
X43326000Y-175747040D01*
G75*
G02*
X43501000Y-175922040I0J-175000D01*
G01*
X43501000Y-176272040D01*
G75*
G02*
X43326000Y-176447040I-175000J0D01*
G01*
X41976000Y-176447040D01*
G75*
G02*
X41801000Y-176272040I0J175000D01*
G01*
G37*
G36*
G01*
X41801000Y-177542040D02*
X41801000Y-177192040D01*
G75*
G02*
X41976000Y-177017040I175000J0D01*
G01*
X43326000Y-177017040D01*
G75*
G02*
X43501000Y-177192040I0J-175000D01*
G01*
X43501000Y-177542040D01*
G75*
G02*
X43326000Y-177717040I-175000J0D01*
G01*
X41976000Y-177717040D01*
G75*
G02*
X41801000Y-177542040I0J175000D01*
G01*
G37*
G36*
G01*
X35301000Y-177542040D02*
X35301000Y-177192040D01*
G75*
G02*
X35476000Y-177017040I175000J0D01*
G01*
X36826000Y-177017040D01*
G75*
G02*
X37001000Y-177192040I0J-175000D01*
G01*
X37001000Y-177542040D01*
G75*
G02*
X36826000Y-177717040I-175000J0D01*
G01*
X35476000Y-177717040D01*
G75*
G02*
X35301000Y-177542040I0J175000D01*
G01*
G37*
G36*
G01*
X35301000Y-176272040D02*
X35301000Y-175922040D01*
G75*
G02*
X35476000Y-175747040I175000J0D01*
G01*
X36826000Y-175747040D01*
G75*
G02*
X37001000Y-175922040I0J-175000D01*
G01*
X37001000Y-176272040D01*
G75*
G02*
X36826000Y-176447040I-175000J0D01*
G01*
X35476000Y-176447040D01*
G75*
G02*
X35301000Y-176272040I0J175000D01*
G01*
G37*
G36*
G01*
X35301000Y-175002040D02*
X35301000Y-174652040D01*
G75*
G02*
X35476000Y-174477040I175000J0D01*
G01*
X36826000Y-174477040D01*
G75*
G02*
X37001000Y-174652040I0J-175000D01*
G01*
X37001000Y-175002040D01*
G75*
G02*
X36826000Y-175177040I-175000J0D01*
G01*
X35476000Y-175177040D01*
G75*
G02*
X35301000Y-175002040I0J175000D01*
G01*
G37*
G36*
G01*
X35301000Y-173732040D02*
X35301000Y-173382040D01*
G75*
G02*
X35476000Y-173207040I175000J0D01*
G01*
X36826000Y-173207040D01*
G75*
G02*
X37001000Y-173382040I0J-175000D01*
G01*
X37001000Y-173732040D01*
G75*
G02*
X36826000Y-173907040I-175000J0D01*
G01*
X35476000Y-173907040D01*
G75*
G02*
X35301000Y-173732040I0J175000D01*
G01*
G37*
G36*
G01*
X35301000Y-172462040D02*
X35301000Y-172112040D01*
G75*
G02*
X35476000Y-171937040I175000J0D01*
G01*
X36826000Y-171937040D01*
G75*
G02*
X37001000Y-172112040I0J-175000D01*
G01*
X37001000Y-172462040D01*
G75*
G02*
X36826000Y-172637040I-175000J0D01*
G01*
X35476000Y-172637040D01*
G75*
G02*
X35301000Y-172462040I0J175000D01*
G01*
G37*
G36*
G01*
X35301000Y-171192040D02*
X35301000Y-170842040D01*
G75*
G02*
X35476000Y-170667040I175000J0D01*
G01*
X36826000Y-170667040D01*
G75*
G02*
X37001000Y-170842040I0J-175000D01*
G01*
X37001000Y-171192040D01*
G75*
G02*
X36826000Y-171367040I-175000J0D01*
G01*
X35476000Y-171367040D01*
G75*
G02*
X35301000Y-171192040I0J175000D01*
G01*
G37*
G36*
G01*
X35301000Y-169922040D02*
X35301000Y-169572040D01*
G75*
G02*
X35476000Y-169397040I175000J0D01*
G01*
X36826000Y-169397040D01*
G75*
G02*
X37001000Y-169572040I0J-175000D01*
G01*
X37001000Y-169922040D01*
G75*
G02*
X36826000Y-170097040I-175000J0D01*
G01*
X35476000Y-170097040D01*
G75*
G02*
X35301000Y-169922040I0J175000D01*
G01*
G37*
G36*
G01*
X35301000Y-168652040D02*
X35301000Y-168302040D01*
G75*
G02*
X35476000Y-168127040I175000J0D01*
G01*
X36826000Y-168127040D01*
G75*
G02*
X37001000Y-168302040I0J-175000D01*
G01*
X37001000Y-168652040D01*
G75*
G02*
X36826000Y-168827040I-175000J0D01*
G01*
X35476000Y-168827040D01*
G75*
G02*
X35301000Y-168652040I0J175000D01*
G01*
G37*
%TD*%
%TO.C,U4*%
G36*
G01*
X61951000Y-148502040D02*
X61951000Y-148152040D01*
G75*
G02*
X62126000Y-147977040I175000J0D01*
G01*
X63476000Y-147977040D01*
G75*
G02*
X63651000Y-148152040I0J-175000D01*
G01*
X63651000Y-148502040D01*
G75*
G02*
X63476000Y-148677040I-175000J0D01*
G01*
X62126000Y-148677040D01*
G75*
G02*
X61951000Y-148502040I0J175000D01*
G01*
G37*
G36*
G01*
X61951000Y-149772040D02*
X61951000Y-149422040D01*
G75*
G02*
X62126000Y-149247040I175000J0D01*
G01*
X63476000Y-149247040D01*
G75*
G02*
X63651000Y-149422040I0J-175000D01*
G01*
X63651000Y-149772040D01*
G75*
G02*
X63476000Y-149947040I-175000J0D01*
G01*
X62126000Y-149947040D01*
G75*
G02*
X61951000Y-149772040I0J175000D01*
G01*
G37*
G36*
G01*
X61951000Y-151042040D02*
X61951000Y-150692040D01*
G75*
G02*
X62126000Y-150517040I175000J0D01*
G01*
X63476000Y-150517040D01*
G75*
G02*
X63651000Y-150692040I0J-175000D01*
G01*
X63651000Y-151042040D01*
G75*
G02*
X63476000Y-151217040I-175000J0D01*
G01*
X62126000Y-151217040D01*
G75*
G02*
X61951000Y-151042040I0J175000D01*
G01*
G37*
G36*
G01*
X61951000Y-152312040D02*
X61951000Y-151962040D01*
G75*
G02*
X62126000Y-151787040I175000J0D01*
G01*
X63476000Y-151787040D01*
G75*
G02*
X63651000Y-151962040I0J-175000D01*
G01*
X63651000Y-152312040D01*
G75*
G02*
X63476000Y-152487040I-175000J0D01*
G01*
X62126000Y-152487040D01*
G75*
G02*
X61951000Y-152312040I0J175000D01*
G01*
G37*
G36*
G01*
X61951000Y-153582040D02*
X61951000Y-153232040D01*
G75*
G02*
X62126000Y-153057040I175000J0D01*
G01*
X63476000Y-153057040D01*
G75*
G02*
X63651000Y-153232040I0J-175000D01*
G01*
X63651000Y-153582040D01*
G75*
G02*
X63476000Y-153757040I-175000J0D01*
G01*
X62126000Y-153757040D01*
G75*
G02*
X61951000Y-153582040I0J175000D01*
G01*
G37*
G36*
G01*
X61951000Y-154852040D02*
X61951000Y-154502040D01*
G75*
G02*
X62126000Y-154327040I175000J0D01*
G01*
X63476000Y-154327040D01*
G75*
G02*
X63651000Y-154502040I0J-175000D01*
G01*
X63651000Y-154852040D01*
G75*
G02*
X63476000Y-155027040I-175000J0D01*
G01*
X62126000Y-155027040D01*
G75*
G02*
X61951000Y-154852040I0J175000D01*
G01*
G37*
G36*
G01*
X61951000Y-156122040D02*
X61951000Y-155772040D01*
G75*
G02*
X62126000Y-155597040I175000J0D01*
G01*
X63476000Y-155597040D01*
G75*
G02*
X63651000Y-155772040I0J-175000D01*
G01*
X63651000Y-156122040D01*
G75*
G02*
X63476000Y-156297040I-175000J0D01*
G01*
X62126000Y-156297040D01*
G75*
G02*
X61951000Y-156122040I0J175000D01*
G01*
G37*
G36*
G01*
X61951000Y-157392040D02*
X61951000Y-157042040D01*
G75*
G02*
X62126000Y-156867040I175000J0D01*
G01*
X63476000Y-156867040D01*
G75*
G02*
X63651000Y-157042040I0J-175000D01*
G01*
X63651000Y-157392040D01*
G75*
G02*
X63476000Y-157567040I-175000J0D01*
G01*
X62126000Y-157567040D01*
G75*
G02*
X61951000Y-157392040I0J175000D01*
G01*
G37*
G36*
G01*
X55451000Y-157392040D02*
X55451000Y-157042040D01*
G75*
G02*
X55626000Y-156867040I175000J0D01*
G01*
X56976000Y-156867040D01*
G75*
G02*
X57151000Y-157042040I0J-175000D01*
G01*
X57151000Y-157392040D01*
G75*
G02*
X56976000Y-157567040I-175000J0D01*
G01*
X55626000Y-157567040D01*
G75*
G02*
X55451000Y-157392040I0J175000D01*
G01*
G37*
G36*
G01*
X55451000Y-156122040D02*
X55451000Y-155772040D01*
G75*
G02*
X55626000Y-155597040I175000J0D01*
G01*
X56976000Y-155597040D01*
G75*
G02*
X57151000Y-155772040I0J-175000D01*
G01*
X57151000Y-156122040D01*
G75*
G02*
X56976000Y-156297040I-175000J0D01*
G01*
X55626000Y-156297040D01*
G75*
G02*
X55451000Y-156122040I0J175000D01*
G01*
G37*
G36*
G01*
X55451000Y-154852040D02*
X55451000Y-154502040D01*
G75*
G02*
X55626000Y-154327040I175000J0D01*
G01*
X56976000Y-154327040D01*
G75*
G02*
X57151000Y-154502040I0J-175000D01*
G01*
X57151000Y-154852040D01*
G75*
G02*
X56976000Y-155027040I-175000J0D01*
G01*
X55626000Y-155027040D01*
G75*
G02*
X55451000Y-154852040I0J175000D01*
G01*
G37*
G36*
G01*
X55451000Y-153582040D02*
X55451000Y-153232040D01*
G75*
G02*
X55626000Y-153057040I175000J0D01*
G01*
X56976000Y-153057040D01*
G75*
G02*
X57151000Y-153232040I0J-175000D01*
G01*
X57151000Y-153582040D01*
G75*
G02*
X56976000Y-153757040I-175000J0D01*
G01*
X55626000Y-153757040D01*
G75*
G02*
X55451000Y-153582040I0J175000D01*
G01*
G37*
G36*
G01*
X55451000Y-152312040D02*
X55451000Y-151962040D01*
G75*
G02*
X55626000Y-151787040I175000J0D01*
G01*
X56976000Y-151787040D01*
G75*
G02*
X57151000Y-151962040I0J-175000D01*
G01*
X57151000Y-152312040D01*
G75*
G02*
X56976000Y-152487040I-175000J0D01*
G01*
X55626000Y-152487040D01*
G75*
G02*
X55451000Y-152312040I0J175000D01*
G01*
G37*
G36*
G01*
X55451000Y-151042040D02*
X55451000Y-150692040D01*
G75*
G02*
X55626000Y-150517040I175000J0D01*
G01*
X56976000Y-150517040D01*
G75*
G02*
X57151000Y-150692040I0J-175000D01*
G01*
X57151000Y-151042040D01*
G75*
G02*
X56976000Y-151217040I-175000J0D01*
G01*
X55626000Y-151217040D01*
G75*
G02*
X55451000Y-151042040I0J175000D01*
G01*
G37*
G36*
G01*
X55451000Y-149772040D02*
X55451000Y-149422040D01*
G75*
G02*
X55626000Y-149247040I175000J0D01*
G01*
X56976000Y-149247040D01*
G75*
G02*
X57151000Y-149422040I0J-175000D01*
G01*
X57151000Y-149772040D01*
G75*
G02*
X56976000Y-149947040I-175000J0D01*
G01*
X55626000Y-149947040D01*
G75*
G02*
X55451000Y-149772040I0J175000D01*
G01*
G37*
G36*
G01*
X55451000Y-148502040D02*
X55451000Y-148152040D01*
G75*
G02*
X55626000Y-147977040I175000J0D01*
G01*
X56976000Y-147977040D01*
G75*
G02*
X57151000Y-148152040I0J-175000D01*
G01*
X57151000Y-148502040D01*
G75*
G02*
X56976000Y-148677040I-175000J0D01*
G01*
X55626000Y-148677040D01*
G75*
G02*
X55451000Y-148502040I0J175000D01*
G01*
G37*
%TD*%
%TO.C,U3*%
G36*
G01*
X111901000Y-100302040D02*
X111901000Y-99952040D01*
G75*
G02*
X112076000Y-99777040I175000J0D01*
G01*
X113426000Y-99777040D01*
G75*
G02*
X113601000Y-99952040I0J-175000D01*
G01*
X113601000Y-100302040D01*
G75*
G02*
X113426000Y-100477040I-175000J0D01*
G01*
X112076000Y-100477040D01*
G75*
G02*
X111901000Y-100302040I0J175000D01*
G01*
G37*
G36*
G01*
X111901000Y-101572040D02*
X111901000Y-101222040D01*
G75*
G02*
X112076000Y-101047040I175000J0D01*
G01*
X113426000Y-101047040D01*
G75*
G02*
X113601000Y-101222040I0J-175000D01*
G01*
X113601000Y-101572040D01*
G75*
G02*
X113426000Y-101747040I-175000J0D01*
G01*
X112076000Y-101747040D01*
G75*
G02*
X111901000Y-101572040I0J175000D01*
G01*
G37*
G36*
G01*
X111901000Y-102842040D02*
X111901000Y-102492040D01*
G75*
G02*
X112076000Y-102317040I175000J0D01*
G01*
X113426000Y-102317040D01*
G75*
G02*
X113601000Y-102492040I0J-175000D01*
G01*
X113601000Y-102842040D01*
G75*
G02*
X113426000Y-103017040I-175000J0D01*
G01*
X112076000Y-103017040D01*
G75*
G02*
X111901000Y-102842040I0J175000D01*
G01*
G37*
G36*
G01*
X111901000Y-104112040D02*
X111901000Y-103762040D01*
G75*
G02*
X112076000Y-103587040I175000J0D01*
G01*
X113426000Y-103587040D01*
G75*
G02*
X113601000Y-103762040I0J-175000D01*
G01*
X113601000Y-104112040D01*
G75*
G02*
X113426000Y-104287040I-175000J0D01*
G01*
X112076000Y-104287040D01*
G75*
G02*
X111901000Y-104112040I0J175000D01*
G01*
G37*
G36*
G01*
X111901000Y-105382040D02*
X111901000Y-105032040D01*
G75*
G02*
X112076000Y-104857040I175000J0D01*
G01*
X113426000Y-104857040D01*
G75*
G02*
X113601000Y-105032040I0J-175000D01*
G01*
X113601000Y-105382040D01*
G75*
G02*
X113426000Y-105557040I-175000J0D01*
G01*
X112076000Y-105557040D01*
G75*
G02*
X111901000Y-105382040I0J175000D01*
G01*
G37*
G36*
G01*
X111901000Y-106652040D02*
X111901000Y-106302040D01*
G75*
G02*
X112076000Y-106127040I175000J0D01*
G01*
X113426000Y-106127040D01*
G75*
G02*
X113601000Y-106302040I0J-175000D01*
G01*
X113601000Y-106652040D01*
G75*
G02*
X113426000Y-106827040I-175000J0D01*
G01*
X112076000Y-106827040D01*
G75*
G02*
X111901000Y-106652040I0J175000D01*
G01*
G37*
G36*
G01*
X111901000Y-107922040D02*
X111901000Y-107572040D01*
G75*
G02*
X112076000Y-107397040I175000J0D01*
G01*
X113426000Y-107397040D01*
G75*
G02*
X113601000Y-107572040I0J-175000D01*
G01*
X113601000Y-107922040D01*
G75*
G02*
X113426000Y-108097040I-175000J0D01*
G01*
X112076000Y-108097040D01*
G75*
G02*
X111901000Y-107922040I0J175000D01*
G01*
G37*
G36*
G01*
X111901000Y-109192040D02*
X111901000Y-108842040D01*
G75*
G02*
X112076000Y-108667040I175000J0D01*
G01*
X113426000Y-108667040D01*
G75*
G02*
X113601000Y-108842040I0J-175000D01*
G01*
X113601000Y-109192040D01*
G75*
G02*
X113426000Y-109367040I-175000J0D01*
G01*
X112076000Y-109367040D01*
G75*
G02*
X111901000Y-109192040I0J175000D01*
G01*
G37*
G36*
G01*
X105401000Y-109192040D02*
X105401000Y-108842040D01*
G75*
G02*
X105576000Y-108667040I175000J0D01*
G01*
X106926000Y-108667040D01*
G75*
G02*
X107101000Y-108842040I0J-175000D01*
G01*
X107101000Y-109192040D01*
G75*
G02*
X106926000Y-109367040I-175000J0D01*
G01*
X105576000Y-109367040D01*
G75*
G02*
X105401000Y-109192040I0J175000D01*
G01*
G37*
G36*
G01*
X105401000Y-107922040D02*
X105401000Y-107572040D01*
G75*
G02*
X105576000Y-107397040I175000J0D01*
G01*
X106926000Y-107397040D01*
G75*
G02*
X107101000Y-107572040I0J-175000D01*
G01*
X107101000Y-107922040D01*
G75*
G02*
X106926000Y-108097040I-175000J0D01*
G01*
X105576000Y-108097040D01*
G75*
G02*
X105401000Y-107922040I0J175000D01*
G01*
G37*
G36*
G01*
X105401000Y-106652040D02*
X105401000Y-106302040D01*
G75*
G02*
X105576000Y-106127040I175000J0D01*
G01*
X106926000Y-106127040D01*
G75*
G02*
X107101000Y-106302040I0J-175000D01*
G01*
X107101000Y-106652040D01*
G75*
G02*
X106926000Y-106827040I-175000J0D01*
G01*
X105576000Y-106827040D01*
G75*
G02*
X105401000Y-106652040I0J175000D01*
G01*
G37*
G36*
G01*
X105401000Y-105382040D02*
X105401000Y-105032040D01*
G75*
G02*
X105576000Y-104857040I175000J0D01*
G01*
X106926000Y-104857040D01*
G75*
G02*
X107101000Y-105032040I0J-175000D01*
G01*
X107101000Y-105382040D01*
G75*
G02*
X106926000Y-105557040I-175000J0D01*
G01*
X105576000Y-105557040D01*
G75*
G02*
X105401000Y-105382040I0J175000D01*
G01*
G37*
G36*
G01*
X105401000Y-104112040D02*
X105401000Y-103762040D01*
G75*
G02*
X105576000Y-103587040I175000J0D01*
G01*
X106926000Y-103587040D01*
G75*
G02*
X107101000Y-103762040I0J-175000D01*
G01*
X107101000Y-104112040D01*
G75*
G02*
X106926000Y-104287040I-175000J0D01*
G01*
X105576000Y-104287040D01*
G75*
G02*
X105401000Y-104112040I0J175000D01*
G01*
G37*
G36*
G01*
X105401000Y-102842040D02*
X105401000Y-102492040D01*
G75*
G02*
X105576000Y-102317040I175000J0D01*
G01*
X106926000Y-102317040D01*
G75*
G02*
X107101000Y-102492040I0J-175000D01*
G01*
X107101000Y-102842040D01*
G75*
G02*
X106926000Y-103017040I-175000J0D01*
G01*
X105576000Y-103017040D01*
G75*
G02*
X105401000Y-102842040I0J175000D01*
G01*
G37*
G36*
G01*
X105401000Y-101572040D02*
X105401000Y-101222040D01*
G75*
G02*
X105576000Y-101047040I175000J0D01*
G01*
X106926000Y-101047040D01*
G75*
G02*
X107101000Y-101222040I0J-175000D01*
G01*
X107101000Y-101572040D01*
G75*
G02*
X106926000Y-101747040I-175000J0D01*
G01*
X105576000Y-101747040D01*
G75*
G02*
X105401000Y-101572040I0J175000D01*
G01*
G37*
G36*
G01*
X105401000Y-100302040D02*
X105401000Y-99952040D01*
G75*
G02*
X105576000Y-99777040I175000J0D01*
G01*
X106926000Y-99777040D01*
G75*
G02*
X107101000Y-99952040I0J-175000D01*
G01*
X107101000Y-100302040D01*
G75*
G02*
X106926000Y-100477040I-175000J0D01*
G01*
X105576000Y-100477040D01*
G75*
G02*
X105401000Y-100302040I0J175000D01*
G01*
G37*
%TD*%
%TO.C,U2*%
G36*
G01*
X91751000Y-124252040D02*
X91751000Y-123902040D01*
G75*
G02*
X91926000Y-123727040I175000J0D01*
G01*
X93276000Y-123727040D01*
G75*
G02*
X93451000Y-123902040I0J-175000D01*
G01*
X93451000Y-124252040D01*
G75*
G02*
X93276000Y-124427040I-175000J0D01*
G01*
X91926000Y-124427040D01*
G75*
G02*
X91751000Y-124252040I0J175000D01*
G01*
G37*
G36*
G01*
X91751000Y-125522040D02*
X91751000Y-125172040D01*
G75*
G02*
X91926000Y-124997040I175000J0D01*
G01*
X93276000Y-124997040D01*
G75*
G02*
X93451000Y-125172040I0J-175000D01*
G01*
X93451000Y-125522040D01*
G75*
G02*
X93276000Y-125697040I-175000J0D01*
G01*
X91926000Y-125697040D01*
G75*
G02*
X91751000Y-125522040I0J175000D01*
G01*
G37*
G36*
G01*
X91751000Y-126792040D02*
X91751000Y-126442040D01*
G75*
G02*
X91926000Y-126267040I175000J0D01*
G01*
X93276000Y-126267040D01*
G75*
G02*
X93451000Y-126442040I0J-175000D01*
G01*
X93451000Y-126792040D01*
G75*
G02*
X93276000Y-126967040I-175000J0D01*
G01*
X91926000Y-126967040D01*
G75*
G02*
X91751000Y-126792040I0J175000D01*
G01*
G37*
G36*
G01*
X91751000Y-128062040D02*
X91751000Y-127712040D01*
G75*
G02*
X91926000Y-127537040I175000J0D01*
G01*
X93276000Y-127537040D01*
G75*
G02*
X93451000Y-127712040I0J-175000D01*
G01*
X93451000Y-128062040D01*
G75*
G02*
X93276000Y-128237040I-175000J0D01*
G01*
X91926000Y-128237040D01*
G75*
G02*
X91751000Y-128062040I0J175000D01*
G01*
G37*
G36*
G01*
X91751000Y-129332040D02*
X91751000Y-128982040D01*
G75*
G02*
X91926000Y-128807040I175000J0D01*
G01*
X93276000Y-128807040D01*
G75*
G02*
X93451000Y-128982040I0J-175000D01*
G01*
X93451000Y-129332040D01*
G75*
G02*
X93276000Y-129507040I-175000J0D01*
G01*
X91926000Y-129507040D01*
G75*
G02*
X91751000Y-129332040I0J175000D01*
G01*
G37*
G36*
G01*
X91751000Y-130602040D02*
X91751000Y-130252040D01*
G75*
G02*
X91926000Y-130077040I175000J0D01*
G01*
X93276000Y-130077040D01*
G75*
G02*
X93451000Y-130252040I0J-175000D01*
G01*
X93451000Y-130602040D01*
G75*
G02*
X93276000Y-130777040I-175000J0D01*
G01*
X91926000Y-130777040D01*
G75*
G02*
X91751000Y-130602040I0J175000D01*
G01*
G37*
G36*
G01*
X91751000Y-131872040D02*
X91751000Y-131522040D01*
G75*
G02*
X91926000Y-131347040I175000J0D01*
G01*
X93276000Y-131347040D01*
G75*
G02*
X93451000Y-131522040I0J-175000D01*
G01*
X93451000Y-131872040D01*
G75*
G02*
X93276000Y-132047040I-175000J0D01*
G01*
X91926000Y-132047040D01*
G75*
G02*
X91751000Y-131872040I0J175000D01*
G01*
G37*
G36*
G01*
X91751000Y-133142040D02*
X91751000Y-132792040D01*
G75*
G02*
X91926000Y-132617040I175000J0D01*
G01*
X93276000Y-132617040D01*
G75*
G02*
X93451000Y-132792040I0J-175000D01*
G01*
X93451000Y-133142040D01*
G75*
G02*
X93276000Y-133317040I-175000J0D01*
G01*
X91926000Y-133317040D01*
G75*
G02*
X91751000Y-133142040I0J175000D01*
G01*
G37*
G36*
G01*
X85251000Y-133142040D02*
X85251000Y-132792040D01*
G75*
G02*
X85426000Y-132617040I175000J0D01*
G01*
X86776000Y-132617040D01*
G75*
G02*
X86951000Y-132792040I0J-175000D01*
G01*
X86951000Y-133142040D01*
G75*
G02*
X86776000Y-133317040I-175000J0D01*
G01*
X85426000Y-133317040D01*
G75*
G02*
X85251000Y-133142040I0J175000D01*
G01*
G37*
G36*
G01*
X85251000Y-131872040D02*
X85251000Y-131522040D01*
G75*
G02*
X85426000Y-131347040I175000J0D01*
G01*
X86776000Y-131347040D01*
G75*
G02*
X86951000Y-131522040I0J-175000D01*
G01*
X86951000Y-131872040D01*
G75*
G02*
X86776000Y-132047040I-175000J0D01*
G01*
X85426000Y-132047040D01*
G75*
G02*
X85251000Y-131872040I0J175000D01*
G01*
G37*
G36*
G01*
X85251000Y-130602040D02*
X85251000Y-130252040D01*
G75*
G02*
X85426000Y-130077040I175000J0D01*
G01*
X86776000Y-130077040D01*
G75*
G02*
X86951000Y-130252040I0J-175000D01*
G01*
X86951000Y-130602040D01*
G75*
G02*
X86776000Y-130777040I-175000J0D01*
G01*
X85426000Y-130777040D01*
G75*
G02*
X85251000Y-130602040I0J175000D01*
G01*
G37*
G36*
G01*
X85251000Y-129332040D02*
X85251000Y-128982040D01*
G75*
G02*
X85426000Y-128807040I175000J0D01*
G01*
X86776000Y-128807040D01*
G75*
G02*
X86951000Y-128982040I0J-175000D01*
G01*
X86951000Y-129332040D01*
G75*
G02*
X86776000Y-129507040I-175000J0D01*
G01*
X85426000Y-129507040D01*
G75*
G02*
X85251000Y-129332040I0J175000D01*
G01*
G37*
G36*
G01*
X85251000Y-128062040D02*
X85251000Y-127712040D01*
G75*
G02*
X85426000Y-127537040I175000J0D01*
G01*
X86776000Y-127537040D01*
G75*
G02*
X86951000Y-127712040I0J-175000D01*
G01*
X86951000Y-128062040D01*
G75*
G02*
X86776000Y-128237040I-175000J0D01*
G01*
X85426000Y-128237040D01*
G75*
G02*
X85251000Y-128062040I0J175000D01*
G01*
G37*
G36*
G01*
X85251000Y-126792040D02*
X85251000Y-126442040D01*
G75*
G02*
X85426000Y-126267040I175000J0D01*
G01*
X86776000Y-126267040D01*
G75*
G02*
X86951000Y-126442040I0J-175000D01*
G01*
X86951000Y-126792040D01*
G75*
G02*
X86776000Y-126967040I-175000J0D01*
G01*
X85426000Y-126967040D01*
G75*
G02*
X85251000Y-126792040I0J175000D01*
G01*
G37*
G36*
G01*
X85251000Y-125522040D02*
X85251000Y-125172040D01*
G75*
G02*
X85426000Y-124997040I175000J0D01*
G01*
X86776000Y-124997040D01*
G75*
G02*
X86951000Y-125172040I0J-175000D01*
G01*
X86951000Y-125522040D01*
G75*
G02*
X86776000Y-125697040I-175000J0D01*
G01*
X85426000Y-125697040D01*
G75*
G02*
X85251000Y-125522040I0J175000D01*
G01*
G37*
G36*
G01*
X85251000Y-124252040D02*
X85251000Y-123902040D01*
G75*
G02*
X85426000Y-123727040I175000J0D01*
G01*
X86776000Y-123727040D01*
G75*
G02*
X86951000Y-123902040I0J-175000D01*
G01*
X86951000Y-124252040D01*
G75*
G02*
X86776000Y-124427040I-175000J0D01*
G01*
X85426000Y-124427040D01*
G75*
G02*
X85251000Y-124252040I0J175000D01*
G01*
G37*
%TD*%
%TO.C,U1*%
G36*
G01*
X21651000Y-188802040D02*
X21651000Y-188452040D01*
G75*
G02*
X21826000Y-188277040I175000J0D01*
G01*
X23176000Y-188277040D01*
G75*
G02*
X23351000Y-188452040I0J-175000D01*
G01*
X23351000Y-188802040D01*
G75*
G02*
X23176000Y-188977040I-175000J0D01*
G01*
X21826000Y-188977040D01*
G75*
G02*
X21651000Y-188802040I0J175000D01*
G01*
G37*
G36*
G01*
X21651000Y-190072040D02*
X21651000Y-189722040D01*
G75*
G02*
X21826000Y-189547040I175000J0D01*
G01*
X23176000Y-189547040D01*
G75*
G02*
X23351000Y-189722040I0J-175000D01*
G01*
X23351000Y-190072040D01*
G75*
G02*
X23176000Y-190247040I-175000J0D01*
G01*
X21826000Y-190247040D01*
G75*
G02*
X21651000Y-190072040I0J175000D01*
G01*
G37*
G36*
G01*
X21651000Y-191342040D02*
X21651000Y-190992040D01*
G75*
G02*
X21826000Y-190817040I175000J0D01*
G01*
X23176000Y-190817040D01*
G75*
G02*
X23351000Y-190992040I0J-175000D01*
G01*
X23351000Y-191342040D01*
G75*
G02*
X23176000Y-191517040I-175000J0D01*
G01*
X21826000Y-191517040D01*
G75*
G02*
X21651000Y-191342040I0J175000D01*
G01*
G37*
G36*
G01*
X21651000Y-192612040D02*
X21651000Y-192262040D01*
G75*
G02*
X21826000Y-192087040I175000J0D01*
G01*
X23176000Y-192087040D01*
G75*
G02*
X23351000Y-192262040I0J-175000D01*
G01*
X23351000Y-192612040D01*
G75*
G02*
X23176000Y-192787040I-175000J0D01*
G01*
X21826000Y-192787040D01*
G75*
G02*
X21651000Y-192612040I0J175000D01*
G01*
G37*
G36*
G01*
X21651000Y-193882040D02*
X21651000Y-193532040D01*
G75*
G02*
X21826000Y-193357040I175000J0D01*
G01*
X23176000Y-193357040D01*
G75*
G02*
X23351000Y-193532040I0J-175000D01*
G01*
X23351000Y-193882040D01*
G75*
G02*
X23176000Y-194057040I-175000J0D01*
G01*
X21826000Y-194057040D01*
G75*
G02*
X21651000Y-193882040I0J175000D01*
G01*
G37*
G36*
G01*
X21651000Y-195152040D02*
X21651000Y-194802040D01*
G75*
G02*
X21826000Y-194627040I175000J0D01*
G01*
X23176000Y-194627040D01*
G75*
G02*
X23351000Y-194802040I0J-175000D01*
G01*
X23351000Y-195152040D01*
G75*
G02*
X23176000Y-195327040I-175000J0D01*
G01*
X21826000Y-195327040D01*
G75*
G02*
X21651000Y-195152040I0J175000D01*
G01*
G37*
G36*
G01*
X21651000Y-196422040D02*
X21651000Y-196072040D01*
G75*
G02*
X21826000Y-195897040I175000J0D01*
G01*
X23176000Y-195897040D01*
G75*
G02*
X23351000Y-196072040I0J-175000D01*
G01*
X23351000Y-196422040D01*
G75*
G02*
X23176000Y-196597040I-175000J0D01*
G01*
X21826000Y-196597040D01*
G75*
G02*
X21651000Y-196422040I0J175000D01*
G01*
G37*
G36*
G01*
X21651000Y-197692040D02*
X21651000Y-197342040D01*
G75*
G02*
X21826000Y-197167040I175000J0D01*
G01*
X23176000Y-197167040D01*
G75*
G02*
X23351000Y-197342040I0J-175000D01*
G01*
X23351000Y-197692040D01*
G75*
G02*
X23176000Y-197867040I-175000J0D01*
G01*
X21826000Y-197867040D01*
G75*
G02*
X21651000Y-197692040I0J175000D01*
G01*
G37*
G36*
G01*
X15151000Y-197692040D02*
X15151000Y-197342040D01*
G75*
G02*
X15326000Y-197167040I175000J0D01*
G01*
X16676000Y-197167040D01*
G75*
G02*
X16851000Y-197342040I0J-175000D01*
G01*
X16851000Y-197692040D01*
G75*
G02*
X16676000Y-197867040I-175000J0D01*
G01*
X15326000Y-197867040D01*
G75*
G02*
X15151000Y-197692040I0J175000D01*
G01*
G37*
G36*
G01*
X15151000Y-196422040D02*
X15151000Y-196072040D01*
G75*
G02*
X15326000Y-195897040I175000J0D01*
G01*
X16676000Y-195897040D01*
G75*
G02*
X16851000Y-196072040I0J-175000D01*
G01*
X16851000Y-196422040D01*
G75*
G02*
X16676000Y-196597040I-175000J0D01*
G01*
X15326000Y-196597040D01*
G75*
G02*
X15151000Y-196422040I0J175000D01*
G01*
G37*
G36*
G01*
X15151000Y-195152040D02*
X15151000Y-194802040D01*
G75*
G02*
X15326000Y-194627040I175000J0D01*
G01*
X16676000Y-194627040D01*
G75*
G02*
X16851000Y-194802040I0J-175000D01*
G01*
X16851000Y-195152040D01*
G75*
G02*
X16676000Y-195327040I-175000J0D01*
G01*
X15326000Y-195327040D01*
G75*
G02*
X15151000Y-195152040I0J175000D01*
G01*
G37*
G36*
G01*
X15151000Y-193882040D02*
X15151000Y-193532040D01*
G75*
G02*
X15326000Y-193357040I175000J0D01*
G01*
X16676000Y-193357040D01*
G75*
G02*
X16851000Y-193532040I0J-175000D01*
G01*
X16851000Y-193882040D01*
G75*
G02*
X16676000Y-194057040I-175000J0D01*
G01*
X15326000Y-194057040D01*
G75*
G02*
X15151000Y-193882040I0J175000D01*
G01*
G37*
G36*
G01*
X15151000Y-192612040D02*
X15151000Y-192262040D01*
G75*
G02*
X15326000Y-192087040I175000J0D01*
G01*
X16676000Y-192087040D01*
G75*
G02*
X16851000Y-192262040I0J-175000D01*
G01*
X16851000Y-192612040D01*
G75*
G02*
X16676000Y-192787040I-175000J0D01*
G01*
X15326000Y-192787040D01*
G75*
G02*
X15151000Y-192612040I0J175000D01*
G01*
G37*
G36*
G01*
X15151000Y-191342040D02*
X15151000Y-190992040D01*
G75*
G02*
X15326000Y-190817040I175000J0D01*
G01*
X16676000Y-190817040D01*
G75*
G02*
X16851000Y-190992040I0J-175000D01*
G01*
X16851000Y-191342040D01*
G75*
G02*
X16676000Y-191517040I-175000J0D01*
G01*
X15326000Y-191517040D01*
G75*
G02*
X15151000Y-191342040I0J175000D01*
G01*
G37*
G36*
G01*
X15151000Y-190072040D02*
X15151000Y-189722040D01*
G75*
G02*
X15326000Y-189547040I175000J0D01*
G01*
X16676000Y-189547040D01*
G75*
G02*
X16851000Y-189722040I0J-175000D01*
G01*
X16851000Y-190072040D01*
G75*
G02*
X16676000Y-190247040I-175000J0D01*
G01*
X15326000Y-190247040D01*
G75*
G02*
X15151000Y-190072040I0J175000D01*
G01*
G37*
G36*
G01*
X15151000Y-188802040D02*
X15151000Y-188452040D01*
G75*
G02*
X15326000Y-188277040I175000J0D01*
G01*
X16676000Y-188277040D01*
G75*
G02*
X16851000Y-188452040I0J-175000D01*
G01*
X16851000Y-188802040D01*
G75*
G02*
X16676000Y-188977040I-175000J0D01*
G01*
X15326000Y-188977040D01*
G75*
G02*
X15151000Y-188802040I0J175000D01*
G01*
G37*
%TD*%
D11*
%TO.C,SW83*%
X84401000Y-114572040D03*
D12*
X76901000Y-112072040D03*
D13*
X76901000Y-114572040D03*
X76901000Y-117072040D03*
D14*
X84401000Y-108972040D03*
X84401000Y-120172040D03*
D13*
X91401000Y-112072040D03*
X91401000Y-117072040D03*
%TD*%
D15*
%TO.C,SW82*%
X-91319000Y-197222040D03*
X-101479000Y-197222040D03*
D16*
X-96399000Y-197222040D03*
D17*
X-93859000Y-192142040D03*
X-100209000Y-194682040D03*
%TD*%
D15*
%TO.C,SW81*%
X-71169000Y-177072040D03*
X-81329000Y-177072040D03*
D16*
X-76249000Y-177072040D03*
D17*
X-73709000Y-171992040D03*
X-80059000Y-174532040D03*
%TD*%
D15*
%TO.C,SW80*%
X-51019000Y-156922040D03*
X-61179000Y-156922040D03*
D16*
X-56099000Y-156922040D03*
D17*
X-53559000Y-151842040D03*
X-59909000Y-154382040D03*
%TD*%
D15*
%TO.C,SW79*%
X-30869000Y-136772040D03*
X-41029000Y-136772040D03*
D16*
X-35949000Y-136772040D03*
D17*
X-33409000Y-131692040D03*
X-39759000Y-134232040D03*
%TD*%
D15*
%TO.C,SW78*%
X-131619000Y-156922040D03*
X-141779000Y-156922040D03*
D16*
X-136699000Y-156922040D03*
D17*
X-134159000Y-151842040D03*
X-140509000Y-154382040D03*
%TD*%
D15*
%TO.C,SW77*%
X-151769000Y-116622040D03*
X-161929000Y-116622040D03*
D16*
X-156849000Y-116622040D03*
D17*
X-154309000Y-111542040D03*
X-160659000Y-114082040D03*
%TD*%
D15*
%TO.C,SW76*%
X-131619000Y-96472040D03*
X-141779000Y-96472040D03*
D16*
X-136699000Y-96472040D03*
D17*
X-134159000Y-91392040D03*
X-140509000Y-93932040D03*
%TD*%
D15*
%TO.C,SW75*%
X-151769000Y-136772040D03*
X-161929000Y-136772040D03*
D16*
X-156849000Y-136772040D03*
D17*
X-154309000Y-131692040D03*
X-160659000Y-134232040D03*
%TD*%
D15*
%TO.C,SW74*%
X-131619000Y-116622040D03*
X-141779000Y-116622040D03*
D16*
X-136699000Y-116622040D03*
D17*
X-134159000Y-111542040D03*
X-140509000Y-114082040D03*
%TD*%
D15*
%TO.C,SW73*%
X-111469000Y-96472040D03*
X-121629000Y-96472040D03*
D16*
X-116549000Y-96472040D03*
D17*
X-114009000Y-91392040D03*
X-120359000Y-93932040D03*
%TD*%
D15*
%TO.C,SW72*%
X-151769000Y-156922040D03*
X-161929000Y-156922040D03*
D16*
X-156849000Y-156922040D03*
D17*
X-154309000Y-151842040D03*
X-160659000Y-154382040D03*
%TD*%
D15*
%TO.C,SW71*%
X-131619000Y-136772040D03*
X-141779000Y-136772040D03*
D16*
X-136699000Y-136772040D03*
D17*
X-134159000Y-131692040D03*
X-140509000Y-134232040D03*
%TD*%
D15*
%TO.C,SW70*%
X-111469000Y-116622040D03*
X-121629000Y-116622040D03*
D16*
X-116549000Y-116622040D03*
D17*
X-114009000Y-111542040D03*
X-120359000Y-114082040D03*
%TD*%
D15*
%TO.C,SW69*%
X-111469000Y-217372040D03*
X-121629000Y-217372040D03*
D16*
X-116549000Y-217372040D03*
D17*
X-114009000Y-212292040D03*
X-120359000Y-214832040D03*
%TD*%
D15*
%TO.C,SW68*%
X69881000Y-116622040D03*
X59721000Y-116622040D03*
D16*
X64801000Y-116622040D03*
D17*
X67341000Y-111542040D03*
X60991000Y-114082040D03*
%TD*%
D15*
%TO.C,SW67*%
X49731000Y-136772040D03*
X39571000Y-136772040D03*
D16*
X44651000Y-136772040D03*
D17*
X47191000Y-131692040D03*
X40841000Y-134232040D03*
%TD*%
D15*
%TO.C,SW66*%
X29581000Y-156922040D03*
X19421000Y-156922040D03*
D16*
X24501000Y-156922040D03*
D17*
X27041000Y-151842040D03*
X20691000Y-154382040D03*
%TD*%
D15*
%TO.C,SW65*%
X9431000Y-177072040D03*
X-729000Y-177072040D03*
D16*
X4351000Y-177072040D03*
D17*
X6891000Y-171992040D03*
X541000Y-174532040D03*
%TD*%
D15*
%TO.C,SW64*%
X-10719000Y-197222040D03*
X-20879000Y-197222040D03*
D16*
X-15799000Y-197222040D03*
D17*
X-13259000Y-192142040D03*
X-19609000Y-194682040D03*
%TD*%
D15*
%TO.C,SW63*%
X-30869000Y-217372040D03*
X-41029000Y-217372040D03*
D16*
X-35949000Y-217372040D03*
D17*
X-33409000Y-212292040D03*
X-39759000Y-214832040D03*
%TD*%
D15*
%TO.C,SW62*%
X-51019000Y-237522040D03*
X-61179000Y-237522040D03*
D16*
X-56099000Y-237522040D03*
D17*
X-53559000Y-232442040D03*
X-59909000Y-234982040D03*
%TD*%
D15*
%TO.C,SW61*%
X69881000Y-96472040D03*
X59721000Y-96472040D03*
D16*
X64801000Y-96472040D03*
D17*
X67341000Y-91392040D03*
X60991000Y-93932040D03*
%TD*%
D15*
%TO.C,SW60*%
X49731000Y-116622040D03*
X39571000Y-116622040D03*
D16*
X44651000Y-116622040D03*
D17*
X47191000Y-111542040D03*
X40841000Y-114082040D03*
%TD*%
D15*
%TO.C,SW59*%
X29581000Y-136772040D03*
X19421000Y-136772040D03*
D16*
X24501000Y-136772040D03*
D17*
X27041000Y-131692040D03*
X20691000Y-134232040D03*
%TD*%
D15*
%TO.C,SW58*%
X9431000Y-96472040D03*
X-729000Y-96472040D03*
D16*
X4351000Y-96472040D03*
D17*
X6891000Y-91392040D03*
X541000Y-93932040D03*
%TD*%
D15*
%TO.C,SW57*%
X-131619000Y-237522040D03*
X-141779000Y-237522040D03*
D16*
X-136699000Y-237522040D03*
D17*
X-134159000Y-232442040D03*
X-140509000Y-234982040D03*
%TD*%
D15*
%TO.C,SW56*%
X-91319000Y-156922040D03*
X-101479000Y-156922040D03*
D16*
X-96399000Y-156922040D03*
D17*
X-93859000Y-151842040D03*
X-100209000Y-154382040D03*
%TD*%
D15*
%TO.C,SW55*%
X-10719000Y-96472040D03*
X-20879000Y-96472040D03*
D16*
X-15799000Y-96472040D03*
D17*
X-13259000Y-91392040D03*
X-19609000Y-93932040D03*
%TD*%
D15*
%TO.C,SW54*%
X-30869000Y-116622040D03*
X-41029000Y-116622040D03*
D16*
X-35949000Y-116622040D03*
D17*
X-33409000Y-111542040D03*
X-39759000Y-114082040D03*
%TD*%
D15*
%TO.C,SW53*%
X-51019000Y-136772040D03*
X-61179000Y-136772040D03*
D16*
X-56099000Y-136772040D03*
D17*
X-53559000Y-131692040D03*
X-59909000Y-134232040D03*
%TD*%
D15*
%TO.C,SW52*%
X-151769000Y-217372040D03*
X-161929000Y-217372040D03*
D16*
X-156849000Y-217372040D03*
D17*
X-154309000Y-212292040D03*
X-160659000Y-214832040D03*
%TD*%
D15*
%TO.C,SW51*%
X-91319000Y-177072040D03*
X-101479000Y-177072040D03*
D16*
X-96399000Y-177072040D03*
D17*
X-93859000Y-171992040D03*
X-100209000Y-174532040D03*
%TD*%
D15*
%TO.C,SW50*%
X-111469000Y-197222040D03*
X-121629000Y-197222040D03*
D16*
X-116549000Y-197222040D03*
D17*
X-114009000Y-192142040D03*
X-120359000Y-194682040D03*
%TD*%
D15*
%TO.C,SW49*%
X-131619000Y-217372040D03*
X-141779000Y-217372040D03*
D16*
X-136699000Y-217372040D03*
D17*
X-134159000Y-212292040D03*
X-140509000Y-214832040D03*
%TD*%
D15*
%TO.C,SW48*%
X-151769000Y-237522040D03*
X-161929000Y-237522040D03*
D16*
X-156849000Y-237522040D03*
D17*
X-154309000Y-232442040D03*
X-160659000Y-234982040D03*
%TD*%
D15*
%TO.C,SW47*%
X-30869000Y-96472040D03*
X-41029000Y-96472040D03*
D16*
X-35949000Y-96472040D03*
D17*
X-33409000Y-91392040D03*
X-39759000Y-93932040D03*
%TD*%
D15*
%TO.C,SW46*%
X-51019000Y-116622040D03*
X-61179000Y-116622040D03*
D16*
X-56099000Y-116622040D03*
D17*
X-53559000Y-111542040D03*
X-59909000Y-114082040D03*
%TD*%
D15*
%TO.C,SW45*%
X-71169000Y-136772040D03*
X-81329000Y-136772040D03*
D16*
X-76249000Y-136772040D03*
D17*
X-73709000Y-131692040D03*
X-80059000Y-134232040D03*
%TD*%
D15*
%TO.C,SW44*%
X-131619000Y-197222040D03*
X-141779000Y-197222040D03*
D16*
X-136699000Y-197222040D03*
D17*
X-134159000Y-192142040D03*
X-140509000Y-194682040D03*
%TD*%
D15*
%TO.C,SW43*%
X-111469000Y-177072040D03*
X-121629000Y-177072040D03*
D16*
X-116549000Y-177072040D03*
D17*
X-114009000Y-171992040D03*
X-120359000Y-174532040D03*
%TD*%
D15*
%TO.C,SW42*%
X-51019000Y-96472040D03*
X-61179000Y-96472040D03*
D16*
X-56099000Y-96472040D03*
D17*
X-53559000Y-91392040D03*
X-59909000Y-93932040D03*
%TD*%
D15*
%TO.C,SW41*%
X-10719000Y-217372040D03*
X-20879000Y-217372040D03*
D16*
X-15799000Y-217372040D03*
D17*
X-13259000Y-212292040D03*
X-19609000Y-214832040D03*
%TD*%
D15*
%TO.C,SW40*%
X9431000Y-197222040D03*
X-729000Y-197222040D03*
D16*
X4351000Y-197222040D03*
D17*
X6891000Y-192142040D03*
X541000Y-194682040D03*
%TD*%
D15*
%TO.C,SW39*%
X29581000Y-177072040D03*
X19421000Y-177072040D03*
D16*
X24501000Y-177072040D03*
D17*
X27041000Y-171992040D03*
X20691000Y-174532040D03*
%TD*%
D15*
%TO.C,SW38*%
X49731000Y-156922040D03*
X39571000Y-156922040D03*
D16*
X44651000Y-156922040D03*
D17*
X47191000Y-151842040D03*
X40841000Y-154382040D03*
%TD*%
D15*
%TO.C,SW37*%
X9431000Y-156922040D03*
X-729000Y-156922040D03*
D16*
X4351000Y-156922040D03*
D17*
X6891000Y-151842040D03*
X541000Y-154382040D03*
%TD*%
D15*
%TO.C,SW36*%
X69881000Y-136772040D03*
X59721000Y-136772040D03*
D16*
X64801000Y-136772040D03*
D17*
X67341000Y-131692040D03*
X60991000Y-134232040D03*
%TD*%
D15*
%TO.C,SW35*%
X-71169000Y-217372040D03*
X-81329000Y-217372040D03*
D16*
X-76249000Y-217372040D03*
D17*
X-73709000Y-212292040D03*
X-80059000Y-214832040D03*
%TD*%
D15*
%TO.C,SW34*%
X-111469000Y-237522040D03*
X-121629000Y-237522040D03*
D16*
X-116549000Y-237522040D03*
D17*
X-114009000Y-232442040D03*
X-120359000Y-234982040D03*
%TD*%
D15*
%TO.C,SW33*%
X-91319000Y-217372040D03*
X-101479000Y-217372040D03*
D16*
X-96399000Y-217372040D03*
D17*
X-93859000Y-212292040D03*
X-100209000Y-214832040D03*
%TD*%
D15*
%TO.C,SW32*%
X-71169000Y-197222040D03*
X-81329000Y-197222040D03*
D16*
X-76249000Y-197222040D03*
D17*
X-73709000Y-192142040D03*
X-80059000Y-194682040D03*
%TD*%
D15*
%TO.C,SW31*%
X-51019000Y-177072040D03*
X-61179000Y-177072040D03*
D16*
X-56099000Y-177072040D03*
D17*
X-53559000Y-171992040D03*
X-59909000Y-174532040D03*
%TD*%
D15*
%TO.C,SW30*%
X-30869000Y-156922040D03*
X-41029000Y-156922040D03*
D16*
X-35949000Y-156922040D03*
D17*
X-33409000Y-151842040D03*
X-39759000Y-154382040D03*
%TD*%
D15*
%TO.C,SW29*%
X-10719000Y-136772040D03*
X-20879000Y-136772040D03*
D16*
X-15799000Y-136772040D03*
D17*
X-13259000Y-131692040D03*
X-19609000Y-134232040D03*
%TD*%
D15*
%TO.C,SW28*%
X90031000Y-96472040D03*
X79871000Y-96472040D03*
D16*
X84951000Y-96472040D03*
D17*
X87491000Y-91392040D03*
X81141000Y-93932040D03*
%TD*%
D15*
%TO.C,SW27*%
X29581000Y-96472040D03*
X19421000Y-96472040D03*
D16*
X24501000Y-96472040D03*
D17*
X27041000Y-91392040D03*
X20691000Y-93932040D03*
%TD*%
D15*
%TO.C,SW26*%
X-91319000Y-237522040D03*
X-101479000Y-237522040D03*
D16*
X-96399000Y-237522040D03*
D17*
X-93859000Y-232442040D03*
X-100209000Y-234982040D03*
%TD*%
D15*
%TO.C,SW25*%
X-10719000Y-116622040D03*
X-20879000Y-116622040D03*
D16*
X-15799000Y-116622040D03*
D17*
X-13259000Y-111542040D03*
X-19609000Y-114082040D03*
%TD*%
D15*
%TO.C,SW24*%
X-51019000Y-197222040D03*
X-61179000Y-197222040D03*
D16*
X-56099000Y-197222040D03*
D17*
X-53559000Y-192142040D03*
X-59909000Y-194682040D03*
%TD*%
D15*
%TO.C,SW23*%
X-30869000Y-177072040D03*
X-41029000Y-177072040D03*
D16*
X-35949000Y-177072040D03*
D17*
X-33409000Y-171992040D03*
X-39759000Y-174532040D03*
%TD*%
D15*
%TO.C,SW22*%
X-10719000Y-156922040D03*
X-20879000Y-156922040D03*
D16*
X-15799000Y-156922040D03*
D17*
X-13259000Y-151842040D03*
X-19609000Y-154382040D03*
%TD*%
D15*
%TO.C,SW21*%
X9431000Y-136772040D03*
X-729000Y-136772040D03*
D16*
X4351000Y-136772040D03*
D17*
X6891000Y-131692040D03*
X541000Y-134232040D03*
%TD*%
D15*
%TO.C,SW20*%
X29581000Y-116622040D03*
X19421000Y-116622040D03*
D16*
X24501000Y-116622040D03*
D17*
X27041000Y-111542040D03*
X20691000Y-114082040D03*
%TD*%
D15*
%TO.C,SW19*%
X49731000Y-96472040D03*
X39571000Y-96472040D03*
D16*
X44651000Y-96472040D03*
D17*
X47191000Y-91392040D03*
X40841000Y-93932040D03*
%TD*%
D15*
%TO.C,SW18*%
X-71169000Y-237522040D03*
X-81329000Y-237522040D03*
D16*
X-76249000Y-237522040D03*
D17*
X-73709000Y-232442040D03*
X-80059000Y-234982040D03*
%TD*%
D15*
%TO.C,SW17*%
X-51019000Y-217372040D03*
X-61179000Y-217372040D03*
D16*
X-56099000Y-217372040D03*
D17*
X-53559000Y-212292040D03*
X-59909000Y-214832040D03*
%TD*%
D15*
%TO.C,SW16*%
X-30869000Y-197222040D03*
X-41029000Y-197222040D03*
D16*
X-35949000Y-197222040D03*
D17*
X-33409000Y-192142040D03*
X-39759000Y-194682040D03*
%TD*%
D15*
%TO.C,SW15*%
X-10719000Y-177072040D03*
X-20879000Y-177072040D03*
D16*
X-15799000Y-177072040D03*
D17*
X-13259000Y-171992040D03*
X-19609000Y-174532040D03*
%TD*%
D15*
%TO.C,SW14*%
X9431000Y-116622040D03*
X-729000Y-116622040D03*
D16*
X4351000Y-116622040D03*
D17*
X6891000Y-111542040D03*
X541000Y-114082040D03*
%TD*%
D15*
%TO.C,SW13*%
X-91319000Y-96472040D03*
X-101479000Y-96472040D03*
D16*
X-96399000Y-96472040D03*
D17*
X-93859000Y-91392040D03*
X-100209000Y-93932040D03*
%TD*%
D15*
%TO.C,SW12*%
X-151769000Y-177072040D03*
X-161929000Y-177072040D03*
D16*
X-156849000Y-177072040D03*
D17*
X-154309000Y-171992040D03*
X-160659000Y-174532040D03*
%TD*%
D15*
%TO.C,SW11*%
X-151769000Y-96472040D03*
X-161929000Y-96472040D03*
D16*
X-156849000Y-96472040D03*
D17*
X-154309000Y-91392040D03*
X-160659000Y-93932040D03*
%TD*%
D15*
%TO.C,SW10*%
X-111469000Y-136772040D03*
X-121629000Y-136772040D03*
D16*
X-116549000Y-136772040D03*
D17*
X-114009000Y-131692040D03*
X-120359000Y-134232040D03*
%TD*%
D15*
%TO.C,SW9*%
X-91319000Y-116622040D03*
X-101479000Y-116622040D03*
D16*
X-96399000Y-116622040D03*
D17*
X-93859000Y-111542040D03*
X-100209000Y-114082040D03*
%TD*%
D15*
%TO.C,SW8*%
X-71169000Y-96472040D03*
X-81329000Y-96472040D03*
D16*
X-76249000Y-96472040D03*
D17*
X-73709000Y-91392040D03*
X-80059000Y-93932040D03*
%TD*%
D15*
%TO.C,SW7*%
X-151769000Y-197222040D03*
X-161929000Y-197222040D03*
D16*
X-156849000Y-197222040D03*
D17*
X-154309000Y-192142040D03*
X-160659000Y-194682040D03*
%TD*%
D15*
%TO.C,SW6*%
X-131619000Y-177072040D03*
X-141779000Y-177072040D03*
D16*
X-136699000Y-177072040D03*
D17*
X-134159000Y-171992040D03*
X-140509000Y-174532040D03*
%TD*%
D15*
%TO.C,SW5*%
X-111469000Y-156922040D03*
X-121629000Y-156922040D03*
D16*
X-116549000Y-156922040D03*
D17*
X-114009000Y-151842040D03*
X-120359000Y-154382040D03*
%TD*%
D15*
%TO.C,SW4*%
X-91319000Y-136772040D03*
X-101479000Y-136772040D03*
D16*
X-96399000Y-136772040D03*
D17*
X-93859000Y-131692040D03*
X-100209000Y-134232040D03*
%TD*%
D15*
%TO.C,SW3*%
X-71169000Y-116622040D03*
X-81329000Y-116622040D03*
D16*
X-76249000Y-116622040D03*
D17*
X-73709000Y-111542040D03*
X-80059000Y-114082040D03*
%TD*%
D15*
%TO.C,SW2*%
X-71169000Y-156922040D03*
X-81329000Y-156922040D03*
D16*
X-76249000Y-156922040D03*
D17*
X-73709000Y-151842040D03*
X-80059000Y-154382040D03*
%TD*%
D15*
%TO.C,SW1*%
X-30869000Y-237522040D03*
X-41029000Y-237522040D03*
D16*
X-35949000Y-237522040D03*
D17*
X-33409000Y-232442040D03*
X-39759000Y-234982040D03*
%TD*%
D18*
%TO.C,RN22*%
X-163949000Y-251172040D03*
D19*
X-163949000Y-250372040D03*
D18*
X-163949000Y-248772040D03*
D19*
X-163949000Y-249572040D03*
D18*
X-165749000Y-251172040D03*
D19*
X-165749000Y-249572040D03*
X-165749000Y-250372040D03*
D18*
X-165749000Y-248772040D03*
%TD*%
%TO.C,RN21*%
X-151499000Y-251172040D03*
D19*
X-151499000Y-250372040D03*
D18*
X-151499000Y-248772040D03*
D19*
X-151499000Y-249572040D03*
D18*
X-153299000Y-251172040D03*
D19*
X-153299000Y-249572040D03*
X-153299000Y-250372040D03*
D18*
X-153299000Y-248772040D03*
%TD*%
%TO.C,RN20*%
X-122449000Y-251172040D03*
D19*
X-122449000Y-250372040D03*
D18*
X-122449000Y-248772040D03*
D19*
X-122449000Y-249572040D03*
D18*
X-124249000Y-251172040D03*
D19*
X-124249000Y-249572040D03*
X-124249000Y-250372040D03*
D18*
X-124249000Y-248772040D03*
%TD*%
%TO.C,RN19*%
X-114149000Y-251172040D03*
D19*
X-114149000Y-250372040D03*
D18*
X-114149000Y-248772040D03*
D19*
X-114149000Y-249572040D03*
D18*
X-115949000Y-251172040D03*
D19*
X-115949000Y-249572040D03*
X-115949000Y-250372040D03*
D18*
X-115949000Y-248772040D03*
%TD*%
%TO.C,RN18*%
X-109999000Y-251172040D03*
D19*
X-109999000Y-250372040D03*
D18*
X-109999000Y-248772040D03*
D19*
X-109999000Y-249572040D03*
D18*
X-111799000Y-251172040D03*
D19*
X-111799000Y-249572040D03*
X-111799000Y-250372040D03*
D18*
X-111799000Y-248772040D03*
%TD*%
%TO.C,RN17*%
X-155649000Y-251172040D03*
D19*
X-155649000Y-250372040D03*
D18*
X-155649000Y-248772040D03*
D19*
X-155649000Y-249572040D03*
D18*
X-157449000Y-251172040D03*
D19*
X-157449000Y-249572040D03*
X-157449000Y-250372040D03*
D18*
X-157449000Y-248772040D03*
%TD*%
%TO.C,RN16*%
X-147349000Y-251172040D03*
D19*
X-147349000Y-250372040D03*
D18*
X-147349000Y-248772040D03*
D19*
X-147349000Y-249572040D03*
D18*
X-149149000Y-251172040D03*
D19*
X-149149000Y-249572040D03*
X-149149000Y-250372040D03*
D18*
X-149149000Y-248772040D03*
%TD*%
%TO.C,RN15*%
X-143199000Y-251172040D03*
D19*
X-143199000Y-250372040D03*
D18*
X-143199000Y-248772040D03*
D19*
X-143199000Y-249572040D03*
D18*
X-144999000Y-251172040D03*
D19*
X-144999000Y-249572040D03*
X-144999000Y-250372040D03*
D18*
X-144999000Y-248772040D03*
%TD*%
%TO.C,RN14*%
X-139049000Y-251172040D03*
D19*
X-139049000Y-250372040D03*
D18*
X-139049000Y-248772040D03*
D19*
X-139049000Y-249572040D03*
D18*
X-140849000Y-251172040D03*
D19*
X-140849000Y-249572040D03*
X-140849000Y-250372040D03*
D18*
X-140849000Y-248772040D03*
%TD*%
%TO.C,RN13*%
X-134899000Y-251172040D03*
D19*
X-134899000Y-250372040D03*
D18*
X-134899000Y-248772040D03*
D19*
X-134899000Y-249572040D03*
D18*
X-136699000Y-251172040D03*
D19*
X-136699000Y-249572040D03*
X-136699000Y-250372040D03*
D18*
X-136699000Y-248772040D03*
%TD*%
%TO.C,RN12*%
X-130749000Y-251172040D03*
D19*
X-130749000Y-250372040D03*
D18*
X-130749000Y-248772040D03*
D19*
X-130749000Y-249572040D03*
D18*
X-132549000Y-251172040D03*
D19*
X-132549000Y-249572040D03*
X-132549000Y-250372040D03*
D18*
X-132549000Y-248772040D03*
%TD*%
%TO.C,RN11*%
X-126599000Y-251172040D03*
D19*
X-126599000Y-250372040D03*
D18*
X-126599000Y-248772040D03*
D19*
X-126599000Y-249572040D03*
D18*
X-128399000Y-251172040D03*
D19*
X-128399000Y-249572040D03*
X-128399000Y-250372040D03*
D18*
X-128399000Y-248772040D03*
%TD*%
%TO.C,RN10*%
X-118299000Y-251172040D03*
D19*
X-118299000Y-250372040D03*
D18*
X-118299000Y-248772040D03*
D19*
X-118299000Y-249572040D03*
D18*
X-120099000Y-251172040D03*
D19*
X-120099000Y-249572040D03*
X-120099000Y-250372040D03*
D18*
X-120099000Y-248772040D03*
%TD*%
%TO.C,RN9*%
X-159799000Y-251172040D03*
D19*
X-159799000Y-250372040D03*
D18*
X-159799000Y-248772040D03*
D19*
X-159799000Y-249572040D03*
D18*
X-161599000Y-251172040D03*
D19*
X-161599000Y-249572040D03*
X-161599000Y-250372040D03*
D18*
X-161599000Y-248772040D03*
%TD*%
%TO.C,RN8*%
X-76799000Y-251172040D03*
D19*
X-76799000Y-250372040D03*
D18*
X-76799000Y-248772040D03*
D19*
X-76799000Y-249572040D03*
D18*
X-78599000Y-251172040D03*
D19*
X-78599000Y-249572040D03*
X-78599000Y-250372040D03*
D18*
X-78599000Y-248772040D03*
%TD*%
%TO.C,RN7*%
X-105849000Y-251172040D03*
D19*
X-105849000Y-250372040D03*
D18*
X-105849000Y-248772040D03*
D19*
X-105849000Y-249572040D03*
D18*
X-107649000Y-251172040D03*
D19*
X-107649000Y-249572040D03*
X-107649000Y-250372040D03*
D18*
X-107649000Y-248772040D03*
%TD*%
%TO.C,RN6*%
X-101699000Y-251172040D03*
D19*
X-101699000Y-250372040D03*
D18*
X-101699000Y-248772040D03*
D19*
X-101699000Y-249572040D03*
D18*
X-103499000Y-251172040D03*
D19*
X-103499000Y-249572040D03*
X-103499000Y-250372040D03*
D18*
X-103499000Y-248772040D03*
%TD*%
%TO.C,RN5*%
X-97549000Y-251172040D03*
D19*
X-97549000Y-250372040D03*
D18*
X-97549000Y-248772040D03*
D19*
X-97549000Y-249572040D03*
D18*
X-99349000Y-251172040D03*
D19*
X-99349000Y-249572040D03*
X-99349000Y-250372040D03*
D18*
X-99349000Y-248772040D03*
%TD*%
%TO.C,RN4*%
X-93399000Y-251172040D03*
D19*
X-93399000Y-250372040D03*
D18*
X-93399000Y-248772040D03*
D19*
X-93399000Y-249572040D03*
D18*
X-95199000Y-251172040D03*
D19*
X-95199000Y-249572040D03*
X-95199000Y-250372040D03*
D18*
X-95199000Y-248772040D03*
%TD*%
%TO.C,RN3*%
X-89249000Y-251172040D03*
D19*
X-89249000Y-250372040D03*
D18*
X-89249000Y-248772040D03*
D19*
X-89249000Y-249572040D03*
D18*
X-91049000Y-251172040D03*
D19*
X-91049000Y-249572040D03*
X-91049000Y-250372040D03*
D18*
X-91049000Y-248772040D03*
%TD*%
%TO.C,RN2*%
X-85099000Y-251172040D03*
D19*
X-85099000Y-250372040D03*
D18*
X-85099000Y-248772040D03*
D19*
X-85099000Y-249572040D03*
D18*
X-86899000Y-251172040D03*
D19*
X-86899000Y-249572040D03*
X-86899000Y-250372040D03*
D18*
X-86899000Y-248772040D03*
%TD*%
%TO.C,RN1*%
X-80949000Y-251172040D03*
D19*
X-80949000Y-250372040D03*
D18*
X-80949000Y-248772040D03*
D19*
X-80949000Y-249572040D03*
D18*
X-82749000Y-251172040D03*
D19*
X-82749000Y-249572040D03*
X-82749000Y-250372040D03*
D18*
X-82749000Y-248772040D03*
%TD*%
D20*
%TO.C,R7*%
X-28260840Y-248920000D03*
X-30059160Y-248920000D03*
%TD*%
%TO.C,R6*%
X-32300840Y-248920000D03*
X-34099160Y-248920000D03*
%TD*%
%TO.C,R5*%
X125399160Y-90360000D03*
X123600840Y-90360000D03*
%TD*%
%TO.C,R4*%
X125399160Y-87720000D03*
X123600840Y-87720000D03*
%TD*%
%TO.C,R3*%
X-36340840Y-248920000D03*
X-38139160Y-248920000D03*
%TD*%
%TO.C,R2*%
X-44420840Y-248920000D03*
X-46219160Y-248920000D03*
%TD*%
%TO.C,R1*%
X-40380840Y-248920000D03*
X-42179160Y-248920000D03*
%TD*%
D21*
%TO.C,J2*%
X83871000Y-136052040D03*
X83071000Y-136052040D03*
X83871000Y-136052040D03*
X83071000Y-136052040D03*
X77471000Y-136052040D03*
X77471000Y-136052040D03*
X78271000Y-136052040D03*
X78271000Y-136052040D03*
D22*
X77781000Y-137112040D03*
X83561000Y-137112040D03*
D23*
X82421000Y-136052040D03*
X81421000Y-136052040D03*
X81921000Y-136052040D03*
X79421000Y-136052040D03*
X78921000Y-136052040D03*
X80921000Y-136052040D03*
X80421000Y-136052040D03*
X79921000Y-136052040D03*
D24*
X84991000Y-140802040D03*
X76351000Y-140802040D03*
D25*
X84991000Y-136632040D03*
X76351000Y-136632040D03*
%TD*%
D26*
%TO.C,J1*%
X110501000Y-96342040D03*
X110501000Y-93802040D03*
X110501000Y-91262040D03*
D27*
X110501000Y-88722040D03*
%TD*%
D20*
%TO.C,C8*%
X-72700840Y-248920000D03*
X-74499160Y-248920000D03*
%TD*%
%TO.C,C7*%
X-68660840Y-248920000D03*
X-70459160Y-248920000D03*
%TD*%
%TO.C,C6*%
X-64620840Y-248920000D03*
X-66419160Y-248920000D03*
%TD*%
%TO.C,C5*%
X-60580840Y-248920000D03*
X-62379160Y-248920000D03*
%TD*%
%TO.C,C4*%
X-56540840Y-248920000D03*
X-58339160Y-248920000D03*
%TD*%
%TO.C,C3*%
X-52500840Y-248920000D03*
X-54299160Y-248920000D03*
%TD*%
%TO.C,C2*%
X-48460840Y-248920000D03*
X-50259160Y-248920000D03*
%TD*%
%TO.C,C1*%
X125399160Y-93000000D03*
X123600840Y-93000000D03*
%TD*%
M02*
