%TF.GenerationSoftware,KiCad,Pcbnew,(5.1.6)-1*%
%TF.CreationDate,2022-08-21T13:28:18+08:00*%
%TF.ProjectId,feng,66656e67-2e6b-4696-9361-645f70636258,rev?*%
%TF.SameCoordinates,Original*%
%TF.FileFunction,Soldermask,Bot*%
%TF.FilePolarity,Negative*%
%FSLAX46Y46*%
G04 Gerber Fmt 4.6, Leading zero omitted, Abs format (unit mm)*
G04 Created by KiCad (PCBNEW (5.1.6)-1) date 2022-08-21 13:28:18*
%MOMM*%
%LPD*%
G01*
G04 APERTURE LIST*
%ADD10C,1.600000*%
%ADD11C,6.100000*%
%ADD12R,2.100000X2.100000*%
%ADD13C,2.100000*%
%ADD14C,2.900000*%
%ADD15C,1.850000*%
%ADD16C,4.100000*%
%ADD17C,3.150000*%
%ADD18C,0.700000*%
%ADD19O,1.000000X1.800000*%
%ADD20O,1.000000X2.100000*%
%ADD21O,1.800000X1.800000*%
%ADD22R,1.800000X1.800000*%
%ADD23R,1.600000X1.100000*%
G04 APERTURE END LIST*
D10*
%TO.C,Y1*%
X104031000Y-89722040D03*
X99151000Y-89722040D03*
%TD*%
D11*
%TO.C,SW83*%
X84401000Y-114572040D03*
D12*
X76901000Y-112072040D03*
D13*
X76901000Y-114572040D03*
X76901000Y-117072040D03*
D14*
X84401000Y-108972040D03*
X84401000Y-120172040D03*
D13*
X91401000Y-112072040D03*
X91401000Y-117072040D03*
%TD*%
D15*
%TO.C,SW82*%
X-91319000Y-197222040D03*
X-101479000Y-197222040D03*
D16*
X-96399000Y-197222040D03*
G36*
G01*
X-91882000Y-193182040D02*
X-91882000Y-191102040D01*
G75*
G02*
X-91622000Y-190842040I260000J0D01*
G01*
X-89492000Y-190842040D01*
G75*
G02*
X-89232000Y-191102040I0J-260000D01*
G01*
X-89232000Y-193182040D01*
G75*
G02*
X-89492000Y-193442040I-260000J0D01*
G01*
X-91622000Y-193442040D01*
G75*
G02*
X-91882000Y-193182040I0J260000D01*
G01*
G37*
G36*
G01*
X-104809000Y-195722040D02*
X-104809000Y-193642040D01*
G75*
G02*
X-104549000Y-193382040I260000J0D01*
G01*
X-102419000Y-193382040D01*
G75*
G02*
X-102159000Y-193642040I0J-260000D01*
G01*
X-102159000Y-195722040D01*
G75*
G02*
X-102419000Y-195982040I-260000J0D01*
G01*
X-104549000Y-195982040D01*
G75*
G02*
X-104809000Y-195722040I0J260000D01*
G01*
G37*
D17*
X-93859000Y-192142040D03*
X-100209000Y-194682040D03*
%TD*%
D15*
%TO.C,SW81*%
X-71169000Y-177072040D03*
X-81329000Y-177072040D03*
D16*
X-76249000Y-177072040D03*
G36*
G01*
X-71732000Y-173032040D02*
X-71732000Y-170952040D01*
G75*
G02*
X-71472000Y-170692040I260000J0D01*
G01*
X-69342000Y-170692040D01*
G75*
G02*
X-69082000Y-170952040I0J-260000D01*
G01*
X-69082000Y-173032040D01*
G75*
G02*
X-69342000Y-173292040I-260000J0D01*
G01*
X-71472000Y-173292040D01*
G75*
G02*
X-71732000Y-173032040I0J260000D01*
G01*
G37*
G36*
G01*
X-84659000Y-175572040D02*
X-84659000Y-173492040D01*
G75*
G02*
X-84399000Y-173232040I260000J0D01*
G01*
X-82269000Y-173232040D01*
G75*
G02*
X-82009000Y-173492040I0J-260000D01*
G01*
X-82009000Y-175572040D01*
G75*
G02*
X-82269000Y-175832040I-260000J0D01*
G01*
X-84399000Y-175832040D01*
G75*
G02*
X-84659000Y-175572040I0J260000D01*
G01*
G37*
D17*
X-73709000Y-171992040D03*
X-80059000Y-174532040D03*
%TD*%
D15*
%TO.C,SW80*%
X-51019000Y-156922040D03*
X-61179000Y-156922040D03*
D16*
X-56099000Y-156922040D03*
G36*
G01*
X-51582000Y-152882040D02*
X-51582000Y-150802040D01*
G75*
G02*
X-51322000Y-150542040I260000J0D01*
G01*
X-49192000Y-150542040D01*
G75*
G02*
X-48932000Y-150802040I0J-260000D01*
G01*
X-48932000Y-152882040D01*
G75*
G02*
X-49192000Y-153142040I-260000J0D01*
G01*
X-51322000Y-153142040D01*
G75*
G02*
X-51582000Y-152882040I0J260000D01*
G01*
G37*
G36*
G01*
X-64509000Y-155422040D02*
X-64509000Y-153342040D01*
G75*
G02*
X-64249000Y-153082040I260000J0D01*
G01*
X-62119000Y-153082040D01*
G75*
G02*
X-61859000Y-153342040I0J-260000D01*
G01*
X-61859000Y-155422040D01*
G75*
G02*
X-62119000Y-155682040I-260000J0D01*
G01*
X-64249000Y-155682040D01*
G75*
G02*
X-64509000Y-155422040I0J260000D01*
G01*
G37*
D17*
X-53559000Y-151842040D03*
X-59909000Y-154382040D03*
%TD*%
D15*
%TO.C,SW79*%
X-30869000Y-136772040D03*
X-41029000Y-136772040D03*
D16*
X-35949000Y-136772040D03*
G36*
G01*
X-31432000Y-132732040D02*
X-31432000Y-130652040D01*
G75*
G02*
X-31172000Y-130392040I260000J0D01*
G01*
X-29042000Y-130392040D01*
G75*
G02*
X-28782000Y-130652040I0J-260000D01*
G01*
X-28782000Y-132732040D01*
G75*
G02*
X-29042000Y-132992040I-260000J0D01*
G01*
X-31172000Y-132992040D01*
G75*
G02*
X-31432000Y-132732040I0J260000D01*
G01*
G37*
G36*
G01*
X-44359000Y-135272040D02*
X-44359000Y-133192040D01*
G75*
G02*
X-44099000Y-132932040I260000J0D01*
G01*
X-41969000Y-132932040D01*
G75*
G02*
X-41709000Y-133192040I0J-260000D01*
G01*
X-41709000Y-135272040D01*
G75*
G02*
X-41969000Y-135532040I-260000J0D01*
G01*
X-44099000Y-135532040D01*
G75*
G02*
X-44359000Y-135272040I0J260000D01*
G01*
G37*
D17*
X-33409000Y-131692040D03*
X-39759000Y-134232040D03*
%TD*%
D15*
%TO.C,SW78*%
X-131619000Y-156922040D03*
X-141779000Y-156922040D03*
D16*
X-136699000Y-156922040D03*
G36*
G01*
X-132182000Y-152882040D02*
X-132182000Y-150802040D01*
G75*
G02*
X-131922000Y-150542040I260000J0D01*
G01*
X-129792000Y-150542040D01*
G75*
G02*
X-129532000Y-150802040I0J-260000D01*
G01*
X-129532000Y-152882040D01*
G75*
G02*
X-129792000Y-153142040I-260000J0D01*
G01*
X-131922000Y-153142040D01*
G75*
G02*
X-132182000Y-152882040I0J260000D01*
G01*
G37*
G36*
G01*
X-145109000Y-155422040D02*
X-145109000Y-153342040D01*
G75*
G02*
X-144849000Y-153082040I260000J0D01*
G01*
X-142719000Y-153082040D01*
G75*
G02*
X-142459000Y-153342040I0J-260000D01*
G01*
X-142459000Y-155422040D01*
G75*
G02*
X-142719000Y-155682040I-260000J0D01*
G01*
X-144849000Y-155682040D01*
G75*
G02*
X-145109000Y-155422040I0J260000D01*
G01*
G37*
D17*
X-134159000Y-151842040D03*
X-140509000Y-154382040D03*
%TD*%
D15*
%TO.C,SW77*%
X-151769000Y-116622040D03*
X-161929000Y-116622040D03*
D16*
X-156849000Y-116622040D03*
G36*
G01*
X-152332000Y-112582040D02*
X-152332000Y-110502040D01*
G75*
G02*
X-152072000Y-110242040I260000J0D01*
G01*
X-149942000Y-110242040D01*
G75*
G02*
X-149682000Y-110502040I0J-260000D01*
G01*
X-149682000Y-112582040D01*
G75*
G02*
X-149942000Y-112842040I-260000J0D01*
G01*
X-152072000Y-112842040D01*
G75*
G02*
X-152332000Y-112582040I0J260000D01*
G01*
G37*
G36*
G01*
X-165259000Y-115122040D02*
X-165259000Y-113042040D01*
G75*
G02*
X-164999000Y-112782040I260000J0D01*
G01*
X-162869000Y-112782040D01*
G75*
G02*
X-162609000Y-113042040I0J-260000D01*
G01*
X-162609000Y-115122040D01*
G75*
G02*
X-162869000Y-115382040I-260000J0D01*
G01*
X-164999000Y-115382040D01*
G75*
G02*
X-165259000Y-115122040I0J260000D01*
G01*
G37*
D17*
X-154309000Y-111542040D03*
X-160659000Y-114082040D03*
%TD*%
D15*
%TO.C,SW76*%
X-131619000Y-96472040D03*
X-141779000Y-96472040D03*
D16*
X-136699000Y-96472040D03*
G36*
G01*
X-132182000Y-92432040D02*
X-132182000Y-90352040D01*
G75*
G02*
X-131922000Y-90092040I260000J0D01*
G01*
X-129792000Y-90092040D01*
G75*
G02*
X-129532000Y-90352040I0J-260000D01*
G01*
X-129532000Y-92432040D01*
G75*
G02*
X-129792000Y-92692040I-260000J0D01*
G01*
X-131922000Y-92692040D01*
G75*
G02*
X-132182000Y-92432040I0J260000D01*
G01*
G37*
G36*
G01*
X-145109000Y-94972040D02*
X-145109000Y-92892040D01*
G75*
G02*
X-144849000Y-92632040I260000J0D01*
G01*
X-142719000Y-92632040D01*
G75*
G02*
X-142459000Y-92892040I0J-260000D01*
G01*
X-142459000Y-94972040D01*
G75*
G02*
X-142719000Y-95232040I-260000J0D01*
G01*
X-144849000Y-95232040D01*
G75*
G02*
X-145109000Y-94972040I0J260000D01*
G01*
G37*
D17*
X-134159000Y-91392040D03*
X-140509000Y-93932040D03*
%TD*%
D15*
%TO.C,SW75*%
X-151769000Y-136772040D03*
X-161929000Y-136772040D03*
D16*
X-156849000Y-136772040D03*
G36*
G01*
X-152332000Y-132732040D02*
X-152332000Y-130652040D01*
G75*
G02*
X-152072000Y-130392040I260000J0D01*
G01*
X-149942000Y-130392040D01*
G75*
G02*
X-149682000Y-130652040I0J-260000D01*
G01*
X-149682000Y-132732040D01*
G75*
G02*
X-149942000Y-132992040I-260000J0D01*
G01*
X-152072000Y-132992040D01*
G75*
G02*
X-152332000Y-132732040I0J260000D01*
G01*
G37*
G36*
G01*
X-165259000Y-135272040D02*
X-165259000Y-133192040D01*
G75*
G02*
X-164999000Y-132932040I260000J0D01*
G01*
X-162869000Y-132932040D01*
G75*
G02*
X-162609000Y-133192040I0J-260000D01*
G01*
X-162609000Y-135272040D01*
G75*
G02*
X-162869000Y-135532040I-260000J0D01*
G01*
X-164999000Y-135532040D01*
G75*
G02*
X-165259000Y-135272040I0J260000D01*
G01*
G37*
D17*
X-154309000Y-131692040D03*
X-160659000Y-134232040D03*
%TD*%
D15*
%TO.C,SW74*%
X-131619000Y-116622040D03*
X-141779000Y-116622040D03*
D16*
X-136699000Y-116622040D03*
G36*
G01*
X-132182000Y-112582040D02*
X-132182000Y-110502040D01*
G75*
G02*
X-131922000Y-110242040I260000J0D01*
G01*
X-129792000Y-110242040D01*
G75*
G02*
X-129532000Y-110502040I0J-260000D01*
G01*
X-129532000Y-112582040D01*
G75*
G02*
X-129792000Y-112842040I-260000J0D01*
G01*
X-131922000Y-112842040D01*
G75*
G02*
X-132182000Y-112582040I0J260000D01*
G01*
G37*
G36*
G01*
X-145109000Y-115122040D02*
X-145109000Y-113042040D01*
G75*
G02*
X-144849000Y-112782040I260000J0D01*
G01*
X-142719000Y-112782040D01*
G75*
G02*
X-142459000Y-113042040I0J-260000D01*
G01*
X-142459000Y-115122040D01*
G75*
G02*
X-142719000Y-115382040I-260000J0D01*
G01*
X-144849000Y-115382040D01*
G75*
G02*
X-145109000Y-115122040I0J260000D01*
G01*
G37*
D17*
X-134159000Y-111542040D03*
X-140509000Y-114082040D03*
%TD*%
D15*
%TO.C,SW73*%
X-111469000Y-96472040D03*
X-121629000Y-96472040D03*
D16*
X-116549000Y-96472040D03*
G36*
G01*
X-112032000Y-92432040D02*
X-112032000Y-90352040D01*
G75*
G02*
X-111772000Y-90092040I260000J0D01*
G01*
X-109642000Y-90092040D01*
G75*
G02*
X-109382000Y-90352040I0J-260000D01*
G01*
X-109382000Y-92432040D01*
G75*
G02*
X-109642000Y-92692040I-260000J0D01*
G01*
X-111772000Y-92692040D01*
G75*
G02*
X-112032000Y-92432040I0J260000D01*
G01*
G37*
G36*
G01*
X-124959000Y-94972040D02*
X-124959000Y-92892040D01*
G75*
G02*
X-124699000Y-92632040I260000J0D01*
G01*
X-122569000Y-92632040D01*
G75*
G02*
X-122309000Y-92892040I0J-260000D01*
G01*
X-122309000Y-94972040D01*
G75*
G02*
X-122569000Y-95232040I-260000J0D01*
G01*
X-124699000Y-95232040D01*
G75*
G02*
X-124959000Y-94972040I0J260000D01*
G01*
G37*
D17*
X-114009000Y-91392040D03*
X-120359000Y-93932040D03*
%TD*%
D15*
%TO.C,SW72*%
X-151769000Y-156922040D03*
X-161929000Y-156922040D03*
D16*
X-156849000Y-156922040D03*
G36*
G01*
X-152332000Y-152882040D02*
X-152332000Y-150802040D01*
G75*
G02*
X-152072000Y-150542040I260000J0D01*
G01*
X-149942000Y-150542040D01*
G75*
G02*
X-149682000Y-150802040I0J-260000D01*
G01*
X-149682000Y-152882040D01*
G75*
G02*
X-149942000Y-153142040I-260000J0D01*
G01*
X-152072000Y-153142040D01*
G75*
G02*
X-152332000Y-152882040I0J260000D01*
G01*
G37*
G36*
G01*
X-165259000Y-155422040D02*
X-165259000Y-153342040D01*
G75*
G02*
X-164999000Y-153082040I260000J0D01*
G01*
X-162869000Y-153082040D01*
G75*
G02*
X-162609000Y-153342040I0J-260000D01*
G01*
X-162609000Y-155422040D01*
G75*
G02*
X-162869000Y-155682040I-260000J0D01*
G01*
X-164999000Y-155682040D01*
G75*
G02*
X-165259000Y-155422040I0J260000D01*
G01*
G37*
D17*
X-154309000Y-151842040D03*
X-160659000Y-154382040D03*
%TD*%
D15*
%TO.C,SW71*%
X-131619000Y-136772040D03*
X-141779000Y-136772040D03*
D16*
X-136699000Y-136772040D03*
G36*
G01*
X-132182000Y-132732040D02*
X-132182000Y-130652040D01*
G75*
G02*
X-131922000Y-130392040I260000J0D01*
G01*
X-129792000Y-130392040D01*
G75*
G02*
X-129532000Y-130652040I0J-260000D01*
G01*
X-129532000Y-132732040D01*
G75*
G02*
X-129792000Y-132992040I-260000J0D01*
G01*
X-131922000Y-132992040D01*
G75*
G02*
X-132182000Y-132732040I0J260000D01*
G01*
G37*
G36*
G01*
X-145109000Y-135272040D02*
X-145109000Y-133192040D01*
G75*
G02*
X-144849000Y-132932040I260000J0D01*
G01*
X-142719000Y-132932040D01*
G75*
G02*
X-142459000Y-133192040I0J-260000D01*
G01*
X-142459000Y-135272040D01*
G75*
G02*
X-142719000Y-135532040I-260000J0D01*
G01*
X-144849000Y-135532040D01*
G75*
G02*
X-145109000Y-135272040I0J260000D01*
G01*
G37*
D17*
X-134159000Y-131692040D03*
X-140509000Y-134232040D03*
%TD*%
D15*
%TO.C,SW70*%
X-111469000Y-116622040D03*
X-121629000Y-116622040D03*
D16*
X-116549000Y-116622040D03*
G36*
G01*
X-112032000Y-112582040D02*
X-112032000Y-110502040D01*
G75*
G02*
X-111772000Y-110242040I260000J0D01*
G01*
X-109642000Y-110242040D01*
G75*
G02*
X-109382000Y-110502040I0J-260000D01*
G01*
X-109382000Y-112582040D01*
G75*
G02*
X-109642000Y-112842040I-260000J0D01*
G01*
X-111772000Y-112842040D01*
G75*
G02*
X-112032000Y-112582040I0J260000D01*
G01*
G37*
G36*
G01*
X-124959000Y-115122040D02*
X-124959000Y-113042040D01*
G75*
G02*
X-124699000Y-112782040I260000J0D01*
G01*
X-122569000Y-112782040D01*
G75*
G02*
X-122309000Y-113042040I0J-260000D01*
G01*
X-122309000Y-115122040D01*
G75*
G02*
X-122569000Y-115382040I-260000J0D01*
G01*
X-124699000Y-115382040D01*
G75*
G02*
X-124959000Y-115122040I0J260000D01*
G01*
G37*
D17*
X-114009000Y-111542040D03*
X-120359000Y-114082040D03*
%TD*%
D15*
%TO.C,SW69*%
X-111469000Y-217372040D03*
X-121629000Y-217372040D03*
D16*
X-116549000Y-217372040D03*
G36*
G01*
X-112032000Y-213332040D02*
X-112032000Y-211252040D01*
G75*
G02*
X-111772000Y-210992040I260000J0D01*
G01*
X-109642000Y-210992040D01*
G75*
G02*
X-109382000Y-211252040I0J-260000D01*
G01*
X-109382000Y-213332040D01*
G75*
G02*
X-109642000Y-213592040I-260000J0D01*
G01*
X-111772000Y-213592040D01*
G75*
G02*
X-112032000Y-213332040I0J260000D01*
G01*
G37*
G36*
G01*
X-124959000Y-215872040D02*
X-124959000Y-213792040D01*
G75*
G02*
X-124699000Y-213532040I260000J0D01*
G01*
X-122569000Y-213532040D01*
G75*
G02*
X-122309000Y-213792040I0J-260000D01*
G01*
X-122309000Y-215872040D01*
G75*
G02*
X-122569000Y-216132040I-260000J0D01*
G01*
X-124699000Y-216132040D01*
G75*
G02*
X-124959000Y-215872040I0J260000D01*
G01*
G37*
D17*
X-114009000Y-212292040D03*
X-120359000Y-214832040D03*
%TD*%
D15*
%TO.C,SW68*%
X69881000Y-116622040D03*
X59721000Y-116622040D03*
D16*
X64801000Y-116622040D03*
G36*
G01*
X69318000Y-112582040D02*
X69318000Y-110502040D01*
G75*
G02*
X69578000Y-110242040I260000J0D01*
G01*
X71708000Y-110242040D01*
G75*
G02*
X71968000Y-110502040I0J-260000D01*
G01*
X71968000Y-112582040D01*
G75*
G02*
X71708000Y-112842040I-260000J0D01*
G01*
X69578000Y-112842040D01*
G75*
G02*
X69318000Y-112582040I0J260000D01*
G01*
G37*
G36*
G01*
X56391000Y-115122040D02*
X56391000Y-113042040D01*
G75*
G02*
X56651000Y-112782040I260000J0D01*
G01*
X58781000Y-112782040D01*
G75*
G02*
X59041000Y-113042040I0J-260000D01*
G01*
X59041000Y-115122040D01*
G75*
G02*
X58781000Y-115382040I-260000J0D01*
G01*
X56651000Y-115382040D01*
G75*
G02*
X56391000Y-115122040I0J260000D01*
G01*
G37*
D17*
X67341000Y-111542040D03*
X60991000Y-114082040D03*
%TD*%
D15*
%TO.C,SW67*%
X49731000Y-136772040D03*
X39571000Y-136772040D03*
D16*
X44651000Y-136772040D03*
G36*
G01*
X49168000Y-132732040D02*
X49168000Y-130652040D01*
G75*
G02*
X49428000Y-130392040I260000J0D01*
G01*
X51558000Y-130392040D01*
G75*
G02*
X51818000Y-130652040I0J-260000D01*
G01*
X51818000Y-132732040D01*
G75*
G02*
X51558000Y-132992040I-260000J0D01*
G01*
X49428000Y-132992040D01*
G75*
G02*
X49168000Y-132732040I0J260000D01*
G01*
G37*
G36*
G01*
X36241000Y-135272040D02*
X36241000Y-133192040D01*
G75*
G02*
X36501000Y-132932040I260000J0D01*
G01*
X38631000Y-132932040D01*
G75*
G02*
X38891000Y-133192040I0J-260000D01*
G01*
X38891000Y-135272040D01*
G75*
G02*
X38631000Y-135532040I-260000J0D01*
G01*
X36501000Y-135532040D01*
G75*
G02*
X36241000Y-135272040I0J260000D01*
G01*
G37*
D17*
X47191000Y-131692040D03*
X40841000Y-134232040D03*
%TD*%
D15*
%TO.C,SW66*%
X29581000Y-156922040D03*
X19421000Y-156922040D03*
D16*
X24501000Y-156922040D03*
G36*
G01*
X29018000Y-152882040D02*
X29018000Y-150802040D01*
G75*
G02*
X29278000Y-150542040I260000J0D01*
G01*
X31408000Y-150542040D01*
G75*
G02*
X31668000Y-150802040I0J-260000D01*
G01*
X31668000Y-152882040D01*
G75*
G02*
X31408000Y-153142040I-260000J0D01*
G01*
X29278000Y-153142040D01*
G75*
G02*
X29018000Y-152882040I0J260000D01*
G01*
G37*
G36*
G01*
X16091000Y-155422040D02*
X16091000Y-153342040D01*
G75*
G02*
X16351000Y-153082040I260000J0D01*
G01*
X18481000Y-153082040D01*
G75*
G02*
X18741000Y-153342040I0J-260000D01*
G01*
X18741000Y-155422040D01*
G75*
G02*
X18481000Y-155682040I-260000J0D01*
G01*
X16351000Y-155682040D01*
G75*
G02*
X16091000Y-155422040I0J260000D01*
G01*
G37*
D17*
X27041000Y-151842040D03*
X20691000Y-154382040D03*
%TD*%
D15*
%TO.C,SW65*%
X9431000Y-177072040D03*
X-729000Y-177072040D03*
D16*
X4351000Y-177072040D03*
G36*
G01*
X8868000Y-173032040D02*
X8868000Y-170952040D01*
G75*
G02*
X9128000Y-170692040I260000J0D01*
G01*
X11258000Y-170692040D01*
G75*
G02*
X11518000Y-170952040I0J-260000D01*
G01*
X11518000Y-173032040D01*
G75*
G02*
X11258000Y-173292040I-260000J0D01*
G01*
X9128000Y-173292040D01*
G75*
G02*
X8868000Y-173032040I0J260000D01*
G01*
G37*
G36*
G01*
X-4059000Y-175572040D02*
X-4059000Y-173492040D01*
G75*
G02*
X-3799000Y-173232040I260000J0D01*
G01*
X-1669000Y-173232040D01*
G75*
G02*
X-1409000Y-173492040I0J-260000D01*
G01*
X-1409000Y-175572040D01*
G75*
G02*
X-1669000Y-175832040I-260000J0D01*
G01*
X-3799000Y-175832040D01*
G75*
G02*
X-4059000Y-175572040I0J260000D01*
G01*
G37*
D17*
X6891000Y-171992040D03*
X541000Y-174532040D03*
%TD*%
D15*
%TO.C,SW64*%
X-10719000Y-197222040D03*
X-20879000Y-197222040D03*
D16*
X-15799000Y-197222040D03*
G36*
G01*
X-11282000Y-193182040D02*
X-11282000Y-191102040D01*
G75*
G02*
X-11022000Y-190842040I260000J0D01*
G01*
X-8892000Y-190842040D01*
G75*
G02*
X-8632000Y-191102040I0J-260000D01*
G01*
X-8632000Y-193182040D01*
G75*
G02*
X-8892000Y-193442040I-260000J0D01*
G01*
X-11022000Y-193442040D01*
G75*
G02*
X-11282000Y-193182040I0J260000D01*
G01*
G37*
G36*
G01*
X-24209000Y-195722040D02*
X-24209000Y-193642040D01*
G75*
G02*
X-23949000Y-193382040I260000J0D01*
G01*
X-21819000Y-193382040D01*
G75*
G02*
X-21559000Y-193642040I0J-260000D01*
G01*
X-21559000Y-195722040D01*
G75*
G02*
X-21819000Y-195982040I-260000J0D01*
G01*
X-23949000Y-195982040D01*
G75*
G02*
X-24209000Y-195722040I0J260000D01*
G01*
G37*
D17*
X-13259000Y-192142040D03*
X-19609000Y-194682040D03*
%TD*%
D15*
%TO.C,SW63*%
X-30869000Y-217372040D03*
X-41029000Y-217372040D03*
D16*
X-35949000Y-217372040D03*
G36*
G01*
X-31432000Y-213332040D02*
X-31432000Y-211252040D01*
G75*
G02*
X-31172000Y-210992040I260000J0D01*
G01*
X-29042000Y-210992040D01*
G75*
G02*
X-28782000Y-211252040I0J-260000D01*
G01*
X-28782000Y-213332040D01*
G75*
G02*
X-29042000Y-213592040I-260000J0D01*
G01*
X-31172000Y-213592040D01*
G75*
G02*
X-31432000Y-213332040I0J260000D01*
G01*
G37*
G36*
G01*
X-44359000Y-215872040D02*
X-44359000Y-213792040D01*
G75*
G02*
X-44099000Y-213532040I260000J0D01*
G01*
X-41969000Y-213532040D01*
G75*
G02*
X-41709000Y-213792040I0J-260000D01*
G01*
X-41709000Y-215872040D01*
G75*
G02*
X-41969000Y-216132040I-260000J0D01*
G01*
X-44099000Y-216132040D01*
G75*
G02*
X-44359000Y-215872040I0J260000D01*
G01*
G37*
D17*
X-33409000Y-212292040D03*
X-39759000Y-214832040D03*
%TD*%
D15*
%TO.C,SW62*%
X-51019000Y-237522040D03*
X-61179000Y-237522040D03*
D16*
X-56099000Y-237522040D03*
G36*
G01*
X-51582000Y-233482040D02*
X-51582000Y-231402040D01*
G75*
G02*
X-51322000Y-231142040I260000J0D01*
G01*
X-49192000Y-231142040D01*
G75*
G02*
X-48932000Y-231402040I0J-260000D01*
G01*
X-48932000Y-233482040D01*
G75*
G02*
X-49192000Y-233742040I-260000J0D01*
G01*
X-51322000Y-233742040D01*
G75*
G02*
X-51582000Y-233482040I0J260000D01*
G01*
G37*
G36*
G01*
X-64509000Y-236022040D02*
X-64509000Y-233942040D01*
G75*
G02*
X-64249000Y-233682040I260000J0D01*
G01*
X-62119000Y-233682040D01*
G75*
G02*
X-61859000Y-233942040I0J-260000D01*
G01*
X-61859000Y-236022040D01*
G75*
G02*
X-62119000Y-236282040I-260000J0D01*
G01*
X-64249000Y-236282040D01*
G75*
G02*
X-64509000Y-236022040I0J260000D01*
G01*
G37*
D17*
X-53559000Y-232442040D03*
X-59909000Y-234982040D03*
%TD*%
D15*
%TO.C,SW61*%
X69881000Y-96472040D03*
X59721000Y-96472040D03*
D16*
X64801000Y-96472040D03*
G36*
G01*
X69318000Y-92432040D02*
X69318000Y-90352040D01*
G75*
G02*
X69578000Y-90092040I260000J0D01*
G01*
X71708000Y-90092040D01*
G75*
G02*
X71968000Y-90352040I0J-260000D01*
G01*
X71968000Y-92432040D01*
G75*
G02*
X71708000Y-92692040I-260000J0D01*
G01*
X69578000Y-92692040D01*
G75*
G02*
X69318000Y-92432040I0J260000D01*
G01*
G37*
G36*
G01*
X56391000Y-94972040D02*
X56391000Y-92892040D01*
G75*
G02*
X56651000Y-92632040I260000J0D01*
G01*
X58781000Y-92632040D01*
G75*
G02*
X59041000Y-92892040I0J-260000D01*
G01*
X59041000Y-94972040D01*
G75*
G02*
X58781000Y-95232040I-260000J0D01*
G01*
X56651000Y-95232040D01*
G75*
G02*
X56391000Y-94972040I0J260000D01*
G01*
G37*
D17*
X67341000Y-91392040D03*
X60991000Y-93932040D03*
%TD*%
D15*
%TO.C,SW60*%
X49731000Y-116622040D03*
X39571000Y-116622040D03*
D16*
X44651000Y-116622040D03*
G36*
G01*
X49168000Y-112582040D02*
X49168000Y-110502040D01*
G75*
G02*
X49428000Y-110242040I260000J0D01*
G01*
X51558000Y-110242040D01*
G75*
G02*
X51818000Y-110502040I0J-260000D01*
G01*
X51818000Y-112582040D01*
G75*
G02*
X51558000Y-112842040I-260000J0D01*
G01*
X49428000Y-112842040D01*
G75*
G02*
X49168000Y-112582040I0J260000D01*
G01*
G37*
G36*
G01*
X36241000Y-115122040D02*
X36241000Y-113042040D01*
G75*
G02*
X36501000Y-112782040I260000J0D01*
G01*
X38631000Y-112782040D01*
G75*
G02*
X38891000Y-113042040I0J-260000D01*
G01*
X38891000Y-115122040D01*
G75*
G02*
X38631000Y-115382040I-260000J0D01*
G01*
X36501000Y-115382040D01*
G75*
G02*
X36241000Y-115122040I0J260000D01*
G01*
G37*
D17*
X47191000Y-111542040D03*
X40841000Y-114082040D03*
%TD*%
D15*
%TO.C,SW59*%
X29581000Y-136772040D03*
X19421000Y-136772040D03*
D16*
X24501000Y-136772040D03*
G36*
G01*
X29018000Y-132732040D02*
X29018000Y-130652040D01*
G75*
G02*
X29278000Y-130392040I260000J0D01*
G01*
X31408000Y-130392040D01*
G75*
G02*
X31668000Y-130652040I0J-260000D01*
G01*
X31668000Y-132732040D01*
G75*
G02*
X31408000Y-132992040I-260000J0D01*
G01*
X29278000Y-132992040D01*
G75*
G02*
X29018000Y-132732040I0J260000D01*
G01*
G37*
G36*
G01*
X16091000Y-135272040D02*
X16091000Y-133192040D01*
G75*
G02*
X16351000Y-132932040I260000J0D01*
G01*
X18481000Y-132932040D01*
G75*
G02*
X18741000Y-133192040I0J-260000D01*
G01*
X18741000Y-135272040D01*
G75*
G02*
X18481000Y-135532040I-260000J0D01*
G01*
X16351000Y-135532040D01*
G75*
G02*
X16091000Y-135272040I0J260000D01*
G01*
G37*
D17*
X27041000Y-131692040D03*
X20691000Y-134232040D03*
%TD*%
D15*
%TO.C,SW58*%
X9431000Y-96472040D03*
X-729000Y-96472040D03*
D16*
X4351000Y-96472040D03*
G36*
G01*
X8868000Y-92432040D02*
X8868000Y-90352040D01*
G75*
G02*
X9128000Y-90092040I260000J0D01*
G01*
X11258000Y-90092040D01*
G75*
G02*
X11518000Y-90352040I0J-260000D01*
G01*
X11518000Y-92432040D01*
G75*
G02*
X11258000Y-92692040I-260000J0D01*
G01*
X9128000Y-92692040D01*
G75*
G02*
X8868000Y-92432040I0J260000D01*
G01*
G37*
G36*
G01*
X-4059000Y-94972040D02*
X-4059000Y-92892040D01*
G75*
G02*
X-3799000Y-92632040I260000J0D01*
G01*
X-1669000Y-92632040D01*
G75*
G02*
X-1409000Y-92892040I0J-260000D01*
G01*
X-1409000Y-94972040D01*
G75*
G02*
X-1669000Y-95232040I-260000J0D01*
G01*
X-3799000Y-95232040D01*
G75*
G02*
X-4059000Y-94972040I0J260000D01*
G01*
G37*
D17*
X6891000Y-91392040D03*
X541000Y-93932040D03*
%TD*%
D15*
%TO.C,SW57*%
X-131619000Y-237522040D03*
X-141779000Y-237522040D03*
D16*
X-136699000Y-237522040D03*
G36*
G01*
X-132182000Y-233482040D02*
X-132182000Y-231402040D01*
G75*
G02*
X-131922000Y-231142040I260000J0D01*
G01*
X-129792000Y-231142040D01*
G75*
G02*
X-129532000Y-231402040I0J-260000D01*
G01*
X-129532000Y-233482040D01*
G75*
G02*
X-129792000Y-233742040I-260000J0D01*
G01*
X-131922000Y-233742040D01*
G75*
G02*
X-132182000Y-233482040I0J260000D01*
G01*
G37*
G36*
G01*
X-145109000Y-236022040D02*
X-145109000Y-233942040D01*
G75*
G02*
X-144849000Y-233682040I260000J0D01*
G01*
X-142719000Y-233682040D01*
G75*
G02*
X-142459000Y-233942040I0J-260000D01*
G01*
X-142459000Y-236022040D01*
G75*
G02*
X-142719000Y-236282040I-260000J0D01*
G01*
X-144849000Y-236282040D01*
G75*
G02*
X-145109000Y-236022040I0J260000D01*
G01*
G37*
D17*
X-134159000Y-232442040D03*
X-140509000Y-234982040D03*
%TD*%
D15*
%TO.C,SW56*%
X-91319000Y-156922040D03*
X-101479000Y-156922040D03*
D16*
X-96399000Y-156922040D03*
G36*
G01*
X-91882000Y-152882040D02*
X-91882000Y-150802040D01*
G75*
G02*
X-91622000Y-150542040I260000J0D01*
G01*
X-89492000Y-150542040D01*
G75*
G02*
X-89232000Y-150802040I0J-260000D01*
G01*
X-89232000Y-152882040D01*
G75*
G02*
X-89492000Y-153142040I-260000J0D01*
G01*
X-91622000Y-153142040D01*
G75*
G02*
X-91882000Y-152882040I0J260000D01*
G01*
G37*
G36*
G01*
X-104809000Y-155422040D02*
X-104809000Y-153342040D01*
G75*
G02*
X-104549000Y-153082040I260000J0D01*
G01*
X-102419000Y-153082040D01*
G75*
G02*
X-102159000Y-153342040I0J-260000D01*
G01*
X-102159000Y-155422040D01*
G75*
G02*
X-102419000Y-155682040I-260000J0D01*
G01*
X-104549000Y-155682040D01*
G75*
G02*
X-104809000Y-155422040I0J260000D01*
G01*
G37*
D17*
X-93859000Y-151842040D03*
X-100209000Y-154382040D03*
%TD*%
D15*
%TO.C,SW55*%
X-10719000Y-96472040D03*
X-20879000Y-96472040D03*
D16*
X-15799000Y-96472040D03*
G36*
G01*
X-11282000Y-92432040D02*
X-11282000Y-90352040D01*
G75*
G02*
X-11022000Y-90092040I260000J0D01*
G01*
X-8892000Y-90092040D01*
G75*
G02*
X-8632000Y-90352040I0J-260000D01*
G01*
X-8632000Y-92432040D01*
G75*
G02*
X-8892000Y-92692040I-260000J0D01*
G01*
X-11022000Y-92692040D01*
G75*
G02*
X-11282000Y-92432040I0J260000D01*
G01*
G37*
G36*
G01*
X-24209000Y-94972040D02*
X-24209000Y-92892040D01*
G75*
G02*
X-23949000Y-92632040I260000J0D01*
G01*
X-21819000Y-92632040D01*
G75*
G02*
X-21559000Y-92892040I0J-260000D01*
G01*
X-21559000Y-94972040D01*
G75*
G02*
X-21819000Y-95232040I-260000J0D01*
G01*
X-23949000Y-95232040D01*
G75*
G02*
X-24209000Y-94972040I0J260000D01*
G01*
G37*
D17*
X-13259000Y-91392040D03*
X-19609000Y-93932040D03*
%TD*%
D15*
%TO.C,SW54*%
X-30869000Y-116622040D03*
X-41029000Y-116622040D03*
D16*
X-35949000Y-116622040D03*
G36*
G01*
X-31432000Y-112582040D02*
X-31432000Y-110502040D01*
G75*
G02*
X-31172000Y-110242040I260000J0D01*
G01*
X-29042000Y-110242040D01*
G75*
G02*
X-28782000Y-110502040I0J-260000D01*
G01*
X-28782000Y-112582040D01*
G75*
G02*
X-29042000Y-112842040I-260000J0D01*
G01*
X-31172000Y-112842040D01*
G75*
G02*
X-31432000Y-112582040I0J260000D01*
G01*
G37*
G36*
G01*
X-44359000Y-115122040D02*
X-44359000Y-113042040D01*
G75*
G02*
X-44099000Y-112782040I260000J0D01*
G01*
X-41969000Y-112782040D01*
G75*
G02*
X-41709000Y-113042040I0J-260000D01*
G01*
X-41709000Y-115122040D01*
G75*
G02*
X-41969000Y-115382040I-260000J0D01*
G01*
X-44099000Y-115382040D01*
G75*
G02*
X-44359000Y-115122040I0J260000D01*
G01*
G37*
D17*
X-33409000Y-111542040D03*
X-39759000Y-114082040D03*
%TD*%
D15*
%TO.C,SW53*%
X-51019000Y-136772040D03*
X-61179000Y-136772040D03*
D16*
X-56099000Y-136772040D03*
G36*
G01*
X-51582000Y-132732040D02*
X-51582000Y-130652040D01*
G75*
G02*
X-51322000Y-130392040I260000J0D01*
G01*
X-49192000Y-130392040D01*
G75*
G02*
X-48932000Y-130652040I0J-260000D01*
G01*
X-48932000Y-132732040D01*
G75*
G02*
X-49192000Y-132992040I-260000J0D01*
G01*
X-51322000Y-132992040D01*
G75*
G02*
X-51582000Y-132732040I0J260000D01*
G01*
G37*
G36*
G01*
X-64509000Y-135272040D02*
X-64509000Y-133192040D01*
G75*
G02*
X-64249000Y-132932040I260000J0D01*
G01*
X-62119000Y-132932040D01*
G75*
G02*
X-61859000Y-133192040I0J-260000D01*
G01*
X-61859000Y-135272040D01*
G75*
G02*
X-62119000Y-135532040I-260000J0D01*
G01*
X-64249000Y-135532040D01*
G75*
G02*
X-64509000Y-135272040I0J260000D01*
G01*
G37*
D17*
X-53559000Y-131692040D03*
X-59909000Y-134232040D03*
%TD*%
D15*
%TO.C,SW52*%
X-151769000Y-217372040D03*
X-161929000Y-217372040D03*
D16*
X-156849000Y-217372040D03*
G36*
G01*
X-152332000Y-213332040D02*
X-152332000Y-211252040D01*
G75*
G02*
X-152072000Y-210992040I260000J0D01*
G01*
X-149942000Y-210992040D01*
G75*
G02*
X-149682000Y-211252040I0J-260000D01*
G01*
X-149682000Y-213332040D01*
G75*
G02*
X-149942000Y-213592040I-260000J0D01*
G01*
X-152072000Y-213592040D01*
G75*
G02*
X-152332000Y-213332040I0J260000D01*
G01*
G37*
G36*
G01*
X-165259000Y-215872040D02*
X-165259000Y-213792040D01*
G75*
G02*
X-164999000Y-213532040I260000J0D01*
G01*
X-162869000Y-213532040D01*
G75*
G02*
X-162609000Y-213792040I0J-260000D01*
G01*
X-162609000Y-215872040D01*
G75*
G02*
X-162869000Y-216132040I-260000J0D01*
G01*
X-164999000Y-216132040D01*
G75*
G02*
X-165259000Y-215872040I0J260000D01*
G01*
G37*
D17*
X-154309000Y-212292040D03*
X-160659000Y-214832040D03*
%TD*%
D15*
%TO.C,SW51*%
X-91319000Y-177072040D03*
X-101479000Y-177072040D03*
D16*
X-96399000Y-177072040D03*
G36*
G01*
X-91882000Y-173032040D02*
X-91882000Y-170952040D01*
G75*
G02*
X-91622000Y-170692040I260000J0D01*
G01*
X-89492000Y-170692040D01*
G75*
G02*
X-89232000Y-170952040I0J-260000D01*
G01*
X-89232000Y-173032040D01*
G75*
G02*
X-89492000Y-173292040I-260000J0D01*
G01*
X-91622000Y-173292040D01*
G75*
G02*
X-91882000Y-173032040I0J260000D01*
G01*
G37*
G36*
G01*
X-104809000Y-175572040D02*
X-104809000Y-173492040D01*
G75*
G02*
X-104549000Y-173232040I260000J0D01*
G01*
X-102419000Y-173232040D01*
G75*
G02*
X-102159000Y-173492040I0J-260000D01*
G01*
X-102159000Y-175572040D01*
G75*
G02*
X-102419000Y-175832040I-260000J0D01*
G01*
X-104549000Y-175832040D01*
G75*
G02*
X-104809000Y-175572040I0J260000D01*
G01*
G37*
D17*
X-93859000Y-171992040D03*
X-100209000Y-174532040D03*
%TD*%
D15*
%TO.C,SW50*%
X-111469000Y-197222040D03*
X-121629000Y-197222040D03*
D16*
X-116549000Y-197222040D03*
G36*
G01*
X-112032000Y-193182040D02*
X-112032000Y-191102040D01*
G75*
G02*
X-111772000Y-190842040I260000J0D01*
G01*
X-109642000Y-190842040D01*
G75*
G02*
X-109382000Y-191102040I0J-260000D01*
G01*
X-109382000Y-193182040D01*
G75*
G02*
X-109642000Y-193442040I-260000J0D01*
G01*
X-111772000Y-193442040D01*
G75*
G02*
X-112032000Y-193182040I0J260000D01*
G01*
G37*
G36*
G01*
X-124959000Y-195722040D02*
X-124959000Y-193642040D01*
G75*
G02*
X-124699000Y-193382040I260000J0D01*
G01*
X-122569000Y-193382040D01*
G75*
G02*
X-122309000Y-193642040I0J-260000D01*
G01*
X-122309000Y-195722040D01*
G75*
G02*
X-122569000Y-195982040I-260000J0D01*
G01*
X-124699000Y-195982040D01*
G75*
G02*
X-124959000Y-195722040I0J260000D01*
G01*
G37*
D17*
X-114009000Y-192142040D03*
X-120359000Y-194682040D03*
%TD*%
D15*
%TO.C,SW49*%
X-131619000Y-217372040D03*
X-141779000Y-217372040D03*
D16*
X-136699000Y-217372040D03*
G36*
G01*
X-132182000Y-213332040D02*
X-132182000Y-211252040D01*
G75*
G02*
X-131922000Y-210992040I260000J0D01*
G01*
X-129792000Y-210992040D01*
G75*
G02*
X-129532000Y-211252040I0J-260000D01*
G01*
X-129532000Y-213332040D01*
G75*
G02*
X-129792000Y-213592040I-260000J0D01*
G01*
X-131922000Y-213592040D01*
G75*
G02*
X-132182000Y-213332040I0J260000D01*
G01*
G37*
G36*
G01*
X-145109000Y-215872040D02*
X-145109000Y-213792040D01*
G75*
G02*
X-144849000Y-213532040I260000J0D01*
G01*
X-142719000Y-213532040D01*
G75*
G02*
X-142459000Y-213792040I0J-260000D01*
G01*
X-142459000Y-215872040D01*
G75*
G02*
X-142719000Y-216132040I-260000J0D01*
G01*
X-144849000Y-216132040D01*
G75*
G02*
X-145109000Y-215872040I0J260000D01*
G01*
G37*
D17*
X-134159000Y-212292040D03*
X-140509000Y-214832040D03*
%TD*%
D15*
%TO.C,SW48*%
X-151769000Y-237522040D03*
X-161929000Y-237522040D03*
D16*
X-156849000Y-237522040D03*
G36*
G01*
X-152332000Y-233482040D02*
X-152332000Y-231402040D01*
G75*
G02*
X-152072000Y-231142040I260000J0D01*
G01*
X-149942000Y-231142040D01*
G75*
G02*
X-149682000Y-231402040I0J-260000D01*
G01*
X-149682000Y-233482040D01*
G75*
G02*
X-149942000Y-233742040I-260000J0D01*
G01*
X-152072000Y-233742040D01*
G75*
G02*
X-152332000Y-233482040I0J260000D01*
G01*
G37*
G36*
G01*
X-165259000Y-236022040D02*
X-165259000Y-233942040D01*
G75*
G02*
X-164999000Y-233682040I260000J0D01*
G01*
X-162869000Y-233682040D01*
G75*
G02*
X-162609000Y-233942040I0J-260000D01*
G01*
X-162609000Y-236022040D01*
G75*
G02*
X-162869000Y-236282040I-260000J0D01*
G01*
X-164999000Y-236282040D01*
G75*
G02*
X-165259000Y-236022040I0J260000D01*
G01*
G37*
D17*
X-154309000Y-232442040D03*
X-160659000Y-234982040D03*
%TD*%
D15*
%TO.C,SW47*%
X-30869000Y-96472040D03*
X-41029000Y-96472040D03*
D16*
X-35949000Y-96472040D03*
G36*
G01*
X-31432000Y-92432040D02*
X-31432000Y-90352040D01*
G75*
G02*
X-31172000Y-90092040I260000J0D01*
G01*
X-29042000Y-90092040D01*
G75*
G02*
X-28782000Y-90352040I0J-260000D01*
G01*
X-28782000Y-92432040D01*
G75*
G02*
X-29042000Y-92692040I-260000J0D01*
G01*
X-31172000Y-92692040D01*
G75*
G02*
X-31432000Y-92432040I0J260000D01*
G01*
G37*
G36*
G01*
X-44359000Y-94972040D02*
X-44359000Y-92892040D01*
G75*
G02*
X-44099000Y-92632040I260000J0D01*
G01*
X-41969000Y-92632040D01*
G75*
G02*
X-41709000Y-92892040I0J-260000D01*
G01*
X-41709000Y-94972040D01*
G75*
G02*
X-41969000Y-95232040I-260000J0D01*
G01*
X-44099000Y-95232040D01*
G75*
G02*
X-44359000Y-94972040I0J260000D01*
G01*
G37*
D17*
X-33409000Y-91392040D03*
X-39759000Y-93932040D03*
%TD*%
D15*
%TO.C,SW46*%
X-51019000Y-116622040D03*
X-61179000Y-116622040D03*
D16*
X-56099000Y-116622040D03*
G36*
G01*
X-51582000Y-112582040D02*
X-51582000Y-110502040D01*
G75*
G02*
X-51322000Y-110242040I260000J0D01*
G01*
X-49192000Y-110242040D01*
G75*
G02*
X-48932000Y-110502040I0J-260000D01*
G01*
X-48932000Y-112582040D01*
G75*
G02*
X-49192000Y-112842040I-260000J0D01*
G01*
X-51322000Y-112842040D01*
G75*
G02*
X-51582000Y-112582040I0J260000D01*
G01*
G37*
G36*
G01*
X-64509000Y-115122040D02*
X-64509000Y-113042040D01*
G75*
G02*
X-64249000Y-112782040I260000J0D01*
G01*
X-62119000Y-112782040D01*
G75*
G02*
X-61859000Y-113042040I0J-260000D01*
G01*
X-61859000Y-115122040D01*
G75*
G02*
X-62119000Y-115382040I-260000J0D01*
G01*
X-64249000Y-115382040D01*
G75*
G02*
X-64509000Y-115122040I0J260000D01*
G01*
G37*
D17*
X-53559000Y-111542040D03*
X-59909000Y-114082040D03*
%TD*%
D15*
%TO.C,SW45*%
X-71169000Y-136772040D03*
X-81329000Y-136772040D03*
D16*
X-76249000Y-136772040D03*
G36*
G01*
X-71732000Y-132732040D02*
X-71732000Y-130652040D01*
G75*
G02*
X-71472000Y-130392040I260000J0D01*
G01*
X-69342000Y-130392040D01*
G75*
G02*
X-69082000Y-130652040I0J-260000D01*
G01*
X-69082000Y-132732040D01*
G75*
G02*
X-69342000Y-132992040I-260000J0D01*
G01*
X-71472000Y-132992040D01*
G75*
G02*
X-71732000Y-132732040I0J260000D01*
G01*
G37*
G36*
G01*
X-84659000Y-135272040D02*
X-84659000Y-133192040D01*
G75*
G02*
X-84399000Y-132932040I260000J0D01*
G01*
X-82269000Y-132932040D01*
G75*
G02*
X-82009000Y-133192040I0J-260000D01*
G01*
X-82009000Y-135272040D01*
G75*
G02*
X-82269000Y-135532040I-260000J0D01*
G01*
X-84399000Y-135532040D01*
G75*
G02*
X-84659000Y-135272040I0J260000D01*
G01*
G37*
D17*
X-73709000Y-131692040D03*
X-80059000Y-134232040D03*
%TD*%
D15*
%TO.C,SW44*%
X-131619000Y-197222040D03*
X-141779000Y-197222040D03*
D16*
X-136699000Y-197222040D03*
G36*
G01*
X-132182000Y-193182040D02*
X-132182000Y-191102040D01*
G75*
G02*
X-131922000Y-190842040I260000J0D01*
G01*
X-129792000Y-190842040D01*
G75*
G02*
X-129532000Y-191102040I0J-260000D01*
G01*
X-129532000Y-193182040D01*
G75*
G02*
X-129792000Y-193442040I-260000J0D01*
G01*
X-131922000Y-193442040D01*
G75*
G02*
X-132182000Y-193182040I0J260000D01*
G01*
G37*
G36*
G01*
X-145109000Y-195722040D02*
X-145109000Y-193642040D01*
G75*
G02*
X-144849000Y-193382040I260000J0D01*
G01*
X-142719000Y-193382040D01*
G75*
G02*
X-142459000Y-193642040I0J-260000D01*
G01*
X-142459000Y-195722040D01*
G75*
G02*
X-142719000Y-195982040I-260000J0D01*
G01*
X-144849000Y-195982040D01*
G75*
G02*
X-145109000Y-195722040I0J260000D01*
G01*
G37*
D17*
X-134159000Y-192142040D03*
X-140509000Y-194682040D03*
%TD*%
D15*
%TO.C,SW43*%
X-111469000Y-177072040D03*
X-121629000Y-177072040D03*
D16*
X-116549000Y-177072040D03*
G36*
G01*
X-112032000Y-173032040D02*
X-112032000Y-170952040D01*
G75*
G02*
X-111772000Y-170692040I260000J0D01*
G01*
X-109642000Y-170692040D01*
G75*
G02*
X-109382000Y-170952040I0J-260000D01*
G01*
X-109382000Y-173032040D01*
G75*
G02*
X-109642000Y-173292040I-260000J0D01*
G01*
X-111772000Y-173292040D01*
G75*
G02*
X-112032000Y-173032040I0J260000D01*
G01*
G37*
G36*
G01*
X-124959000Y-175572040D02*
X-124959000Y-173492040D01*
G75*
G02*
X-124699000Y-173232040I260000J0D01*
G01*
X-122569000Y-173232040D01*
G75*
G02*
X-122309000Y-173492040I0J-260000D01*
G01*
X-122309000Y-175572040D01*
G75*
G02*
X-122569000Y-175832040I-260000J0D01*
G01*
X-124699000Y-175832040D01*
G75*
G02*
X-124959000Y-175572040I0J260000D01*
G01*
G37*
D17*
X-114009000Y-171992040D03*
X-120359000Y-174532040D03*
%TD*%
D15*
%TO.C,SW42*%
X-51019000Y-96472040D03*
X-61179000Y-96472040D03*
D16*
X-56099000Y-96472040D03*
G36*
G01*
X-51582000Y-92432040D02*
X-51582000Y-90352040D01*
G75*
G02*
X-51322000Y-90092040I260000J0D01*
G01*
X-49192000Y-90092040D01*
G75*
G02*
X-48932000Y-90352040I0J-260000D01*
G01*
X-48932000Y-92432040D01*
G75*
G02*
X-49192000Y-92692040I-260000J0D01*
G01*
X-51322000Y-92692040D01*
G75*
G02*
X-51582000Y-92432040I0J260000D01*
G01*
G37*
G36*
G01*
X-64509000Y-94972040D02*
X-64509000Y-92892040D01*
G75*
G02*
X-64249000Y-92632040I260000J0D01*
G01*
X-62119000Y-92632040D01*
G75*
G02*
X-61859000Y-92892040I0J-260000D01*
G01*
X-61859000Y-94972040D01*
G75*
G02*
X-62119000Y-95232040I-260000J0D01*
G01*
X-64249000Y-95232040D01*
G75*
G02*
X-64509000Y-94972040I0J260000D01*
G01*
G37*
D17*
X-53559000Y-91392040D03*
X-59909000Y-93932040D03*
%TD*%
D15*
%TO.C,SW41*%
X-10719000Y-217372040D03*
X-20879000Y-217372040D03*
D16*
X-15799000Y-217372040D03*
G36*
G01*
X-11282000Y-213332040D02*
X-11282000Y-211252040D01*
G75*
G02*
X-11022000Y-210992040I260000J0D01*
G01*
X-8892000Y-210992040D01*
G75*
G02*
X-8632000Y-211252040I0J-260000D01*
G01*
X-8632000Y-213332040D01*
G75*
G02*
X-8892000Y-213592040I-260000J0D01*
G01*
X-11022000Y-213592040D01*
G75*
G02*
X-11282000Y-213332040I0J260000D01*
G01*
G37*
G36*
G01*
X-24209000Y-215872040D02*
X-24209000Y-213792040D01*
G75*
G02*
X-23949000Y-213532040I260000J0D01*
G01*
X-21819000Y-213532040D01*
G75*
G02*
X-21559000Y-213792040I0J-260000D01*
G01*
X-21559000Y-215872040D01*
G75*
G02*
X-21819000Y-216132040I-260000J0D01*
G01*
X-23949000Y-216132040D01*
G75*
G02*
X-24209000Y-215872040I0J260000D01*
G01*
G37*
D17*
X-13259000Y-212292040D03*
X-19609000Y-214832040D03*
%TD*%
D15*
%TO.C,SW40*%
X9431000Y-197222040D03*
X-729000Y-197222040D03*
D16*
X4351000Y-197222040D03*
G36*
G01*
X8868000Y-193182040D02*
X8868000Y-191102040D01*
G75*
G02*
X9128000Y-190842040I260000J0D01*
G01*
X11258000Y-190842040D01*
G75*
G02*
X11518000Y-191102040I0J-260000D01*
G01*
X11518000Y-193182040D01*
G75*
G02*
X11258000Y-193442040I-260000J0D01*
G01*
X9128000Y-193442040D01*
G75*
G02*
X8868000Y-193182040I0J260000D01*
G01*
G37*
G36*
G01*
X-4059000Y-195722040D02*
X-4059000Y-193642040D01*
G75*
G02*
X-3799000Y-193382040I260000J0D01*
G01*
X-1669000Y-193382040D01*
G75*
G02*
X-1409000Y-193642040I0J-260000D01*
G01*
X-1409000Y-195722040D01*
G75*
G02*
X-1669000Y-195982040I-260000J0D01*
G01*
X-3799000Y-195982040D01*
G75*
G02*
X-4059000Y-195722040I0J260000D01*
G01*
G37*
D17*
X6891000Y-192142040D03*
X541000Y-194682040D03*
%TD*%
D15*
%TO.C,SW39*%
X29581000Y-177072040D03*
X19421000Y-177072040D03*
D16*
X24501000Y-177072040D03*
G36*
G01*
X29018000Y-173032040D02*
X29018000Y-170952040D01*
G75*
G02*
X29278000Y-170692040I260000J0D01*
G01*
X31408000Y-170692040D01*
G75*
G02*
X31668000Y-170952040I0J-260000D01*
G01*
X31668000Y-173032040D01*
G75*
G02*
X31408000Y-173292040I-260000J0D01*
G01*
X29278000Y-173292040D01*
G75*
G02*
X29018000Y-173032040I0J260000D01*
G01*
G37*
G36*
G01*
X16091000Y-175572040D02*
X16091000Y-173492040D01*
G75*
G02*
X16351000Y-173232040I260000J0D01*
G01*
X18481000Y-173232040D01*
G75*
G02*
X18741000Y-173492040I0J-260000D01*
G01*
X18741000Y-175572040D01*
G75*
G02*
X18481000Y-175832040I-260000J0D01*
G01*
X16351000Y-175832040D01*
G75*
G02*
X16091000Y-175572040I0J260000D01*
G01*
G37*
D17*
X27041000Y-171992040D03*
X20691000Y-174532040D03*
%TD*%
D15*
%TO.C,SW38*%
X49731000Y-156922040D03*
X39571000Y-156922040D03*
D16*
X44651000Y-156922040D03*
G36*
G01*
X49168000Y-152882040D02*
X49168000Y-150802040D01*
G75*
G02*
X49428000Y-150542040I260000J0D01*
G01*
X51558000Y-150542040D01*
G75*
G02*
X51818000Y-150802040I0J-260000D01*
G01*
X51818000Y-152882040D01*
G75*
G02*
X51558000Y-153142040I-260000J0D01*
G01*
X49428000Y-153142040D01*
G75*
G02*
X49168000Y-152882040I0J260000D01*
G01*
G37*
G36*
G01*
X36241000Y-155422040D02*
X36241000Y-153342040D01*
G75*
G02*
X36501000Y-153082040I260000J0D01*
G01*
X38631000Y-153082040D01*
G75*
G02*
X38891000Y-153342040I0J-260000D01*
G01*
X38891000Y-155422040D01*
G75*
G02*
X38631000Y-155682040I-260000J0D01*
G01*
X36501000Y-155682040D01*
G75*
G02*
X36241000Y-155422040I0J260000D01*
G01*
G37*
D17*
X47191000Y-151842040D03*
X40841000Y-154382040D03*
%TD*%
D15*
%TO.C,SW37*%
X9431000Y-156922040D03*
X-729000Y-156922040D03*
D16*
X4351000Y-156922040D03*
G36*
G01*
X8868000Y-152882040D02*
X8868000Y-150802040D01*
G75*
G02*
X9128000Y-150542040I260000J0D01*
G01*
X11258000Y-150542040D01*
G75*
G02*
X11518000Y-150802040I0J-260000D01*
G01*
X11518000Y-152882040D01*
G75*
G02*
X11258000Y-153142040I-260000J0D01*
G01*
X9128000Y-153142040D01*
G75*
G02*
X8868000Y-152882040I0J260000D01*
G01*
G37*
G36*
G01*
X-4059000Y-155422040D02*
X-4059000Y-153342040D01*
G75*
G02*
X-3799000Y-153082040I260000J0D01*
G01*
X-1669000Y-153082040D01*
G75*
G02*
X-1409000Y-153342040I0J-260000D01*
G01*
X-1409000Y-155422040D01*
G75*
G02*
X-1669000Y-155682040I-260000J0D01*
G01*
X-3799000Y-155682040D01*
G75*
G02*
X-4059000Y-155422040I0J260000D01*
G01*
G37*
D17*
X6891000Y-151842040D03*
X541000Y-154382040D03*
%TD*%
D15*
%TO.C,SW36*%
X69881000Y-136772040D03*
X59721000Y-136772040D03*
D16*
X64801000Y-136772040D03*
G36*
G01*
X69318000Y-132732040D02*
X69318000Y-130652040D01*
G75*
G02*
X69578000Y-130392040I260000J0D01*
G01*
X71708000Y-130392040D01*
G75*
G02*
X71968000Y-130652040I0J-260000D01*
G01*
X71968000Y-132732040D01*
G75*
G02*
X71708000Y-132992040I-260000J0D01*
G01*
X69578000Y-132992040D01*
G75*
G02*
X69318000Y-132732040I0J260000D01*
G01*
G37*
G36*
G01*
X56391000Y-135272040D02*
X56391000Y-133192040D01*
G75*
G02*
X56651000Y-132932040I260000J0D01*
G01*
X58781000Y-132932040D01*
G75*
G02*
X59041000Y-133192040I0J-260000D01*
G01*
X59041000Y-135272040D01*
G75*
G02*
X58781000Y-135532040I-260000J0D01*
G01*
X56651000Y-135532040D01*
G75*
G02*
X56391000Y-135272040I0J260000D01*
G01*
G37*
D17*
X67341000Y-131692040D03*
X60991000Y-134232040D03*
%TD*%
D15*
%TO.C,SW35*%
X-71169000Y-217372040D03*
X-81329000Y-217372040D03*
D16*
X-76249000Y-217372040D03*
G36*
G01*
X-71732000Y-213332040D02*
X-71732000Y-211252040D01*
G75*
G02*
X-71472000Y-210992040I260000J0D01*
G01*
X-69342000Y-210992040D01*
G75*
G02*
X-69082000Y-211252040I0J-260000D01*
G01*
X-69082000Y-213332040D01*
G75*
G02*
X-69342000Y-213592040I-260000J0D01*
G01*
X-71472000Y-213592040D01*
G75*
G02*
X-71732000Y-213332040I0J260000D01*
G01*
G37*
G36*
G01*
X-84659000Y-215872040D02*
X-84659000Y-213792040D01*
G75*
G02*
X-84399000Y-213532040I260000J0D01*
G01*
X-82269000Y-213532040D01*
G75*
G02*
X-82009000Y-213792040I0J-260000D01*
G01*
X-82009000Y-215872040D01*
G75*
G02*
X-82269000Y-216132040I-260000J0D01*
G01*
X-84399000Y-216132040D01*
G75*
G02*
X-84659000Y-215872040I0J260000D01*
G01*
G37*
D17*
X-73709000Y-212292040D03*
X-80059000Y-214832040D03*
%TD*%
D15*
%TO.C,SW34*%
X-111469000Y-237522040D03*
X-121629000Y-237522040D03*
D16*
X-116549000Y-237522040D03*
G36*
G01*
X-112032000Y-233482040D02*
X-112032000Y-231402040D01*
G75*
G02*
X-111772000Y-231142040I260000J0D01*
G01*
X-109642000Y-231142040D01*
G75*
G02*
X-109382000Y-231402040I0J-260000D01*
G01*
X-109382000Y-233482040D01*
G75*
G02*
X-109642000Y-233742040I-260000J0D01*
G01*
X-111772000Y-233742040D01*
G75*
G02*
X-112032000Y-233482040I0J260000D01*
G01*
G37*
G36*
G01*
X-124959000Y-236022040D02*
X-124959000Y-233942040D01*
G75*
G02*
X-124699000Y-233682040I260000J0D01*
G01*
X-122569000Y-233682040D01*
G75*
G02*
X-122309000Y-233942040I0J-260000D01*
G01*
X-122309000Y-236022040D01*
G75*
G02*
X-122569000Y-236282040I-260000J0D01*
G01*
X-124699000Y-236282040D01*
G75*
G02*
X-124959000Y-236022040I0J260000D01*
G01*
G37*
D17*
X-114009000Y-232442040D03*
X-120359000Y-234982040D03*
%TD*%
D15*
%TO.C,SW33*%
X-91319000Y-217372040D03*
X-101479000Y-217372040D03*
D16*
X-96399000Y-217372040D03*
G36*
G01*
X-91882000Y-213332040D02*
X-91882000Y-211252040D01*
G75*
G02*
X-91622000Y-210992040I260000J0D01*
G01*
X-89492000Y-210992040D01*
G75*
G02*
X-89232000Y-211252040I0J-260000D01*
G01*
X-89232000Y-213332040D01*
G75*
G02*
X-89492000Y-213592040I-260000J0D01*
G01*
X-91622000Y-213592040D01*
G75*
G02*
X-91882000Y-213332040I0J260000D01*
G01*
G37*
G36*
G01*
X-104809000Y-215872040D02*
X-104809000Y-213792040D01*
G75*
G02*
X-104549000Y-213532040I260000J0D01*
G01*
X-102419000Y-213532040D01*
G75*
G02*
X-102159000Y-213792040I0J-260000D01*
G01*
X-102159000Y-215872040D01*
G75*
G02*
X-102419000Y-216132040I-260000J0D01*
G01*
X-104549000Y-216132040D01*
G75*
G02*
X-104809000Y-215872040I0J260000D01*
G01*
G37*
D17*
X-93859000Y-212292040D03*
X-100209000Y-214832040D03*
%TD*%
D15*
%TO.C,SW32*%
X-71169000Y-197222040D03*
X-81329000Y-197222040D03*
D16*
X-76249000Y-197222040D03*
G36*
G01*
X-71732000Y-193182040D02*
X-71732000Y-191102040D01*
G75*
G02*
X-71472000Y-190842040I260000J0D01*
G01*
X-69342000Y-190842040D01*
G75*
G02*
X-69082000Y-191102040I0J-260000D01*
G01*
X-69082000Y-193182040D01*
G75*
G02*
X-69342000Y-193442040I-260000J0D01*
G01*
X-71472000Y-193442040D01*
G75*
G02*
X-71732000Y-193182040I0J260000D01*
G01*
G37*
G36*
G01*
X-84659000Y-195722040D02*
X-84659000Y-193642040D01*
G75*
G02*
X-84399000Y-193382040I260000J0D01*
G01*
X-82269000Y-193382040D01*
G75*
G02*
X-82009000Y-193642040I0J-260000D01*
G01*
X-82009000Y-195722040D01*
G75*
G02*
X-82269000Y-195982040I-260000J0D01*
G01*
X-84399000Y-195982040D01*
G75*
G02*
X-84659000Y-195722040I0J260000D01*
G01*
G37*
D17*
X-73709000Y-192142040D03*
X-80059000Y-194682040D03*
%TD*%
D15*
%TO.C,SW31*%
X-51019000Y-177072040D03*
X-61179000Y-177072040D03*
D16*
X-56099000Y-177072040D03*
G36*
G01*
X-51582000Y-173032040D02*
X-51582000Y-170952040D01*
G75*
G02*
X-51322000Y-170692040I260000J0D01*
G01*
X-49192000Y-170692040D01*
G75*
G02*
X-48932000Y-170952040I0J-260000D01*
G01*
X-48932000Y-173032040D01*
G75*
G02*
X-49192000Y-173292040I-260000J0D01*
G01*
X-51322000Y-173292040D01*
G75*
G02*
X-51582000Y-173032040I0J260000D01*
G01*
G37*
G36*
G01*
X-64509000Y-175572040D02*
X-64509000Y-173492040D01*
G75*
G02*
X-64249000Y-173232040I260000J0D01*
G01*
X-62119000Y-173232040D01*
G75*
G02*
X-61859000Y-173492040I0J-260000D01*
G01*
X-61859000Y-175572040D01*
G75*
G02*
X-62119000Y-175832040I-260000J0D01*
G01*
X-64249000Y-175832040D01*
G75*
G02*
X-64509000Y-175572040I0J260000D01*
G01*
G37*
D17*
X-53559000Y-171992040D03*
X-59909000Y-174532040D03*
%TD*%
D15*
%TO.C,SW30*%
X-30869000Y-156922040D03*
X-41029000Y-156922040D03*
D16*
X-35949000Y-156922040D03*
G36*
G01*
X-31432000Y-152882040D02*
X-31432000Y-150802040D01*
G75*
G02*
X-31172000Y-150542040I260000J0D01*
G01*
X-29042000Y-150542040D01*
G75*
G02*
X-28782000Y-150802040I0J-260000D01*
G01*
X-28782000Y-152882040D01*
G75*
G02*
X-29042000Y-153142040I-260000J0D01*
G01*
X-31172000Y-153142040D01*
G75*
G02*
X-31432000Y-152882040I0J260000D01*
G01*
G37*
G36*
G01*
X-44359000Y-155422040D02*
X-44359000Y-153342040D01*
G75*
G02*
X-44099000Y-153082040I260000J0D01*
G01*
X-41969000Y-153082040D01*
G75*
G02*
X-41709000Y-153342040I0J-260000D01*
G01*
X-41709000Y-155422040D01*
G75*
G02*
X-41969000Y-155682040I-260000J0D01*
G01*
X-44099000Y-155682040D01*
G75*
G02*
X-44359000Y-155422040I0J260000D01*
G01*
G37*
D17*
X-33409000Y-151842040D03*
X-39759000Y-154382040D03*
%TD*%
D15*
%TO.C,SW29*%
X-10719000Y-136772040D03*
X-20879000Y-136772040D03*
D16*
X-15799000Y-136772040D03*
G36*
G01*
X-11282000Y-132732040D02*
X-11282000Y-130652040D01*
G75*
G02*
X-11022000Y-130392040I260000J0D01*
G01*
X-8892000Y-130392040D01*
G75*
G02*
X-8632000Y-130652040I0J-260000D01*
G01*
X-8632000Y-132732040D01*
G75*
G02*
X-8892000Y-132992040I-260000J0D01*
G01*
X-11022000Y-132992040D01*
G75*
G02*
X-11282000Y-132732040I0J260000D01*
G01*
G37*
G36*
G01*
X-24209000Y-135272040D02*
X-24209000Y-133192040D01*
G75*
G02*
X-23949000Y-132932040I260000J0D01*
G01*
X-21819000Y-132932040D01*
G75*
G02*
X-21559000Y-133192040I0J-260000D01*
G01*
X-21559000Y-135272040D01*
G75*
G02*
X-21819000Y-135532040I-260000J0D01*
G01*
X-23949000Y-135532040D01*
G75*
G02*
X-24209000Y-135272040I0J260000D01*
G01*
G37*
D17*
X-13259000Y-131692040D03*
X-19609000Y-134232040D03*
%TD*%
D15*
%TO.C,SW28*%
X90031000Y-96472040D03*
X79871000Y-96472040D03*
D16*
X84951000Y-96472040D03*
G36*
G01*
X89468000Y-92432040D02*
X89468000Y-90352040D01*
G75*
G02*
X89728000Y-90092040I260000J0D01*
G01*
X91858000Y-90092040D01*
G75*
G02*
X92118000Y-90352040I0J-260000D01*
G01*
X92118000Y-92432040D01*
G75*
G02*
X91858000Y-92692040I-260000J0D01*
G01*
X89728000Y-92692040D01*
G75*
G02*
X89468000Y-92432040I0J260000D01*
G01*
G37*
G36*
G01*
X76541000Y-94972040D02*
X76541000Y-92892040D01*
G75*
G02*
X76801000Y-92632040I260000J0D01*
G01*
X78931000Y-92632040D01*
G75*
G02*
X79191000Y-92892040I0J-260000D01*
G01*
X79191000Y-94972040D01*
G75*
G02*
X78931000Y-95232040I-260000J0D01*
G01*
X76801000Y-95232040D01*
G75*
G02*
X76541000Y-94972040I0J260000D01*
G01*
G37*
D17*
X87491000Y-91392040D03*
X81141000Y-93932040D03*
%TD*%
D15*
%TO.C,SW27*%
X29581000Y-96472040D03*
X19421000Y-96472040D03*
D16*
X24501000Y-96472040D03*
G36*
G01*
X29018000Y-92432040D02*
X29018000Y-90352040D01*
G75*
G02*
X29278000Y-90092040I260000J0D01*
G01*
X31408000Y-90092040D01*
G75*
G02*
X31668000Y-90352040I0J-260000D01*
G01*
X31668000Y-92432040D01*
G75*
G02*
X31408000Y-92692040I-260000J0D01*
G01*
X29278000Y-92692040D01*
G75*
G02*
X29018000Y-92432040I0J260000D01*
G01*
G37*
G36*
G01*
X16091000Y-94972040D02*
X16091000Y-92892040D01*
G75*
G02*
X16351000Y-92632040I260000J0D01*
G01*
X18481000Y-92632040D01*
G75*
G02*
X18741000Y-92892040I0J-260000D01*
G01*
X18741000Y-94972040D01*
G75*
G02*
X18481000Y-95232040I-260000J0D01*
G01*
X16351000Y-95232040D01*
G75*
G02*
X16091000Y-94972040I0J260000D01*
G01*
G37*
D17*
X27041000Y-91392040D03*
X20691000Y-93932040D03*
%TD*%
D15*
%TO.C,SW26*%
X-91319000Y-237522040D03*
X-101479000Y-237522040D03*
D16*
X-96399000Y-237522040D03*
G36*
G01*
X-91882000Y-233482040D02*
X-91882000Y-231402040D01*
G75*
G02*
X-91622000Y-231142040I260000J0D01*
G01*
X-89492000Y-231142040D01*
G75*
G02*
X-89232000Y-231402040I0J-260000D01*
G01*
X-89232000Y-233482040D01*
G75*
G02*
X-89492000Y-233742040I-260000J0D01*
G01*
X-91622000Y-233742040D01*
G75*
G02*
X-91882000Y-233482040I0J260000D01*
G01*
G37*
G36*
G01*
X-104809000Y-236022040D02*
X-104809000Y-233942040D01*
G75*
G02*
X-104549000Y-233682040I260000J0D01*
G01*
X-102419000Y-233682040D01*
G75*
G02*
X-102159000Y-233942040I0J-260000D01*
G01*
X-102159000Y-236022040D01*
G75*
G02*
X-102419000Y-236282040I-260000J0D01*
G01*
X-104549000Y-236282040D01*
G75*
G02*
X-104809000Y-236022040I0J260000D01*
G01*
G37*
D17*
X-93859000Y-232442040D03*
X-100209000Y-234982040D03*
%TD*%
D15*
%TO.C,SW25*%
X-10719000Y-116622040D03*
X-20879000Y-116622040D03*
D16*
X-15799000Y-116622040D03*
G36*
G01*
X-11282000Y-112582040D02*
X-11282000Y-110502040D01*
G75*
G02*
X-11022000Y-110242040I260000J0D01*
G01*
X-8892000Y-110242040D01*
G75*
G02*
X-8632000Y-110502040I0J-260000D01*
G01*
X-8632000Y-112582040D01*
G75*
G02*
X-8892000Y-112842040I-260000J0D01*
G01*
X-11022000Y-112842040D01*
G75*
G02*
X-11282000Y-112582040I0J260000D01*
G01*
G37*
G36*
G01*
X-24209000Y-115122040D02*
X-24209000Y-113042040D01*
G75*
G02*
X-23949000Y-112782040I260000J0D01*
G01*
X-21819000Y-112782040D01*
G75*
G02*
X-21559000Y-113042040I0J-260000D01*
G01*
X-21559000Y-115122040D01*
G75*
G02*
X-21819000Y-115382040I-260000J0D01*
G01*
X-23949000Y-115382040D01*
G75*
G02*
X-24209000Y-115122040I0J260000D01*
G01*
G37*
D17*
X-13259000Y-111542040D03*
X-19609000Y-114082040D03*
%TD*%
D15*
%TO.C,SW24*%
X-51019000Y-197222040D03*
X-61179000Y-197222040D03*
D16*
X-56099000Y-197222040D03*
G36*
G01*
X-51582000Y-193182040D02*
X-51582000Y-191102040D01*
G75*
G02*
X-51322000Y-190842040I260000J0D01*
G01*
X-49192000Y-190842040D01*
G75*
G02*
X-48932000Y-191102040I0J-260000D01*
G01*
X-48932000Y-193182040D01*
G75*
G02*
X-49192000Y-193442040I-260000J0D01*
G01*
X-51322000Y-193442040D01*
G75*
G02*
X-51582000Y-193182040I0J260000D01*
G01*
G37*
G36*
G01*
X-64509000Y-195722040D02*
X-64509000Y-193642040D01*
G75*
G02*
X-64249000Y-193382040I260000J0D01*
G01*
X-62119000Y-193382040D01*
G75*
G02*
X-61859000Y-193642040I0J-260000D01*
G01*
X-61859000Y-195722040D01*
G75*
G02*
X-62119000Y-195982040I-260000J0D01*
G01*
X-64249000Y-195982040D01*
G75*
G02*
X-64509000Y-195722040I0J260000D01*
G01*
G37*
D17*
X-53559000Y-192142040D03*
X-59909000Y-194682040D03*
%TD*%
D15*
%TO.C,SW23*%
X-30869000Y-177072040D03*
X-41029000Y-177072040D03*
D16*
X-35949000Y-177072040D03*
G36*
G01*
X-31432000Y-173032040D02*
X-31432000Y-170952040D01*
G75*
G02*
X-31172000Y-170692040I260000J0D01*
G01*
X-29042000Y-170692040D01*
G75*
G02*
X-28782000Y-170952040I0J-260000D01*
G01*
X-28782000Y-173032040D01*
G75*
G02*
X-29042000Y-173292040I-260000J0D01*
G01*
X-31172000Y-173292040D01*
G75*
G02*
X-31432000Y-173032040I0J260000D01*
G01*
G37*
G36*
G01*
X-44359000Y-175572040D02*
X-44359000Y-173492040D01*
G75*
G02*
X-44099000Y-173232040I260000J0D01*
G01*
X-41969000Y-173232040D01*
G75*
G02*
X-41709000Y-173492040I0J-260000D01*
G01*
X-41709000Y-175572040D01*
G75*
G02*
X-41969000Y-175832040I-260000J0D01*
G01*
X-44099000Y-175832040D01*
G75*
G02*
X-44359000Y-175572040I0J260000D01*
G01*
G37*
D17*
X-33409000Y-171992040D03*
X-39759000Y-174532040D03*
%TD*%
D15*
%TO.C,SW22*%
X-10719000Y-156922040D03*
X-20879000Y-156922040D03*
D16*
X-15799000Y-156922040D03*
G36*
G01*
X-11282000Y-152882040D02*
X-11282000Y-150802040D01*
G75*
G02*
X-11022000Y-150542040I260000J0D01*
G01*
X-8892000Y-150542040D01*
G75*
G02*
X-8632000Y-150802040I0J-260000D01*
G01*
X-8632000Y-152882040D01*
G75*
G02*
X-8892000Y-153142040I-260000J0D01*
G01*
X-11022000Y-153142040D01*
G75*
G02*
X-11282000Y-152882040I0J260000D01*
G01*
G37*
G36*
G01*
X-24209000Y-155422040D02*
X-24209000Y-153342040D01*
G75*
G02*
X-23949000Y-153082040I260000J0D01*
G01*
X-21819000Y-153082040D01*
G75*
G02*
X-21559000Y-153342040I0J-260000D01*
G01*
X-21559000Y-155422040D01*
G75*
G02*
X-21819000Y-155682040I-260000J0D01*
G01*
X-23949000Y-155682040D01*
G75*
G02*
X-24209000Y-155422040I0J260000D01*
G01*
G37*
D17*
X-13259000Y-151842040D03*
X-19609000Y-154382040D03*
%TD*%
D15*
%TO.C,SW21*%
X9431000Y-136772040D03*
X-729000Y-136772040D03*
D16*
X4351000Y-136772040D03*
G36*
G01*
X8868000Y-132732040D02*
X8868000Y-130652040D01*
G75*
G02*
X9128000Y-130392040I260000J0D01*
G01*
X11258000Y-130392040D01*
G75*
G02*
X11518000Y-130652040I0J-260000D01*
G01*
X11518000Y-132732040D01*
G75*
G02*
X11258000Y-132992040I-260000J0D01*
G01*
X9128000Y-132992040D01*
G75*
G02*
X8868000Y-132732040I0J260000D01*
G01*
G37*
G36*
G01*
X-4059000Y-135272040D02*
X-4059000Y-133192040D01*
G75*
G02*
X-3799000Y-132932040I260000J0D01*
G01*
X-1669000Y-132932040D01*
G75*
G02*
X-1409000Y-133192040I0J-260000D01*
G01*
X-1409000Y-135272040D01*
G75*
G02*
X-1669000Y-135532040I-260000J0D01*
G01*
X-3799000Y-135532040D01*
G75*
G02*
X-4059000Y-135272040I0J260000D01*
G01*
G37*
D17*
X6891000Y-131692040D03*
X541000Y-134232040D03*
%TD*%
D15*
%TO.C,SW20*%
X29581000Y-116622040D03*
X19421000Y-116622040D03*
D16*
X24501000Y-116622040D03*
G36*
G01*
X29018000Y-112582040D02*
X29018000Y-110502040D01*
G75*
G02*
X29278000Y-110242040I260000J0D01*
G01*
X31408000Y-110242040D01*
G75*
G02*
X31668000Y-110502040I0J-260000D01*
G01*
X31668000Y-112582040D01*
G75*
G02*
X31408000Y-112842040I-260000J0D01*
G01*
X29278000Y-112842040D01*
G75*
G02*
X29018000Y-112582040I0J260000D01*
G01*
G37*
G36*
G01*
X16091000Y-115122040D02*
X16091000Y-113042040D01*
G75*
G02*
X16351000Y-112782040I260000J0D01*
G01*
X18481000Y-112782040D01*
G75*
G02*
X18741000Y-113042040I0J-260000D01*
G01*
X18741000Y-115122040D01*
G75*
G02*
X18481000Y-115382040I-260000J0D01*
G01*
X16351000Y-115382040D01*
G75*
G02*
X16091000Y-115122040I0J260000D01*
G01*
G37*
D17*
X27041000Y-111542040D03*
X20691000Y-114082040D03*
%TD*%
D15*
%TO.C,SW19*%
X49731000Y-96472040D03*
X39571000Y-96472040D03*
D16*
X44651000Y-96472040D03*
G36*
G01*
X49168000Y-92432040D02*
X49168000Y-90352040D01*
G75*
G02*
X49428000Y-90092040I260000J0D01*
G01*
X51558000Y-90092040D01*
G75*
G02*
X51818000Y-90352040I0J-260000D01*
G01*
X51818000Y-92432040D01*
G75*
G02*
X51558000Y-92692040I-260000J0D01*
G01*
X49428000Y-92692040D01*
G75*
G02*
X49168000Y-92432040I0J260000D01*
G01*
G37*
G36*
G01*
X36241000Y-94972040D02*
X36241000Y-92892040D01*
G75*
G02*
X36501000Y-92632040I260000J0D01*
G01*
X38631000Y-92632040D01*
G75*
G02*
X38891000Y-92892040I0J-260000D01*
G01*
X38891000Y-94972040D01*
G75*
G02*
X38631000Y-95232040I-260000J0D01*
G01*
X36501000Y-95232040D01*
G75*
G02*
X36241000Y-94972040I0J260000D01*
G01*
G37*
D17*
X47191000Y-91392040D03*
X40841000Y-93932040D03*
%TD*%
D15*
%TO.C,SW18*%
X-71169000Y-237522040D03*
X-81329000Y-237522040D03*
D16*
X-76249000Y-237522040D03*
G36*
G01*
X-71732000Y-233482040D02*
X-71732000Y-231402040D01*
G75*
G02*
X-71472000Y-231142040I260000J0D01*
G01*
X-69342000Y-231142040D01*
G75*
G02*
X-69082000Y-231402040I0J-260000D01*
G01*
X-69082000Y-233482040D01*
G75*
G02*
X-69342000Y-233742040I-260000J0D01*
G01*
X-71472000Y-233742040D01*
G75*
G02*
X-71732000Y-233482040I0J260000D01*
G01*
G37*
G36*
G01*
X-84659000Y-236022040D02*
X-84659000Y-233942040D01*
G75*
G02*
X-84399000Y-233682040I260000J0D01*
G01*
X-82269000Y-233682040D01*
G75*
G02*
X-82009000Y-233942040I0J-260000D01*
G01*
X-82009000Y-236022040D01*
G75*
G02*
X-82269000Y-236282040I-260000J0D01*
G01*
X-84399000Y-236282040D01*
G75*
G02*
X-84659000Y-236022040I0J260000D01*
G01*
G37*
D17*
X-73709000Y-232442040D03*
X-80059000Y-234982040D03*
%TD*%
D15*
%TO.C,SW17*%
X-51019000Y-217372040D03*
X-61179000Y-217372040D03*
D16*
X-56099000Y-217372040D03*
G36*
G01*
X-51582000Y-213332040D02*
X-51582000Y-211252040D01*
G75*
G02*
X-51322000Y-210992040I260000J0D01*
G01*
X-49192000Y-210992040D01*
G75*
G02*
X-48932000Y-211252040I0J-260000D01*
G01*
X-48932000Y-213332040D01*
G75*
G02*
X-49192000Y-213592040I-260000J0D01*
G01*
X-51322000Y-213592040D01*
G75*
G02*
X-51582000Y-213332040I0J260000D01*
G01*
G37*
G36*
G01*
X-64509000Y-215872040D02*
X-64509000Y-213792040D01*
G75*
G02*
X-64249000Y-213532040I260000J0D01*
G01*
X-62119000Y-213532040D01*
G75*
G02*
X-61859000Y-213792040I0J-260000D01*
G01*
X-61859000Y-215872040D01*
G75*
G02*
X-62119000Y-216132040I-260000J0D01*
G01*
X-64249000Y-216132040D01*
G75*
G02*
X-64509000Y-215872040I0J260000D01*
G01*
G37*
D17*
X-53559000Y-212292040D03*
X-59909000Y-214832040D03*
%TD*%
D15*
%TO.C,SW16*%
X-30869000Y-197222040D03*
X-41029000Y-197222040D03*
D16*
X-35949000Y-197222040D03*
G36*
G01*
X-31432000Y-193182040D02*
X-31432000Y-191102040D01*
G75*
G02*
X-31172000Y-190842040I260000J0D01*
G01*
X-29042000Y-190842040D01*
G75*
G02*
X-28782000Y-191102040I0J-260000D01*
G01*
X-28782000Y-193182040D01*
G75*
G02*
X-29042000Y-193442040I-260000J0D01*
G01*
X-31172000Y-193442040D01*
G75*
G02*
X-31432000Y-193182040I0J260000D01*
G01*
G37*
G36*
G01*
X-44359000Y-195722040D02*
X-44359000Y-193642040D01*
G75*
G02*
X-44099000Y-193382040I260000J0D01*
G01*
X-41969000Y-193382040D01*
G75*
G02*
X-41709000Y-193642040I0J-260000D01*
G01*
X-41709000Y-195722040D01*
G75*
G02*
X-41969000Y-195982040I-260000J0D01*
G01*
X-44099000Y-195982040D01*
G75*
G02*
X-44359000Y-195722040I0J260000D01*
G01*
G37*
D17*
X-33409000Y-192142040D03*
X-39759000Y-194682040D03*
%TD*%
D15*
%TO.C,SW15*%
X-10719000Y-177072040D03*
X-20879000Y-177072040D03*
D16*
X-15799000Y-177072040D03*
G36*
G01*
X-11282000Y-173032040D02*
X-11282000Y-170952040D01*
G75*
G02*
X-11022000Y-170692040I260000J0D01*
G01*
X-8892000Y-170692040D01*
G75*
G02*
X-8632000Y-170952040I0J-260000D01*
G01*
X-8632000Y-173032040D01*
G75*
G02*
X-8892000Y-173292040I-260000J0D01*
G01*
X-11022000Y-173292040D01*
G75*
G02*
X-11282000Y-173032040I0J260000D01*
G01*
G37*
G36*
G01*
X-24209000Y-175572040D02*
X-24209000Y-173492040D01*
G75*
G02*
X-23949000Y-173232040I260000J0D01*
G01*
X-21819000Y-173232040D01*
G75*
G02*
X-21559000Y-173492040I0J-260000D01*
G01*
X-21559000Y-175572040D01*
G75*
G02*
X-21819000Y-175832040I-260000J0D01*
G01*
X-23949000Y-175832040D01*
G75*
G02*
X-24209000Y-175572040I0J260000D01*
G01*
G37*
D17*
X-13259000Y-171992040D03*
X-19609000Y-174532040D03*
%TD*%
D15*
%TO.C,SW14*%
X9431000Y-116622040D03*
X-729000Y-116622040D03*
D16*
X4351000Y-116622040D03*
G36*
G01*
X8868000Y-112582040D02*
X8868000Y-110502040D01*
G75*
G02*
X9128000Y-110242040I260000J0D01*
G01*
X11258000Y-110242040D01*
G75*
G02*
X11518000Y-110502040I0J-260000D01*
G01*
X11518000Y-112582040D01*
G75*
G02*
X11258000Y-112842040I-260000J0D01*
G01*
X9128000Y-112842040D01*
G75*
G02*
X8868000Y-112582040I0J260000D01*
G01*
G37*
G36*
G01*
X-4059000Y-115122040D02*
X-4059000Y-113042040D01*
G75*
G02*
X-3799000Y-112782040I260000J0D01*
G01*
X-1669000Y-112782040D01*
G75*
G02*
X-1409000Y-113042040I0J-260000D01*
G01*
X-1409000Y-115122040D01*
G75*
G02*
X-1669000Y-115382040I-260000J0D01*
G01*
X-3799000Y-115382040D01*
G75*
G02*
X-4059000Y-115122040I0J260000D01*
G01*
G37*
D17*
X6891000Y-111542040D03*
X541000Y-114082040D03*
%TD*%
D15*
%TO.C,SW13*%
X-91319000Y-96472040D03*
X-101479000Y-96472040D03*
D16*
X-96399000Y-96472040D03*
G36*
G01*
X-91882000Y-92432040D02*
X-91882000Y-90352040D01*
G75*
G02*
X-91622000Y-90092040I260000J0D01*
G01*
X-89492000Y-90092040D01*
G75*
G02*
X-89232000Y-90352040I0J-260000D01*
G01*
X-89232000Y-92432040D01*
G75*
G02*
X-89492000Y-92692040I-260000J0D01*
G01*
X-91622000Y-92692040D01*
G75*
G02*
X-91882000Y-92432040I0J260000D01*
G01*
G37*
G36*
G01*
X-104809000Y-94972040D02*
X-104809000Y-92892040D01*
G75*
G02*
X-104549000Y-92632040I260000J0D01*
G01*
X-102419000Y-92632040D01*
G75*
G02*
X-102159000Y-92892040I0J-260000D01*
G01*
X-102159000Y-94972040D01*
G75*
G02*
X-102419000Y-95232040I-260000J0D01*
G01*
X-104549000Y-95232040D01*
G75*
G02*
X-104809000Y-94972040I0J260000D01*
G01*
G37*
D17*
X-93859000Y-91392040D03*
X-100209000Y-93932040D03*
%TD*%
D15*
%TO.C,SW12*%
X-151769000Y-177072040D03*
X-161929000Y-177072040D03*
D16*
X-156849000Y-177072040D03*
G36*
G01*
X-152332000Y-173032040D02*
X-152332000Y-170952040D01*
G75*
G02*
X-152072000Y-170692040I260000J0D01*
G01*
X-149942000Y-170692040D01*
G75*
G02*
X-149682000Y-170952040I0J-260000D01*
G01*
X-149682000Y-173032040D01*
G75*
G02*
X-149942000Y-173292040I-260000J0D01*
G01*
X-152072000Y-173292040D01*
G75*
G02*
X-152332000Y-173032040I0J260000D01*
G01*
G37*
G36*
G01*
X-165259000Y-175572040D02*
X-165259000Y-173492040D01*
G75*
G02*
X-164999000Y-173232040I260000J0D01*
G01*
X-162869000Y-173232040D01*
G75*
G02*
X-162609000Y-173492040I0J-260000D01*
G01*
X-162609000Y-175572040D01*
G75*
G02*
X-162869000Y-175832040I-260000J0D01*
G01*
X-164999000Y-175832040D01*
G75*
G02*
X-165259000Y-175572040I0J260000D01*
G01*
G37*
D17*
X-154309000Y-171992040D03*
X-160659000Y-174532040D03*
%TD*%
D15*
%TO.C,SW11*%
X-151769000Y-96472040D03*
X-161929000Y-96472040D03*
D16*
X-156849000Y-96472040D03*
G36*
G01*
X-152332000Y-92432040D02*
X-152332000Y-90352040D01*
G75*
G02*
X-152072000Y-90092040I260000J0D01*
G01*
X-149942000Y-90092040D01*
G75*
G02*
X-149682000Y-90352040I0J-260000D01*
G01*
X-149682000Y-92432040D01*
G75*
G02*
X-149942000Y-92692040I-260000J0D01*
G01*
X-152072000Y-92692040D01*
G75*
G02*
X-152332000Y-92432040I0J260000D01*
G01*
G37*
G36*
G01*
X-165259000Y-94972040D02*
X-165259000Y-92892040D01*
G75*
G02*
X-164999000Y-92632040I260000J0D01*
G01*
X-162869000Y-92632040D01*
G75*
G02*
X-162609000Y-92892040I0J-260000D01*
G01*
X-162609000Y-94972040D01*
G75*
G02*
X-162869000Y-95232040I-260000J0D01*
G01*
X-164999000Y-95232040D01*
G75*
G02*
X-165259000Y-94972040I0J260000D01*
G01*
G37*
D17*
X-154309000Y-91392040D03*
X-160659000Y-93932040D03*
%TD*%
D15*
%TO.C,SW10*%
X-111469000Y-136772040D03*
X-121629000Y-136772040D03*
D16*
X-116549000Y-136772040D03*
G36*
G01*
X-112032000Y-132732040D02*
X-112032000Y-130652040D01*
G75*
G02*
X-111772000Y-130392040I260000J0D01*
G01*
X-109642000Y-130392040D01*
G75*
G02*
X-109382000Y-130652040I0J-260000D01*
G01*
X-109382000Y-132732040D01*
G75*
G02*
X-109642000Y-132992040I-260000J0D01*
G01*
X-111772000Y-132992040D01*
G75*
G02*
X-112032000Y-132732040I0J260000D01*
G01*
G37*
G36*
G01*
X-124959000Y-135272040D02*
X-124959000Y-133192040D01*
G75*
G02*
X-124699000Y-132932040I260000J0D01*
G01*
X-122569000Y-132932040D01*
G75*
G02*
X-122309000Y-133192040I0J-260000D01*
G01*
X-122309000Y-135272040D01*
G75*
G02*
X-122569000Y-135532040I-260000J0D01*
G01*
X-124699000Y-135532040D01*
G75*
G02*
X-124959000Y-135272040I0J260000D01*
G01*
G37*
D17*
X-114009000Y-131692040D03*
X-120359000Y-134232040D03*
%TD*%
D15*
%TO.C,SW9*%
X-91319000Y-116622040D03*
X-101479000Y-116622040D03*
D16*
X-96399000Y-116622040D03*
G36*
G01*
X-91882000Y-112582040D02*
X-91882000Y-110502040D01*
G75*
G02*
X-91622000Y-110242040I260000J0D01*
G01*
X-89492000Y-110242040D01*
G75*
G02*
X-89232000Y-110502040I0J-260000D01*
G01*
X-89232000Y-112582040D01*
G75*
G02*
X-89492000Y-112842040I-260000J0D01*
G01*
X-91622000Y-112842040D01*
G75*
G02*
X-91882000Y-112582040I0J260000D01*
G01*
G37*
G36*
G01*
X-104809000Y-115122040D02*
X-104809000Y-113042040D01*
G75*
G02*
X-104549000Y-112782040I260000J0D01*
G01*
X-102419000Y-112782040D01*
G75*
G02*
X-102159000Y-113042040I0J-260000D01*
G01*
X-102159000Y-115122040D01*
G75*
G02*
X-102419000Y-115382040I-260000J0D01*
G01*
X-104549000Y-115382040D01*
G75*
G02*
X-104809000Y-115122040I0J260000D01*
G01*
G37*
D17*
X-93859000Y-111542040D03*
X-100209000Y-114082040D03*
%TD*%
D15*
%TO.C,SW8*%
X-71169000Y-96472040D03*
X-81329000Y-96472040D03*
D16*
X-76249000Y-96472040D03*
G36*
G01*
X-71732000Y-92432040D02*
X-71732000Y-90352040D01*
G75*
G02*
X-71472000Y-90092040I260000J0D01*
G01*
X-69342000Y-90092040D01*
G75*
G02*
X-69082000Y-90352040I0J-260000D01*
G01*
X-69082000Y-92432040D01*
G75*
G02*
X-69342000Y-92692040I-260000J0D01*
G01*
X-71472000Y-92692040D01*
G75*
G02*
X-71732000Y-92432040I0J260000D01*
G01*
G37*
G36*
G01*
X-84659000Y-94972040D02*
X-84659000Y-92892040D01*
G75*
G02*
X-84399000Y-92632040I260000J0D01*
G01*
X-82269000Y-92632040D01*
G75*
G02*
X-82009000Y-92892040I0J-260000D01*
G01*
X-82009000Y-94972040D01*
G75*
G02*
X-82269000Y-95232040I-260000J0D01*
G01*
X-84399000Y-95232040D01*
G75*
G02*
X-84659000Y-94972040I0J260000D01*
G01*
G37*
D17*
X-73709000Y-91392040D03*
X-80059000Y-93932040D03*
%TD*%
D15*
%TO.C,SW7*%
X-151769000Y-197222040D03*
X-161929000Y-197222040D03*
D16*
X-156849000Y-197222040D03*
G36*
G01*
X-152332000Y-193182040D02*
X-152332000Y-191102040D01*
G75*
G02*
X-152072000Y-190842040I260000J0D01*
G01*
X-149942000Y-190842040D01*
G75*
G02*
X-149682000Y-191102040I0J-260000D01*
G01*
X-149682000Y-193182040D01*
G75*
G02*
X-149942000Y-193442040I-260000J0D01*
G01*
X-152072000Y-193442040D01*
G75*
G02*
X-152332000Y-193182040I0J260000D01*
G01*
G37*
G36*
G01*
X-165259000Y-195722040D02*
X-165259000Y-193642040D01*
G75*
G02*
X-164999000Y-193382040I260000J0D01*
G01*
X-162869000Y-193382040D01*
G75*
G02*
X-162609000Y-193642040I0J-260000D01*
G01*
X-162609000Y-195722040D01*
G75*
G02*
X-162869000Y-195982040I-260000J0D01*
G01*
X-164999000Y-195982040D01*
G75*
G02*
X-165259000Y-195722040I0J260000D01*
G01*
G37*
D17*
X-154309000Y-192142040D03*
X-160659000Y-194682040D03*
%TD*%
D15*
%TO.C,SW6*%
X-131619000Y-177072040D03*
X-141779000Y-177072040D03*
D16*
X-136699000Y-177072040D03*
G36*
G01*
X-132182000Y-173032040D02*
X-132182000Y-170952040D01*
G75*
G02*
X-131922000Y-170692040I260000J0D01*
G01*
X-129792000Y-170692040D01*
G75*
G02*
X-129532000Y-170952040I0J-260000D01*
G01*
X-129532000Y-173032040D01*
G75*
G02*
X-129792000Y-173292040I-260000J0D01*
G01*
X-131922000Y-173292040D01*
G75*
G02*
X-132182000Y-173032040I0J260000D01*
G01*
G37*
G36*
G01*
X-145109000Y-175572040D02*
X-145109000Y-173492040D01*
G75*
G02*
X-144849000Y-173232040I260000J0D01*
G01*
X-142719000Y-173232040D01*
G75*
G02*
X-142459000Y-173492040I0J-260000D01*
G01*
X-142459000Y-175572040D01*
G75*
G02*
X-142719000Y-175832040I-260000J0D01*
G01*
X-144849000Y-175832040D01*
G75*
G02*
X-145109000Y-175572040I0J260000D01*
G01*
G37*
D17*
X-134159000Y-171992040D03*
X-140509000Y-174532040D03*
%TD*%
D15*
%TO.C,SW5*%
X-111469000Y-156922040D03*
X-121629000Y-156922040D03*
D16*
X-116549000Y-156922040D03*
G36*
G01*
X-112032000Y-152882040D02*
X-112032000Y-150802040D01*
G75*
G02*
X-111772000Y-150542040I260000J0D01*
G01*
X-109642000Y-150542040D01*
G75*
G02*
X-109382000Y-150802040I0J-260000D01*
G01*
X-109382000Y-152882040D01*
G75*
G02*
X-109642000Y-153142040I-260000J0D01*
G01*
X-111772000Y-153142040D01*
G75*
G02*
X-112032000Y-152882040I0J260000D01*
G01*
G37*
G36*
G01*
X-124959000Y-155422040D02*
X-124959000Y-153342040D01*
G75*
G02*
X-124699000Y-153082040I260000J0D01*
G01*
X-122569000Y-153082040D01*
G75*
G02*
X-122309000Y-153342040I0J-260000D01*
G01*
X-122309000Y-155422040D01*
G75*
G02*
X-122569000Y-155682040I-260000J0D01*
G01*
X-124699000Y-155682040D01*
G75*
G02*
X-124959000Y-155422040I0J260000D01*
G01*
G37*
D17*
X-114009000Y-151842040D03*
X-120359000Y-154382040D03*
%TD*%
D15*
%TO.C,SW4*%
X-91319000Y-136772040D03*
X-101479000Y-136772040D03*
D16*
X-96399000Y-136772040D03*
G36*
G01*
X-91882000Y-132732040D02*
X-91882000Y-130652040D01*
G75*
G02*
X-91622000Y-130392040I260000J0D01*
G01*
X-89492000Y-130392040D01*
G75*
G02*
X-89232000Y-130652040I0J-260000D01*
G01*
X-89232000Y-132732040D01*
G75*
G02*
X-89492000Y-132992040I-260000J0D01*
G01*
X-91622000Y-132992040D01*
G75*
G02*
X-91882000Y-132732040I0J260000D01*
G01*
G37*
G36*
G01*
X-104809000Y-135272040D02*
X-104809000Y-133192040D01*
G75*
G02*
X-104549000Y-132932040I260000J0D01*
G01*
X-102419000Y-132932040D01*
G75*
G02*
X-102159000Y-133192040I0J-260000D01*
G01*
X-102159000Y-135272040D01*
G75*
G02*
X-102419000Y-135532040I-260000J0D01*
G01*
X-104549000Y-135532040D01*
G75*
G02*
X-104809000Y-135272040I0J260000D01*
G01*
G37*
D17*
X-93859000Y-131692040D03*
X-100209000Y-134232040D03*
%TD*%
D15*
%TO.C,SW3*%
X-71169000Y-116622040D03*
X-81329000Y-116622040D03*
D16*
X-76249000Y-116622040D03*
G36*
G01*
X-71732000Y-112582040D02*
X-71732000Y-110502040D01*
G75*
G02*
X-71472000Y-110242040I260000J0D01*
G01*
X-69342000Y-110242040D01*
G75*
G02*
X-69082000Y-110502040I0J-260000D01*
G01*
X-69082000Y-112582040D01*
G75*
G02*
X-69342000Y-112842040I-260000J0D01*
G01*
X-71472000Y-112842040D01*
G75*
G02*
X-71732000Y-112582040I0J260000D01*
G01*
G37*
G36*
G01*
X-84659000Y-115122040D02*
X-84659000Y-113042040D01*
G75*
G02*
X-84399000Y-112782040I260000J0D01*
G01*
X-82269000Y-112782040D01*
G75*
G02*
X-82009000Y-113042040I0J-260000D01*
G01*
X-82009000Y-115122040D01*
G75*
G02*
X-82269000Y-115382040I-260000J0D01*
G01*
X-84399000Y-115382040D01*
G75*
G02*
X-84659000Y-115122040I0J260000D01*
G01*
G37*
D17*
X-73709000Y-111542040D03*
X-80059000Y-114082040D03*
%TD*%
D15*
%TO.C,SW2*%
X-71169000Y-156922040D03*
X-81329000Y-156922040D03*
D16*
X-76249000Y-156922040D03*
G36*
G01*
X-71732000Y-152882040D02*
X-71732000Y-150802040D01*
G75*
G02*
X-71472000Y-150542040I260000J0D01*
G01*
X-69342000Y-150542040D01*
G75*
G02*
X-69082000Y-150802040I0J-260000D01*
G01*
X-69082000Y-152882040D01*
G75*
G02*
X-69342000Y-153142040I-260000J0D01*
G01*
X-71472000Y-153142040D01*
G75*
G02*
X-71732000Y-152882040I0J260000D01*
G01*
G37*
G36*
G01*
X-84659000Y-155422040D02*
X-84659000Y-153342040D01*
G75*
G02*
X-84399000Y-153082040I260000J0D01*
G01*
X-82269000Y-153082040D01*
G75*
G02*
X-82009000Y-153342040I0J-260000D01*
G01*
X-82009000Y-155422040D01*
G75*
G02*
X-82269000Y-155682040I-260000J0D01*
G01*
X-84399000Y-155682040D01*
G75*
G02*
X-84659000Y-155422040I0J260000D01*
G01*
G37*
D17*
X-73709000Y-151842040D03*
X-80059000Y-154382040D03*
%TD*%
D15*
%TO.C,SW1*%
X-30869000Y-237522040D03*
X-41029000Y-237522040D03*
D16*
X-35949000Y-237522040D03*
G36*
G01*
X-31432000Y-233482040D02*
X-31432000Y-231402040D01*
G75*
G02*
X-31172000Y-231142040I260000J0D01*
G01*
X-29042000Y-231142040D01*
G75*
G02*
X-28782000Y-231402040I0J-260000D01*
G01*
X-28782000Y-233482040D01*
G75*
G02*
X-29042000Y-233742040I-260000J0D01*
G01*
X-31172000Y-233742040D01*
G75*
G02*
X-31432000Y-233482040I0J260000D01*
G01*
G37*
G36*
G01*
X-44359000Y-236022040D02*
X-44359000Y-233942040D01*
G75*
G02*
X-44099000Y-233682040I260000J0D01*
G01*
X-41969000Y-233682040D01*
G75*
G02*
X-41709000Y-233942040I0J-260000D01*
G01*
X-41709000Y-236022040D01*
G75*
G02*
X-41969000Y-236282040I-260000J0D01*
G01*
X-44099000Y-236282040D01*
G75*
G02*
X-44359000Y-236022040I0J260000D01*
G01*
G37*
D17*
X-33409000Y-232442040D03*
X-39759000Y-234982040D03*
%TD*%
D18*
%TO.C,J2*%
X77781000Y-137112040D03*
X83561000Y-137112040D03*
D19*
X84991000Y-140802040D03*
X76351000Y-140802040D03*
D20*
X84991000Y-136632040D03*
X76351000Y-136632040D03*
%TD*%
D21*
%TO.C,J1*%
X110501000Y-96342040D03*
X110501000Y-93802040D03*
X110501000Y-91262040D03*
D22*
X110501000Y-88722040D03*
%TD*%
D23*
%TO.C,D85*%
X10586000Y-212207040D03*
X10586000Y-209007040D03*
X5686000Y-212207040D03*
X5686000Y-209007040D03*
%TD*%
%TO.C,D84*%
X-9564000Y-232357040D03*
X-9564000Y-229157040D03*
X-14464000Y-232357040D03*
X-14464000Y-229157040D03*
%TD*%
%TO.C,D83*%
X-19214000Y-244207040D03*
X-19214000Y-241007040D03*
X-24114000Y-244207040D03*
X-24114000Y-241007040D03*
%TD*%
%TO.C,D82*%
X120986000Y-103157040D03*
X120986000Y-99957040D03*
X116086000Y-103157040D03*
X116086000Y-99957040D03*
%TD*%
%TO.C,D81*%
X936000Y-224057040D03*
X936000Y-220857040D03*
X-3964000Y-224057040D03*
X-3964000Y-220857040D03*
%TD*%
%TO.C,D80*%
X21086000Y-203907040D03*
X21086000Y-200707040D03*
X16186000Y-203907040D03*
X16186000Y-200707040D03*
%TD*%
%TO.C,D79*%
X41236000Y-183757040D03*
X41236000Y-180557040D03*
X36336000Y-183757040D03*
X36336000Y-180557040D03*
%TD*%
%TO.C,D78*%
X61386000Y-163607040D03*
X61386000Y-160407040D03*
X56486000Y-163607040D03*
X56486000Y-160407040D03*
%TD*%
%TO.C,D77*%
X-9564000Y-238977040D03*
X-9564000Y-235777040D03*
X-14464000Y-238977040D03*
X-14464000Y-235777040D03*
%TD*%
%TO.C,D76*%
X10586000Y-218827040D03*
X10586000Y-215627040D03*
X5686000Y-218827040D03*
X5686000Y-215627040D03*
%TD*%
%TO.C,D75*%
X112186000Y-128647040D03*
X112186000Y-125447040D03*
X107286000Y-128647040D03*
X107286000Y-125447040D03*
%TD*%
%TO.C,D74*%
X-1144000Y-237297040D03*
X-1144000Y-234097040D03*
X-6044000Y-237297040D03*
X-6044000Y-234097040D03*
%TD*%
%TO.C,D73*%
X30736000Y-192057040D03*
X30736000Y-188857040D03*
X25836000Y-192057040D03*
X25836000Y-188857040D03*
%TD*%
%TO.C,D72*%
X112186000Y-122027040D03*
X112186000Y-118827040D03*
X107286000Y-122027040D03*
X107286000Y-118827040D03*
%TD*%
%TO.C,D71*%
X101546000Y-133007040D03*
X101546000Y-129807040D03*
X96646000Y-133007040D03*
X96646000Y-129807040D03*
%TD*%
%TO.C,D70*%
X89956000Y-149337040D03*
X89956000Y-146137040D03*
X85056000Y-149337040D03*
X85056000Y-146137040D03*
%TD*%
%TO.C,D69*%
X59306000Y-176847040D03*
X59306000Y-173647040D03*
X54406000Y-176847040D03*
X54406000Y-173647040D03*
%TD*%
%TO.C,D68*%
X39156000Y-196997040D03*
X39156000Y-193797040D03*
X34256000Y-196997040D03*
X34256000Y-193797040D03*
%TD*%
%TO.C,D67*%
X19006000Y-217147040D03*
X19006000Y-213947040D03*
X14106000Y-217147040D03*
X14106000Y-213947040D03*
%TD*%
%TO.C,D66*%
X9356000Y-225447040D03*
X9356000Y-222247040D03*
X4456000Y-225447040D03*
X4456000Y-222247040D03*
%TD*%
%TO.C,D65*%
X29506000Y-205297040D03*
X29506000Y-202097040D03*
X24606000Y-205297040D03*
X24606000Y-202097040D03*
%TD*%
%TO.C,D64*%
X187450000Y-188100000D03*
X187450000Y-184900000D03*
X182550000Y-188100000D03*
X182550000Y-184900000D03*
%TD*%
%TO.C,D63*%
X69806000Y-164997040D03*
X69806000Y-161797040D03*
X64906000Y-164997040D03*
X64906000Y-161797040D03*
%TD*%
%TO.C,D62*%
X120606000Y-123017040D03*
X120606000Y-119817040D03*
X115706000Y-123017040D03*
X115706000Y-119817040D03*
%TD*%
%TO.C,D61*%
X79456000Y-155957040D03*
X79456000Y-152757040D03*
X74556000Y-155957040D03*
X74556000Y-152757040D03*
%TD*%
%TO.C,D60*%
X120606000Y-116397040D03*
X120606000Y-113197040D03*
X115706000Y-116397040D03*
X115706000Y-113197040D03*
%TD*%
%TO.C,D59*%
X101546000Y-139627040D03*
X101546000Y-136427040D03*
X96646000Y-139627040D03*
X96646000Y-136427040D03*
%TD*%
%TO.C,D58*%
X-2374000Y-245597040D03*
X-2374000Y-242397040D03*
X-7274000Y-245597040D03*
X-7274000Y-242397040D03*
%TD*%
%TO.C,D57*%
X59306000Y-183467040D03*
X59306000Y-180267040D03*
X54406000Y-183467040D03*
X54406000Y-180267040D03*
%TD*%
%TO.C,D56*%
X39156000Y-203617040D03*
X39156000Y-200417040D03*
X34256000Y-203617040D03*
X34256000Y-200417040D03*
%TD*%
%TO.C,D55*%
X19006000Y-223767040D03*
X19006000Y-220567040D03*
X14106000Y-223767040D03*
X14106000Y-220567040D03*
%TD*%
%TO.C,D54*%
X9356000Y-232067040D03*
X9356000Y-228867040D03*
X4456000Y-232067040D03*
X4456000Y-228867040D03*
%TD*%
%TO.C,D53*%
X29506000Y-211917040D03*
X29506000Y-208717040D03*
X24606000Y-211917040D03*
X24606000Y-208717040D03*
%TD*%
%TO.C,D52*%
X49656000Y-191767040D03*
X49656000Y-188567040D03*
X44756000Y-191767040D03*
X44756000Y-188567040D03*
%TD*%
%TO.C,D51*%
X69806000Y-171617040D03*
X69806000Y-168417040D03*
X64906000Y-171617040D03*
X64906000Y-168417040D03*
%TD*%
%TO.C,D50*%
X79456000Y-162577040D03*
X79456000Y-159377040D03*
X74556000Y-162577040D03*
X74556000Y-159377040D03*
%TD*%
%TO.C,D49*%
X87876000Y-155957040D03*
X87876000Y-152757040D03*
X82976000Y-155957040D03*
X82976000Y-152757040D03*
%TD*%
%TO.C,D48*%
X-10794000Y-245597040D03*
X-10794000Y-242397040D03*
X-15694000Y-245597040D03*
X-15694000Y-242397040D03*
%TD*%
%TO.C,D47*%
X66496000Y-191477040D03*
X66496000Y-188277040D03*
X61596000Y-191477040D03*
X61596000Y-188277040D03*
%TD*%
%TO.C,D46*%
X46346000Y-211627040D03*
X46346000Y-208427040D03*
X41446000Y-211627040D03*
X41446000Y-208427040D03*
%TD*%
%TO.C,D45*%
X26196000Y-231777040D03*
X26196000Y-228577040D03*
X21296000Y-231777040D03*
X21296000Y-228577040D03*
%TD*%
%TO.C,D44*%
X55996000Y-203327040D03*
X55996000Y-200127040D03*
X51096000Y-203327040D03*
X51096000Y-200127040D03*
%TD*%
%TO.C,D43*%
X76146000Y-182437040D03*
X76146000Y-179237040D03*
X71246000Y-182437040D03*
X71246000Y-179237040D03*
%TD*%
%TO.C,D42*%
X35846000Y-223477040D03*
X35846000Y-220277040D03*
X30946000Y-223477040D03*
X30946000Y-220277040D03*
%TD*%
%TO.C,D41*%
X58076000Y-196707040D03*
X58076000Y-193507040D03*
X53176000Y-196707040D03*
X53176000Y-193507040D03*
%TD*%
%TO.C,D40*%
X106796000Y-148507040D03*
X106796000Y-145307040D03*
X101896000Y-148507040D03*
X101896000Y-145307040D03*
%TD*%
%TO.C,D39*%
X109966000Y-135267040D03*
X109966000Y-132067040D03*
X105066000Y-135267040D03*
X105066000Y-132067040D03*
%TD*%
%TO.C,D38*%
X78226000Y-169197040D03*
X78226000Y-165997040D03*
X73326000Y-169197040D03*
X73326000Y-165997040D03*
%TD*%
%TO.C,D37*%
X6046000Y-245307040D03*
X6046000Y-242107040D03*
X1146000Y-245307040D03*
X1146000Y-242107040D03*
%TD*%
%TO.C,D36*%
X67726000Y-178237040D03*
X67726000Y-175037040D03*
X62826000Y-178237040D03*
X62826000Y-175037040D03*
%TD*%
%TO.C,D35*%
X47576000Y-198387040D03*
X47576000Y-195187040D03*
X42676000Y-198387040D03*
X42676000Y-195187040D03*
%TD*%
%TO.C,D34*%
X37926000Y-210237040D03*
X37926000Y-207037040D03*
X33026000Y-210237040D03*
X33026000Y-207037040D03*
%TD*%
%TO.C,D33*%
X7276000Y-238687040D03*
X7276000Y-235487040D03*
X2376000Y-238687040D03*
X2376000Y-235487040D03*
%TD*%
%TO.C,D32*%
X17776000Y-230387040D03*
X17776000Y-227187040D03*
X12876000Y-230387040D03*
X12876000Y-227187040D03*
%TD*%
%TO.C,D31*%
X47576000Y-205007040D03*
X47576000Y-201807040D03*
X42676000Y-205007040D03*
X42676000Y-201807040D03*
%TD*%
%TO.C,D30*%
X67726000Y-184857040D03*
X67726000Y-181657040D03*
X62826000Y-184857040D03*
X62826000Y-181657040D03*
%TD*%
%TO.C,D29*%
X78226000Y-175817040D03*
X78226000Y-172617040D03*
X73326000Y-175817040D03*
X73326000Y-172617040D03*
%TD*%
%TO.C,D28*%
X86646000Y-169197040D03*
X86646000Y-165997040D03*
X81746000Y-169197040D03*
X81746000Y-165997040D03*
%TD*%
%TO.C,D27*%
X27426000Y-225157040D03*
X27426000Y-221957040D03*
X22526000Y-225157040D03*
X22526000Y-221957040D03*
%TD*%
%TO.C,D26*%
X109966000Y-141887040D03*
X109966000Y-138687040D03*
X105066000Y-141887040D03*
X105066000Y-138687040D03*
%TD*%
%TO.C,D25*%
X87876000Y-162577040D03*
X87876000Y-159377040D03*
X82976000Y-162577040D03*
X82976000Y-159377040D03*
%TD*%
%TO.C,D24*%
X120606000Y-129637040D03*
X120606000Y-126437040D03*
X115706000Y-129637040D03*
X115706000Y-126437040D03*
%TD*%
%TO.C,D23*%
X98376000Y-152867040D03*
X98376000Y-149667040D03*
X93476000Y-152867040D03*
X93476000Y-149667040D03*
%TD*%
%TO.C,D22*%
X98376000Y-146247040D03*
X98376000Y-143047040D03*
X93476000Y-146247040D03*
X93476000Y-143047040D03*
%TD*%
%TO.C,D21*%
X58076000Y-190087040D03*
X58076000Y-186887040D03*
X53176000Y-190087040D03*
X53176000Y-186887040D03*
%TD*%
%TO.C,D20*%
X27426000Y-218537040D03*
X27426000Y-215337040D03*
X22526000Y-218537040D03*
X22526000Y-215337040D03*
%TD*%
%TO.C,D19*%
X30736000Y-198677040D03*
X30736000Y-195477040D03*
X25836000Y-198677040D03*
X25836000Y-195477040D03*
%TD*%
%TO.C,D18*%
X50886000Y-178527040D03*
X50886000Y-175327040D03*
X45986000Y-178527040D03*
X45986000Y-175327040D03*
%TD*%
%TO.C,D17*%
X71036000Y-158377040D03*
X71036000Y-155177040D03*
X66136000Y-158377040D03*
X66136000Y-155177040D03*
%TD*%
%TO.C,D16*%
X81536000Y-149337040D03*
X81536000Y-146137040D03*
X76636000Y-149337040D03*
X76636000Y-146137040D03*
%TD*%
%TO.C,D15*%
X120986000Y-109777040D03*
X120986000Y-106577040D03*
X116086000Y-109777040D03*
X116086000Y-106577040D03*
%TD*%
%TO.C,D14*%
X93126000Y-139357040D03*
X93126000Y-136157040D03*
X88226000Y-139357040D03*
X88226000Y-136157040D03*
%TD*%
%TO.C,D13*%
X61386000Y-170227040D03*
X61386000Y-167027040D03*
X56486000Y-170227040D03*
X56486000Y-167027040D03*
%TD*%
%TO.C,D12*%
X41236000Y-190377040D03*
X41236000Y-187177040D03*
X36336000Y-190377040D03*
X36336000Y-187177040D03*
%TD*%
%TO.C,D11*%
X21086000Y-210527040D03*
X21086000Y-207327040D03*
X16186000Y-210527040D03*
X16186000Y-207327040D03*
%TD*%
%TO.C,D10*%
X936000Y-230677040D03*
X936000Y-227477040D03*
X-3964000Y-230677040D03*
X-3964000Y-227477040D03*
%TD*%
%TO.C,D9*%
X-19214000Y-250827040D03*
X-19214000Y-247627040D03*
X-24114000Y-250827040D03*
X-24114000Y-247627040D03*
%TD*%
%TO.C,D8*%
X112186000Y-115407040D03*
X112186000Y-112207040D03*
X107286000Y-115407040D03*
X107286000Y-112207040D03*
%TD*%
%TO.C,D7*%
X14466000Y-245307040D03*
X14466000Y-242107040D03*
X9566000Y-245307040D03*
X9566000Y-242107040D03*
%TD*%
%TO.C,D6*%
X50886000Y-171907040D03*
X50886000Y-168707040D03*
X45986000Y-171907040D03*
X45986000Y-168707040D03*
%TD*%
%TO.C,D5*%
X71036000Y-151757040D03*
X71036000Y-148557040D03*
X66136000Y-151757040D03*
X66136000Y-148557040D03*
%TD*%
%TO.C,D4*%
X96296000Y-159487040D03*
X96296000Y-156287040D03*
X91396000Y-159487040D03*
X91396000Y-156287040D03*
%TD*%
%TO.C,D3*%
X37926000Y-216857040D03*
X37926000Y-213657040D03*
X33026000Y-216857040D03*
X33026000Y-213657040D03*
%TD*%
%TO.C,D2*%
X17776000Y-237007040D03*
X17776000Y-233807040D03*
X12876000Y-237007040D03*
X12876000Y-233807040D03*
%TD*%
%TO.C,D1*%
X118386000Y-136257040D03*
X118386000Y-133057040D03*
X113486000Y-136257040D03*
X113486000Y-133057040D03*
%TD*%
M02*
