%TF.GenerationSoftware,KiCad,Pcbnew,(5.1.6)-1*%
%TF.CreationDate,2022-07-30T00:49:16+08:00*%
%TF.ProjectId,feng,66656e67-2e6b-4696-9361-645f70636258,rev?*%
%TF.SameCoordinates,Original*%
%TF.FileFunction,Legend,Bot*%
%TF.FilePolarity,Positive*%
%FSLAX46Y46*%
G04 Gerber Fmt 4.6, Leading zero omitted, Abs format (unit mm)*
G04 Created by KiCad (PCBNEW (5.1.6)-1) date 2022-07-30 00:49:16*
%MOMM*%
%LPD*%
G01*
G04 APERTURE LIST*
%ADD10C,0.120000*%
%ADD11C,0.150000*%
%ADD12C,0.127000*%
G04 APERTURE END LIST*
D10*
%TO.C,U4*%
X112910000Y-34590000D02*
X112910000Y-35850000D01*
X112910000Y-41410000D02*
X112910000Y-40150000D01*
X109150000Y-34590000D02*
X112910000Y-34590000D01*
X106900000Y-41410000D02*
X112910000Y-41410000D01*
%TO.C,U3*%
X159740000Y-48000000D02*
X159740000Y-45615000D01*
X159740000Y-45615000D02*
X159995000Y-45615000D01*
X159740000Y-48000000D02*
X159740000Y-50385000D01*
X159740000Y-50385000D02*
X159995000Y-50385000D01*
X170260000Y-48000000D02*
X170260000Y-45615000D01*
X170260000Y-45615000D02*
X170005000Y-45615000D01*
X170260000Y-48000000D02*
X170260000Y-50385000D01*
X170260000Y-50385000D02*
X170005000Y-50385000D01*
X170005000Y-50385000D02*
X170005000Y-52050000D01*
%TO.C,U2*%
X137740000Y-48000000D02*
X137740000Y-45615000D01*
X137740000Y-45615000D02*
X137995000Y-45615000D01*
X137740000Y-48000000D02*
X137740000Y-50385000D01*
X137740000Y-50385000D02*
X137995000Y-50385000D01*
X148260000Y-48000000D02*
X148260000Y-45615000D01*
X148260000Y-45615000D02*
X148005000Y-45615000D01*
X148260000Y-48000000D02*
X148260000Y-50385000D01*
X148260000Y-50385000D02*
X148005000Y-50385000D01*
X148005000Y-50385000D02*
X148005000Y-52050000D01*
%TO.C,U1*%
X115740000Y-48000000D02*
X115740000Y-45615000D01*
X115740000Y-45615000D02*
X115995000Y-45615000D01*
X115740000Y-48000000D02*
X115740000Y-50385000D01*
X115740000Y-50385000D02*
X115995000Y-50385000D01*
X126260000Y-48000000D02*
X126260000Y-45615000D01*
X126260000Y-45615000D02*
X126005000Y-45615000D01*
X126260000Y-48000000D02*
X126260000Y-50385000D01*
X126260000Y-50385000D02*
X126005000Y-50385000D01*
X126005000Y-50385000D02*
X126005000Y-52050000D01*
%TO.C,RN6*%
X160320000Y-55000000D02*
X160320000Y-56000000D01*
X163680000Y-55000000D02*
X163680000Y-56000000D01*
%TO.C,RN5*%
X138320000Y-55000000D02*
X138320000Y-56000000D01*
X141680000Y-55000000D02*
X141680000Y-56000000D01*
%TO.C,RN4*%
X116320000Y-55000000D02*
X116320000Y-56000000D01*
X119680000Y-55000000D02*
X119680000Y-56000000D01*
%TO.C,RN3*%
X169680000Y-56000000D02*
X169680000Y-55000000D01*
X166320000Y-56000000D02*
X166320000Y-55000000D01*
%TO.C,RN2*%
X147680000Y-56000000D02*
X147680000Y-55000000D01*
X144320000Y-56000000D02*
X144320000Y-55000000D01*
%TO.C,RN1*%
X125680000Y-56000000D02*
X125680000Y-55000000D01*
X122320000Y-56000000D02*
X122320000Y-55000000D01*
%TO.C,U4*%
D11*
X111761904Y-41952380D02*
X111761904Y-42761904D01*
X111714285Y-42857142D01*
X111666666Y-42904761D01*
X111571428Y-42952380D01*
X111380952Y-42952380D01*
X111285714Y-42904761D01*
X111238095Y-42857142D01*
X111190476Y-42761904D01*
X111190476Y-41952380D01*
X110285714Y-42285714D02*
X110285714Y-42952380D01*
X110523809Y-41904761D02*
X110761904Y-42619047D01*
X110142857Y-42619047D01*
%TO.C,U3*%
X171647619Y-48761904D02*
X170838095Y-48761904D01*
X170742857Y-48714285D01*
X170695238Y-48666666D01*
X170647619Y-48571428D01*
X170647619Y-48380952D01*
X170695238Y-48285714D01*
X170742857Y-48238095D01*
X170838095Y-48190476D01*
X171647619Y-48190476D01*
X171647619Y-47809523D02*
X171647619Y-47190476D01*
X171266666Y-47523809D01*
X171266666Y-47380952D01*
X171219047Y-47285714D01*
X171171428Y-47238095D01*
X171076190Y-47190476D01*
X170838095Y-47190476D01*
X170742857Y-47238095D01*
X170695238Y-47285714D01*
X170647619Y-47380952D01*
X170647619Y-47666666D01*
X170695238Y-47761904D01*
X170742857Y-47809523D01*
%TO.C,U2*%
X149647619Y-48761904D02*
X148838095Y-48761904D01*
X148742857Y-48714285D01*
X148695238Y-48666666D01*
X148647619Y-48571428D01*
X148647619Y-48380952D01*
X148695238Y-48285714D01*
X148742857Y-48238095D01*
X148838095Y-48190476D01*
X149647619Y-48190476D01*
X149552380Y-47761904D02*
X149600000Y-47714285D01*
X149647619Y-47619047D01*
X149647619Y-47380952D01*
X149600000Y-47285714D01*
X149552380Y-47238095D01*
X149457142Y-47190476D01*
X149361904Y-47190476D01*
X149219047Y-47238095D01*
X148647619Y-47809523D01*
X148647619Y-47190476D01*
%TO.C,U1*%
X127647619Y-48761904D02*
X126838095Y-48761904D01*
X126742857Y-48714285D01*
X126695238Y-48666666D01*
X126647619Y-48571428D01*
X126647619Y-48380952D01*
X126695238Y-48285714D01*
X126742857Y-48238095D01*
X126838095Y-48190476D01*
X127647619Y-48190476D01*
X126647619Y-47190476D02*
X126647619Y-47761904D01*
X126647619Y-47476190D02*
X127647619Y-47476190D01*
X127504761Y-47571428D01*
X127409523Y-47666666D01*
X127361904Y-47761904D01*
%TO.C,RN6*%
X165252380Y-54809523D02*
X164776190Y-54476190D01*
X165252380Y-54238095D02*
X164252380Y-54238095D01*
X164252380Y-54619047D01*
X164300000Y-54714285D01*
X164347619Y-54761904D01*
X164442857Y-54809523D01*
X164585714Y-54809523D01*
X164680952Y-54761904D01*
X164728571Y-54714285D01*
X164776190Y-54619047D01*
X164776190Y-54238095D01*
X165252380Y-55238095D02*
X164252380Y-55238095D01*
X165252380Y-55809523D01*
X164252380Y-55809523D01*
X164252380Y-56714285D02*
X164252380Y-56523809D01*
X164300000Y-56428571D01*
X164347619Y-56380952D01*
X164490476Y-56285714D01*
X164680952Y-56238095D01*
X165061904Y-56238095D01*
X165157142Y-56285714D01*
X165204761Y-56333333D01*
X165252380Y-56428571D01*
X165252380Y-56619047D01*
X165204761Y-56714285D01*
X165157142Y-56761904D01*
X165061904Y-56809523D01*
X164823809Y-56809523D01*
X164728571Y-56761904D01*
X164680952Y-56714285D01*
X164633333Y-56619047D01*
X164633333Y-56428571D01*
X164680952Y-56333333D01*
X164728571Y-56285714D01*
X164823809Y-56238095D01*
%TO.C,RN5*%
X143252380Y-54809523D02*
X142776190Y-54476190D01*
X143252380Y-54238095D02*
X142252380Y-54238095D01*
X142252380Y-54619047D01*
X142300000Y-54714285D01*
X142347619Y-54761904D01*
X142442857Y-54809523D01*
X142585714Y-54809523D01*
X142680952Y-54761904D01*
X142728571Y-54714285D01*
X142776190Y-54619047D01*
X142776190Y-54238095D01*
X143252380Y-55238095D02*
X142252380Y-55238095D01*
X143252380Y-55809523D01*
X142252380Y-55809523D01*
X142252380Y-56761904D02*
X142252380Y-56285714D01*
X142728571Y-56238095D01*
X142680952Y-56285714D01*
X142633333Y-56380952D01*
X142633333Y-56619047D01*
X142680952Y-56714285D01*
X142728571Y-56761904D01*
X142823809Y-56809523D01*
X143061904Y-56809523D01*
X143157142Y-56761904D01*
X143204761Y-56714285D01*
X143252380Y-56619047D01*
X143252380Y-56380952D01*
X143204761Y-56285714D01*
X143157142Y-56238095D01*
%TO.C,RN4*%
X121252380Y-54809523D02*
X120776190Y-54476190D01*
X121252380Y-54238095D02*
X120252380Y-54238095D01*
X120252380Y-54619047D01*
X120300000Y-54714285D01*
X120347619Y-54761904D01*
X120442857Y-54809523D01*
X120585714Y-54809523D01*
X120680952Y-54761904D01*
X120728571Y-54714285D01*
X120776190Y-54619047D01*
X120776190Y-54238095D01*
X121252380Y-55238095D02*
X120252380Y-55238095D01*
X121252380Y-55809523D01*
X120252380Y-55809523D01*
X120585714Y-56714285D02*
X121252380Y-56714285D01*
X120204761Y-56476190D02*
X120919047Y-56238095D01*
X120919047Y-56857142D01*
%TO.C,RN3*%
X165652380Y-54809523D02*
X165176190Y-54476190D01*
X165652380Y-54238095D02*
X164652380Y-54238095D01*
X164652380Y-54619047D01*
X164700000Y-54714285D01*
X164747619Y-54761904D01*
X164842857Y-54809523D01*
X164985714Y-54809523D01*
X165080952Y-54761904D01*
X165128571Y-54714285D01*
X165176190Y-54619047D01*
X165176190Y-54238095D01*
X165652380Y-55238095D02*
X164652380Y-55238095D01*
X165652380Y-55809523D01*
X164652380Y-55809523D01*
X164652380Y-56190476D02*
X164652380Y-56809523D01*
X165033333Y-56476190D01*
X165033333Y-56619047D01*
X165080952Y-56714285D01*
X165128571Y-56761904D01*
X165223809Y-56809523D01*
X165461904Y-56809523D01*
X165557142Y-56761904D01*
X165604761Y-56714285D01*
X165652380Y-56619047D01*
X165652380Y-56333333D01*
X165604761Y-56238095D01*
X165557142Y-56190476D01*
%TO.C,RN2*%
X143652380Y-54809523D02*
X143176190Y-54476190D01*
X143652380Y-54238095D02*
X142652380Y-54238095D01*
X142652380Y-54619047D01*
X142700000Y-54714285D01*
X142747619Y-54761904D01*
X142842857Y-54809523D01*
X142985714Y-54809523D01*
X143080952Y-54761904D01*
X143128571Y-54714285D01*
X143176190Y-54619047D01*
X143176190Y-54238095D01*
X143652380Y-55238095D02*
X142652380Y-55238095D01*
X143652380Y-55809523D01*
X142652380Y-55809523D01*
X142747619Y-56238095D02*
X142700000Y-56285714D01*
X142652380Y-56380952D01*
X142652380Y-56619047D01*
X142700000Y-56714285D01*
X142747619Y-56761904D01*
X142842857Y-56809523D01*
X142938095Y-56809523D01*
X143080952Y-56761904D01*
X143652380Y-56190476D01*
X143652380Y-56809523D01*
%TO.C,RN1*%
X121652380Y-54809523D02*
X121176190Y-54476190D01*
X121652380Y-54238095D02*
X120652380Y-54238095D01*
X120652380Y-54619047D01*
X120700000Y-54714285D01*
X120747619Y-54761904D01*
X120842857Y-54809523D01*
X120985714Y-54809523D01*
X121080952Y-54761904D01*
X121128571Y-54714285D01*
X121176190Y-54619047D01*
X121176190Y-54238095D01*
X121652380Y-55238095D02*
X120652380Y-55238095D01*
X121652380Y-55809523D01*
X120652380Y-55809523D01*
X121652380Y-56809523D02*
X121652380Y-56238095D01*
X121652380Y-56523809D02*
X120652380Y-56523809D01*
X120795238Y-56428571D01*
X120890476Y-56333333D01*
X120938095Y-56238095D01*
%TO.C,C4*%
D12*
X119447714Y-37898400D02*
X119476742Y-37869371D01*
X119505771Y-37782285D01*
X119505771Y-37724228D01*
X119476742Y-37637142D01*
X119418685Y-37579085D01*
X119360628Y-37550057D01*
X119244514Y-37521028D01*
X119157428Y-37521028D01*
X119041314Y-37550057D01*
X118983257Y-37579085D01*
X118925200Y-37637142D01*
X118896171Y-37724228D01*
X118896171Y-37782285D01*
X118925200Y-37869371D01*
X118954228Y-37898400D01*
X119099371Y-38420914D02*
X119505771Y-38420914D01*
X118867142Y-38275771D02*
X119302571Y-38130628D01*
X119302571Y-38508000D01*
X121436171Y-33181257D02*
X121436171Y-33239314D01*
X121465200Y-33297371D01*
X121494228Y-33326400D01*
X121552285Y-33355428D01*
X121668400Y-33384457D01*
X121813542Y-33384457D01*
X121929657Y-33355428D01*
X121987714Y-33326400D01*
X122016742Y-33297371D01*
X122045771Y-33239314D01*
X122045771Y-33181257D01*
X122016742Y-33123200D01*
X121987714Y-33094171D01*
X121929657Y-33065142D01*
X121813542Y-33036114D01*
X121668400Y-33036114D01*
X121552285Y-33065142D01*
X121494228Y-33094171D01*
X121465200Y-33123200D01*
X121436171Y-33181257D01*
X121987714Y-33645714D02*
X122016742Y-33674742D01*
X122045771Y-33645714D01*
X122016742Y-33616685D01*
X121987714Y-33645714D01*
X122045771Y-33645714D01*
X122045771Y-34255314D02*
X122045771Y-33906971D01*
X122045771Y-34081142D02*
X121436171Y-34081142D01*
X121523257Y-34023085D01*
X121581314Y-33965028D01*
X121610342Y-33906971D01*
X121436171Y-34516571D02*
X121929657Y-34516571D01*
X121987714Y-34545600D01*
X122016742Y-34574628D01*
X122045771Y-34632685D01*
X122045771Y-34748800D01*
X122016742Y-34806857D01*
X121987714Y-34835885D01*
X121929657Y-34864914D01*
X121436171Y-34864914D01*
X121726457Y-35358400D02*
X121726457Y-35155200D01*
X122045771Y-35155200D02*
X121436171Y-35155200D01*
X121436171Y-35445485D01*
X121813542Y-35677714D02*
X121813542Y-36142171D01*
X121436171Y-36548571D02*
X121436171Y-36606628D01*
X121465200Y-36664685D01*
X121494228Y-36693714D01*
X121552285Y-36722742D01*
X121668400Y-36751771D01*
X121813542Y-36751771D01*
X121929657Y-36722742D01*
X121987714Y-36693714D01*
X122016742Y-36664685D01*
X122045771Y-36606628D01*
X122045771Y-36548571D01*
X122016742Y-36490514D01*
X121987714Y-36461485D01*
X121929657Y-36432457D01*
X121813542Y-36403428D01*
X121668400Y-36403428D01*
X121552285Y-36432457D01*
X121494228Y-36461485D01*
X121465200Y-36490514D01*
X121436171Y-36548571D01*
X121436171Y-37274285D02*
X121436171Y-37158171D01*
X121465200Y-37100114D01*
X121494228Y-37071085D01*
X121581314Y-37013028D01*
X121697428Y-36984000D01*
X121929657Y-36984000D01*
X121987714Y-37013028D01*
X122016742Y-37042057D01*
X122045771Y-37100114D01*
X122045771Y-37216228D01*
X122016742Y-37274285D01*
X121987714Y-37303314D01*
X121929657Y-37332342D01*
X121784514Y-37332342D01*
X121726457Y-37303314D01*
X121697428Y-37274285D01*
X121668400Y-37216228D01*
X121668400Y-37100114D01*
X121697428Y-37042057D01*
X121726457Y-37013028D01*
X121784514Y-36984000D01*
X121436171Y-37709714D02*
X121436171Y-37767771D01*
X121465200Y-37825828D01*
X121494228Y-37854857D01*
X121552285Y-37883885D01*
X121668400Y-37912914D01*
X121813542Y-37912914D01*
X121929657Y-37883885D01*
X121987714Y-37854857D01*
X122016742Y-37825828D01*
X122045771Y-37767771D01*
X122045771Y-37709714D01*
X122016742Y-37651657D01*
X121987714Y-37622628D01*
X121929657Y-37593600D01*
X121813542Y-37564571D01*
X121668400Y-37564571D01*
X121552285Y-37593600D01*
X121494228Y-37622628D01*
X121465200Y-37651657D01*
X121436171Y-37709714D01*
X121436171Y-38116114D02*
X121436171Y-38493485D01*
X121668400Y-38290285D01*
X121668400Y-38377371D01*
X121697428Y-38435428D01*
X121726457Y-38464457D01*
X121784514Y-38493485D01*
X121929657Y-38493485D01*
X121987714Y-38464457D01*
X122016742Y-38435428D01*
X122045771Y-38377371D01*
X122045771Y-38203200D01*
X122016742Y-38145142D01*
X121987714Y-38116114D01*
X121813542Y-38754742D02*
X121813542Y-39219200D01*
X121494228Y-39480457D02*
X121465200Y-39509485D01*
X121436171Y-39567542D01*
X121436171Y-39712685D01*
X121465200Y-39770742D01*
X121494228Y-39799771D01*
X121552285Y-39828800D01*
X121610342Y-39828800D01*
X121697428Y-39799771D01*
X122045771Y-39451428D01*
X122045771Y-39828800D01*
X121436171Y-40380342D02*
X121436171Y-40090057D01*
X121726457Y-40061028D01*
X121697428Y-40090057D01*
X121668400Y-40148114D01*
X121668400Y-40293257D01*
X121697428Y-40351314D01*
X121726457Y-40380342D01*
X121784514Y-40409371D01*
X121929657Y-40409371D01*
X121987714Y-40380342D01*
X122016742Y-40351314D01*
X122045771Y-40293257D01*
X122045771Y-40148114D01*
X122016742Y-40090057D01*
X121987714Y-40061028D01*
X121436171Y-40583542D02*
X122045771Y-40786742D01*
X121436171Y-40989942D01*
X121813542Y-41193142D02*
X121813542Y-41657600D01*
X121436171Y-42238171D02*
X121436171Y-41947885D01*
X121726457Y-41918857D01*
X121697428Y-41947885D01*
X121668400Y-42005942D01*
X121668400Y-42151085D01*
X121697428Y-42209142D01*
X121726457Y-42238171D01*
X121784514Y-42267200D01*
X121929657Y-42267200D01*
X121987714Y-42238171D01*
X122016742Y-42209142D01*
X122045771Y-42151085D01*
X122045771Y-42005942D01*
X122016742Y-41947885D01*
X121987714Y-41918857D01*
X122045771Y-42499428D02*
X121436171Y-42963885D01*
X121436171Y-42586514D02*
X121465200Y-42644571D01*
X121523257Y-42673600D01*
X121581314Y-42644571D01*
X121610342Y-42586514D01*
X121581314Y-42528457D01*
X121523257Y-42499428D01*
X121465200Y-42528457D01*
X121436171Y-42586514D01*
X122016742Y-42934857D02*
X121958685Y-42963885D01*
X121900628Y-42934857D01*
X121871600Y-42876800D01*
X121900628Y-42818742D01*
X121958685Y-42789714D01*
X122016742Y-42818742D01*
X122045771Y-42876800D01*
X122016742Y-42934857D01*
%TO.C,C3*%
X116947714Y-37898400D02*
X116976742Y-37869371D01*
X117005771Y-37782285D01*
X117005771Y-37724228D01*
X116976742Y-37637142D01*
X116918685Y-37579085D01*
X116860628Y-37550057D01*
X116744514Y-37521028D01*
X116657428Y-37521028D01*
X116541314Y-37550057D01*
X116483257Y-37579085D01*
X116425200Y-37637142D01*
X116396171Y-37724228D01*
X116396171Y-37782285D01*
X116425200Y-37869371D01*
X116454228Y-37898400D01*
X116396171Y-38101600D02*
X116396171Y-38478971D01*
X116628400Y-38275771D01*
X116628400Y-38362857D01*
X116657428Y-38420914D01*
X116686457Y-38449942D01*
X116744514Y-38478971D01*
X116889657Y-38478971D01*
X116947714Y-38449942D01*
X116976742Y-38420914D01*
X117005771Y-38362857D01*
X117005771Y-38188685D01*
X116976742Y-38130628D01*
X116947714Y-38101600D01*
X119545771Y-33239314D02*
X119545771Y-32890971D01*
X119545771Y-33065142D02*
X118936171Y-33065142D01*
X119023257Y-33007085D01*
X119081314Y-32949028D01*
X119110342Y-32890971D01*
X118936171Y-33616685D02*
X118936171Y-33674742D01*
X118965200Y-33732800D01*
X118994228Y-33761828D01*
X119052285Y-33790857D01*
X119168400Y-33819885D01*
X119313542Y-33819885D01*
X119429657Y-33790857D01*
X119487714Y-33761828D01*
X119516742Y-33732800D01*
X119545771Y-33674742D01*
X119545771Y-33616685D01*
X119516742Y-33558628D01*
X119487714Y-33529600D01*
X119429657Y-33500571D01*
X119313542Y-33471542D01*
X119168400Y-33471542D01*
X119052285Y-33500571D01*
X118994228Y-33529600D01*
X118965200Y-33558628D01*
X118936171Y-33616685D01*
X118936171Y-34081142D02*
X119429657Y-34081142D01*
X119487714Y-34110171D01*
X119516742Y-34139200D01*
X119545771Y-34197257D01*
X119545771Y-34313371D01*
X119516742Y-34371428D01*
X119487714Y-34400457D01*
X119429657Y-34429485D01*
X118936171Y-34429485D01*
X119226457Y-34922971D02*
X119226457Y-34719771D01*
X119545771Y-34719771D02*
X118936171Y-34719771D01*
X118936171Y-35010057D01*
X119313542Y-35242285D02*
X119313542Y-35706742D01*
X118936171Y-36113142D02*
X118936171Y-36171200D01*
X118965200Y-36229257D01*
X118994228Y-36258285D01*
X119052285Y-36287314D01*
X119168400Y-36316342D01*
X119313542Y-36316342D01*
X119429657Y-36287314D01*
X119487714Y-36258285D01*
X119516742Y-36229257D01*
X119545771Y-36171200D01*
X119545771Y-36113142D01*
X119516742Y-36055085D01*
X119487714Y-36026057D01*
X119429657Y-35997028D01*
X119313542Y-35968000D01*
X119168400Y-35968000D01*
X119052285Y-35997028D01*
X118994228Y-36026057D01*
X118965200Y-36055085D01*
X118936171Y-36113142D01*
X119197428Y-36664685D02*
X119168400Y-36606628D01*
X119139371Y-36577600D01*
X119081314Y-36548571D01*
X119052285Y-36548571D01*
X118994228Y-36577600D01*
X118965200Y-36606628D01*
X118936171Y-36664685D01*
X118936171Y-36780800D01*
X118965200Y-36838857D01*
X118994228Y-36867885D01*
X119052285Y-36896914D01*
X119081314Y-36896914D01*
X119139371Y-36867885D01*
X119168400Y-36838857D01*
X119197428Y-36780800D01*
X119197428Y-36664685D01*
X119226457Y-36606628D01*
X119255485Y-36577600D01*
X119313542Y-36548571D01*
X119429657Y-36548571D01*
X119487714Y-36577600D01*
X119516742Y-36606628D01*
X119545771Y-36664685D01*
X119545771Y-36780800D01*
X119516742Y-36838857D01*
X119487714Y-36867885D01*
X119429657Y-36896914D01*
X119313542Y-36896914D01*
X119255485Y-36867885D01*
X119226457Y-36838857D01*
X119197428Y-36780800D01*
X118936171Y-37274285D02*
X118936171Y-37332342D01*
X118965200Y-37390400D01*
X118994228Y-37419428D01*
X119052285Y-37448457D01*
X119168400Y-37477485D01*
X119313542Y-37477485D01*
X119429657Y-37448457D01*
X119487714Y-37419428D01*
X119516742Y-37390400D01*
X119545771Y-37332342D01*
X119545771Y-37274285D01*
X119516742Y-37216228D01*
X119487714Y-37187200D01*
X119429657Y-37158171D01*
X119313542Y-37129142D01*
X119168400Y-37129142D01*
X119052285Y-37158171D01*
X118994228Y-37187200D01*
X118965200Y-37216228D01*
X118936171Y-37274285D01*
X118936171Y-38029028D02*
X118936171Y-37738742D01*
X119226457Y-37709714D01*
X119197428Y-37738742D01*
X119168400Y-37796800D01*
X119168400Y-37941942D01*
X119197428Y-38000000D01*
X119226457Y-38029028D01*
X119284514Y-38058057D01*
X119429657Y-38058057D01*
X119487714Y-38029028D01*
X119516742Y-38000000D01*
X119545771Y-37941942D01*
X119545771Y-37796800D01*
X119516742Y-37738742D01*
X119487714Y-37709714D01*
X119313542Y-38319314D02*
X119313542Y-38783771D01*
X119545771Y-39393371D02*
X119545771Y-39045028D01*
X119545771Y-39219199D02*
X118936171Y-39219199D01*
X119023257Y-39161142D01*
X119081314Y-39103085D01*
X119110342Y-39045028D01*
X118936171Y-39770742D02*
X118936171Y-39828800D01*
X118965200Y-39886857D01*
X118994228Y-39915885D01*
X119052285Y-39944914D01*
X119168400Y-39973942D01*
X119313542Y-39973942D01*
X119429657Y-39944914D01*
X119487714Y-39915885D01*
X119516742Y-39886857D01*
X119545771Y-39828800D01*
X119545771Y-39770742D01*
X119516742Y-39712685D01*
X119487714Y-39683657D01*
X119429657Y-39654628D01*
X119313542Y-39625600D01*
X119168400Y-39625600D01*
X119052285Y-39654628D01*
X118994228Y-39683657D01*
X118965200Y-39712685D01*
X118936171Y-39770742D01*
X118936171Y-40148114D02*
X119545771Y-40351314D01*
X118936171Y-40554514D01*
X119313542Y-40757714D02*
X119313542Y-41222171D01*
X119545771Y-41831771D02*
X119545771Y-41483428D01*
X119545771Y-41657599D02*
X118936171Y-41657599D01*
X119023257Y-41599542D01*
X119081314Y-41541485D01*
X119110342Y-41483428D01*
X118936171Y-42209142D02*
X118936171Y-42267199D01*
X118965200Y-42325257D01*
X118994228Y-42354285D01*
X119052285Y-42383314D01*
X119168400Y-42412342D01*
X119313542Y-42412342D01*
X119429657Y-42383314D01*
X119487714Y-42354285D01*
X119516742Y-42325257D01*
X119545771Y-42267199D01*
X119545771Y-42209142D01*
X119516742Y-42151085D01*
X119487714Y-42122057D01*
X119429657Y-42093028D01*
X119313542Y-42063999D01*
X119168400Y-42063999D01*
X119052285Y-42093028D01*
X118994228Y-42122057D01*
X118965200Y-42151085D01*
X118936171Y-42209142D01*
X119545771Y-42644571D02*
X118936171Y-43109028D01*
X118936171Y-42731657D02*
X118965200Y-42789714D01*
X119023257Y-42818742D01*
X119081314Y-42789714D01*
X119110342Y-42731657D01*
X119081314Y-42673599D01*
X119023257Y-42644571D01*
X118965200Y-42673599D01*
X118936171Y-42731657D01*
X119516742Y-43079999D02*
X119458685Y-43109028D01*
X119400628Y-43079999D01*
X119371600Y-43021942D01*
X119400628Y-42963885D01*
X119458685Y-42934857D01*
X119516742Y-42963885D01*
X119545771Y-43021942D01*
X119516742Y-43079999D01*
%TO.C,C2*%
X102947714Y-37898400D02*
X102976742Y-37869371D01*
X103005771Y-37782285D01*
X103005771Y-37724228D01*
X102976742Y-37637142D01*
X102918685Y-37579085D01*
X102860628Y-37550057D01*
X102744514Y-37521028D01*
X102657428Y-37521028D01*
X102541314Y-37550057D01*
X102483257Y-37579085D01*
X102425200Y-37637142D01*
X102396171Y-37724228D01*
X102396171Y-37782285D01*
X102425200Y-37869371D01*
X102454228Y-37898400D01*
X102454228Y-38130628D02*
X102425200Y-38159657D01*
X102396171Y-38217714D01*
X102396171Y-38362857D01*
X102425200Y-38420914D01*
X102454228Y-38449942D01*
X102512285Y-38478971D01*
X102570342Y-38478971D01*
X102657428Y-38449942D01*
X103005771Y-38101600D01*
X103005771Y-38478971D01*
X104936171Y-33181257D02*
X104936171Y-33239314D01*
X104965200Y-33297371D01*
X104994228Y-33326400D01*
X105052285Y-33355428D01*
X105168400Y-33384457D01*
X105313542Y-33384457D01*
X105429657Y-33355428D01*
X105487714Y-33326400D01*
X105516742Y-33297371D01*
X105545771Y-33239314D01*
X105545771Y-33181257D01*
X105516742Y-33123200D01*
X105487714Y-33094171D01*
X105429657Y-33065142D01*
X105313542Y-33036114D01*
X105168400Y-33036114D01*
X105052285Y-33065142D01*
X104994228Y-33094171D01*
X104965200Y-33123200D01*
X104936171Y-33181257D01*
X105487714Y-33645714D02*
X105516742Y-33674742D01*
X105545771Y-33645714D01*
X105516742Y-33616685D01*
X105487714Y-33645714D01*
X105545771Y-33645714D01*
X105545771Y-34255314D02*
X105545771Y-33906971D01*
X105545771Y-34081142D02*
X104936171Y-34081142D01*
X105023257Y-34023085D01*
X105081314Y-33965028D01*
X105110342Y-33906971D01*
X104936171Y-34516571D02*
X105429657Y-34516571D01*
X105487714Y-34545600D01*
X105516742Y-34574628D01*
X105545771Y-34632685D01*
X105545771Y-34748800D01*
X105516742Y-34806857D01*
X105487714Y-34835885D01*
X105429657Y-34864914D01*
X104936171Y-34864914D01*
X105226457Y-35358400D02*
X105226457Y-35155200D01*
X105545771Y-35155200D02*
X104936171Y-35155200D01*
X104936171Y-35445485D01*
X105313542Y-35677714D02*
X105313542Y-36142171D01*
X104936171Y-36548571D02*
X104936171Y-36606628D01*
X104965200Y-36664685D01*
X104994228Y-36693714D01*
X105052285Y-36722742D01*
X105168400Y-36751771D01*
X105313542Y-36751771D01*
X105429657Y-36722742D01*
X105487714Y-36693714D01*
X105516742Y-36664685D01*
X105545771Y-36606628D01*
X105545771Y-36548571D01*
X105516742Y-36490514D01*
X105487714Y-36461485D01*
X105429657Y-36432457D01*
X105313542Y-36403428D01*
X105168400Y-36403428D01*
X105052285Y-36432457D01*
X104994228Y-36461485D01*
X104965200Y-36490514D01*
X104936171Y-36548571D01*
X104936171Y-37274285D02*
X104936171Y-37158171D01*
X104965200Y-37100114D01*
X104994228Y-37071085D01*
X105081314Y-37013028D01*
X105197428Y-36984000D01*
X105429657Y-36984000D01*
X105487714Y-37013028D01*
X105516742Y-37042057D01*
X105545771Y-37100114D01*
X105545771Y-37216228D01*
X105516742Y-37274285D01*
X105487714Y-37303314D01*
X105429657Y-37332342D01*
X105284514Y-37332342D01*
X105226457Y-37303314D01*
X105197428Y-37274285D01*
X105168400Y-37216228D01*
X105168400Y-37100114D01*
X105197428Y-37042057D01*
X105226457Y-37013028D01*
X105284514Y-36984000D01*
X104936171Y-37709714D02*
X104936171Y-37767771D01*
X104965200Y-37825828D01*
X104994228Y-37854857D01*
X105052285Y-37883885D01*
X105168400Y-37912914D01*
X105313542Y-37912914D01*
X105429657Y-37883885D01*
X105487714Y-37854857D01*
X105516742Y-37825828D01*
X105545771Y-37767771D01*
X105545771Y-37709714D01*
X105516742Y-37651657D01*
X105487714Y-37622628D01*
X105429657Y-37593600D01*
X105313542Y-37564571D01*
X105168400Y-37564571D01*
X105052285Y-37593600D01*
X104994228Y-37622628D01*
X104965200Y-37651657D01*
X104936171Y-37709714D01*
X104936171Y-38116114D02*
X104936171Y-38493485D01*
X105168400Y-38290285D01*
X105168400Y-38377371D01*
X105197428Y-38435428D01*
X105226457Y-38464457D01*
X105284514Y-38493485D01*
X105429657Y-38493485D01*
X105487714Y-38464457D01*
X105516742Y-38435428D01*
X105545771Y-38377371D01*
X105545771Y-38203200D01*
X105516742Y-38145142D01*
X105487714Y-38116114D01*
X105313542Y-38754742D02*
X105313542Y-39219200D01*
X104994228Y-39480457D02*
X104965200Y-39509485D01*
X104936171Y-39567542D01*
X104936171Y-39712685D01*
X104965200Y-39770742D01*
X104994228Y-39799771D01*
X105052285Y-39828800D01*
X105110342Y-39828800D01*
X105197428Y-39799771D01*
X105545771Y-39451428D01*
X105545771Y-39828800D01*
X104936171Y-40380342D02*
X104936171Y-40090057D01*
X105226457Y-40061028D01*
X105197428Y-40090057D01*
X105168400Y-40148114D01*
X105168400Y-40293257D01*
X105197428Y-40351314D01*
X105226457Y-40380342D01*
X105284514Y-40409371D01*
X105429657Y-40409371D01*
X105487714Y-40380342D01*
X105516742Y-40351314D01*
X105545771Y-40293257D01*
X105545771Y-40148114D01*
X105516742Y-40090057D01*
X105487714Y-40061028D01*
X104936171Y-40583542D02*
X105545771Y-40786742D01*
X104936171Y-40989942D01*
X105313542Y-41193142D02*
X105313542Y-41657600D01*
X104936171Y-42238171D02*
X104936171Y-41947885D01*
X105226457Y-41918857D01*
X105197428Y-41947885D01*
X105168400Y-42005942D01*
X105168400Y-42151085D01*
X105197428Y-42209142D01*
X105226457Y-42238171D01*
X105284514Y-42267200D01*
X105429657Y-42267200D01*
X105487714Y-42238171D01*
X105516742Y-42209142D01*
X105545771Y-42151085D01*
X105545771Y-42005942D01*
X105516742Y-41947885D01*
X105487714Y-41918857D01*
X105545771Y-42499428D02*
X104936171Y-42963885D01*
X104936171Y-42586514D02*
X104965200Y-42644571D01*
X105023257Y-42673600D01*
X105081314Y-42644571D01*
X105110342Y-42586514D01*
X105081314Y-42528457D01*
X105023257Y-42499428D01*
X104965200Y-42528457D01*
X104936171Y-42586514D01*
X105516742Y-42934857D02*
X105458685Y-42963885D01*
X105400628Y-42934857D01*
X105371600Y-42876800D01*
X105400628Y-42818742D01*
X105458685Y-42789714D01*
X105516742Y-42818742D01*
X105545771Y-42876800D01*
X105516742Y-42934857D01*
%TO.C,C1*%
X100447714Y-37898400D02*
X100476742Y-37869371D01*
X100505771Y-37782285D01*
X100505771Y-37724228D01*
X100476742Y-37637142D01*
X100418685Y-37579085D01*
X100360628Y-37550057D01*
X100244514Y-37521028D01*
X100157428Y-37521028D01*
X100041314Y-37550057D01*
X99983257Y-37579085D01*
X99925200Y-37637142D01*
X99896171Y-37724228D01*
X99896171Y-37782285D01*
X99925200Y-37869371D01*
X99954228Y-37898400D01*
X100505771Y-38478971D02*
X100505771Y-38130628D01*
X100505771Y-38304800D02*
X99896171Y-38304800D01*
X99983257Y-38246742D01*
X100041314Y-38188685D01*
X100070342Y-38130628D01*
X103045771Y-33239314D02*
X103045771Y-32890971D01*
X103045771Y-33065142D02*
X102436171Y-33065142D01*
X102523257Y-33007085D01*
X102581314Y-32949028D01*
X102610342Y-32890971D01*
X102436171Y-33616685D02*
X102436171Y-33674742D01*
X102465200Y-33732800D01*
X102494228Y-33761828D01*
X102552285Y-33790857D01*
X102668400Y-33819885D01*
X102813542Y-33819885D01*
X102929657Y-33790857D01*
X102987714Y-33761828D01*
X103016742Y-33732800D01*
X103045771Y-33674742D01*
X103045771Y-33616685D01*
X103016742Y-33558628D01*
X102987714Y-33529600D01*
X102929657Y-33500571D01*
X102813542Y-33471542D01*
X102668400Y-33471542D01*
X102552285Y-33500571D01*
X102494228Y-33529600D01*
X102465200Y-33558628D01*
X102436171Y-33616685D01*
X102436171Y-34081142D02*
X102929657Y-34081142D01*
X102987714Y-34110171D01*
X103016742Y-34139200D01*
X103045771Y-34197257D01*
X103045771Y-34313371D01*
X103016742Y-34371428D01*
X102987714Y-34400457D01*
X102929657Y-34429485D01*
X102436171Y-34429485D01*
X102726457Y-34922971D02*
X102726457Y-34719771D01*
X103045771Y-34719771D02*
X102436171Y-34719771D01*
X102436171Y-35010057D01*
X102813542Y-35242285D02*
X102813542Y-35706742D01*
X102436171Y-36113142D02*
X102436171Y-36171200D01*
X102465200Y-36229257D01*
X102494228Y-36258285D01*
X102552285Y-36287314D01*
X102668400Y-36316342D01*
X102813542Y-36316342D01*
X102929657Y-36287314D01*
X102987714Y-36258285D01*
X103016742Y-36229257D01*
X103045771Y-36171200D01*
X103045771Y-36113142D01*
X103016742Y-36055085D01*
X102987714Y-36026057D01*
X102929657Y-35997028D01*
X102813542Y-35968000D01*
X102668400Y-35968000D01*
X102552285Y-35997028D01*
X102494228Y-36026057D01*
X102465200Y-36055085D01*
X102436171Y-36113142D01*
X102697428Y-36664685D02*
X102668400Y-36606628D01*
X102639371Y-36577600D01*
X102581314Y-36548571D01*
X102552285Y-36548571D01*
X102494228Y-36577600D01*
X102465200Y-36606628D01*
X102436171Y-36664685D01*
X102436171Y-36780800D01*
X102465200Y-36838857D01*
X102494228Y-36867885D01*
X102552285Y-36896914D01*
X102581314Y-36896914D01*
X102639371Y-36867885D01*
X102668400Y-36838857D01*
X102697428Y-36780800D01*
X102697428Y-36664685D01*
X102726457Y-36606628D01*
X102755485Y-36577600D01*
X102813542Y-36548571D01*
X102929657Y-36548571D01*
X102987714Y-36577600D01*
X103016742Y-36606628D01*
X103045771Y-36664685D01*
X103045771Y-36780800D01*
X103016742Y-36838857D01*
X102987714Y-36867885D01*
X102929657Y-36896914D01*
X102813542Y-36896914D01*
X102755485Y-36867885D01*
X102726457Y-36838857D01*
X102697428Y-36780800D01*
X102436171Y-37274285D02*
X102436171Y-37332342D01*
X102465200Y-37390400D01*
X102494228Y-37419428D01*
X102552285Y-37448457D01*
X102668400Y-37477485D01*
X102813542Y-37477485D01*
X102929657Y-37448457D01*
X102987714Y-37419428D01*
X103016742Y-37390400D01*
X103045771Y-37332342D01*
X103045771Y-37274285D01*
X103016742Y-37216228D01*
X102987714Y-37187200D01*
X102929657Y-37158171D01*
X102813542Y-37129142D01*
X102668400Y-37129142D01*
X102552285Y-37158171D01*
X102494228Y-37187200D01*
X102465200Y-37216228D01*
X102436171Y-37274285D01*
X102436171Y-38029028D02*
X102436171Y-37738742D01*
X102726457Y-37709714D01*
X102697428Y-37738742D01*
X102668400Y-37796800D01*
X102668400Y-37941942D01*
X102697428Y-38000000D01*
X102726457Y-38029028D01*
X102784514Y-38058057D01*
X102929657Y-38058057D01*
X102987714Y-38029028D01*
X103016742Y-38000000D01*
X103045771Y-37941942D01*
X103045771Y-37796800D01*
X103016742Y-37738742D01*
X102987714Y-37709714D01*
X102813542Y-38319314D02*
X102813542Y-38783771D01*
X103045771Y-39393371D02*
X103045771Y-39045028D01*
X103045771Y-39219199D02*
X102436171Y-39219199D01*
X102523257Y-39161142D01*
X102581314Y-39103085D01*
X102610342Y-39045028D01*
X102436171Y-39770742D02*
X102436171Y-39828800D01*
X102465200Y-39886857D01*
X102494228Y-39915885D01*
X102552285Y-39944914D01*
X102668400Y-39973942D01*
X102813542Y-39973942D01*
X102929657Y-39944914D01*
X102987714Y-39915885D01*
X103016742Y-39886857D01*
X103045771Y-39828800D01*
X103045771Y-39770742D01*
X103016742Y-39712685D01*
X102987714Y-39683657D01*
X102929657Y-39654628D01*
X102813542Y-39625600D01*
X102668400Y-39625600D01*
X102552285Y-39654628D01*
X102494228Y-39683657D01*
X102465200Y-39712685D01*
X102436171Y-39770742D01*
X102436171Y-40148114D02*
X103045771Y-40351314D01*
X102436171Y-40554514D01*
X102813542Y-40757714D02*
X102813542Y-41222171D01*
X103045771Y-41831771D02*
X103045771Y-41483428D01*
X103045771Y-41657599D02*
X102436171Y-41657599D01*
X102523257Y-41599542D01*
X102581314Y-41541485D01*
X102610342Y-41483428D01*
X102436171Y-42209142D02*
X102436171Y-42267199D01*
X102465200Y-42325257D01*
X102494228Y-42354285D01*
X102552285Y-42383314D01*
X102668400Y-42412342D01*
X102813542Y-42412342D01*
X102929657Y-42383314D01*
X102987714Y-42354285D01*
X103016742Y-42325257D01*
X103045771Y-42267199D01*
X103045771Y-42209142D01*
X103016742Y-42151085D01*
X102987714Y-42122057D01*
X102929657Y-42093028D01*
X102813542Y-42063999D01*
X102668400Y-42063999D01*
X102552285Y-42093028D01*
X102494228Y-42122057D01*
X102465200Y-42151085D01*
X102436171Y-42209142D01*
X103045771Y-42644571D02*
X102436171Y-43109028D01*
X102436171Y-42731657D02*
X102465200Y-42789714D01*
X102523257Y-42818742D01*
X102581314Y-42789714D01*
X102610342Y-42731657D01*
X102581314Y-42673599D01*
X102523257Y-42644571D01*
X102465200Y-42673599D01*
X102436171Y-42731657D01*
X103016742Y-43079999D02*
X102958685Y-43109028D01*
X102900628Y-43079999D01*
X102871600Y-43021942D01*
X102900628Y-42963885D01*
X102958685Y-42934857D01*
X103016742Y-42963885D01*
X103045771Y-43021942D01*
X103016742Y-43079999D01*
%TD*%
M02*
