M48
; DRILL file {KiCad (5.1.6)-1} date 08/21/22 13:27:17
; FORMAT={-:-/ absolute / inch / decimal}
; #@! TF.CreationDate,2022-08-21T13:27:17+08:00
; #@! TF.GenerationSoftware,Kicad,Pcbnew,(5.1.6)-1
; #@! TF.FileFunction,Plated,1,2,PTH
FMAT,2
INCH
T1C0.0236
T2C0.0315
T3C0.0394
T4C0.0866
%
G90
G05
T2
X3.9036Y-3.5324
X4.0957Y-3.5324
T3
X4.3504Y-3.493
X4.3504Y-3.593
X4.3504Y-3.693
X4.3504Y-3.793
X3.0276Y-4.4123
X3.0276Y-4.5107
X3.0276Y-4.6091
X3.5985Y-4.4123
X3.5985Y-4.6091
T4
X3.3229Y-4.2902
X3.3229Y-4.7312
T1
G00X3.0059Y-5.4009
M15
G01X3.0059Y-5.3576
M16
G05
G00X3.0059Y-5.5591
M15
G01X3.0059Y-5.5276
M16
G05
G00X3.3461Y-5.4009
M15
G01X3.3461Y-5.3576
M16
G05
G00X3.3461Y-5.5591
M15
G01X3.3461Y-5.5276
M16
G05
T0
M30
