M48
; DRILL file {KiCad (5.1.6)-1} date 08/21/22 13:27:17
; FORMAT={-:-/ absolute / inch / decimal}
; #@! TF.CreationDate,2022-08-21T13:27:17+08:00
; #@! TF.GenerationSoftware,Kicad,Pcbnew,(5.1.6)-1
; #@! TF.FileFunction,NonPlated,1,2,NPTH
FMAT,2
INCH
T1C0.0236
T2C0.0689
T3C0.1201
T4C0.1575
T5C0.2362
%
G90
G05
T1
X3.0622Y-5.3981
X3.2898Y-5.3981
T2
X-5.5819Y-6.9713
X-5.1819Y-6.9713
X-3.2019Y-6.178
X-2.8019Y-6.178
X-4.7885Y-7.7646
X-4.3885Y-7.7646
X-4.7885Y-6.9713
X-4.3885Y-6.9713
X-0.0287Y-6.178
X0.3713Y-6.178
X-6.3752Y-6.178
X-5.9752Y-6.178
X-5.5819Y-3.7981
X-5.1819Y-3.7981
X-0.822Y-6.178
X-0.422Y-6.178
X-1.6153Y-6.178
X-1.2153Y-6.178
X-0.0287Y-6.9713
X0.3713Y-6.9713
X-0.822Y-6.9713
X-0.422Y-6.9713
X-1.6153Y-6.9713
X-1.2153Y-6.9713
X-0.0287Y-3.7981
X0.3713Y-3.7981
X-3.2019Y-3.7981
X-2.8019Y-3.7981
X-3.9952Y-5.3847
X-3.5952Y-5.3847
X-6.3752Y-8.558
X-5.9752Y-8.558
X-3.2019Y-5.3847
X-2.8019Y-5.3847
X0.7646Y-6.9713
X1.1646Y-6.9713
X-5.5819Y-6.178
X-5.1819Y-6.178
X-3.2019Y-7.7646
X-2.8019Y-7.7646
X1.5579Y-5.3847
X1.9579Y-5.3847
X-2.4086Y-8.558
X-2.0086Y-8.558
X-0.822Y-4.5914
X-0.422Y-4.5914
X1.5579Y-4.5914
X1.9579Y-4.5914
X-4.7885Y-5.3847
X-4.3885Y-5.3847
X-1.6153Y-4.5914
X-1.2153Y-4.5914
X-1.6153Y-3.7981
X-1.2153Y-3.7981
X-0.0287Y-7.7646
X0.3713Y-7.7646
X-2.4086Y-6.178
X-2.0086Y-6.178
X-4.7885Y-9.3513
X-4.3885Y-9.3513
X-4.7885Y-8.558
X-4.3885Y-8.558
X1.5579Y-3.7981
X1.9579Y-3.7981
X0.7646Y-3.7981
X1.1646Y-3.7981
X-2.4086Y-9.3513
X-2.0086Y-9.3513
X-6.3752Y-6.9713
X-5.9752Y-6.9713
X-3.9952Y-6.178
X-3.5952Y-6.178
X-1.6153Y-9.3513
X-1.2153Y-9.3513
X-5.5819Y-8.558
X-5.1819Y-8.558
X-2.4086Y-3.7981
X-2.0086Y-3.7981
X-3.9952Y-7.7646
X-3.5952Y-7.7646
X2.3512Y-5.3847
X2.7512Y-5.3847
X-5.5819Y-5.3847
X-5.1819Y-5.3847
X-6.3752Y-5.3847
X-5.9752Y-5.3847
X-0.0287Y-5.3847
X0.3713Y-5.3847
X-0.822Y-5.3847
X-0.422Y-5.3847
X-0.822Y-7.7646
X-0.422Y-7.7646
X-0.0287Y-4.5914
X0.3713Y-4.5914
X-5.5819Y-9.3513
X-5.1819Y-9.3513
X-6.3752Y-7.7646
X-5.9752Y-7.7646
X-3.2019Y-4.5914
X-2.8019Y-4.5914
X-3.9952Y-6.9713
X-3.5952Y-6.9713
X-5.5819Y-7.7646
X-5.1819Y-7.7646
X1.5579Y-6.178
X1.9579Y-6.178
X-4.7885Y-3.7981
X-4.3885Y-3.7981
X-6.3752Y-4.5914
X-5.9752Y-4.5914
X-2.4086Y-6.9713
X-2.0086Y-6.9713
X0.7646Y-6.178
X1.1646Y-6.178
X-1.6153Y-7.7646
X-1.2153Y-7.7646
X-2.4086Y-7.7646
X-2.0086Y-7.7646
X0.7646Y-5.3847
X1.1646Y-5.3847
X-3.9952Y-4.5914
X-3.5952Y-4.5914
X-4.7885Y-6.178
X-4.3885Y-6.178
X-2.4086Y-5.3847
X-2.0086Y-5.3847
X-2.4086Y-4.5914
X-2.0086Y-4.5914
X-1.6153Y-5.3847
X-1.2153Y-5.3847
X-3.9952Y-8.558
X-3.5952Y-8.558
X2.3512Y-4.5914
X2.7512Y-4.5914
X-3.2019Y-9.3513
X-2.8019Y-9.3513
X-3.9952Y-9.3513
X-3.5952Y-9.3513
X2.3512Y-3.7981
X2.7512Y-3.7981
X-6.3752Y-3.7981
X-5.9752Y-3.7981
X-0.822Y-3.7981
X-0.422Y-3.7981
X-6.3752Y-9.3513
X-5.9752Y-9.3513
X-0.822Y-8.558
X-0.422Y-8.558
X-3.2019Y-6.9713
X-2.8019Y-6.9713
X-3.2019Y-8.558
X-2.8019Y-8.558
X-4.7885Y-4.5914
X-4.3885Y-4.5914
X-5.5819Y-4.5914
X-5.1819Y-4.5914
X0.7646Y-4.5914
X1.1646Y-4.5914
X3.1445Y-3.7981
X3.5445Y-3.7981
X-1.6153Y-8.558
X-1.2153Y-8.558
X-3.9952Y-3.7981
X-3.5952Y-3.7981
T3
X0.8146Y-6.8713
X1.0646Y-6.7713
X-5.5319Y-6.078
X-5.2819Y-5.978
X-3.1519Y-7.6646
X-2.9019Y-7.5646
X1.6079Y-5.2847
X1.8579Y-5.1847
X-2.3586Y-8.458
X-2.1086Y-8.358
X-0.772Y-4.4914
X-0.522Y-4.3914
X1.6079Y-4.4914
X1.8579Y-4.3914
X-4.7385Y-5.2847
X-4.4885Y-5.1847
X-1.5653Y-4.4914
X-1.3153Y-4.3914
X-1.5653Y-3.6981
X-1.3153Y-3.5981
X0.0213Y-7.6646
X0.2713Y-7.5646
X-2.3586Y-6.078
X-2.1086Y-5.978
X-4.7385Y-9.2513
X-4.4885Y-9.1513
X-4.7385Y-8.458
X-4.4885Y-8.358
X1.6079Y-3.6981
X1.8579Y-3.5981
X0.8146Y-3.6981
X1.0646Y-3.5981
X-2.3586Y-9.2513
X-2.1086Y-9.1513
X-6.3252Y-6.8713
X-6.0752Y-6.7713
X-3.9452Y-6.078
X-3.6952Y-5.978
X-1.5653Y-9.2513
X-1.3153Y-9.1513
X-5.5319Y-8.458
X-5.2819Y-8.358
X-2.3586Y-3.6981
X-2.1086Y-3.5981
X-3.9452Y-7.6646
X-3.6952Y-7.5646
X2.4012Y-5.2847
X2.6512Y-5.1847
X-5.5319Y-5.2847
X-5.2819Y-5.1847
X-6.3252Y-5.2847
X-6.0752Y-5.1847
X0.0213Y-5.2847
X0.2713Y-5.1847
X-0.772Y-5.2847
X-0.522Y-5.1847
X-0.772Y-7.6646
X-0.522Y-7.5646
X0.0213Y-4.4914
X0.2713Y-4.3914
X-5.5319Y-9.2513
X-5.2819Y-9.1513
X-6.3252Y-7.6646
X-6.0752Y-7.5646
X-3.1519Y-4.4914
X-2.9019Y-4.3914
X-3.9452Y-6.8713
X-3.6952Y-6.7713
X-5.5319Y-7.6646
X-5.2819Y-7.5646
X1.6079Y-6.078
X1.8579Y-5.978
X-4.7385Y-3.6981
X-4.4885Y-3.5981
X-6.3252Y-4.4914
X-6.0752Y-4.3914
X-2.3586Y-6.8713
X-2.1086Y-6.7713
X0.8146Y-6.078
X1.0646Y-5.978
X-1.5653Y-7.6646
X-1.3153Y-7.5646
X-2.3586Y-7.6646
X-2.1086Y-7.5646
X0.8146Y-5.2847
X1.0646Y-5.1847
X-3.9452Y-4.4914
X-3.6952Y-4.3914
X-4.7385Y-6.078
X-4.4885Y-5.978
X-2.3586Y-5.2847
X-2.1086Y-5.1847
X-2.3586Y-4.4914
X-2.1086Y-4.3914
X-1.5653Y-5.2847
X-1.3153Y-5.1847
X-3.9452Y-8.458
X-3.6952Y-8.358
X2.4012Y-4.4914
X2.6512Y-4.3914
X-3.1519Y-9.2513
X-2.9019Y-9.1513
X-3.9452Y-9.2513
X-3.6952Y-9.1513
X2.4012Y-3.6981
X2.6512Y-3.5981
X-6.3252Y-3.6981
X-6.0752Y-3.5981
X-0.772Y-3.6981
X-0.522Y-3.5981
X-6.3252Y-9.2513
X-6.0752Y-9.1513
X-0.772Y-8.458
X-0.522Y-8.358
X-3.1519Y-6.8713
X-2.9019Y-6.7713
X-3.1519Y-8.458
X-2.9019Y-8.358
X-4.7385Y-4.4914
X-4.4885Y-4.3914
X-5.5319Y-4.4914
X-5.2819Y-4.3914
X0.8146Y-4.4914
X1.0646Y-4.3914
X3.1945Y-3.6981
X3.4445Y-3.5981
X-1.5653Y-8.458
X-1.3153Y-8.358
X-3.9452Y-3.6981
X-3.6952Y-3.5981
X-5.5319Y-6.8713
X-5.2819Y-6.7713
X-3.1519Y-6.078
X-2.9019Y-5.978
X-4.7385Y-7.6646
X-4.4885Y-7.5646
X-4.7385Y-6.8713
X-4.4885Y-6.7713
X0.0213Y-6.078
X0.2713Y-5.978
X-6.3252Y-6.078
X-6.0752Y-5.978
X-5.5319Y-3.6981
X-5.2819Y-3.5981
X-0.772Y-6.078
X-0.522Y-5.978
X-1.5653Y-6.078
X-1.3153Y-5.978
X0.0213Y-6.8713
X0.2713Y-6.7713
X-0.772Y-6.8713
X-0.522Y-6.7713
X-1.5653Y-6.8713
X-1.3153Y-6.7713
X0.0213Y-3.6981
X0.2713Y-3.5981
X-3.1519Y-3.6981
X-2.9019Y-3.5981
X-3.9452Y-5.2847
X-3.6952Y-5.1847
X-6.3252Y-8.458
X-6.0752Y-8.358
X-3.1519Y-5.2847
X-2.9019Y-5.1847
T4
X-3.0019Y-5.3847
X0.9646Y-6.9713
X-5.3819Y-6.178
X-3.0019Y-7.7646
X1.7579Y-5.3847
X-2.2086Y-8.558
X-0.622Y-4.5914
X1.7579Y-4.5914
X-4.5885Y-5.3847
X-1.4153Y-4.5914
X-1.4153Y-3.7981
X0.1713Y-7.7646
X-2.2086Y-6.178
X-4.5885Y-9.3513
X-4.5885Y-8.558
X1.7579Y-3.7981
X0.9646Y-3.7981
X-2.2086Y-9.3513
X-6.1752Y-6.9713
X-3.7952Y-6.178
X-1.4153Y-9.3513
X-5.3819Y-8.558
X-2.2086Y-3.7981
X-3.7952Y-7.7646
X2.5512Y-5.3847
X-5.3819Y-5.3847
X-6.1752Y-5.3847
X0.1713Y-5.3847
X-0.622Y-5.3847
X-0.622Y-7.7646
X0.1713Y-4.5914
X-5.3819Y-9.3513
X-6.1752Y-7.7646
X-3.0019Y-4.5914
X-3.7952Y-6.9713
X-5.3819Y-7.7646
X1.7579Y-6.178
X-4.5885Y-3.7981
X-6.1752Y-4.5914
X-2.2086Y-6.9713
X0.9646Y-6.178
X-1.4153Y-7.7646
X-2.2086Y-7.7646
X0.9646Y-5.3847
X-3.7952Y-4.5914
X-4.5885Y-6.178
X-2.2086Y-5.3847
X-2.2086Y-4.5914
X-1.4153Y-5.3847
X-3.7952Y-8.558
X2.5512Y-4.5914
X-3.0019Y-9.3513
X-3.7952Y-9.3513
X2.5512Y-3.7981
X-6.1752Y-3.7981
X-0.622Y-3.7981
X-6.1752Y-9.3513
X-0.622Y-8.558
X-3.0019Y-6.9713
X-3.0019Y-8.558
X-4.5885Y-4.5914
X-5.3819Y-4.5914
X0.9646Y-4.5914
X3.3445Y-3.7981
X-1.4153Y-8.558
X-3.7952Y-3.7981
X-5.3819Y-6.9713
X-3.0019Y-6.178
X-4.5885Y-7.7646
X-4.5885Y-6.9713
X0.1713Y-6.178
X-6.1752Y-6.178
X-5.3819Y-3.7981
X-0.622Y-6.178
X-1.4153Y-6.178
X0.1713Y-6.9713
X-0.622Y-6.9713
X-1.4153Y-6.9713
X0.1713Y-3.7981
X-3.0019Y-3.7981
X-3.7952Y-5.3847
X-6.1752Y-8.558
T5
X3.3229Y-4.5107
T0
M30
