%TF.GenerationSoftware,KiCad,Pcbnew,(5.1.6)-1*%
%TF.CreationDate,2022-08-21T13:28:18+08:00*%
%TF.ProjectId,feng,66656e67-2e6b-4696-9361-645f70636258,rev?*%
%TF.SameCoordinates,Original*%
%TF.FileFunction,Paste,Top*%
%TF.FilePolarity,Positive*%
%FSLAX46Y46*%
G04 Gerber Fmt 4.6, Leading zero omitted, Abs format (unit mm)*
G04 Created by KiCad (PCBNEW (5.1.6)-1) date 2022-08-21 13:28:18*
%MOMM*%
%LPD*%
G01*
G04 APERTURE LIST*
%ADD10R,0.800000X0.500000*%
%ADD11R,0.800000X0.400000*%
%ADD12R,0.797560X1.198880*%
%ADD13R,0.600000X1.160000*%
%ADD14R,0.300000X1.160000*%
G04 APERTURE END LIST*
%TO.C,U12*%
G36*
G01*
X96951000Y-118922040D02*
X96951000Y-117597040D01*
G75*
G02*
X97026000Y-117522040I75000J0D01*
G01*
X97176000Y-117522040D01*
G75*
G02*
X97251000Y-117597040I0J-75000D01*
G01*
X97251000Y-118922040D01*
G75*
G02*
X97176000Y-118997040I-75000J0D01*
G01*
X97026000Y-118997040D01*
G75*
G02*
X96951000Y-118922040I0J75000D01*
G01*
G37*
G36*
G01*
X97451000Y-118922040D02*
X97451000Y-117597040D01*
G75*
G02*
X97526000Y-117522040I75000J0D01*
G01*
X97676000Y-117522040D01*
G75*
G02*
X97751000Y-117597040I0J-75000D01*
G01*
X97751000Y-118922040D01*
G75*
G02*
X97676000Y-118997040I-75000J0D01*
G01*
X97526000Y-118997040D01*
G75*
G02*
X97451000Y-118922040I0J75000D01*
G01*
G37*
G36*
G01*
X97951000Y-118922040D02*
X97951000Y-117597040D01*
G75*
G02*
X98026000Y-117522040I75000J0D01*
G01*
X98176000Y-117522040D01*
G75*
G02*
X98251000Y-117597040I0J-75000D01*
G01*
X98251000Y-118922040D01*
G75*
G02*
X98176000Y-118997040I-75000J0D01*
G01*
X98026000Y-118997040D01*
G75*
G02*
X97951000Y-118922040I0J75000D01*
G01*
G37*
G36*
G01*
X98451000Y-118922040D02*
X98451000Y-117597040D01*
G75*
G02*
X98526000Y-117522040I75000J0D01*
G01*
X98676000Y-117522040D01*
G75*
G02*
X98751000Y-117597040I0J-75000D01*
G01*
X98751000Y-118922040D01*
G75*
G02*
X98676000Y-118997040I-75000J0D01*
G01*
X98526000Y-118997040D01*
G75*
G02*
X98451000Y-118922040I0J75000D01*
G01*
G37*
G36*
G01*
X98951000Y-118922040D02*
X98951000Y-117597040D01*
G75*
G02*
X99026000Y-117522040I75000J0D01*
G01*
X99176000Y-117522040D01*
G75*
G02*
X99251000Y-117597040I0J-75000D01*
G01*
X99251000Y-118922040D01*
G75*
G02*
X99176000Y-118997040I-75000J0D01*
G01*
X99026000Y-118997040D01*
G75*
G02*
X98951000Y-118922040I0J75000D01*
G01*
G37*
G36*
G01*
X99451000Y-118922040D02*
X99451000Y-117597040D01*
G75*
G02*
X99526000Y-117522040I75000J0D01*
G01*
X99676000Y-117522040D01*
G75*
G02*
X99751000Y-117597040I0J-75000D01*
G01*
X99751000Y-118922040D01*
G75*
G02*
X99676000Y-118997040I-75000J0D01*
G01*
X99526000Y-118997040D01*
G75*
G02*
X99451000Y-118922040I0J75000D01*
G01*
G37*
G36*
G01*
X99951000Y-118922040D02*
X99951000Y-117597040D01*
G75*
G02*
X100026000Y-117522040I75000J0D01*
G01*
X100176000Y-117522040D01*
G75*
G02*
X100251000Y-117597040I0J-75000D01*
G01*
X100251000Y-118922040D01*
G75*
G02*
X100176000Y-118997040I-75000J0D01*
G01*
X100026000Y-118997040D01*
G75*
G02*
X99951000Y-118922040I0J75000D01*
G01*
G37*
G36*
G01*
X100451000Y-118922040D02*
X100451000Y-117597040D01*
G75*
G02*
X100526000Y-117522040I75000J0D01*
G01*
X100676000Y-117522040D01*
G75*
G02*
X100751000Y-117597040I0J-75000D01*
G01*
X100751000Y-118922040D01*
G75*
G02*
X100676000Y-118997040I-75000J0D01*
G01*
X100526000Y-118997040D01*
G75*
G02*
X100451000Y-118922040I0J75000D01*
G01*
G37*
G36*
G01*
X100951000Y-118922040D02*
X100951000Y-117597040D01*
G75*
G02*
X101026000Y-117522040I75000J0D01*
G01*
X101176000Y-117522040D01*
G75*
G02*
X101251000Y-117597040I0J-75000D01*
G01*
X101251000Y-118922040D01*
G75*
G02*
X101176000Y-118997040I-75000J0D01*
G01*
X101026000Y-118997040D01*
G75*
G02*
X100951000Y-118922040I0J75000D01*
G01*
G37*
G36*
G01*
X101451000Y-118922040D02*
X101451000Y-117597040D01*
G75*
G02*
X101526000Y-117522040I75000J0D01*
G01*
X101676000Y-117522040D01*
G75*
G02*
X101751000Y-117597040I0J-75000D01*
G01*
X101751000Y-118922040D01*
G75*
G02*
X101676000Y-118997040I-75000J0D01*
G01*
X101526000Y-118997040D01*
G75*
G02*
X101451000Y-118922040I0J75000D01*
G01*
G37*
G36*
G01*
X101951000Y-118922040D02*
X101951000Y-117597040D01*
G75*
G02*
X102026000Y-117522040I75000J0D01*
G01*
X102176000Y-117522040D01*
G75*
G02*
X102251000Y-117597040I0J-75000D01*
G01*
X102251000Y-118922040D01*
G75*
G02*
X102176000Y-118997040I-75000J0D01*
G01*
X102026000Y-118997040D01*
G75*
G02*
X101951000Y-118922040I0J75000D01*
G01*
G37*
G36*
G01*
X102451000Y-118922040D02*
X102451000Y-117597040D01*
G75*
G02*
X102526000Y-117522040I75000J0D01*
G01*
X102676000Y-117522040D01*
G75*
G02*
X102751000Y-117597040I0J-75000D01*
G01*
X102751000Y-118922040D01*
G75*
G02*
X102676000Y-118997040I-75000J0D01*
G01*
X102526000Y-118997040D01*
G75*
G02*
X102451000Y-118922040I0J75000D01*
G01*
G37*
G36*
G01*
X103276000Y-119747040D02*
X103276000Y-119597040D01*
G75*
G02*
X103351000Y-119522040I75000J0D01*
G01*
X104676000Y-119522040D01*
G75*
G02*
X104751000Y-119597040I0J-75000D01*
G01*
X104751000Y-119747040D01*
G75*
G02*
X104676000Y-119822040I-75000J0D01*
G01*
X103351000Y-119822040D01*
G75*
G02*
X103276000Y-119747040I0J75000D01*
G01*
G37*
G36*
G01*
X103276000Y-120247040D02*
X103276000Y-120097040D01*
G75*
G02*
X103351000Y-120022040I75000J0D01*
G01*
X104676000Y-120022040D01*
G75*
G02*
X104751000Y-120097040I0J-75000D01*
G01*
X104751000Y-120247040D01*
G75*
G02*
X104676000Y-120322040I-75000J0D01*
G01*
X103351000Y-120322040D01*
G75*
G02*
X103276000Y-120247040I0J75000D01*
G01*
G37*
G36*
G01*
X103276000Y-120747040D02*
X103276000Y-120597040D01*
G75*
G02*
X103351000Y-120522040I75000J0D01*
G01*
X104676000Y-120522040D01*
G75*
G02*
X104751000Y-120597040I0J-75000D01*
G01*
X104751000Y-120747040D01*
G75*
G02*
X104676000Y-120822040I-75000J0D01*
G01*
X103351000Y-120822040D01*
G75*
G02*
X103276000Y-120747040I0J75000D01*
G01*
G37*
G36*
G01*
X103276000Y-121247040D02*
X103276000Y-121097040D01*
G75*
G02*
X103351000Y-121022040I75000J0D01*
G01*
X104676000Y-121022040D01*
G75*
G02*
X104751000Y-121097040I0J-75000D01*
G01*
X104751000Y-121247040D01*
G75*
G02*
X104676000Y-121322040I-75000J0D01*
G01*
X103351000Y-121322040D01*
G75*
G02*
X103276000Y-121247040I0J75000D01*
G01*
G37*
G36*
G01*
X103276000Y-121747040D02*
X103276000Y-121597040D01*
G75*
G02*
X103351000Y-121522040I75000J0D01*
G01*
X104676000Y-121522040D01*
G75*
G02*
X104751000Y-121597040I0J-75000D01*
G01*
X104751000Y-121747040D01*
G75*
G02*
X104676000Y-121822040I-75000J0D01*
G01*
X103351000Y-121822040D01*
G75*
G02*
X103276000Y-121747040I0J75000D01*
G01*
G37*
G36*
G01*
X103276000Y-122247040D02*
X103276000Y-122097040D01*
G75*
G02*
X103351000Y-122022040I75000J0D01*
G01*
X104676000Y-122022040D01*
G75*
G02*
X104751000Y-122097040I0J-75000D01*
G01*
X104751000Y-122247040D01*
G75*
G02*
X104676000Y-122322040I-75000J0D01*
G01*
X103351000Y-122322040D01*
G75*
G02*
X103276000Y-122247040I0J75000D01*
G01*
G37*
G36*
G01*
X103276000Y-122747040D02*
X103276000Y-122597040D01*
G75*
G02*
X103351000Y-122522040I75000J0D01*
G01*
X104676000Y-122522040D01*
G75*
G02*
X104751000Y-122597040I0J-75000D01*
G01*
X104751000Y-122747040D01*
G75*
G02*
X104676000Y-122822040I-75000J0D01*
G01*
X103351000Y-122822040D01*
G75*
G02*
X103276000Y-122747040I0J75000D01*
G01*
G37*
G36*
G01*
X103276000Y-123247040D02*
X103276000Y-123097040D01*
G75*
G02*
X103351000Y-123022040I75000J0D01*
G01*
X104676000Y-123022040D01*
G75*
G02*
X104751000Y-123097040I0J-75000D01*
G01*
X104751000Y-123247040D01*
G75*
G02*
X104676000Y-123322040I-75000J0D01*
G01*
X103351000Y-123322040D01*
G75*
G02*
X103276000Y-123247040I0J75000D01*
G01*
G37*
G36*
G01*
X103276000Y-123747040D02*
X103276000Y-123597040D01*
G75*
G02*
X103351000Y-123522040I75000J0D01*
G01*
X104676000Y-123522040D01*
G75*
G02*
X104751000Y-123597040I0J-75000D01*
G01*
X104751000Y-123747040D01*
G75*
G02*
X104676000Y-123822040I-75000J0D01*
G01*
X103351000Y-123822040D01*
G75*
G02*
X103276000Y-123747040I0J75000D01*
G01*
G37*
G36*
G01*
X103276000Y-124247040D02*
X103276000Y-124097040D01*
G75*
G02*
X103351000Y-124022040I75000J0D01*
G01*
X104676000Y-124022040D01*
G75*
G02*
X104751000Y-124097040I0J-75000D01*
G01*
X104751000Y-124247040D01*
G75*
G02*
X104676000Y-124322040I-75000J0D01*
G01*
X103351000Y-124322040D01*
G75*
G02*
X103276000Y-124247040I0J75000D01*
G01*
G37*
G36*
G01*
X103276000Y-124747040D02*
X103276000Y-124597040D01*
G75*
G02*
X103351000Y-124522040I75000J0D01*
G01*
X104676000Y-124522040D01*
G75*
G02*
X104751000Y-124597040I0J-75000D01*
G01*
X104751000Y-124747040D01*
G75*
G02*
X104676000Y-124822040I-75000J0D01*
G01*
X103351000Y-124822040D01*
G75*
G02*
X103276000Y-124747040I0J75000D01*
G01*
G37*
G36*
G01*
X103276000Y-125247040D02*
X103276000Y-125097040D01*
G75*
G02*
X103351000Y-125022040I75000J0D01*
G01*
X104676000Y-125022040D01*
G75*
G02*
X104751000Y-125097040I0J-75000D01*
G01*
X104751000Y-125247040D01*
G75*
G02*
X104676000Y-125322040I-75000J0D01*
G01*
X103351000Y-125322040D01*
G75*
G02*
X103276000Y-125247040I0J75000D01*
G01*
G37*
G36*
G01*
X102451000Y-127247040D02*
X102451000Y-125922040D01*
G75*
G02*
X102526000Y-125847040I75000J0D01*
G01*
X102676000Y-125847040D01*
G75*
G02*
X102751000Y-125922040I0J-75000D01*
G01*
X102751000Y-127247040D01*
G75*
G02*
X102676000Y-127322040I-75000J0D01*
G01*
X102526000Y-127322040D01*
G75*
G02*
X102451000Y-127247040I0J75000D01*
G01*
G37*
G36*
G01*
X101951000Y-127247040D02*
X101951000Y-125922040D01*
G75*
G02*
X102026000Y-125847040I75000J0D01*
G01*
X102176000Y-125847040D01*
G75*
G02*
X102251000Y-125922040I0J-75000D01*
G01*
X102251000Y-127247040D01*
G75*
G02*
X102176000Y-127322040I-75000J0D01*
G01*
X102026000Y-127322040D01*
G75*
G02*
X101951000Y-127247040I0J75000D01*
G01*
G37*
G36*
G01*
X101451000Y-127247040D02*
X101451000Y-125922040D01*
G75*
G02*
X101526000Y-125847040I75000J0D01*
G01*
X101676000Y-125847040D01*
G75*
G02*
X101751000Y-125922040I0J-75000D01*
G01*
X101751000Y-127247040D01*
G75*
G02*
X101676000Y-127322040I-75000J0D01*
G01*
X101526000Y-127322040D01*
G75*
G02*
X101451000Y-127247040I0J75000D01*
G01*
G37*
G36*
G01*
X100951000Y-127247040D02*
X100951000Y-125922040D01*
G75*
G02*
X101026000Y-125847040I75000J0D01*
G01*
X101176000Y-125847040D01*
G75*
G02*
X101251000Y-125922040I0J-75000D01*
G01*
X101251000Y-127247040D01*
G75*
G02*
X101176000Y-127322040I-75000J0D01*
G01*
X101026000Y-127322040D01*
G75*
G02*
X100951000Y-127247040I0J75000D01*
G01*
G37*
G36*
G01*
X100451000Y-127247040D02*
X100451000Y-125922040D01*
G75*
G02*
X100526000Y-125847040I75000J0D01*
G01*
X100676000Y-125847040D01*
G75*
G02*
X100751000Y-125922040I0J-75000D01*
G01*
X100751000Y-127247040D01*
G75*
G02*
X100676000Y-127322040I-75000J0D01*
G01*
X100526000Y-127322040D01*
G75*
G02*
X100451000Y-127247040I0J75000D01*
G01*
G37*
G36*
G01*
X99951000Y-127247040D02*
X99951000Y-125922040D01*
G75*
G02*
X100026000Y-125847040I75000J0D01*
G01*
X100176000Y-125847040D01*
G75*
G02*
X100251000Y-125922040I0J-75000D01*
G01*
X100251000Y-127247040D01*
G75*
G02*
X100176000Y-127322040I-75000J0D01*
G01*
X100026000Y-127322040D01*
G75*
G02*
X99951000Y-127247040I0J75000D01*
G01*
G37*
G36*
G01*
X99451000Y-127247040D02*
X99451000Y-125922040D01*
G75*
G02*
X99526000Y-125847040I75000J0D01*
G01*
X99676000Y-125847040D01*
G75*
G02*
X99751000Y-125922040I0J-75000D01*
G01*
X99751000Y-127247040D01*
G75*
G02*
X99676000Y-127322040I-75000J0D01*
G01*
X99526000Y-127322040D01*
G75*
G02*
X99451000Y-127247040I0J75000D01*
G01*
G37*
G36*
G01*
X98951000Y-127247040D02*
X98951000Y-125922040D01*
G75*
G02*
X99026000Y-125847040I75000J0D01*
G01*
X99176000Y-125847040D01*
G75*
G02*
X99251000Y-125922040I0J-75000D01*
G01*
X99251000Y-127247040D01*
G75*
G02*
X99176000Y-127322040I-75000J0D01*
G01*
X99026000Y-127322040D01*
G75*
G02*
X98951000Y-127247040I0J75000D01*
G01*
G37*
G36*
G01*
X98451000Y-127247040D02*
X98451000Y-125922040D01*
G75*
G02*
X98526000Y-125847040I75000J0D01*
G01*
X98676000Y-125847040D01*
G75*
G02*
X98751000Y-125922040I0J-75000D01*
G01*
X98751000Y-127247040D01*
G75*
G02*
X98676000Y-127322040I-75000J0D01*
G01*
X98526000Y-127322040D01*
G75*
G02*
X98451000Y-127247040I0J75000D01*
G01*
G37*
G36*
G01*
X97951000Y-127247040D02*
X97951000Y-125922040D01*
G75*
G02*
X98026000Y-125847040I75000J0D01*
G01*
X98176000Y-125847040D01*
G75*
G02*
X98251000Y-125922040I0J-75000D01*
G01*
X98251000Y-127247040D01*
G75*
G02*
X98176000Y-127322040I-75000J0D01*
G01*
X98026000Y-127322040D01*
G75*
G02*
X97951000Y-127247040I0J75000D01*
G01*
G37*
G36*
G01*
X97451000Y-127247040D02*
X97451000Y-125922040D01*
G75*
G02*
X97526000Y-125847040I75000J0D01*
G01*
X97676000Y-125847040D01*
G75*
G02*
X97751000Y-125922040I0J-75000D01*
G01*
X97751000Y-127247040D01*
G75*
G02*
X97676000Y-127322040I-75000J0D01*
G01*
X97526000Y-127322040D01*
G75*
G02*
X97451000Y-127247040I0J75000D01*
G01*
G37*
G36*
G01*
X96951000Y-127247040D02*
X96951000Y-125922040D01*
G75*
G02*
X97026000Y-125847040I75000J0D01*
G01*
X97176000Y-125847040D01*
G75*
G02*
X97251000Y-125922040I0J-75000D01*
G01*
X97251000Y-127247040D01*
G75*
G02*
X97176000Y-127322040I-75000J0D01*
G01*
X97026000Y-127322040D01*
G75*
G02*
X96951000Y-127247040I0J75000D01*
G01*
G37*
G36*
G01*
X94951000Y-125247040D02*
X94951000Y-125097040D01*
G75*
G02*
X95026000Y-125022040I75000J0D01*
G01*
X96351000Y-125022040D01*
G75*
G02*
X96426000Y-125097040I0J-75000D01*
G01*
X96426000Y-125247040D01*
G75*
G02*
X96351000Y-125322040I-75000J0D01*
G01*
X95026000Y-125322040D01*
G75*
G02*
X94951000Y-125247040I0J75000D01*
G01*
G37*
G36*
G01*
X94951000Y-124747040D02*
X94951000Y-124597040D01*
G75*
G02*
X95026000Y-124522040I75000J0D01*
G01*
X96351000Y-124522040D01*
G75*
G02*
X96426000Y-124597040I0J-75000D01*
G01*
X96426000Y-124747040D01*
G75*
G02*
X96351000Y-124822040I-75000J0D01*
G01*
X95026000Y-124822040D01*
G75*
G02*
X94951000Y-124747040I0J75000D01*
G01*
G37*
G36*
G01*
X94951000Y-124247040D02*
X94951000Y-124097040D01*
G75*
G02*
X95026000Y-124022040I75000J0D01*
G01*
X96351000Y-124022040D01*
G75*
G02*
X96426000Y-124097040I0J-75000D01*
G01*
X96426000Y-124247040D01*
G75*
G02*
X96351000Y-124322040I-75000J0D01*
G01*
X95026000Y-124322040D01*
G75*
G02*
X94951000Y-124247040I0J75000D01*
G01*
G37*
G36*
G01*
X94951000Y-123747040D02*
X94951000Y-123597040D01*
G75*
G02*
X95026000Y-123522040I75000J0D01*
G01*
X96351000Y-123522040D01*
G75*
G02*
X96426000Y-123597040I0J-75000D01*
G01*
X96426000Y-123747040D01*
G75*
G02*
X96351000Y-123822040I-75000J0D01*
G01*
X95026000Y-123822040D01*
G75*
G02*
X94951000Y-123747040I0J75000D01*
G01*
G37*
G36*
G01*
X94951000Y-123247040D02*
X94951000Y-123097040D01*
G75*
G02*
X95026000Y-123022040I75000J0D01*
G01*
X96351000Y-123022040D01*
G75*
G02*
X96426000Y-123097040I0J-75000D01*
G01*
X96426000Y-123247040D01*
G75*
G02*
X96351000Y-123322040I-75000J0D01*
G01*
X95026000Y-123322040D01*
G75*
G02*
X94951000Y-123247040I0J75000D01*
G01*
G37*
G36*
G01*
X94951000Y-122747040D02*
X94951000Y-122597040D01*
G75*
G02*
X95026000Y-122522040I75000J0D01*
G01*
X96351000Y-122522040D01*
G75*
G02*
X96426000Y-122597040I0J-75000D01*
G01*
X96426000Y-122747040D01*
G75*
G02*
X96351000Y-122822040I-75000J0D01*
G01*
X95026000Y-122822040D01*
G75*
G02*
X94951000Y-122747040I0J75000D01*
G01*
G37*
G36*
G01*
X94951000Y-122247040D02*
X94951000Y-122097040D01*
G75*
G02*
X95026000Y-122022040I75000J0D01*
G01*
X96351000Y-122022040D01*
G75*
G02*
X96426000Y-122097040I0J-75000D01*
G01*
X96426000Y-122247040D01*
G75*
G02*
X96351000Y-122322040I-75000J0D01*
G01*
X95026000Y-122322040D01*
G75*
G02*
X94951000Y-122247040I0J75000D01*
G01*
G37*
G36*
G01*
X94951000Y-121747040D02*
X94951000Y-121597040D01*
G75*
G02*
X95026000Y-121522040I75000J0D01*
G01*
X96351000Y-121522040D01*
G75*
G02*
X96426000Y-121597040I0J-75000D01*
G01*
X96426000Y-121747040D01*
G75*
G02*
X96351000Y-121822040I-75000J0D01*
G01*
X95026000Y-121822040D01*
G75*
G02*
X94951000Y-121747040I0J75000D01*
G01*
G37*
G36*
G01*
X94951000Y-121247040D02*
X94951000Y-121097040D01*
G75*
G02*
X95026000Y-121022040I75000J0D01*
G01*
X96351000Y-121022040D01*
G75*
G02*
X96426000Y-121097040I0J-75000D01*
G01*
X96426000Y-121247040D01*
G75*
G02*
X96351000Y-121322040I-75000J0D01*
G01*
X95026000Y-121322040D01*
G75*
G02*
X94951000Y-121247040I0J75000D01*
G01*
G37*
G36*
G01*
X94951000Y-120747040D02*
X94951000Y-120597040D01*
G75*
G02*
X95026000Y-120522040I75000J0D01*
G01*
X96351000Y-120522040D01*
G75*
G02*
X96426000Y-120597040I0J-75000D01*
G01*
X96426000Y-120747040D01*
G75*
G02*
X96351000Y-120822040I-75000J0D01*
G01*
X95026000Y-120822040D01*
G75*
G02*
X94951000Y-120747040I0J75000D01*
G01*
G37*
G36*
G01*
X94951000Y-120247040D02*
X94951000Y-120097040D01*
G75*
G02*
X95026000Y-120022040I75000J0D01*
G01*
X96351000Y-120022040D01*
G75*
G02*
X96426000Y-120097040I0J-75000D01*
G01*
X96426000Y-120247040D01*
G75*
G02*
X96351000Y-120322040I-75000J0D01*
G01*
X95026000Y-120322040D01*
G75*
G02*
X94951000Y-120247040I0J75000D01*
G01*
G37*
G36*
G01*
X94951000Y-119747040D02*
X94951000Y-119597040D01*
G75*
G02*
X95026000Y-119522040I75000J0D01*
G01*
X96351000Y-119522040D01*
G75*
G02*
X96426000Y-119597040I0J-75000D01*
G01*
X96426000Y-119747040D01*
G75*
G02*
X96351000Y-119822040I-75000J0D01*
G01*
X95026000Y-119822040D01*
G75*
G02*
X94951000Y-119747040I0J75000D01*
G01*
G37*
%TD*%
%TO.C,U11*%
G36*
G01*
X102301000Y-94677040D02*
X102301000Y-94377040D01*
G75*
G02*
X102451000Y-94227040I150000J0D01*
G01*
X103751000Y-94227040D01*
G75*
G02*
X103901000Y-94377040I0J-150000D01*
G01*
X103901000Y-94677040D01*
G75*
G02*
X103751000Y-94827040I-150000J0D01*
G01*
X102451000Y-94827040D01*
G75*
G02*
X102301000Y-94677040I0J150000D01*
G01*
G37*
G36*
G01*
X102301000Y-95947040D02*
X102301000Y-95647040D01*
G75*
G02*
X102451000Y-95497040I150000J0D01*
G01*
X103751000Y-95497040D01*
G75*
G02*
X103901000Y-95647040I0J-150000D01*
G01*
X103901000Y-95947040D01*
G75*
G02*
X103751000Y-96097040I-150000J0D01*
G01*
X102451000Y-96097040D01*
G75*
G02*
X102301000Y-95947040I0J150000D01*
G01*
G37*
G36*
G01*
X102301000Y-97217040D02*
X102301000Y-96917040D01*
G75*
G02*
X102451000Y-96767040I150000J0D01*
G01*
X103751000Y-96767040D01*
G75*
G02*
X103901000Y-96917040I0J-150000D01*
G01*
X103901000Y-97217040D01*
G75*
G02*
X103751000Y-97367040I-150000J0D01*
G01*
X102451000Y-97367040D01*
G75*
G02*
X102301000Y-97217040I0J150000D01*
G01*
G37*
G36*
G01*
X102301000Y-98487040D02*
X102301000Y-98187040D01*
G75*
G02*
X102451000Y-98037040I150000J0D01*
G01*
X103751000Y-98037040D01*
G75*
G02*
X103901000Y-98187040I0J-150000D01*
G01*
X103901000Y-98487040D01*
G75*
G02*
X103751000Y-98637040I-150000J0D01*
G01*
X102451000Y-98637040D01*
G75*
G02*
X102301000Y-98487040I0J150000D01*
G01*
G37*
G36*
G01*
X102301000Y-99757040D02*
X102301000Y-99457040D01*
G75*
G02*
X102451000Y-99307040I150000J0D01*
G01*
X103751000Y-99307040D01*
G75*
G02*
X103901000Y-99457040I0J-150000D01*
G01*
X103901000Y-99757040D01*
G75*
G02*
X103751000Y-99907040I-150000J0D01*
G01*
X102451000Y-99907040D01*
G75*
G02*
X102301000Y-99757040I0J150000D01*
G01*
G37*
G36*
G01*
X102301000Y-101027040D02*
X102301000Y-100727040D01*
G75*
G02*
X102451000Y-100577040I150000J0D01*
G01*
X103751000Y-100577040D01*
G75*
G02*
X103901000Y-100727040I0J-150000D01*
G01*
X103901000Y-101027040D01*
G75*
G02*
X103751000Y-101177040I-150000J0D01*
G01*
X102451000Y-101177040D01*
G75*
G02*
X102301000Y-101027040I0J150000D01*
G01*
G37*
G36*
G01*
X102301000Y-102297040D02*
X102301000Y-101997040D01*
G75*
G02*
X102451000Y-101847040I150000J0D01*
G01*
X103751000Y-101847040D01*
G75*
G02*
X103901000Y-101997040I0J-150000D01*
G01*
X103901000Y-102297040D01*
G75*
G02*
X103751000Y-102447040I-150000J0D01*
G01*
X102451000Y-102447040D01*
G75*
G02*
X102301000Y-102297040I0J150000D01*
G01*
G37*
G36*
G01*
X102301000Y-103567040D02*
X102301000Y-103267040D01*
G75*
G02*
X102451000Y-103117040I150000J0D01*
G01*
X103751000Y-103117040D01*
G75*
G02*
X103901000Y-103267040I0J-150000D01*
G01*
X103901000Y-103567040D01*
G75*
G02*
X103751000Y-103717040I-150000J0D01*
G01*
X102451000Y-103717040D01*
G75*
G02*
X102301000Y-103567040I0J150000D01*
G01*
G37*
G36*
G01*
X95801000Y-103567040D02*
X95801000Y-103267040D01*
G75*
G02*
X95951000Y-103117040I150000J0D01*
G01*
X97251000Y-103117040D01*
G75*
G02*
X97401000Y-103267040I0J-150000D01*
G01*
X97401000Y-103567040D01*
G75*
G02*
X97251000Y-103717040I-150000J0D01*
G01*
X95951000Y-103717040D01*
G75*
G02*
X95801000Y-103567040I0J150000D01*
G01*
G37*
G36*
G01*
X95801000Y-102297040D02*
X95801000Y-101997040D01*
G75*
G02*
X95951000Y-101847040I150000J0D01*
G01*
X97251000Y-101847040D01*
G75*
G02*
X97401000Y-101997040I0J-150000D01*
G01*
X97401000Y-102297040D01*
G75*
G02*
X97251000Y-102447040I-150000J0D01*
G01*
X95951000Y-102447040D01*
G75*
G02*
X95801000Y-102297040I0J150000D01*
G01*
G37*
G36*
G01*
X95801000Y-101027040D02*
X95801000Y-100727040D01*
G75*
G02*
X95951000Y-100577040I150000J0D01*
G01*
X97251000Y-100577040D01*
G75*
G02*
X97401000Y-100727040I0J-150000D01*
G01*
X97401000Y-101027040D01*
G75*
G02*
X97251000Y-101177040I-150000J0D01*
G01*
X95951000Y-101177040D01*
G75*
G02*
X95801000Y-101027040I0J150000D01*
G01*
G37*
G36*
G01*
X95801000Y-99757040D02*
X95801000Y-99457040D01*
G75*
G02*
X95951000Y-99307040I150000J0D01*
G01*
X97251000Y-99307040D01*
G75*
G02*
X97401000Y-99457040I0J-150000D01*
G01*
X97401000Y-99757040D01*
G75*
G02*
X97251000Y-99907040I-150000J0D01*
G01*
X95951000Y-99907040D01*
G75*
G02*
X95801000Y-99757040I0J150000D01*
G01*
G37*
G36*
G01*
X95801000Y-98487040D02*
X95801000Y-98187040D01*
G75*
G02*
X95951000Y-98037040I150000J0D01*
G01*
X97251000Y-98037040D01*
G75*
G02*
X97401000Y-98187040I0J-150000D01*
G01*
X97401000Y-98487040D01*
G75*
G02*
X97251000Y-98637040I-150000J0D01*
G01*
X95951000Y-98637040D01*
G75*
G02*
X95801000Y-98487040I0J150000D01*
G01*
G37*
G36*
G01*
X95801000Y-97217040D02*
X95801000Y-96917040D01*
G75*
G02*
X95951000Y-96767040I150000J0D01*
G01*
X97251000Y-96767040D01*
G75*
G02*
X97401000Y-96917040I0J-150000D01*
G01*
X97401000Y-97217040D01*
G75*
G02*
X97251000Y-97367040I-150000J0D01*
G01*
X95951000Y-97367040D01*
G75*
G02*
X95801000Y-97217040I0J150000D01*
G01*
G37*
G36*
G01*
X95801000Y-95947040D02*
X95801000Y-95647040D01*
G75*
G02*
X95951000Y-95497040I150000J0D01*
G01*
X97251000Y-95497040D01*
G75*
G02*
X97401000Y-95647040I0J-150000D01*
G01*
X97401000Y-95947040D01*
G75*
G02*
X97251000Y-96097040I-150000J0D01*
G01*
X95951000Y-96097040D01*
G75*
G02*
X95801000Y-95947040I0J150000D01*
G01*
G37*
G36*
G01*
X95801000Y-94677040D02*
X95801000Y-94377040D01*
G75*
G02*
X95951000Y-94227040I150000J0D01*
G01*
X97251000Y-94227040D01*
G75*
G02*
X97401000Y-94377040I0J-150000D01*
G01*
X97401000Y-94677040D01*
G75*
G02*
X97251000Y-94827040I-150000J0D01*
G01*
X95951000Y-94827040D01*
G75*
G02*
X95801000Y-94677040I0J150000D01*
G01*
G37*
%TD*%
%TO.C,U10*%
G36*
G01*
X102301000Y-106527040D02*
X102301000Y-106227040D01*
G75*
G02*
X102451000Y-106077040I150000J0D01*
G01*
X103751000Y-106077040D01*
G75*
G02*
X103901000Y-106227040I0J-150000D01*
G01*
X103901000Y-106527040D01*
G75*
G02*
X103751000Y-106677040I-150000J0D01*
G01*
X102451000Y-106677040D01*
G75*
G02*
X102301000Y-106527040I0J150000D01*
G01*
G37*
G36*
G01*
X102301000Y-107797040D02*
X102301000Y-107497040D01*
G75*
G02*
X102451000Y-107347040I150000J0D01*
G01*
X103751000Y-107347040D01*
G75*
G02*
X103901000Y-107497040I0J-150000D01*
G01*
X103901000Y-107797040D01*
G75*
G02*
X103751000Y-107947040I-150000J0D01*
G01*
X102451000Y-107947040D01*
G75*
G02*
X102301000Y-107797040I0J150000D01*
G01*
G37*
G36*
G01*
X102301000Y-109067040D02*
X102301000Y-108767040D01*
G75*
G02*
X102451000Y-108617040I150000J0D01*
G01*
X103751000Y-108617040D01*
G75*
G02*
X103901000Y-108767040I0J-150000D01*
G01*
X103901000Y-109067040D01*
G75*
G02*
X103751000Y-109217040I-150000J0D01*
G01*
X102451000Y-109217040D01*
G75*
G02*
X102301000Y-109067040I0J150000D01*
G01*
G37*
G36*
G01*
X102301000Y-110337040D02*
X102301000Y-110037040D01*
G75*
G02*
X102451000Y-109887040I150000J0D01*
G01*
X103751000Y-109887040D01*
G75*
G02*
X103901000Y-110037040I0J-150000D01*
G01*
X103901000Y-110337040D01*
G75*
G02*
X103751000Y-110487040I-150000J0D01*
G01*
X102451000Y-110487040D01*
G75*
G02*
X102301000Y-110337040I0J150000D01*
G01*
G37*
G36*
G01*
X102301000Y-111607040D02*
X102301000Y-111307040D01*
G75*
G02*
X102451000Y-111157040I150000J0D01*
G01*
X103751000Y-111157040D01*
G75*
G02*
X103901000Y-111307040I0J-150000D01*
G01*
X103901000Y-111607040D01*
G75*
G02*
X103751000Y-111757040I-150000J0D01*
G01*
X102451000Y-111757040D01*
G75*
G02*
X102301000Y-111607040I0J150000D01*
G01*
G37*
G36*
G01*
X102301000Y-112877040D02*
X102301000Y-112577040D01*
G75*
G02*
X102451000Y-112427040I150000J0D01*
G01*
X103751000Y-112427040D01*
G75*
G02*
X103901000Y-112577040I0J-150000D01*
G01*
X103901000Y-112877040D01*
G75*
G02*
X103751000Y-113027040I-150000J0D01*
G01*
X102451000Y-113027040D01*
G75*
G02*
X102301000Y-112877040I0J150000D01*
G01*
G37*
G36*
G01*
X102301000Y-114147040D02*
X102301000Y-113847040D01*
G75*
G02*
X102451000Y-113697040I150000J0D01*
G01*
X103751000Y-113697040D01*
G75*
G02*
X103901000Y-113847040I0J-150000D01*
G01*
X103901000Y-114147040D01*
G75*
G02*
X103751000Y-114297040I-150000J0D01*
G01*
X102451000Y-114297040D01*
G75*
G02*
X102301000Y-114147040I0J150000D01*
G01*
G37*
G36*
G01*
X102301000Y-115417040D02*
X102301000Y-115117040D01*
G75*
G02*
X102451000Y-114967040I150000J0D01*
G01*
X103751000Y-114967040D01*
G75*
G02*
X103901000Y-115117040I0J-150000D01*
G01*
X103901000Y-115417040D01*
G75*
G02*
X103751000Y-115567040I-150000J0D01*
G01*
X102451000Y-115567040D01*
G75*
G02*
X102301000Y-115417040I0J150000D01*
G01*
G37*
G36*
G01*
X95801000Y-115417040D02*
X95801000Y-115117040D01*
G75*
G02*
X95951000Y-114967040I150000J0D01*
G01*
X97251000Y-114967040D01*
G75*
G02*
X97401000Y-115117040I0J-150000D01*
G01*
X97401000Y-115417040D01*
G75*
G02*
X97251000Y-115567040I-150000J0D01*
G01*
X95951000Y-115567040D01*
G75*
G02*
X95801000Y-115417040I0J150000D01*
G01*
G37*
G36*
G01*
X95801000Y-114147040D02*
X95801000Y-113847040D01*
G75*
G02*
X95951000Y-113697040I150000J0D01*
G01*
X97251000Y-113697040D01*
G75*
G02*
X97401000Y-113847040I0J-150000D01*
G01*
X97401000Y-114147040D01*
G75*
G02*
X97251000Y-114297040I-150000J0D01*
G01*
X95951000Y-114297040D01*
G75*
G02*
X95801000Y-114147040I0J150000D01*
G01*
G37*
G36*
G01*
X95801000Y-112877040D02*
X95801000Y-112577040D01*
G75*
G02*
X95951000Y-112427040I150000J0D01*
G01*
X97251000Y-112427040D01*
G75*
G02*
X97401000Y-112577040I0J-150000D01*
G01*
X97401000Y-112877040D01*
G75*
G02*
X97251000Y-113027040I-150000J0D01*
G01*
X95951000Y-113027040D01*
G75*
G02*
X95801000Y-112877040I0J150000D01*
G01*
G37*
G36*
G01*
X95801000Y-111607040D02*
X95801000Y-111307040D01*
G75*
G02*
X95951000Y-111157040I150000J0D01*
G01*
X97251000Y-111157040D01*
G75*
G02*
X97401000Y-111307040I0J-150000D01*
G01*
X97401000Y-111607040D01*
G75*
G02*
X97251000Y-111757040I-150000J0D01*
G01*
X95951000Y-111757040D01*
G75*
G02*
X95801000Y-111607040I0J150000D01*
G01*
G37*
G36*
G01*
X95801000Y-110337040D02*
X95801000Y-110037040D01*
G75*
G02*
X95951000Y-109887040I150000J0D01*
G01*
X97251000Y-109887040D01*
G75*
G02*
X97401000Y-110037040I0J-150000D01*
G01*
X97401000Y-110337040D01*
G75*
G02*
X97251000Y-110487040I-150000J0D01*
G01*
X95951000Y-110487040D01*
G75*
G02*
X95801000Y-110337040I0J150000D01*
G01*
G37*
G36*
G01*
X95801000Y-109067040D02*
X95801000Y-108767040D01*
G75*
G02*
X95951000Y-108617040I150000J0D01*
G01*
X97251000Y-108617040D01*
G75*
G02*
X97401000Y-108767040I0J-150000D01*
G01*
X97401000Y-109067040D01*
G75*
G02*
X97251000Y-109217040I-150000J0D01*
G01*
X95951000Y-109217040D01*
G75*
G02*
X95801000Y-109067040I0J150000D01*
G01*
G37*
G36*
G01*
X95801000Y-107797040D02*
X95801000Y-107497040D01*
G75*
G02*
X95951000Y-107347040I150000J0D01*
G01*
X97251000Y-107347040D01*
G75*
G02*
X97401000Y-107497040I0J-150000D01*
G01*
X97401000Y-107797040D01*
G75*
G02*
X97251000Y-107947040I-150000J0D01*
G01*
X95951000Y-107947040D01*
G75*
G02*
X95801000Y-107797040I0J150000D01*
G01*
G37*
G36*
G01*
X95801000Y-106527040D02*
X95801000Y-106227040D01*
G75*
G02*
X95951000Y-106077040I150000J0D01*
G01*
X97251000Y-106077040D01*
G75*
G02*
X97401000Y-106227040I0J-150000D01*
G01*
X97401000Y-106527040D01*
G75*
G02*
X97251000Y-106677040I-150000J0D01*
G01*
X95951000Y-106677040D01*
G75*
G02*
X95801000Y-106527040I0J150000D01*
G01*
G37*
%TD*%
%TO.C,U9*%
G36*
G01*
X82151000Y-124227040D02*
X82151000Y-123927040D01*
G75*
G02*
X82301000Y-123777040I150000J0D01*
G01*
X83601000Y-123777040D01*
G75*
G02*
X83751000Y-123927040I0J-150000D01*
G01*
X83751000Y-124227040D01*
G75*
G02*
X83601000Y-124377040I-150000J0D01*
G01*
X82301000Y-124377040D01*
G75*
G02*
X82151000Y-124227040I0J150000D01*
G01*
G37*
G36*
G01*
X82151000Y-125497040D02*
X82151000Y-125197040D01*
G75*
G02*
X82301000Y-125047040I150000J0D01*
G01*
X83601000Y-125047040D01*
G75*
G02*
X83751000Y-125197040I0J-150000D01*
G01*
X83751000Y-125497040D01*
G75*
G02*
X83601000Y-125647040I-150000J0D01*
G01*
X82301000Y-125647040D01*
G75*
G02*
X82151000Y-125497040I0J150000D01*
G01*
G37*
G36*
G01*
X82151000Y-126767040D02*
X82151000Y-126467040D01*
G75*
G02*
X82301000Y-126317040I150000J0D01*
G01*
X83601000Y-126317040D01*
G75*
G02*
X83751000Y-126467040I0J-150000D01*
G01*
X83751000Y-126767040D01*
G75*
G02*
X83601000Y-126917040I-150000J0D01*
G01*
X82301000Y-126917040D01*
G75*
G02*
X82151000Y-126767040I0J150000D01*
G01*
G37*
G36*
G01*
X82151000Y-128037040D02*
X82151000Y-127737040D01*
G75*
G02*
X82301000Y-127587040I150000J0D01*
G01*
X83601000Y-127587040D01*
G75*
G02*
X83751000Y-127737040I0J-150000D01*
G01*
X83751000Y-128037040D01*
G75*
G02*
X83601000Y-128187040I-150000J0D01*
G01*
X82301000Y-128187040D01*
G75*
G02*
X82151000Y-128037040I0J150000D01*
G01*
G37*
G36*
G01*
X82151000Y-129307040D02*
X82151000Y-129007040D01*
G75*
G02*
X82301000Y-128857040I150000J0D01*
G01*
X83601000Y-128857040D01*
G75*
G02*
X83751000Y-129007040I0J-150000D01*
G01*
X83751000Y-129307040D01*
G75*
G02*
X83601000Y-129457040I-150000J0D01*
G01*
X82301000Y-129457040D01*
G75*
G02*
X82151000Y-129307040I0J150000D01*
G01*
G37*
G36*
G01*
X82151000Y-130577040D02*
X82151000Y-130277040D01*
G75*
G02*
X82301000Y-130127040I150000J0D01*
G01*
X83601000Y-130127040D01*
G75*
G02*
X83751000Y-130277040I0J-150000D01*
G01*
X83751000Y-130577040D01*
G75*
G02*
X83601000Y-130727040I-150000J0D01*
G01*
X82301000Y-130727040D01*
G75*
G02*
X82151000Y-130577040I0J150000D01*
G01*
G37*
G36*
G01*
X82151000Y-131847040D02*
X82151000Y-131547040D01*
G75*
G02*
X82301000Y-131397040I150000J0D01*
G01*
X83601000Y-131397040D01*
G75*
G02*
X83751000Y-131547040I0J-150000D01*
G01*
X83751000Y-131847040D01*
G75*
G02*
X83601000Y-131997040I-150000J0D01*
G01*
X82301000Y-131997040D01*
G75*
G02*
X82151000Y-131847040I0J150000D01*
G01*
G37*
G36*
G01*
X82151000Y-133117040D02*
X82151000Y-132817040D01*
G75*
G02*
X82301000Y-132667040I150000J0D01*
G01*
X83601000Y-132667040D01*
G75*
G02*
X83751000Y-132817040I0J-150000D01*
G01*
X83751000Y-133117040D01*
G75*
G02*
X83601000Y-133267040I-150000J0D01*
G01*
X82301000Y-133267040D01*
G75*
G02*
X82151000Y-133117040I0J150000D01*
G01*
G37*
G36*
G01*
X75651000Y-133117040D02*
X75651000Y-132817040D01*
G75*
G02*
X75801000Y-132667040I150000J0D01*
G01*
X77101000Y-132667040D01*
G75*
G02*
X77251000Y-132817040I0J-150000D01*
G01*
X77251000Y-133117040D01*
G75*
G02*
X77101000Y-133267040I-150000J0D01*
G01*
X75801000Y-133267040D01*
G75*
G02*
X75651000Y-133117040I0J150000D01*
G01*
G37*
G36*
G01*
X75651000Y-131847040D02*
X75651000Y-131547040D01*
G75*
G02*
X75801000Y-131397040I150000J0D01*
G01*
X77101000Y-131397040D01*
G75*
G02*
X77251000Y-131547040I0J-150000D01*
G01*
X77251000Y-131847040D01*
G75*
G02*
X77101000Y-131997040I-150000J0D01*
G01*
X75801000Y-131997040D01*
G75*
G02*
X75651000Y-131847040I0J150000D01*
G01*
G37*
G36*
G01*
X75651000Y-130577040D02*
X75651000Y-130277040D01*
G75*
G02*
X75801000Y-130127040I150000J0D01*
G01*
X77101000Y-130127040D01*
G75*
G02*
X77251000Y-130277040I0J-150000D01*
G01*
X77251000Y-130577040D01*
G75*
G02*
X77101000Y-130727040I-150000J0D01*
G01*
X75801000Y-130727040D01*
G75*
G02*
X75651000Y-130577040I0J150000D01*
G01*
G37*
G36*
G01*
X75651000Y-129307040D02*
X75651000Y-129007040D01*
G75*
G02*
X75801000Y-128857040I150000J0D01*
G01*
X77101000Y-128857040D01*
G75*
G02*
X77251000Y-129007040I0J-150000D01*
G01*
X77251000Y-129307040D01*
G75*
G02*
X77101000Y-129457040I-150000J0D01*
G01*
X75801000Y-129457040D01*
G75*
G02*
X75651000Y-129307040I0J150000D01*
G01*
G37*
G36*
G01*
X75651000Y-128037040D02*
X75651000Y-127737040D01*
G75*
G02*
X75801000Y-127587040I150000J0D01*
G01*
X77101000Y-127587040D01*
G75*
G02*
X77251000Y-127737040I0J-150000D01*
G01*
X77251000Y-128037040D01*
G75*
G02*
X77101000Y-128187040I-150000J0D01*
G01*
X75801000Y-128187040D01*
G75*
G02*
X75651000Y-128037040I0J150000D01*
G01*
G37*
G36*
G01*
X75651000Y-126767040D02*
X75651000Y-126467040D01*
G75*
G02*
X75801000Y-126317040I150000J0D01*
G01*
X77101000Y-126317040D01*
G75*
G02*
X77251000Y-126467040I0J-150000D01*
G01*
X77251000Y-126767040D01*
G75*
G02*
X77101000Y-126917040I-150000J0D01*
G01*
X75801000Y-126917040D01*
G75*
G02*
X75651000Y-126767040I0J150000D01*
G01*
G37*
G36*
G01*
X75651000Y-125497040D02*
X75651000Y-125197040D01*
G75*
G02*
X75801000Y-125047040I150000J0D01*
G01*
X77101000Y-125047040D01*
G75*
G02*
X77251000Y-125197040I0J-150000D01*
G01*
X77251000Y-125497040D01*
G75*
G02*
X77101000Y-125647040I-150000J0D01*
G01*
X75801000Y-125647040D01*
G75*
G02*
X75651000Y-125497040I0J150000D01*
G01*
G37*
G36*
G01*
X75651000Y-124227040D02*
X75651000Y-123927040D01*
G75*
G02*
X75801000Y-123777040I150000J0D01*
G01*
X77101000Y-123777040D01*
G75*
G02*
X77251000Y-123927040I0J-150000D01*
G01*
X77251000Y-124227040D01*
G75*
G02*
X77101000Y-124377040I-150000J0D01*
G01*
X75801000Y-124377040D01*
G75*
G02*
X75651000Y-124227040I0J150000D01*
G01*
G37*
%TD*%
%TO.C,U8*%
G36*
G01*
X-18599000Y-229077040D02*
X-18599000Y-228777040D01*
G75*
G02*
X-18449000Y-228627040I150000J0D01*
G01*
X-17149000Y-228627040D01*
G75*
G02*
X-16999000Y-228777040I0J-150000D01*
G01*
X-16999000Y-229077040D01*
G75*
G02*
X-17149000Y-229227040I-150000J0D01*
G01*
X-18449000Y-229227040D01*
G75*
G02*
X-18599000Y-229077040I0J150000D01*
G01*
G37*
G36*
G01*
X-18599000Y-230347040D02*
X-18599000Y-230047040D01*
G75*
G02*
X-18449000Y-229897040I150000J0D01*
G01*
X-17149000Y-229897040D01*
G75*
G02*
X-16999000Y-230047040I0J-150000D01*
G01*
X-16999000Y-230347040D01*
G75*
G02*
X-17149000Y-230497040I-150000J0D01*
G01*
X-18449000Y-230497040D01*
G75*
G02*
X-18599000Y-230347040I0J150000D01*
G01*
G37*
G36*
G01*
X-18599000Y-231617040D02*
X-18599000Y-231317040D01*
G75*
G02*
X-18449000Y-231167040I150000J0D01*
G01*
X-17149000Y-231167040D01*
G75*
G02*
X-16999000Y-231317040I0J-150000D01*
G01*
X-16999000Y-231617040D01*
G75*
G02*
X-17149000Y-231767040I-150000J0D01*
G01*
X-18449000Y-231767040D01*
G75*
G02*
X-18599000Y-231617040I0J150000D01*
G01*
G37*
G36*
G01*
X-18599000Y-232887040D02*
X-18599000Y-232587040D01*
G75*
G02*
X-18449000Y-232437040I150000J0D01*
G01*
X-17149000Y-232437040D01*
G75*
G02*
X-16999000Y-232587040I0J-150000D01*
G01*
X-16999000Y-232887040D01*
G75*
G02*
X-17149000Y-233037040I-150000J0D01*
G01*
X-18449000Y-233037040D01*
G75*
G02*
X-18599000Y-232887040I0J150000D01*
G01*
G37*
G36*
G01*
X-18599000Y-234157040D02*
X-18599000Y-233857040D01*
G75*
G02*
X-18449000Y-233707040I150000J0D01*
G01*
X-17149000Y-233707040D01*
G75*
G02*
X-16999000Y-233857040I0J-150000D01*
G01*
X-16999000Y-234157040D01*
G75*
G02*
X-17149000Y-234307040I-150000J0D01*
G01*
X-18449000Y-234307040D01*
G75*
G02*
X-18599000Y-234157040I0J150000D01*
G01*
G37*
G36*
G01*
X-18599000Y-235427040D02*
X-18599000Y-235127040D01*
G75*
G02*
X-18449000Y-234977040I150000J0D01*
G01*
X-17149000Y-234977040D01*
G75*
G02*
X-16999000Y-235127040I0J-150000D01*
G01*
X-16999000Y-235427040D01*
G75*
G02*
X-17149000Y-235577040I-150000J0D01*
G01*
X-18449000Y-235577040D01*
G75*
G02*
X-18599000Y-235427040I0J150000D01*
G01*
G37*
G36*
G01*
X-18599000Y-236697040D02*
X-18599000Y-236397040D01*
G75*
G02*
X-18449000Y-236247040I150000J0D01*
G01*
X-17149000Y-236247040D01*
G75*
G02*
X-16999000Y-236397040I0J-150000D01*
G01*
X-16999000Y-236697040D01*
G75*
G02*
X-17149000Y-236847040I-150000J0D01*
G01*
X-18449000Y-236847040D01*
G75*
G02*
X-18599000Y-236697040I0J150000D01*
G01*
G37*
G36*
G01*
X-18599000Y-237967040D02*
X-18599000Y-237667040D01*
G75*
G02*
X-18449000Y-237517040I150000J0D01*
G01*
X-17149000Y-237517040D01*
G75*
G02*
X-16999000Y-237667040I0J-150000D01*
G01*
X-16999000Y-237967040D01*
G75*
G02*
X-17149000Y-238117040I-150000J0D01*
G01*
X-18449000Y-238117040D01*
G75*
G02*
X-18599000Y-237967040I0J150000D01*
G01*
G37*
G36*
G01*
X-25099000Y-237967040D02*
X-25099000Y-237667040D01*
G75*
G02*
X-24949000Y-237517040I150000J0D01*
G01*
X-23649000Y-237517040D01*
G75*
G02*
X-23499000Y-237667040I0J-150000D01*
G01*
X-23499000Y-237967040D01*
G75*
G02*
X-23649000Y-238117040I-150000J0D01*
G01*
X-24949000Y-238117040D01*
G75*
G02*
X-25099000Y-237967040I0J150000D01*
G01*
G37*
G36*
G01*
X-25099000Y-236697040D02*
X-25099000Y-236397040D01*
G75*
G02*
X-24949000Y-236247040I150000J0D01*
G01*
X-23649000Y-236247040D01*
G75*
G02*
X-23499000Y-236397040I0J-150000D01*
G01*
X-23499000Y-236697040D01*
G75*
G02*
X-23649000Y-236847040I-150000J0D01*
G01*
X-24949000Y-236847040D01*
G75*
G02*
X-25099000Y-236697040I0J150000D01*
G01*
G37*
G36*
G01*
X-25099000Y-235427040D02*
X-25099000Y-235127040D01*
G75*
G02*
X-24949000Y-234977040I150000J0D01*
G01*
X-23649000Y-234977040D01*
G75*
G02*
X-23499000Y-235127040I0J-150000D01*
G01*
X-23499000Y-235427040D01*
G75*
G02*
X-23649000Y-235577040I-150000J0D01*
G01*
X-24949000Y-235577040D01*
G75*
G02*
X-25099000Y-235427040I0J150000D01*
G01*
G37*
G36*
G01*
X-25099000Y-234157040D02*
X-25099000Y-233857040D01*
G75*
G02*
X-24949000Y-233707040I150000J0D01*
G01*
X-23649000Y-233707040D01*
G75*
G02*
X-23499000Y-233857040I0J-150000D01*
G01*
X-23499000Y-234157040D01*
G75*
G02*
X-23649000Y-234307040I-150000J0D01*
G01*
X-24949000Y-234307040D01*
G75*
G02*
X-25099000Y-234157040I0J150000D01*
G01*
G37*
G36*
G01*
X-25099000Y-232887040D02*
X-25099000Y-232587040D01*
G75*
G02*
X-24949000Y-232437040I150000J0D01*
G01*
X-23649000Y-232437040D01*
G75*
G02*
X-23499000Y-232587040I0J-150000D01*
G01*
X-23499000Y-232887040D01*
G75*
G02*
X-23649000Y-233037040I-150000J0D01*
G01*
X-24949000Y-233037040D01*
G75*
G02*
X-25099000Y-232887040I0J150000D01*
G01*
G37*
G36*
G01*
X-25099000Y-231617040D02*
X-25099000Y-231317040D01*
G75*
G02*
X-24949000Y-231167040I150000J0D01*
G01*
X-23649000Y-231167040D01*
G75*
G02*
X-23499000Y-231317040I0J-150000D01*
G01*
X-23499000Y-231617040D01*
G75*
G02*
X-23649000Y-231767040I-150000J0D01*
G01*
X-24949000Y-231767040D01*
G75*
G02*
X-25099000Y-231617040I0J150000D01*
G01*
G37*
G36*
G01*
X-25099000Y-230347040D02*
X-25099000Y-230047040D01*
G75*
G02*
X-24949000Y-229897040I150000J0D01*
G01*
X-23649000Y-229897040D01*
G75*
G02*
X-23499000Y-230047040I0J-150000D01*
G01*
X-23499000Y-230347040D01*
G75*
G02*
X-23649000Y-230497040I-150000J0D01*
G01*
X-24949000Y-230497040D01*
G75*
G02*
X-25099000Y-230347040I0J150000D01*
G01*
G37*
G36*
G01*
X-25099000Y-229077040D02*
X-25099000Y-228777040D01*
G75*
G02*
X-24949000Y-228627040I150000J0D01*
G01*
X-23649000Y-228627040D01*
G75*
G02*
X-23499000Y-228777040I0J-150000D01*
G01*
X-23499000Y-229077040D01*
G75*
G02*
X-23649000Y-229227040I-150000J0D01*
G01*
X-24949000Y-229227040D01*
G75*
G02*
X-25099000Y-229077040I0J150000D01*
G01*
G37*
%TD*%
%TO.C,U7*%
G36*
G01*
X1551000Y-208927040D02*
X1551000Y-208627040D01*
G75*
G02*
X1701000Y-208477040I150000J0D01*
G01*
X3001000Y-208477040D01*
G75*
G02*
X3151000Y-208627040I0J-150000D01*
G01*
X3151000Y-208927040D01*
G75*
G02*
X3001000Y-209077040I-150000J0D01*
G01*
X1701000Y-209077040D01*
G75*
G02*
X1551000Y-208927040I0J150000D01*
G01*
G37*
G36*
G01*
X1551000Y-210197040D02*
X1551000Y-209897040D01*
G75*
G02*
X1701000Y-209747040I150000J0D01*
G01*
X3001000Y-209747040D01*
G75*
G02*
X3151000Y-209897040I0J-150000D01*
G01*
X3151000Y-210197040D01*
G75*
G02*
X3001000Y-210347040I-150000J0D01*
G01*
X1701000Y-210347040D01*
G75*
G02*
X1551000Y-210197040I0J150000D01*
G01*
G37*
G36*
G01*
X1551000Y-211467040D02*
X1551000Y-211167040D01*
G75*
G02*
X1701000Y-211017040I150000J0D01*
G01*
X3001000Y-211017040D01*
G75*
G02*
X3151000Y-211167040I0J-150000D01*
G01*
X3151000Y-211467040D01*
G75*
G02*
X3001000Y-211617040I-150000J0D01*
G01*
X1701000Y-211617040D01*
G75*
G02*
X1551000Y-211467040I0J150000D01*
G01*
G37*
G36*
G01*
X1551000Y-212737040D02*
X1551000Y-212437040D01*
G75*
G02*
X1701000Y-212287040I150000J0D01*
G01*
X3001000Y-212287040D01*
G75*
G02*
X3151000Y-212437040I0J-150000D01*
G01*
X3151000Y-212737040D01*
G75*
G02*
X3001000Y-212887040I-150000J0D01*
G01*
X1701000Y-212887040D01*
G75*
G02*
X1551000Y-212737040I0J150000D01*
G01*
G37*
G36*
G01*
X1551000Y-214007040D02*
X1551000Y-213707040D01*
G75*
G02*
X1701000Y-213557040I150000J0D01*
G01*
X3001000Y-213557040D01*
G75*
G02*
X3151000Y-213707040I0J-150000D01*
G01*
X3151000Y-214007040D01*
G75*
G02*
X3001000Y-214157040I-150000J0D01*
G01*
X1701000Y-214157040D01*
G75*
G02*
X1551000Y-214007040I0J150000D01*
G01*
G37*
G36*
G01*
X1551000Y-215277040D02*
X1551000Y-214977040D01*
G75*
G02*
X1701000Y-214827040I150000J0D01*
G01*
X3001000Y-214827040D01*
G75*
G02*
X3151000Y-214977040I0J-150000D01*
G01*
X3151000Y-215277040D01*
G75*
G02*
X3001000Y-215427040I-150000J0D01*
G01*
X1701000Y-215427040D01*
G75*
G02*
X1551000Y-215277040I0J150000D01*
G01*
G37*
G36*
G01*
X1551000Y-216547040D02*
X1551000Y-216247040D01*
G75*
G02*
X1701000Y-216097040I150000J0D01*
G01*
X3001000Y-216097040D01*
G75*
G02*
X3151000Y-216247040I0J-150000D01*
G01*
X3151000Y-216547040D01*
G75*
G02*
X3001000Y-216697040I-150000J0D01*
G01*
X1701000Y-216697040D01*
G75*
G02*
X1551000Y-216547040I0J150000D01*
G01*
G37*
G36*
G01*
X1551000Y-217817040D02*
X1551000Y-217517040D01*
G75*
G02*
X1701000Y-217367040I150000J0D01*
G01*
X3001000Y-217367040D01*
G75*
G02*
X3151000Y-217517040I0J-150000D01*
G01*
X3151000Y-217817040D01*
G75*
G02*
X3001000Y-217967040I-150000J0D01*
G01*
X1701000Y-217967040D01*
G75*
G02*
X1551000Y-217817040I0J150000D01*
G01*
G37*
G36*
G01*
X-4949000Y-217817040D02*
X-4949000Y-217517040D01*
G75*
G02*
X-4799000Y-217367040I150000J0D01*
G01*
X-3499000Y-217367040D01*
G75*
G02*
X-3349000Y-217517040I0J-150000D01*
G01*
X-3349000Y-217817040D01*
G75*
G02*
X-3499000Y-217967040I-150000J0D01*
G01*
X-4799000Y-217967040D01*
G75*
G02*
X-4949000Y-217817040I0J150000D01*
G01*
G37*
G36*
G01*
X-4949000Y-216547040D02*
X-4949000Y-216247040D01*
G75*
G02*
X-4799000Y-216097040I150000J0D01*
G01*
X-3499000Y-216097040D01*
G75*
G02*
X-3349000Y-216247040I0J-150000D01*
G01*
X-3349000Y-216547040D01*
G75*
G02*
X-3499000Y-216697040I-150000J0D01*
G01*
X-4799000Y-216697040D01*
G75*
G02*
X-4949000Y-216547040I0J150000D01*
G01*
G37*
G36*
G01*
X-4949000Y-215277040D02*
X-4949000Y-214977040D01*
G75*
G02*
X-4799000Y-214827040I150000J0D01*
G01*
X-3499000Y-214827040D01*
G75*
G02*
X-3349000Y-214977040I0J-150000D01*
G01*
X-3349000Y-215277040D01*
G75*
G02*
X-3499000Y-215427040I-150000J0D01*
G01*
X-4799000Y-215427040D01*
G75*
G02*
X-4949000Y-215277040I0J150000D01*
G01*
G37*
G36*
G01*
X-4949000Y-214007040D02*
X-4949000Y-213707040D01*
G75*
G02*
X-4799000Y-213557040I150000J0D01*
G01*
X-3499000Y-213557040D01*
G75*
G02*
X-3349000Y-213707040I0J-150000D01*
G01*
X-3349000Y-214007040D01*
G75*
G02*
X-3499000Y-214157040I-150000J0D01*
G01*
X-4799000Y-214157040D01*
G75*
G02*
X-4949000Y-214007040I0J150000D01*
G01*
G37*
G36*
G01*
X-4949000Y-212737040D02*
X-4949000Y-212437040D01*
G75*
G02*
X-4799000Y-212287040I150000J0D01*
G01*
X-3499000Y-212287040D01*
G75*
G02*
X-3349000Y-212437040I0J-150000D01*
G01*
X-3349000Y-212737040D01*
G75*
G02*
X-3499000Y-212887040I-150000J0D01*
G01*
X-4799000Y-212887040D01*
G75*
G02*
X-4949000Y-212737040I0J150000D01*
G01*
G37*
G36*
G01*
X-4949000Y-211467040D02*
X-4949000Y-211167040D01*
G75*
G02*
X-4799000Y-211017040I150000J0D01*
G01*
X-3499000Y-211017040D01*
G75*
G02*
X-3349000Y-211167040I0J-150000D01*
G01*
X-3349000Y-211467040D01*
G75*
G02*
X-3499000Y-211617040I-150000J0D01*
G01*
X-4799000Y-211617040D01*
G75*
G02*
X-4949000Y-211467040I0J150000D01*
G01*
G37*
G36*
G01*
X-4949000Y-210197040D02*
X-4949000Y-209897040D01*
G75*
G02*
X-4799000Y-209747040I150000J0D01*
G01*
X-3499000Y-209747040D01*
G75*
G02*
X-3349000Y-209897040I0J-150000D01*
G01*
X-3349000Y-210197040D01*
G75*
G02*
X-3499000Y-210347040I-150000J0D01*
G01*
X-4799000Y-210347040D01*
G75*
G02*
X-4949000Y-210197040I0J150000D01*
G01*
G37*
G36*
G01*
X-4949000Y-208927040D02*
X-4949000Y-208627040D01*
G75*
G02*
X-4799000Y-208477040I150000J0D01*
G01*
X-3499000Y-208477040D01*
G75*
G02*
X-3349000Y-208627040I0J-150000D01*
G01*
X-3349000Y-208927040D01*
G75*
G02*
X-3499000Y-209077040I-150000J0D01*
G01*
X-4799000Y-209077040D01*
G75*
G02*
X-4949000Y-208927040I0J150000D01*
G01*
G37*
%TD*%
%TO.C,U6*%
G36*
G01*
X120101000Y-88027040D02*
X120101000Y-87727040D01*
G75*
G02*
X120251000Y-87577040I150000J0D01*
G01*
X121551000Y-87577040D01*
G75*
G02*
X121701000Y-87727040I0J-150000D01*
G01*
X121701000Y-88027040D01*
G75*
G02*
X121551000Y-88177040I-150000J0D01*
G01*
X120251000Y-88177040D01*
G75*
G02*
X120101000Y-88027040I0J150000D01*
G01*
G37*
G36*
G01*
X120101000Y-89297040D02*
X120101000Y-88997040D01*
G75*
G02*
X120251000Y-88847040I150000J0D01*
G01*
X121551000Y-88847040D01*
G75*
G02*
X121701000Y-88997040I0J-150000D01*
G01*
X121701000Y-89297040D01*
G75*
G02*
X121551000Y-89447040I-150000J0D01*
G01*
X120251000Y-89447040D01*
G75*
G02*
X120101000Y-89297040I0J150000D01*
G01*
G37*
G36*
G01*
X120101000Y-90567040D02*
X120101000Y-90267040D01*
G75*
G02*
X120251000Y-90117040I150000J0D01*
G01*
X121551000Y-90117040D01*
G75*
G02*
X121701000Y-90267040I0J-150000D01*
G01*
X121701000Y-90567040D01*
G75*
G02*
X121551000Y-90717040I-150000J0D01*
G01*
X120251000Y-90717040D01*
G75*
G02*
X120101000Y-90567040I0J150000D01*
G01*
G37*
G36*
G01*
X120101000Y-91837040D02*
X120101000Y-91537040D01*
G75*
G02*
X120251000Y-91387040I150000J0D01*
G01*
X121551000Y-91387040D01*
G75*
G02*
X121701000Y-91537040I0J-150000D01*
G01*
X121701000Y-91837040D01*
G75*
G02*
X121551000Y-91987040I-150000J0D01*
G01*
X120251000Y-91987040D01*
G75*
G02*
X120101000Y-91837040I0J150000D01*
G01*
G37*
G36*
G01*
X120101000Y-93107040D02*
X120101000Y-92807040D01*
G75*
G02*
X120251000Y-92657040I150000J0D01*
G01*
X121551000Y-92657040D01*
G75*
G02*
X121701000Y-92807040I0J-150000D01*
G01*
X121701000Y-93107040D01*
G75*
G02*
X121551000Y-93257040I-150000J0D01*
G01*
X120251000Y-93257040D01*
G75*
G02*
X120101000Y-93107040I0J150000D01*
G01*
G37*
G36*
G01*
X120101000Y-94377040D02*
X120101000Y-94077040D01*
G75*
G02*
X120251000Y-93927040I150000J0D01*
G01*
X121551000Y-93927040D01*
G75*
G02*
X121701000Y-94077040I0J-150000D01*
G01*
X121701000Y-94377040D01*
G75*
G02*
X121551000Y-94527040I-150000J0D01*
G01*
X120251000Y-94527040D01*
G75*
G02*
X120101000Y-94377040I0J150000D01*
G01*
G37*
G36*
G01*
X120101000Y-95647040D02*
X120101000Y-95347040D01*
G75*
G02*
X120251000Y-95197040I150000J0D01*
G01*
X121551000Y-95197040D01*
G75*
G02*
X121701000Y-95347040I0J-150000D01*
G01*
X121701000Y-95647040D01*
G75*
G02*
X121551000Y-95797040I-150000J0D01*
G01*
X120251000Y-95797040D01*
G75*
G02*
X120101000Y-95647040I0J150000D01*
G01*
G37*
G36*
G01*
X120101000Y-96917040D02*
X120101000Y-96617040D01*
G75*
G02*
X120251000Y-96467040I150000J0D01*
G01*
X121551000Y-96467040D01*
G75*
G02*
X121701000Y-96617040I0J-150000D01*
G01*
X121701000Y-96917040D01*
G75*
G02*
X121551000Y-97067040I-150000J0D01*
G01*
X120251000Y-97067040D01*
G75*
G02*
X120101000Y-96917040I0J150000D01*
G01*
G37*
G36*
G01*
X113601000Y-96917040D02*
X113601000Y-96617040D01*
G75*
G02*
X113751000Y-96467040I150000J0D01*
G01*
X115051000Y-96467040D01*
G75*
G02*
X115201000Y-96617040I0J-150000D01*
G01*
X115201000Y-96917040D01*
G75*
G02*
X115051000Y-97067040I-150000J0D01*
G01*
X113751000Y-97067040D01*
G75*
G02*
X113601000Y-96917040I0J150000D01*
G01*
G37*
G36*
G01*
X113601000Y-95647040D02*
X113601000Y-95347040D01*
G75*
G02*
X113751000Y-95197040I150000J0D01*
G01*
X115051000Y-95197040D01*
G75*
G02*
X115201000Y-95347040I0J-150000D01*
G01*
X115201000Y-95647040D01*
G75*
G02*
X115051000Y-95797040I-150000J0D01*
G01*
X113751000Y-95797040D01*
G75*
G02*
X113601000Y-95647040I0J150000D01*
G01*
G37*
G36*
G01*
X113601000Y-94377040D02*
X113601000Y-94077040D01*
G75*
G02*
X113751000Y-93927040I150000J0D01*
G01*
X115051000Y-93927040D01*
G75*
G02*
X115201000Y-94077040I0J-150000D01*
G01*
X115201000Y-94377040D01*
G75*
G02*
X115051000Y-94527040I-150000J0D01*
G01*
X113751000Y-94527040D01*
G75*
G02*
X113601000Y-94377040I0J150000D01*
G01*
G37*
G36*
G01*
X113601000Y-93107040D02*
X113601000Y-92807040D01*
G75*
G02*
X113751000Y-92657040I150000J0D01*
G01*
X115051000Y-92657040D01*
G75*
G02*
X115201000Y-92807040I0J-150000D01*
G01*
X115201000Y-93107040D01*
G75*
G02*
X115051000Y-93257040I-150000J0D01*
G01*
X113751000Y-93257040D01*
G75*
G02*
X113601000Y-93107040I0J150000D01*
G01*
G37*
G36*
G01*
X113601000Y-91837040D02*
X113601000Y-91537040D01*
G75*
G02*
X113751000Y-91387040I150000J0D01*
G01*
X115051000Y-91387040D01*
G75*
G02*
X115201000Y-91537040I0J-150000D01*
G01*
X115201000Y-91837040D01*
G75*
G02*
X115051000Y-91987040I-150000J0D01*
G01*
X113751000Y-91987040D01*
G75*
G02*
X113601000Y-91837040I0J150000D01*
G01*
G37*
G36*
G01*
X113601000Y-90567040D02*
X113601000Y-90267040D01*
G75*
G02*
X113751000Y-90117040I150000J0D01*
G01*
X115051000Y-90117040D01*
G75*
G02*
X115201000Y-90267040I0J-150000D01*
G01*
X115201000Y-90567040D01*
G75*
G02*
X115051000Y-90717040I-150000J0D01*
G01*
X113751000Y-90717040D01*
G75*
G02*
X113601000Y-90567040I0J150000D01*
G01*
G37*
G36*
G01*
X113601000Y-89297040D02*
X113601000Y-88997040D01*
G75*
G02*
X113751000Y-88847040I150000J0D01*
G01*
X115051000Y-88847040D01*
G75*
G02*
X115201000Y-88997040I0J-150000D01*
G01*
X115201000Y-89297040D01*
G75*
G02*
X115051000Y-89447040I-150000J0D01*
G01*
X113751000Y-89447040D01*
G75*
G02*
X113601000Y-89297040I0J150000D01*
G01*
G37*
G36*
G01*
X113601000Y-88027040D02*
X113601000Y-87727040D01*
G75*
G02*
X113751000Y-87577040I150000J0D01*
G01*
X115051000Y-87577040D01*
G75*
G02*
X115201000Y-87727040I0J-150000D01*
G01*
X115201000Y-88027040D01*
G75*
G02*
X115051000Y-88177040I-150000J0D01*
G01*
X113751000Y-88177040D01*
G75*
G02*
X113601000Y-88027040I0J150000D01*
G01*
G37*
%TD*%
%TO.C,U5*%
G36*
G01*
X41851000Y-168627040D02*
X41851000Y-168327040D01*
G75*
G02*
X42001000Y-168177040I150000J0D01*
G01*
X43301000Y-168177040D01*
G75*
G02*
X43451000Y-168327040I0J-150000D01*
G01*
X43451000Y-168627040D01*
G75*
G02*
X43301000Y-168777040I-150000J0D01*
G01*
X42001000Y-168777040D01*
G75*
G02*
X41851000Y-168627040I0J150000D01*
G01*
G37*
G36*
G01*
X41851000Y-169897040D02*
X41851000Y-169597040D01*
G75*
G02*
X42001000Y-169447040I150000J0D01*
G01*
X43301000Y-169447040D01*
G75*
G02*
X43451000Y-169597040I0J-150000D01*
G01*
X43451000Y-169897040D01*
G75*
G02*
X43301000Y-170047040I-150000J0D01*
G01*
X42001000Y-170047040D01*
G75*
G02*
X41851000Y-169897040I0J150000D01*
G01*
G37*
G36*
G01*
X41851000Y-171167040D02*
X41851000Y-170867040D01*
G75*
G02*
X42001000Y-170717040I150000J0D01*
G01*
X43301000Y-170717040D01*
G75*
G02*
X43451000Y-170867040I0J-150000D01*
G01*
X43451000Y-171167040D01*
G75*
G02*
X43301000Y-171317040I-150000J0D01*
G01*
X42001000Y-171317040D01*
G75*
G02*
X41851000Y-171167040I0J150000D01*
G01*
G37*
G36*
G01*
X41851000Y-172437040D02*
X41851000Y-172137040D01*
G75*
G02*
X42001000Y-171987040I150000J0D01*
G01*
X43301000Y-171987040D01*
G75*
G02*
X43451000Y-172137040I0J-150000D01*
G01*
X43451000Y-172437040D01*
G75*
G02*
X43301000Y-172587040I-150000J0D01*
G01*
X42001000Y-172587040D01*
G75*
G02*
X41851000Y-172437040I0J150000D01*
G01*
G37*
G36*
G01*
X41851000Y-173707040D02*
X41851000Y-173407040D01*
G75*
G02*
X42001000Y-173257040I150000J0D01*
G01*
X43301000Y-173257040D01*
G75*
G02*
X43451000Y-173407040I0J-150000D01*
G01*
X43451000Y-173707040D01*
G75*
G02*
X43301000Y-173857040I-150000J0D01*
G01*
X42001000Y-173857040D01*
G75*
G02*
X41851000Y-173707040I0J150000D01*
G01*
G37*
G36*
G01*
X41851000Y-174977040D02*
X41851000Y-174677040D01*
G75*
G02*
X42001000Y-174527040I150000J0D01*
G01*
X43301000Y-174527040D01*
G75*
G02*
X43451000Y-174677040I0J-150000D01*
G01*
X43451000Y-174977040D01*
G75*
G02*
X43301000Y-175127040I-150000J0D01*
G01*
X42001000Y-175127040D01*
G75*
G02*
X41851000Y-174977040I0J150000D01*
G01*
G37*
G36*
G01*
X41851000Y-176247040D02*
X41851000Y-175947040D01*
G75*
G02*
X42001000Y-175797040I150000J0D01*
G01*
X43301000Y-175797040D01*
G75*
G02*
X43451000Y-175947040I0J-150000D01*
G01*
X43451000Y-176247040D01*
G75*
G02*
X43301000Y-176397040I-150000J0D01*
G01*
X42001000Y-176397040D01*
G75*
G02*
X41851000Y-176247040I0J150000D01*
G01*
G37*
G36*
G01*
X41851000Y-177517040D02*
X41851000Y-177217040D01*
G75*
G02*
X42001000Y-177067040I150000J0D01*
G01*
X43301000Y-177067040D01*
G75*
G02*
X43451000Y-177217040I0J-150000D01*
G01*
X43451000Y-177517040D01*
G75*
G02*
X43301000Y-177667040I-150000J0D01*
G01*
X42001000Y-177667040D01*
G75*
G02*
X41851000Y-177517040I0J150000D01*
G01*
G37*
G36*
G01*
X35351000Y-177517040D02*
X35351000Y-177217040D01*
G75*
G02*
X35501000Y-177067040I150000J0D01*
G01*
X36801000Y-177067040D01*
G75*
G02*
X36951000Y-177217040I0J-150000D01*
G01*
X36951000Y-177517040D01*
G75*
G02*
X36801000Y-177667040I-150000J0D01*
G01*
X35501000Y-177667040D01*
G75*
G02*
X35351000Y-177517040I0J150000D01*
G01*
G37*
G36*
G01*
X35351000Y-176247040D02*
X35351000Y-175947040D01*
G75*
G02*
X35501000Y-175797040I150000J0D01*
G01*
X36801000Y-175797040D01*
G75*
G02*
X36951000Y-175947040I0J-150000D01*
G01*
X36951000Y-176247040D01*
G75*
G02*
X36801000Y-176397040I-150000J0D01*
G01*
X35501000Y-176397040D01*
G75*
G02*
X35351000Y-176247040I0J150000D01*
G01*
G37*
G36*
G01*
X35351000Y-174977040D02*
X35351000Y-174677040D01*
G75*
G02*
X35501000Y-174527040I150000J0D01*
G01*
X36801000Y-174527040D01*
G75*
G02*
X36951000Y-174677040I0J-150000D01*
G01*
X36951000Y-174977040D01*
G75*
G02*
X36801000Y-175127040I-150000J0D01*
G01*
X35501000Y-175127040D01*
G75*
G02*
X35351000Y-174977040I0J150000D01*
G01*
G37*
G36*
G01*
X35351000Y-173707040D02*
X35351000Y-173407040D01*
G75*
G02*
X35501000Y-173257040I150000J0D01*
G01*
X36801000Y-173257040D01*
G75*
G02*
X36951000Y-173407040I0J-150000D01*
G01*
X36951000Y-173707040D01*
G75*
G02*
X36801000Y-173857040I-150000J0D01*
G01*
X35501000Y-173857040D01*
G75*
G02*
X35351000Y-173707040I0J150000D01*
G01*
G37*
G36*
G01*
X35351000Y-172437040D02*
X35351000Y-172137040D01*
G75*
G02*
X35501000Y-171987040I150000J0D01*
G01*
X36801000Y-171987040D01*
G75*
G02*
X36951000Y-172137040I0J-150000D01*
G01*
X36951000Y-172437040D01*
G75*
G02*
X36801000Y-172587040I-150000J0D01*
G01*
X35501000Y-172587040D01*
G75*
G02*
X35351000Y-172437040I0J150000D01*
G01*
G37*
G36*
G01*
X35351000Y-171167040D02*
X35351000Y-170867040D01*
G75*
G02*
X35501000Y-170717040I150000J0D01*
G01*
X36801000Y-170717040D01*
G75*
G02*
X36951000Y-170867040I0J-150000D01*
G01*
X36951000Y-171167040D01*
G75*
G02*
X36801000Y-171317040I-150000J0D01*
G01*
X35501000Y-171317040D01*
G75*
G02*
X35351000Y-171167040I0J150000D01*
G01*
G37*
G36*
G01*
X35351000Y-169897040D02*
X35351000Y-169597040D01*
G75*
G02*
X35501000Y-169447040I150000J0D01*
G01*
X36801000Y-169447040D01*
G75*
G02*
X36951000Y-169597040I0J-150000D01*
G01*
X36951000Y-169897040D01*
G75*
G02*
X36801000Y-170047040I-150000J0D01*
G01*
X35501000Y-170047040D01*
G75*
G02*
X35351000Y-169897040I0J150000D01*
G01*
G37*
G36*
G01*
X35351000Y-168627040D02*
X35351000Y-168327040D01*
G75*
G02*
X35501000Y-168177040I150000J0D01*
G01*
X36801000Y-168177040D01*
G75*
G02*
X36951000Y-168327040I0J-150000D01*
G01*
X36951000Y-168627040D01*
G75*
G02*
X36801000Y-168777040I-150000J0D01*
G01*
X35501000Y-168777040D01*
G75*
G02*
X35351000Y-168627040I0J150000D01*
G01*
G37*
%TD*%
%TO.C,U4*%
G36*
G01*
X62001000Y-148477040D02*
X62001000Y-148177040D01*
G75*
G02*
X62151000Y-148027040I150000J0D01*
G01*
X63451000Y-148027040D01*
G75*
G02*
X63601000Y-148177040I0J-150000D01*
G01*
X63601000Y-148477040D01*
G75*
G02*
X63451000Y-148627040I-150000J0D01*
G01*
X62151000Y-148627040D01*
G75*
G02*
X62001000Y-148477040I0J150000D01*
G01*
G37*
G36*
G01*
X62001000Y-149747040D02*
X62001000Y-149447040D01*
G75*
G02*
X62151000Y-149297040I150000J0D01*
G01*
X63451000Y-149297040D01*
G75*
G02*
X63601000Y-149447040I0J-150000D01*
G01*
X63601000Y-149747040D01*
G75*
G02*
X63451000Y-149897040I-150000J0D01*
G01*
X62151000Y-149897040D01*
G75*
G02*
X62001000Y-149747040I0J150000D01*
G01*
G37*
G36*
G01*
X62001000Y-151017040D02*
X62001000Y-150717040D01*
G75*
G02*
X62151000Y-150567040I150000J0D01*
G01*
X63451000Y-150567040D01*
G75*
G02*
X63601000Y-150717040I0J-150000D01*
G01*
X63601000Y-151017040D01*
G75*
G02*
X63451000Y-151167040I-150000J0D01*
G01*
X62151000Y-151167040D01*
G75*
G02*
X62001000Y-151017040I0J150000D01*
G01*
G37*
G36*
G01*
X62001000Y-152287040D02*
X62001000Y-151987040D01*
G75*
G02*
X62151000Y-151837040I150000J0D01*
G01*
X63451000Y-151837040D01*
G75*
G02*
X63601000Y-151987040I0J-150000D01*
G01*
X63601000Y-152287040D01*
G75*
G02*
X63451000Y-152437040I-150000J0D01*
G01*
X62151000Y-152437040D01*
G75*
G02*
X62001000Y-152287040I0J150000D01*
G01*
G37*
G36*
G01*
X62001000Y-153557040D02*
X62001000Y-153257040D01*
G75*
G02*
X62151000Y-153107040I150000J0D01*
G01*
X63451000Y-153107040D01*
G75*
G02*
X63601000Y-153257040I0J-150000D01*
G01*
X63601000Y-153557040D01*
G75*
G02*
X63451000Y-153707040I-150000J0D01*
G01*
X62151000Y-153707040D01*
G75*
G02*
X62001000Y-153557040I0J150000D01*
G01*
G37*
G36*
G01*
X62001000Y-154827040D02*
X62001000Y-154527040D01*
G75*
G02*
X62151000Y-154377040I150000J0D01*
G01*
X63451000Y-154377040D01*
G75*
G02*
X63601000Y-154527040I0J-150000D01*
G01*
X63601000Y-154827040D01*
G75*
G02*
X63451000Y-154977040I-150000J0D01*
G01*
X62151000Y-154977040D01*
G75*
G02*
X62001000Y-154827040I0J150000D01*
G01*
G37*
G36*
G01*
X62001000Y-156097040D02*
X62001000Y-155797040D01*
G75*
G02*
X62151000Y-155647040I150000J0D01*
G01*
X63451000Y-155647040D01*
G75*
G02*
X63601000Y-155797040I0J-150000D01*
G01*
X63601000Y-156097040D01*
G75*
G02*
X63451000Y-156247040I-150000J0D01*
G01*
X62151000Y-156247040D01*
G75*
G02*
X62001000Y-156097040I0J150000D01*
G01*
G37*
G36*
G01*
X62001000Y-157367040D02*
X62001000Y-157067040D01*
G75*
G02*
X62151000Y-156917040I150000J0D01*
G01*
X63451000Y-156917040D01*
G75*
G02*
X63601000Y-157067040I0J-150000D01*
G01*
X63601000Y-157367040D01*
G75*
G02*
X63451000Y-157517040I-150000J0D01*
G01*
X62151000Y-157517040D01*
G75*
G02*
X62001000Y-157367040I0J150000D01*
G01*
G37*
G36*
G01*
X55501000Y-157367040D02*
X55501000Y-157067040D01*
G75*
G02*
X55651000Y-156917040I150000J0D01*
G01*
X56951000Y-156917040D01*
G75*
G02*
X57101000Y-157067040I0J-150000D01*
G01*
X57101000Y-157367040D01*
G75*
G02*
X56951000Y-157517040I-150000J0D01*
G01*
X55651000Y-157517040D01*
G75*
G02*
X55501000Y-157367040I0J150000D01*
G01*
G37*
G36*
G01*
X55501000Y-156097040D02*
X55501000Y-155797040D01*
G75*
G02*
X55651000Y-155647040I150000J0D01*
G01*
X56951000Y-155647040D01*
G75*
G02*
X57101000Y-155797040I0J-150000D01*
G01*
X57101000Y-156097040D01*
G75*
G02*
X56951000Y-156247040I-150000J0D01*
G01*
X55651000Y-156247040D01*
G75*
G02*
X55501000Y-156097040I0J150000D01*
G01*
G37*
G36*
G01*
X55501000Y-154827040D02*
X55501000Y-154527040D01*
G75*
G02*
X55651000Y-154377040I150000J0D01*
G01*
X56951000Y-154377040D01*
G75*
G02*
X57101000Y-154527040I0J-150000D01*
G01*
X57101000Y-154827040D01*
G75*
G02*
X56951000Y-154977040I-150000J0D01*
G01*
X55651000Y-154977040D01*
G75*
G02*
X55501000Y-154827040I0J150000D01*
G01*
G37*
G36*
G01*
X55501000Y-153557040D02*
X55501000Y-153257040D01*
G75*
G02*
X55651000Y-153107040I150000J0D01*
G01*
X56951000Y-153107040D01*
G75*
G02*
X57101000Y-153257040I0J-150000D01*
G01*
X57101000Y-153557040D01*
G75*
G02*
X56951000Y-153707040I-150000J0D01*
G01*
X55651000Y-153707040D01*
G75*
G02*
X55501000Y-153557040I0J150000D01*
G01*
G37*
G36*
G01*
X55501000Y-152287040D02*
X55501000Y-151987040D01*
G75*
G02*
X55651000Y-151837040I150000J0D01*
G01*
X56951000Y-151837040D01*
G75*
G02*
X57101000Y-151987040I0J-150000D01*
G01*
X57101000Y-152287040D01*
G75*
G02*
X56951000Y-152437040I-150000J0D01*
G01*
X55651000Y-152437040D01*
G75*
G02*
X55501000Y-152287040I0J150000D01*
G01*
G37*
G36*
G01*
X55501000Y-151017040D02*
X55501000Y-150717040D01*
G75*
G02*
X55651000Y-150567040I150000J0D01*
G01*
X56951000Y-150567040D01*
G75*
G02*
X57101000Y-150717040I0J-150000D01*
G01*
X57101000Y-151017040D01*
G75*
G02*
X56951000Y-151167040I-150000J0D01*
G01*
X55651000Y-151167040D01*
G75*
G02*
X55501000Y-151017040I0J150000D01*
G01*
G37*
G36*
G01*
X55501000Y-149747040D02*
X55501000Y-149447040D01*
G75*
G02*
X55651000Y-149297040I150000J0D01*
G01*
X56951000Y-149297040D01*
G75*
G02*
X57101000Y-149447040I0J-150000D01*
G01*
X57101000Y-149747040D01*
G75*
G02*
X56951000Y-149897040I-150000J0D01*
G01*
X55651000Y-149897040D01*
G75*
G02*
X55501000Y-149747040I0J150000D01*
G01*
G37*
G36*
G01*
X55501000Y-148477040D02*
X55501000Y-148177040D01*
G75*
G02*
X55651000Y-148027040I150000J0D01*
G01*
X56951000Y-148027040D01*
G75*
G02*
X57101000Y-148177040I0J-150000D01*
G01*
X57101000Y-148477040D01*
G75*
G02*
X56951000Y-148627040I-150000J0D01*
G01*
X55651000Y-148627040D01*
G75*
G02*
X55501000Y-148477040I0J150000D01*
G01*
G37*
%TD*%
%TO.C,U3*%
G36*
G01*
X111951000Y-100277040D02*
X111951000Y-99977040D01*
G75*
G02*
X112101000Y-99827040I150000J0D01*
G01*
X113401000Y-99827040D01*
G75*
G02*
X113551000Y-99977040I0J-150000D01*
G01*
X113551000Y-100277040D01*
G75*
G02*
X113401000Y-100427040I-150000J0D01*
G01*
X112101000Y-100427040D01*
G75*
G02*
X111951000Y-100277040I0J150000D01*
G01*
G37*
G36*
G01*
X111951000Y-101547040D02*
X111951000Y-101247040D01*
G75*
G02*
X112101000Y-101097040I150000J0D01*
G01*
X113401000Y-101097040D01*
G75*
G02*
X113551000Y-101247040I0J-150000D01*
G01*
X113551000Y-101547040D01*
G75*
G02*
X113401000Y-101697040I-150000J0D01*
G01*
X112101000Y-101697040D01*
G75*
G02*
X111951000Y-101547040I0J150000D01*
G01*
G37*
G36*
G01*
X111951000Y-102817040D02*
X111951000Y-102517040D01*
G75*
G02*
X112101000Y-102367040I150000J0D01*
G01*
X113401000Y-102367040D01*
G75*
G02*
X113551000Y-102517040I0J-150000D01*
G01*
X113551000Y-102817040D01*
G75*
G02*
X113401000Y-102967040I-150000J0D01*
G01*
X112101000Y-102967040D01*
G75*
G02*
X111951000Y-102817040I0J150000D01*
G01*
G37*
G36*
G01*
X111951000Y-104087040D02*
X111951000Y-103787040D01*
G75*
G02*
X112101000Y-103637040I150000J0D01*
G01*
X113401000Y-103637040D01*
G75*
G02*
X113551000Y-103787040I0J-150000D01*
G01*
X113551000Y-104087040D01*
G75*
G02*
X113401000Y-104237040I-150000J0D01*
G01*
X112101000Y-104237040D01*
G75*
G02*
X111951000Y-104087040I0J150000D01*
G01*
G37*
G36*
G01*
X111951000Y-105357040D02*
X111951000Y-105057040D01*
G75*
G02*
X112101000Y-104907040I150000J0D01*
G01*
X113401000Y-104907040D01*
G75*
G02*
X113551000Y-105057040I0J-150000D01*
G01*
X113551000Y-105357040D01*
G75*
G02*
X113401000Y-105507040I-150000J0D01*
G01*
X112101000Y-105507040D01*
G75*
G02*
X111951000Y-105357040I0J150000D01*
G01*
G37*
G36*
G01*
X111951000Y-106627040D02*
X111951000Y-106327040D01*
G75*
G02*
X112101000Y-106177040I150000J0D01*
G01*
X113401000Y-106177040D01*
G75*
G02*
X113551000Y-106327040I0J-150000D01*
G01*
X113551000Y-106627040D01*
G75*
G02*
X113401000Y-106777040I-150000J0D01*
G01*
X112101000Y-106777040D01*
G75*
G02*
X111951000Y-106627040I0J150000D01*
G01*
G37*
G36*
G01*
X111951000Y-107897040D02*
X111951000Y-107597040D01*
G75*
G02*
X112101000Y-107447040I150000J0D01*
G01*
X113401000Y-107447040D01*
G75*
G02*
X113551000Y-107597040I0J-150000D01*
G01*
X113551000Y-107897040D01*
G75*
G02*
X113401000Y-108047040I-150000J0D01*
G01*
X112101000Y-108047040D01*
G75*
G02*
X111951000Y-107897040I0J150000D01*
G01*
G37*
G36*
G01*
X111951000Y-109167040D02*
X111951000Y-108867040D01*
G75*
G02*
X112101000Y-108717040I150000J0D01*
G01*
X113401000Y-108717040D01*
G75*
G02*
X113551000Y-108867040I0J-150000D01*
G01*
X113551000Y-109167040D01*
G75*
G02*
X113401000Y-109317040I-150000J0D01*
G01*
X112101000Y-109317040D01*
G75*
G02*
X111951000Y-109167040I0J150000D01*
G01*
G37*
G36*
G01*
X105451000Y-109167040D02*
X105451000Y-108867040D01*
G75*
G02*
X105601000Y-108717040I150000J0D01*
G01*
X106901000Y-108717040D01*
G75*
G02*
X107051000Y-108867040I0J-150000D01*
G01*
X107051000Y-109167040D01*
G75*
G02*
X106901000Y-109317040I-150000J0D01*
G01*
X105601000Y-109317040D01*
G75*
G02*
X105451000Y-109167040I0J150000D01*
G01*
G37*
G36*
G01*
X105451000Y-107897040D02*
X105451000Y-107597040D01*
G75*
G02*
X105601000Y-107447040I150000J0D01*
G01*
X106901000Y-107447040D01*
G75*
G02*
X107051000Y-107597040I0J-150000D01*
G01*
X107051000Y-107897040D01*
G75*
G02*
X106901000Y-108047040I-150000J0D01*
G01*
X105601000Y-108047040D01*
G75*
G02*
X105451000Y-107897040I0J150000D01*
G01*
G37*
G36*
G01*
X105451000Y-106627040D02*
X105451000Y-106327040D01*
G75*
G02*
X105601000Y-106177040I150000J0D01*
G01*
X106901000Y-106177040D01*
G75*
G02*
X107051000Y-106327040I0J-150000D01*
G01*
X107051000Y-106627040D01*
G75*
G02*
X106901000Y-106777040I-150000J0D01*
G01*
X105601000Y-106777040D01*
G75*
G02*
X105451000Y-106627040I0J150000D01*
G01*
G37*
G36*
G01*
X105451000Y-105357040D02*
X105451000Y-105057040D01*
G75*
G02*
X105601000Y-104907040I150000J0D01*
G01*
X106901000Y-104907040D01*
G75*
G02*
X107051000Y-105057040I0J-150000D01*
G01*
X107051000Y-105357040D01*
G75*
G02*
X106901000Y-105507040I-150000J0D01*
G01*
X105601000Y-105507040D01*
G75*
G02*
X105451000Y-105357040I0J150000D01*
G01*
G37*
G36*
G01*
X105451000Y-104087040D02*
X105451000Y-103787040D01*
G75*
G02*
X105601000Y-103637040I150000J0D01*
G01*
X106901000Y-103637040D01*
G75*
G02*
X107051000Y-103787040I0J-150000D01*
G01*
X107051000Y-104087040D01*
G75*
G02*
X106901000Y-104237040I-150000J0D01*
G01*
X105601000Y-104237040D01*
G75*
G02*
X105451000Y-104087040I0J150000D01*
G01*
G37*
G36*
G01*
X105451000Y-102817040D02*
X105451000Y-102517040D01*
G75*
G02*
X105601000Y-102367040I150000J0D01*
G01*
X106901000Y-102367040D01*
G75*
G02*
X107051000Y-102517040I0J-150000D01*
G01*
X107051000Y-102817040D01*
G75*
G02*
X106901000Y-102967040I-150000J0D01*
G01*
X105601000Y-102967040D01*
G75*
G02*
X105451000Y-102817040I0J150000D01*
G01*
G37*
G36*
G01*
X105451000Y-101547040D02*
X105451000Y-101247040D01*
G75*
G02*
X105601000Y-101097040I150000J0D01*
G01*
X106901000Y-101097040D01*
G75*
G02*
X107051000Y-101247040I0J-150000D01*
G01*
X107051000Y-101547040D01*
G75*
G02*
X106901000Y-101697040I-150000J0D01*
G01*
X105601000Y-101697040D01*
G75*
G02*
X105451000Y-101547040I0J150000D01*
G01*
G37*
G36*
G01*
X105451000Y-100277040D02*
X105451000Y-99977040D01*
G75*
G02*
X105601000Y-99827040I150000J0D01*
G01*
X106901000Y-99827040D01*
G75*
G02*
X107051000Y-99977040I0J-150000D01*
G01*
X107051000Y-100277040D01*
G75*
G02*
X106901000Y-100427040I-150000J0D01*
G01*
X105601000Y-100427040D01*
G75*
G02*
X105451000Y-100277040I0J150000D01*
G01*
G37*
%TD*%
%TO.C,U2*%
G36*
G01*
X91801000Y-124227040D02*
X91801000Y-123927040D01*
G75*
G02*
X91951000Y-123777040I150000J0D01*
G01*
X93251000Y-123777040D01*
G75*
G02*
X93401000Y-123927040I0J-150000D01*
G01*
X93401000Y-124227040D01*
G75*
G02*
X93251000Y-124377040I-150000J0D01*
G01*
X91951000Y-124377040D01*
G75*
G02*
X91801000Y-124227040I0J150000D01*
G01*
G37*
G36*
G01*
X91801000Y-125497040D02*
X91801000Y-125197040D01*
G75*
G02*
X91951000Y-125047040I150000J0D01*
G01*
X93251000Y-125047040D01*
G75*
G02*
X93401000Y-125197040I0J-150000D01*
G01*
X93401000Y-125497040D01*
G75*
G02*
X93251000Y-125647040I-150000J0D01*
G01*
X91951000Y-125647040D01*
G75*
G02*
X91801000Y-125497040I0J150000D01*
G01*
G37*
G36*
G01*
X91801000Y-126767040D02*
X91801000Y-126467040D01*
G75*
G02*
X91951000Y-126317040I150000J0D01*
G01*
X93251000Y-126317040D01*
G75*
G02*
X93401000Y-126467040I0J-150000D01*
G01*
X93401000Y-126767040D01*
G75*
G02*
X93251000Y-126917040I-150000J0D01*
G01*
X91951000Y-126917040D01*
G75*
G02*
X91801000Y-126767040I0J150000D01*
G01*
G37*
G36*
G01*
X91801000Y-128037040D02*
X91801000Y-127737040D01*
G75*
G02*
X91951000Y-127587040I150000J0D01*
G01*
X93251000Y-127587040D01*
G75*
G02*
X93401000Y-127737040I0J-150000D01*
G01*
X93401000Y-128037040D01*
G75*
G02*
X93251000Y-128187040I-150000J0D01*
G01*
X91951000Y-128187040D01*
G75*
G02*
X91801000Y-128037040I0J150000D01*
G01*
G37*
G36*
G01*
X91801000Y-129307040D02*
X91801000Y-129007040D01*
G75*
G02*
X91951000Y-128857040I150000J0D01*
G01*
X93251000Y-128857040D01*
G75*
G02*
X93401000Y-129007040I0J-150000D01*
G01*
X93401000Y-129307040D01*
G75*
G02*
X93251000Y-129457040I-150000J0D01*
G01*
X91951000Y-129457040D01*
G75*
G02*
X91801000Y-129307040I0J150000D01*
G01*
G37*
G36*
G01*
X91801000Y-130577040D02*
X91801000Y-130277040D01*
G75*
G02*
X91951000Y-130127040I150000J0D01*
G01*
X93251000Y-130127040D01*
G75*
G02*
X93401000Y-130277040I0J-150000D01*
G01*
X93401000Y-130577040D01*
G75*
G02*
X93251000Y-130727040I-150000J0D01*
G01*
X91951000Y-130727040D01*
G75*
G02*
X91801000Y-130577040I0J150000D01*
G01*
G37*
G36*
G01*
X91801000Y-131847040D02*
X91801000Y-131547040D01*
G75*
G02*
X91951000Y-131397040I150000J0D01*
G01*
X93251000Y-131397040D01*
G75*
G02*
X93401000Y-131547040I0J-150000D01*
G01*
X93401000Y-131847040D01*
G75*
G02*
X93251000Y-131997040I-150000J0D01*
G01*
X91951000Y-131997040D01*
G75*
G02*
X91801000Y-131847040I0J150000D01*
G01*
G37*
G36*
G01*
X91801000Y-133117040D02*
X91801000Y-132817040D01*
G75*
G02*
X91951000Y-132667040I150000J0D01*
G01*
X93251000Y-132667040D01*
G75*
G02*
X93401000Y-132817040I0J-150000D01*
G01*
X93401000Y-133117040D01*
G75*
G02*
X93251000Y-133267040I-150000J0D01*
G01*
X91951000Y-133267040D01*
G75*
G02*
X91801000Y-133117040I0J150000D01*
G01*
G37*
G36*
G01*
X85301000Y-133117040D02*
X85301000Y-132817040D01*
G75*
G02*
X85451000Y-132667040I150000J0D01*
G01*
X86751000Y-132667040D01*
G75*
G02*
X86901000Y-132817040I0J-150000D01*
G01*
X86901000Y-133117040D01*
G75*
G02*
X86751000Y-133267040I-150000J0D01*
G01*
X85451000Y-133267040D01*
G75*
G02*
X85301000Y-133117040I0J150000D01*
G01*
G37*
G36*
G01*
X85301000Y-131847040D02*
X85301000Y-131547040D01*
G75*
G02*
X85451000Y-131397040I150000J0D01*
G01*
X86751000Y-131397040D01*
G75*
G02*
X86901000Y-131547040I0J-150000D01*
G01*
X86901000Y-131847040D01*
G75*
G02*
X86751000Y-131997040I-150000J0D01*
G01*
X85451000Y-131997040D01*
G75*
G02*
X85301000Y-131847040I0J150000D01*
G01*
G37*
G36*
G01*
X85301000Y-130577040D02*
X85301000Y-130277040D01*
G75*
G02*
X85451000Y-130127040I150000J0D01*
G01*
X86751000Y-130127040D01*
G75*
G02*
X86901000Y-130277040I0J-150000D01*
G01*
X86901000Y-130577040D01*
G75*
G02*
X86751000Y-130727040I-150000J0D01*
G01*
X85451000Y-130727040D01*
G75*
G02*
X85301000Y-130577040I0J150000D01*
G01*
G37*
G36*
G01*
X85301000Y-129307040D02*
X85301000Y-129007040D01*
G75*
G02*
X85451000Y-128857040I150000J0D01*
G01*
X86751000Y-128857040D01*
G75*
G02*
X86901000Y-129007040I0J-150000D01*
G01*
X86901000Y-129307040D01*
G75*
G02*
X86751000Y-129457040I-150000J0D01*
G01*
X85451000Y-129457040D01*
G75*
G02*
X85301000Y-129307040I0J150000D01*
G01*
G37*
G36*
G01*
X85301000Y-128037040D02*
X85301000Y-127737040D01*
G75*
G02*
X85451000Y-127587040I150000J0D01*
G01*
X86751000Y-127587040D01*
G75*
G02*
X86901000Y-127737040I0J-150000D01*
G01*
X86901000Y-128037040D01*
G75*
G02*
X86751000Y-128187040I-150000J0D01*
G01*
X85451000Y-128187040D01*
G75*
G02*
X85301000Y-128037040I0J150000D01*
G01*
G37*
G36*
G01*
X85301000Y-126767040D02*
X85301000Y-126467040D01*
G75*
G02*
X85451000Y-126317040I150000J0D01*
G01*
X86751000Y-126317040D01*
G75*
G02*
X86901000Y-126467040I0J-150000D01*
G01*
X86901000Y-126767040D01*
G75*
G02*
X86751000Y-126917040I-150000J0D01*
G01*
X85451000Y-126917040D01*
G75*
G02*
X85301000Y-126767040I0J150000D01*
G01*
G37*
G36*
G01*
X85301000Y-125497040D02*
X85301000Y-125197040D01*
G75*
G02*
X85451000Y-125047040I150000J0D01*
G01*
X86751000Y-125047040D01*
G75*
G02*
X86901000Y-125197040I0J-150000D01*
G01*
X86901000Y-125497040D01*
G75*
G02*
X86751000Y-125647040I-150000J0D01*
G01*
X85451000Y-125647040D01*
G75*
G02*
X85301000Y-125497040I0J150000D01*
G01*
G37*
G36*
G01*
X85301000Y-124227040D02*
X85301000Y-123927040D01*
G75*
G02*
X85451000Y-123777040I150000J0D01*
G01*
X86751000Y-123777040D01*
G75*
G02*
X86901000Y-123927040I0J-150000D01*
G01*
X86901000Y-124227040D01*
G75*
G02*
X86751000Y-124377040I-150000J0D01*
G01*
X85451000Y-124377040D01*
G75*
G02*
X85301000Y-124227040I0J150000D01*
G01*
G37*
%TD*%
%TO.C,U1*%
G36*
G01*
X21701000Y-188777040D02*
X21701000Y-188477040D01*
G75*
G02*
X21851000Y-188327040I150000J0D01*
G01*
X23151000Y-188327040D01*
G75*
G02*
X23301000Y-188477040I0J-150000D01*
G01*
X23301000Y-188777040D01*
G75*
G02*
X23151000Y-188927040I-150000J0D01*
G01*
X21851000Y-188927040D01*
G75*
G02*
X21701000Y-188777040I0J150000D01*
G01*
G37*
G36*
G01*
X21701000Y-190047040D02*
X21701000Y-189747040D01*
G75*
G02*
X21851000Y-189597040I150000J0D01*
G01*
X23151000Y-189597040D01*
G75*
G02*
X23301000Y-189747040I0J-150000D01*
G01*
X23301000Y-190047040D01*
G75*
G02*
X23151000Y-190197040I-150000J0D01*
G01*
X21851000Y-190197040D01*
G75*
G02*
X21701000Y-190047040I0J150000D01*
G01*
G37*
G36*
G01*
X21701000Y-191317040D02*
X21701000Y-191017040D01*
G75*
G02*
X21851000Y-190867040I150000J0D01*
G01*
X23151000Y-190867040D01*
G75*
G02*
X23301000Y-191017040I0J-150000D01*
G01*
X23301000Y-191317040D01*
G75*
G02*
X23151000Y-191467040I-150000J0D01*
G01*
X21851000Y-191467040D01*
G75*
G02*
X21701000Y-191317040I0J150000D01*
G01*
G37*
G36*
G01*
X21701000Y-192587040D02*
X21701000Y-192287040D01*
G75*
G02*
X21851000Y-192137040I150000J0D01*
G01*
X23151000Y-192137040D01*
G75*
G02*
X23301000Y-192287040I0J-150000D01*
G01*
X23301000Y-192587040D01*
G75*
G02*
X23151000Y-192737040I-150000J0D01*
G01*
X21851000Y-192737040D01*
G75*
G02*
X21701000Y-192587040I0J150000D01*
G01*
G37*
G36*
G01*
X21701000Y-193857040D02*
X21701000Y-193557040D01*
G75*
G02*
X21851000Y-193407040I150000J0D01*
G01*
X23151000Y-193407040D01*
G75*
G02*
X23301000Y-193557040I0J-150000D01*
G01*
X23301000Y-193857040D01*
G75*
G02*
X23151000Y-194007040I-150000J0D01*
G01*
X21851000Y-194007040D01*
G75*
G02*
X21701000Y-193857040I0J150000D01*
G01*
G37*
G36*
G01*
X21701000Y-195127040D02*
X21701000Y-194827040D01*
G75*
G02*
X21851000Y-194677040I150000J0D01*
G01*
X23151000Y-194677040D01*
G75*
G02*
X23301000Y-194827040I0J-150000D01*
G01*
X23301000Y-195127040D01*
G75*
G02*
X23151000Y-195277040I-150000J0D01*
G01*
X21851000Y-195277040D01*
G75*
G02*
X21701000Y-195127040I0J150000D01*
G01*
G37*
G36*
G01*
X21701000Y-196397040D02*
X21701000Y-196097040D01*
G75*
G02*
X21851000Y-195947040I150000J0D01*
G01*
X23151000Y-195947040D01*
G75*
G02*
X23301000Y-196097040I0J-150000D01*
G01*
X23301000Y-196397040D01*
G75*
G02*
X23151000Y-196547040I-150000J0D01*
G01*
X21851000Y-196547040D01*
G75*
G02*
X21701000Y-196397040I0J150000D01*
G01*
G37*
G36*
G01*
X21701000Y-197667040D02*
X21701000Y-197367040D01*
G75*
G02*
X21851000Y-197217040I150000J0D01*
G01*
X23151000Y-197217040D01*
G75*
G02*
X23301000Y-197367040I0J-150000D01*
G01*
X23301000Y-197667040D01*
G75*
G02*
X23151000Y-197817040I-150000J0D01*
G01*
X21851000Y-197817040D01*
G75*
G02*
X21701000Y-197667040I0J150000D01*
G01*
G37*
G36*
G01*
X15201000Y-197667040D02*
X15201000Y-197367040D01*
G75*
G02*
X15351000Y-197217040I150000J0D01*
G01*
X16651000Y-197217040D01*
G75*
G02*
X16801000Y-197367040I0J-150000D01*
G01*
X16801000Y-197667040D01*
G75*
G02*
X16651000Y-197817040I-150000J0D01*
G01*
X15351000Y-197817040D01*
G75*
G02*
X15201000Y-197667040I0J150000D01*
G01*
G37*
G36*
G01*
X15201000Y-196397040D02*
X15201000Y-196097040D01*
G75*
G02*
X15351000Y-195947040I150000J0D01*
G01*
X16651000Y-195947040D01*
G75*
G02*
X16801000Y-196097040I0J-150000D01*
G01*
X16801000Y-196397040D01*
G75*
G02*
X16651000Y-196547040I-150000J0D01*
G01*
X15351000Y-196547040D01*
G75*
G02*
X15201000Y-196397040I0J150000D01*
G01*
G37*
G36*
G01*
X15201000Y-195127040D02*
X15201000Y-194827040D01*
G75*
G02*
X15351000Y-194677040I150000J0D01*
G01*
X16651000Y-194677040D01*
G75*
G02*
X16801000Y-194827040I0J-150000D01*
G01*
X16801000Y-195127040D01*
G75*
G02*
X16651000Y-195277040I-150000J0D01*
G01*
X15351000Y-195277040D01*
G75*
G02*
X15201000Y-195127040I0J150000D01*
G01*
G37*
G36*
G01*
X15201000Y-193857040D02*
X15201000Y-193557040D01*
G75*
G02*
X15351000Y-193407040I150000J0D01*
G01*
X16651000Y-193407040D01*
G75*
G02*
X16801000Y-193557040I0J-150000D01*
G01*
X16801000Y-193857040D01*
G75*
G02*
X16651000Y-194007040I-150000J0D01*
G01*
X15351000Y-194007040D01*
G75*
G02*
X15201000Y-193857040I0J150000D01*
G01*
G37*
G36*
G01*
X15201000Y-192587040D02*
X15201000Y-192287040D01*
G75*
G02*
X15351000Y-192137040I150000J0D01*
G01*
X16651000Y-192137040D01*
G75*
G02*
X16801000Y-192287040I0J-150000D01*
G01*
X16801000Y-192587040D01*
G75*
G02*
X16651000Y-192737040I-150000J0D01*
G01*
X15351000Y-192737040D01*
G75*
G02*
X15201000Y-192587040I0J150000D01*
G01*
G37*
G36*
G01*
X15201000Y-191317040D02*
X15201000Y-191017040D01*
G75*
G02*
X15351000Y-190867040I150000J0D01*
G01*
X16651000Y-190867040D01*
G75*
G02*
X16801000Y-191017040I0J-150000D01*
G01*
X16801000Y-191317040D01*
G75*
G02*
X16651000Y-191467040I-150000J0D01*
G01*
X15351000Y-191467040D01*
G75*
G02*
X15201000Y-191317040I0J150000D01*
G01*
G37*
G36*
G01*
X15201000Y-190047040D02*
X15201000Y-189747040D01*
G75*
G02*
X15351000Y-189597040I150000J0D01*
G01*
X16651000Y-189597040D01*
G75*
G02*
X16801000Y-189747040I0J-150000D01*
G01*
X16801000Y-190047040D01*
G75*
G02*
X16651000Y-190197040I-150000J0D01*
G01*
X15351000Y-190197040D01*
G75*
G02*
X15201000Y-190047040I0J150000D01*
G01*
G37*
G36*
G01*
X15201000Y-188777040D02*
X15201000Y-188477040D01*
G75*
G02*
X15351000Y-188327040I150000J0D01*
G01*
X16651000Y-188327040D01*
G75*
G02*
X16801000Y-188477040I0J-150000D01*
G01*
X16801000Y-188777040D01*
G75*
G02*
X16651000Y-188927040I-150000J0D01*
G01*
X15351000Y-188927040D01*
G75*
G02*
X15201000Y-188777040I0J150000D01*
G01*
G37*
%TD*%
D10*
%TO.C,RN22*%
X-163949000Y-251172040D03*
D11*
X-163949000Y-250372040D03*
D10*
X-163949000Y-248772040D03*
D11*
X-163949000Y-249572040D03*
D10*
X-165749000Y-251172040D03*
D11*
X-165749000Y-249572040D03*
X-165749000Y-250372040D03*
D10*
X-165749000Y-248772040D03*
%TD*%
%TO.C,RN21*%
X-151499000Y-251172040D03*
D11*
X-151499000Y-250372040D03*
D10*
X-151499000Y-248772040D03*
D11*
X-151499000Y-249572040D03*
D10*
X-153299000Y-251172040D03*
D11*
X-153299000Y-249572040D03*
X-153299000Y-250372040D03*
D10*
X-153299000Y-248772040D03*
%TD*%
%TO.C,RN20*%
X-122449000Y-251172040D03*
D11*
X-122449000Y-250372040D03*
D10*
X-122449000Y-248772040D03*
D11*
X-122449000Y-249572040D03*
D10*
X-124249000Y-251172040D03*
D11*
X-124249000Y-249572040D03*
X-124249000Y-250372040D03*
D10*
X-124249000Y-248772040D03*
%TD*%
%TO.C,RN19*%
X-114149000Y-251172040D03*
D11*
X-114149000Y-250372040D03*
D10*
X-114149000Y-248772040D03*
D11*
X-114149000Y-249572040D03*
D10*
X-115949000Y-251172040D03*
D11*
X-115949000Y-249572040D03*
X-115949000Y-250372040D03*
D10*
X-115949000Y-248772040D03*
%TD*%
%TO.C,RN18*%
X-109999000Y-251172040D03*
D11*
X-109999000Y-250372040D03*
D10*
X-109999000Y-248772040D03*
D11*
X-109999000Y-249572040D03*
D10*
X-111799000Y-251172040D03*
D11*
X-111799000Y-249572040D03*
X-111799000Y-250372040D03*
D10*
X-111799000Y-248772040D03*
%TD*%
%TO.C,RN17*%
X-155649000Y-251172040D03*
D11*
X-155649000Y-250372040D03*
D10*
X-155649000Y-248772040D03*
D11*
X-155649000Y-249572040D03*
D10*
X-157449000Y-251172040D03*
D11*
X-157449000Y-249572040D03*
X-157449000Y-250372040D03*
D10*
X-157449000Y-248772040D03*
%TD*%
%TO.C,RN16*%
X-147349000Y-251172040D03*
D11*
X-147349000Y-250372040D03*
D10*
X-147349000Y-248772040D03*
D11*
X-147349000Y-249572040D03*
D10*
X-149149000Y-251172040D03*
D11*
X-149149000Y-249572040D03*
X-149149000Y-250372040D03*
D10*
X-149149000Y-248772040D03*
%TD*%
%TO.C,RN15*%
X-143199000Y-251172040D03*
D11*
X-143199000Y-250372040D03*
D10*
X-143199000Y-248772040D03*
D11*
X-143199000Y-249572040D03*
D10*
X-144999000Y-251172040D03*
D11*
X-144999000Y-249572040D03*
X-144999000Y-250372040D03*
D10*
X-144999000Y-248772040D03*
%TD*%
%TO.C,RN14*%
X-139049000Y-251172040D03*
D11*
X-139049000Y-250372040D03*
D10*
X-139049000Y-248772040D03*
D11*
X-139049000Y-249572040D03*
D10*
X-140849000Y-251172040D03*
D11*
X-140849000Y-249572040D03*
X-140849000Y-250372040D03*
D10*
X-140849000Y-248772040D03*
%TD*%
%TO.C,RN13*%
X-134899000Y-251172040D03*
D11*
X-134899000Y-250372040D03*
D10*
X-134899000Y-248772040D03*
D11*
X-134899000Y-249572040D03*
D10*
X-136699000Y-251172040D03*
D11*
X-136699000Y-249572040D03*
X-136699000Y-250372040D03*
D10*
X-136699000Y-248772040D03*
%TD*%
%TO.C,RN12*%
X-130749000Y-251172040D03*
D11*
X-130749000Y-250372040D03*
D10*
X-130749000Y-248772040D03*
D11*
X-130749000Y-249572040D03*
D10*
X-132549000Y-251172040D03*
D11*
X-132549000Y-249572040D03*
X-132549000Y-250372040D03*
D10*
X-132549000Y-248772040D03*
%TD*%
%TO.C,RN11*%
X-126599000Y-251172040D03*
D11*
X-126599000Y-250372040D03*
D10*
X-126599000Y-248772040D03*
D11*
X-126599000Y-249572040D03*
D10*
X-128399000Y-251172040D03*
D11*
X-128399000Y-249572040D03*
X-128399000Y-250372040D03*
D10*
X-128399000Y-248772040D03*
%TD*%
%TO.C,RN10*%
X-118299000Y-251172040D03*
D11*
X-118299000Y-250372040D03*
D10*
X-118299000Y-248772040D03*
D11*
X-118299000Y-249572040D03*
D10*
X-120099000Y-251172040D03*
D11*
X-120099000Y-249572040D03*
X-120099000Y-250372040D03*
D10*
X-120099000Y-248772040D03*
%TD*%
%TO.C,RN9*%
X-159799000Y-251172040D03*
D11*
X-159799000Y-250372040D03*
D10*
X-159799000Y-248772040D03*
D11*
X-159799000Y-249572040D03*
D10*
X-161599000Y-251172040D03*
D11*
X-161599000Y-249572040D03*
X-161599000Y-250372040D03*
D10*
X-161599000Y-248772040D03*
%TD*%
%TO.C,RN8*%
X-76799000Y-251172040D03*
D11*
X-76799000Y-250372040D03*
D10*
X-76799000Y-248772040D03*
D11*
X-76799000Y-249572040D03*
D10*
X-78599000Y-251172040D03*
D11*
X-78599000Y-249572040D03*
X-78599000Y-250372040D03*
D10*
X-78599000Y-248772040D03*
%TD*%
%TO.C,RN7*%
X-105849000Y-251172040D03*
D11*
X-105849000Y-250372040D03*
D10*
X-105849000Y-248772040D03*
D11*
X-105849000Y-249572040D03*
D10*
X-107649000Y-251172040D03*
D11*
X-107649000Y-249572040D03*
X-107649000Y-250372040D03*
D10*
X-107649000Y-248772040D03*
%TD*%
%TO.C,RN6*%
X-101699000Y-251172040D03*
D11*
X-101699000Y-250372040D03*
D10*
X-101699000Y-248772040D03*
D11*
X-101699000Y-249572040D03*
D10*
X-103499000Y-251172040D03*
D11*
X-103499000Y-249572040D03*
X-103499000Y-250372040D03*
D10*
X-103499000Y-248772040D03*
%TD*%
%TO.C,RN5*%
X-97549000Y-251172040D03*
D11*
X-97549000Y-250372040D03*
D10*
X-97549000Y-248772040D03*
D11*
X-97549000Y-249572040D03*
D10*
X-99349000Y-251172040D03*
D11*
X-99349000Y-249572040D03*
X-99349000Y-250372040D03*
D10*
X-99349000Y-248772040D03*
%TD*%
%TO.C,RN4*%
X-93399000Y-251172040D03*
D11*
X-93399000Y-250372040D03*
D10*
X-93399000Y-248772040D03*
D11*
X-93399000Y-249572040D03*
D10*
X-95199000Y-251172040D03*
D11*
X-95199000Y-249572040D03*
X-95199000Y-250372040D03*
D10*
X-95199000Y-248772040D03*
%TD*%
%TO.C,RN3*%
X-89249000Y-251172040D03*
D11*
X-89249000Y-250372040D03*
D10*
X-89249000Y-248772040D03*
D11*
X-89249000Y-249572040D03*
D10*
X-91049000Y-251172040D03*
D11*
X-91049000Y-249572040D03*
X-91049000Y-250372040D03*
D10*
X-91049000Y-248772040D03*
%TD*%
%TO.C,RN2*%
X-85099000Y-251172040D03*
D11*
X-85099000Y-250372040D03*
D10*
X-85099000Y-248772040D03*
D11*
X-85099000Y-249572040D03*
D10*
X-86899000Y-251172040D03*
D11*
X-86899000Y-249572040D03*
X-86899000Y-250372040D03*
D10*
X-86899000Y-248772040D03*
%TD*%
%TO.C,RN1*%
X-80949000Y-251172040D03*
D11*
X-80949000Y-250372040D03*
D10*
X-80949000Y-248772040D03*
D11*
X-80949000Y-249572040D03*
D10*
X-82749000Y-251172040D03*
D11*
X-82749000Y-249572040D03*
X-82749000Y-250372040D03*
D10*
X-82749000Y-248772040D03*
%TD*%
D12*
%TO.C,R7*%
X-28260840Y-248920000D03*
X-30059160Y-248920000D03*
%TD*%
%TO.C,R6*%
X-32300840Y-248920000D03*
X-34099160Y-248920000D03*
%TD*%
%TO.C,R5*%
X125399160Y-90360000D03*
X123600840Y-90360000D03*
%TD*%
%TO.C,R4*%
X125399160Y-87720000D03*
X123600840Y-87720000D03*
%TD*%
%TO.C,R3*%
X-36340840Y-248920000D03*
X-38139160Y-248920000D03*
%TD*%
%TO.C,R2*%
X-44420840Y-248920000D03*
X-46219160Y-248920000D03*
%TD*%
%TO.C,R1*%
X-40380840Y-248920000D03*
X-42179160Y-248920000D03*
%TD*%
D13*
%TO.C,J2*%
X83871000Y-136052040D03*
X83071000Y-136052040D03*
X83871000Y-136052040D03*
X83071000Y-136052040D03*
X77471000Y-136052040D03*
X77471000Y-136052040D03*
X78271000Y-136052040D03*
X78271000Y-136052040D03*
D14*
X82421000Y-136052040D03*
X81421000Y-136052040D03*
X81921000Y-136052040D03*
X79421000Y-136052040D03*
X78921000Y-136052040D03*
X80921000Y-136052040D03*
X80421000Y-136052040D03*
X79921000Y-136052040D03*
%TD*%
D12*
%TO.C,C8*%
X-72700840Y-248920000D03*
X-74499160Y-248920000D03*
%TD*%
%TO.C,C7*%
X-68660840Y-248920000D03*
X-70459160Y-248920000D03*
%TD*%
%TO.C,C6*%
X-64620840Y-248920000D03*
X-66419160Y-248920000D03*
%TD*%
%TO.C,C5*%
X-60580840Y-248920000D03*
X-62379160Y-248920000D03*
%TD*%
%TO.C,C4*%
X-56540840Y-248920000D03*
X-58339160Y-248920000D03*
%TD*%
%TO.C,C3*%
X-52500840Y-248920000D03*
X-54299160Y-248920000D03*
%TD*%
%TO.C,C2*%
X-48460840Y-248920000D03*
X-50259160Y-248920000D03*
%TD*%
%TO.C,C1*%
X125399160Y-93000000D03*
X123600840Y-93000000D03*
%TD*%
M02*
