%TF.GenerationSoftware,KiCad,Pcbnew,(5.1.6)-1*%
%TF.CreationDate,2022-09-12T19:20:27+08:00*%
%TF.ProjectId,feng,66656e67-2e6b-4696-9361-645f70636258,rev?*%
%TF.SameCoordinates,Original*%
%TF.FileFunction,Legend,Bot*%
%TF.FilePolarity,Positive*%
%FSLAX46Y46*%
G04 Gerber Fmt 4.6, Leading zero omitted, Abs format (unit mm)*
G04 Created by KiCad (PCBNEW (5.1.6)-1) date 2022-09-12 19:20:27*
%MOMM*%
%LPD*%
G01*
G04 APERTURE LIST*
%ADD10C,0.120000*%
%ADD11C,0.150000*%
%ADD12C,0.127000*%
G04 APERTURE END LIST*
D10*
%TO.C,D82*%
X279306000Y-261156000D02*
X286606000Y-261156000D01*
X279306000Y-266656000D02*
X286606000Y-266656000D01*
X286606000Y-266656000D02*
X286606000Y-265506000D01*
%TO.C,D81*%
X412656000Y-223056000D02*
X419956000Y-223056000D01*
X412656000Y-228556000D02*
X419956000Y-228556000D01*
X419956000Y-228556000D02*
X419956000Y-227406000D01*
%TO.C,D80*%
X381668000Y-223056000D02*
X388968000Y-223056000D01*
X381668000Y-228556000D02*
X388968000Y-228556000D01*
X388968000Y-228556000D02*
X388968000Y-227406000D01*
%TO.C,D79*%
X362364000Y-223056000D02*
X369664000Y-223056000D01*
X362364000Y-228556000D02*
X369664000Y-228556000D01*
X369664000Y-228556000D02*
X369664000Y-227406000D01*
%TO.C,D78*%
X343568000Y-223056000D02*
X350868000Y-223056000D01*
X343568000Y-228556000D02*
X350868000Y-228556000D01*
X350868000Y-228556000D02*
X350868000Y-227406000D01*
%TO.C,D77*%
X324518000Y-223056000D02*
X331818000Y-223056000D01*
X324518000Y-228556000D02*
X331818000Y-228556000D01*
X331818000Y-228556000D02*
X331818000Y-227406000D01*
%TO.C,D76*%
X305468000Y-223056000D02*
X312768000Y-223056000D01*
X305468000Y-228556000D02*
X312768000Y-228556000D01*
X312768000Y-228556000D02*
X312768000Y-227406000D01*
%TO.C,D75*%
X286418000Y-223056000D02*
X293718000Y-223056000D01*
X286418000Y-228556000D02*
X293718000Y-228556000D01*
X293718000Y-228556000D02*
X293718000Y-227406000D01*
%TO.C,D74*%
X267368000Y-223056000D02*
X274668000Y-223056000D01*
X267368000Y-228556000D02*
X274668000Y-228556000D01*
X274668000Y-228556000D02*
X274668000Y-227406000D01*
%TO.C,D73*%
X248318000Y-223056000D02*
X255618000Y-223056000D01*
X248318000Y-228556000D02*
X255618000Y-228556000D01*
X255618000Y-228556000D02*
X255618000Y-227406000D01*
%TO.C,D72*%
X229268000Y-223056000D02*
X236568000Y-223056000D01*
X229268000Y-228556000D02*
X236568000Y-228556000D01*
X236568000Y-228556000D02*
X236568000Y-227406000D01*
%TO.C,D71*%
X210218000Y-223056000D02*
X217518000Y-223056000D01*
X210218000Y-228556000D02*
X217518000Y-228556000D01*
X217518000Y-228556000D02*
X217518000Y-227406000D01*
%TO.C,D70*%
X191168000Y-223056000D02*
X198468000Y-223056000D01*
X191168000Y-228556000D02*
X198468000Y-228556000D01*
X198468000Y-228556000D02*
X198468000Y-227406000D01*
%TO.C,D69*%
X207932000Y-261156000D02*
X215232000Y-261156000D01*
X207932000Y-266656000D02*
X215232000Y-266656000D01*
X215232000Y-266656000D02*
X215232000Y-265506000D01*
%TO.C,D68*%
X184056000Y-261156000D02*
X191356000Y-261156000D01*
X184056000Y-266656000D02*
X191356000Y-266656000D01*
X191356000Y-266656000D02*
X191356000Y-265506000D01*
%TO.C,D67*%
X160180000Y-261156000D02*
X167480000Y-261156000D01*
X160180000Y-266656000D02*
X167480000Y-266656000D01*
X167480000Y-266656000D02*
X167480000Y-265506000D01*
%TO.C,D66*%
X169832000Y-242106000D02*
X177132000Y-242106000D01*
X169832000Y-247606000D02*
X177132000Y-247606000D01*
X177132000Y-247606000D02*
X177132000Y-246456000D01*
%TO.C,D65*%
X165006000Y-223056000D02*
X172306000Y-223056000D01*
X165006000Y-228556000D02*
X172306000Y-228556000D01*
X172306000Y-228556000D02*
X172306000Y-227406000D01*
%TO.C,D64*%
X162720000Y-204006000D02*
X170020000Y-204006000D01*
X162720000Y-209506000D02*
X170020000Y-209506000D01*
X170020000Y-209506000D02*
X170020000Y-208356000D01*
%TO.C,D63*%
X186596000Y-204006000D02*
X193896000Y-204006000D01*
X186596000Y-209506000D02*
X193896000Y-209506000D01*
X193896000Y-209506000D02*
X193896000Y-208356000D01*
%TO.C,D62*%
X205646000Y-204006000D02*
X212946000Y-204006000D01*
X205646000Y-209506000D02*
X212946000Y-209506000D01*
X212946000Y-209506000D02*
X212946000Y-208356000D01*
%TO.C,D61*%
X224442000Y-204006000D02*
X231742000Y-204006000D01*
X224442000Y-209506000D02*
X231742000Y-209506000D01*
X231742000Y-209506000D02*
X231742000Y-208356000D01*
%TO.C,D60*%
X243746000Y-204006000D02*
X251046000Y-204006000D01*
X243746000Y-209506000D02*
X251046000Y-209506000D01*
X251046000Y-209506000D02*
X251046000Y-208356000D01*
%TO.C,D59*%
X262796000Y-204006000D02*
X270096000Y-204006000D01*
X262796000Y-209506000D02*
X270096000Y-209506000D01*
X270096000Y-209506000D02*
X270096000Y-208356000D01*
%TO.C,D58*%
X281846000Y-204006000D02*
X289146000Y-204006000D01*
X281846000Y-209506000D02*
X289146000Y-209506000D01*
X289146000Y-209506000D02*
X289146000Y-208356000D01*
%TO.C,D57*%
X300896000Y-204006000D02*
X308196000Y-204006000D01*
X300896000Y-209506000D02*
X308196000Y-209506000D01*
X308196000Y-209506000D02*
X308196000Y-208356000D01*
%TO.C,D56*%
X319946000Y-204006000D02*
X327246000Y-204006000D01*
X319946000Y-209506000D02*
X327246000Y-209506000D01*
X327246000Y-209506000D02*
X327246000Y-208356000D01*
%TO.C,D55*%
X338996000Y-204006000D02*
X346296000Y-204006000D01*
X338996000Y-209506000D02*
X346296000Y-209506000D01*
X346296000Y-209506000D02*
X346296000Y-208356000D01*
%TO.C,D54*%
X358046000Y-204006000D02*
X365346000Y-204006000D01*
X358046000Y-209506000D02*
X365346000Y-209506000D01*
X365346000Y-209506000D02*
X365346000Y-208356000D01*
%TO.C,D53*%
X377096000Y-204006000D02*
X384396000Y-204006000D01*
X377096000Y-209506000D02*
X384396000Y-209506000D01*
X384396000Y-209506000D02*
X384396000Y-208356000D01*
%TO.C,D52*%
X396146000Y-204006000D02*
X403446000Y-204006000D01*
X396146000Y-209506000D02*
X403446000Y-209506000D01*
X403446000Y-209506000D02*
X403446000Y-208356000D01*
%TO.C,D51*%
X419768000Y-204006000D02*
X427068000Y-204006000D01*
X419768000Y-209506000D02*
X427068000Y-209506000D01*
X427068000Y-209506000D02*
X427068000Y-208356000D01*
%TO.C,D50*%
X415196000Y-175304000D02*
X422496000Y-175304000D01*
X415196000Y-180804000D02*
X422496000Y-180804000D01*
X422496000Y-180804000D02*
X422496000Y-179654000D01*
%TO.C,D49*%
X386748000Y-175304000D02*
X394048000Y-175304000D01*
X386748000Y-180804000D02*
X394048000Y-180804000D01*
X394048000Y-180804000D02*
X394048000Y-179654000D01*
%TO.C,D48*%
X367698000Y-175304000D02*
X374998000Y-175304000D01*
X367698000Y-180804000D02*
X374998000Y-180804000D01*
X374998000Y-180804000D02*
X374998000Y-179654000D01*
%TO.C,D47*%
X348394000Y-175304000D02*
X355694000Y-175304000D01*
X348394000Y-180804000D02*
X355694000Y-180804000D01*
X355694000Y-180804000D02*
X355694000Y-179654000D01*
%TO.C,D46*%
X329440000Y-175260000D02*
X336740000Y-175260000D01*
X329440000Y-180760000D02*
X336740000Y-180760000D01*
X336740000Y-180760000D02*
X336740000Y-179610000D01*
%TO.C,D45*%
X310450000Y-175250000D02*
X317750000Y-175250000D01*
X310450000Y-180750000D02*
X317750000Y-180750000D01*
X317750000Y-180750000D02*
X317750000Y-179600000D01*
%TO.C,D44*%
X290240000Y-175160000D02*
X297540000Y-175160000D01*
X290240000Y-180660000D02*
X297540000Y-180660000D01*
X297540000Y-180660000D02*
X297540000Y-179510000D01*
%TO.C,D43*%
X272200000Y-175250000D02*
X279500000Y-175250000D01*
X272200000Y-180750000D02*
X279500000Y-180750000D01*
X279500000Y-180750000D02*
X279500000Y-179600000D01*
%TO.C,D42*%
X253270000Y-175210000D02*
X260570000Y-175210000D01*
X253270000Y-180710000D02*
X260570000Y-180710000D01*
X260570000Y-180710000D02*
X260570000Y-179560000D01*
%TO.C,D41*%
X234130000Y-175380000D02*
X241430000Y-175380000D01*
X234130000Y-180880000D02*
X241430000Y-180880000D01*
X241430000Y-180880000D02*
X241430000Y-179730000D01*
%TO.C,D40*%
X215044000Y-175050000D02*
X222344000Y-175050000D01*
X215044000Y-180550000D02*
X222344000Y-180550000D01*
X222344000Y-180550000D02*
X222344000Y-179400000D01*
%TO.C,D39*%
X195994000Y-175050000D02*
X203294000Y-175050000D01*
X195994000Y-180550000D02*
X203294000Y-180550000D01*
X203294000Y-180550000D02*
X203294000Y-179400000D01*
%TO.C,D38*%
X176944000Y-175050000D02*
X184244000Y-175050000D01*
X176944000Y-180550000D02*
X184244000Y-180550000D01*
X184244000Y-180550000D02*
X184244000Y-179400000D01*
%TO.C,D37*%
X157894000Y-184956000D02*
X165194000Y-184956000D01*
X157894000Y-190456000D02*
X165194000Y-190456000D01*
X165194000Y-190456000D02*
X165194000Y-189306000D01*
%TO.C,D36*%
X157894000Y-161080000D02*
X165194000Y-161080000D01*
X157894000Y-166580000D02*
X165194000Y-166580000D01*
X165194000Y-166580000D02*
X165194000Y-165430000D01*
%TO.C,D35*%
X181770000Y-161080000D02*
X189070000Y-161080000D01*
X181770000Y-166580000D02*
X189070000Y-166580000D01*
X189070000Y-166580000D02*
X189070000Y-165430000D01*
%TO.C,D34*%
X200730000Y-151400000D02*
X208030000Y-151400000D01*
X200730000Y-156900000D02*
X208030000Y-156900000D01*
X208030000Y-156900000D02*
X208030000Y-155750000D01*
%TO.C,D33*%
X219750000Y-151420000D02*
X227050000Y-151420000D01*
X219750000Y-156920000D02*
X227050000Y-156920000D01*
X227050000Y-156920000D02*
X227050000Y-155770000D01*
%TO.C,D32*%
X238800000Y-161170000D02*
X246100000Y-161170000D01*
X238800000Y-166670000D02*
X246100000Y-166670000D01*
X246100000Y-166670000D02*
X246100000Y-165520000D01*
%TO.C,D31*%
X262720000Y-161000000D02*
X270020000Y-161000000D01*
X262720000Y-166500000D02*
X270020000Y-166500000D01*
X270020000Y-166500000D02*
X270020000Y-165350000D01*
%TO.C,D30*%
X281740000Y-161140000D02*
X289040000Y-161140000D01*
X281740000Y-166640000D02*
X289040000Y-166640000D01*
X289040000Y-166640000D02*
X289040000Y-165490000D01*
%TO.C,D29*%
X300680000Y-161120000D02*
X307980000Y-161120000D01*
X300680000Y-166620000D02*
X307980000Y-166620000D01*
X307980000Y-166620000D02*
X307980000Y-165470000D01*
%TO.C,D28*%
X319860000Y-161100000D02*
X327160000Y-161100000D01*
X319860000Y-166600000D02*
X327160000Y-166600000D01*
X327160000Y-166600000D02*
X327160000Y-165450000D01*
%TO.C,D27*%
X343540000Y-161140000D02*
X350840000Y-161140000D01*
X343540000Y-166640000D02*
X350840000Y-166640000D01*
X350840000Y-166640000D02*
X350840000Y-165490000D01*
%TO.C,D26*%
X362660000Y-161150000D02*
X369960000Y-161150000D01*
X362660000Y-166650000D02*
X369960000Y-166650000D01*
X369960000Y-166650000D02*
X369960000Y-165500000D01*
%TO.C,D25*%
X381720000Y-161150000D02*
X389020000Y-161150000D01*
X381720000Y-166650000D02*
X389020000Y-166650000D01*
X389020000Y-166650000D02*
X389020000Y-165500000D01*
%TO.C,D24*%
X400710000Y-161080000D02*
X408010000Y-161080000D01*
X400710000Y-166580000D02*
X408010000Y-166580000D01*
X408010000Y-166580000D02*
X408010000Y-165430000D01*
%TO.C,D23*%
X424480000Y-161120000D02*
X431780000Y-161120000D01*
X424480000Y-166620000D02*
X431780000Y-166620000D01*
X431780000Y-166620000D02*
X431780000Y-165470000D01*
%TO.C,D22*%
X453296000Y-184956000D02*
X460596000Y-184956000D01*
X453296000Y-190456000D02*
X460596000Y-190456000D01*
X460596000Y-190456000D02*
X460596000Y-189306000D01*
%TO.C,D21*%
X453296000Y-204006000D02*
X460596000Y-204006000D01*
X453296000Y-209506000D02*
X460596000Y-209506000D01*
X460596000Y-209506000D02*
X460596000Y-208356000D01*
%TO.C,D20*%
X453296000Y-223056000D02*
X460596000Y-223056000D01*
X453296000Y-228556000D02*
X460596000Y-228556000D01*
X460596000Y-228556000D02*
X460596000Y-227406000D01*
%TO.C,D19*%
X453296000Y-242106000D02*
X460596000Y-242106000D01*
X453296000Y-247606000D02*
X460596000Y-247606000D01*
X460596000Y-247606000D02*
X460596000Y-246456000D01*
%TO.C,D18*%
X429420000Y-246932000D02*
X436720000Y-246932000D01*
X429420000Y-252432000D02*
X436720000Y-252432000D01*
X436720000Y-252432000D02*
X436720000Y-251282000D01*
%TO.C,D17*%
X448470000Y-265982000D02*
X455770000Y-265982000D01*
X448470000Y-271482000D02*
X455770000Y-271482000D01*
X455770000Y-271482000D02*
X455770000Y-270332000D01*
%TO.C,D16*%
X429420000Y-265982000D02*
X436720000Y-265982000D01*
X429420000Y-271482000D02*
X436720000Y-271482000D01*
X436720000Y-271482000D02*
X436720000Y-270332000D01*
%TO.C,D15*%
X410370000Y-265982000D02*
X417670000Y-265982000D01*
X410370000Y-271482000D02*
X417670000Y-271482000D01*
X417670000Y-271482000D02*
X417670000Y-270332000D01*
%TO.C,D14*%
X398432000Y-242106000D02*
X405732000Y-242106000D01*
X398432000Y-247606000D02*
X405732000Y-247606000D01*
X405732000Y-247606000D02*
X405732000Y-246456000D01*
%TO.C,D13*%
X372270000Y-242106000D02*
X379570000Y-242106000D01*
X372270000Y-247606000D02*
X379570000Y-247606000D01*
X379570000Y-247606000D02*
X379570000Y-246456000D01*
%TO.C,D12*%
X386494000Y-261156000D02*
X393794000Y-261156000D01*
X386494000Y-266656000D02*
X393794000Y-266656000D01*
X393794000Y-266656000D02*
X393794000Y-265506000D01*
%TO.C,D11*%
X367444000Y-261156000D02*
X374744000Y-261156000D01*
X367444000Y-266656000D02*
X374744000Y-266656000D01*
X374744000Y-266656000D02*
X374744000Y-265506000D01*
%TO.C,D10*%
X348394000Y-261156000D02*
X355694000Y-261156000D01*
X348394000Y-266656000D02*
X355694000Y-266656000D01*
X355694000Y-266656000D02*
X355694000Y-265506000D01*
%TO.C,D9*%
X353220000Y-242106000D02*
X360520000Y-242106000D01*
X353220000Y-247606000D02*
X360520000Y-247606000D01*
X360520000Y-247606000D02*
X360520000Y-246456000D01*
%TO.C,D8*%
X334170000Y-242106000D02*
X341470000Y-242106000D01*
X334170000Y-247606000D02*
X341470000Y-247606000D01*
X341470000Y-247606000D02*
X341470000Y-246456000D01*
%TO.C,D7*%
X315120000Y-242106000D02*
X322420000Y-242106000D01*
X315120000Y-247606000D02*
X322420000Y-247606000D01*
X322420000Y-247606000D02*
X322420000Y-246456000D01*
%TO.C,D6*%
X296070000Y-242106000D02*
X303370000Y-242106000D01*
X296070000Y-247606000D02*
X303370000Y-247606000D01*
X303370000Y-247606000D02*
X303370000Y-246456000D01*
%TO.C,D5*%
X277020000Y-242106000D02*
X284320000Y-242106000D01*
X277020000Y-247606000D02*
X284320000Y-247606000D01*
X284320000Y-247606000D02*
X284320000Y-246456000D01*
%TO.C,D4*%
X257970000Y-242106000D02*
X265270000Y-242106000D01*
X257970000Y-247606000D02*
X265270000Y-247606000D01*
X265270000Y-247606000D02*
X265270000Y-246456000D01*
%TO.C,D3*%
X238920000Y-242106000D02*
X246220000Y-242106000D01*
X238920000Y-247606000D02*
X246220000Y-247606000D01*
X246220000Y-247606000D02*
X246220000Y-246456000D01*
%TO.C,D2*%
X219870000Y-242106000D02*
X227170000Y-242106000D01*
X219870000Y-247606000D02*
X227170000Y-247606000D01*
X227170000Y-247606000D02*
X227170000Y-246456000D01*
%TO.C,D1*%
X200820000Y-242106000D02*
X208120000Y-242106000D01*
X200820000Y-247606000D02*
X208120000Y-247606000D01*
X208120000Y-247606000D02*
X208120000Y-246456000D01*
%TO.C,U13*%
X230630000Y-169420000D02*
X230630000Y-170680000D01*
X230630000Y-176240000D02*
X230630000Y-174980000D01*
X226870000Y-169420000D02*
X230630000Y-169420000D01*
X224620000Y-176240000D02*
X230630000Y-176240000D01*
%TO.C,SW82*%
X456600000Y-199190000D02*
X461700000Y-199190000D01*
X452700000Y-194990000D02*
X457800000Y-194990000D01*
X454600000Y-201190000D02*
G75*
G02*
X456600000Y-199190000I2000000J0D01*
G01*
X450700000Y-196990000D02*
G75*
G02*
X452700000Y-194990000I2000000J0D01*
G01*
%TO.C,SW81*%
X456600000Y-180140000D02*
X461700000Y-180140000D01*
X452700000Y-175940000D02*
X457800000Y-175940000D01*
X454600000Y-182140000D02*
G75*
G02*
X456600000Y-180140000I2000000J0D01*
G01*
X450700000Y-177940000D02*
G75*
G02*
X452700000Y-175940000I2000000J0D01*
G01*
%TO.C,SW80*%
X289913000Y-218239000D02*
X295013000Y-218239000D01*
X286013000Y-214039000D02*
X291113000Y-214039000D01*
X287913000Y-220239000D02*
G75*
G02*
X289913000Y-218239000I2000000J0D01*
G01*
X284013000Y-216039000D02*
G75*
G02*
X286013000Y-214039000I2000000J0D01*
G01*
%TO.C,SW79*%
X304244000Y-199192000D02*
X309344000Y-199192000D01*
X300344000Y-194992000D02*
X305444000Y-194992000D01*
X302244000Y-201192000D02*
G75*
G02*
X304244000Y-199192000I2000000J0D01*
G01*
X298344000Y-196992000D02*
G75*
G02*
X300344000Y-194992000I2000000J0D01*
G01*
%TO.C,SW78*%
X213713000Y-218239000D02*
X218813000Y-218239000D01*
X209813000Y-214039000D02*
X214913000Y-214039000D01*
X211713000Y-220239000D02*
G75*
G02*
X213713000Y-218239000I2000000J0D01*
G01*
X207813000Y-216039000D02*
G75*
G02*
X209813000Y-214039000I2000000J0D01*
G01*
%TO.C,SW77*%
X327912000Y-218239000D02*
X333012000Y-218239000D01*
X324012000Y-214039000D02*
X329112000Y-214039000D01*
X325912000Y-220239000D02*
G75*
G02*
X327912000Y-218239000I2000000J0D01*
G01*
X322012000Y-216039000D02*
G75*
G02*
X324012000Y-214039000I2000000J0D01*
G01*
%TO.C,SW76*%
X223282000Y-237292000D02*
X228382000Y-237292000D01*
X219382000Y-233092000D02*
X224482000Y-233092000D01*
X221282000Y-239292000D02*
G75*
G02*
X223282000Y-237292000I2000000J0D01*
G01*
X217382000Y-235092000D02*
G75*
G02*
X219382000Y-233092000I2000000J0D01*
G01*
%TO.C,SW75*%
X189902000Y-199192000D02*
X195002000Y-199192000D01*
X186002000Y-194992000D02*
X191102000Y-194992000D01*
X187902000Y-201192000D02*
G75*
G02*
X189902000Y-199192000I2000000J0D01*
G01*
X184002000Y-196992000D02*
G75*
G02*
X186002000Y-194992000I2000000J0D01*
G01*
%TO.C,SW74*%
X375682000Y-237292000D02*
X380782000Y-237292000D01*
X371782000Y-233092000D02*
X376882000Y-233092000D01*
X373682000Y-239292000D02*
G75*
G02*
X375682000Y-237292000I2000000J0D01*
G01*
X369782000Y-235092000D02*
G75*
G02*
X371782000Y-233092000I2000000J0D01*
G01*
%TO.C,SW73*%
X308913000Y-218239000D02*
X314013000Y-218239000D01*
X305013000Y-214039000D02*
X310113000Y-214039000D01*
X306913000Y-220239000D02*
G75*
G02*
X308913000Y-218239000I2000000J0D01*
G01*
X303013000Y-216039000D02*
G75*
G02*
X305013000Y-214039000I2000000J0D01*
G01*
%TO.C,SW72*%
X194663000Y-218239000D02*
X199763000Y-218239000D01*
X190763000Y-214039000D02*
X195863000Y-214039000D01*
X192663000Y-220239000D02*
G75*
G02*
X194663000Y-218239000I2000000J0D01*
G01*
X188763000Y-216039000D02*
G75*
G02*
X190763000Y-214039000I2000000J0D01*
G01*
%TO.C,SW71*%
X208956000Y-199192000D02*
X214056000Y-199192000D01*
X205056000Y-194992000D02*
X210156000Y-194992000D01*
X206956000Y-201192000D02*
G75*
G02*
X208956000Y-199192000I2000000J0D01*
G01*
X203056000Y-196992000D02*
G75*
G02*
X205056000Y-194992000I2000000J0D01*
G01*
%TO.C,SW70*%
X163704000Y-256337000D02*
X168804000Y-256337000D01*
X159804000Y-252137000D02*
X164904000Y-252137000D01*
X161704000Y-258337000D02*
G75*
G02*
X163704000Y-256337000I2000000J0D01*
G01*
X157804000Y-254137000D02*
G75*
G02*
X159804000Y-252137000I2000000J0D01*
G01*
%TO.C,SW69*%
X166084000Y-199187000D02*
X171184000Y-199187000D01*
X162184000Y-194987000D02*
X167284000Y-194987000D01*
X164084000Y-201187000D02*
G75*
G02*
X166084000Y-199187000I2000000J0D01*
G01*
X160184000Y-196987000D02*
G75*
G02*
X162184000Y-194987000I2000000J0D01*
G01*
%TO.C,SW68*%
X266132000Y-199192000D02*
X271232000Y-199192000D01*
X262232000Y-194992000D02*
X267332000Y-194992000D01*
X264132000Y-201192000D02*
G75*
G02*
X266132000Y-199192000I2000000J0D01*
G01*
X260232000Y-196992000D02*
G75*
G02*
X262232000Y-194992000I2000000J0D01*
G01*
%TO.C,SW67*%
X380495000Y-199192000D02*
X385595000Y-199192000D01*
X376595000Y-194992000D02*
X381695000Y-194992000D01*
X378495000Y-201192000D02*
G75*
G02*
X380495000Y-199192000I2000000J0D01*
G01*
X374595000Y-196992000D02*
G75*
G02*
X376595000Y-194992000I2000000J0D01*
G01*
%TO.C,SW66*%
X365976000Y-218239000D02*
X371076000Y-218239000D01*
X362076000Y-214039000D02*
X367176000Y-214039000D01*
X363976000Y-220239000D02*
G75*
G02*
X365976000Y-218239000I2000000J0D01*
G01*
X360076000Y-216039000D02*
G75*
G02*
X362076000Y-214039000I2000000J0D01*
G01*
%TO.C,SW65*%
X314220000Y-185529000D02*
X309120000Y-185529000D01*
X318120000Y-189729000D02*
X313020000Y-189729000D01*
X316220000Y-183529000D02*
G75*
G02*
X314220000Y-185529000I-2000000J0D01*
G01*
X320120000Y-187729000D02*
G75*
G02*
X318120000Y-189729000I-2000000J0D01*
G01*
%TO.C,SW64*%
X211331000Y-256337000D02*
X216431000Y-256337000D01*
X207431000Y-252137000D02*
X212531000Y-252137000D01*
X209331000Y-258337000D02*
G75*
G02*
X211331000Y-256337000I2000000J0D01*
G01*
X205431000Y-254137000D02*
G75*
G02*
X207431000Y-252137000I2000000J0D01*
G01*
%TO.C,SW63*%
X423261000Y-199187000D02*
X428361000Y-199187000D01*
X419361000Y-194987000D02*
X424461000Y-194987000D01*
X421261000Y-201187000D02*
G75*
G02*
X423261000Y-199187000I2000000J0D01*
G01*
X417361000Y-196987000D02*
G75*
G02*
X419361000Y-194987000I2000000J0D01*
G01*
%TO.C,SW62*%
X456600000Y-237290000D02*
X461700000Y-237290000D01*
X452700000Y-233090000D02*
X457800000Y-233090000D01*
X454600000Y-239290000D02*
G75*
G02*
X456600000Y-237290000I2000000J0D01*
G01*
X450700000Y-235090000D02*
G75*
G02*
X452700000Y-233090000I2000000J0D01*
G01*
%TO.C,SW61*%
X370890000Y-256340000D02*
X375990000Y-256340000D01*
X366990000Y-252140000D02*
X372090000Y-252140000D01*
X368890000Y-258340000D02*
G75*
G02*
X370890000Y-256340000I2000000J0D01*
G01*
X364990000Y-254140000D02*
G75*
G02*
X366990000Y-252140000I2000000J0D01*
G01*
%TO.C,SW60*%
X371434000Y-185529000D02*
X366334000Y-185529000D01*
X375334000Y-189729000D02*
X370234000Y-189729000D01*
X373434000Y-183529000D02*
G75*
G02*
X371434000Y-185529000I-2000000J0D01*
G01*
X377334000Y-187729000D02*
G75*
G02*
X375334000Y-189729000I-2000000J0D01*
G01*
%TO.C,SW59*%
X361458000Y-199192000D02*
X366558000Y-199192000D01*
X357558000Y-194992000D02*
X362658000Y-194992000D01*
X359458000Y-201192000D02*
G75*
G02*
X361458000Y-199192000I2000000J0D01*
G01*
X355558000Y-196992000D02*
G75*
G02*
X357558000Y-194992000I2000000J0D01*
G01*
%TO.C,SW58*%
X356632000Y-237292000D02*
X361732000Y-237292000D01*
X352732000Y-233092000D02*
X357832000Y-233092000D01*
X354632000Y-239292000D02*
G75*
G02*
X356632000Y-237292000I2000000J0D01*
G01*
X350732000Y-235092000D02*
G75*
G02*
X352732000Y-233092000I2000000J0D01*
G01*
%TO.C,SW57*%
X456600000Y-218240000D02*
X461700000Y-218240000D01*
X452700000Y-214040000D02*
X457800000Y-214040000D01*
X454600000Y-220240000D02*
G75*
G02*
X456600000Y-218240000I2000000J0D01*
G01*
X450700000Y-216040000D02*
G75*
G02*
X452700000Y-214040000I2000000J0D01*
G01*
%TO.C,SW56*%
X251813000Y-218239000D02*
X256913000Y-218239000D01*
X247913000Y-214039000D02*
X253013000Y-214039000D01*
X249813000Y-220239000D02*
G75*
G02*
X251813000Y-218239000I2000000J0D01*
G01*
X245913000Y-216039000D02*
G75*
G02*
X247913000Y-214039000I2000000J0D01*
G01*
%TO.C,SW55*%
X337582000Y-237292000D02*
X342682000Y-237292000D01*
X333682000Y-233092000D02*
X338782000Y-233092000D01*
X335582000Y-239292000D02*
G75*
G02*
X337582000Y-237292000I2000000J0D01*
G01*
X331682000Y-235092000D02*
G75*
G02*
X333682000Y-233092000I2000000J0D01*
G01*
%TO.C,SW54*%
X389990000Y-256340000D02*
X395090000Y-256340000D01*
X386090000Y-252140000D02*
X391190000Y-252140000D01*
X387990000Y-258340000D02*
G75*
G02*
X389990000Y-256340000I2000000J0D01*
G01*
X384090000Y-254140000D02*
G75*
G02*
X386090000Y-252140000I2000000J0D01*
G01*
%TO.C,SW53*%
X285182000Y-199192000D02*
X290282000Y-199192000D01*
X281282000Y-194992000D02*
X286382000Y-194992000D01*
X283182000Y-201192000D02*
G75*
G02*
X285182000Y-199192000I2000000J0D01*
G01*
X279282000Y-196992000D02*
G75*
G02*
X281282000Y-194992000I2000000J0D01*
G01*
%TO.C,SW52*%
X352358000Y-185529000D02*
X347258000Y-185529000D01*
X356258000Y-189729000D02*
X351158000Y-189729000D01*
X354358000Y-183529000D02*
G75*
G02*
X352358000Y-185529000I-2000000J0D01*
G01*
X358258000Y-187729000D02*
G75*
G02*
X356258000Y-189729000I-2000000J0D01*
G01*
%TO.C,SW51*%
X270838000Y-218239000D02*
X275938000Y-218239000D01*
X266938000Y-214039000D02*
X272038000Y-214039000D01*
X268838000Y-220239000D02*
G75*
G02*
X270838000Y-218239000I2000000J0D01*
G01*
X264938000Y-216039000D02*
G75*
G02*
X266938000Y-214039000I2000000J0D01*
G01*
%TO.C,SW50*%
X416119000Y-218237000D02*
X421219000Y-218237000D01*
X412219000Y-214037000D02*
X417319000Y-214037000D01*
X414119000Y-220237000D02*
G75*
G02*
X416119000Y-218237000I2000000J0D01*
G01*
X410219000Y-216037000D02*
G75*
G02*
X412219000Y-214037000I2000000J0D01*
G01*
%TO.C,SW49*%
X342395000Y-199192000D02*
X347495000Y-199192000D01*
X338495000Y-194992000D02*
X343595000Y-194992000D01*
X340395000Y-201192000D02*
G75*
G02*
X342395000Y-199192000I2000000J0D01*
G01*
X336495000Y-196992000D02*
G75*
G02*
X338495000Y-194992000I2000000J0D01*
G01*
%TO.C,SW48*%
X404211000Y-156324000D02*
X409311000Y-156324000D01*
X400311000Y-152124000D02*
X405411000Y-152124000D01*
X402211000Y-158324000D02*
G75*
G02*
X404211000Y-156324000I2000000J0D01*
G01*
X398311000Y-154124000D02*
G75*
G02*
X400311000Y-152124000I2000000J0D01*
G01*
%TO.C,SW47*%
X428030000Y-156330000D02*
X433130000Y-156330000D01*
X424130000Y-152130000D02*
X429230000Y-152130000D01*
X426030000Y-158330000D02*
G75*
G02*
X428030000Y-156330000I2000000J0D01*
G01*
X422130000Y-154130000D02*
G75*
G02*
X424130000Y-152130000I2000000J0D01*
G01*
%TO.C,SW46*%
X418899000Y-185537000D02*
X413799000Y-185537000D01*
X422799000Y-189737000D02*
X417699000Y-189737000D01*
X420899000Y-183537000D02*
G75*
G02*
X418899000Y-185537000I-2000000J0D01*
G01*
X424799000Y-187737000D02*
G75*
G02*
X422799000Y-189737000I-2000000J0D01*
G01*
%TO.C,SW45*%
X390484000Y-185529000D02*
X385384000Y-185529000D01*
X394384000Y-189729000D02*
X389284000Y-189729000D01*
X392484000Y-183529000D02*
G75*
G02*
X390484000Y-185529000I-2000000J0D01*
G01*
X396384000Y-187729000D02*
G75*
G02*
X394384000Y-189729000I-2000000J0D01*
G01*
%TO.C,SW44*%
X323251000Y-156325000D02*
X328351000Y-156325000D01*
X319351000Y-152125000D02*
X324451000Y-152125000D01*
X321251000Y-158325000D02*
G75*
G02*
X323251000Y-156325000I2000000J0D01*
G01*
X317351000Y-154125000D02*
G75*
G02*
X319351000Y-152125000I2000000J0D01*
G01*
%TO.C,SW43*%
X347061000Y-156324000D02*
X352161000Y-156324000D01*
X343161000Y-152124000D02*
X348261000Y-152124000D01*
X345061000Y-158324000D02*
G75*
G02*
X347061000Y-156324000I2000000J0D01*
G01*
X341161000Y-154124000D02*
G75*
G02*
X343161000Y-152124000I2000000J0D01*
G01*
%TO.C,SW42*%
X366111000Y-156324000D02*
X371211000Y-156324000D01*
X362211000Y-152124000D02*
X367311000Y-152124000D01*
X364111000Y-158324000D02*
G75*
G02*
X366111000Y-156324000I2000000J0D01*
G01*
X360211000Y-154124000D02*
G75*
G02*
X362211000Y-152124000I2000000J0D01*
G01*
%TO.C,SW41*%
X385161000Y-156324000D02*
X390261000Y-156324000D01*
X381261000Y-152124000D02*
X386361000Y-152124000D01*
X383161000Y-158324000D02*
G75*
G02*
X385161000Y-156324000I2000000J0D01*
G01*
X379261000Y-154124000D02*
G75*
G02*
X381261000Y-152124000I2000000J0D01*
G01*
%TO.C,SW40*%
X401829000Y-237287000D02*
X406929000Y-237287000D01*
X397929000Y-233087000D02*
X403029000Y-233087000D01*
X399829000Y-239287000D02*
G75*
G02*
X401829000Y-237287000I2000000J0D01*
G01*
X395929000Y-235087000D02*
G75*
G02*
X397929000Y-233087000I2000000J0D01*
G01*
%TO.C,SW39*%
X351821000Y-256340000D02*
X356921000Y-256340000D01*
X347921000Y-252140000D02*
X353021000Y-252140000D01*
X349821000Y-258340000D02*
G75*
G02*
X351821000Y-256340000I2000000J0D01*
G01*
X345921000Y-254140000D02*
G75*
G02*
X347921000Y-252140000I2000000J0D01*
G01*
%TO.C,SW38*%
X385100000Y-218239000D02*
X390200000Y-218239000D01*
X381200000Y-214039000D02*
X386300000Y-214039000D01*
X383100000Y-220239000D02*
G75*
G02*
X385100000Y-218239000I2000000J0D01*
G01*
X379200000Y-216039000D02*
G75*
G02*
X381200000Y-214039000I2000000J0D01*
G01*
%TO.C,SW37*%
X346936000Y-218239000D02*
X352036000Y-218239000D01*
X343036000Y-214039000D02*
X348136000Y-214039000D01*
X344936000Y-220239000D02*
G75*
G02*
X346936000Y-218239000I2000000J0D01*
G01*
X341036000Y-216039000D02*
G75*
G02*
X343036000Y-214039000I2000000J0D01*
G01*
%TO.C,SW36*%
X399520000Y-199192000D02*
X404620000Y-199192000D01*
X395620000Y-194992000D02*
X400720000Y-194992000D01*
X397520000Y-201192000D02*
G75*
G02*
X399520000Y-199192000I2000000J0D01*
G01*
X393620000Y-196992000D02*
G75*
G02*
X395620000Y-194992000I2000000J0D01*
G01*
%TO.C,SW35*%
X173231000Y-237287000D02*
X178331000Y-237287000D01*
X169331000Y-233087000D02*
X174431000Y-233087000D01*
X171231000Y-239287000D02*
G75*
G02*
X173231000Y-237287000I2000000J0D01*
G01*
X167331000Y-235087000D02*
G75*
G02*
X169331000Y-233087000I2000000J0D01*
G01*
%TO.C,SW34*%
X432781000Y-242049000D02*
X437881000Y-242049000D01*
X428881000Y-237849000D02*
X433981000Y-237849000D01*
X430781000Y-244049000D02*
G75*
G02*
X432781000Y-242049000I2000000J0D01*
G01*
X426881000Y-239849000D02*
G75*
G02*
X428881000Y-237849000I2000000J0D01*
G01*
%TO.C,SW33*%
X168469000Y-218237000D02*
X173569000Y-218237000D01*
X164569000Y-214037000D02*
X169669000Y-214037000D01*
X166469000Y-220237000D02*
G75*
G02*
X168469000Y-218237000I2000000J0D01*
G01*
X162569000Y-216037000D02*
G75*
G02*
X164569000Y-214037000I2000000J0D01*
G01*
%TO.C,SW32*%
X295170000Y-185529000D02*
X290070000Y-185529000D01*
X299070000Y-189729000D02*
X293970000Y-189729000D01*
X297170000Y-183529000D02*
G75*
G02*
X295170000Y-185529000I-2000000J0D01*
G01*
X301070000Y-187729000D02*
G75*
G02*
X299070000Y-189729000I-2000000J0D01*
G01*
%TO.C,SW31*%
X276120000Y-185529000D02*
X271020000Y-185529000D01*
X280020000Y-189729000D02*
X274920000Y-189729000D01*
X278120000Y-183529000D02*
G75*
G02*
X276120000Y-185529000I-2000000J0D01*
G01*
X282020000Y-187729000D02*
G75*
G02*
X280020000Y-189729000I-2000000J0D01*
G01*
%TO.C,SW30*%
X257045000Y-185529000D02*
X251945000Y-185529000D01*
X260945000Y-189729000D02*
X255845000Y-189729000D01*
X259045000Y-183529000D02*
G75*
G02*
X257045000Y-185529000I-2000000J0D01*
G01*
X262945000Y-187729000D02*
G75*
G02*
X260945000Y-189729000I-2000000J0D01*
G01*
%TO.C,SW29*%
X237944000Y-185529000D02*
X232844000Y-185529000D01*
X241844000Y-189729000D02*
X236744000Y-189729000D01*
X239944000Y-183529000D02*
G75*
G02*
X237944000Y-185529000I-2000000J0D01*
G01*
X243844000Y-187729000D02*
G75*
G02*
X241844000Y-189729000I-2000000J0D01*
G01*
%TO.C,SW28*%
X242284000Y-156324000D02*
X247384000Y-156324000D01*
X238384000Y-152124000D02*
X243484000Y-152124000D01*
X240284000Y-158324000D02*
G75*
G02*
X242284000Y-156324000I2000000J0D01*
G01*
X236384000Y-154124000D02*
G75*
G02*
X238384000Y-152124000I2000000J0D01*
G01*
%TO.C,SW27*%
X266114000Y-156325000D02*
X271214000Y-156325000D01*
X262214000Y-152125000D02*
X267314000Y-152125000D01*
X264114000Y-158325000D02*
G75*
G02*
X266114000Y-156325000I2000000J0D01*
G01*
X260214000Y-154125000D02*
G75*
G02*
X262214000Y-152125000I2000000J0D01*
G01*
%TO.C,SW26*%
X285161000Y-156325000D02*
X290261000Y-156325000D01*
X281261000Y-152125000D02*
X286361000Y-152125000D01*
X283161000Y-158325000D02*
G75*
G02*
X285161000Y-156325000I2000000J0D01*
G01*
X279261000Y-154125000D02*
G75*
G02*
X281261000Y-152125000I2000000J0D01*
G01*
%TO.C,SW25*%
X304204000Y-156325000D02*
X309304000Y-156325000D01*
X300304000Y-152125000D02*
X305404000Y-152125000D01*
X302204000Y-158325000D02*
G75*
G02*
X304204000Y-156325000I2000000J0D01*
G01*
X298304000Y-154125000D02*
G75*
G02*
X300304000Y-152125000I2000000J0D01*
G01*
%TO.C,SW24*%
X218843000Y-185529000D02*
X213743000Y-185529000D01*
X222743000Y-189729000D02*
X217643000Y-189729000D01*
X220843000Y-183529000D02*
G75*
G02*
X218843000Y-185529000I-2000000J0D01*
G01*
X224743000Y-187729000D02*
G75*
G02*
X222743000Y-189729000I-2000000J0D01*
G01*
%TO.C,SW23*%
X199857000Y-185529000D02*
X194757000Y-185529000D01*
X203757000Y-189729000D02*
X198657000Y-189729000D01*
X201857000Y-183529000D02*
G75*
G02*
X199857000Y-185529000I-2000000J0D01*
G01*
X205757000Y-187729000D02*
G75*
G02*
X203757000Y-189729000I-2000000J0D01*
G01*
%TO.C,SW22*%
X180777000Y-185529000D02*
X175677000Y-185529000D01*
X184677000Y-189729000D02*
X179577000Y-189729000D01*
X182777000Y-183529000D02*
G75*
G02*
X180777000Y-185529000I-2000000J0D01*
G01*
X186677000Y-187729000D02*
G75*
G02*
X184677000Y-189729000I-2000000J0D01*
G01*
%TO.C,SW21*%
X161326000Y-180137000D02*
X166426000Y-180137000D01*
X157426000Y-175937000D02*
X162526000Y-175937000D01*
X159326000Y-182137000D02*
G75*
G02*
X161326000Y-180137000I2000000J0D01*
G01*
X155426000Y-177937000D02*
G75*
G02*
X157426000Y-175937000I2000000J0D01*
G01*
%TO.C,SW20*%
X161324000Y-156324000D02*
X166424000Y-156324000D01*
X157424000Y-152124000D02*
X162524000Y-152124000D01*
X159324000Y-158324000D02*
G75*
G02*
X161324000Y-156324000I2000000J0D01*
G01*
X155424000Y-154124000D02*
G75*
G02*
X157424000Y-152124000I2000000J0D01*
G01*
%TO.C,SW19*%
X185137000Y-156324000D02*
X190237000Y-156324000D01*
X181237000Y-152124000D02*
X186337000Y-152124000D01*
X183137000Y-158324000D02*
G75*
G02*
X185137000Y-156324000I2000000J0D01*
G01*
X179237000Y-154124000D02*
G75*
G02*
X181237000Y-152124000I2000000J0D01*
G01*
%TO.C,SW18*%
X204573000Y-161724000D02*
X199473000Y-161724000D01*
X208473000Y-165924000D02*
X203373000Y-165924000D01*
X206573000Y-159724000D02*
G75*
G02*
X204573000Y-161724000I-2000000J0D01*
G01*
X210473000Y-163924000D02*
G75*
G02*
X208473000Y-165924000I-2000000J0D01*
G01*
%TO.C,SW17*%
X223629000Y-161724000D02*
X218529000Y-161724000D01*
X227529000Y-165924000D02*
X222429000Y-165924000D01*
X225629000Y-159724000D02*
G75*
G02*
X223629000Y-161724000I-2000000J0D01*
G01*
X229529000Y-163924000D02*
G75*
G02*
X227529000Y-165924000I-2000000J0D01*
G01*
%TO.C,SW16*%
X187519000Y-256337000D02*
X192619000Y-256337000D01*
X183619000Y-252137000D02*
X188719000Y-252137000D01*
X185519000Y-258337000D02*
G75*
G02*
X187519000Y-256337000I2000000J0D01*
G01*
X181619000Y-254137000D02*
G75*
G02*
X183619000Y-252137000I2000000J0D01*
G01*
%TO.C,SW15*%
X232763000Y-218239000D02*
X237863000Y-218239000D01*
X228863000Y-214039000D02*
X233963000Y-214039000D01*
X230763000Y-220239000D02*
G75*
G02*
X232763000Y-218239000I2000000J0D01*
G01*
X226863000Y-216039000D02*
G75*
G02*
X228863000Y-214039000I2000000J0D01*
G01*
%TO.C,SW14*%
X333283000Y-185529000D02*
X328183000Y-185529000D01*
X337183000Y-189729000D02*
X332083000Y-189729000D01*
X335283000Y-183529000D02*
G75*
G02*
X333283000Y-185529000I-2000000J0D01*
G01*
X339183000Y-187729000D02*
G75*
G02*
X337183000Y-189729000I-2000000J0D01*
G01*
%TO.C,SW13*%
X247120000Y-199192000D02*
X252220000Y-199192000D01*
X243220000Y-194992000D02*
X248320000Y-194992000D01*
X245120000Y-201192000D02*
G75*
G02*
X247120000Y-199192000I2000000J0D01*
G01*
X241220000Y-196992000D02*
G75*
G02*
X243220000Y-194992000I2000000J0D01*
G01*
%TO.C,SW12*%
X413736000Y-259400000D02*
X418836000Y-259400000D01*
X409836000Y-255200000D02*
X414936000Y-255200000D01*
X411736000Y-261400000D02*
G75*
G02*
X413736000Y-259400000I2000000J0D01*
G01*
X407836000Y-257200000D02*
G75*
G02*
X409836000Y-255200000I2000000J0D01*
G01*
%TO.C,SW11*%
X204187000Y-237292000D02*
X209287000Y-237292000D01*
X200287000Y-233092000D02*
X205387000Y-233092000D01*
X202187000Y-239292000D02*
G75*
G02*
X204187000Y-237292000I2000000J0D01*
G01*
X198287000Y-235092000D02*
G75*
G02*
X200287000Y-233092000I2000000J0D01*
G01*
%TO.C,SW10*%
X228019000Y-199192000D02*
X233119000Y-199192000D01*
X224119000Y-194992000D02*
X229219000Y-194992000D01*
X226019000Y-201192000D02*
G75*
G02*
X228019000Y-199192000I2000000J0D01*
G01*
X222119000Y-196992000D02*
G75*
G02*
X224119000Y-194992000I2000000J0D01*
G01*
%TO.C,SW9*%
X323307000Y-199192000D02*
X328407000Y-199192000D01*
X319407000Y-194992000D02*
X324507000Y-194992000D01*
X321307000Y-201192000D02*
G75*
G02*
X323307000Y-199192000I2000000J0D01*
G01*
X317407000Y-196992000D02*
G75*
G02*
X319407000Y-194992000I2000000J0D01*
G01*
%TO.C,SW8*%
X280432000Y-237292000D02*
X285532000Y-237292000D01*
X276532000Y-233092000D02*
X281632000Y-233092000D01*
X278432000Y-239292000D02*
G75*
G02*
X280432000Y-237292000I2000000J0D01*
G01*
X274532000Y-235092000D02*
G75*
G02*
X276532000Y-233092000I2000000J0D01*
G01*
%TO.C,SW7*%
X282766000Y-256337000D02*
X287866000Y-256337000D01*
X278866000Y-252137000D02*
X283966000Y-252137000D01*
X280766000Y-258337000D02*
G75*
G02*
X282766000Y-256337000I2000000J0D01*
G01*
X276866000Y-254137000D02*
G75*
G02*
X278866000Y-252137000I2000000J0D01*
G01*
%TO.C,SW6*%
X432781000Y-259397000D02*
X437881000Y-259397000D01*
X428881000Y-255197000D02*
X433981000Y-255197000D01*
X430781000Y-261397000D02*
G75*
G02*
X432781000Y-259397000I2000000J0D01*
G01*
X426881000Y-257197000D02*
G75*
G02*
X428881000Y-255197000I2000000J0D01*
G01*
%TO.C,SW5*%
X318532000Y-237292000D02*
X323632000Y-237292000D01*
X314632000Y-233092000D02*
X319732000Y-233092000D01*
X316532000Y-239292000D02*
G75*
G02*
X318532000Y-237292000I2000000J0D01*
G01*
X312632000Y-235092000D02*
G75*
G02*
X314632000Y-233092000I2000000J0D01*
G01*
%TO.C,SW4*%
X261382000Y-237292000D02*
X266482000Y-237292000D01*
X257482000Y-233092000D02*
X262582000Y-233092000D01*
X259382000Y-239292000D02*
G75*
G02*
X261382000Y-237292000I2000000J0D01*
G01*
X255482000Y-235092000D02*
G75*
G02*
X257482000Y-233092000I2000000J0D01*
G01*
%TO.C,SW3*%
X242332000Y-237292000D02*
X247432000Y-237292000D01*
X238432000Y-233092000D02*
X243532000Y-233092000D01*
X240332000Y-239292000D02*
G75*
G02*
X242332000Y-237292000I2000000J0D01*
G01*
X236432000Y-235092000D02*
G75*
G02*
X238432000Y-233092000I2000000J0D01*
G01*
%TO.C,SW2*%
X299482000Y-237292000D02*
X304582000Y-237292000D01*
X295582000Y-233092000D02*
X300682000Y-233092000D01*
X297482000Y-239292000D02*
G75*
G02*
X299482000Y-237292000I2000000J0D01*
G01*
X293582000Y-235092000D02*
G75*
G02*
X295582000Y-233092000I2000000J0D01*
G01*
%TO.C,SW1*%
X451840000Y-259400000D02*
X456940000Y-259400000D01*
X447940000Y-255200000D02*
X453040000Y-255200000D01*
X449840000Y-261400000D02*
G75*
G02*
X451840000Y-259400000I2000000J0D01*
G01*
X445940000Y-257200000D02*
G75*
G02*
X447940000Y-255200000I2000000J0D01*
G01*
%TO.C,Y1*%
X305555000Y-267593000D02*
X305555000Y-261193000D01*
X310605000Y-267593000D02*
X310605000Y-261193000D01*
X305555000Y-261193000D02*
G75*
G02*
X310605000Y-261193000I2525000J0D01*
G01*
X305555000Y-267593000D02*
G75*
G03*
X310605000Y-267593000I2525000J0D01*
G01*
%TO.C,U12*%
X328581000Y-262101000D02*
X328581000Y-263391000D01*
X329031000Y-262101000D02*
X328581000Y-262101000D01*
X329031000Y-261651000D02*
X329031000Y-262101000D01*
X329031000Y-254881000D02*
X328581000Y-254881000D01*
X329031000Y-255331000D02*
X329031000Y-254881000D01*
X321811000Y-262101000D02*
X322261000Y-262101000D01*
X321811000Y-261651000D02*
X321811000Y-262101000D01*
X321811000Y-254881000D02*
X322261000Y-254881000D01*
X321811000Y-255331000D02*
X321811000Y-254881000D01*
%TO.C,U11*%
X438765000Y-179675000D02*
X438765000Y-181340000D01*
X439020000Y-179675000D02*
X438765000Y-179675000D01*
X439020000Y-177290000D02*
X439020000Y-179675000D01*
X439020000Y-174905000D02*
X438765000Y-174905000D01*
X439020000Y-177290000D02*
X439020000Y-174905000D01*
X428500000Y-179675000D02*
X428755000Y-179675000D01*
X428500000Y-177290000D02*
X428500000Y-179675000D01*
X428500000Y-174905000D02*
X428755000Y-174905000D01*
X428500000Y-177290000D02*
X428500000Y-174905000D01*
%TO.C,U10*%
X432915000Y-218955000D02*
X432915000Y-217290000D01*
X432660000Y-218955000D02*
X432915000Y-218955000D01*
X432660000Y-221340000D02*
X432660000Y-218955000D01*
X432660000Y-223725000D02*
X432915000Y-223725000D01*
X432660000Y-221340000D02*
X432660000Y-223725000D01*
X443180000Y-218955000D02*
X442925000Y-218955000D01*
X443180000Y-221340000D02*
X443180000Y-218955000D01*
X443180000Y-223725000D02*
X442925000Y-223725000D01*
X443180000Y-221340000D02*
X443180000Y-223725000D01*
%TO.C,U9*%
X398005000Y-227645000D02*
X396340000Y-227645000D01*
X398005000Y-227900000D02*
X398005000Y-227645000D01*
X400390000Y-227900000D02*
X398005000Y-227900000D01*
X402775000Y-227900000D02*
X402775000Y-227645000D01*
X400390000Y-227900000D02*
X402775000Y-227900000D01*
X398005000Y-217380000D02*
X398005000Y-217635000D01*
X400390000Y-217380000D02*
X398005000Y-217380000D01*
X402775000Y-217380000D02*
X402775000Y-217635000D01*
X400390000Y-217380000D02*
X402775000Y-217380000D01*
%TO.C,U8*%
X434405000Y-196485000D02*
X434405000Y-194820000D01*
X434150000Y-196485000D02*
X434405000Y-196485000D01*
X434150000Y-198870000D02*
X434150000Y-196485000D01*
X434150000Y-201255000D02*
X434405000Y-201255000D01*
X434150000Y-198870000D02*
X434150000Y-201255000D01*
X444670000Y-196485000D02*
X444415000Y-196485000D01*
X444670000Y-198870000D02*
X444670000Y-196485000D01*
X444670000Y-201255000D02*
X444415000Y-201255000D01*
X444670000Y-198870000D02*
X444670000Y-201255000D01*
%TO.C,U7*%
X400545000Y-175265000D02*
X400545000Y-173600000D01*
X400290000Y-175265000D02*
X400545000Y-175265000D01*
X400290000Y-177650000D02*
X400290000Y-175265000D01*
X400290000Y-180035000D02*
X400545000Y-180035000D01*
X400290000Y-177650000D02*
X400290000Y-180035000D01*
X410810000Y-175265000D02*
X410555000Y-175265000D01*
X410810000Y-177650000D02*
X410810000Y-175265000D01*
X410810000Y-180035000D02*
X410555000Y-180035000D01*
X410810000Y-177650000D02*
X410810000Y-180035000D01*
%TO.C,U6*%
X375885000Y-169885000D02*
X375885000Y-168220000D01*
X375630000Y-169885000D02*
X375885000Y-169885000D01*
X375630000Y-172270000D02*
X375630000Y-169885000D01*
X375630000Y-174655000D02*
X375885000Y-174655000D01*
X375630000Y-172270000D02*
X375630000Y-174655000D01*
X386150000Y-169885000D02*
X385895000Y-169885000D01*
X386150000Y-172270000D02*
X386150000Y-169885000D01*
X386150000Y-174655000D02*
X385895000Y-174655000D01*
X386150000Y-172270000D02*
X386150000Y-174655000D01*
%TO.C,U5*%
X330225000Y-166925000D02*
X330225000Y-165260000D01*
X329970000Y-166925000D02*
X330225000Y-166925000D01*
X329970000Y-169310000D02*
X329970000Y-166925000D01*
X329970000Y-171695000D02*
X330225000Y-171695000D01*
X329970000Y-169310000D02*
X329970000Y-171695000D01*
X340490000Y-166925000D02*
X340235000Y-166925000D01*
X340490000Y-169310000D02*
X340490000Y-166925000D01*
X340490000Y-171695000D02*
X340235000Y-171695000D01*
X340490000Y-169310000D02*
X340490000Y-171695000D01*
%TO.C,U4*%
X249055000Y-167375000D02*
X249055000Y-165710000D01*
X248800000Y-167375000D02*
X249055000Y-167375000D01*
X248800000Y-169760000D02*
X248800000Y-167375000D01*
X248800000Y-172145000D02*
X249055000Y-172145000D01*
X248800000Y-169760000D02*
X248800000Y-172145000D01*
X259320000Y-167375000D02*
X259065000Y-167375000D01*
X259320000Y-169760000D02*
X259320000Y-167375000D01*
X259320000Y-172145000D02*
X259065000Y-172145000D01*
X259320000Y-169760000D02*
X259320000Y-172145000D01*
%TO.C,U3*%
X184765000Y-169385000D02*
X184765000Y-167720000D01*
X184510000Y-169385000D02*
X184765000Y-169385000D01*
X184510000Y-171770000D02*
X184510000Y-169385000D01*
X184510000Y-174155000D02*
X184765000Y-174155000D01*
X184510000Y-171770000D02*
X184510000Y-174155000D01*
X195030000Y-169385000D02*
X194775000Y-169385000D01*
X195030000Y-171770000D02*
X195030000Y-169385000D01*
X195030000Y-174155000D02*
X194775000Y-174155000D01*
X195030000Y-171770000D02*
X195030000Y-174155000D01*
%TO.C,U2*%
X229635000Y-260325000D02*
X229635000Y-258660000D01*
X229380000Y-260325000D02*
X229635000Y-260325000D01*
X229380000Y-262710000D02*
X229380000Y-260325000D01*
X229380000Y-265095000D02*
X229635000Y-265095000D01*
X229380000Y-262710000D02*
X229380000Y-265095000D01*
X239900000Y-260325000D02*
X239645000Y-260325000D01*
X239900000Y-262710000D02*
X239900000Y-260325000D01*
X239900000Y-265095000D02*
X239645000Y-265095000D01*
X239900000Y-262710000D02*
X239900000Y-265095000D01*
%TO.C,U1*%
X255265000Y-253055000D02*
X255265000Y-251390000D01*
X255010000Y-253055000D02*
X255265000Y-253055000D01*
X255010000Y-255440000D02*
X255010000Y-253055000D01*
X255010000Y-257825000D02*
X255265000Y-257825000D01*
X255010000Y-255440000D02*
X255010000Y-257825000D01*
X265530000Y-253055000D02*
X265275000Y-253055000D01*
X265530000Y-255440000D02*
X265530000Y-253055000D01*
X265530000Y-257825000D02*
X265275000Y-257825000D01*
X265530000Y-255440000D02*
X265530000Y-257825000D01*
%TO.C,RN22*%
X443040000Y-189470000D02*
X443040000Y-190470000D01*
X439680000Y-189470000D02*
X439680000Y-190470000D01*
%TO.C,RN21*%
X414100000Y-235320000D02*
X414100000Y-234320000D01*
X417460000Y-235320000D02*
X417460000Y-234320000D01*
%TO.C,RN20*%
X408290000Y-231300000D02*
X407290000Y-231300000D01*
X408290000Y-227940000D02*
X407290000Y-227940000D01*
%TO.C,RN19*%
X426680000Y-217560000D02*
X426680000Y-216560000D01*
X430040000Y-217560000D02*
X430040000Y-216560000D01*
%TO.C,RN18*%
X391110000Y-194760000D02*
X391110000Y-193760000D01*
X394470000Y-194760000D02*
X394470000Y-193760000D01*
%TO.C,RN17*%
X393950000Y-173530000D02*
X392950000Y-173530000D01*
X393950000Y-170170000D02*
X392950000Y-170170000D01*
%TO.C,RN16*%
X352700000Y-172230000D02*
X351700000Y-172230000D01*
X352700000Y-168870000D02*
X351700000Y-168870000D01*
%TO.C,RN15*%
X283210000Y-172450000D02*
X282210000Y-172450000D01*
X283210000Y-169090000D02*
X282210000Y-169090000D01*
%TO.C,RN14*%
X202770000Y-172580000D02*
X201770000Y-172580000D01*
X202770000Y-169220000D02*
X201770000Y-169220000D01*
%TO.C,RN13*%
X245920000Y-260310000D02*
X244920000Y-260310000D01*
X245920000Y-256950000D02*
X244920000Y-256950000D01*
%TO.C,RN12*%
X271820000Y-253710000D02*
X270820000Y-253710000D01*
X271820000Y-250350000D02*
X270820000Y-250350000D01*
%TO.C,RN11*%
X440340000Y-160830000D02*
X440340000Y-159830000D01*
X443700000Y-160830000D02*
X443700000Y-159830000D01*
%TO.C,RN10*%
X426830000Y-232880000D02*
X426830000Y-233880000D01*
X423470000Y-232880000D02*
X423470000Y-233880000D01*
%TO.C,RN9*%
X400800000Y-212150000D02*
X400800000Y-213150000D01*
X397440000Y-212150000D02*
X397440000Y-213150000D01*
%TO.C,RN8*%
X430160000Y-190580000D02*
X430160000Y-191580000D01*
X426800000Y-190580000D02*
X426800000Y-191580000D01*
%TO.C,RN7*%
X409720000Y-189080000D02*
X409720000Y-190080000D01*
X406360000Y-189080000D02*
X406360000Y-190080000D01*
%TO.C,RN6*%
X370770000Y-170210000D02*
X371770000Y-170210000D01*
X370770000Y-173570000D02*
X371770000Y-173570000D01*
%TO.C,RN5*%
X321030000Y-168870000D02*
X322030000Y-168870000D01*
X321030000Y-172230000D02*
X322030000Y-172230000D01*
%TO.C,RN4*%
X269460000Y-171020000D02*
X269460000Y-172020000D01*
X266100000Y-171020000D02*
X266100000Y-172020000D01*
%TO.C,RN3*%
X174990000Y-163890000D02*
X175990000Y-163890000D01*
X174990000Y-167250000D02*
X175990000Y-167250000D01*
%TO.C,RN2*%
X223590000Y-256940000D02*
X224590000Y-256940000D01*
X223590000Y-260300000D02*
X224590000Y-260300000D01*
%TO.C,RN1*%
X249440000Y-250830000D02*
X250440000Y-250830000D01*
X249440000Y-254190000D02*
X250440000Y-254190000D01*
%TO.C,J2*%
X209906000Y-153070000D02*
X209906000Y-151270000D01*
X209906000Y-147560000D02*
X209906000Y-149020000D01*
X218846000Y-147560000D02*
X218846000Y-149020000D01*
X218846000Y-153070000D02*
X218846000Y-151270000D01*
X218846000Y-147560000D02*
X209906000Y-147560000D01*
%TO.C,J1*%
X430221000Y-228784000D02*
X430221000Y-230114000D01*
X431551000Y-228784000D02*
X430221000Y-228784000D01*
X432821000Y-228784000D02*
X432821000Y-231444000D01*
X432821000Y-231444000D02*
X440501000Y-231444000D01*
X432821000Y-228784000D02*
X440501000Y-228784000D01*
X440501000Y-228784000D02*
X440501000Y-231444000D01*
%TO.C,U13*%
D11*
X229958095Y-176782380D02*
X229958095Y-177591904D01*
X229910476Y-177687142D01*
X229862857Y-177734761D01*
X229767619Y-177782380D01*
X229577142Y-177782380D01*
X229481904Y-177734761D01*
X229434285Y-177687142D01*
X229386666Y-177591904D01*
X229386666Y-176782380D01*
X228386666Y-177782380D02*
X228958095Y-177782380D01*
X228672380Y-177782380D02*
X228672380Y-176782380D01*
X228767619Y-176925238D01*
X228862857Y-177020476D01*
X228958095Y-177068095D01*
X228053333Y-176782380D02*
X227434285Y-176782380D01*
X227767619Y-177163333D01*
X227624761Y-177163333D01*
X227529523Y-177210952D01*
X227481904Y-177258571D01*
X227434285Y-177353809D01*
X227434285Y-177591904D01*
X227481904Y-177687142D01*
X227529523Y-177734761D01*
X227624761Y-177782380D01*
X227910476Y-177782380D01*
X228005714Y-177734761D01*
X228053333Y-177687142D01*
%TO.C,C12*%
D12*
X241907714Y-171698114D02*
X241936742Y-171669085D01*
X241965771Y-171582000D01*
X241965771Y-171523942D01*
X241936742Y-171436857D01*
X241878685Y-171378800D01*
X241820628Y-171349771D01*
X241704514Y-171320742D01*
X241617428Y-171320742D01*
X241501314Y-171349771D01*
X241443257Y-171378800D01*
X241385200Y-171436857D01*
X241356171Y-171523942D01*
X241356171Y-171582000D01*
X241385200Y-171669085D01*
X241414228Y-171698114D01*
X241965771Y-172278685D02*
X241965771Y-171930342D01*
X241965771Y-172104514D02*
X241356171Y-172104514D01*
X241443257Y-172046457D01*
X241501314Y-171988400D01*
X241530342Y-171930342D01*
X241414228Y-172510914D02*
X241385200Y-172539942D01*
X241356171Y-172598000D01*
X241356171Y-172743142D01*
X241385200Y-172801200D01*
X241414228Y-172830228D01*
X241472285Y-172859257D01*
X241530342Y-172859257D01*
X241617428Y-172830228D01*
X241965771Y-172481885D01*
X241965771Y-172859257D01*
X238816171Y-171175600D02*
X238816171Y-171233657D01*
X238845200Y-171291714D01*
X238874228Y-171320742D01*
X238932285Y-171349771D01*
X239048400Y-171378800D01*
X239193542Y-171378800D01*
X239309657Y-171349771D01*
X239367714Y-171320742D01*
X239396742Y-171291714D01*
X239425771Y-171233657D01*
X239425771Y-171175600D01*
X239396742Y-171117542D01*
X239367714Y-171088514D01*
X239309657Y-171059485D01*
X239193542Y-171030457D01*
X239048400Y-171030457D01*
X238932285Y-171059485D01*
X238874228Y-171088514D01*
X238845200Y-171117542D01*
X238816171Y-171175600D01*
X239367714Y-171640057D02*
X239396742Y-171669085D01*
X239425771Y-171640057D01*
X239396742Y-171611028D01*
X239367714Y-171640057D01*
X239425771Y-171640057D01*
X239425771Y-172249657D02*
X239425771Y-171901314D01*
X239425771Y-172075485D02*
X238816171Y-172075485D01*
X238903257Y-172017428D01*
X238961314Y-171959371D01*
X238990342Y-171901314D01*
X239019371Y-172772171D02*
X239425771Y-172772171D01*
X239019371Y-172510914D02*
X239338685Y-172510914D01*
X239396742Y-172539942D01*
X239425771Y-172598000D01*
X239425771Y-172685085D01*
X239396742Y-172743142D01*
X239367714Y-172772171D01*
X239019371Y-172975371D02*
X239019371Y-173207600D01*
X239425771Y-173062457D02*
X238903257Y-173062457D01*
X238845200Y-173091485D01*
X238816171Y-173149542D01*
X238816171Y-173207600D01*
%TO.C,C11*%
X237907714Y-171698114D02*
X237936742Y-171669085D01*
X237965771Y-171582000D01*
X237965771Y-171523942D01*
X237936742Y-171436857D01*
X237878685Y-171378800D01*
X237820628Y-171349771D01*
X237704514Y-171320742D01*
X237617428Y-171320742D01*
X237501314Y-171349771D01*
X237443257Y-171378800D01*
X237385200Y-171436857D01*
X237356171Y-171523942D01*
X237356171Y-171582000D01*
X237385200Y-171669085D01*
X237414228Y-171698114D01*
X237965771Y-172278685D02*
X237965771Y-171930342D01*
X237965771Y-172104514D02*
X237356171Y-172104514D01*
X237443257Y-172046457D01*
X237501314Y-171988400D01*
X237530342Y-171930342D01*
X237965771Y-172859257D02*
X237965771Y-172510914D01*
X237965771Y-172685085D02*
X237356171Y-172685085D01*
X237443257Y-172627028D01*
X237501314Y-172568971D01*
X237530342Y-172510914D01*
X235425771Y-171523942D02*
X235425771Y-171175600D01*
X235425771Y-171349771D02*
X234816171Y-171349771D01*
X234903257Y-171291714D01*
X234961314Y-171233657D01*
X234990342Y-171175600D01*
X234816171Y-171901314D02*
X234816171Y-171959371D01*
X234845200Y-172017428D01*
X234874228Y-172046457D01*
X234932285Y-172075485D01*
X235048400Y-172104514D01*
X235193542Y-172104514D01*
X235309657Y-172075485D01*
X235367714Y-172046457D01*
X235396742Y-172017428D01*
X235425771Y-171959371D01*
X235425771Y-171901314D01*
X235396742Y-171843257D01*
X235367714Y-171814228D01*
X235309657Y-171785200D01*
X235193542Y-171756171D01*
X235048400Y-171756171D01*
X234932285Y-171785200D01*
X234874228Y-171814228D01*
X234845200Y-171843257D01*
X234816171Y-171901314D01*
X235019371Y-172627028D02*
X235425771Y-172627028D01*
X235019371Y-172365771D02*
X235338685Y-172365771D01*
X235396742Y-172394800D01*
X235425771Y-172452857D01*
X235425771Y-172539942D01*
X235396742Y-172598000D01*
X235367714Y-172627028D01*
X235019371Y-172830228D02*
X235019371Y-173062457D01*
X235425771Y-172917314D02*
X234903257Y-172917314D01*
X234845200Y-172946342D01*
X234816171Y-173004400D01*
X234816171Y-173062457D01*
%TO.C,C10*%
X223407714Y-171238114D02*
X223436742Y-171209085D01*
X223465771Y-171122000D01*
X223465771Y-171063942D01*
X223436742Y-170976857D01*
X223378685Y-170918800D01*
X223320628Y-170889771D01*
X223204514Y-170860742D01*
X223117428Y-170860742D01*
X223001314Y-170889771D01*
X222943257Y-170918800D01*
X222885200Y-170976857D01*
X222856171Y-171063942D01*
X222856171Y-171122000D01*
X222885200Y-171209085D01*
X222914228Y-171238114D01*
X223465771Y-171818685D02*
X223465771Y-171470342D01*
X223465771Y-171644514D02*
X222856171Y-171644514D01*
X222943257Y-171586457D01*
X223001314Y-171528400D01*
X223030342Y-171470342D01*
X222856171Y-172196057D02*
X222856171Y-172254114D01*
X222885200Y-172312171D01*
X222914228Y-172341200D01*
X222972285Y-172370228D01*
X223088400Y-172399257D01*
X223233542Y-172399257D01*
X223349657Y-172370228D01*
X223407714Y-172341200D01*
X223436742Y-172312171D01*
X223465771Y-172254114D01*
X223465771Y-172196057D01*
X223436742Y-172138000D01*
X223407714Y-172108971D01*
X223349657Y-172079942D01*
X223233542Y-172050914D01*
X223088400Y-172050914D01*
X222972285Y-172079942D01*
X222914228Y-172108971D01*
X222885200Y-172138000D01*
X222856171Y-172196057D01*
X220316171Y-170715600D02*
X220316171Y-170773657D01*
X220345200Y-170831714D01*
X220374228Y-170860742D01*
X220432285Y-170889771D01*
X220548400Y-170918800D01*
X220693542Y-170918800D01*
X220809657Y-170889771D01*
X220867714Y-170860742D01*
X220896742Y-170831714D01*
X220925771Y-170773657D01*
X220925771Y-170715600D01*
X220896742Y-170657542D01*
X220867714Y-170628514D01*
X220809657Y-170599485D01*
X220693542Y-170570457D01*
X220548400Y-170570457D01*
X220432285Y-170599485D01*
X220374228Y-170628514D01*
X220345200Y-170657542D01*
X220316171Y-170715600D01*
X220867714Y-171180057D02*
X220896742Y-171209085D01*
X220925771Y-171180057D01*
X220896742Y-171151028D01*
X220867714Y-171180057D01*
X220925771Y-171180057D01*
X220925771Y-171789657D02*
X220925771Y-171441314D01*
X220925771Y-171615485D02*
X220316171Y-171615485D01*
X220403257Y-171557428D01*
X220461314Y-171499371D01*
X220490342Y-171441314D01*
X220519371Y-172312171D02*
X220925771Y-172312171D01*
X220519371Y-172050914D02*
X220838685Y-172050914D01*
X220896742Y-172079942D01*
X220925771Y-172138000D01*
X220925771Y-172225085D01*
X220896742Y-172283142D01*
X220867714Y-172312171D01*
X220519371Y-172515371D02*
X220519371Y-172747600D01*
X220925771Y-172602457D02*
X220403257Y-172602457D01*
X220345200Y-172631485D01*
X220316171Y-172689542D01*
X220316171Y-172747600D01*
%TO.C,C9*%
X220107714Y-171528400D02*
X220136742Y-171499371D01*
X220165771Y-171412285D01*
X220165771Y-171354228D01*
X220136742Y-171267142D01*
X220078685Y-171209085D01*
X220020628Y-171180057D01*
X219904514Y-171151028D01*
X219817428Y-171151028D01*
X219701314Y-171180057D01*
X219643257Y-171209085D01*
X219585200Y-171267142D01*
X219556171Y-171354228D01*
X219556171Y-171412285D01*
X219585200Y-171499371D01*
X219614228Y-171528400D01*
X220165771Y-171818685D02*
X220165771Y-171934800D01*
X220136742Y-171992857D01*
X220107714Y-172021885D01*
X220020628Y-172079942D01*
X219904514Y-172108971D01*
X219672285Y-172108971D01*
X219614228Y-172079942D01*
X219585200Y-172050914D01*
X219556171Y-171992857D01*
X219556171Y-171876742D01*
X219585200Y-171818685D01*
X219614228Y-171789657D01*
X219672285Y-171760628D01*
X219817428Y-171760628D01*
X219875485Y-171789657D01*
X219904514Y-171818685D01*
X219933542Y-171876742D01*
X219933542Y-171992857D01*
X219904514Y-172050914D01*
X219875485Y-172079942D01*
X219817428Y-172108971D01*
X217625771Y-171063942D02*
X217625771Y-170715600D01*
X217625771Y-170889771D02*
X217016171Y-170889771D01*
X217103257Y-170831714D01*
X217161314Y-170773657D01*
X217190342Y-170715600D01*
X217016171Y-171441314D02*
X217016171Y-171499371D01*
X217045200Y-171557428D01*
X217074228Y-171586457D01*
X217132285Y-171615485D01*
X217248400Y-171644514D01*
X217393542Y-171644514D01*
X217509657Y-171615485D01*
X217567714Y-171586457D01*
X217596742Y-171557428D01*
X217625771Y-171499371D01*
X217625771Y-171441314D01*
X217596742Y-171383257D01*
X217567714Y-171354228D01*
X217509657Y-171325200D01*
X217393542Y-171296171D01*
X217248400Y-171296171D01*
X217132285Y-171325200D01*
X217074228Y-171354228D01*
X217045200Y-171383257D01*
X217016171Y-171441314D01*
X217219371Y-172167028D02*
X217625771Y-172167028D01*
X217219371Y-171905771D02*
X217538685Y-171905771D01*
X217596742Y-171934800D01*
X217625771Y-171992857D01*
X217625771Y-172079942D01*
X217596742Y-172138000D01*
X217567714Y-172167028D01*
X217219371Y-172370228D02*
X217219371Y-172602457D01*
X217625771Y-172457314D02*
X217103257Y-172457314D01*
X217045200Y-172486342D01*
X217016171Y-172544400D01*
X217016171Y-172602457D01*
%TO.C,Y1*%
D11*
X311581190Y-263916809D02*
X312057380Y-263916809D01*
X311057380Y-263583476D02*
X311581190Y-263916809D01*
X311057380Y-264250142D01*
X312057380Y-265107285D02*
X312057380Y-264535857D01*
X312057380Y-264821571D02*
X311057380Y-264821571D01*
X311200238Y-264726333D01*
X311295476Y-264631095D01*
X311343095Y-264535857D01*
%TO.C,U12*%
X331258095Y-262382380D02*
X331258095Y-263191904D01*
X331210476Y-263287142D01*
X331162857Y-263334761D01*
X331067619Y-263382380D01*
X330877142Y-263382380D01*
X330781904Y-263334761D01*
X330734285Y-263287142D01*
X330686666Y-263191904D01*
X330686666Y-262382380D01*
X329686666Y-263382380D02*
X330258095Y-263382380D01*
X329972380Y-263382380D02*
X329972380Y-262382380D01*
X330067619Y-262525238D01*
X330162857Y-262620476D01*
X330258095Y-262668095D01*
X329305714Y-262477619D02*
X329258095Y-262430000D01*
X329162857Y-262382380D01*
X328924761Y-262382380D01*
X328829523Y-262430000D01*
X328781904Y-262477619D01*
X328734285Y-262572857D01*
X328734285Y-262668095D01*
X328781904Y-262810952D01*
X329353333Y-263382380D01*
X328734285Y-263382380D01*
%TO.C,U11*%
X439312380Y-176051904D02*
X440121904Y-176051904D01*
X440217142Y-176099523D01*
X440264761Y-176147142D01*
X440312380Y-176242380D01*
X440312380Y-176432857D01*
X440264761Y-176528095D01*
X440217142Y-176575714D01*
X440121904Y-176623333D01*
X439312380Y-176623333D01*
X440312380Y-177623333D02*
X440312380Y-177051904D01*
X440312380Y-177337619D02*
X439312380Y-177337619D01*
X439455238Y-177242380D01*
X439550476Y-177147142D01*
X439598095Y-177051904D01*
X440312380Y-178575714D02*
X440312380Y-178004285D01*
X440312380Y-178290000D02*
X439312380Y-178290000D01*
X439455238Y-178194761D01*
X439550476Y-178099523D01*
X439598095Y-178004285D01*
%TO.C,U10*%
X431272380Y-220101904D02*
X432081904Y-220101904D01*
X432177142Y-220149523D01*
X432224761Y-220197142D01*
X432272380Y-220292380D01*
X432272380Y-220482857D01*
X432224761Y-220578095D01*
X432177142Y-220625714D01*
X432081904Y-220673333D01*
X431272380Y-220673333D01*
X432272380Y-221673333D02*
X432272380Y-221101904D01*
X432272380Y-221387619D02*
X431272380Y-221387619D01*
X431415238Y-221292380D01*
X431510476Y-221197142D01*
X431558095Y-221101904D01*
X431272380Y-222292380D02*
X431272380Y-222387619D01*
X431320000Y-222482857D01*
X431367619Y-222530476D01*
X431462857Y-222578095D01*
X431653333Y-222625714D01*
X431891428Y-222625714D01*
X432081904Y-222578095D01*
X432177142Y-222530476D01*
X432224761Y-222482857D01*
X432272380Y-222387619D01*
X432272380Y-222292380D01*
X432224761Y-222197142D01*
X432177142Y-222149523D01*
X432081904Y-222101904D01*
X431891428Y-222054285D01*
X431653333Y-222054285D01*
X431462857Y-222101904D01*
X431367619Y-222149523D01*
X431320000Y-222197142D01*
X431272380Y-222292380D01*
%TO.C,U9*%
X401151904Y-228192380D02*
X401151904Y-229001904D01*
X401104285Y-229097142D01*
X401056666Y-229144761D01*
X400961428Y-229192380D01*
X400770952Y-229192380D01*
X400675714Y-229144761D01*
X400628095Y-229097142D01*
X400580476Y-229001904D01*
X400580476Y-228192380D01*
X400056666Y-229192380D02*
X399866190Y-229192380D01*
X399770952Y-229144761D01*
X399723333Y-229097142D01*
X399628095Y-228954285D01*
X399580476Y-228763809D01*
X399580476Y-228382857D01*
X399628095Y-228287619D01*
X399675714Y-228240000D01*
X399770952Y-228192380D01*
X399961428Y-228192380D01*
X400056666Y-228240000D01*
X400104285Y-228287619D01*
X400151904Y-228382857D01*
X400151904Y-228620952D01*
X400104285Y-228716190D01*
X400056666Y-228763809D01*
X399961428Y-228811428D01*
X399770952Y-228811428D01*
X399675714Y-228763809D01*
X399628095Y-228716190D01*
X399580476Y-228620952D01*
%TO.C,U8*%
X432762380Y-198108095D02*
X433571904Y-198108095D01*
X433667142Y-198155714D01*
X433714761Y-198203333D01*
X433762380Y-198298571D01*
X433762380Y-198489047D01*
X433714761Y-198584285D01*
X433667142Y-198631904D01*
X433571904Y-198679523D01*
X432762380Y-198679523D01*
X433190952Y-199298571D02*
X433143333Y-199203333D01*
X433095714Y-199155714D01*
X433000476Y-199108095D01*
X432952857Y-199108095D01*
X432857619Y-199155714D01*
X432810000Y-199203333D01*
X432762380Y-199298571D01*
X432762380Y-199489047D01*
X432810000Y-199584285D01*
X432857619Y-199631904D01*
X432952857Y-199679523D01*
X433000476Y-199679523D01*
X433095714Y-199631904D01*
X433143333Y-199584285D01*
X433190952Y-199489047D01*
X433190952Y-199298571D01*
X433238571Y-199203333D01*
X433286190Y-199155714D01*
X433381428Y-199108095D01*
X433571904Y-199108095D01*
X433667142Y-199155714D01*
X433714761Y-199203333D01*
X433762380Y-199298571D01*
X433762380Y-199489047D01*
X433714761Y-199584285D01*
X433667142Y-199631904D01*
X433571904Y-199679523D01*
X433381428Y-199679523D01*
X433286190Y-199631904D01*
X433238571Y-199584285D01*
X433190952Y-199489047D01*
%TO.C,U7*%
X398902380Y-176888095D02*
X399711904Y-176888095D01*
X399807142Y-176935714D01*
X399854761Y-176983333D01*
X399902380Y-177078571D01*
X399902380Y-177269047D01*
X399854761Y-177364285D01*
X399807142Y-177411904D01*
X399711904Y-177459523D01*
X398902380Y-177459523D01*
X398902380Y-177840476D02*
X398902380Y-178507142D01*
X399902380Y-178078571D01*
%TO.C,U6*%
X374242380Y-171508095D02*
X375051904Y-171508095D01*
X375147142Y-171555714D01*
X375194761Y-171603333D01*
X375242380Y-171698571D01*
X375242380Y-171889047D01*
X375194761Y-171984285D01*
X375147142Y-172031904D01*
X375051904Y-172079523D01*
X374242380Y-172079523D01*
X374242380Y-172984285D02*
X374242380Y-172793809D01*
X374290000Y-172698571D01*
X374337619Y-172650952D01*
X374480476Y-172555714D01*
X374670952Y-172508095D01*
X375051904Y-172508095D01*
X375147142Y-172555714D01*
X375194761Y-172603333D01*
X375242380Y-172698571D01*
X375242380Y-172889047D01*
X375194761Y-172984285D01*
X375147142Y-173031904D01*
X375051904Y-173079523D01*
X374813809Y-173079523D01*
X374718571Y-173031904D01*
X374670952Y-172984285D01*
X374623333Y-172889047D01*
X374623333Y-172698571D01*
X374670952Y-172603333D01*
X374718571Y-172555714D01*
X374813809Y-172508095D01*
%TO.C,U5*%
X328582380Y-168548095D02*
X329391904Y-168548095D01*
X329487142Y-168595714D01*
X329534761Y-168643333D01*
X329582380Y-168738571D01*
X329582380Y-168929047D01*
X329534761Y-169024285D01*
X329487142Y-169071904D01*
X329391904Y-169119523D01*
X328582380Y-169119523D01*
X328582380Y-170071904D02*
X328582380Y-169595714D01*
X329058571Y-169548095D01*
X329010952Y-169595714D01*
X328963333Y-169690952D01*
X328963333Y-169929047D01*
X329010952Y-170024285D01*
X329058571Y-170071904D01*
X329153809Y-170119523D01*
X329391904Y-170119523D01*
X329487142Y-170071904D01*
X329534761Y-170024285D01*
X329582380Y-169929047D01*
X329582380Y-169690952D01*
X329534761Y-169595714D01*
X329487142Y-169548095D01*
%TO.C,U4*%
X247412380Y-168998095D02*
X248221904Y-168998095D01*
X248317142Y-169045714D01*
X248364761Y-169093333D01*
X248412380Y-169188571D01*
X248412380Y-169379047D01*
X248364761Y-169474285D01*
X248317142Y-169521904D01*
X248221904Y-169569523D01*
X247412380Y-169569523D01*
X247745714Y-170474285D02*
X248412380Y-170474285D01*
X247364761Y-170236190D02*
X248079047Y-169998095D01*
X248079047Y-170617142D01*
%TO.C,U3*%
X183122380Y-171008095D02*
X183931904Y-171008095D01*
X184027142Y-171055714D01*
X184074761Y-171103333D01*
X184122380Y-171198571D01*
X184122380Y-171389047D01*
X184074761Y-171484285D01*
X184027142Y-171531904D01*
X183931904Y-171579523D01*
X183122380Y-171579523D01*
X183122380Y-171960476D02*
X183122380Y-172579523D01*
X183503333Y-172246190D01*
X183503333Y-172389047D01*
X183550952Y-172484285D01*
X183598571Y-172531904D01*
X183693809Y-172579523D01*
X183931904Y-172579523D01*
X184027142Y-172531904D01*
X184074761Y-172484285D01*
X184122380Y-172389047D01*
X184122380Y-172103333D01*
X184074761Y-172008095D01*
X184027142Y-171960476D01*
%TO.C,U2*%
X227992380Y-261948095D02*
X228801904Y-261948095D01*
X228897142Y-261995714D01*
X228944761Y-262043333D01*
X228992380Y-262138571D01*
X228992380Y-262329047D01*
X228944761Y-262424285D01*
X228897142Y-262471904D01*
X228801904Y-262519523D01*
X227992380Y-262519523D01*
X228087619Y-262948095D02*
X228040000Y-262995714D01*
X227992380Y-263090952D01*
X227992380Y-263329047D01*
X228040000Y-263424285D01*
X228087619Y-263471904D01*
X228182857Y-263519523D01*
X228278095Y-263519523D01*
X228420952Y-263471904D01*
X228992380Y-262900476D01*
X228992380Y-263519523D01*
%TO.C,U1*%
X253622380Y-254678095D02*
X254431904Y-254678095D01*
X254527142Y-254725714D01*
X254574761Y-254773333D01*
X254622380Y-254868571D01*
X254622380Y-255059047D01*
X254574761Y-255154285D01*
X254527142Y-255201904D01*
X254431904Y-255249523D01*
X253622380Y-255249523D01*
X254622380Y-256249523D02*
X254622380Y-255678095D01*
X254622380Y-255963809D02*
X253622380Y-255963809D01*
X253765238Y-255868571D01*
X253860476Y-255773333D01*
X253908095Y-255678095D01*
%TO.C,RN22*%
X444612380Y-188803333D02*
X444136190Y-188470000D01*
X444612380Y-188231904D02*
X443612380Y-188231904D01*
X443612380Y-188612857D01*
X443660000Y-188708095D01*
X443707619Y-188755714D01*
X443802857Y-188803333D01*
X443945714Y-188803333D01*
X444040952Y-188755714D01*
X444088571Y-188708095D01*
X444136190Y-188612857D01*
X444136190Y-188231904D01*
X444612380Y-189231904D02*
X443612380Y-189231904D01*
X444612380Y-189803333D01*
X443612380Y-189803333D01*
X443707619Y-190231904D02*
X443660000Y-190279523D01*
X443612380Y-190374761D01*
X443612380Y-190612857D01*
X443660000Y-190708095D01*
X443707619Y-190755714D01*
X443802857Y-190803333D01*
X443898095Y-190803333D01*
X444040952Y-190755714D01*
X444612380Y-190184285D01*
X444612380Y-190803333D01*
X443707619Y-191184285D02*
X443660000Y-191231904D01*
X443612380Y-191327142D01*
X443612380Y-191565238D01*
X443660000Y-191660476D01*
X443707619Y-191708095D01*
X443802857Y-191755714D01*
X443898095Y-191755714D01*
X444040952Y-191708095D01*
X444612380Y-191136666D01*
X444612380Y-191755714D01*
%TO.C,RN21*%
X413432380Y-233653333D02*
X412956190Y-233320000D01*
X413432380Y-233081904D02*
X412432380Y-233081904D01*
X412432380Y-233462857D01*
X412480000Y-233558095D01*
X412527619Y-233605714D01*
X412622857Y-233653333D01*
X412765714Y-233653333D01*
X412860952Y-233605714D01*
X412908571Y-233558095D01*
X412956190Y-233462857D01*
X412956190Y-233081904D01*
X413432380Y-234081904D02*
X412432380Y-234081904D01*
X413432380Y-234653333D01*
X412432380Y-234653333D01*
X412527619Y-235081904D02*
X412480000Y-235129523D01*
X412432380Y-235224761D01*
X412432380Y-235462857D01*
X412480000Y-235558095D01*
X412527619Y-235605714D01*
X412622857Y-235653333D01*
X412718095Y-235653333D01*
X412860952Y-235605714D01*
X413432380Y-235034285D01*
X413432380Y-235653333D01*
X413432380Y-236605714D02*
X413432380Y-236034285D01*
X413432380Y-236320000D02*
X412432380Y-236320000D01*
X412575238Y-236224761D01*
X412670476Y-236129523D01*
X412718095Y-236034285D01*
%TO.C,RN20*%
X408956666Y-232872380D02*
X409290000Y-232396190D01*
X409528095Y-232872380D02*
X409528095Y-231872380D01*
X409147142Y-231872380D01*
X409051904Y-231920000D01*
X409004285Y-231967619D01*
X408956666Y-232062857D01*
X408956666Y-232205714D01*
X409004285Y-232300952D01*
X409051904Y-232348571D01*
X409147142Y-232396190D01*
X409528095Y-232396190D01*
X408528095Y-232872380D02*
X408528095Y-231872380D01*
X407956666Y-232872380D01*
X407956666Y-231872380D01*
X407528095Y-231967619D02*
X407480476Y-231920000D01*
X407385238Y-231872380D01*
X407147142Y-231872380D01*
X407051904Y-231920000D01*
X407004285Y-231967619D01*
X406956666Y-232062857D01*
X406956666Y-232158095D01*
X407004285Y-232300952D01*
X407575714Y-232872380D01*
X406956666Y-232872380D01*
X406337619Y-231872380D02*
X406242380Y-231872380D01*
X406147142Y-231920000D01*
X406099523Y-231967619D01*
X406051904Y-232062857D01*
X406004285Y-232253333D01*
X406004285Y-232491428D01*
X406051904Y-232681904D01*
X406099523Y-232777142D01*
X406147142Y-232824761D01*
X406242380Y-232872380D01*
X406337619Y-232872380D01*
X406432857Y-232824761D01*
X406480476Y-232777142D01*
X406528095Y-232681904D01*
X406575714Y-232491428D01*
X406575714Y-232253333D01*
X406528095Y-232062857D01*
X406480476Y-231967619D01*
X406432857Y-231920000D01*
X406337619Y-231872380D01*
%TO.C,RN19*%
X426012380Y-215893333D02*
X425536190Y-215560000D01*
X426012380Y-215321904D02*
X425012380Y-215321904D01*
X425012380Y-215702857D01*
X425060000Y-215798095D01*
X425107619Y-215845714D01*
X425202857Y-215893333D01*
X425345714Y-215893333D01*
X425440952Y-215845714D01*
X425488571Y-215798095D01*
X425536190Y-215702857D01*
X425536190Y-215321904D01*
X426012380Y-216321904D02*
X425012380Y-216321904D01*
X426012380Y-216893333D01*
X425012380Y-216893333D01*
X426012380Y-217893333D02*
X426012380Y-217321904D01*
X426012380Y-217607619D02*
X425012380Y-217607619D01*
X425155238Y-217512380D01*
X425250476Y-217417142D01*
X425298095Y-217321904D01*
X426012380Y-218369523D02*
X426012380Y-218560000D01*
X425964761Y-218655238D01*
X425917142Y-218702857D01*
X425774285Y-218798095D01*
X425583809Y-218845714D01*
X425202857Y-218845714D01*
X425107619Y-218798095D01*
X425060000Y-218750476D01*
X425012380Y-218655238D01*
X425012380Y-218464761D01*
X425060000Y-218369523D01*
X425107619Y-218321904D01*
X425202857Y-218274285D01*
X425440952Y-218274285D01*
X425536190Y-218321904D01*
X425583809Y-218369523D01*
X425631428Y-218464761D01*
X425631428Y-218655238D01*
X425583809Y-218750476D01*
X425536190Y-218798095D01*
X425440952Y-218845714D01*
%TO.C,RN18*%
X390442380Y-193093333D02*
X389966190Y-192760000D01*
X390442380Y-192521904D02*
X389442380Y-192521904D01*
X389442380Y-192902857D01*
X389490000Y-192998095D01*
X389537619Y-193045714D01*
X389632857Y-193093333D01*
X389775714Y-193093333D01*
X389870952Y-193045714D01*
X389918571Y-192998095D01*
X389966190Y-192902857D01*
X389966190Y-192521904D01*
X390442380Y-193521904D02*
X389442380Y-193521904D01*
X390442380Y-194093333D01*
X389442380Y-194093333D01*
X390442380Y-195093333D02*
X390442380Y-194521904D01*
X390442380Y-194807619D02*
X389442380Y-194807619D01*
X389585238Y-194712380D01*
X389680476Y-194617142D01*
X389728095Y-194521904D01*
X389870952Y-195664761D02*
X389823333Y-195569523D01*
X389775714Y-195521904D01*
X389680476Y-195474285D01*
X389632857Y-195474285D01*
X389537619Y-195521904D01*
X389490000Y-195569523D01*
X389442380Y-195664761D01*
X389442380Y-195855238D01*
X389490000Y-195950476D01*
X389537619Y-195998095D01*
X389632857Y-196045714D01*
X389680476Y-196045714D01*
X389775714Y-195998095D01*
X389823333Y-195950476D01*
X389870952Y-195855238D01*
X389870952Y-195664761D01*
X389918571Y-195569523D01*
X389966190Y-195521904D01*
X390061428Y-195474285D01*
X390251904Y-195474285D01*
X390347142Y-195521904D01*
X390394761Y-195569523D01*
X390442380Y-195664761D01*
X390442380Y-195855238D01*
X390394761Y-195950476D01*
X390347142Y-195998095D01*
X390251904Y-196045714D01*
X390061428Y-196045714D01*
X389966190Y-195998095D01*
X389918571Y-195950476D01*
X389870952Y-195855238D01*
%TO.C,RN17*%
X394616666Y-175102380D02*
X394950000Y-174626190D01*
X395188095Y-175102380D02*
X395188095Y-174102380D01*
X394807142Y-174102380D01*
X394711904Y-174150000D01*
X394664285Y-174197619D01*
X394616666Y-174292857D01*
X394616666Y-174435714D01*
X394664285Y-174530952D01*
X394711904Y-174578571D01*
X394807142Y-174626190D01*
X395188095Y-174626190D01*
X394188095Y-175102380D02*
X394188095Y-174102380D01*
X393616666Y-175102380D01*
X393616666Y-174102380D01*
X392616666Y-175102380D02*
X393188095Y-175102380D01*
X392902380Y-175102380D02*
X392902380Y-174102380D01*
X392997619Y-174245238D01*
X393092857Y-174340476D01*
X393188095Y-174388095D01*
X392283333Y-174102380D02*
X391616666Y-174102380D01*
X392045238Y-175102380D01*
%TO.C,RN16*%
X353366666Y-173802380D02*
X353700000Y-173326190D01*
X353938095Y-173802380D02*
X353938095Y-172802380D01*
X353557142Y-172802380D01*
X353461904Y-172850000D01*
X353414285Y-172897619D01*
X353366666Y-172992857D01*
X353366666Y-173135714D01*
X353414285Y-173230952D01*
X353461904Y-173278571D01*
X353557142Y-173326190D01*
X353938095Y-173326190D01*
X352938095Y-173802380D02*
X352938095Y-172802380D01*
X352366666Y-173802380D01*
X352366666Y-172802380D01*
X351366666Y-173802380D02*
X351938095Y-173802380D01*
X351652380Y-173802380D02*
X351652380Y-172802380D01*
X351747619Y-172945238D01*
X351842857Y-173040476D01*
X351938095Y-173088095D01*
X350509523Y-172802380D02*
X350700000Y-172802380D01*
X350795238Y-172850000D01*
X350842857Y-172897619D01*
X350938095Y-173040476D01*
X350985714Y-173230952D01*
X350985714Y-173611904D01*
X350938095Y-173707142D01*
X350890476Y-173754761D01*
X350795238Y-173802380D01*
X350604761Y-173802380D01*
X350509523Y-173754761D01*
X350461904Y-173707142D01*
X350414285Y-173611904D01*
X350414285Y-173373809D01*
X350461904Y-173278571D01*
X350509523Y-173230952D01*
X350604761Y-173183333D01*
X350795238Y-173183333D01*
X350890476Y-173230952D01*
X350938095Y-173278571D01*
X350985714Y-173373809D01*
%TO.C,RN15*%
X283876666Y-174022380D02*
X284210000Y-173546190D01*
X284448095Y-174022380D02*
X284448095Y-173022380D01*
X284067142Y-173022380D01*
X283971904Y-173070000D01*
X283924285Y-173117619D01*
X283876666Y-173212857D01*
X283876666Y-173355714D01*
X283924285Y-173450952D01*
X283971904Y-173498571D01*
X284067142Y-173546190D01*
X284448095Y-173546190D01*
X283448095Y-174022380D02*
X283448095Y-173022380D01*
X282876666Y-174022380D01*
X282876666Y-173022380D01*
X281876666Y-174022380D02*
X282448095Y-174022380D01*
X282162380Y-174022380D02*
X282162380Y-173022380D01*
X282257619Y-173165238D01*
X282352857Y-173260476D01*
X282448095Y-173308095D01*
X280971904Y-173022380D02*
X281448095Y-173022380D01*
X281495714Y-173498571D01*
X281448095Y-173450952D01*
X281352857Y-173403333D01*
X281114761Y-173403333D01*
X281019523Y-173450952D01*
X280971904Y-173498571D01*
X280924285Y-173593809D01*
X280924285Y-173831904D01*
X280971904Y-173927142D01*
X281019523Y-173974761D01*
X281114761Y-174022380D01*
X281352857Y-174022380D01*
X281448095Y-173974761D01*
X281495714Y-173927142D01*
%TO.C,RN14*%
X203436666Y-174152380D02*
X203770000Y-173676190D01*
X204008095Y-174152380D02*
X204008095Y-173152380D01*
X203627142Y-173152380D01*
X203531904Y-173200000D01*
X203484285Y-173247619D01*
X203436666Y-173342857D01*
X203436666Y-173485714D01*
X203484285Y-173580952D01*
X203531904Y-173628571D01*
X203627142Y-173676190D01*
X204008095Y-173676190D01*
X203008095Y-174152380D02*
X203008095Y-173152380D01*
X202436666Y-174152380D01*
X202436666Y-173152380D01*
X201436666Y-174152380D02*
X202008095Y-174152380D01*
X201722380Y-174152380D02*
X201722380Y-173152380D01*
X201817619Y-173295238D01*
X201912857Y-173390476D01*
X202008095Y-173438095D01*
X200579523Y-173485714D02*
X200579523Y-174152380D01*
X200817619Y-173104761D02*
X201055714Y-173819047D01*
X200436666Y-173819047D01*
%TO.C,RN13*%
X246586666Y-261882380D02*
X246920000Y-261406190D01*
X247158095Y-261882380D02*
X247158095Y-260882380D01*
X246777142Y-260882380D01*
X246681904Y-260930000D01*
X246634285Y-260977619D01*
X246586666Y-261072857D01*
X246586666Y-261215714D01*
X246634285Y-261310952D01*
X246681904Y-261358571D01*
X246777142Y-261406190D01*
X247158095Y-261406190D01*
X246158095Y-261882380D02*
X246158095Y-260882380D01*
X245586666Y-261882380D01*
X245586666Y-260882380D01*
X244586666Y-261882380D02*
X245158095Y-261882380D01*
X244872380Y-261882380D02*
X244872380Y-260882380D01*
X244967619Y-261025238D01*
X245062857Y-261120476D01*
X245158095Y-261168095D01*
X244253333Y-260882380D02*
X243634285Y-260882380D01*
X243967619Y-261263333D01*
X243824761Y-261263333D01*
X243729523Y-261310952D01*
X243681904Y-261358571D01*
X243634285Y-261453809D01*
X243634285Y-261691904D01*
X243681904Y-261787142D01*
X243729523Y-261834761D01*
X243824761Y-261882380D01*
X244110476Y-261882380D01*
X244205714Y-261834761D01*
X244253333Y-261787142D01*
%TO.C,RN12*%
X272486666Y-255282380D02*
X272820000Y-254806190D01*
X273058095Y-255282380D02*
X273058095Y-254282380D01*
X272677142Y-254282380D01*
X272581904Y-254330000D01*
X272534285Y-254377619D01*
X272486666Y-254472857D01*
X272486666Y-254615714D01*
X272534285Y-254710952D01*
X272581904Y-254758571D01*
X272677142Y-254806190D01*
X273058095Y-254806190D01*
X272058095Y-255282380D02*
X272058095Y-254282380D01*
X271486666Y-255282380D01*
X271486666Y-254282380D01*
X270486666Y-255282380D02*
X271058095Y-255282380D01*
X270772380Y-255282380D02*
X270772380Y-254282380D01*
X270867619Y-254425238D01*
X270962857Y-254520476D01*
X271058095Y-254568095D01*
X270105714Y-254377619D02*
X270058095Y-254330000D01*
X269962857Y-254282380D01*
X269724761Y-254282380D01*
X269629523Y-254330000D01*
X269581904Y-254377619D01*
X269534285Y-254472857D01*
X269534285Y-254568095D01*
X269581904Y-254710952D01*
X270153333Y-255282380D01*
X269534285Y-255282380D01*
%TO.C,RN11*%
X439672380Y-159163333D02*
X439196190Y-158830000D01*
X439672380Y-158591904D02*
X438672380Y-158591904D01*
X438672380Y-158972857D01*
X438720000Y-159068095D01*
X438767619Y-159115714D01*
X438862857Y-159163333D01*
X439005714Y-159163333D01*
X439100952Y-159115714D01*
X439148571Y-159068095D01*
X439196190Y-158972857D01*
X439196190Y-158591904D01*
X439672380Y-159591904D02*
X438672380Y-159591904D01*
X439672380Y-160163333D01*
X438672380Y-160163333D01*
X439672380Y-161163333D02*
X439672380Y-160591904D01*
X439672380Y-160877619D02*
X438672380Y-160877619D01*
X438815238Y-160782380D01*
X438910476Y-160687142D01*
X438958095Y-160591904D01*
X439672380Y-162115714D02*
X439672380Y-161544285D01*
X439672380Y-161830000D02*
X438672380Y-161830000D01*
X438815238Y-161734761D01*
X438910476Y-161639523D01*
X438958095Y-161544285D01*
%TO.C,RN10*%
X428402380Y-232213333D02*
X427926190Y-231880000D01*
X428402380Y-231641904D02*
X427402380Y-231641904D01*
X427402380Y-232022857D01*
X427450000Y-232118095D01*
X427497619Y-232165714D01*
X427592857Y-232213333D01*
X427735714Y-232213333D01*
X427830952Y-232165714D01*
X427878571Y-232118095D01*
X427926190Y-232022857D01*
X427926190Y-231641904D01*
X428402380Y-232641904D02*
X427402380Y-232641904D01*
X428402380Y-233213333D01*
X427402380Y-233213333D01*
X428402380Y-234213333D02*
X428402380Y-233641904D01*
X428402380Y-233927619D02*
X427402380Y-233927619D01*
X427545238Y-233832380D01*
X427640476Y-233737142D01*
X427688095Y-233641904D01*
X427402380Y-234832380D02*
X427402380Y-234927619D01*
X427450000Y-235022857D01*
X427497619Y-235070476D01*
X427592857Y-235118095D01*
X427783333Y-235165714D01*
X428021428Y-235165714D01*
X428211904Y-235118095D01*
X428307142Y-235070476D01*
X428354761Y-235022857D01*
X428402380Y-234927619D01*
X428402380Y-234832380D01*
X428354761Y-234737142D01*
X428307142Y-234689523D01*
X428211904Y-234641904D01*
X428021428Y-234594285D01*
X427783333Y-234594285D01*
X427592857Y-234641904D01*
X427497619Y-234689523D01*
X427450000Y-234737142D01*
X427402380Y-234832380D01*
%TO.C,RN9*%
X402372380Y-211959523D02*
X401896190Y-211626190D01*
X402372380Y-211388095D02*
X401372380Y-211388095D01*
X401372380Y-211769047D01*
X401420000Y-211864285D01*
X401467619Y-211911904D01*
X401562857Y-211959523D01*
X401705714Y-211959523D01*
X401800952Y-211911904D01*
X401848571Y-211864285D01*
X401896190Y-211769047D01*
X401896190Y-211388095D01*
X402372380Y-212388095D02*
X401372380Y-212388095D01*
X402372380Y-212959523D01*
X401372380Y-212959523D01*
X402372380Y-213483333D02*
X402372380Y-213673809D01*
X402324761Y-213769047D01*
X402277142Y-213816666D01*
X402134285Y-213911904D01*
X401943809Y-213959523D01*
X401562857Y-213959523D01*
X401467619Y-213911904D01*
X401420000Y-213864285D01*
X401372380Y-213769047D01*
X401372380Y-213578571D01*
X401420000Y-213483333D01*
X401467619Y-213435714D01*
X401562857Y-213388095D01*
X401800952Y-213388095D01*
X401896190Y-213435714D01*
X401943809Y-213483333D01*
X401991428Y-213578571D01*
X401991428Y-213769047D01*
X401943809Y-213864285D01*
X401896190Y-213911904D01*
X401800952Y-213959523D01*
%TO.C,RN8*%
X431732380Y-190389523D02*
X431256190Y-190056190D01*
X431732380Y-189818095D02*
X430732380Y-189818095D01*
X430732380Y-190199047D01*
X430780000Y-190294285D01*
X430827619Y-190341904D01*
X430922857Y-190389523D01*
X431065714Y-190389523D01*
X431160952Y-190341904D01*
X431208571Y-190294285D01*
X431256190Y-190199047D01*
X431256190Y-189818095D01*
X431732380Y-190818095D02*
X430732380Y-190818095D01*
X431732380Y-191389523D01*
X430732380Y-191389523D01*
X431160952Y-192008571D02*
X431113333Y-191913333D01*
X431065714Y-191865714D01*
X430970476Y-191818095D01*
X430922857Y-191818095D01*
X430827619Y-191865714D01*
X430780000Y-191913333D01*
X430732380Y-192008571D01*
X430732380Y-192199047D01*
X430780000Y-192294285D01*
X430827619Y-192341904D01*
X430922857Y-192389523D01*
X430970476Y-192389523D01*
X431065714Y-192341904D01*
X431113333Y-192294285D01*
X431160952Y-192199047D01*
X431160952Y-192008571D01*
X431208571Y-191913333D01*
X431256190Y-191865714D01*
X431351428Y-191818095D01*
X431541904Y-191818095D01*
X431637142Y-191865714D01*
X431684761Y-191913333D01*
X431732380Y-192008571D01*
X431732380Y-192199047D01*
X431684761Y-192294285D01*
X431637142Y-192341904D01*
X431541904Y-192389523D01*
X431351428Y-192389523D01*
X431256190Y-192341904D01*
X431208571Y-192294285D01*
X431160952Y-192199047D01*
%TO.C,RN7*%
X411292380Y-188889523D02*
X410816190Y-188556190D01*
X411292380Y-188318095D02*
X410292380Y-188318095D01*
X410292380Y-188699047D01*
X410340000Y-188794285D01*
X410387619Y-188841904D01*
X410482857Y-188889523D01*
X410625714Y-188889523D01*
X410720952Y-188841904D01*
X410768571Y-188794285D01*
X410816190Y-188699047D01*
X410816190Y-188318095D01*
X411292380Y-189318095D02*
X410292380Y-189318095D01*
X411292380Y-189889523D01*
X410292380Y-189889523D01*
X410292380Y-190270476D02*
X410292380Y-190937142D01*
X411292380Y-190508571D01*
%TO.C,RN6*%
X371960476Y-169542380D02*
X372293809Y-169066190D01*
X372531904Y-169542380D02*
X372531904Y-168542380D01*
X372150952Y-168542380D01*
X372055714Y-168590000D01*
X372008095Y-168637619D01*
X371960476Y-168732857D01*
X371960476Y-168875714D01*
X372008095Y-168970952D01*
X372055714Y-169018571D01*
X372150952Y-169066190D01*
X372531904Y-169066190D01*
X371531904Y-169542380D02*
X371531904Y-168542380D01*
X370960476Y-169542380D01*
X370960476Y-168542380D01*
X370055714Y-168542380D02*
X370246190Y-168542380D01*
X370341428Y-168590000D01*
X370389047Y-168637619D01*
X370484285Y-168780476D01*
X370531904Y-168970952D01*
X370531904Y-169351904D01*
X370484285Y-169447142D01*
X370436666Y-169494761D01*
X370341428Y-169542380D01*
X370150952Y-169542380D01*
X370055714Y-169494761D01*
X370008095Y-169447142D01*
X369960476Y-169351904D01*
X369960476Y-169113809D01*
X370008095Y-169018571D01*
X370055714Y-168970952D01*
X370150952Y-168923333D01*
X370341428Y-168923333D01*
X370436666Y-168970952D01*
X370484285Y-169018571D01*
X370531904Y-169113809D01*
%TO.C,RN5*%
X322220476Y-168202380D02*
X322553809Y-167726190D01*
X322791904Y-168202380D02*
X322791904Y-167202380D01*
X322410952Y-167202380D01*
X322315714Y-167250000D01*
X322268095Y-167297619D01*
X322220476Y-167392857D01*
X322220476Y-167535714D01*
X322268095Y-167630952D01*
X322315714Y-167678571D01*
X322410952Y-167726190D01*
X322791904Y-167726190D01*
X321791904Y-168202380D02*
X321791904Y-167202380D01*
X321220476Y-168202380D01*
X321220476Y-167202380D01*
X320268095Y-167202380D02*
X320744285Y-167202380D01*
X320791904Y-167678571D01*
X320744285Y-167630952D01*
X320649047Y-167583333D01*
X320410952Y-167583333D01*
X320315714Y-167630952D01*
X320268095Y-167678571D01*
X320220476Y-167773809D01*
X320220476Y-168011904D01*
X320268095Y-168107142D01*
X320315714Y-168154761D01*
X320410952Y-168202380D01*
X320649047Y-168202380D01*
X320744285Y-168154761D01*
X320791904Y-168107142D01*
%TO.C,RN4*%
X271032380Y-170829523D02*
X270556190Y-170496190D01*
X271032380Y-170258095D02*
X270032380Y-170258095D01*
X270032380Y-170639047D01*
X270080000Y-170734285D01*
X270127619Y-170781904D01*
X270222857Y-170829523D01*
X270365714Y-170829523D01*
X270460952Y-170781904D01*
X270508571Y-170734285D01*
X270556190Y-170639047D01*
X270556190Y-170258095D01*
X271032380Y-171258095D02*
X270032380Y-171258095D01*
X271032380Y-171829523D01*
X270032380Y-171829523D01*
X270365714Y-172734285D02*
X271032380Y-172734285D01*
X269984761Y-172496190D02*
X270699047Y-172258095D01*
X270699047Y-172877142D01*
%TO.C,RN3*%
X176180476Y-163222380D02*
X176513809Y-162746190D01*
X176751904Y-163222380D02*
X176751904Y-162222380D01*
X176370952Y-162222380D01*
X176275714Y-162270000D01*
X176228095Y-162317619D01*
X176180476Y-162412857D01*
X176180476Y-162555714D01*
X176228095Y-162650952D01*
X176275714Y-162698571D01*
X176370952Y-162746190D01*
X176751904Y-162746190D01*
X175751904Y-163222380D02*
X175751904Y-162222380D01*
X175180476Y-163222380D01*
X175180476Y-162222380D01*
X174799523Y-162222380D02*
X174180476Y-162222380D01*
X174513809Y-162603333D01*
X174370952Y-162603333D01*
X174275714Y-162650952D01*
X174228095Y-162698571D01*
X174180476Y-162793809D01*
X174180476Y-163031904D01*
X174228095Y-163127142D01*
X174275714Y-163174761D01*
X174370952Y-163222380D01*
X174656666Y-163222380D01*
X174751904Y-163174761D01*
X174799523Y-163127142D01*
%TO.C,RN2*%
X224780476Y-256272380D02*
X225113809Y-255796190D01*
X225351904Y-256272380D02*
X225351904Y-255272380D01*
X224970952Y-255272380D01*
X224875714Y-255320000D01*
X224828095Y-255367619D01*
X224780476Y-255462857D01*
X224780476Y-255605714D01*
X224828095Y-255700952D01*
X224875714Y-255748571D01*
X224970952Y-255796190D01*
X225351904Y-255796190D01*
X224351904Y-256272380D02*
X224351904Y-255272380D01*
X223780476Y-256272380D01*
X223780476Y-255272380D01*
X223351904Y-255367619D02*
X223304285Y-255320000D01*
X223209047Y-255272380D01*
X222970952Y-255272380D01*
X222875714Y-255320000D01*
X222828095Y-255367619D01*
X222780476Y-255462857D01*
X222780476Y-255558095D01*
X222828095Y-255700952D01*
X223399523Y-256272380D01*
X222780476Y-256272380D01*
%TO.C,RN1*%
X250630476Y-250162380D02*
X250963809Y-249686190D01*
X251201904Y-250162380D02*
X251201904Y-249162380D01*
X250820952Y-249162380D01*
X250725714Y-249210000D01*
X250678095Y-249257619D01*
X250630476Y-249352857D01*
X250630476Y-249495714D01*
X250678095Y-249590952D01*
X250725714Y-249638571D01*
X250820952Y-249686190D01*
X251201904Y-249686190D01*
X250201904Y-250162380D02*
X250201904Y-249162380D01*
X249630476Y-250162380D01*
X249630476Y-249162380D01*
X248630476Y-250162380D02*
X249201904Y-250162380D01*
X248916190Y-250162380D02*
X248916190Y-249162380D01*
X249011428Y-249305238D01*
X249106666Y-249400476D01*
X249201904Y-249448095D01*
%TO.C,R7*%
D12*
X212165771Y-173628400D02*
X211875485Y-173425200D01*
X212165771Y-173280057D02*
X211556171Y-173280057D01*
X211556171Y-173512285D01*
X211585200Y-173570342D01*
X211614228Y-173599371D01*
X211672285Y-173628400D01*
X211759371Y-173628400D01*
X211817428Y-173599371D01*
X211846457Y-173570342D01*
X211875485Y-173512285D01*
X211875485Y-173280057D01*
X211556171Y-173831600D02*
X211556171Y-174238000D01*
X212165771Y-173976742D01*
X209625771Y-173222000D02*
X209625771Y-172873657D01*
X209625771Y-173047828D02*
X209016171Y-173047828D01*
X209103257Y-172989771D01*
X209161314Y-172931714D01*
X209190342Y-172873657D01*
X209567714Y-173483257D02*
X209596742Y-173512285D01*
X209625771Y-173483257D01*
X209596742Y-173454228D01*
X209567714Y-173483257D01*
X209625771Y-173483257D01*
X209016171Y-174063828D02*
X209016171Y-173773542D01*
X209306457Y-173744514D01*
X209277428Y-173773542D01*
X209248400Y-173831600D01*
X209248400Y-173976742D01*
X209277428Y-174034800D01*
X209306457Y-174063828D01*
X209364514Y-174092857D01*
X209509657Y-174092857D01*
X209567714Y-174063828D01*
X209596742Y-174034800D01*
X209625771Y-173976742D01*
X209625771Y-173831600D01*
X209596742Y-173773542D01*
X209567714Y-173744514D01*
X209625771Y-174354114D02*
X209016171Y-174354114D01*
X209393542Y-174412171D02*
X209625771Y-174586342D01*
X209219371Y-174586342D02*
X209451600Y-174354114D01*
%TO.C,R6*%
X212165771Y-177128400D02*
X211875485Y-176925200D01*
X212165771Y-176780057D02*
X211556171Y-176780057D01*
X211556171Y-177012285D01*
X211585200Y-177070342D01*
X211614228Y-177099371D01*
X211672285Y-177128400D01*
X211759371Y-177128400D01*
X211817428Y-177099371D01*
X211846457Y-177070342D01*
X211875485Y-177012285D01*
X211875485Y-176780057D01*
X211556171Y-177650914D02*
X211556171Y-177534800D01*
X211585200Y-177476742D01*
X211614228Y-177447714D01*
X211701314Y-177389657D01*
X211817428Y-177360628D01*
X212049657Y-177360628D01*
X212107714Y-177389657D01*
X212136742Y-177418685D01*
X212165771Y-177476742D01*
X212165771Y-177592857D01*
X212136742Y-177650914D01*
X212107714Y-177679942D01*
X212049657Y-177708971D01*
X211904514Y-177708971D01*
X211846457Y-177679942D01*
X211817428Y-177650914D01*
X211788400Y-177592857D01*
X211788400Y-177476742D01*
X211817428Y-177418685D01*
X211846457Y-177389657D01*
X211904514Y-177360628D01*
X209074228Y-176765542D02*
X209045200Y-176794571D01*
X209016171Y-176852628D01*
X209016171Y-176997771D01*
X209045200Y-177055828D01*
X209074228Y-177084857D01*
X209132285Y-177113885D01*
X209190342Y-177113885D01*
X209277428Y-177084857D01*
X209625771Y-176736514D01*
X209625771Y-177113885D01*
X209074228Y-177346114D02*
X209045200Y-177375142D01*
X209016171Y-177433200D01*
X209016171Y-177578342D01*
X209045200Y-177636400D01*
X209074228Y-177665428D01*
X209132285Y-177694457D01*
X209190342Y-177694457D01*
X209277428Y-177665428D01*
X209625771Y-177317085D01*
X209625771Y-177694457D01*
%TO.C,R5*%
X206725771Y-173528400D02*
X206435485Y-173325200D01*
X206725771Y-173180057D02*
X206116171Y-173180057D01*
X206116171Y-173412285D01*
X206145200Y-173470342D01*
X206174228Y-173499371D01*
X206232285Y-173528400D01*
X206319371Y-173528400D01*
X206377428Y-173499371D01*
X206406457Y-173470342D01*
X206435485Y-173412285D01*
X206435485Y-173180057D01*
X206116171Y-174079942D02*
X206116171Y-173789657D01*
X206406457Y-173760628D01*
X206377428Y-173789657D01*
X206348400Y-173847714D01*
X206348400Y-173992857D01*
X206377428Y-174050914D01*
X206406457Y-174079942D01*
X206464514Y-174108971D01*
X206609657Y-174108971D01*
X206667714Y-174079942D01*
X206696742Y-174050914D01*
X206725771Y-173992857D01*
X206725771Y-173847714D01*
X206696742Y-173789657D01*
X206667714Y-173760628D01*
X208714228Y-173165542D02*
X208685200Y-173194571D01*
X208656171Y-173252628D01*
X208656171Y-173397771D01*
X208685200Y-173455828D01*
X208714228Y-173484857D01*
X208772285Y-173513885D01*
X208830342Y-173513885D01*
X208917428Y-173484857D01*
X209265771Y-173136514D01*
X209265771Y-173513885D01*
X208714228Y-173746114D02*
X208685200Y-173775142D01*
X208656171Y-173833200D01*
X208656171Y-173978342D01*
X208685200Y-174036400D01*
X208714228Y-174065428D01*
X208772285Y-174094457D01*
X208830342Y-174094457D01*
X208917428Y-174065428D01*
X209265771Y-173717085D01*
X209265771Y-174094457D01*
%TO.C,R4*%
X195271600Y-151425771D02*
X195474800Y-151135485D01*
X195619942Y-151425771D02*
X195619942Y-150816171D01*
X195387714Y-150816171D01*
X195329657Y-150845200D01*
X195300628Y-150874228D01*
X195271600Y-150932285D01*
X195271600Y-151019371D01*
X195300628Y-151077428D01*
X195329657Y-151106457D01*
X195387714Y-151135485D01*
X195619942Y-151135485D01*
X194749085Y-151019371D02*
X194749085Y-151425771D01*
X194894228Y-150787142D02*
X195039371Y-151222571D01*
X194662000Y-151222571D01*
X195300628Y-148885771D02*
X195648971Y-148885771D01*
X195474800Y-148885771D02*
X195474800Y-148276171D01*
X195532857Y-148363257D01*
X195590914Y-148421314D01*
X195648971Y-148450342D01*
X195039371Y-148885771D02*
X195039371Y-148276171D01*
X194691028Y-148885771D02*
X194952285Y-148537428D01*
X194691028Y-148276171D02*
X195039371Y-148624514D01*
%TO.C,R3*%
X195251600Y-153885771D02*
X195454800Y-153595485D01*
X195599942Y-153885771D02*
X195599942Y-153276171D01*
X195367714Y-153276171D01*
X195309657Y-153305200D01*
X195280628Y-153334228D01*
X195251600Y-153392285D01*
X195251600Y-153479371D01*
X195280628Y-153537428D01*
X195309657Y-153566457D01*
X195367714Y-153595485D01*
X195599942Y-153595485D01*
X195048400Y-153276171D02*
X194671028Y-153276171D01*
X194874228Y-153508400D01*
X194787142Y-153508400D01*
X194729085Y-153537428D01*
X194700057Y-153566457D01*
X194671028Y-153624514D01*
X194671028Y-153769657D01*
X194700057Y-153827714D01*
X194729085Y-153856742D01*
X194787142Y-153885771D01*
X194961314Y-153885771D01*
X195019371Y-153856742D01*
X195048400Y-153827714D01*
X195745085Y-150736171D02*
X196035371Y-150736171D01*
X196064400Y-151026457D01*
X196035371Y-150997428D01*
X195977314Y-150968400D01*
X195832171Y-150968400D01*
X195774114Y-150997428D01*
X195745085Y-151026457D01*
X195716057Y-151084514D01*
X195716057Y-151229657D01*
X195745085Y-151287714D01*
X195774114Y-151316742D01*
X195832171Y-151345771D01*
X195977314Y-151345771D01*
X196035371Y-151316742D01*
X196064400Y-151287714D01*
X195454800Y-151287714D02*
X195425771Y-151316742D01*
X195454800Y-151345771D01*
X195483828Y-151316742D01*
X195454800Y-151287714D01*
X195454800Y-151345771D01*
X194845200Y-151345771D02*
X195193542Y-151345771D01*
X195019371Y-151345771D02*
X195019371Y-150736171D01*
X195077428Y-150823257D01*
X195135485Y-150881314D01*
X195193542Y-150910342D01*
X194583942Y-151345771D02*
X194583942Y-150736171D01*
X194235600Y-151345771D02*
X194496857Y-150997428D01*
X194235600Y-150736171D02*
X194583942Y-151084514D01*
%TO.C,R2*%
X311530771Y-264173400D02*
X311240485Y-263970200D01*
X311530771Y-263825057D02*
X310921171Y-263825057D01*
X310921171Y-264057285D01*
X310950200Y-264115342D01*
X310979228Y-264144371D01*
X311037285Y-264173400D01*
X311124371Y-264173400D01*
X311182428Y-264144371D01*
X311211457Y-264115342D01*
X311240485Y-264057285D01*
X311240485Y-263825057D01*
X310979228Y-264405628D02*
X310950200Y-264434657D01*
X310921171Y-264492714D01*
X310921171Y-264637857D01*
X310950200Y-264695914D01*
X310979228Y-264724942D01*
X311037285Y-264753971D01*
X311095342Y-264753971D01*
X311182428Y-264724942D01*
X311530771Y-264376600D01*
X311530771Y-264753971D01*
X314070771Y-264100828D02*
X314070771Y-263752485D01*
X314070771Y-263926657D02*
X313461171Y-263926657D01*
X313548257Y-263868600D01*
X313606314Y-263810542D01*
X313635342Y-263752485D01*
X314070771Y-264362085D02*
X313461171Y-264362085D01*
X313896600Y-264565285D01*
X313461171Y-264768485D01*
X314070771Y-264768485D01*
%TO.C,R1*%
X331124771Y-265389400D02*
X330834485Y-265186200D01*
X331124771Y-265041057D02*
X330515171Y-265041057D01*
X330515171Y-265273285D01*
X330544200Y-265331342D01*
X330573228Y-265360371D01*
X330631285Y-265389400D01*
X330718371Y-265389400D01*
X330776428Y-265360371D01*
X330805457Y-265331342D01*
X330834485Y-265273285D01*
X330834485Y-265041057D01*
X331124771Y-265969971D02*
X331124771Y-265621628D01*
X331124771Y-265795800D02*
X330515171Y-265795800D01*
X330602257Y-265737742D01*
X330660314Y-265679685D01*
X330689342Y-265621628D01*
X333664771Y-265070085D02*
X333664771Y-264721742D01*
X333664771Y-264895914D02*
X333055171Y-264895914D01*
X333142257Y-264837857D01*
X333200314Y-264779800D01*
X333229342Y-264721742D01*
X333055171Y-265447457D02*
X333055171Y-265505514D01*
X333084200Y-265563571D01*
X333113228Y-265592600D01*
X333171285Y-265621628D01*
X333287400Y-265650657D01*
X333432542Y-265650657D01*
X333548657Y-265621628D01*
X333606714Y-265592600D01*
X333635742Y-265563571D01*
X333664771Y-265505514D01*
X333664771Y-265447457D01*
X333635742Y-265389400D01*
X333606714Y-265360371D01*
X333548657Y-265331342D01*
X333432542Y-265302314D01*
X333287400Y-265302314D01*
X333171285Y-265331342D01*
X333113228Y-265360371D01*
X333084200Y-265389400D01*
X333055171Y-265447457D01*
X333664771Y-265911914D02*
X333055171Y-265911914D01*
X333664771Y-266260257D02*
X333316428Y-265999000D01*
X333055171Y-266260257D02*
X333403514Y-265911914D01*
%TO.C,J2*%
D11*
X214709333Y-156432380D02*
X214709333Y-157146666D01*
X214756952Y-157289523D01*
X214852190Y-157384761D01*
X214995047Y-157432380D01*
X215090285Y-157432380D01*
X214280761Y-156527619D02*
X214233142Y-156480000D01*
X214137904Y-156432380D01*
X213899809Y-156432380D01*
X213804571Y-156480000D01*
X213756952Y-156527619D01*
X213709333Y-156622857D01*
X213709333Y-156718095D01*
X213756952Y-156860952D01*
X214328380Y-157432380D01*
X213709333Y-157432380D01*
%TO.C,J1*%
X428673380Y-229780666D02*
X429387666Y-229780666D01*
X429530523Y-229733047D01*
X429625761Y-229637809D01*
X429673380Y-229494952D01*
X429673380Y-229399714D01*
X429673380Y-230780666D02*
X429673380Y-230209238D01*
X429673380Y-230494952D02*
X428673380Y-230494952D01*
X428816238Y-230399714D01*
X428911476Y-230304476D01*
X428959095Y-230209238D01*
%TO.C,C8*%
D12*
X302440714Y-266548400D02*
X302469742Y-266519371D01*
X302498771Y-266432285D01*
X302498771Y-266374228D01*
X302469742Y-266287142D01*
X302411685Y-266229085D01*
X302353628Y-266200057D01*
X302237514Y-266171028D01*
X302150428Y-266171028D01*
X302034314Y-266200057D01*
X301976257Y-266229085D01*
X301918200Y-266287142D01*
X301889171Y-266374228D01*
X301889171Y-266432285D01*
X301918200Y-266519371D01*
X301947228Y-266548400D01*
X302150428Y-266896742D02*
X302121400Y-266838685D01*
X302092371Y-266809657D01*
X302034314Y-266780628D01*
X302005285Y-266780628D01*
X301947228Y-266809657D01*
X301918200Y-266838685D01*
X301889171Y-266896742D01*
X301889171Y-267012857D01*
X301918200Y-267070914D01*
X301947228Y-267099942D01*
X302005285Y-267128971D01*
X302034314Y-267128971D01*
X302092371Y-267099942D01*
X302121400Y-267070914D01*
X302150428Y-267012857D01*
X302150428Y-266896742D01*
X302179457Y-266838685D01*
X302208485Y-266809657D01*
X302266542Y-266780628D01*
X302382657Y-266780628D01*
X302440714Y-266809657D01*
X302469742Y-266838685D01*
X302498771Y-266896742D01*
X302498771Y-267012857D01*
X302469742Y-267070914D01*
X302440714Y-267099942D01*
X302382657Y-267128971D01*
X302266542Y-267128971D01*
X302208485Y-267099942D01*
X302179457Y-267070914D01*
X302150428Y-267012857D01*
X304487228Y-265735600D02*
X304458200Y-265764628D01*
X304429171Y-265822685D01*
X304429171Y-265967828D01*
X304458200Y-266025885D01*
X304487228Y-266054914D01*
X304545285Y-266083942D01*
X304603342Y-266083942D01*
X304690428Y-266054914D01*
X305038771Y-265706571D01*
X305038771Y-266083942D01*
X304487228Y-266316171D02*
X304458200Y-266345200D01*
X304429171Y-266403257D01*
X304429171Y-266548400D01*
X304458200Y-266606457D01*
X304487228Y-266635485D01*
X304545285Y-266664514D01*
X304603342Y-266664514D01*
X304690428Y-266635485D01*
X305038771Y-266287142D01*
X305038771Y-266664514D01*
X304632371Y-266925771D02*
X305241971Y-266925771D01*
X304661400Y-266925771D02*
X304632371Y-266983828D01*
X304632371Y-267099942D01*
X304661400Y-267158000D01*
X304690428Y-267187028D01*
X304748485Y-267216057D01*
X304922657Y-267216057D01*
X304980714Y-267187028D01*
X305009742Y-267158000D01*
X305038771Y-267099942D01*
X305038771Y-266983828D01*
X305009742Y-266925771D01*
X304632371Y-267390228D02*
X304632371Y-267622457D01*
X305038771Y-267477314D02*
X304516257Y-267477314D01*
X304458200Y-267506342D01*
X304429171Y-267564400D01*
X304429171Y-267622457D01*
%TO.C,C7*%
X331237714Y-261378400D02*
X331266742Y-261349371D01*
X331295771Y-261262285D01*
X331295771Y-261204228D01*
X331266742Y-261117142D01*
X331208685Y-261059085D01*
X331150628Y-261030057D01*
X331034514Y-261001028D01*
X330947428Y-261001028D01*
X330831314Y-261030057D01*
X330773257Y-261059085D01*
X330715200Y-261117142D01*
X330686171Y-261204228D01*
X330686171Y-261262285D01*
X330715200Y-261349371D01*
X330744228Y-261378400D01*
X330686171Y-261581600D02*
X330686171Y-261988000D01*
X331295771Y-261726742D01*
X333226171Y-260565600D02*
X333226171Y-260623657D01*
X333255200Y-260681714D01*
X333284228Y-260710742D01*
X333342285Y-260739771D01*
X333458400Y-260768800D01*
X333603542Y-260768800D01*
X333719657Y-260739771D01*
X333777714Y-260710742D01*
X333806742Y-260681714D01*
X333835771Y-260623657D01*
X333835771Y-260565600D01*
X333806742Y-260507542D01*
X333777714Y-260478514D01*
X333719657Y-260449485D01*
X333603542Y-260420457D01*
X333458400Y-260420457D01*
X333342285Y-260449485D01*
X333284228Y-260478514D01*
X333255200Y-260507542D01*
X333226171Y-260565600D01*
X333777714Y-261030057D02*
X333806742Y-261059085D01*
X333835771Y-261030057D01*
X333806742Y-261001028D01*
X333777714Y-261030057D01*
X333835771Y-261030057D01*
X333835771Y-261639657D02*
X333835771Y-261291314D01*
X333835771Y-261465485D02*
X333226171Y-261465485D01*
X333313257Y-261407428D01*
X333371314Y-261349371D01*
X333400342Y-261291314D01*
X333429371Y-262162171D02*
X333835771Y-262162171D01*
X333429371Y-261900914D02*
X333748685Y-261900914D01*
X333806742Y-261929942D01*
X333835771Y-261988000D01*
X333835771Y-262075085D01*
X333806742Y-262133142D01*
X333777714Y-262162171D01*
X333429371Y-262365371D02*
X333429371Y-262597600D01*
X333835771Y-262452457D02*
X333313257Y-262452457D01*
X333255200Y-262481485D01*
X333226171Y-262539542D01*
X333226171Y-262597600D01*
%TO.C,C6*%
X328931600Y-253187714D02*
X328960628Y-253216742D01*
X329047714Y-253245771D01*
X329105771Y-253245771D01*
X329192857Y-253216742D01*
X329250914Y-253158685D01*
X329279942Y-253100628D01*
X329308971Y-252984514D01*
X329308971Y-252897428D01*
X329279942Y-252781314D01*
X329250914Y-252723257D01*
X329192857Y-252665200D01*
X329105771Y-252636171D01*
X329047714Y-252636171D01*
X328960628Y-252665200D01*
X328931600Y-252694228D01*
X328409085Y-252636171D02*
X328525200Y-252636171D01*
X328583257Y-252665200D01*
X328612285Y-252694228D01*
X328670342Y-252781314D01*
X328699371Y-252897428D01*
X328699371Y-253129657D01*
X328670342Y-253187714D01*
X328641314Y-253216742D01*
X328583257Y-253245771D01*
X328467142Y-253245771D01*
X328409085Y-253216742D01*
X328380057Y-253187714D01*
X328351028Y-253129657D01*
X328351028Y-252984514D01*
X328380057Y-252926457D01*
X328409085Y-252897428D01*
X328467142Y-252868400D01*
X328583257Y-252868400D01*
X328641314Y-252897428D01*
X328670342Y-252926457D01*
X328699371Y-252984514D01*
X329744400Y-250096171D02*
X329686342Y-250096171D01*
X329628285Y-250125200D01*
X329599257Y-250154228D01*
X329570228Y-250212285D01*
X329541200Y-250328400D01*
X329541200Y-250473542D01*
X329570228Y-250589657D01*
X329599257Y-250647714D01*
X329628285Y-250676742D01*
X329686342Y-250705771D01*
X329744400Y-250705771D01*
X329802457Y-250676742D01*
X329831485Y-250647714D01*
X329860514Y-250589657D01*
X329889542Y-250473542D01*
X329889542Y-250328400D01*
X329860514Y-250212285D01*
X329831485Y-250154228D01*
X329802457Y-250125200D01*
X329744400Y-250096171D01*
X329279942Y-250647714D02*
X329250914Y-250676742D01*
X329279942Y-250705771D01*
X329308971Y-250676742D01*
X329279942Y-250647714D01*
X329279942Y-250705771D01*
X328670342Y-250705771D02*
X329018685Y-250705771D01*
X328844514Y-250705771D02*
X328844514Y-250096171D01*
X328902571Y-250183257D01*
X328960628Y-250241314D01*
X329018685Y-250270342D01*
X328147828Y-250299371D02*
X328147828Y-250705771D01*
X328409085Y-250299371D02*
X328409085Y-250618685D01*
X328380057Y-250676742D01*
X328322000Y-250705771D01*
X328234914Y-250705771D01*
X328176857Y-250676742D01*
X328147828Y-250647714D01*
X327944628Y-250299371D02*
X327712400Y-250299371D01*
X327857542Y-250705771D02*
X327857542Y-250183257D01*
X327828514Y-250125200D01*
X327770457Y-250096171D01*
X327712400Y-250096171D01*
%TO.C,C5*%
X320117714Y-255178400D02*
X320146742Y-255149371D01*
X320175771Y-255062285D01*
X320175771Y-255004228D01*
X320146742Y-254917142D01*
X320088685Y-254859085D01*
X320030628Y-254830057D01*
X319914514Y-254801028D01*
X319827428Y-254801028D01*
X319711314Y-254830057D01*
X319653257Y-254859085D01*
X319595200Y-254917142D01*
X319566171Y-255004228D01*
X319566171Y-255062285D01*
X319595200Y-255149371D01*
X319624228Y-255178400D01*
X319566171Y-255729942D02*
X319566171Y-255439657D01*
X319856457Y-255410628D01*
X319827428Y-255439657D01*
X319798400Y-255497714D01*
X319798400Y-255642857D01*
X319827428Y-255700914D01*
X319856457Y-255729942D01*
X319914514Y-255758971D01*
X320059657Y-255758971D01*
X320117714Y-255729942D01*
X320146742Y-255700914D01*
X320175771Y-255642857D01*
X320175771Y-255497714D01*
X320146742Y-255439657D01*
X320117714Y-255410628D01*
X317026171Y-254365600D02*
X317026171Y-254423657D01*
X317055200Y-254481714D01*
X317084228Y-254510742D01*
X317142285Y-254539771D01*
X317258400Y-254568800D01*
X317403542Y-254568800D01*
X317519657Y-254539771D01*
X317577714Y-254510742D01*
X317606742Y-254481714D01*
X317635771Y-254423657D01*
X317635771Y-254365600D01*
X317606742Y-254307542D01*
X317577714Y-254278514D01*
X317519657Y-254249485D01*
X317403542Y-254220457D01*
X317258400Y-254220457D01*
X317142285Y-254249485D01*
X317084228Y-254278514D01*
X317055200Y-254307542D01*
X317026171Y-254365600D01*
X317577714Y-254830057D02*
X317606742Y-254859085D01*
X317635771Y-254830057D01*
X317606742Y-254801028D01*
X317577714Y-254830057D01*
X317635771Y-254830057D01*
X317635771Y-255439657D02*
X317635771Y-255091314D01*
X317635771Y-255265485D02*
X317026171Y-255265485D01*
X317113257Y-255207428D01*
X317171314Y-255149371D01*
X317200342Y-255091314D01*
X317229371Y-255962171D02*
X317635771Y-255962171D01*
X317229371Y-255700914D02*
X317548685Y-255700914D01*
X317606742Y-255729942D01*
X317635771Y-255788000D01*
X317635771Y-255875085D01*
X317606742Y-255933142D01*
X317577714Y-255962171D01*
X317229371Y-256165371D02*
X317229371Y-256397600D01*
X317635771Y-256252457D02*
X317113257Y-256252457D01*
X317055200Y-256281485D01*
X317026171Y-256339542D01*
X317026171Y-256397600D01*
%TO.C,C4*%
X326625600Y-264459714D02*
X326654628Y-264488742D01*
X326741714Y-264517771D01*
X326799771Y-264517771D01*
X326886857Y-264488742D01*
X326944914Y-264430685D01*
X326973942Y-264372628D01*
X327002971Y-264256514D01*
X327002971Y-264169428D01*
X326973942Y-264053314D01*
X326944914Y-263995257D01*
X326886857Y-263937200D01*
X326799771Y-263908171D01*
X326741714Y-263908171D01*
X326654628Y-263937200D01*
X326625600Y-263966228D01*
X326103085Y-264111371D02*
X326103085Y-264517771D01*
X326248228Y-263879142D02*
X326393371Y-264314571D01*
X326016000Y-264314571D01*
X327438400Y-266448171D02*
X327380342Y-266448171D01*
X327322285Y-266477200D01*
X327293257Y-266506228D01*
X327264228Y-266564285D01*
X327235200Y-266680400D01*
X327235200Y-266825542D01*
X327264228Y-266941657D01*
X327293257Y-266999714D01*
X327322285Y-267028742D01*
X327380342Y-267057771D01*
X327438400Y-267057771D01*
X327496457Y-267028742D01*
X327525485Y-266999714D01*
X327554514Y-266941657D01*
X327583542Y-266825542D01*
X327583542Y-266680400D01*
X327554514Y-266564285D01*
X327525485Y-266506228D01*
X327496457Y-266477200D01*
X327438400Y-266448171D01*
X326973942Y-266999714D02*
X326944914Y-267028742D01*
X326973942Y-267057771D01*
X327002971Y-267028742D01*
X326973942Y-266999714D01*
X326973942Y-267057771D01*
X326364342Y-267057771D02*
X326712685Y-267057771D01*
X326538514Y-267057771D02*
X326538514Y-266448171D01*
X326596571Y-266535257D01*
X326654628Y-266593314D01*
X326712685Y-266622342D01*
X325841828Y-266651371D02*
X325841828Y-267057771D01*
X326103085Y-266651371D02*
X326103085Y-266970685D01*
X326074057Y-267028742D01*
X326016000Y-267057771D01*
X325928914Y-267057771D01*
X325870857Y-267028742D01*
X325841828Y-266999714D01*
X325638628Y-266651371D02*
X325406400Y-266651371D01*
X325551542Y-267057771D02*
X325551542Y-266535257D01*
X325522514Y-266477200D01*
X325464457Y-266448171D01*
X325406400Y-266448171D01*
%TO.C,C3*%
X322436600Y-264459714D02*
X322465628Y-264488742D01*
X322552714Y-264517771D01*
X322610771Y-264517771D01*
X322697857Y-264488742D01*
X322755914Y-264430685D01*
X322784942Y-264372628D01*
X322813971Y-264256514D01*
X322813971Y-264169428D01*
X322784942Y-264053314D01*
X322755914Y-263995257D01*
X322697857Y-263937200D01*
X322610771Y-263908171D01*
X322552714Y-263908171D01*
X322465628Y-263937200D01*
X322436600Y-263966228D01*
X322233400Y-263908171D02*
X321856028Y-263908171D01*
X322059228Y-264140400D01*
X321972142Y-264140400D01*
X321914085Y-264169428D01*
X321885057Y-264198457D01*
X321856028Y-264256514D01*
X321856028Y-264401657D01*
X321885057Y-264459714D01*
X321914085Y-264488742D01*
X321972142Y-264517771D01*
X322146314Y-264517771D01*
X322204371Y-264488742D01*
X322233400Y-264459714D01*
X322901057Y-267057771D02*
X323249400Y-267057771D01*
X323075228Y-267057771D02*
X323075228Y-266448171D01*
X323133285Y-266535257D01*
X323191342Y-266593314D01*
X323249400Y-266622342D01*
X322523685Y-266448171D02*
X322465628Y-266448171D01*
X322407571Y-266477200D01*
X322378542Y-266506228D01*
X322349514Y-266564285D01*
X322320485Y-266680400D01*
X322320485Y-266825542D01*
X322349514Y-266941657D01*
X322378542Y-266999714D01*
X322407571Y-267028742D01*
X322465628Y-267057771D01*
X322523685Y-267057771D01*
X322581742Y-267028742D01*
X322610771Y-266999714D01*
X322639800Y-266941657D01*
X322668828Y-266825542D01*
X322668828Y-266680400D01*
X322639800Y-266564285D01*
X322610771Y-266506228D01*
X322581742Y-266477200D01*
X322523685Y-266448171D01*
X321797971Y-266651371D02*
X321797971Y-267057771D01*
X322059228Y-266651371D02*
X322059228Y-266970685D01*
X322030200Y-267028742D01*
X321972142Y-267057771D01*
X321885057Y-267057771D01*
X321827000Y-267028742D01*
X321797971Y-266999714D01*
X321594771Y-266651371D02*
X321362542Y-266651371D01*
X321507685Y-267057771D02*
X321507685Y-266535257D01*
X321478657Y-266477200D01*
X321420600Y-266448171D01*
X321362542Y-266448171D01*
%TO.C,C2*%
X304980714Y-261842400D02*
X305009742Y-261813371D01*
X305038771Y-261726285D01*
X305038771Y-261668228D01*
X305009742Y-261581142D01*
X304951685Y-261523085D01*
X304893628Y-261494057D01*
X304777514Y-261465028D01*
X304690428Y-261465028D01*
X304574314Y-261494057D01*
X304516257Y-261523085D01*
X304458200Y-261581142D01*
X304429171Y-261668228D01*
X304429171Y-261726285D01*
X304458200Y-261813371D01*
X304487228Y-261842400D01*
X304487228Y-262074628D02*
X304458200Y-262103657D01*
X304429171Y-262161714D01*
X304429171Y-262306857D01*
X304458200Y-262364914D01*
X304487228Y-262393942D01*
X304545285Y-262422971D01*
X304603342Y-262422971D01*
X304690428Y-262393942D01*
X305038771Y-262045600D01*
X305038771Y-262422971D01*
X301947228Y-261029600D02*
X301918200Y-261058628D01*
X301889171Y-261116685D01*
X301889171Y-261261828D01*
X301918200Y-261319885D01*
X301947228Y-261348914D01*
X302005285Y-261377942D01*
X302063342Y-261377942D01*
X302150428Y-261348914D01*
X302498771Y-261000571D01*
X302498771Y-261377942D01*
X301947228Y-261610171D02*
X301918200Y-261639200D01*
X301889171Y-261697257D01*
X301889171Y-261842400D01*
X301918200Y-261900457D01*
X301947228Y-261929485D01*
X302005285Y-261958514D01*
X302063342Y-261958514D01*
X302150428Y-261929485D01*
X302498771Y-261581142D01*
X302498771Y-261958514D01*
X302092371Y-262219771D02*
X302701971Y-262219771D01*
X302121400Y-262219771D02*
X302092371Y-262277828D01*
X302092371Y-262393942D01*
X302121400Y-262452000D01*
X302150428Y-262481028D01*
X302208485Y-262510057D01*
X302382657Y-262510057D01*
X302440714Y-262481028D01*
X302469742Y-262452000D01*
X302498771Y-262393942D01*
X302498771Y-262277828D01*
X302469742Y-262219771D01*
X302092371Y-262684228D02*
X302092371Y-262916457D01*
X302498771Y-262771314D02*
X301976257Y-262771314D01*
X301918200Y-262800342D01*
X301889171Y-262858400D01*
X301889171Y-262916457D01*
%TO.C,C1*%
X328602714Y-265396400D02*
X328631742Y-265367371D01*
X328660771Y-265280285D01*
X328660771Y-265222228D01*
X328631742Y-265135142D01*
X328573685Y-265077085D01*
X328515628Y-265048057D01*
X328399514Y-265019028D01*
X328312428Y-265019028D01*
X328196314Y-265048057D01*
X328138257Y-265077085D01*
X328080200Y-265135142D01*
X328051171Y-265222228D01*
X328051171Y-265280285D01*
X328080200Y-265367371D01*
X328109228Y-265396400D01*
X328660771Y-265976971D02*
X328660771Y-265628628D01*
X328660771Y-265802800D02*
X328051171Y-265802800D01*
X328138257Y-265744742D01*
X328196314Y-265686685D01*
X328225342Y-265628628D01*
X330591171Y-264583600D02*
X330591171Y-264641657D01*
X330620200Y-264699714D01*
X330649228Y-264728742D01*
X330707285Y-264757771D01*
X330823400Y-264786800D01*
X330968542Y-264786800D01*
X331084657Y-264757771D01*
X331142714Y-264728742D01*
X331171742Y-264699714D01*
X331200771Y-264641657D01*
X331200771Y-264583600D01*
X331171742Y-264525542D01*
X331142714Y-264496514D01*
X331084657Y-264467485D01*
X330968542Y-264438457D01*
X330823400Y-264438457D01*
X330707285Y-264467485D01*
X330649228Y-264496514D01*
X330620200Y-264525542D01*
X330591171Y-264583600D01*
X331142714Y-265048057D02*
X331171742Y-265077085D01*
X331200771Y-265048057D01*
X331171742Y-265019028D01*
X331142714Y-265048057D01*
X331200771Y-265048057D01*
X331200771Y-265657657D02*
X331200771Y-265309314D01*
X331200771Y-265483485D02*
X330591171Y-265483485D01*
X330678257Y-265425428D01*
X330736314Y-265367371D01*
X330765342Y-265309314D01*
X330794371Y-266180171D02*
X331200771Y-266180171D01*
X330794371Y-265918914D02*
X331113685Y-265918914D01*
X331171742Y-265947942D01*
X331200771Y-266006000D01*
X331200771Y-266093085D01*
X331171742Y-266151142D01*
X331142714Y-266180171D01*
X330794371Y-266383371D02*
X330794371Y-266615600D01*
X331200771Y-266470457D02*
X330678257Y-266470457D01*
X330620200Y-266499485D01*
X330591171Y-266557542D01*
X330591171Y-266615600D01*
%TD*%
M02*
