%TF.GenerationSoftware,KiCad,Pcbnew,(5.1.6)-1*%
%TF.CreationDate,2022-07-30T00:49:16+08:00*%
%TF.ProjectId,feng,66656e67-2e6b-4696-9361-645f70636258,rev?*%
%TF.SameCoordinates,Original*%
%TF.FileFunction,Soldermask,Bot*%
%TF.FilePolarity,Negative*%
%FSLAX46Y46*%
G04 Gerber Fmt 4.6, Leading zero omitted, Abs format (unit mm)*
G04 Created by KiCad (PCBNEW (5.1.6)-1) date 2022-07-30 00:49:16*
%MOMM*%
%LPD*%
G01*
G04 APERTURE LIST*
%ADD10C,2.082800*%
%ADD11O,1.700000X1.700000*%
%ADD12C,1.700000*%
%ADD13C,1.900000*%
%ADD14R,1.900000X1.900000*%
%ADD15R,2.100000X1.600000*%
%ADD16R,2.100000X3.900000*%
%ADD17R,1.700000X1.700000*%
%ADD18R,0.600000X0.900000*%
%ADD19R,0.500000X0.900000*%
%ADD20O,1.800000X1.800000*%
%ADD21R,1.800000X1.800000*%
%ADD22R,1.402080X1.000760*%
G04 APERTURE END LIST*
D10*
%TO.C,J4*%
X97500000Y-39540000D03*
X97500000Y-37000000D03*
%TD*%
%TO.C,J3*%
X173580000Y-33000000D03*
X171040000Y-33000000D03*
X168500000Y-33000000D03*
%TD*%
D11*
%TO.C,R5*%
X122800000Y-33500000D03*
D12*
X135500000Y-33500000D03*
%TD*%
D10*
%TO.C,J2*%
X180000000Y-50000000D03*
%TD*%
D13*
%TO.C,D1*%
X139960000Y-33500000D03*
D14*
X142500000Y-33500000D03*
%TD*%
D15*
%TO.C,U4*%
X107850000Y-40300000D03*
X107850000Y-35700000D03*
X107850000Y-38000000D03*
D16*
X114150000Y-38000000D03*
%TD*%
%TO.C,U3*%
G36*
G01*
X169620000Y-45600000D02*
X169270000Y-45600000D01*
G75*
G02*
X169095000Y-45425000I0J175000D01*
G01*
X169095000Y-44075000D01*
G75*
G02*
X169270000Y-43900000I175000J0D01*
G01*
X169620000Y-43900000D01*
G75*
G02*
X169795000Y-44075000I0J-175000D01*
G01*
X169795000Y-45425000D01*
G75*
G02*
X169620000Y-45600000I-175000J0D01*
G01*
G37*
G36*
G01*
X168350000Y-45600000D02*
X168000000Y-45600000D01*
G75*
G02*
X167825000Y-45425000I0J175000D01*
G01*
X167825000Y-44075000D01*
G75*
G02*
X168000000Y-43900000I175000J0D01*
G01*
X168350000Y-43900000D01*
G75*
G02*
X168525000Y-44075000I0J-175000D01*
G01*
X168525000Y-45425000D01*
G75*
G02*
X168350000Y-45600000I-175000J0D01*
G01*
G37*
G36*
G01*
X167080000Y-45600000D02*
X166730000Y-45600000D01*
G75*
G02*
X166555000Y-45425000I0J175000D01*
G01*
X166555000Y-44075000D01*
G75*
G02*
X166730000Y-43900000I175000J0D01*
G01*
X167080000Y-43900000D01*
G75*
G02*
X167255000Y-44075000I0J-175000D01*
G01*
X167255000Y-45425000D01*
G75*
G02*
X167080000Y-45600000I-175000J0D01*
G01*
G37*
G36*
G01*
X165810000Y-45600000D02*
X165460000Y-45600000D01*
G75*
G02*
X165285000Y-45425000I0J175000D01*
G01*
X165285000Y-44075000D01*
G75*
G02*
X165460000Y-43900000I175000J0D01*
G01*
X165810000Y-43900000D01*
G75*
G02*
X165985000Y-44075000I0J-175000D01*
G01*
X165985000Y-45425000D01*
G75*
G02*
X165810000Y-45600000I-175000J0D01*
G01*
G37*
G36*
G01*
X164540000Y-45600000D02*
X164190000Y-45600000D01*
G75*
G02*
X164015000Y-45425000I0J175000D01*
G01*
X164015000Y-44075000D01*
G75*
G02*
X164190000Y-43900000I175000J0D01*
G01*
X164540000Y-43900000D01*
G75*
G02*
X164715000Y-44075000I0J-175000D01*
G01*
X164715000Y-45425000D01*
G75*
G02*
X164540000Y-45600000I-175000J0D01*
G01*
G37*
G36*
G01*
X163270000Y-45600000D02*
X162920000Y-45600000D01*
G75*
G02*
X162745000Y-45425000I0J175000D01*
G01*
X162745000Y-44075000D01*
G75*
G02*
X162920000Y-43900000I175000J0D01*
G01*
X163270000Y-43900000D01*
G75*
G02*
X163445000Y-44075000I0J-175000D01*
G01*
X163445000Y-45425000D01*
G75*
G02*
X163270000Y-45600000I-175000J0D01*
G01*
G37*
G36*
G01*
X162000000Y-45600000D02*
X161650000Y-45600000D01*
G75*
G02*
X161475000Y-45425000I0J175000D01*
G01*
X161475000Y-44075000D01*
G75*
G02*
X161650000Y-43900000I175000J0D01*
G01*
X162000000Y-43900000D01*
G75*
G02*
X162175000Y-44075000I0J-175000D01*
G01*
X162175000Y-45425000D01*
G75*
G02*
X162000000Y-45600000I-175000J0D01*
G01*
G37*
G36*
G01*
X160730000Y-45600000D02*
X160380000Y-45600000D01*
G75*
G02*
X160205000Y-45425000I0J175000D01*
G01*
X160205000Y-44075000D01*
G75*
G02*
X160380000Y-43900000I175000J0D01*
G01*
X160730000Y-43900000D01*
G75*
G02*
X160905000Y-44075000I0J-175000D01*
G01*
X160905000Y-45425000D01*
G75*
G02*
X160730000Y-45600000I-175000J0D01*
G01*
G37*
G36*
G01*
X160730000Y-52100000D02*
X160380000Y-52100000D01*
G75*
G02*
X160205000Y-51925000I0J175000D01*
G01*
X160205000Y-50575000D01*
G75*
G02*
X160380000Y-50400000I175000J0D01*
G01*
X160730000Y-50400000D01*
G75*
G02*
X160905000Y-50575000I0J-175000D01*
G01*
X160905000Y-51925000D01*
G75*
G02*
X160730000Y-52100000I-175000J0D01*
G01*
G37*
G36*
G01*
X162000000Y-52100000D02*
X161650000Y-52100000D01*
G75*
G02*
X161475000Y-51925000I0J175000D01*
G01*
X161475000Y-50575000D01*
G75*
G02*
X161650000Y-50400000I175000J0D01*
G01*
X162000000Y-50400000D01*
G75*
G02*
X162175000Y-50575000I0J-175000D01*
G01*
X162175000Y-51925000D01*
G75*
G02*
X162000000Y-52100000I-175000J0D01*
G01*
G37*
G36*
G01*
X163270000Y-52100000D02*
X162920000Y-52100000D01*
G75*
G02*
X162745000Y-51925000I0J175000D01*
G01*
X162745000Y-50575000D01*
G75*
G02*
X162920000Y-50400000I175000J0D01*
G01*
X163270000Y-50400000D01*
G75*
G02*
X163445000Y-50575000I0J-175000D01*
G01*
X163445000Y-51925000D01*
G75*
G02*
X163270000Y-52100000I-175000J0D01*
G01*
G37*
G36*
G01*
X164540000Y-52100000D02*
X164190000Y-52100000D01*
G75*
G02*
X164015000Y-51925000I0J175000D01*
G01*
X164015000Y-50575000D01*
G75*
G02*
X164190000Y-50400000I175000J0D01*
G01*
X164540000Y-50400000D01*
G75*
G02*
X164715000Y-50575000I0J-175000D01*
G01*
X164715000Y-51925000D01*
G75*
G02*
X164540000Y-52100000I-175000J0D01*
G01*
G37*
G36*
G01*
X165810000Y-52100000D02*
X165460000Y-52100000D01*
G75*
G02*
X165285000Y-51925000I0J175000D01*
G01*
X165285000Y-50575000D01*
G75*
G02*
X165460000Y-50400000I175000J0D01*
G01*
X165810000Y-50400000D01*
G75*
G02*
X165985000Y-50575000I0J-175000D01*
G01*
X165985000Y-51925000D01*
G75*
G02*
X165810000Y-52100000I-175000J0D01*
G01*
G37*
G36*
G01*
X167080000Y-52100000D02*
X166730000Y-52100000D01*
G75*
G02*
X166555000Y-51925000I0J175000D01*
G01*
X166555000Y-50575000D01*
G75*
G02*
X166730000Y-50400000I175000J0D01*
G01*
X167080000Y-50400000D01*
G75*
G02*
X167255000Y-50575000I0J-175000D01*
G01*
X167255000Y-51925000D01*
G75*
G02*
X167080000Y-52100000I-175000J0D01*
G01*
G37*
G36*
G01*
X168350000Y-52100000D02*
X168000000Y-52100000D01*
G75*
G02*
X167825000Y-51925000I0J175000D01*
G01*
X167825000Y-50575000D01*
G75*
G02*
X168000000Y-50400000I175000J0D01*
G01*
X168350000Y-50400000D01*
G75*
G02*
X168525000Y-50575000I0J-175000D01*
G01*
X168525000Y-51925000D01*
G75*
G02*
X168350000Y-52100000I-175000J0D01*
G01*
G37*
G36*
G01*
X169620000Y-52100000D02*
X169270000Y-52100000D01*
G75*
G02*
X169095000Y-51925000I0J175000D01*
G01*
X169095000Y-50575000D01*
G75*
G02*
X169270000Y-50400000I175000J0D01*
G01*
X169620000Y-50400000D01*
G75*
G02*
X169795000Y-50575000I0J-175000D01*
G01*
X169795000Y-51925000D01*
G75*
G02*
X169620000Y-52100000I-175000J0D01*
G01*
G37*
%TD*%
%TO.C,U2*%
G36*
G01*
X147620000Y-45600000D02*
X147270000Y-45600000D01*
G75*
G02*
X147095000Y-45425000I0J175000D01*
G01*
X147095000Y-44075000D01*
G75*
G02*
X147270000Y-43900000I175000J0D01*
G01*
X147620000Y-43900000D01*
G75*
G02*
X147795000Y-44075000I0J-175000D01*
G01*
X147795000Y-45425000D01*
G75*
G02*
X147620000Y-45600000I-175000J0D01*
G01*
G37*
G36*
G01*
X146350000Y-45600000D02*
X146000000Y-45600000D01*
G75*
G02*
X145825000Y-45425000I0J175000D01*
G01*
X145825000Y-44075000D01*
G75*
G02*
X146000000Y-43900000I175000J0D01*
G01*
X146350000Y-43900000D01*
G75*
G02*
X146525000Y-44075000I0J-175000D01*
G01*
X146525000Y-45425000D01*
G75*
G02*
X146350000Y-45600000I-175000J0D01*
G01*
G37*
G36*
G01*
X145080000Y-45600000D02*
X144730000Y-45600000D01*
G75*
G02*
X144555000Y-45425000I0J175000D01*
G01*
X144555000Y-44075000D01*
G75*
G02*
X144730000Y-43900000I175000J0D01*
G01*
X145080000Y-43900000D01*
G75*
G02*
X145255000Y-44075000I0J-175000D01*
G01*
X145255000Y-45425000D01*
G75*
G02*
X145080000Y-45600000I-175000J0D01*
G01*
G37*
G36*
G01*
X143810000Y-45600000D02*
X143460000Y-45600000D01*
G75*
G02*
X143285000Y-45425000I0J175000D01*
G01*
X143285000Y-44075000D01*
G75*
G02*
X143460000Y-43900000I175000J0D01*
G01*
X143810000Y-43900000D01*
G75*
G02*
X143985000Y-44075000I0J-175000D01*
G01*
X143985000Y-45425000D01*
G75*
G02*
X143810000Y-45600000I-175000J0D01*
G01*
G37*
G36*
G01*
X142540000Y-45600000D02*
X142190000Y-45600000D01*
G75*
G02*
X142015000Y-45425000I0J175000D01*
G01*
X142015000Y-44075000D01*
G75*
G02*
X142190000Y-43900000I175000J0D01*
G01*
X142540000Y-43900000D01*
G75*
G02*
X142715000Y-44075000I0J-175000D01*
G01*
X142715000Y-45425000D01*
G75*
G02*
X142540000Y-45600000I-175000J0D01*
G01*
G37*
G36*
G01*
X141270000Y-45600000D02*
X140920000Y-45600000D01*
G75*
G02*
X140745000Y-45425000I0J175000D01*
G01*
X140745000Y-44075000D01*
G75*
G02*
X140920000Y-43900000I175000J0D01*
G01*
X141270000Y-43900000D01*
G75*
G02*
X141445000Y-44075000I0J-175000D01*
G01*
X141445000Y-45425000D01*
G75*
G02*
X141270000Y-45600000I-175000J0D01*
G01*
G37*
G36*
G01*
X140000000Y-45600000D02*
X139650000Y-45600000D01*
G75*
G02*
X139475000Y-45425000I0J175000D01*
G01*
X139475000Y-44075000D01*
G75*
G02*
X139650000Y-43900000I175000J0D01*
G01*
X140000000Y-43900000D01*
G75*
G02*
X140175000Y-44075000I0J-175000D01*
G01*
X140175000Y-45425000D01*
G75*
G02*
X140000000Y-45600000I-175000J0D01*
G01*
G37*
G36*
G01*
X138730000Y-45600000D02*
X138380000Y-45600000D01*
G75*
G02*
X138205000Y-45425000I0J175000D01*
G01*
X138205000Y-44075000D01*
G75*
G02*
X138380000Y-43900000I175000J0D01*
G01*
X138730000Y-43900000D01*
G75*
G02*
X138905000Y-44075000I0J-175000D01*
G01*
X138905000Y-45425000D01*
G75*
G02*
X138730000Y-45600000I-175000J0D01*
G01*
G37*
G36*
G01*
X138730000Y-52100000D02*
X138380000Y-52100000D01*
G75*
G02*
X138205000Y-51925000I0J175000D01*
G01*
X138205000Y-50575000D01*
G75*
G02*
X138380000Y-50400000I175000J0D01*
G01*
X138730000Y-50400000D01*
G75*
G02*
X138905000Y-50575000I0J-175000D01*
G01*
X138905000Y-51925000D01*
G75*
G02*
X138730000Y-52100000I-175000J0D01*
G01*
G37*
G36*
G01*
X140000000Y-52100000D02*
X139650000Y-52100000D01*
G75*
G02*
X139475000Y-51925000I0J175000D01*
G01*
X139475000Y-50575000D01*
G75*
G02*
X139650000Y-50400000I175000J0D01*
G01*
X140000000Y-50400000D01*
G75*
G02*
X140175000Y-50575000I0J-175000D01*
G01*
X140175000Y-51925000D01*
G75*
G02*
X140000000Y-52100000I-175000J0D01*
G01*
G37*
G36*
G01*
X141270000Y-52100000D02*
X140920000Y-52100000D01*
G75*
G02*
X140745000Y-51925000I0J175000D01*
G01*
X140745000Y-50575000D01*
G75*
G02*
X140920000Y-50400000I175000J0D01*
G01*
X141270000Y-50400000D01*
G75*
G02*
X141445000Y-50575000I0J-175000D01*
G01*
X141445000Y-51925000D01*
G75*
G02*
X141270000Y-52100000I-175000J0D01*
G01*
G37*
G36*
G01*
X142540000Y-52100000D02*
X142190000Y-52100000D01*
G75*
G02*
X142015000Y-51925000I0J175000D01*
G01*
X142015000Y-50575000D01*
G75*
G02*
X142190000Y-50400000I175000J0D01*
G01*
X142540000Y-50400000D01*
G75*
G02*
X142715000Y-50575000I0J-175000D01*
G01*
X142715000Y-51925000D01*
G75*
G02*
X142540000Y-52100000I-175000J0D01*
G01*
G37*
G36*
G01*
X143810000Y-52100000D02*
X143460000Y-52100000D01*
G75*
G02*
X143285000Y-51925000I0J175000D01*
G01*
X143285000Y-50575000D01*
G75*
G02*
X143460000Y-50400000I175000J0D01*
G01*
X143810000Y-50400000D01*
G75*
G02*
X143985000Y-50575000I0J-175000D01*
G01*
X143985000Y-51925000D01*
G75*
G02*
X143810000Y-52100000I-175000J0D01*
G01*
G37*
G36*
G01*
X145080000Y-52100000D02*
X144730000Y-52100000D01*
G75*
G02*
X144555000Y-51925000I0J175000D01*
G01*
X144555000Y-50575000D01*
G75*
G02*
X144730000Y-50400000I175000J0D01*
G01*
X145080000Y-50400000D01*
G75*
G02*
X145255000Y-50575000I0J-175000D01*
G01*
X145255000Y-51925000D01*
G75*
G02*
X145080000Y-52100000I-175000J0D01*
G01*
G37*
G36*
G01*
X146350000Y-52100000D02*
X146000000Y-52100000D01*
G75*
G02*
X145825000Y-51925000I0J175000D01*
G01*
X145825000Y-50575000D01*
G75*
G02*
X146000000Y-50400000I175000J0D01*
G01*
X146350000Y-50400000D01*
G75*
G02*
X146525000Y-50575000I0J-175000D01*
G01*
X146525000Y-51925000D01*
G75*
G02*
X146350000Y-52100000I-175000J0D01*
G01*
G37*
G36*
G01*
X147620000Y-52100000D02*
X147270000Y-52100000D01*
G75*
G02*
X147095000Y-51925000I0J175000D01*
G01*
X147095000Y-50575000D01*
G75*
G02*
X147270000Y-50400000I175000J0D01*
G01*
X147620000Y-50400000D01*
G75*
G02*
X147795000Y-50575000I0J-175000D01*
G01*
X147795000Y-51925000D01*
G75*
G02*
X147620000Y-52100000I-175000J0D01*
G01*
G37*
%TD*%
%TO.C,U1*%
G36*
G01*
X125620000Y-45600000D02*
X125270000Y-45600000D01*
G75*
G02*
X125095000Y-45425000I0J175000D01*
G01*
X125095000Y-44075000D01*
G75*
G02*
X125270000Y-43900000I175000J0D01*
G01*
X125620000Y-43900000D01*
G75*
G02*
X125795000Y-44075000I0J-175000D01*
G01*
X125795000Y-45425000D01*
G75*
G02*
X125620000Y-45600000I-175000J0D01*
G01*
G37*
G36*
G01*
X124350000Y-45600000D02*
X124000000Y-45600000D01*
G75*
G02*
X123825000Y-45425000I0J175000D01*
G01*
X123825000Y-44075000D01*
G75*
G02*
X124000000Y-43900000I175000J0D01*
G01*
X124350000Y-43900000D01*
G75*
G02*
X124525000Y-44075000I0J-175000D01*
G01*
X124525000Y-45425000D01*
G75*
G02*
X124350000Y-45600000I-175000J0D01*
G01*
G37*
G36*
G01*
X123080000Y-45600000D02*
X122730000Y-45600000D01*
G75*
G02*
X122555000Y-45425000I0J175000D01*
G01*
X122555000Y-44075000D01*
G75*
G02*
X122730000Y-43900000I175000J0D01*
G01*
X123080000Y-43900000D01*
G75*
G02*
X123255000Y-44075000I0J-175000D01*
G01*
X123255000Y-45425000D01*
G75*
G02*
X123080000Y-45600000I-175000J0D01*
G01*
G37*
G36*
G01*
X121810000Y-45600000D02*
X121460000Y-45600000D01*
G75*
G02*
X121285000Y-45425000I0J175000D01*
G01*
X121285000Y-44075000D01*
G75*
G02*
X121460000Y-43900000I175000J0D01*
G01*
X121810000Y-43900000D01*
G75*
G02*
X121985000Y-44075000I0J-175000D01*
G01*
X121985000Y-45425000D01*
G75*
G02*
X121810000Y-45600000I-175000J0D01*
G01*
G37*
G36*
G01*
X120540000Y-45600000D02*
X120190000Y-45600000D01*
G75*
G02*
X120015000Y-45425000I0J175000D01*
G01*
X120015000Y-44075000D01*
G75*
G02*
X120190000Y-43900000I175000J0D01*
G01*
X120540000Y-43900000D01*
G75*
G02*
X120715000Y-44075000I0J-175000D01*
G01*
X120715000Y-45425000D01*
G75*
G02*
X120540000Y-45600000I-175000J0D01*
G01*
G37*
G36*
G01*
X119270000Y-45600000D02*
X118920000Y-45600000D01*
G75*
G02*
X118745000Y-45425000I0J175000D01*
G01*
X118745000Y-44075000D01*
G75*
G02*
X118920000Y-43900000I175000J0D01*
G01*
X119270000Y-43900000D01*
G75*
G02*
X119445000Y-44075000I0J-175000D01*
G01*
X119445000Y-45425000D01*
G75*
G02*
X119270000Y-45600000I-175000J0D01*
G01*
G37*
G36*
G01*
X118000000Y-45600000D02*
X117650000Y-45600000D01*
G75*
G02*
X117475000Y-45425000I0J175000D01*
G01*
X117475000Y-44075000D01*
G75*
G02*
X117650000Y-43900000I175000J0D01*
G01*
X118000000Y-43900000D01*
G75*
G02*
X118175000Y-44075000I0J-175000D01*
G01*
X118175000Y-45425000D01*
G75*
G02*
X118000000Y-45600000I-175000J0D01*
G01*
G37*
G36*
G01*
X116730000Y-45600000D02*
X116380000Y-45600000D01*
G75*
G02*
X116205000Y-45425000I0J175000D01*
G01*
X116205000Y-44075000D01*
G75*
G02*
X116380000Y-43900000I175000J0D01*
G01*
X116730000Y-43900000D01*
G75*
G02*
X116905000Y-44075000I0J-175000D01*
G01*
X116905000Y-45425000D01*
G75*
G02*
X116730000Y-45600000I-175000J0D01*
G01*
G37*
G36*
G01*
X116730000Y-52100000D02*
X116380000Y-52100000D01*
G75*
G02*
X116205000Y-51925000I0J175000D01*
G01*
X116205000Y-50575000D01*
G75*
G02*
X116380000Y-50400000I175000J0D01*
G01*
X116730000Y-50400000D01*
G75*
G02*
X116905000Y-50575000I0J-175000D01*
G01*
X116905000Y-51925000D01*
G75*
G02*
X116730000Y-52100000I-175000J0D01*
G01*
G37*
G36*
G01*
X118000000Y-52100000D02*
X117650000Y-52100000D01*
G75*
G02*
X117475000Y-51925000I0J175000D01*
G01*
X117475000Y-50575000D01*
G75*
G02*
X117650000Y-50400000I175000J0D01*
G01*
X118000000Y-50400000D01*
G75*
G02*
X118175000Y-50575000I0J-175000D01*
G01*
X118175000Y-51925000D01*
G75*
G02*
X118000000Y-52100000I-175000J0D01*
G01*
G37*
G36*
G01*
X119270000Y-52100000D02*
X118920000Y-52100000D01*
G75*
G02*
X118745000Y-51925000I0J175000D01*
G01*
X118745000Y-50575000D01*
G75*
G02*
X118920000Y-50400000I175000J0D01*
G01*
X119270000Y-50400000D01*
G75*
G02*
X119445000Y-50575000I0J-175000D01*
G01*
X119445000Y-51925000D01*
G75*
G02*
X119270000Y-52100000I-175000J0D01*
G01*
G37*
G36*
G01*
X120540000Y-52100000D02*
X120190000Y-52100000D01*
G75*
G02*
X120015000Y-51925000I0J175000D01*
G01*
X120015000Y-50575000D01*
G75*
G02*
X120190000Y-50400000I175000J0D01*
G01*
X120540000Y-50400000D01*
G75*
G02*
X120715000Y-50575000I0J-175000D01*
G01*
X120715000Y-51925000D01*
G75*
G02*
X120540000Y-52100000I-175000J0D01*
G01*
G37*
G36*
G01*
X121810000Y-52100000D02*
X121460000Y-52100000D01*
G75*
G02*
X121285000Y-51925000I0J175000D01*
G01*
X121285000Y-50575000D01*
G75*
G02*
X121460000Y-50400000I175000J0D01*
G01*
X121810000Y-50400000D01*
G75*
G02*
X121985000Y-50575000I0J-175000D01*
G01*
X121985000Y-51925000D01*
G75*
G02*
X121810000Y-52100000I-175000J0D01*
G01*
G37*
G36*
G01*
X123080000Y-52100000D02*
X122730000Y-52100000D01*
G75*
G02*
X122555000Y-51925000I0J175000D01*
G01*
X122555000Y-50575000D01*
G75*
G02*
X122730000Y-50400000I175000J0D01*
G01*
X123080000Y-50400000D01*
G75*
G02*
X123255000Y-50575000I0J-175000D01*
G01*
X123255000Y-51925000D01*
G75*
G02*
X123080000Y-52100000I-175000J0D01*
G01*
G37*
G36*
G01*
X124350000Y-52100000D02*
X124000000Y-52100000D01*
G75*
G02*
X123825000Y-51925000I0J175000D01*
G01*
X123825000Y-50575000D01*
G75*
G02*
X124000000Y-50400000I175000J0D01*
G01*
X124350000Y-50400000D01*
G75*
G02*
X124525000Y-50575000I0J-175000D01*
G01*
X124525000Y-51925000D01*
G75*
G02*
X124350000Y-52100000I-175000J0D01*
G01*
G37*
G36*
G01*
X125620000Y-52100000D02*
X125270000Y-52100000D01*
G75*
G02*
X125095000Y-51925000I0J175000D01*
G01*
X125095000Y-50575000D01*
G75*
G02*
X125270000Y-50400000I175000J0D01*
G01*
X125620000Y-50400000D01*
G75*
G02*
X125795000Y-50575000I0J-175000D01*
G01*
X125795000Y-51925000D01*
G75*
G02*
X125620000Y-52100000I-175000J0D01*
G01*
G37*
%TD*%
D11*
%TO.C,SW24*%
X105120000Y-79000000D03*
D17*
X97500000Y-79000000D03*
%TD*%
D11*
%TO.C,SW23*%
X116120000Y-79000000D03*
D17*
X108500000Y-79000000D03*
%TD*%
D11*
%TO.C,SW22*%
X127120000Y-79000000D03*
D17*
X119500000Y-79000000D03*
%TD*%
D11*
%TO.C,SW21*%
X138120000Y-79000000D03*
D17*
X130500000Y-79000000D03*
%TD*%
D11*
%TO.C,SW20*%
X149120000Y-79000000D03*
D17*
X141500000Y-79000000D03*
%TD*%
D11*
%TO.C,SW19*%
X160120000Y-79000000D03*
D17*
X152500000Y-79000000D03*
%TD*%
D11*
%TO.C,SW18*%
X171120000Y-79000000D03*
D17*
X163500000Y-79000000D03*
%TD*%
D11*
%TO.C,SW17*%
X182120000Y-79000000D03*
D17*
X174500000Y-79000000D03*
%TD*%
D11*
%TO.C,SW16*%
X105120000Y-71000000D03*
D17*
X97500000Y-71000000D03*
%TD*%
D11*
%TO.C,SW15*%
X116120000Y-71000000D03*
D17*
X108500000Y-71000000D03*
%TD*%
D11*
%TO.C,SW14*%
X127120000Y-71000000D03*
D17*
X119500000Y-71000000D03*
%TD*%
D11*
%TO.C,SW13*%
X138120000Y-71000000D03*
D17*
X130500000Y-71000000D03*
%TD*%
D11*
%TO.C,SW12*%
X149120000Y-71000000D03*
D17*
X141500000Y-71000000D03*
%TD*%
D11*
%TO.C,SW11*%
X160120000Y-71000000D03*
D17*
X152500000Y-71000000D03*
%TD*%
D11*
%TO.C,SW10*%
X171120000Y-71000000D03*
D17*
X163500000Y-71000000D03*
%TD*%
D11*
%TO.C,SW9*%
X182120000Y-71000000D03*
D17*
X174500000Y-71000000D03*
%TD*%
D11*
%TO.C,SW8*%
X105120000Y-63000000D03*
D17*
X97500000Y-63000000D03*
%TD*%
D11*
%TO.C,SW7*%
X116120000Y-63000000D03*
D17*
X108500000Y-63000000D03*
%TD*%
D11*
%TO.C,SW6*%
X127120000Y-63000000D03*
D17*
X119500000Y-63000000D03*
%TD*%
D11*
%TO.C,SW5*%
X138120000Y-63000000D03*
D17*
X130500000Y-63000000D03*
%TD*%
D11*
%TO.C,SW4*%
X149120000Y-63000000D03*
D17*
X141500000Y-63000000D03*
%TD*%
D11*
%TO.C,SW3*%
X160120000Y-63000000D03*
D17*
X152500000Y-63000000D03*
%TD*%
D11*
%TO.C,SW2*%
X171120000Y-63000000D03*
D17*
X163500000Y-63000000D03*
%TD*%
D11*
%TO.C,SW1*%
X182120000Y-63000000D03*
D17*
X174500000Y-63000000D03*
%TD*%
D18*
%TO.C,RN6*%
X160800000Y-54600000D03*
D19*
X161600000Y-54600000D03*
D18*
X163200000Y-54600000D03*
D19*
X162400000Y-54600000D03*
D18*
X160800000Y-56400000D03*
D19*
X162400000Y-56400000D03*
X161600000Y-56400000D03*
D18*
X163200000Y-56400000D03*
%TD*%
%TO.C,RN5*%
X138800000Y-54600000D03*
D19*
X139600000Y-54600000D03*
D18*
X141200000Y-54600000D03*
D19*
X140400000Y-54600000D03*
D18*
X138800000Y-56400000D03*
D19*
X140400000Y-56400000D03*
X139600000Y-56400000D03*
D18*
X141200000Y-56400000D03*
%TD*%
%TO.C,RN4*%
X116800000Y-54600000D03*
D19*
X117600000Y-54600000D03*
D18*
X119200000Y-54600000D03*
D19*
X118400000Y-54600000D03*
D18*
X116800000Y-56400000D03*
D19*
X118400000Y-56400000D03*
X117600000Y-56400000D03*
D18*
X119200000Y-56400000D03*
%TD*%
%TO.C,RN3*%
X169200000Y-56400000D03*
D19*
X168400000Y-56400000D03*
D18*
X166800000Y-56400000D03*
D19*
X167600000Y-56400000D03*
D18*
X169200000Y-54600000D03*
D19*
X167600000Y-54600000D03*
X168400000Y-54600000D03*
D18*
X166800000Y-54600000D03*
%TD*%
%TO.C,RN2*%
X147200000Y-56400000D03*
D19*
X146400000Y-56400000D03*
D18*
X144800000Y-56400000D03*
D19*
X145600000Y-56400000D03*
D18*
X147200000Y-54600000D03*
D19*
X145600000Y-54600000D03*
X146400000Y-54600000D03*
D18*
X144800000Y-54600000D03*
%TD*%
%TO.C,RN1*%
X125200000Y-56400000D03*
D19*
X124400000Y-56400000D03*
D18*
X122800000Y-56400000D03*
D19*
X123600000Y-56400000D03*
D18*
X125200000Y-54600000D03*
D19*
X123600000Y-54600000D03*
X124400000Y-54600000D03*
D18*
X122800000Y-54600000D03*
%TD*%
D20*
%TO.C,J1*%
X180000000Y-45580000D03*
X180000000Y-43040000D03*
D21*
X180000000Y-40500000D03*
%TD*%
D22*
%TO.C,C4*%
X120500000Y-38899160D03*
X120500000Y-37100840D03*
%TD*%
%TO.C,C3*%
X118000000Y-38899160D03*
X118000000Y-37100840D03*
%TD*%
%TO.C,C2*%
X104000000Y-38899160D03*
X104000000Y-37100840D03*
%TD*%
%TO.C,C1*%
X101500000Y-38899160D03*
X101500000Y-37100840D03*
%TD*%
M02*
