M48
; DRILL file {KiCad (5.1.6)-1} date 07/30/22 00:49:12
; FORMAT={-:-/ absolute / inch / decimal}
; #@! TF.CreationDate,2022-07-30T00:49:12+08:00
; #@! TF.GenerationSoftware,Kicad,Pcbnew,(5.1.6)-1
; #@! TF.FileFunction,Plated,1,2,PTH
FMAT,2
INCH
T1C0.0157
T2C0.0315
T3C0.0354
T4C0.0394
T5C0.0400
T6C0.0472
%
G90
G05
T1
X4.393Y-2.4431
X4.645Y-2.3125
X4.6649Y-2.1029
X4.7244Y-2.1116
X4.7499Y-2.1586
X4.8381Y-2.1076
X4.8428Y-1.9579
X4.8555Y-2.2969
X4.894Y-1.9184
X4.9379Y-1.8448
X4.9666Y-1.946
X4.9729Y-2.2069
X4.9971Y-2.2633
X5.0495Y-2.2037
X5.1466Y-2.1422
X5.381Y-2.0459
X5.5306Y-2.1015
X5.548Y-2.2731
X5.5595Y-2.3362
X5.5925Y-2.7243
X5.6Y-2.3177
X5.6291Y-2.2172
X5.6319Y-2.1361
X5.6601Y-2.0961
X5.7052Y-2.347
X5.7194Y-2.3956
X5.7204Y-2.088
X5.7361Y-2.6644
X5.753Y-1.9138
X5.7693Y-2.1074
X5.7891Y-2.6391
X5.8016Y-1.8313
X5.8532Y-2.2219
X5.8569Y-2.021
X5.8757Y-2.2915
X5.8826Y-1.7455
X5.9135Y-2.3275
X5.9715Y-2.15
X6.1912Y-2.5647
X6.2402Y-2.2835
X6.3856Y-2.1059
X6.4228Y-2.9232
X6.4424Y-1.9255
X6.4461Y-1.8651
X6.4697Y-2.2101
X6.5125Y-1.5762
X6.52Y-2.1065
X6.5469Y-1.9444
X6.5989Y-2.0934
X6.621Y-1.938
X6.6242Y-1.6865
X6.7706Y-1.8502
T2
X6.0039Y-2.4803
X6.3039Y-2.4803
X6.8701Y-2.7953
X7.1701Y-2.7953
X4.7047Y-2.4803
X5.0047Y-2.4803
X6.0039Y-3.1102
X6.3039Y-3.1102
X3.8386Y-3.1102
X4.1386Y-3.1102
X5.1378Y-2.4803
X5.4378Y-2.4803
X6.8701Y-2.4803
X7.1701Y-2.4803
X5.1378Y-3.1102
X5.4378Y-3.1102
X6.437Y-2.7953
X6.737Y-2.7953
X4.2717Y-3.1102
X4.5717Y-3.1102
X3.8386Y-2.7953
X4.1386Y-2.7953
X6.437Y-3.1102
X6.737Y-3.1102
X6.0039Y-2.7953
X6.3039Y-2.7953
X5.5709Y-2.4803
X5.8709Y-2.4803
X5.5709Y-3.1102
X5.8709Y-3.1102
X5.5709Y-2.7953
X5.8709Y-2.7953
X5.1378Y-2.7953
X5.4378Y-2.7953
X4.8346Y-1.3189
X5.3346Y-1.3189
X6.437Y-2.4803
X6.737Y-2.4803
X3.8386Y-2.4803
X4.1386Y-2.4803
X4.7047Y-3.1102
X5.0047Y-3.1102
X4.7047Y-2.7953
X5.0047Y-2.7953
X4.2717Y-2.7953
X4.5717Y-2.7953
X4.2717Y-2.4803
X4.5717Y-2.4803
X6.8701Y-3.1102
X7.1701Y-3.1102
T3
X5.5102Y-1.3189
X5.6102Y-1.3189
T4
X7.0866Y-1.5945
X7.0866Y-1.6945
X7.0866Y-1.7945
T5
X6.6339Y-1.2992
X6.7339Y-1.2992
X6.8339Y-1.2992
X3.8386Y-1.4567
X3.8386Y-1.5567
X7.0866Y-1.9685
T6
X4.4882Y-2.2047
T0
M30
