M48
; DRILL file {KiCad (5.1.6)-1} date 09/12/22 19:20:16
; FORMAT={-:-/ absolute / inch / decimal}
; #@! TF.CreationDate,2022-09-12T19:20:16+08:00
; #@! TF.GenerationSoftware,Kicad,Pcbnew,(5.1.6)-1
; #@! TF.FileFunction,Plated,1,2,PTH
FMAT,2
INCH
T1C0.0157
T2C0.0236
T3C0.0315
T4C0.0394
T5C0.0866
%
G90
G05
T1
X6.1188Y-7.5988
X6.1831Y-7.3177
X6.229Y-6.6722
X6.3202Y-9.0079
X6.4482Y-6.187
X6.4696Y-6.3281
X6.4992Y-7.8477
X6.8946Y-6.2075
X6.9713Y-6.6244
X7.0002Y-7.3038
X7.062Y-6.3281
X7.1148Y-7.3975
X7.1339Y-7.3038
X7.2195Y-7.1473
X7.2897Y-6.8059
X7.3433Y-8.1539
X7.3588Y-10.085
X7.3844Y-6.7056
X7.4333Y-6.7283
X7.5689Y-7.1473
X7.6003Y-7.8701
X7.6154Y-8.5525
X7.6606Y-6.831
X7.7124Y-6.9679
X7.7232Y-5.9492
X7.7443Y-7.8798
X7.7587Y-5.9018
X7.8893Y-9.5466
X7.9454Y-9.7805
X7.981Y-6.6002
X8.0598Y-8.3646
X8.1107Y-8.2994
X8.1139Y-9.0347
X8.2116Y-9.8265
X8.2124Y-6.1184
X8.2477Y-8.9887
X8.282Y-9.7061
X8.462Y-6.8989
X8.5088Y-6.1463
X8.5401Y-9.8971
X8.5932Y-8.4191
X8.6189Y-9.068
X8.6381Y-8.2987
X8.6434Y-9.0223
X8.6704Y-6.8446
X8.7096Y-9.8265
X8.7518Y-10.1116
X8.7539Y-9.1072
X8.8124Y-9.3288
X8.8313Y-8.2499
X8.8582Y-10.071
X8.8723Y-6.6002
X8.9442Y-10.2416
X9.0018Y-8.4176
X9.0467Y-10.0054
X9.2798Y-8.7144
X9.2864Y-10.1653
X9.426Y-9.9128
X9.4779Y-6.899
X9.5759Y-9.331
X9.6638Y-9.9153
X9.695Y-6.6879
X9.7048Y-7.1833
X9.7248Y-6.3499
X9.7304Y-6.7876
X9.7728Y-6.7283
X9.8053Y-6.7608
X9.8058Y-7.1833
X9.8821Y-8.5755
X9.9169Y-10.0011
X9.9425Y-9.3613
X9.9658Y-7.0386
X10.0267Y-9.7871
X10.1164Y-10.0099
X10.1832Y-10.0299
X10.2125Y-6.8161
X10.2248Y-10.265
X10.332Y-6.7835
X10.3422Y-6.3297
X10.4029Y-6.8294
X10.5736Y-9.9528
X10.5898Y-6.836
X10.6151Y-6.3251
X10.6417Y-6.8155
X10.647Y-8.5773
X10.65Y-10.221
X10.6636Y-6.9901
X10.7172Y-9.7603
X10.7197Y-6.8964
X10.9281Y-7.6774
X11.0203Y-6.3679
X11.039Y-6.7479
X11.1051Y-9.9139
X11.1099Y-8.6717
X11.184Y-9.8153
X11.2003Y-7.6048
X11.3416Y-9.0606
X11.3456Y-6.3306
X11.3646Y-8.1454
X11.4101Y-9.7281
X11.4455Y-9.3446
X11.4774Y-10.1254
X11.5806Y-8.4047
X11.6167Y-8.4252
X11.6211Y-6.8155
X11.7949Y-6.5305
X11.809Y-9.2403
X11.8388Y-7.5682
X11.8659Y-8.2663
X11.8898Y-7.5544
X11.9714Y-7.0071
X11.9947Y-9.0286
X12.004Y-9.8427
X12.0844Y-6.3295
X12.0867Y-8.4858
X12.1258Y-8.5973
X12.2802Y-7.2926
X12.4004Y-9.7193
X12.5516Y-10.2023
X12.6269Y-6.5723
X12.6351Y-7.6717
X12.6876Y-9.8238
X12.695Y-6.1591
X12.7016Y-6.8467
X12.7154Y-10.1728
X12.716Y-9.9213
X12.8535Y-10.1728
X12.8617Y-8.5536
X12.864Y-10.2882
X12.8752Y-8.0232
X12.8813Y-10.1254
X12.8869Y-9.0811
X12.8919Y-10.2614
X12.8972Y-9.2561
X12.995Y-9.8274
X13.0088Y-10.0283
X13.0244Y-7.6322
X13.0302Y-9.108
X13.0427Y-6.6536
X13.0563Y-9.7661
X13.0599Y-6.4831
X13.0782Y-7.4862
X13.1014Y-8.5707
X13.1429Y-6.8467
X13.1793Y-7.3911
X13.2396Y-6.7121
X13.2489Y-6.8895
X13.2592Y-9.3274
X13.3083Y-9.272
X13.3435Y-8.0232
X13.3477Y-6.5855
X13.3795Y-6.6756
X13.4146Y-6.8925
X13.4395Y-7.1971
X13.4511Y-9.0969
X13.4655Y-7.578
X13.5384Y-6.4535
X13.5411Y-9.3213
X13.5772Y-7.2994
X13.5876Y-8.4889
X13.6579Y-9.8517
X13.7791Y-6.8064
X13.7847Y-6.8653
X13.8666Y-7.7859
X13.8891Y-7.3003
X13.9832Y-7.7226
X13.9971Y-9.2677
X14.0245Y-7.079
X14.1414Y-7.0806
X14.149Y-9.0942
X14.1762Y-8.989
X14.2601Y-8.9747
X14.2819Y-8.3392
X14.3625Y-8.1449
X14.5064Y-6.8653
X14.5074Y-7.2874
X14.5591Y-10.0881
X14.5731Y-6.8478
X14.5733Y-6.4384
X14.5919Y-7.8638
X14.6087Y-6.2001
X14.684Y-9.7787
X14.6964Y-6.6536
X14.7404Y-8.5269
X14.7781Y-6.5143
X14.7856Y-6.6399
X14.8006Y-6.81
X14.801Y-9.3196
X14.8728Y-6.7875
X14.8888Y-8.2621
X14.9122Y-6.7814
X14.944Y-7.5126
X14.9559Y-6.4892
X14.9567Y-6.5919
X14.9791Y-9.7511
X14.9792Y-10.0355
X15.0341Y-6.4384
X15.0838Y-8.018
X15.0905Y-9.0882
X15.1242Y-9.9617
X15.1463Y-7.9038
X15.1476Y-7.8371
X15.2062Y-6.8799
X15.2322Y-7.0056
X15.2419Y-7.6764
X15.3199Y-8.8518
X15.3661Y-8.8048
X15.4288Y-7.3237
X15.4676Y-7.5531
X15.4989Y-8.7326
X15.5266Y-8.6432
X15.5403Y-7.5822
X15.5764Y-8.8048
X15.5918Y-9.0193
X15.6364Y-8.9808
X15.6433Y-7.5841
X15.6462Y-8.5409
X15.6591Y-8.2642
X15.6643Y-9.1985
X15.7291Y-8.4529
X15.771Y-8.8812
X15.775Y-7.5836
X15.7849Y-7.5427
X15.7873Y-8.3753
X15.7961Y-7.4607
X15.8169Y-7.171
X15.8294Y-9.8787
X15.835Y-8.8248
X15.8393Y-8.493
X15.8653Y-8.5497
X15.8743Y-6.8114
X15.8788Y-7.5902
X15.8909Y-8.0984
X15.9099Y-8.2667
X15.9618Y-9.6208
X15.9753Y-7.485
X15.9753Y-8.6416
X15.9863Y-8.7326
X16.0153Y-6.3282
X16.0165Y-7.2946
X16.1768Y-7.6481
X16.1988Y-9.1244
X16.2143Y-9.1929
X16.3163Y-7.2855
X16.3387Y-6.649
X16.3625Y-9.1142
X16.379Y-9.9343
X16.4382Y-7.4795
X16.4494Y-9.1827
X16.4559Y-9.907
X16.4657Y-7.7397
X16.4732Y-9.0693
X16.5118Y-9.0543
X16.5192Y-8.0984
X16.5237Y-8.9056
X16.5418Y-6.8483
X16.5977Y-9.1076
X16.6218Y-8.6409
X16.6363Y-9.1022
X16.647Y-6.7841
X16.7303Y-6.4677
X16.7545Y-9.1133
X16.7557Y-7.8855
X16.7917Y-8.7439
X16.8045Y-9.3931
X16.8097Y-9.0189
X16.8292Y-8.8788
X16.8803Y-8.3373
X16.9184Y-8.4714
X16.9282Y-7.6541
X16.9457Y-9.0016
X16.9533Y-6.3297
X16.9627Y-9.4753
X17.0032Y-7.8855
X17.0073Y-7.5302
X17.009Y-8.8581
X17.0173Y-8.6511
X17.02Y-8.6115
X17.0894Y-7.6508
X17.1042Y-7.5969
X17.1193Y-6.9491
X17.1219Y-7.5432
X17.1469Y-8.0345
X17.2129Y-7.0086
X17.2147Y-6.261
X17.2522Y-6.9691
X17.253Y-8.4791
X17.2693Y-7.4594
X17.2896Y-7.7564
X17.3239Y-7.63
X17.3263Y-10.0273
X17.3463Y-7.9054
X17.3514Y-8.5015
X17.3724Y-8.023
X17.38Y-7.8782
X17.4164Y-8.668
X17.4273Y-8.2152
X17.4275Y-7.7563
X17.5063Y-7.4376
X17.5366Y-9.3001
X17.5921Y-8.5233
X17.6301Y-7.1397
X17.7607Y-6.4105
X17.8797Y-7.5948
X18.0651Y-6.7644
X18.1135Y-8.1454
X18.1546Y-8.1517
X18.2039Y-8.2007
T3
X12.1291Y-10.3131
X12.1291Y-10.5052
T4
X16.9902Y-9.0596
X17.0902Y-9.0596
X17.1902Y-9.0596
X17.2902Y-9.0596
X17.6898Y-6.1626
X17.6898Y-6.261
X17.6898Y-6.3594
X18.2606Y-6.1626
X18.2606Y-6.3594
T5
X17.985Y-6.0406
X17.985Y-6.4815
T2
G00X8.2699Y-5.8961
M15
G01X8.2699Y-5.9276
M16
G05
G00X8.2699Y-6.0543
M15
G01X8.2699Y-6.0976
M16
G05
G00X8.6101Y-5.8961
M15
G01X8.6101Y-5.9276
M16
G05
G00X8.6101Y-6.0543
M15
G01X8.6101Y-6.0976
M16
G05
T0
M30
