M48
; DRILL file {KiCad (5.1.6)-1} date 08/23/22 22:02:46
; FORMAT={-:-/ absolute / inch / decimal}
; #@! TF.CreationDate,2022-08-23T22:02:46+08:00
; #@! TF.GenerationSoftware,Kicad,Pcbnew,(5.1.6)-1
; #@! TF.FileFunction,NonPlated,1,2,NPTH
FMAT,2
INCH
T1C0.0236
T2C0.0689
T3C0.1201
T4C0.1260
T5C0.1575
T6C0.2087
T7C0.2362
%
G90
G05
T1
X8.3262Y-6.0571
X8.5538Y-6.0571
T2
X12.7178Y-8.6984
X13.1178Y-8.6984
X6.2529Y-10.1983
X6.6529Y-10.1983
X15.7217Y-6.2608
X16.1217Y-6.2608
X14.9717Y-6.2608
X15.3717Y-6.2608
X12.163Y-7.198
X12.563Y-7.198
X16.8465Y-9.6358
X17.2465Y-9.6358
X13.8485Y-9.4485
X14.2485Y-9.4485
X9.3466Y-6.2608
X9.7466Y-6.2608
X10.8485Y-9.4485
X11.2485Y-9.4485
X10.4708Y-8.6984
X10.8708Y-8.6984
X6.1593Y-7.1983
X6.5593Y-7.1983
X11.786Y-7.9485
X12.186Y-7.9485
X17.5969Y-10.3858
X17.9969Y-10.3858
X7.4718Y-8.6984
X7.8718Y-8.6984
X13.4717Y-6.2608
X13.8717Y-6.2608
X15.537Y-7.9485
X15.937Y-7.9485
X14.4155Y-7.198
X14.8155Y-7.198
X9.912Y-7.198
X10.312Y-7.198
X7.8462Y-6.2608
X8.2462Y-6.2608
X11.0355Y-7.9485
X11.4355Y-7.9485
X7.6605Y-7.198
X8.0605Y-7.198
X17.7843Y-7.1984
X18.1843Y-7.1984
X9.3485Y-9.4485
X9.7485Y-9.4485
X8.9718Y-8.6984
X9.3718Y-8.6984
X14.5985Y-9.4485
X14.9985Y-9.4485
X14.788Y-7.9485
X15.188Y-7.9485
X15.1655Y-7.198
X15.5655Y-7.198
X14.9693Y-8.6984
X15.3693Y-8.6984
X17.7843Y-9.4484
X18.1843Y-9.4484
X7.8467Y-9.4485
X8.2467Y-9.4485
X13.0985Y-9.4485
X13.4985Y-9.4485
X11.7844Y-6.2608
X12.1844Y-6.2608
X12.3485Y-9.4485
X12.7485Y-9.4485
X8.5964Y-6.2608
X8.9964Y-6.2608
X8.5985Y-9.4485
X8.9985Y-9.4485
X6.3466Y-7.9483
X6.7466Y-7.9483
X16.6594Y-6.261
X17.0594Y-6.261
X15.6279Y-9.4483
X16.0279Y-9.4483
X8.128Y-10.1983
X8.528Y-10.1983
X9.537Y-7.9485
X9.937Y-7.9485
X6.4405Y-8.6983
X6.8405Y-8.6983
X17.7843Y-8.6984
X18.1843Y-8.6984
X10.2848Y-6.2608
X10.6848Y-6.2608
X10.9404Y-10.1983
X11.3404Y-10.1983
X16.1905Y-8.6983
X16.5905Y-8.6983
X6.1592Y-6.2608
X6.5592Y-6.2608
X8.2218Y-8.6984
X8.6218Y-8.6984
X8.0345Y-7.9485
X8.4345Y-7.9485
X14.2217Y-6.2608
X14.6217Y-6.2608
X6.628Y-9.4483
X7.028Y-9.4483
X14.0385Y-7.9485
X14.4385Y-7.9485
X9.16Y-7.198
X9.56Y-7.198
X12.5365Y-7.9485
X12.9365Y-7.9485
X13.6645Y-7.198
X14.0645Y-7.198
X6.9093Y-7.198
X7.3093Y-7.198
X11.2218Y-8.6984
X11.6218Y-8.6984
X11.5985Y-9.4485
X11.9985Y-9.4485
X12.9135Y-7.198
X13.3135Y-7.198
X11.9698Y-8.6984
X12.3698Y-8.6984
X14.2164Y-8.6984
X14.6164Y-8.6984
X12.5343Y-6.2608
X12.9343Y-6.2608
X13.4668Y-8.6984
X13.8668Y-8.6984
X14.4098Y-10.1984
X14.8098Y-10.1984
X10.663Y-7.198
X11.063Y-7.198
X8.785Y-7.9485
X9.185Y-7.9485
X15.1618Y-10.1984
X15.5618Y-10.1984
X8.408Y-7.198
X8.808Y-7.198
X17.7843Y-7.9484
X18.1843Y-7.9484
X10.0985Y-9.4485
X10.4985Y-9.4485
X7.1905Y-10.1983
X7.5905Y-10.1983
X7.2843Y-7.9485
X7.6843Y-7.9485
X10.2855Y-7.9485
X10.6855Y-7.9485
X16.2842Y-7.1983
X16.6842Y-7.1983
X13.6591Y-10.1984
X14.0591Y-10.1984
X16.4717Y-7.9483
X16.8717Y-7.9483
X16.0967Y-10.3858
X16.4967Y-10.3858
X11.413Y-7.198
X11.813Y-7.198
X9.7218Y-8.6984
X10.1218Y-8.6984
X11.0347Y-6.2608
X11.4347Y-6.2608
X16.8465Y-10.3857
X17.2465Y-10.3857
X13.288Y-7.9485
X13.688Y-7.9485
X7.0967Y-6.2608
X7.4967Y-6.2608
T3
X15.2118Y-10.0984
X15.4618Y-9.9984
X8.508Y-7.398
X8.758Y-7.298
X17.8343Y-7.8484
X18.0843Y-7.7484
X10.1485Y-9.3485
X10.3985Y-9.2485
X7.2405Y-10.0983
X7.4905Y-9.9983
X7.3343Y-7.8485
X7.5843Y-7.7485
X10.3355Y-7.8485
X10.5855Y-7.7485
X16.3842Y-7.3983
X16.6342Y-7.2983
X13.7091Y-10.0984
X13.9591Y-9.9984
X16.5217Y-7.8483
X16.7717Y-7.7483
X16.1467Y-10.2858
X16.3967Y-10.1858
X11.513Y-7.398
X11.763Y-7.298
X9.7718Y-8.5984
X10.0218Y-8.4984
X11.0847Y-6.1608
X11.3347Y-6.0608
X16.8965Y-10.2857
X17.1465Y-10.1857
X13.338Y-7.8485
X13.588Y-7.7485
X7.1467Y-6.1608
X7.3967Y-6.0608
X12.7678Y-8.5984
X13.0178Y-8.4984
X6.3029Y-10.0983
X6.5529Y-9.9983
X15.7717Y-6.1608
X16.0217Y-6.0608
X15.0217Y-6.1608
X15.2717Y-6.0608
X12.263Y-7.398
X12.513Y-7.298
X16.8965Y-9.5358
X17.1465Y-9.4358
X13.8985Y-9.3485
X14.1485Y-9.2485
X9.3966Y-6.1608
X9.6466Y-6.0608
X10.8985Y-9.3485
X11.1485Y-9.2485
X10.5208Y-8.5984
X10.7708Y-8.4984
X6.2093Y-7.0983
X6.4593Y-6.9983
X11.836Y-7.8485
X12.086Y-7.7485
X17.6469Y-10.2858
X17.8969Y-10.1858
X7.5218Y-8.5984
X7.7718Y-8.4984
X13.5217Y-6.1608
X13.7717Y-6.0608
X15.587Y-7.8485
X15.837Y-7.7485
X14.5155Y-7.398
X14.7655Y-7.298
X10.012Y-7.398
X10.262Y-7.298
X7.9462Y-6.4608
X8.1962Y-6.3608
X11.0855Y-7.8485
X11.3355Y-7.7485
X7.7605Y-7.398
X8.0105Y-7.298
X17.8343Y-7.0984
X18.0843Y-6.9984
X9.3985Y-9.3485
X9.6485Y-9.2485
X9.0218Y-8.5984
X9.2718Y-8.4984
X14.6485Y-9.3485
X14.8985Y-9.2485
X14.838Y-7.8485
X15.088Y-7.7485
X15.2655Y-7.398
X15.5155Y-7.298
X15.0193Y-8.5984
X15.2693Y-8.4984
X17.8343Y-9.3484
X18.0843Y-9.2484
X7.8967Y-9.3485
X8.1467Y-9.2485
X13.1485Y-9.3485
X13.3985Y-9.2485
X11.8344Y-6.1608
X12.0844Y-6.0608
X12.3985Y-9.3485
X12.6485Y-9.2485
X8.6964Y-6.4608
X8.9464Y-6.3608
X8.6485Y-9.3485
X8.8985Y-9.2485
X6.3966Y-7.8483
X6.6466Y-7.7483
X16.7094Y-6.161
X16.9594Y-6.061
X15.6779Y-9.3483
X15.9279Y-9.2483
X8.178Y-10.0983
X8.428Y-9.9983
X9.587Y-7.8485
X9.837Y-7.7485
X6.4905Y-8.5983
X6.7405Y-8.4983
X17.8343Y-8.5984
X18.0843Y-8.4984
X10.3348Y-6.1608
X10.5848Y-6.0608
X10.9904Y-10.0983
X11.2404Y-9.9983
X16.2405Y-8.5983
X16.4905Y-8.4983
X6.2092Y-6.1608
X6.4592Y-6.0608
X8.2718Y-8.5984
X8.5218Y-8.4984
X8.0845Y-7.8485
X8.3345Y-7.7485
X14.2717Y-6.1608
X14.5217Y-6.0608
X6.678Y-9.3483
X6.928Y-9.2483
X14.0885Y-7.8485
X14.3385Y-7.7485
X9.26Y-7.398
X9.51Y-7.298
X12.5865Y-7.8485
X12.8365Y-7.7485
X13.7645Y-7.398
X14.0145Y-7.298
X7.0093Y-7.398
X7.2593Y-7.298
X11.2718Y-8.5984
X11.5218Y-8.4984
X11.6485Y-9.3485
X11.8985Y-9.2485
X13.0135Y-7.398
X13.2635Y-7.298
X12.0198Y-8.5984
X12.2698Y-8.4984
X14.2664Y-8.5984
X14.5164Y-8.4984
X12.5843Y-6.1608
X12.8343Y-6.0608
X13.5168Y-8.5984
X13.7668Y-8.4984
X14.4598Y-10.0984
X14.7098Y-9.9984
X10.763Y-7.398
X11.013Y-7.298
X8.835Y-7.8485
X9.085Y-7.7485
T4
X7.6331Y-9.6059
X12.176Y-9.9311
X16.514Y-9.6059
X6.9008Y-6.7429
X17.4366Y-6.7283
X12.176Y-6.7429
T5
X13.6668Y-8.6984
X14.6098Y-10.1984
X10.863Y-7.198
X8.985Y-7.9485
X15.3618Y-10.1984
X8.608Y-7.198
X17.9843Y-7.9484
X10.2985Y-9.4485
X7.3905Y-10.1983
X7.4843Y-7.9485
X10.4855Y-7.9485
X16.4842Y-7.1983
X13.8591Y-10.1984
X16.6717Y-7.9483
X16.2967Y-10.3858
X11.613Y-7.198
X9.9218Y-8.6984
X11.2347Y-6.2608
X17.0465Y-10.3857
X13.488Y-7.9485
X7.2967Y-6.2608
X12.9178Y-8.6984
X6.4529Y-10.1983
X15.9217Y-6.2608
X15.1717Y-6.2608
X12.363Y-7.198
X17.0465Y-9.6358
X14.0485Y-9.4485
X9.5466Y-6.2608
X11.0485Y-9.4485
X10.6708Y-8.6984
X6.3593Y-7.1983
X11.986Y-7.9485
X17.7969Y-10.3858
X7.6718Y-8.6984
X13.6717Y-6.2608
X15.737Y-7.9485
X14.6155Y-7.198
X10.112Y-7.198
X8.0462Y-6.2608
X11.2355Y-7.9485
X7.8605Y-7.198
X17.9843Y-7.1984
X9.5485Y-9.4485
X9.1718Y-8.6984
X14.7985Y-9.4485
X14.988Y-7.9485
X15.3655Y-7.198
X15.1693Y-8.6984
X17.9843Y-9.4484
X8.0467Y-9.4485
X13.2985Y-9.4485
X11.9844Y-6.2608
X12.5485Y-9.4485
X8.7964Y-6.2608
X8.7985Y-9.4485
X6.5466Y-7.9483
X16.8594Y-6.261
X15.8279Y-9.4483
X8.328Y-10.1983
X9.737Y-7.9485
X6.6405Y-8.6983
X17.9843Y-8.6984
X10.4848Y-6.2608
X11.1404Y-10.1983
X16.3905Y-8.6983
X6.3592Y-6.2608
X8.4218Y-8.6984
X8.2345Y-7.9485
X14.4217Y-6.2608
X6.828Y-9.4483
X14.2385Y-7.9485
X9.36Y-7.198
X12.7365Y-7.9485
X13.8645Y-7.198
X7.1093Y-7.198
X11.4218Y-8.6984
X11.7985Y-9.4485
X13.1135Y-7.198
X12.1698Y-8.6984
X14.4164Y-8.6984
X12.7343Y-6.2608
T6
X12.3614Y-8.3295
X17.1193Y-8.3232
X7.0758Y-8.3228
T7
X17.9528Y-6.2992
T0
M30
