%TF.GenerationSoftware,KiCad,Pcbnew,(5.1.6)-1*%
%TF.CreationDate,2022-09-04T01:09:06+08:00*%
%TF.ProjectId,Vol_trans,566f6c5f-7472-4616-9e73-2e6b69636164,rev?*%
%TF.SameCoordinates,Original*%
%TF.FileFunction,Paste,Top*%
%TF.FilePolarity,Positive*%
%FSLAX46Y46*%
G04 Gerber Fmt 4.6, Leading zero omitted, Abs format (unit mm)*
G04 Created by KiCad (PCBNEW (5.1.6)-1) date 2022-09-04 01:09:06*
%MOMM*%
%LPD*%
G01*
G04 APERTURE LIST*
%ADD10R,1.150000X0.700000*%
%ADD11R,1.000000X0.380000*%
%ADD12R,2.000000X1.500000*%
%ADD13R,2.000000X3.800000*%
%ADD14R,1.160000X0.600000*%
%ADD15R,1.160000X0.300000*%
G04 APERTURE END LIST*
D10*
%TO.C,J2*%
X156480000Y-85020000D03*
D11*
X157320000Y-91190000D03*
X157320000Y-90690000D03*
X157320000Y-90190000D03*
X157320000Y-89690000D03*
X157320000Y-89190000D03*
X157320000Y-88690000D03*
X157320000Y-88190000D03*
X157320000Y-87690000D03*
X157320000Y-87190000D03*
X157320000Y-86690000D03*
X157320000Y-86190000D03*
X157320000Y-85690000D03*
%TD*%
D12*
%TO.C,U1*%
X143120000Y-86080000D03*
X143120000Y-90680000D03*
X143120000Y-88380000D03*
D13*
X149420000Y-88380000D03*
%TD*%
D14*
%TO.C,J1*%
X135230000Y-91580000D03*
X135230000Y-90780000D03*
X135230000Y-91580000D03*
X135230000Y-90780000D03*
X135230000Y-85180000D03*
X135230000Y-85180000D03*
X135230000Y-85980000D03*
X135230000Y-85980000D03*
D15*
X135230000Y-90130000D03*
X135230000Y-89130000D03*
X135230000Y-89630000D03*
X135230000Y-87130000D03*
X135230000Y-86630000D03*
X135230000Y-88630000D03*
X135230000Y-88130000D03*
X135230000Y-87630000D03*
%TD*%
%TO.C,C4*%
G36*
G01*
X153220000Y-86176250D02*
X153220000Y-85263750D01*
G75*
G02*
X153463750Y-85020000I243750J0D01*
G01*
X153951250Y-85020000D01*
G75*
G02*
X154195000Y-85263750I0J-243750D01*
G01*
X154195000Y-86176250D01*
G75*
G02*
X153951250Y-86420000I-243750J0D01*
G01*
X153463750Y-86420000D01*
G75*
G02*
X153220000Y-86176250I0J243750D01*
G01*
G37*
G36*
G01*
X151345000Y-86176250D02*
X151345000Y-85263750D01*
G75*
G02*
X151588750Y-85020000I243750J0D01*
G01*
X152076250Y-85020000D01*
G75*
G02*
X152320000Y-85263750I0J-243750D01*
G01*
X152320000Y-86176250D01*
G75*
G02*
X152076250Y-86420000I-243750J0D01*
G01*
X151588750Y-86420000D01*
G75*
G02*
X151345000Y-86176250I0J243750D01*
G01*
G37*
%TD*%
%TO.C,C3*%
G36*
G01*
X153220000Y-91496250D02*
X153220000Y-90583750D01*
G75*
G02*
X153463750Y-90340000I243750J0D01*
G01*
X153951250Y-90340000D01*
G75*
G02*
X154195000Y-90583750I0J-243750D01*
G01*
X154195000Y-91496250D01*
G75*
G02*
X153951250Y-91740000I-243750J0D01*
G01*
X153463750Y-91740000D01*
G75*
G02*
X153220000Y-91496250I0J243750D01*
G01*
G37*
G36*
G01*
X151345000Y-91496250D02*
X151345000Y-90583750D01*
G75*
G02*
X151588750Y-90340000I243750J0D01*
G01*
X152076250Y-90340000D01*
G75*
G02*
X152320000Y-90583750I0J-243750D01*
G01*
X152320000Y-91496250D01*
G75*
G02*
X152076250Y-91740000I-243750J0D01*
G01*
X151588750Y-91740000D01*
G75*
G02*
X151345000Y-91496250I0J243750D01*
G01*
G37*
%TD*%
%TO.C,C2*%
G36*
G01*
X140875000Y-90643750D02*
X140875000Y-91556250D01*
G75*
G02*
X140631250Y-91800000I-243750J0D01*
G01*
X140143750Y-91800000D01*
G75*
G02*
X139900000Y-91556250I0J243750D01*
G01*
X139900000Y-90643750D01*
G75*
G02*
X140143750Y-90400000I243750J0D01*
G01*
X140631250Y-90400000D01*
G75*
G02*
X140875000Y-90643750I0J-243750D01*
G01*
G37*
G36*
G01*
X139000000Y-90643750D02*
X139000000Y-91556250D01*
G75*
G02*
X138756250Y-91800000I-243750J0D01*
G01*
X138268750Y-91800000D01*
G75*
G02*
X138025000Y-91556250I0J243750D01*
G01*
X138025000Y-90643750D01*
G75*
G02*
X138268750Y-90400000I243750J0D01*
G01*
X138756250Y-90400000D01*
G75*
G02*
X139000000Y-90643750I0J-243750D01*
G01*
G37*
%TD*%
%TO.C,C1*%
G36*
G01*
X138055000Y-86146250D02*
X138055000Y-85233750D01*
G75*
G02*
X138298750Y-84990000I243750J0D01*
G01*
X138786250Y-84990000D01*
G75*
G02*
X139030000Y-85233750I0J-243750D01*
G01*
X139030000Y-86146250D01*
G75*
G02*
X138786250Y-86390000I-243750J0D01*
G01*
X138298750Y-86390000D01*
G75*
G02*
X138055000Y-86146250I0J243750D01*
G01*
G37*
G36*
G01*
X139930000Y-86146250D02*
X139930000Y-85233750D01*
G75*
G02*
X140173750Y-84990000I243750J0D01*
G01*
X140661250Y-84990000D01*
G75*
G02*
X140905000Y-85233750I0J-243750D01*
G01*
X140905000Y-86146250D01*
G75*
G02*
X140661250Y-86390000I-243750J0D01*
G01*
X140173750Y-86390000D01*
G75*
G02*
X139930000Y-86146250I0J243750D01*
G01*
G37*
%TD*%
M02*
