%TF.GenerationSoftware,KiCad,Pcbnew,(5.1.6)-1*%
%TF.CreationDate,2022-09-04T01:09:06+08:00*%
%TF.ProjectId,Vol_trans,566f6c5f-7472-4616-9e73-2e6b69636164,rev?*%
%TF.SameCoordinates,Original*%
%TF.FileFunction,Copper,L1,Top*%
%TF.FilePolarity,Positive*%
%FSLAX46Y46*%
G04 Gerber Fmt 4.6, Leading zero omitted, Abs format (unit mm)*
G04 Created by KiCad (PCBNEW (5.1.6)-1) date 2022-09-04 01:09:06*
%MOMM*%
%LPD*%
G01*
G04 APERTURE LIST*
%TA.AperFunction,SMDPad,CuDef*%
%ADD10R,1.150000X0.700000*%
%TD*%
%TA.AperFunction,SMDPad,CuDef*%
%ADD11R,1.000000X0.380000*%
%TD*%
%TA.AperFunction,SMDPad,CuDef*%
%ADD12R,2.000000X1.500000*%
%TD*%
%TA.AperFunction,SMDPad,CuDef*%
%ADD13R,2.000000X3.800000*%
%TD*%
%TA.AperFunction,SMDPad,CuDef*%
%ADD14R,1.160000X0.600000*%
%TD*%
%TA.AperFunction,SMDPad,CuDef*%
%ADD15R,1.160000X0.300000*%
%TD*%
%TA.AperFunction,ComponentPad*%
%ADD16O,1.700000X0.900000*%
%TD*%
%TA.AperFunction,ComponentPad*%
%ADD17O,2.000000X0.900000*%
%TD*%
%TA.AperFunction,ViaPad*%
%ADD18C,0.800000*%
%TD*%
%TA.AperFunction,Conductor*%
%ADD19C,0.250000*%
%TD*%
%TA.AperFunction,Conductor*%
%ADD20C,0.700000*%
%TD*%
%TA.AperFunction,Conductor*%
%ADD21C,0.254000*%
%TD*%
%TA.AperFunction,Conductor*%
%ADD22C,0.025400*%
%TD*%
G04 APERTURE END LIST*
D10*
%TO.P,J2,S1*%
%TO.N,GND*%
X156480000Y-85020000D03*
D11*
%TO.P,J2,A12*%
X157320000Y-91190000D03*
%TO.P,J2,A11*%
%TO.N,N/C*%
X157320000Y-90690000D03*
%TO.P,J2,A10*%
X157320000Y-90190000D03*
%TO.P,J2,A9*%
%TO.N,3.3V*%
X157320000Y-89690000D03*
%TO.P,J2,A8*%
%TO.N,Net-(J1-PadA8)*%
X157320000Y-89190000D03*
%TO.P,J2,A7*%
%TO.N,Net-(J1-PadA7)*%
X157320000Y-88690000D03*
%TO.P,J2,A6*%
%TO.N,Net-(J1-PadA6)*%
X157320000Y-88190000D03*
%TO.P,J2,A5*%
%TO.N,Net-(J1-PadA5)*%
X157320000Y-87690000D03*
%TO.P,J2,A4*%
%TO.N,3.3V*%
X157320000Y-87190000D03*
%TO.P,J2,A3*%
%TO.N,N/C*%
X157320000Y-86690000D03*
%TO.P,J2,A2*%
X157320000Y-86190000D03*
%TO.P,J2,A1*%
%TO.N,GND*%
X157320000Y-85690000D03*
%TD*%
D12*
%TO.P,U1,1*%
%TO.N,GND*%
X143120000Y-86080000D03*
%TO.P,U1,3*%
%TO.N,5V*%
X143120000Y-90680000D03*
%TO.P,U1,2*%
%TO.N,3.3V*%
X143120000Y-88380000D03*
D13*
X149420000Y-88380000D03*
%TD*%
D14*
%TO.P,J1,A12*%
%TO.N,GND*%
X135230000Y-91580000D03*
%TO.P,J1,A9*%
%TO.N,5V*%
X135230000Y-90780000D03*
%TO.P,J1,B1*%
%TO.N,GND*%
X135230000Y-91580000D03*
%TO.P,J1,B4*%
%TO.N,5V*%
X135230000Y-90780000D03*
%TO.P,J1,B12*%
%TO.N,GND*%
X135230000Y-85180000D03*
%TO.P,J1,A1*%
X135230000Y-85180000D03*
%TO.P,J1,B9*%
%TO.N,5V*%
X135230000Y-85980000D03*
%TO.P,J1,A4*%
X135230000Y-85980000D03*
D15*
%TO.P,J1,B5*%
%TO.N,Net-(J1-PadB5)*%
X135230000Y-90130000D03*
%TO.P,J1,B6*%
%TO.N,Net-(J1-PadB6)*%
X135230000Y-89130000D03*
%TO.P,J1,A8*%
%TO.N,Net-(J1-PadA8)*%
X135230000Y-89630000D03*
%TO.P,J1,A5*%
%TO.N,Net-(J1-PadA5)*%
X135230000Y-87130000D03*
%TO.P,J1,B8*%
%TO.N,Net-(J1-PadB8)*%
X135230000Y-86630000D03*
%TO.P,J1,A7*%
%TO.N,Net-(J1-PadA7)*%
X135230000Y-88630000D03*
%TO.P,J1,A6*%
%TO.N,Net-(J1-PadA6)*%
X135230000Y-88130000D03*
%TO.P,J1,B7*%
%TO.N,Net-(J1-PadB7)*%
X135230000Y-87630000D03*
D16*
%TO.P,J1,S1*%
%TO.N,GND*%
X130480000Y-92700000D03*
X130480000Y-84060000D03*
D17*
X134650000Y-92700000D03*
X134650000Y-84060000D03*
%TD*%
%TO.P,C4,2*%
%TO.N,GND*%
%TA.AperFunction,SMDPad,CuDef*%
G36*
G01*
X153220000Y-86176250D02*
X153220000Y-85263750D01*
G75*
G02*
X153463750Y-85020000I243750J0D01*
G01*
X153951250Y-85020000D01*
G75*
G02*
X154195000Y-85263750I0J-243750D01*
G01*
X154195000Y-86176250D01*
G75*
G02*
X153951250Y-86420000I-243750J0D01*
G01*
X153463750Y-86420000D01*
G75*
G02*
X153220000Y-86176250I0J243750D01*
G01*
G37*
%TD.AperFunction*%
%TO.P,C4,1*%
%TO.N,3.3V*%
%TA.AperFunction,SMDPad,CuDef*%
G36*
G01*
X151345000Y-86176250D02*
X151345000Y-85263750D01*
G75*
G02*
X151588750Y-85020000I243750J0D01*
G01*
X152076250Y-85020000D01*
G75*
G02*
X152320000Y-85263750I0J-243750D01*
G01*
X152320000Y-86176250D01*
G75*
G02*
X152076250Y-86420000I-243750J0D01*
G01*
X151588750Y-86420000D01*
G75*
G02*
X151345000Y-86176250I0J243750D01*
G01*
G37*
%TD.AperFunction*%
%TD*%
%TO.P,C3,2*%
%TO.N,GND*%
%TA.AperFunction,SMDPad,CuDef*%
G36*
G01*
X153220000Y-91496250D02*
X153220000Y-90583750D01*
G75*
G02*
X153463750Y-90340000I243750J0D01*
G01*
X153951250Y-90340000D01*
G75*
G02*
X154195000Y-90583750I0J-243750D01*
G01*
X154195000Y-91496250D01*
G75*
G02*
X153951250Y-91740000I-243750J0D01*
G01*
X153463750Y-91740000D01*
G75*
G02*
X153220000Y-91496250I0J243750D01*
G01*
G37*
%TD.AperFunction*%
%TO.P,C3,1*%
%TO.N,3.3V*%
%TA.AperFunction,SMDPad,CuDef*%
G36*
G01*
X151345000Y-91496250D02*
X151345000Y-90583750D01*
G75*
G02*
X151588750Y-90340000I243750J0D01*
G01*
X152076250Y-90340000D01*
G75*
G02*
X152320000Y-90583750I0J-243750D01*
G01*
X152320000Y-91496250D01*
G75*
G02*
X152076250Y-91740000I-243750J0D01*
G01*
X151588750Y-91740000D01*
G75*
G02*
X151345000Y-91496250I0J243750D01*
G01*
G37*
%TD.AperFunction*%
%TD*%
%TO.P,C2,1*%
%TO.N,5V*%
%TA.AperFunction,SMDPad,CuDef*%
G36*
G01*
X140875000Y-90643750D02*
X140875000Y-91556250D01*
G75*
G02*
X140631250Y-91800000I-243750J0D01*
G01*
X140143750Y-91800000D01*
G75*
G02*
X139900000Y-91556250I0J243750D01*
G01*
X139900000Y-90643750D01*
G75*
G02*
X140143750Y-90400000I243750J0D01*
G01*
X140631250Y-90400000D01*
G75*
G02*
X140875000Y-90643750I0J-243750D01*
G01*
G37*
%TD.AperFunction*%
%TO.P,C2,2*%
%TO.N,GND*%
%TA.AperFunction,SMDPad,CuDef*%
G36*
G01*
X139000000Y-90643750D02*
X139000000Y-91556250D01*
G75*
G02*
X138756250Y-91800000I-243750J0D01*
G01*
X138268750Y-91800000D01*
G75*
G02*
X138025000Y-91556250I0J243750D01*
G01*
X138025000Y-90643750D01*
G75*
G02*
X138268750Y-90400000I243750J0D01*
G01*
X138756250Y-90400000D01*
G75*
G02*
X139000000Y-90643750I0J-243750D01*
G01*
G37*
%TD.AperFunction*%
%TD*%
%TO.P,C1,1*%
%TO.N,5V*%
%TA.AperFunction,SMDPad,CuDef*%
G36*
G01*
X138055000Y-86146250D02*
X138055000Y-85233750D01*
G75*
G02*
X138298750Y-84990000I243750J0D01*
G01*
X138786250Y-84990000D01*
G75*
G02*
X139030000Y-85233750I0J-243750D01*
G01*
X139030000Y-86146250D01*
G75*
G02*
X138786250Y-86390000I-243750J0D01*
G01*
X138298750Y-86390000D01*
G75*
G02*
X138055000Y-86146250I0J243750D01*
G01*
G37*
%TD.AperFunction*%
%TO.P,C1,2*%
%TO.N,GND*%
%TA.AperFunction,SMDPad,CuDef*%
G36*
G01*
X139930000Y-86146250D02*
X139930000Y-85233750D01*
G75*
G02*
X140173750Y-84990000I243750J0D01*
G01*
X140661250Y-84990000D01*
G75*
G02*
X140905000Y-85233750I0J-243750D01*
G01*
X140905000Y-86146250D01*
G75*
G02*
X140661250Y-86390000I-243750J0D01*
G01*
X140173750Y-86390000D01*
G75*
G02*
X139930000Y-86146250I0J243750D01*
G01*
G37*
%TD.AperFunction*%
%TD*%
D18*
%TO.N,GND*%
X156480000Y-85020000D03*
X156480000Y-91860000D03*
%TO.N,3.3V*%
X156200000Y-86000000D03*
%TO.N,Net-(J1-PadB5)*%
X140600000Y-89700000D03*
%TO.N,Net-(J1-PadA8)*%
X141400000Y-89000000D03*
X153500000Y-88449999D03*
%TO.N,Net-(J1-PadA5)*%
X139000000Y-87235000D03*
X155446896Y-87308428D03*
%TO.N,Net-(J1-PadB8)*%
X137400000Y-86700000D03*
%TO.N,Net-(J1-PadA7)*%
X141500000Y-88000000D03*
X154541803Y-88639999D03*
%TO.N,Net-(J1-PadA6)*%
X147500000Y-87100000D03*
X155300000Y-88104999D03*
%TD*%
D19*
%TO.N,GND*%
X154407500Y-85020000D02*
X153707500Y-85720000D01*
X156480000Y-85020000D02*
X154407500Y-85020000D01*
D20*
X156650000Y-85020000D02*
X157130000Y-85500000D01*
X156480000Y-85020000D02*
X156650000Y-85020000D01*
D19*
X157320000Y-85690000D02*
X157130000Y-85500000D01*
X157320000Y-91190000D02*
X157150000Y-91190000D01*
X157150000Y-91190000D02*
X156480000Y-91860000D01*
X155660000Y-91040000D02*
X156480000Y-91860000D01*
X153707500Y-91040000D02*
X155660000Y-91040000D01*
X138032500Y-91580000D02*
X138512500Y-91100000D01*
X135230000Y-91580000D02*
X138032500Y-91580000D01*
X135230000Y-85180000D02*
X137020000Y-85180000D01*
X137020000Y-85180000D02*
X138000000Y-84200000D01*
X138927500Y-84200000D02*
X140417500Y-85690000D01*
X138000000Y-84200000D02*
X138927500Y-84200000D01*
X142730000Y-85690000D02*
X143120000Y-86080000D01*
X140417500Y-85690000D02*
X142730000Y-85690000D01*
%TO.N,5V*%
X138252500Y-85980000D02*
X135230000Y-85980000D01*
X138542500Y-85690000D02*
X138252500Y-85980000D01*
X136620000Y-90780000D02*
X135230000Y-90780000D01*
D20*
X140807500Y-90680000D02*
X140387500Y-91100000D01*
X143120000Y-90680000D02*
X140807500Y-90680000D01*
X137600000Y-89800000D02*
X137000000Y-90400000D01*
X139087500Y-89800000D02*
X137600000Y-89800000D01*
X140387500Y-91100000D02*
X139087500Y-89800000D01*
X137000000Y-90400000D02*
X136620000Y-90780000D01*
D19*
X134400000Y-90780000D02*
X133900000Y-90280000D01*
X135230000Y-90780000D02*
X134400000Y-90780000D01*
X134400000Y-85980000D02*
X135230000Y-85980000D01*
X133900000Y-86480000D02*
X134400000Y-85980000D01*
X133900000Y-90280000D02*
X133900000Y-86480000D01*
%TO.N,3.3V*%
X151832500Y-85720000D02*
X152857510Y-86745010D01*
D20*
X151832500Y-85720000D02*
X152500000Y-86387500D01*
X152500000Y-86387500D02*
X152500000Y-86700000D01*
X152500000Y-86700000D02*
X152700000Y-86900000D01*
X149420000Y-88627500D02*
X151832500Y-91040000D01*
X149420000Y-88380000D02*
X149420000Y-88627500D01*
X151832500Y-91040000D02*
X151832500Y-85720000D01*
X143120000Y-88380000D02*
X149420000Y-88380000D01*
X152500000Y-86700000D02*
X152700000Y-86700000D01*
X152700000Y-86700000D02*
X153100000Y-87100000D01*
X154530522Y-87100000D02*
X154915261Y-86715261D01*
X153100000Y-87100000D02*
X154530522Y-87100000D01*
X154915261Y-86715261D02*
X154915261Y-86484739D01*
X154915261Y-86484739D02*
X155100000Y-86300000D01*
X155100000Y-86300000D02*
X156000000Y-86300000D01*
X156390000Y-86690000D02*
X156390000Y-87190000D01*
X156000000Y-86300000D02*
X156390000Y-86690000D01*
D19*
X156390000Y-87190000D02*
X157320000Y-87190000D01*
X157320000Y-87190000D02*
X158090000Y-87190000D01*
X157690000Y-89690000D02*
X157700000Y-89700000D01*
X157320000Y-89690000D02*
X157690000Y-89690000D01*
X157700000Y-89700000D02*
X158000000Y-89700000D01*
X158090000Y-89610000D02*
X158090000Y-87190000D01*
X158000000Y-89700000D02*
X158090000Y-89610000D01*
X156200000Y-86100000D02*
X156000000Y-86300000D01*
X156200000Y-86000000D02*
X156200000Y-86100000D01*
%TO.N,Net-(J1-PadB5)*%
X135230000Y-90130000D02*
X136315392Y-90130000D01*
X136315392Y-90130000D02*
X137320402Y-89124990D01*
X139575010Y-89124990D02*
X139575010Y-89275010D01*
X137320402Y-89124990D02*
X139575010Y-89124990D01*
X140000000Y-89700000D02*
X140600000Y-89700000D01*
X139575010Y-89275010D02*
X140000000Y-89700000D01*
%TO.N,Net-(J1-PadA8)*%
X135230000Y-89630000D02*
X136178982Y-89630000D01*
X154240001Y-89190000D02*
X157320000Y-89190000D01*
X153500000Y-88449999D02*
X154240001Y-89190000D01*
X141054491Y-88654491D02*
X141400000Y-89000000D01*
X137154491Y-88654491D02*
X141054491Y-88654491D01*
X136178982Y-89630000D02*
X137154491Y-88654491D01*
%TO.N,Net-(J1-PadA5)*%
X135230000Y-87130000D02*
X136430000Y-87130000D01*
X136430000Y-87130000D02*
X136700000Y-87400000D01*
X136700000Y-87400000D02*
X138835000Y-87400000D01*
X138835000Y-87400000D02*
X139000000Y-87235000D01*
X155828468Y-87690000D02*
X157320000Y-87690000D01*
X155446896Y-87308428D02*
X155828468Y-87690000D01*
%TO.N,Net-(J1-PadB8)*%
X135230000Y-86630000D02*
X137330000Y-86630000D01*
X137330000Y-86630000D02*
X137400000Y-86700000D01*
%TO.N,Net-(J1-PadA7)*%
X154541803Y-88639999D02*
X155039999Y-88639999D01*
X155090000Y-88690000D02*
X157320000Y-88690000D01*
X155039999Y-88639999D02*
X155090000Y-88690000D01*
X135230000Y-88630000D02*
X136330000Y-88630000D01*
X141300000Y-88200000D02*
X141500000Y-88000000D01*
X137000000Y-88200000D02*
X141300000Y-88200000D01*
X136330000Y-88630000D02*
X136570000Y-88630000D01*
X136570000Y-88630000D02*
X137000000Y-88200000D01*
%TO.N,Net-(J1-PadA6)*%
X155300000Y-88104999D02*
X155704999Y-88104999D01*
X155790000Y-88190000D02*
X157320000Y-88190000D01*
X155704999Y-88104999D02*
X155790000Y-88190000D01*
X135230000Y-88130000D02*
X136530000Y-88130000D01*
X136530000Y-88130000D02*
X136530000Y-88070000D01*
X136530000Y-88070000D02*
X136800000Y-87800000D01*
X136800000Y-87800000D02*
X140800000Y-87800000D01*
X147200000Y-87400000D02*
X147500000Y-87100000D01*
X141200000Y-87400000D02*
X147200000Y-87400000D01*
X140800000Y-87800000D02*
X141200000Y-87400000D01*
%TD*%
D21*
%TO.N,GND*%
G36*
X133055592Y-83765999D02*
G01*
X133182498Y-83933000D01*
X134523000Y-83933000D01*
X134523000Y-83913000D01*
X134777000Y-83913000D01*
X134777000Y-83933000D01*
X136117502Y-83933000D01*
X136244408Y-83765999D01*
X136242291Y-83760000D01*
X157367721Y-83760000D01*
X157465424Y-83769580D01*
X157528356Y-83788580D01*
X157586405Y-83819445D01*
X157637343Y-83860989D01*
X157679248Y-83911644D01*
X157710515Y-83969471D01*
X157729956Y-84032272D01*
X157740000Y-84127835D01*
X157740000Y-84863037D01*
X157605750Y-84865000D01*
X157577752Y-84892998D01*
X157531252Y-84892998D01*
X157690000Y-84734250D01*
X157693072Y-84670000D01*
X157680812Y-84545518D01*
X157644502Y-84425820D01*
X157585537Y-84315506D01*
X157506185Y-84218815D01*
X157409494Y-84139463D01*
X157299180Y-84080498D01*
X157179482Y-84044188D01*
X157055000Y-84031928D01*
X156765750Y-84035000D01*
X156607000Y-84193750D01*
X156607000Y-84831317D01*
X156353000Y-84684876D01*
X156353000Y-84193750D01*
X156194250Y-84035000D01*
X155905000Y-84031928D01*
X155780518Y-84044188D01*
X155660820Y-84080498D01*
X155550506Y-84139463D01*
X155453815Y-84218815D01*
X155374463Y-84315506D01*
X155315498Y-84425820D01*
X155279188Y-84545518D01*
X155266928Y-84670000D01*
X155270000Y-84734250D01*
X155428750Y-84893000D01*
X155689293Y-84893000D01*
X155689096Y-84895000D01*
X155689096Y-85096592D01*
X155613654Y-85147000D01*
X155428750Y-85147000D01*
X155270000Y-85305750D01*
X155269558Y-85315000D01*
X155148379Y-85315000D01*
X155099999Y-85310235D01*
X154944950Y-85325506D01*
X154906906Y-85329253D01*
X154830607Y-85352398D01*
X154833072Y-85020000D01*
X154820812Y-84895518D01*
X154784502Y-84775820D01*
X154725537Y-84665506D01*
X154646185Y-84568815D01*
X154549494Y-84489463D01*
X154439180Y-84430498D01*
X154319482Y-84394188D01*
X154195000Y-84381928D01*
X153993250Y-84385000D01*
X153834500Y-84543750D01*
X153834500Y-85593000D01*
X153854500Y-85593000D01*
X153854500Y-85847000D01*
X153834500Y-85847000D01*
X153834500Y-85867000D01*
X153580500Y-85867000D01*
X153580500Y-85847000D01*
X153560500Y-85847000D01*
X153560500Y-85593000D01*
X153580500Y-85593000D01*
X153580500Y-84543750D01*
X153421750Y-84385000D01*
X153220000Y-84381928D01*
X153095518Y-84394188D01*
X152975820Y-84430498D01*
X152865506Y-84489463D01*
X152768815Y-84568815D01*
X152705008Y-84646564D01*
X152699792Y-84640208D01*
X152566164Y-84530542D01*
X152413709Y-84449053D01*
X152248285Y-84398872D01*
X152076250Y-84381928D01*
X151588750Y-84381928D01*
X151416715Y-84398872D01*
X151251291Y-84449053D01*
X151098836Y-84530542D01*
X150965208Y-84640208D01*
X150855542Y-84773836D01*
X150774053Y-84926291D01*
X150723872Y-85091715D01*
X150706928Y-85263750D01*
X150706928Y-85913348D01*
X150664180Y-85890498D01*
X150544482Y-85854188D01*
X150420000Y-85841928D01*
X148420000Y-85841928D01*
X148295518Y-85854188D01*
X148175820Y-85890498D01*
X148065506Y-85949463D01*
X147968815Y-86028815D01*
X147889463Y-86125506D01*
X147882663Y-86138228D01*
X147801898Y-86104774D01*
X147601939Y-86065000D01*
X147398061Y-86065000D01*
X147198102Y-86104774D01*
X147009744Y-86182795D01*
X146840226Y-86296063D01*
X146696063Y-86440226D01*
X146582795Y-86609744D01*
X146570262Y-86640000D01*
X144756815Y-86640000D01*
X144755000Y-86365750D01*
X144596250Y-86207000D01*
X143247000Y-86207000D01*
X143247000Y-86227000D01*
X142993000Y-86227000D01*
X142993000Y-86207000D01*
X142973000Y-86207000D01*
X142973000Y-85953000D01*
X142993000Y-85953000D01*
X142993000Y-84853750D01*
X143247000Y-84853750D01*
X143247000Y-85953000D01*
X144596250Y-85953000D01*
X144755000Y-85794250D01*
X144758072Y-85330000D01*
X144745812Y-85205518D01*
X144709502Y-85085820D01*
X144650537Y-84975506D01*
X144571185Y-84878815D01*
X144474494Y-84799463D01*
X144364180Y-84740498D01*
X144244482Y-84704188D01*
X144120000Y-84691928D01*
X143405750Y-84695000D01*
X143247000Y-84853750D01*
X142993000Y-84853750D01*
X142834250Y-84695000D01*
X142120000Y-84691928D01*
X141995518Y-84704188D01*
X141875820Y-84740498D01*
X141765506Y-84799463D01*
X141668815Y-84878815D01*
X141589463Y-84975506D01*
X141542528Y-85063313D01*
X141543072Y-84990000D01*
X141530812Y-84865518D01*
X141494502Y-84745820D01*
X141435537Y-84635506D01*
X141356185Y-84538815D01*
X141259494Y-84459463D01*
X141149180Y-84400498D01*
X141029482Y-84364188D01*
X140905000Y-84351928D01*
X140703250Y-84355000D01*
X140544500Y-84513750D01*
X140544500Y-85563000D01*
X140564500Y-85563000D01*
X140564500Y-85817000D01*
X140544500Y-85817000D01*
X140544500Y-86866250D01*
X140601724Y-86923474D01*
X140485198Y-87040000D01*
X140016489Y-87040000D01*
X140013863Y-87026795D01*
X140131750Y-87025000D01*
X140290500Y-86866250D01*
X140290500Y-85817000D01*
X140270500Y-85817000D01*
X140270500Y-85563000D01*
X140290500Y-85563000D01*
X140290500Y-84513750D01*
X140131750Y-84355000D01*
X139930000Y-84351928D01*
X139805518Y-84364188D01*
X139685820Y-84400498D01*
X139575506Y-84459463D01*
X139478815Y-84538815D01*
X139415008Y-84616564D01*
X139409792Y-84610208D01*
X139276164Y-84500542D01*
X139123709Y-84419053D01*
X138958285Y-84368872D01*
X138786250Y-84351928D01*
X138298750Y-84351928D01*
X138126715Y-84368872D01*
X137961291Y-84419053D01*
X137808836Y-84500542D01*
X137675208Y-84610208D01*
X137565542Y-84743836D01*
X137484053Y-84896291D01*
X137433872Y-85061715D01*
X137418282Y-85220000D01*
X136250444Y-85220000D01*
X136164494Y-85149463D01*
X136054180Y-85090498D01*
X135934482Y-85054188D01*
X135922420Y-85053000D01*
X136286250Y-85053000D01*
X136445000Y-84894250D01*
X136448072Y-84880000D01*
X136435812Y-84755518D01*
X136399502Y-84635820D01*
X136340537Y-84525506D01*
X136261185Y-84428815D01*
X136227703Y-84401337D01*
X136244408Y-84354001D01*
X136117502Y-84187000D01*
X134777000Y-84187000D01*
X134777000Y-84207000D01*
X134523000Y-84207000D01*
X134523000Y-84187000D01*
X133182498Y-84187000D01*
X133055592Y-84354001D01*
X133127298Y-84557197D01*
X133242986Y-84737408D01*
X133391609Y-84891587D01*
X133428294Y-84917085D01*
X133341414Y-85047111D01*
X133270932Y-85217271D01*
X133235000Y-85397911D01*
X133235000Y-85582089D01*
X133270932Y-85762729D01*
X133341414Y-85932889D01*
X133352374Y-85949292D01*
X133336202Y-85968997D01*
X133336201Y-85968998D01*
X133265026Y-86055724D01*
X133194454Y-86187754D01*
X133166473Y-86280000D01*
X133150998Y-86331014D01*
X133140001Y-86442667D01*
X133136324Y-86480000D01*
X133140001Y-86517332D01*
X133140000Y-90242677D01*
X133136324Y-90280000D01*
X133140000Y-90317322D01*
X133140000Y-90317332D01*
X133150997Y-90428985D01*
X133189003Y-90554276D01*
X133194454Y-90572246D01*
X133265026Y-90704276D01*
X133287110Y-90731185D01*
X133352373Y-90810709D01*
X133341414Y-90827111D01*
X133270932Y-90997271D01*
X133235000Y-91177911D01*
X133235000Y-91362089D01*
X133270932Y-91542729D01*
X133341414Y-91712889D01*
X133428294Y-91842915D01*
X133391609Y-91868413D01*
X133242986Y-92022592D01*
X133127298Y-92202803D01*
X133055592Y-92405999D01*
X133182498Y-92573000D01*
X134523000Y-92573000D01*
X134523000Y-92553000D01*
X134777000Y-92553000D01*
X134777000Y-92573000D01*
X136117502Y-92573000D01*
X136244408Y-92405999D01*
X136227703Y-92358663D01*
X136261185Y-92331185D01*
X136340537Y-92234494D01*
X136399502Y-92124180D01*
X136435812Y-92004482D01*
X136448072Y-91880000D01*
X136445000Y-91865750D01*
X136287799Y-91708549D01*
X136426907Y-91750747D01*
X136620000Y-91769765D01*
X136813093Y-91750747D01*
X136998766Y-91694424D01*
X137169883Y-91602959D01*
X137282290Y-91510710D01*
X137389871Y-91403129D01*
X137386928Y-91800000D01*
X137399188Y-91924482D01*
X137435498Y-92044180D01*
X137494463Y-92154494D01*
X137573815Y-92251185D01*
X137670506Y-92330537D01*
X137780820Y-92389502D01*
X137900518Y-92425812D01*
X138025000Y-92438072D01*
X138226750Y-92435000D01*
X138385500Y-92276250D01*
X138385500Y-91227000D01*
X138365500Y-91227000D01*
X138365500Y-90973000D01*
X138385500Y-90973000D01*
X138385500Y-90953000D01*
X138639500Y-90953000D01*
X138639500Y-90973000D01*
X138659500Y-90973000D01*
X138659500Y-91227000D01*
X138639500Y-91227000D01*
X138639500Y-92276250D01*
X138798250Y-92435000D01*
X139000000Y-92438072D01*
X139124482Y-92425812D01*
X139244180Y-92389502D01*
X139354494Y-92330537D01*
X139451185Y-92251185D01*
X139514992Y-92173436D01*
X139520208Y-92179792D01*
X139653836Y-92289458D01*
X139806291Y-92370947D01*
X139971715Y-92421128D01*
X140143750Y-92438072D01*
X140631250Y-92438072D01*
X140803285Y-92421128D01*
X140968709Y-92370947D01*
X141121164Y-92289458D01*
X141254792Y-92179792D01*
X141364458Y-92046164D01*
X141445947Y-91893709D01*
X141496128Y-91728285D01*
X141502361Y-91665000D01*
X141527713Y-91665000D01*
X141530498Y-91674180D01*
X141589463Y-91784494D01*
X141668815Y-91881185D01*
X141765506Y-91960537D01*
X141875820Y-92019502D01*
X141995518Y-92055812D01*
X142120000Y-92068072D01*
X144120000Y-92068072D01*
X144244482Y-92055812D01*
X144364180Y-92019502D01*
X144474494Y-91960537D01*
X144571185Y-91881185D01*
X144650537Y-91784494D01*
X144709502Y-91674180D01*
X144745812Y-91554482D01*
X144758072Y-91430000D01*
X144758072Y-89930000D01*
X144745812Y-89805518D01*
X144709502Y-89685820D01*
X144650537Y-89575506D01*
X144613191Y-89530000D01*
X144650537Y-89484494D01*
X144709502Y-89374180D01*
X144712287Y-89365000D01*
X147781928Y-89365000D01*
X147781928Y-90280000D01*
X147794188Y-90404482D01*
X147830498Y-90524180D01*
X147889463Y-90634494D01*
X147968815Y-90731185D01*
X148065506Y-90810537D01*
X148175820Y-90869502D01*
X148295518Y-90905812D01*
X148420000Y-90918072D01*
X150317572Y-90918072D01*
X150706928Y-91307428D01*
X150706928Y-91496250D01*
X150723872Y-91668285D01*
X150774053Y-91833709D01*
X150855542Y-91986164D01*
X150965208Y-92119792D01*
X151098836Y-92229458D01*
X151251291Y-92310947D01*
X151416715Y-92361128D01*
X151588750Y-92378072D01*
X152076250Y-92378072D01*
X152248285Y-92361128D01*
X152413709Y-92310947D01*
X152566164Y-92229458D01*
X152699792Y-92119792D01*
X152705008Y-92113436D01*
X152768815Y-92191185D01*
X152865506Y-92270537D01*
X152975820Y-92329502D01*
X153095518Y-92365812D01*
X153220000Y-92378072D01*
X153421750Y-92375000D01*
X153580500Y-92216250D01*
X153580500Y-91167000D01*
X153834500Y-91167000D01*
X153834500Y-92216250D01*
X153993250Y-92375000D01*
X154195000Y-92378072D01*
X154319482Y-92365812D01*
X154439180Y-92329502D01*
X154549494Y-92270537D01*
X154646185Y-92191185D01*
X154725537Y-92094494D01*
X154784502Y-91984180D01*
X154820812Y-91864482D01*
X154833072Y-91740000D01*
X154830000Y-91325750D01*
X154671250Y-91167000D01*
X153834500Y-91167000D01*
X153580500Y-91167000D01*
X153560500Y-91167000D01*
X153560500Y-90913000D01*
X153580500Y-90913000D01*
X153580500Y-90893000D01*
X153834500Y-90893000D01*
X153834500Y-90913000D01*
X154671250Y-90913000D01*
X154830000Y-90754250D01*
X154833072Y-90340000D01*
X154820812Y-90215518D01*
X154784502Y-90095820D01*
X154725537Y-89985506D01*
X154696398Y-89950000D01*
X156186852Y-89950000D01*
X156181928Y-90000000D01*
X156181928Y-90380000D01*
X156187837Y-90440000D01*
X156181928Y-90500000D01*
X156181928Y-90880000D01*
X156187988Y-90941526D01*
X156185000Y-90968250D01*
X156191234Y-90974484D01*
X156194188Y-91004482D01*
X156230498Y-91124180D01*
X156289463Y-91234494D01*
X156322275Y-91274475D01*
X156301917Y-91294833D01*
X156294733Y-91291465D01*
X156267701Y-91275956D01*
X156241069Y-91257698D01*
X156214754Y-91236516D01*
X156185561Y-91209287D01*
X156169494Y-91196563D01*
X156147538Y-91184827D01*
X156123713Y-91177600D01*
X156098937Y-91175160D01*
X156074161Y-91177600D01*
X156050336Y-91184827D01*
X156028380Y-91196563D01*
X156009134Y-91212357D01*
X155832357Y-91389134D01*
X155819082Y-91404748D01*
X155806589Y-91426283D01*
X155798538Y-91449842D01*
X155795237Y-91474518D01*
X155796814Y-91499364D01*
X155803207Y-91523426D01*
X155814172Y-91545777D01*
X155829287Y-91565561D01*
X155856516Y-91594754D01*
X155877698Y-91621069D01*
X155895956Y-91647701D01*
X155911465Y-91674733D01*
X155924381Y-91702287D01*
X155934843Y-91730558D01*
X155942922Y-91759719D01*
X155948656Y-91790015D01*
X155952019Y-91821657D01*
X155953070Y-91859524D01*
X155954097Y-91872500D01*
X155959736Y-91896750D01*
X155969997Y-91919433D01*
X155984486Y-91939679D01*
X156002647Y-91956709D01*
X156023781Y-91969869D01*
X156047076Y-91978653D01*
X156214129Y-92023524D01*
X156215926Y-92034366D01*
X156224710Y-92057661D01*
X156237870Y-92078795D01*
X156254900Y-92096956D01*
X156275146Y-92111445D01*
X156297829Y-92121706D01*
X156322079Y-92127345D01*
X156346962Y-92128144D01*
X156371524Y-92124074D01*
X156480000Y-92094937D01*
X156588476Y-92124074D01*
X156604921Y-92127345D01*
X156629804Y-92128144D01*
X156654366Y-92124074D01*
X156677661Y-92115290D01*
X156698795Y-92102130D01*
X156716956Y-92085100D01*
X156731445Y-92064854D01*
X156741706Y-92042171D01*
X156746054Y-92023475D01*
X156781551Y-92013940D01*
X156832388Y-92017952D01*
X157034250Y-92015000D01*
X157193000Y-91856250D01*
X157193000Y-91518072D01*
X157447000Y-91518072D01*
X157447000Y-91856250D01*
X157605750Y-92015000D01*
X157740001Y-92016963D01*
X157740001Y-92667571D01*
X157736807Y-92700000D01*
X157740001Y-92732429D01*
X157740001Y-92767711D01*
X157730420Y-92865424D01*
X157711420Y-92928357D01*
X157680554Y-92986406D01*
X157639011Y-93037343D01*
X157588356Y-93079248D01*
X157530529Y-93110515D01*
X157467728Y-93129956D01*
X157372165Y-93140000D01*
X136192886Y-93140000D01*
X136244408Y-92994001D01*
X136117502Y-92827000D01*
X134777000Y-92827000D01*
X134777000Y-92847000D01*
X134523000Y-92847000D01*
X134523000Y-92827000D01*
X133182498Y-92827000D01*
X133055592Y-92994001D01*
X133107114Y-93140000D01*
X131872886Y-93140000D01*
X131924408Y-92994001D01*
X131797502Y-92827000D01*
X130607000Y-92827000D01*
X130607000Y-92847000D01*
X130353000Y-92847000D01*
X130353000Y-92827000D01*
X129162498Y-92827000D01*
X129035592Y-92994001D01*
X129043158Y-93015441D01*
X129020752Y-92988356D01*
X128989485Y-92930529D01*
X128970044Y-92867728D01*
X128960000Y-92772165D01*
X128960000Y-92405999D01*
X129035592Y-92405999D01*
X129162498Y-92573000D01*
X130353000Y-92573000D01*
X130353000Y-91615000D01*
X130607000Y-91615000D01*
X130607000Y-92573000D01*
X131797502Y-92573000D01*
X131924408Y-92405999D01*
X131852702Y-92202803D01*
X131737014Y-92022592D01*
X131588391Y-91868413D01*
X131412545Y-91746191D01*
X131216233Y-91660624D01*
X131007000Y-91615000D01*
X130607000Y-91615000D01*
X130353000Y-91615000D01*
X129953000Y-91615000D01*
X129743767Y-91660624D01*
X129547455Y-91746191D01*
X129371609Y-91868413D01*
X129222986Y-92022592D01*
X129107298Y-92202803D01*
X129035592Y-92405999D01*
X128960000Y-92405999D01*
X128960000Y-84354001D01*
X129035592Y-84354001D01*
X129107298Y-84557197D01*
X129222986Y-84737408D01*
X129371609Y-84891587D01*
X129547455Y-85013809D01*
X129743767Y-85099376D01*
X129953000Y-85145000D01*
X130353000Y-85145000D01*
X130353000Y-84187000D01*
X130607000Y-84187000D01*
X130607000Y-85145000D01*
X131007000Y-85145000D01*
X131216233Y-85099376D01*
X131412545Y-85013809D01*
X131588391Y-84891587D01*
X131737014Y-84737408D01*
X131852702Y-84557197D01*
X131924408Y-84354001D01*
X131797502Y-84187000D01*
X130607000Y-84187000D01*
X130353000Y-84187000D01*
X129162498Y-84187000D01*
X129035592Y-84354001D01*
X128960000Y-84354001D01*
X128960000Y-84132279D01*
X128969580Y-84034576D01*
X128988580Y-83971644D01*
X129019445Y-83913595D01*
X129060989Y-83862657D01*
X129090495Y-83838248D01*
X129162498Y-83933000D01*
X130353000Y-83933000D01*
X130353000Y-83913000D01*
X130607000Y-83913000D01*
X130607000Y-83933000D01*
X131797502Y-83933000D01*
X131924408Y-83765999D01*
X131922291Y-83760000D01*
X133057709Y-83760000D01*
X133055592Y-83765999D01*
G37*
X133055592Y-83765999D02*
X133182498Y-83933000D01*
X134523000Y-83933000D01*
X134523000Y-83913000D01*
X134777000Y-83913000D01*
X134777000Y-83933000D01*
X136117502Y-83933000D01*
X136244408Y-83765999D01*
X136242291Y-83760000D01*
X157367721Y-83760000D01*
X157465424Y-83769580D01*
X157528356Y-83788580D01*
X157586405Y-83819445D01*
X157637343Y-83860989D01*
X157679248Y-83911644D01*
X157710515Y-83969471D01*
X157729956Y-84032272D01*
X157740000Y-84127835D01*
X157740000Y-84863037D01*
X157605750Y-84865000D01*
X157577752Y-84892998D01*
X157531252Y-84892998D01*
X157690000Y-84734250D01*
X157693072Y-84670000D01*
X157680812Y-84545518D01*
X157644502Y-84425820D01*
X157585537Y-84315506D01*
X157506185Y-84218815D01*
X157409494Y-84139463D01*
X157299180Y-84080498D01*
X157179482Y-84044188D01*
X157055000Y-84031928D01*
X156765750Y-84035000D01*
X156607000Y-84193750D01*
X156607000Y-84831317D01*
X156353000Y-84684876D01*
X156353000Y-84193750D01*
X156194250Y-84035000D01*
X155905000Y-84031928D01*
X155780518Y-84044188D01*
X155660820Y-84080498D01*
X155550506Y-84139463D01*
X155453815Y-84218815D01*
X155374463Y-84315506D01*
X155315498Y-84425820D01*
X155279188Y-84545518D01*
X155266928Y-84670000D01*
X155270000Y-84734250D01*
X155428750Y-84893000D01*
X155689293Y-84893000D01*
X155689096Y-84895000D01*
X155689096Y-85096592D01*
X155613654Y-85147000D01*
X155428750Y-85147000D01*
X155270000Y-85305750D01*
X155269558Y-85315000D01*
X155148379Y-85315000D01*
X155099999Y-85310235D01*
X154944950Y-85325506D01*
X154906906Y-85329253D01*
X154830607Y-85352398D01*
X154833072Y-85020000D01*
X154820812Y-84895518D01*
X154784502Y-84775820D01*
X154725537Y-84665506D01*
X154646185Y-84568815D01*
X154549494Y-84489463D01*
X154439180Y-84430498D01*
X154319482Y-84394188D01*
X154195000Y-84381928D01*
X153993250Y-84385000D01*
X153834500Y-84543750D01*
X153834500Y-85593000D01*
X153854500Y-85593000D01*
X153854500Y-85847000D01*
X153834500Y-85847000D01*
X153834500Y-85867000D01*
X153580500Y-85867000D01*
X153580500Y-85847000D01*
X153560500Y-85847000D01*
X153560500Y-85593000D01*
X153580500Y-85593000D01*
X153580500Y-84543750D01*
X153421750Y-84385000D01*
X153220000Y-84381928D01*
X153095518Y-84394188D01*
X152975820Y-84430498D01*
X152865506Y-84489463D01*
X152768815Y-84568815D01*
X152705008Y-84646564D01*
X152699792Y-84640208D01*
X152566164Y-84530542D01*
X152413709Y-84449053D01*
X152248285Y-84398872D01*
X152076250Y-84381928D01*
X151588750Y-84381928D01*
X151416715Y-84398872D01*
X151251291Y-84449053D01*
X151098836Y-84530542D01*
X150965208Y-84640208D01*
X150855542Y-84773836D01*
X150774053Y-84926291D01*
X150723872Y-85091715D01*
X150706928Y-85263750D01*
X150706928Y-85913348D01*
X150664180Y-85890498D01*
X150544482Y-85854188D01*
X150420000Y-85841928D01*
X148420000Y-85841928D01*
X148295518Y-85854188D01*
X148175820Y-85890498D01*
X148065506Y-85949463D01*
X147968815Y-86028815D01*
X147889463Y-86125506D01*
X147882663Y-86138228D01*
X147801898Y-86104774D01*
X147601939Y-86065000D01*
X147398061Y-86065000D01*
X147198102Y-86104774D01*
X147009744Y-86182795D01*
X146840226Y-86296063D01*
X146696063Y-86440226D01*
X146582795Y-86609744D01*
X146570262Y-86640000D01*
X144756815Y-86640000D01*
X144755000Y-86365750D01*
X144596250Y-86207000D01*
X143247000Y-86207000D01*
X143247000Y-86227000D01*
X142993000Y-86227000D01*
X142993000Y-86207000D01*
X142973000Y-86207000D01*
X142973000Y-85953000D01*
X142993000Y-85953000D01*
X142993000Y-84853750D01*
X143247000Y-84853750D01*
X143247000Y-85953000D01*
X144596250Y-85953000D01*
X144755000Y-85794250D01*
X144758072Y-85330000D01*
X144745812Y-85205518D01*
X144709502Y-85085820D01*
X144650537Y-84975506D01*
X144571185Y-84878815D01*
X144474494Y-84799463D01*
X144364180Y-84740498D01*
X144244482Y-84704188D01*
X144120000Y-84691928D01*
X143405750Y-84695000D01*
X143247000Y-84853750D01*
X142993000Y-84853750D01*
X142834250Y-84695000D01*
X142120000Y-84691928D01*
X141995518Y-84704188D01*
X141875820Y-84740498D01*
X141765506Y-84799463D01*
X141668815Y-84878815D01*
X141589463Y-84975506D01*
X141542528Y-85063313D01*
X141543072Y-84990000D01*
X141530812Y-84865518D01*
X141494502Y-84745820D01*
X141435537Y-84635506D01*
X141356185Y-84538815D01*
X141259494Y-84459463D01*
X141149180Y-84400498D01*
X141029482Y-84364188D01*
X140905000Y-84351928D01*
X140703250Y-84355000D01*
X140544500Y-84513750D01*
X140544500Y-85563000D01*
X140564500Y-85563000D01*
X140564500Y-85817000D01*
X140544500Y-85817000D01*
X140544500Y-86866250D01*
X140601724Y-86923474D01*
X140485198Y-87040000D01*
X140016489Y-87040000D01*
X140013863Y-87026795D01*
X140131750Y-87025000D01*
X140290500Y-86866250D01*
X140290500Y-85817000D01*
X140270500Y-85817000D01*
X140270500Y-85563000D01*
X140290500Y-85563000D01*
X140290500Y-84513750D01*
X140131750Y-84355000D01*
X139930000Y-84351928D01*
X139805518Y-84364188D01*
X139685820Y-84400498D01*
X139575506Y-84459463D01*
X139478815Y-84538815D01*
X139415008Y-84616564D01*
X139409792Y-84610208D01*
X139276164Y-84500542D01*
X139123709Y-84419053D01*
X138958285Y-84368872D01*
X138786250Y-84351928D01*
X138298750Y-84351928D01*
X138126715Y-84368872D01*
X137961291Y-84419053D01*
X137808836Y-84500542D01*
X137675208Y-84610208D01*
X137565542Y-84743836D01*
X137484053Y-84896291D01*
X137433872Y-85061715D01*
X137418282Y-85220000D01*
X136250444Y-85220000D01*
X136164494Y-85149463D01*
X136054180Y-85090498D01*
X135934482Y-85054188D01*
X135922420Y-85053000D01*
X136286250Y-85053000D01*
X136445000Y-84894250D01*
X136448072Y-84880000D01*
X136435812Y-84755518D01*
X136399502Y-84635820D01*
X136340537Y-84525506D01*
X136261185Y-84428815D01*
X136227703Y-84401337D01*
X136244408Y-84354001D01*
X136117502Y-84187000D01*
X134777000Y-84187000D01*
X134777000Y-84207000D01*
X134523000Y-84207000D01*
X134523000Y-84187000D01*
X133182498Y-84187000D01*
X133055592Y-84354001D01*
X133127298Y-84557197D01*
X133242986Y-84737408D01*
X133391609Y-84891587D01*
X133428294Y-84917085D01*
X133341414Y-85047111D01*
X133270932Y-85217271D01*
X133235000Y-85397911D01*
X133235000Y-85582089D01*
X133270932Y-85762729D01*
X133341414Y-85932889D01*
X133352374Y-85949292D01*
X133336202Y-85968997D01*
X133336201Y-85968998D01*
X133265026Y-86055724D01*
X133194454Y-86187754D01*
X133166473Y-86280000D01*
X133150998Y-86331014D01*
X133140001Y-86442667D01*
X133136324Y-86480000D01*
X133140001Y-86517332D01*
X133140000Y-90242677D01*
X133136324Y-90280000D01*
X133140000Y-90317322D01*
X133140000Y-90317332D01*
X133150997Y-90428985D01*
X133189003Y-90554276D01*
X133194454Y-90572246D01*
X133265026Y-90704276D01*
X133287110Y-90731185D01*
X133352373Y-90810709D01*
X133341414Y-90827111D01*
X133270932Y-90997271D01*
X133235000Y-91177911D01*
X133235000Y-91362089D01*
X133270932Y-91542729D01*
X133341414Y-91712889D01*
X133428294Y-91842915D01*
X133391609Y-91868413D01*
X133242986Y-92022592D01*
X133127298Y-92202803D01*
X133055592Y-92405999D01*
X133182498Y-92573000D01*
X134523000Y-92573000D01*
X134523000Y-92553000D01*
X134777000Y-92553000D01*
X134777000Y-92573000D01*
X136117502Y-92573000D01*
X136244408Y-92405999D01*
X136227703Y-92358663D01*
X136261185Y-92331185D01*
X136340537Y-92234494D01*
X136399502Y-92124180D01*
X136435812Y-92004482D01*
X136448072Y-91880000D01*
X136445000Y-91865750D01*
X136287799Y-91708549D01*
X136426907Y-91750747D01*
X136620000Y-91769765D01*
X136813093Y-91750747D01*
X136998766Y-91694424D01*
X137169883Y-91602959D01*
X137282290Y-91510710D01*
X137389871Y-91403129D01*
X137386928Y-91800000D01*
X137399188Y-91924482D01*
X137435498Y-92044180D01*
X137494463Y-92154494D01*
X137573815Y-92251185D01*
X137670506Y-92330537D01*
X137780820Y-92389502D01*
X137900518Y-92425812D01*
X138025000Y-92438072D01*
X138226750Y-92435000D01*
X138385500Y-92276250D01*
X138385500Y-91227000D01*
X138365500Y-91227000D01*
X138365500Y-90973000D01*
X138385500Y-90973000D01*
X138385500Y-90953000D01*
X138639500Y-90953000D01*
X138639500Y-90973000D01*
X138659500Y-90973000D01*
X138659500Y-91227000D01*
X138639500Y-91227000D01*
X138639500Y-92276250D01*
X138798250Y-92435000D01*
X139000000Y-92438072D01*
X139124482Y-92425812D01*
X139244180Y-92389502D01*
X139354494Y-92330537D01*
X139451185Y-92251185D01*
X139514992Y-92173436D01*
X139520208Y-92179792D01*
X139653836Y-92289458D01*
X139806291Y-92370947D01*
X139971715Y-92421128D01*
X140143750Y-92438072D01*
X140631250Y-92438072D01*
X140803285Y-92421128D01*
X140968709Y-92370947D01*
X141121164Y-92289458D01*
X141254792Y-92179792D01*
X141364458Y-92046164D01*
X141445947Y-91893709D01*
X141496128Y-91728285D01*
X141502361Y-91665000D01*
X141527713Y-91665000D01*
X141530498Y-91674180D01*
X141589463Y-91784494D01*
X141668815Y-91881185D01*
X141765506Y-91960537D01*
X141875820Y-92019502D01*
X141995518Y-92055812D01*
X142120000Y-92068072D01*
X144120000Y-92068072D01*
X144244482Y-92055812D01*
X144364180Y-92019502D01*
X144474494Y-91960537D01*
X144571185Y-91881185D01*
X144650537Y-91784494D01*
X144709502Y-91674180D01*
X144745812Y-91554482D01*
X144758072Y-91430000D01*
X144758072Y-89930000D01*
X144745812Y-89805518D01*
X144709502Y-89685820D01*
X144650537Y-89575506D01*
X144613191Y-89530000D01*
X144650537Y-89484494D01*
X144709502Y-89374180D01*
X144712287Y-89365000D01*
X147781928Y-89365000D01*
X147781928Y-90280000D01*
X147794188Y-90404482D01*
X147830498Y-90524180D01*
X147889463Y-90634494D01*
X147968815Y-90731185D01*
X148065506Y-90810537D01*
X148175820Y-90869502D01*
X148295518Y-90905812D01*
X148420000Y-90918072D01*
X150317572Y-90918072D01*
X150706928Y-91307428D01*
X150706928Y-91496250D01*
X150723872Y-91668285D01*
X150774053Y-91833709D01*
X150855542Y-91986164D01*
X150965208Y-92119792D01*
X151098836Y-92229458D01*
X151251291Y-92310947D01*
X151416715Y-92361128D01*
X151588750Y-92378072D01*
X152076250Y-92378072D01*
X152248285Y-92361128D01*
X152413709Y-92310947D01*
X152566164Y-92229458D01*
X152699792Y-92119792D01*
X152705008Y-92113436D01*
X152768815Y-92191185D01*
X152865506Y-92270537D01*
X152975820Y-92329502D01*
X153095518Y-92365812D01*
X153220000Y-92378072D01*
X153421750Y-92375000D01*
X153580500Y-92216250D01*
X153580500Y-91167000D01*
X153834500Y-91167000D01*
X153834500Y-92216250D01*
X153993250Y-92375000D01*
X154195000Y-92378072D01*
X154319482Y-92365812D01*
X154439180Y-92329502D01*
X154549494Y-92270537D01*
X154646185Y-92191185D01*
X154725537Y-92094494D01*
X154784502Y-91984180D01*
X154820812Y-91864482D01*
X154833072Y-91740000D01*
X154830000Y-91325750D01*
X154671250Y-91167000D01*
X153834500Y-91167000D01*
X153580500Y-91167000D01*
X153560500Y-91167000D01*
X153560500Y-90913000D01*
X153580500Y-90913000D01*
X153580500Y-90893000D01*
X153834500Y-90893000D01*
X153834500Y-90913000D01*
X154671250Y-90913000D01*
X154830000Y-90754250D01*
X154833072Y-90340000D01*
X154820812Y-90215518D01*
X154784502Y-90095820D01*
X154725537Y-89985506D01*
X154696398Y-89950000D01*
X156186852Y-89950000D01*
X156181928Y-90000000D01*
X156181928Y-90380000D01*
X156187837Y-90440000D01*
X156181928Y-90500000D01*
X156181928Y-90880000D01*
X156187988Y-90941526D01*
X156185000Y-90968250D01*
X156191234Y-90974484D01*
X156194188Y-91004482D01*
X156230498Y-91124180D01*
X156289463Y-91234494D01*
X156322275Y-91274475D01*
X156301917Y-91294833D01*
X156294733Y-91291465D01*
X156267701Y-91275956D01*
X156241069Y-91257698D01*
X156214754Y-91236516D01*
X156185561Y-91209287D01*
X156169494Y-91196563D01*
X156147538Y-91184827D01*
X156123713Y-91177600D01*
X156098937Y-91175160D01*
X156074161Y-91177600D01*
X156050336Y-91184827D01*
X156028380Y-91196563D01*
X156009134Y-91212357D01*
X155832357Y-91389134D01*
X155819082Y-91404748D01*
X155806589Y-91426283D01*
X155798538Y-91449842D01*
X155795237Y-91474518D01*
X155796814Y-91499364D01*
X155803207Y-91523426D01*
X155814172Y-91545777D01*
X155829287Y-91565561D01*
X155856516Y-91594754D01*
X155877698Y-91621069D01*
X155895956Y-91647701D01*
X155911465Y-91674733D01*
X155924381Y-91702287D01*
X155934843Y-91730558D01*
X155942922Y-91759719D01*
X155948656Y-91790015D01*
X155952019Y-91821657D01*
X155953070Y-91859524D01*
X155954097Y-91872500D01*
X155959736Y-91896750D01*
X155969997Y-91919433D01*
X155984486Y-91939679D01*
X156002647Y-91956709D01*
X156023781Y-91969869D01*
X156047076Y-91978653D01*
X156214129Y-92023524D01*
X156215926Y-92034366D01*
X156224710Y-92057661D01*
X156237870Y-92078795D01*
X156254900Y-92096956D01*
X156275146Y-92111445D01*
X156297829Y-92121706D01*
X156322079Y-92127345D01*
X156346962Y-92128144D01*
X156371524Y-92124074D01*
X156480000Y-92094937D01*
X156588476Y-92124074D01*
X156604921Y-92127345D01*
X156629804Y-92128144D01*
X156654366Y-92124074D01*
X156677661Y-92115290D01*
X156698795Y-92102130D01*
X156716956Y-92085100D01*
X156731445Y-92064854D01*
X156741706Y-92042171D01*
X156746054Y-92023475D01*
X156781551Y-92013940D01*
X156832388Y-92017952D01*
X157034250Y-92015000D01*
X157193000Y-91856250D01*
X157193000Y-91518072D01*
X157447000Y-91518072D01*
X157447000Y-91856250D01*
X157605750Y-92015000D01*
X157740001Y-92016963D01*
X157740001Y-92667571D01*
X157736807Y-92700000D01*
X157740001Y-92732429D01*
X157740001Y-92767711D01*
X157730420Y-92865424D01*
X157711420Y-92928357D01*
X157680554Y-92986406D01*
X157639011Y-93037343D01*
X157588356Y-93079248D01*
X157530529Y-93110515D01*
X157467728Y-93129956D01*
X157372165Y-93140000D01*
X136192886Y-93140000D01*
X136244408Y-92994001D01*
X136117502Y-92827000D01*
X134777000Y-92827000D01*
X134777000Y-92847000D01*
X134523000Y-92847000D01*
X134523000Y-92827000D01*
X133182498Y-92827000D01*
X133055592Y-92994001D01*
X133107114Y-93140000D01*
X131872886Y-93140000D01*
X131924408Y-92994001D01*
X131797502Y-92827000D01*
X130607000Y-92827000D01*
X130607000Y-92847000D01*
X130353000Y-92847000D01*
X130353000Y-92827000D01*
X129162498Y-92827000D01*
X129035592Y-92994001D01*
X129043158Y-93015441D01*
X129020752Y-92988356D01*
X128989485Y-92930529D01*
X128970044Y-92867728D01*
X128960000Y-92772165D01*
X128960000Y-92405999D01*
X129035592Y-92405999D01*
X129162498Y-92573000D01*
X130353000Y-92573000D01*
X130353000Y-91615000D01*
X130607000Y-91615000D01*
X130607000Y-92573000D01*
X131797502Y-92573000D01*
X131924408Y-92405999D01*
X131852702Y-92202803D01*
X131737014Y-92022592D01*
X131588391Y-91868413D01*
X131412545Y-91746191D01*
X131216233Y-91660624D01*
X131007000Y-91615000D01*
X130607000Y-91615000D01*
X130353000Y-91615000D01*
X129953000Y-91615000D01*
X129743767Y-91660624D01*
X129547455Y-91746191D01*
X129371609Y-91868413D01*
X129222986Y-92022592D01*
X129107298Y-92202803D01*
X129035592Y-92405999D01*
X128960000Y-92405999D01*
X128960000Y-84354001D01*
X129035592Y-84354001D01*
X129107298Y-84557197D01*
X129222986Y-84737408D01*
X129371609Y-84891587D01*
X129547455Y-85013809D01*
X129743767Y-85099376D01*
X129953000Y-85145000D01*
X130353000Y-85145000D01*
X130353000Y-84187000D01*
X130607000Y-84187000D01*
X130607000Y-85145000D01*
X131007000Y-85145000D01*
X131216233Y-85099376D01*
X131412545Y-85013809D01*
X131588391Y-84891587D01*
X131737014Y-84737408D01*
X131852702Y-84557197D01*
X131924408Y-84354001D01*
X131797502Y-84187000D01*
X130607000Y-84187000D01*
X130353000Y-84187000D01*
X129162498Y-84187000D01*
X129035592Y-84354001D01*
X128960000Y-84354001D01*
X128960000Y-84132279D01*
X128969580Y-84034576D01*
X128988580Y-83971644D01*
X129019445Y-83913595D01*
X129060989Y-83862657D01*
X129090495Y-83838248D01*
X129162498Y-83933000D01*
X130353000Y-83933000D01*
X130353000Y-83913000D01*
X130607000Y-83913000D01*
X130607000Y-83933000D01*
X131797502Y-83933000D01*
X131924408Y-83765999D01*
X131922291Y-83760000D01*
X133057709Y-83760000D01*
X133055592Y-83765999D01*
D22*
%TO.N,Net-(J1-PadB5)*%
G36*
X140774574Y-89700000D02*
G01*
X140316287Y-89964220D01*
X140292675Y-89941414D01*
X140292123Y-89940912D01*
X140261422Y-89914562D01*
X140260785Y-89914050D01*
X140229875Y-89890800D01*
X140229144Y-89890289D01*
X140198024Y-89870139D01*
X140197192Y-89869644D01*
X140165863Y-89852594D01*
X140164929Y-89852134D01*
X140133390Y-89838184D01*
X140132360Y-89837781D01*
X140100611Y-89826931D01*
X140099497Y-89826607D01*
X140067539Y-89818857D01*
X140066363Y-89818630D01*
X140034195Y-89813980D01*
X140032985Y-89813864D01*
X140012701Y-89812893D01*
X140012701Y-89587107D01*
X140032986Y-89586135D01*
X140034195Y-89586019D01*
X140066363Y-89581369D01*
X140067539Y-89581142D01*
X140099497Y-89573392D01*
X140100611Y-89573068D01*
X140132360Y-89562218D01*
X140133390Y-89561815D01*
X140164929Y-89547865D01*
X140165863Y-89547405D01*
X140197192Y-89530355D01*
X140198024Y-89529860D01*
X140229144Y-89509710D01*
X140229875Y-89509199D01*
X140260785Y-89485949D01*
X140261422Y-89485437D01*
X140292123Y-89459087D01*
X140292675Y-89458585D01*
X140316287Y-89435780D01*
X140774574Y-89700000D01*
G37*
X140774574Y-89700000D02*
X140316287Y-89964220D01*
X140292675Y-89941414D01*
X140292123Y-89940912D01*
X140261422Y-89914562D01*
X140260785Y-89914050D01*
X140229875Y-89890800D01*
X140229144Y-89890289D01*
X140198024Y-89870139D01*
X140197192Y-89869644D01*
X140165863Y-89852594D01*
X140164929Y-89852134D01*
X140133390Y-89838184D01*
X140132360Y-89837781D01*
X140100611Y-89826931D01*
X140099497Y-89826607D01*
X140067539Y-89818857D01*
X140066363Y-89818630D01*
X140034195Y-89813980D01*
X140032985Y-89813864D01*
X140012701Y-89812893D01*
X140012701Y-89587107D01*
X140032986Y-89586135D01*
X140034195Y-89586019D01*
X140066363Y-89581369D01*
X140067539Y-89581142D01*
X140099497Y-89573392D01*
X140100611Y-89573068D01*
X140132360Y-89562218D01*
X140133390Y-89561815D01*
X140164929Y-89547865D01*
X140165863Y-89547405D01*
X140197192Y-89530355D01*
X140198024Y-89529860D01*
X140229144Y-89509710D01*
X140229875Y-89509199D01*
X140260785Y-89485949D01*
X140261422Y-89485437D01*
X140292123Y-89459087D01*
X140292675Y-89458585D01*
X140316287Y-89435780D01*
X140774574Y-89700000D01*
%TO.N,Net-(J1-PadA8)*%
G36*
X153887546Y-88463809D02*
G01*
X153888472Y-88497187D01*
X153888538Y-88498177D01*
X153892970Y-88539873D01*
X153893121Y-88540893D01*
X153900797Y-88581450D01*
X153901036Y-88582479D01*
X153911956Y-88621895D01*
X153912284Y-88622912D01*
X153926448Y-88661188D01*
X153926860Y-88662170D01*
X153944268Y-88699307D01*
X153944751Y-88700237D01*
X153965403Y-88736233D01*
X153965944Y-88737094D01*
X153989840Y-88771950D01*
X153990422Y-88772733D01*
X154017562Y-88806449D01*
X154018168Y-88807147D01*
X154040187Y-88830755D01*
X153880756Y-88990186D01*
X153857148Y-88968167D01*
X153856450Y-88967561D01*
X153822734Y-88940421D01*
X153821951Y-88939839D01*
X153787095Y-88915943D01*
X153786234Y-88915402D01*
X153750238Y-88894750D01*
X153749308Y-88894267D01*
X153712171Y-88876859D01*
X153711189Y-88876447D01*
X153672913Y-88862283D01*
X153671896Y-88861955D01*
X153632480Y-88851035D01*
X153631451Y-88850796D01*
X153590894Y-88843120D01*
X153589874Y-88842969D01*
X153548178Y-88838537D01*
X153547188Y-88838471D01*
X153513810Y-88837545D01*
X153376558Y-88326557D01*
X153887546Y-88463809D01*
G37*
X153887546Y-88463809D02*
X153888472Y-88497187D01*
X153888538Y-88498177D01*
X153892970Y-88539873D01*
X153893121Y-88540893D01*
X153900797Y-88581450D01*
X153901036Y-88582479D01*
X153911956Y-88621895D01*
X153912284Y-88622912D01*
X153926448Y-88661188D01*
X153926860Y-88662170D01*
X153944268Y-88699307D01*
X153944751Y-88700237D01*
X153965403Y-88736233D01*
X153965944Y-88737094D01*
X153989840Y-88771950D01*
X153990422Y-88772733D01*
X154017562Y-88806449D01*
X154018168Y-88807147D01*
X154040187Y-88830755D01*
X153880756Y-88990186D01*
X153857148Y-88968167D01*
X153856450Y-88967561D01*
X153822734Y-88940421D01*
X153821951Y-88939839D01*
X153787095Y-88915943D01*
X153786234Y-88915402D01*
X153750238Y-88894750D01*
X153749308Y-88894267D01*
X153712171Y-88876859D01*
X153711189Y-88876447D01*
X153672913Y-88862283D01*
X153671896Y-88861955D01*
X153632480Y-88851035D01*
X153631451Y-88850796D01*
X153590894Y-88843120D01*
X153589874Y-88842969D01*
X153548178Y-88838537D01*
X153547188Y-88838471D01*
X153513810Y-88837545D01*
X153376558Y-88326557D01*
X153887546Y-88463809D01*
%TO.N,Net-(J1-PadA5)*%
G36*
X139174574Y-87235000D02*
G01*
X138715742Y-87499534D01*
X138689777Y-87477513D01*
X138687849Y-87476164D01*
X138650281Y-87454764D01*
X138648235Y-87453828D01*
X138605880Y-87438828D01*
X138603919Y-87438305D01*
X138556776Y-87429705D01*
X138555035Y-87429510D01*
X138503104Y-87427310D01*
X138501628Y-87427334D01*
X138444909Y-87431534D01*
X138443690Y-87431684D01*
X138382184Y-87442284D01*
X138381186Y-87442497D01*
X138314892Y-87459497D01*
X138314076Y-87459736D01*
X138242994Y-87483136D01*
X138242322Y-87483378D01*
X138183796Y-87506367D01*
X138183796Y-87283336D01*
X138252018Y-87253752D01*
X138252273Y-87253638D01*
X138323355Y-87220938D01*
X138323637Y-87220803D01*
X138389931Y-87188303D01*
X138390246Y-87188144D01*
X138451752Y-87155844D01*
X138452102Y-87155653D01*
X138508821Y-87123553D01*
X138509213Y-87123321D01*
X138561144Y-87091421D01*
X138561584Y-87091139D01*
X138608727Y-87059439D01*
X138609219Y-87059091D01*
X138651574Y-87027591D01*
X138652124Y-87027157D01*
X138689692Y-86995857D01*
X138690304Y-86995313D01*
X138716210Y-86970735D01*
X139174574Y-87235000D01*
G37*
X139174574Y-87235000D02*
X138715742Y-87499534D01*
X138689777Y-87477513D01*
X138687849Y-87476164D01*
X138650281Y-87454764D01*
X138648235Y-87453828D01*
X138605880Y-87438828D01*
X138603919Y-87438305D01*
X138556776Y-87429705D01*
X138555035Y-87429510D01*
X138503104Y-87427310D01*
X138501628Y-87427334D01*
X138444909Y-87431534D01*
X138443690Y-87431684D01*
X138382184Y-87442284D01*
X138381186Y-87442497D01*
X138314892Y-87459497D01*
X138314076Y-87459736D01*
X138242994Y-87483136D01*
X138242322Y-87483378D01*
X138183796Y-87506367D01*
X138183796Y-87283336D01*
X138252018Y-87253752D01*
X138252273Y-87253638D01*
X138323355Y-87220938D01*
X138323637Y-87220803D01*
X138389931Y-87188303D01*
X138390246Y-87188144D01*
X138451752Y-87155844D01*
X138452102Y-87155653D01*
X138508821Y-87123553D01*
X138509213Y-87123321D01*
X138561144Y-87091421D01*
X138561584Y-87091139D01*
X138608727Y-87059439D01*
X138609219Y-87059091D01*
X138651574Y-87027591D01*
X138652124Y-87027157D01*
X138689692Y-86995857D01*
X138690304Y-86995313D01*
X138716210Y-86970735D01*
X139174574Y-87235000D01*
G36*
X155834246Y-87322186D02*
G01*
X155834484Y-87354479D01*
X155834497Y-87354968D01*
X155836292Y-87394028D01*
X155836331Y-87394593D01*
X155839613Y-87430755D01*
X155839690Y-87431409D01*
X155844459Y-87464674D01*
X155844591Y-87465434D01*
X155850846Y-87495801D01*
X155851061Y-87496684D01*
X155858802Y-87524154D01*
X155859137Y-87525174D01*
X155868365Y-87549746D01*
X155868869Y-87550909D01*
X155879583Y-87572583D01*
X155880319Y-87573875D01*
X155892520Y-87592651D01*
X155893549Y-87594022D01*
X155899537Y-87600970D01*
X155739438Y-87761069D01*
X155732490Y-87755081D01*
X155731119Y-87754052D01*
X155712343Y-87741851D01*
X155711051Y-87741115D01*
X155689377Y-87730401D01*
X155688214Y-87729897D01*
X155663642Y-87720669D01*
X155662622Y-87720334D01*
X155635152Y-87712593D01*
X155634269Y-87712378D01*
X155603902Y-87706123D01*
X155603142Y-87705991D01*
X155569877Y-87701222D01*
X155569223Y-87701145D01*
X155533061Y-87697863D01*
X155532496Y-87697824D01*
X155493436Y-87696029D01*
X155492947Y-87696016D01*
X155460654Y-87695778D01*
X155323454Y-87184986D01*
X155834246Y-87322186D01*
G37*
X155834246Y-87322186D02*
X155834484Y-87354479D01*
X155834497Y-87354968D01*
X155836292Y-87394028D01*
X155836331Y-87394593D01*
X155839613Y-87430755D01*
X155839690Y-87431409D01*
X155844459Y-87464674D01*
X155844591Y-87465434D01*
X155850846Y-87495801D01*
X155851061Y-87496684D01*
X155858802Y-87524154D01*
X155859137Y-87525174D01*
X155868365Y-87549746D01*
X155868869Y-87550909D01*
X155879583Y-87572583D01*
X155880319Y-87573875D01*
X155892520Y-87592651D01*
X155893549Y-87594022D01*
X155899537Y-87600970D01*
X155739438Y-87761069D01*
X155732490Y-87755081D01*
X155731119Y-87754052D01*
X155712343Y-87741851D01*
X155711051Y-87741115D01*
X155689377Y-87730401D01*
X155688214Y-87729897D01*
X155663642Y-87720669D01*
X155662622Y-87720334D01*
X155635152Y-87712593D01*
X155634269Y-87712378D01*
X155603902Y-87706123D01*
X155603142Y-87705991D01*
X155569877Y-87701222D01*
X155569223Y-87701145D01*
X155533061Y-87697863D01*
X155532496Y-87697824D01*
X155493436Y-87696029D01*
X155492947Y-87696016D01*
X155460654Y-87695778D01*
X155323454Y-87184986D01*
X155834246Y-87322186D01*
%TO.N,Net-(J1-PadB8)*%
G36*
X137574574Y-86700000D02*
G01*
X137116203Y-86964269D01*
X137091247Y-86940629D01*
X137090563Y-86940026D01*
X137055845Y-86911576D01*
X137055157Y-86911050D01*
X137017552Y-86884300D01*
X137016871Y-86883849D01*
X136976378Y-86858799D01*
X136975716Y-86858416D01*
X136932335Y-86835066D01*
X136931698Y-86834746D01*
X136885429Y-86813096D01*
X136884823Y-86812831D01*
X136835667Y-86792881D01*
X136835094Y-86792664D01*
X136783050Y-86774414D01*
X136782511Y-86774239D01*
X136727579Y-86757689D01*
X136727074Y-86757548D01*
X136678796Y-86745149D01*
X136678796Y-86520541D01*
X136721386Y-86529196D01*
X136722253Y-86529341D01*
X136777185Y-86536591D01*
X136778177Y-86536682D01*
X136830221Y-86539432D01*
X136831343Y-86539442D01*
X136880499Y-86537692D01*
X136881747Y-86537586D01*
X136928016Y-86531336D01*
X136929371Y-86531077D01*
X136972752Y-86520327D01*
X136974173Y-86519885D01*
X137014666Y-86504635D01*
X137016095Y-86503994D01*
X137053700Y-86484244D01*
X137055067Y-86483412D01*
X137089785Y-86459162D01*
X137091026Y-86458175D01*
X137116002Y-86435616D01*
X137574574Y-86700000D01*
G37*
X137574574Y-86700000D02*
X137116203Y-86964269D01*
X137091247Y-86940629D01*
X137090563Y-86940026D01*
X137055845Y-86911576D01*
X137055157Y-86911050D01*
X137017552Y-86884300D01*
X137016871Y-86883849D01*
X136976378Y-86858799D01*
X136975716Y-86858416D01*
X136932335Y-86835066D01*
X136931698Y-86834746D01*
X136885429Y-86813096D01*
X136884823Y-86812831D01*
X136835667Y-86792881D01*
X136835094Y-86792664D01*
X136783050Y-86774414D01*
X136782511Y-86774239D01*
X136727579Y-86757689D01*
X136727074Y-86757548D01*
X136678796Y-86745149D01*
X136678796Y-86520541D01*
X136721386Y-86529196D01*
X136722253Y-86529341D01*
X136777185Y-86536591D01*
X136778177Y-86536682D01*
X136830221Y-86539432D01*
X136831343Y-86539442D01*
X136880499Y-86537692D01*
X136881747Y-86537586D01*
X136928016Y-86531336D01*
X136929371Y-86531077D01*
X136972752Y-86520327D01*
X136974173Y-86519885D01*
X137014666Y-86504635D01*
X137016095Y-86503994D01*
X137053700Y-86484244D01*
X137055067Y-86483412D01*
X137089785Y-86459162D01*
X137091026Y-86458175D01*
X137116002Y-86435616D01*
X137574574Y-86700000D01*
%TO.N,Net-(J1-PadA7)*%
G36*
X141674574Y-88000000D02*
G01*
X141215648Y-88264588D01*
X141189316Y-88242770D01*
X141187134Y-88241314D01*
X141148516Y-88220964D01*
X141146249Y-88220036D01*
X141102144Y-88206786D01*
X141100053Y-88206346D01*
X141050460Y-88200196D01*
X141048678Y-88200101D01*
X140993597Y-88201051D01*
X140992143Y-88201160D01*
X140931574Y-88209210D01*
X140930408Y-88209420D01*
X140864352Y-88224570D01*
X140863420Y-88224822D01*
X140791876Y-88247072D01*
X140791125Y-88247331D01*
X140714093Y-88276681D01*
X140713483Y-88276932D01*
X140648796Y-88305506D01*
X140648796Y-88082997D01*
X140724104Y-88046903D01*
X140724310Y-88046801D01*
X140801342Y-88008151D01*
X140801574Y-88008032D01*
X140873118Y-87970282D01*
X140873378Y-87970141D01*
X140939434Y-87933291D01*
X140939729Y-87933121D01*
X141000298Y-87897171D01*
X141000634Y-87896965D01*
X141055715Y-87861915D01*
X141056100Y-87861660D01*
X141105693Y-87827510D01*
X141106135Y-87827191D01*
X141150240Y-87793941D01*
X141150750Y-87793536D01*
X141189368Y-87761186D01*
X141189957Y-87760661D01*
X141216213Y-87735737D01*
X141674574Y-88000000D01*
G37*
X141674574Y-88000000D02*
X141215648Y-88264588D01*
X141189316Y-88242770D01*
X141187134Y-88241314D01*
X141148516Y-88220964D01*
X141146249Y-88220036D01*
X141102144Y-88206786D01*
X141100053Y-88206346D01*
X141050460Y-88200196D01*
X141048678Y-88200101D01*
X140993597Y-88201051D01*
X140992143Y-88201160D01*
X140931574Y-88209210D01*
X140930408Y-88209420D01*
X140864352Y-88224570D01*
X140863420Y-88224822D01*
X140791876Y-88247072D01*
X140791125Y-88247331D01*
X140714093Y-88276681D01*
X140713483Y-88276932D01*
X140648796Y-88305506D01*
X140648796Y-88082997D01*
X140724104Y-88046903D01*
X140724310Y-88046801D01*
X140801342Y-88008151D01*
X140801574Y-88008032D01*
X140873118Y-87970282D01*
X140873378Y-87970141D01*
X140939434Y-87933291D01*
X140939729Y-87933121D01*
X141000298Y-87897171D01*
X141000634Y-87896965D01*
X141055715Y-87861915D01*
X141056100Y-87861660D01*
X141105693Y-87827510D01*
X141106135Y-87827191D01*
X141150240Y-87793941D01*
X141150750Y-87793536D01*
X141189368Y-87761186D01*
X141189957Y-87760661D01*
X141216213Y-87735737D01*
X141674574Y-88000000D01*
%TO.N,GND*%
G36*
X156654574Y-85020000D02*
G01*
X156196198Y-85284272D01*
X156171941Y-85261323D01*
X156171194Y-85260670D01*
X156138576Y-85234320D01*
X156137749Y-85233705D01*
X156103644Y-85210455D01*
X156102747Y-85209897D01*
X156067154Y-85189747D01*
X156066203Y-85189260D01*
X156029122Y-85172210D01*
X156028136Y-85171806D01*
X155989567Y-85157856D01*
X155988567Y-85157541D01*
X155948511Y-85146691D01*
X155947520Y-85146464D01*
X155905976Y-85138714D01*
X155905011Y-85138573D01*
X155861979Y-85133923D01*
X155861057Y-85133857D01*
X155828796Y-85132735D01*
X155828796Y-84907265D01*
X155861057Y-84906142D01*
X155861979Y-84906076D01*
X155905011Y-84901426D01*
X155905976Y-84901285D01*
X155947520Y-84893535D01*
X155948511Y-84893308D01*
X155988567Y-84882458D01*
X155989567Y-84882143D01*
X156028136Y-84868193D01*
X156029122Y-84867789D01*
X156066203Y-84850739D01*
X156067154Y-84850252D01*
X156102747Y-84830102D01*
X156103644Y-84829544D01*
X156137749Y-84806294D01*
X156138576Y-84805679D01*
X156171194Y-84779329D01*
X156171941Y-84778676D01*
X156196198Y-84755728D01*
X156654574Y-85020000D01*
G37*
X156654574Y-85020000D02*
X156196198Y-85284272D01*
X156171941Y-85261323D01*
X156171194Y-85260670D01*
X156138576Y-85234320D01*
X156137749Y-85233705D01*
X156103644Y-85210455D01*
X156102747Y-85209897D01*
X156067154Y-85189747D01*
X156066203Y-85189260D01*
X156029122Y-85172210D01*
X156028136Y-85171806D01*
X155989567Y-85157856D01*
X155988567Y-85157541D01*
X155948511Y-85146691D01*
X155947520Y-85146464D01*
X155905976Y-85138714D01*
X155905011Y-85138573D01*
X155861979Y-85133923D01*
X155861057Y-85133857D01*
X155828796Y-85132735D01*
X155828796Y-84907265D01*
X155861057Y-84906142D01*
X155861979Y-84906076D01*
X155905011Y-84901426D01*
X155905976Y-84901285D01*
X155947520Y-84893535D01*
X155948511Y-84893308D01*
X155988567Y-84882458D01*
X155989567Y-84882143D01*
X156028136Y-84868193D01*
X156029122Y-84867789D01*
X156066203Y-84850739D01*
X156067154Y-84850252D01*
X156102747Y-84830102D01*
X156103644Y-84829544D01*
X156137749Y-84806294D01*
X156138576Y-84805679D01*
X156171194Y-84779329D01*
X156171941Y-84778676D01*
X156196198Y-84755728D01*
X156654574Y-85020000D01*
G36*
X157020187Y-91479244D02*
G01*
X156998168Y-91502850D01*
X156997562Y-91503549D01*
X156970422Y-91537265D01*
X156969840Y-91538048D01*
X156945944Y-91572904D01*
X156945403Y-91573765D01*
X156924751Y-91609761D01*
X156924268Y-91610691D01*
X156906860Y-91647828D01*
X156906448Y-91648810D01*
X156892284Y-91687086D01*
X156891956Y-91688103D01*
X156881036Y-91727519D01*
X156880797Y-91728548D01*
X156873121Y-91769105D01*
X156872970Y-91770125D01*
X156868538Y-91811821D01*
X156868472Y-91812811D01*
X156867546Y-91846190D01*
X156356558Y-91983442D01*
X156493810Y-91472453D01*
X156527188Y-91471527D01*
X156528178Y-91471461D01*
X156569874Y-91467029D01*
X156570894Y-91466878D01*
X156611451Y-91459202D01*
X156612480Y-91458963D01*
X156651896Y-91448043D01*
X156652913Y-91447715D01*
X156691189Y-91433551D01*
X156692171Y-91433139D01*
X156729308Y-91415731D01*
X156730238Y-91415248D01*
X156766234Y-91394596D01*
X156767095Y-91394055D01*
X156801951Y-91370159D01*
X156802734Y-91369577D01*
X156836450Y-91342437D01*
X156837148Y-91341831D01*
X156860756Y-91319813D01*
X157020187Y-91479244D01*
G37*
X157020187Y-91479244D02*
X156998168Y-91502850D01*
X156997562Y-91503549D01*
X156970422Y-91537265D01*
X156969840Y-91538048D01*
X156945944Y-91572904D01*
X156945403Y-91573765D01*
X156924751Y-91609761D01*
X156924268Y-91610691D01*
X156906860Y-91647828D01*
X156906448Y-91648810D01*
X156892284Y-91687086D01*
X156891956Y-91688103D01*
X156881036Y-91727519D01*
X156880797Y-91728548D01*
X156873121Y-91769105D01*
X156872970Y-91770125D01*
X156868538Y-91811821D01*
X156868472Y-91812811D01*
X156867546Y-91846190D01*
X156356558Y-91983442D01*
X156493810Y-91472453D01*
X156527188Y-91471527D01*
X156528178Y-91471461D01*
X156569874Y-91467029D01*
X156570894Y-91466878D01*
X156611451Y-91459202D01*
X156612480Y-91458963D01*
X156651896Y-91448043D01*
X156652913Y-91447715D01*
X156691189Y-91433551D01*
X156692171Y-91433139D01*
X156729308Y-91415731D01*
X156730238Y-91415248D01*
X156766234Y-91394596D01*
X156767095Y-91394055D01*
X156801951Y-91370159D01*
X156802734Y-91369577D01*
X156836450Y-91342437D01*
X156837148Y-91341831D01*
X156860756Y-91319813D01*
X157020187Y-91479244D01*
G36*
X156122851Y-91341831D02*
G01*
X156123549Y-91342437D01*
X156157265Y-91369577D01*
X156158048Y-91370159D01*
X156192904Y-91394055D01*
X156193765Y-91394596D01*
X156229761Y-91415248D01*
X156230691Y-91415731D01*
X156267828Y-91433139D01*
X156268810Y-91433551D01*
X156307086Y-91447715D01*
X156308103Y-91448043D01*
X156347519Y-91458963D01*
X156348548Y-91459202D01*
X156389105Y-91466878D01*
X156390125Y-91467029D01*
X156431821Y-91471461D01*
X156432811Y-91471527D01*
X156466190Y-91472453D01*
X156603442Y-91983442D01*
X156092453Y-91846190D01*
X156091527Y-91812811D01*
X156091461Y-91811821D01*
X156087029Y-91770125D01*
X156086878Y-91769105D01*
X156079202Y-91728548D01*
X156078963Y-91727519D01*
X156068043Y-91688103D01*
X156067715Y-91687086D01*
X156053551Y-91648810D01*
X156053139Y-91647828D01*
X156035731Y-91610691D01*
X156035248Y-91609761D01*
X156014596Y-91573765D01*
X156014055Y-91572904D01*
X155990159Y-91538048D01*
X155989577Y-91537265D01*
X155962437Y-91503549D01*
X155961831Y-91502851D01*
X155939813Y-91479244D01*
X156099244Y-91319813D01*
X156122851Y-91341831D01*
G37*
X156122851Y-91341831D02*
X156123549Y-91342437D01*
X156157265Y-91369577D01*
X156158048Y-91370159D01*
X156192904Y-91394055D01*
X156193765Y-91394596D01*
X156229761Y-91415248D01*
X156230691Y-91415731D01*
X156267828Y-91433139D01*
X156268810Y-91433551D01*
X156307086Y-91447715D01*
X156308103Y-91448043D01*
X156347519Y-91458963D01*
X156348548Y-91459202D01*
X156389105Y-91466878D01*
X156390125Y-91467029D01*
X156431821Y-91471461D01*
X156432811Y-91471527D01*
X156466190Y-91472453D01*
X156603442Y-91983442D01*
X156092453Y-91846190D01*
X156091527Y-91812811D01*
X156091461Y-91811821D01*
X156087029Y-91770125D01*
X156086878Y-91769105D01*
X156079202Y-91728548D01*
X156078963Y-91727519D01*
X156068043Y-91688103D01*
X156067715Y-91687086D01*
X156053551Y-91648810D01*
X156053139Y-91647828D01*
X156035731Y-91610691D01*
X156035248Y-91609761D01*
X156014596Y-91573765D01*
X156014055Y-91572904D01*
X155990159Y-91538048D01*
X155989577Y-91537265D01*
X155962437Y-91503549D01*
X155961831Y-91502851D01*
X155939813Y-91479244D01*
X156099244Y-91319813D01*
X156122851Y-91341831D01*
%TO.N,Net-(J1-PadA5)*%
G36*
X139174574Y-87235000D02*
G01*
X138715742Y-87499534D01*
X138689777Y-87477513D01*
X138687849Y-87476164D01*
X138650281Y-87454764D01*
X138648235Y-87453828D01*
X138605880Y-87438828D01*
X138603919Y-87438305D01*
X138556776Y-87429705D01*
X138555035Y-87429510D01*
X138503104Y-87427310D01*
X138501628Y-87427334D01*
X138444909Y-87431534D01*
X138443690Y-87431684D01*
X138382184Y-87442284D01*
X138381186Y-87442497D01*
X138314892Y-87459497D01*
X138314076Y-87459736D01*
X138242994Y-87483136D01*
X138242322Y-87483378D01*
X138183796Y-87506367D01*
X138183796Y-87283336D01*
X138252018Y-87253752D01*
X138252273Y-87253638D01*
X138323355Y-87220938D01*
X138323637Y-87220803D01*
X138389931Y-87188303D01*
X138390246Y-87188144D01*
X138451752Y-87155844D01*
X138452102Y-87155653D01*
X138508821Y-87123553D01*
X138509213Y-87123321D01*
X138561144Y-87091421D01*
X138561584Y-87091139D01*
X138608727Y-87059439D01*
X138609219Y-87059091D01*
X138651574Y-87027591D01*
X138652124Y-87027157D01*
X138689692Y-86995857D01*
X138690304Y-86995313D01*
X138716210Y-86970735D01*
X139174574Y-87235000D01*
G37*
X139174574Y-87235000D02*
X138715742Y-87499534D01*
X138689777Y-87477513D01*
X138687849Y-87476164D01*
X138650281Y-87454764D01*
X138648235Y-87453828D01*
X138605880Y-87438828D01*
X138603919Y-87438305D01*
X138556776Y-87429705D01*
X138555035Y-87429510D01*
X138503104Y-87427310D01*
X138501628Y-87427334D01*
X138444909Y-87431534D01*
X138443690Y-87431684D01*
X138382184Y-87442284D01*
X138381186Y-87442497D01*
X138314892Y-87459497D01*
X138314076Y-87459736D01*
X138242994Y-87483136D01*
X138242322Y-87483378D01*
X138183796Y-87506367D01*
X138183796Y-87283336D01*
X138252018Y-87253752D01*
X138252273Y-87253638D01*
X138323355Y-87220938D01*
X138323637Y-87220803D01*
X138389931Y-87188303D01*
X138390246Y-87188144D01*
X138451752Y-87155844D01*
X138452102Y-87155653D01*
X138508821Y-87123553D01*
X138509213Y-87123321D01*
X138561144Y-87091421D01*
X138561584Y-87091139D01*
X138608727Y-87059439D01*
X138609219Y-87059091D01*
X138651574Y-87027591D01*
X138652124Y-87027157D01*
X138689692Y-86995857D01*
X138690304Y-86995313D01*
X138716210Y-86970735D01*
X139174574Y-87235000D01*
%TO.N,Net-(J1-PadA7)*%
G36*
X141674574Y-88000000D02*
G01*
X141215648Y-88264588D01*
X141189316Y-88242770D01*
X141187134Y-88241314D01*
X141148516Y-88220964D01*
X141146249Y-88220036D01*
X141102144Y-88206786D01*
X141100053Y-88206346D01*
X141050460Y-88200196D01*
X141048678Y-88200101D01*
X140993597Y-88201051D01*
X140992143Y-88201160D01*
X140931574Y-88209210D01*
X140930408Y-88209420D01*
X140864352Y-88224570D01*
X140863420Y-88224822D01*
X140791876Y-88247072D01*
X140791125Y-88247331D01*
X140714093Y-88276681D01*
X140713483Y-88276932D01*
X140648796Y-88305506D01*
X140648796Y-88082997D01*
X140724104Y-88046903D01*
X140724310Y-88046801D01*
X140801342Y-88008151D01*
X140801574Y-88008032D01*
X140873118Y-87970282D01*
X140873378Y-87970141D01*
X140939434Y-87933291D01*
X140939729Y-87933121D01*
X141000298Y-87897171D01*
X141000634Y-87896965D01*
X141055715Y-87861915D01*
X141056100Y-87861660D01*
X141105693Y-87827510D01*
X141106135Y-87827191D01*
X141150240Y-87793941D01*
X141150750Y-87793536D01*
X141189368Y-87761186D01*
X141189957Y-87760661D01*
X141216213Y-87735737D01*
X141674574Y-88000000D01*
G37*
X141674574Y-88000000D02*
X141215648Y-88264588D01*
X141189316Y-88242770D01*
X141187134Y-88241314D01*
X141148516Y-88220964D01*
X141146249Y-88220036D01*
X141102144Y-88206786D01*
X141100053Y-88206346D01*
X141050460Y-88200196D01*
X141048678Y-88200101D01*
X140993597Y-88201051D01*
X140992143Y-88201160D01*
X140931574Y-88209210D01*
X140930408Y-88209420D01*
X140864352Y-88224570D01*
X140863420Y-88224822D01*
X140791876Y-88247072D01*
X140791125Y-88247331D01*
X140714093Y-88276681D01*
X140713483Y-88276932D01*
X140648796Y-88305506D01*
X140648796Y-88082997D01*
X140724104Y-88046903D01*
X140724310Y-88046801D01*
X140801342Y-88008151D01*
X140801574Y-88008032D01*
X140873118Y-87970282D01*
X140873378Y-87970141D01*
X140939434Y-87933291D01*
X140939729Y-87933121D01*
X141000298Y-87897171D01*
X141000634Y-87896965D01*
X141055715Y-87861915D01*
X141056100Y-87861660D01*
X141105693Y-87827510D01*
X141106135Y-87827191D01*
X141150240Y-87793941D01*
X141150750Y-87793536D01*
X141189368Y-87761186D01*
X141189957Y-87760661D01*
X141216213Y-87735737D01*
X141674574Y-88000000D01*
%TD*%
M02*
