M48
; DRILL file {KiCad (5.1.6)-1} date 09/04/22 01:09:15
; FORMAT={-:-/ absolute / inch / decimal}
; #@! TF.CreationDate,2022-09-04T01:09:15+08:00
; #@! TF.GenerationSoftware,Kicad,Pcbnew,(5.1.6)-1
; #@! TF.FileFunction,Plated,1,2,PTH
FMAT,2
INCH
T1C0.0157
T2C0.0236
%
G90
G05
T1
X5.4094Y-3.4134
X5.4724Y-3.4344
X5.5354Y-3.5315
X5.5669Y-3.5039
X5.5709Y-3.4646
X5.8071Y-3.4291
X6.0433Y-3.4823
X6.0843Y-3.4898
X6.1142Y-3.4687
X6.12Y-3.4373
X6.1496Y-3.3858
X6.1606Y-3.3472
X6.1606Y-3.6165
T2
G00X5.1213Y-3.3094
M15
G01X5.1528Y-3.3094
M16
G05
G00X5.1213Y-3.6496
M15
G01X5.1528Y-3.6496
M16
G05
G00X5.2795Y-3.3094
M15
G01X5.3228Y-3.3094
M16
G05
G00X5.2795Y-3.6496
M15
G01X5.3228Y-3.6496
M16
G05
T0
M30
